<?xml version="1.0" encoding="utf-8"?>
<!-- Generator: Adobe Illustrator 23.0.0, SVG Export Plug-In . SVG Version: 6.00 Build 0)  -->
<svg version="1.1" xmlns="http://www.w3.org/2000/svg" xmlns:xlink="http://www.w3.org/1999/xlink" x="0px" y="0px"
	 viewBox="0 0 595.28 841.89" style="enable-background:new 0 0 595.28 841.89;" xml:space="preserve">
<style type="text/css">
	.st0{fill:#937341;}
</style>
<g id="Capa_2">
</g>
<g id="Capa_1">
	<g>
		<path class="st0" d="M107.04,554.42c-4.31,0.3-8.63,0.59-12.94,0.89c0-4.28,0-8.55,0-12.83c38.89-44.92,74.31-91.01,57.98-156.56
			c-2.17-8.72-1.25-18.21-1.76-27.35c13.66,0.01,27.32,0.01,40.97,0.02c0.33,15.75,0.66,31.49,1,47.24
			c4.28,9.1,6.7,19.99,13.3,26.84c8.05,8.36,19.62,13.33,29.66,19.77c-6.52,2.92-12.89,7.8-19.61,8.35
			c-15.37,1.26-30.97-0.38-46.35,0.8c-5.94,0.46-14.2,3.88-16.79,8.53c-9.15,16.38-16.31,33.88-24.22,50.95
			C121.21,532.18,114.12,543.3,107.04,554.42z"/>
		<path class="st0" d="M252.37,803.39c-14.04-42.77-28.07-85.54-42.11-128.31c19.43,0.01,38.87,0.02,58.3,0.03
			c0.31,42.76,0.61,85.52,0.92,128.29C263.77,803.39,258.07,803.39,252.37,803.39z"/>
		<path class="st0" d="M338.96,798.91c0.25-29.84,0.51-59.69,0.76-89.53c15.21,3.06,30.42,6.13,45.63,9.19
			c-7.26,28.28-14.52,56.55-21.78,84.83c-7.13,0-14.26,0-21.39,0C341.12,801.9,340.04,800.4,338.96,798.91z"/>
		<path class="st0" d="M338.96,798.91c1.08,1.5,2.15,2.99,3.23,4.49c-1.43,0-2.85,0-4.28,0C338.26,801.9,338.61,800.4,338.96,798.91
			z"/>
		<path class="st0" d="M204.74,239.05c-3.86-7.21-7.72-14.43-11.59-21.64c20-21.16,40-42.31,61.97-65.56
			c14.42,15.12,27.59,27.93,39.54,41.79c8.62,9.99,16.46,12,26.05,2.19c6.6,1.48,13.17,4.08,19.8,4.24
			c21.91,0.54,43.83,0.21,65.75,0.22c5.51,5.71,11.01,11.41,16.52,17.12c-3.86,7.22-7.73,14.43-11.59,21.65
			c-7.5-1.52-15-4.31-22.52-4.36c-53.81-0.38-107.62-0.38-161.42,0C219.74,234.75,212.25,237.53,204.74,239.05z"/>
		<path class="st0" d="M204.74,239.05c7.51-1.52,15-4.3,22.52-4.35c53.81-0.38,107.62-0.38,161.42,0
			c7.51,0.05,15.01,2.84,22.52,4.36c-19.13,25.26-39.17,49.44-72.56,60.78c-9.87-17.63-19.66-35.13-31.32-55.96
			c-10.87,20.34-20.23,37.87-30.41,56.93C245.99,286.32,221.07,267.86,204.74,239.05z"/>
		<path class="st0" d="M381.05,338.1c-31.22,21.29-57.87,46.63-71.96,86.8c-9.49-15.8-14.66-30.51-24.77-39.96
			c-20.98-19.62-44.21-36.93-67.24-54.22c-10.44-7.83-19.68-5.66-23.03,8.69c-14.63-2.18-29.26-4.35-43.89-6.53
			c0.21-7.11,0.42-14.21,0.62-21.32c15.68-0.03,31.42,0.73,47.01-0.5c5.6-0.44,10.82-5.65,16.21-8.69
			c31.7,19.26,63.4,38.53,92.46,56.19c22.16-11.76,43.79-23.24,65.42-34.72C374.95,328.6,378,333.35,381.05,338.1z"/>
		<path class="st0" d="M339.78,572.43c0.01-14.24,0.01-28.47,0.01-42.71c52.12-0.03,104.25-0.05,156.37-0.08
			c4.24,8.28,8.47,16.57,12.71,24.85c-11.27,9.09-22.54,18.18-33.81,27.28c-6.04-3.12-12.03-8.81-18.14-8.93
			C417.9,572.02,378.83,572.43,339.78,572.43z"/>
		<path class="st0" d="M371.89,323.85c-21.63,11.48-43.25,22.95-65.42,34.72c-29.06-17.66-60.76-36.92-92.47-56.18
			c-8.45-10.37-17.59-20.27-25.23-31.21c-19.63-28.1-22.5-28.46-43.58-2.36c5.48-18.11,10.97-36.21,16.45-54.32
			c2.19-0.77,4.37-1.54,6.56-2.31c22.62,70.62,85.33,96.51,139.85,128.78c18.26-10.36,37.78-21.26,57.12-32.45
			c37.91-21.94,65.63-53.12,88.51-94.73c5.68,18.34,11.35,36.68,17.03,55.01c-6.57-11.18-13.14-22.36-20.59-35.05
			c-12.46,18.59-23.72,35.38-34.97,52.17C400.73,298.57,386.31,311.21,371.89,323.85z"/>
		<path class="st0" d="M339.8,486.89c-0.02-9.79-0.04-19.58-0.06-29.37c19.46-5.51,39.35-9.89,58.21-17.01
			c9.42-3.55,16.94-12.11,25.32-18.41c11.45,1.63,22.89,3.26,34.34,4.9c0.37,2.31,0.73,4.62,1.1,6.94c1.15,4.85,2.29,9.7,3.44,14.55
			c0.78,0.66,1.02,1.49,0.74,2.48c2.59,11.96,5.17,23.91,7.76,35.86C427.03,486.84,383.42,486.87,339.8,486.89z"/>
		<path class="st0" d="M339.78,572.43c39.05-0.01,78.12-0.41,117.15,0.4c6.1,0.13,12.09,5.82,18.14,8.93
			c-10.41,11.52-20.83,23.03-31.24,34.54c-34.69-0.37-69.37-0.74-104.06-1.11C339.77,600.94,339.78,586.69,339.78,572.43z"/>
		<path class="st0" d="M422.79,217.41c-5.51-5.71-11.01-11.41-16.52-17.12c-14.44-15.45-28.87-30.9-44.69-47.83
			c-14.72,15.62-27.79,29.49-40.87,43.37c-9.58,9.81-17.43,7.8-26.05-2.19c-11.95-13.86-25.12-26.67-39.54-41.79
			c-21.97,23.24-41.97,44.4-61.97,65.56c0.77-4.85-0.04-10.89,2.57-14.37c17.27-23.06,35.27-45.57,54.54-70.19
			c21.01,19.15,38.57,35.16,57.65,52.55c18-16.46,35.6-32.55,57.89-52.92c20.15,26.53,39.66,52.06,58.83,77.85
			C425.54,211.55,423.47,215,422.79,217.41z"/>
		<path class="st0" d="M339.77,615.2c34.68,0.37,69.37,0.74,104.06,1.11c-10.73,15.85-21.47,31.7-32.21,47.54
			c-6.34-1.96-12.63-5.33-19.05-5.62c-17.57-0.78-35.2-0.26-52.81-0.26C339.76,643.72,339.76,629.46,339.77,615.2z"/>
		<path class="st0" d="M371.89,323.85c14.42-12.64,28.84-25.28,43.26-37.93c15.81,1.47,31.62,2.93,47.43,4.4
			c0.65,4.33,1.3,8.66,1.95,12.99c0.23,2.67,0.45,5.34,0.68,8.02c0.19,11.47,0.37,22.94,0.56,34.41
			c-14.76,0.17-29.52,0.34-44.29,0.51c-2.32-6.98-4.65-13.95-7.51-22.55c-11.93,5.22-22.42,9.81-32.91,14.4
			C378,333.35,374.95,328.6,371.89,323.85z"/>
		<path class="st0" d="M311.14,156.74c-40.11-34.63-40.11-34.63-18.37-75.73c4.3-8.13,8.63-16.23,14.98-28.19
			c11.87,21.98,22.74,41.26,32.48,61.1c1.5,3.05-1.18,9.52-3.82,12.96C328.35,137.37,319.36,147.15,311.14,156.74z"/>
		<path class="st0" d="M339.76,657.97c17.61,0,35.24-0.52,52.81,0.26c6.42,0.29,12.7,3.66,19.05,5.62
			c-8.75,18.24-17.51,36.47-26.26,54.71c-15.21-3.06-30.42-6.13-45.63-9.19C339.73,692.24,339.75,675.11,339.76,657.97z"/>
		<path class="st0" d="M421.48,346.25c14.76-0.17,29.52-0.34,44.29-0.51c-2.72,27.08-5.44,54.17-8.16,81.25
			c-11.45-1.63-22.89-3.26-34.33-4.89c-0.48-6.29-0.96-12.59-1.44-18.89C421.72,384.23,421.6,365.24,421.48,346.25z"/>
		<path class="st0" d="M145.2,268.82c21.08-26.1,23.95-25.74,43.58,2.36c7.64,10.94,16.77,20.84,25.23,31.21
			c-5.39,3.03-10.62,8.24-16.21,8.68c-15.59,1.22-31.33,0.47-47.01,0.5C148.92,297.32,147.06,283.07,145.2,268.82z"/>
		<path class="st0" d="M462.58,290.33c-15.81-1.47-31.62-2.93-47.43-4.4c11.26-16.79,22.51-33.58,34.97-52.17
			c7.45,12.69,14.02,23.87,20.59,35.05C468.01,275.98,465.29,283.15,462.58,290.33z"/>
		<path class="st0" d="M150.16,332.88c14.63,2.17,29.26,4.35,43.89,6.53c-0.91,6.39-1.83,12.78-2.75,19.17
			c-13.66-0.01-27.32-0.01-40.97-0.02C150.27,350,150.22,341.44,150.16,332.88z"/>
		<path class="st0" d="M470.64,486.82c-2.59-11.95-5.17-23.9-7.76-35.86c16.97,28.22,33.4,56.78,51.19,84.48
			c6.41,9.98,5,15-5.2,19.05c-4.23-8.28-8.47-16.57-12.71-24.85C487.66,515.37,479.15,501.09,470.64,486.82z"/>
		<path class="st0" d="M462.14,448.48c-1.15-4.85-2.3-9.69-3.44-14.55C459.85,438.78,461,443.63,462.14,448.48z"/>
		<path class="st0" d="M465.21,311.33c-0.23-2.67-0.45-5.34-0.68-8.02C464.75,305.99,464.98,308.66,465.21,311.33z"/>
		<path class="st0" d="M128.29,521.07c7.91-17.07,15.07-34.57,24.22-50.95c2.6-4.65,10.86-8.07,16.79-8.53
			c15.38-1.18,30.98,0.46,46.35-0.8c6.72-0.55,13.08-5.43,19.61-8.35c11.1,1.66,22.19,3.32,33.29,4.98
			c-0.01,21.23-0.02,42.47-0.02,63.7C221.78,521.1,175.04,521.08,128.29,521.07z"/>
		<path class="st0" d="M128.29,521.07c46.75,0.02,93.49,0.03,140.24,0.05c0,15.68,0,31.37,0,47.05
			c-35.56-0.01-71.13-0.47-106.67,0.28c-9.53,0.2-18.98,4.09-28.46,6.28c-8.79-6.77-17.57-13.54-26.36-20.3
			C114.12,543.3,121.21,532.18,128.29,521.07z"/>
		<path class="st0" d="M470.64,486.82c8.51,14.27,17.02,28.55,25.52,42.82c-52.12,0.03-104.25,0.05-156.37,0.08
			c0-14.28,0-28.55,0.01-42.83C383.42,486.87,427.03,486.84,470.64,486.82z"/>
		<path class="st0" d="M133.4,574.72c9.49-2.2,18.93-6.08,28.46-6.28c35.54-0.75,71.11-0.28,106.67-0.28
			c0,17.11,0.01,34.22,0.01,51.33c-17.73-0.01-35.49-0.69-53.17,0.21c-12.19,0.62-24.27,3.42-36.4,5.24
			C163.79,608.2,148.59,591.46,133.4,574.72z"/>
		<path class="st0" d="M178.98,624.94c12.13-1.82,24.21-4.63,36.4-5.24c17.68-0.9,35.44-0.21,53.17-0.21
			c0,18.54,0.01,37.08,0.01,55.62c-19.43-0.01-38.87-0.02-58.3-0.03C199.83,658.37,189.41,641.65,178.98,624.94z"/>
		<path class="st0" d="M421.83,403.22c0.48,6.3,0.96,12.6,1.44,18.89c-8.38,6.29-15.91,14.85-25.33,18.4
			c-18.86,7.12-38.75,11.5-58.21,17.01c-2.32-9.25-2.41-16.4,10.38-17.56C378.78,437.35,401.52,422.48,421.83,403.22z"/>
		<path class="st0" d="M268.55,457.41c-11.1-1.66-22.19-3.32-33.29-4.98c-10.05-6.44-21.61-11.41-29.66-19.77
			c-6.6-6.86-9.03-17.74-13.3-26.84c22.64,11.45,45.59,22.34,67.65,34.81C264.52,443.21,265.77,451.66,268.55,457.41z"/>
		<path class="st0" d="M320.72,195.84c13.07-13.88,26.15-27.75,40.87-43.37c15.81,16.92,30.25,32.37,44.69,47.83
			c-21.92,0-43.85,0.33-65.76-0.22C333.89,199.91,327.32,197.32,320.72,195.84z"/>
	</g>
</g>
</svg>
