<?xml version="1.0" encoding="utf-8"?>
<!-- Generator: Adobe Illustrator 23.0.0, SVG Export Plug-In . SVG Version: 6.00 Build 0)  -->
<svg version="1.1" id="Capa_1" xmlns="http://www.w3.org/2000/svg" xmlns:xlink="http://www.w3.org/1999/xlink" x="0px" y="0px"
	 viewBox="0 0 595.28 841.89" style="enable-background:new 0 0 595.28 841.89;" xml:space="preserve">
<style type="text/css">
	.st0{fill:#A4793C;}
</style>
<g>
	<path class="st0" d="M302.35,745.3c2.39,3.05,4.77,6.1,7.32,9.36c-0.59,0.68-1.26,1.72-2.17,2.48c-3.8,3.16-5.15,7.1-4.38,11.96
		c0.22,1.39,0.24,3.4-0.57,4.28c-3.09,3.35-2.56,7.27-2.45,11.19c0.24,9.14,0.49,18.29,0.73,27.43c-0.27,0-0.55,0-0.82,0
		c-6.27-2.68-12.3-12.46-12.11-19.54c0.18-6.39,0.28-12.78,0.42-19.17c0-0.56,0.01-1.11,0.01-1.67c2.03-1.86,2.28-4.09,1.31-6.55
		c-0.11-0.56-0.21-1.13-0.32-1.69c-0.04-0.54-0.07-1.09-0.11-1.63c-0.07-0.83-0.14-1.67-0.21-2.5c-0.2-2.42-0.78-4.89-0.48-7.24
		c0.22-1.77,1.57-3.39,2.42-5.07c2.02,0,4.04,0,6.47,0c0,7.92,0,15.4,0,22.87c0.46,0.17,0.92,0.35,1.38,0.52
		c0.48-0.91,1.34-1.8,1.37-2.73c0.15-4.42,0.1-8.85,4.21-11.48c-1.29-2.52-2.38-4.64-3.47-6.77
		C301.39,748.01,301.87,746.66,302.35,745.3z"/>
	<path class="st0" d="M362.63,293.8c-2.56,0.78-5.3,1.21-7.65,2.4c-6.84,3.47-13.51,7.28-20.3,10.85c-0.6,0.32-1.6-0.12-2.42-0.2
		c0.03-0.26-0.01-0.5-0.11-0.73c-0.39-0.8-0.79-1.61-1.18-2.41c-0.25,0.09-0.5,0.19-0.75,0.28c0.09,0.71,0.19,1.43,0.28,2.14
		c0.43,0.42,0.86,0.84,1.28,1.26c5.33,6.26,10.57,12.58,16.03,18.73c1.94,2.18,3.11,4.26,2.67,7.3c-0.57,3.97-0.15,7.7,2.16,11.37
		c2.49,3.96,0.86,7.27-2.44,10.42c-4.99,4.76-10.88,3.86-16.61,3.41c-4.22-0.33-7.38,0.44-9.91,4.02c-1.15,1.62-3.04,2.71-4.6,4.03
		c-0.43-0.19-0.86-0.39-1.29-0.58c1.21-2.49,2.43-4.98,3.98-8.17c-3.2-0.23-6.02-0.8-8.77-0.56c-5,0.44-6.93-2.54-8.56-6.45
		c-3.03-7.27-6.25-14.46-9.39-21.69c-3.06-4.06,0.13-7.59,0.95-11.32c0.5-1.17,0.99-2.34,1.49-3.51c0.6-1.92,1.61-3.82,1.72-5.77
		c0.35-5.78,1.45-11.3,4.18-16.44c2.81-1.37,5.67-2.65,8.42-4.13c2.65-1.42,4.49-0.88,6.25,1.56c3.24,4.5,6.71,8.84,10.1,13.28
		c0.63-1.35,0.84-2.7,1.62-3.36c4.61-3.84,9.36-7.52,14.06-11.25c2.08,1.17,2.71,0.61,2.84-2.5c0.39-0.9,0.79-1.8,1.18-2.7
		c0.7-0.27,1.39-0.53,2.09-0.8c3.72,2.12,7.43,4.23,11.15,6.35C361.6,290.34,362.11,292.07,362.63,293.8z M334.82,301.71
		c0.1-0.23,0.32-0.5,0.25-0.67c-0.06-0.16-0.42-0.21-0.64-0.31c-0.1,0.23-0.32,0.5-0.26,0.66
		C334.24,301.56,334.59,301.61,334.82,301.71z"/>
	<path class="st0" d="M141.72,564.79c-5.61,6.73-12.93,8.75-21.39,8.06c-3.93-0.32-7.9-0.05-11.85-0.05
		c-0.04,0.34-0.09,0.67-0.13,1.01c6.4,1.36,12.8,2.72,19.73,4.19c-3.19,4.51-6.58,9.28-9.97,14.06c-0.08,0.27-0.16,0.53-0.24,0.8
		l0.04-0.05c-7.4,8.75-14.7,17.59-22.25,26.2c-1.76,2.01-4.35,3.29-6.56,4.9c-0.3-0.33-0.61-0.66-0.91-0.99
		c2.71-4.13,5.41-8.25,8.12-12.38c-0.05-0.43-0.1-0.86-0.15-1.29c-0.28,0.18-0.55,0.36-0.83,0.54c-8.03,4.37-16.05,8.78-24.11,13.1
		c-1.43,0.77-3.06,1.18-4.59,1.75c0.3-1.58,0.34-3.26,0.94-4.72c2.03-4.9,3.84-10.08,10.26-10.93c-2.68-4.1-3.15-9.74-9.88-8.94
		c5.66-4.61,12.01-5.39,18.5-6.53c-4.82-0.54-9.64-1.07-15.57-1.74c4.04-1.62,7.18-2.87,10.31-4.13c-0.01-0.26-0.02-0.52-0.02-0.78
		c-9.9,0-19.8,0-29.7,0c7.46-4.28,14.31-10.27,24.09-8.37c-0.48-0.36-0.95-0.71-2.38-1.78c6.36,0,11.73,0,18.13,0
		c-1.53-1.37-2.17-1.94-3.18-2.85c2.84-0.16,5.24-0.3,8.3-0.48c-1.11-1.03-1.8-1.66-2.58-2.38c1-0.37,1.86-0.7,3.18-1.19
		c-2.91-3.75-5.63-7.26-8.45-10.89c0.38-0.2,1.18-0.62,1.9-1c-0.91-1.39-1.86-2.84-3.13-4.77c11.04,0.22,19.55,7.37,29.8,8.56
		c-7.16-3.62-12.33-9.01-16.19-17.21c2.01,1.01,3.26,1.5,4.36,2.22c6.73,4.4,13.42,8.87,20.15,13.27c0.51,0.33,1.29,0.54,1.88,0.44
		c4.44-0.73,8.87-1.55,13.35-2.35c-0.96-6.12-6.87-5.87-10.73-8.71c4.05,0,7.89,0,13.14,0c-1.81-2.19-2.88-3.68-4.15-4.95
		c-1.9-1.89-3.95-3.63-5.93-5.44c0.21-0.17,0.41-0.35,0.6-0.56c5.19,1.54,10.37,3.11,15.57,4.61c1.02,0.29,2.13,0.29,3.93,0.52
		c-2.57-5.22-4.9-9.95-7.02-14.23c4.56,2.14,9.19,4.3,13.82,6.46c1.11,0.27,2.22,0.53,3.33,0.8c1.55,0.41,3.1,0.83,5.08,1.36
		c-6.37,6.56-10.68,15.66-22.1,13.56c2.08,1.1,4.15,2.19,6.23,3.29c-0.53,0.89-1.06,1.77-1.59,2.66l0.06-0.05
		c-0.59,0.28-1.17,0.57-1.76,0.85c0,0,0.08-0.07,0.08-0.07C146.75,560.39,144.24,562.59,141.72,564.79z M105.4,597.25
		c-2.68,3.42-5.3,6.76-7.92,10.1c0.37,0.32,0.75,0.64,1.12,0.96c7.45-8.57,14.89-17.13,22.27-25.63c-6.3-0.45-12.1-0.87-17.91-1.28
		c-0.03,0.16-0.05,0.31-0.08,0.47c3.78,1.31,7.56,2.63,11.6,4.03c-2.28,2.86-4.49,5.62-6.63,8.3c-3.51-1.21-6.77-2.33-10.03-3.46
		c-0.13,0.3-0.26,0.59-0.38,0.89C100.07,593.47,102.69,595.33,105.4,597.25z M118.08,561.39c-0.02,0.22-0.05,0.44-0.07,0.66
		c0.69,0.04,1.37,0.08,2.06,0.13c0.01-0.16,0.03-0.31,0.04-0.47C119.43,561.6,118.76,561.5,118.08,561.39z"/>
	<path class="st0" d="M120.48,426.43c-0.61,4.14-1.22,8.29-1.82,12.43c0.49,0.22,0.98,0.44,1.47,0.66
		c2.07-3.81,4.23-7.57,6.17-11.45c1.58-3.15,2.91-6.42,4.33-9.64c1.21-2.75,3.21-3.44,6.41-2.15c-3.15,21.02-8.79,42.02-3.9,64.45
		c10.73,0.65,22.28,1.34,34.24,2.06c-2.08,1.96-4.17,3.97-6.3,5.94c-6.43,5.97-12.97,11.83-19.22,17.98
		c-1.34,1.32-2.38,3.67-2.36,5.53c0.09,11.47-2.08,10.71,8.2,28.37c-3.7-1.33-6.82-2.58-10.03-3.55c-3.1-0.93-6.29-1.56-10.08-1.59
		c2.63,3.64,5.26,7.29,8.33,11.53c-5.17-0.98-9.82-1.87-14.32-2.72c-1.24-4.4-2.73-9.06-3.83-13.81
		c-1.17-5.06-2.17-10.18-2.83-15.33c-0.2-1.6,0.52-3.78,1.61-4.98c4.76-5.25,9.8-10.24,15.13-15.73c-6.25-1.89-11.98-3.49-17.6-5.43
		c-1.16-0.4-2.63-1.97-2.72-3.1c-0.98-12.99-1.82-25.98-2.44-38.99c-0.1-2.14,1.06-4.34,1.63-6.51c0,0-0.05,0.08-0.05,0.08
		c0.29-0.28,0.57-0.55,0.86-0.83c2.59-5.28,5.19-10.56,7.73-15.74C119.35,424.38,119.91,425.41,120.48,426.43z"/>
	<path class="st0" d="M136.85,351.98c2.07-9.16,9.47-14.01,15.9-20.75c-4.53-0.78-8.39-1.45-12.52-2.16
		c17.23-18.81,34.28-37.9,61.04-45.93c-2.3-1.55-3.85-2.3-4.98-3.45c-1.18-1.21-1.97-2.81-3.22-4.68
		c13.61-2.99,26.63-5.84,39.94-8.76c0,2.44,0,5.36,0,8.37c-8.73,3.81-14.71,10.28-17.47,19.71c-0.32,1.09-1.51,2.07-2.53,2.78
		c-6.57,4.61-13.83,8.46-19.69,13.83c-11.71,10.75-22.72,22.23-31.22,35.9c-1.29,2.08-4.65,3.03-7.22,4.13
		C146.13,354.75,146.1,354.69,136.85,351.98z"/>
	<path class="st0" d="M235.35,642.34c-0.27,14.25-0.55,28.49-0.82,42.74c-0.15,7.81-0.32,15.62-0.42,23.43
		c-0.01,0.89,0.1,2.16,0.66,2.63c6.96,5.72,13.95,11.41,21.11,16.87c1.43,1.09,3.64,1.15,5.49,1.68l-0.11-0.07
		c-0.7,1.85-1.4,3.71-2.39,6.3c5.89-2.96,8.15,1.29,11.01,4.46c2.81,3.11,5.75,6.11,8.63,9.16c2.27,3.52,4.54,7.04,6.81,10.56
		c0.48,1.4,0.96,2.8,1.45,4.2c-0.35,2.48-0.71,4.97-1.06,7.45c0.09,0.52,0.18,1.03,0.27,1.55c0,3.4,0,6.79,0,10.43
		c-6.97-1.06-13.67-2.22-19.36-8.5c-18.97-20.95-36.72-42.82-52.92-65.96c-2.06-2.95-1.62-11.74,0.56-14.41
		c1.73-0.78,3.47-1.56,4.96-2.23c2.35,2.08,4.52,4.01,7.14,6.34c4.21-19.19,6.84-37.8,7.95-56.63
		C234.67,642.33,235.01,642.33,235.35,642.34z"/>
	<path class="st0" d="M173.95,535.32c-3.56,0.15-7.11,0.29-10.67,0.44c-1.11-0.21-2.21-0.41-3.32-0.62
		c-6.14-2.71-10.64-7.33-14.69-12.5c-3.99-5.1-3.32-11.01,1.24-15.32c9.3-8.79,18.37-17.83,27.54-26.77
		c-0.25-0.37-0.51-0.75-0.76-1.12c-11.97-0.65-23.93-1.29-36.96-2c-0.06-9.43-0.78-18.73-0.02-27.91
		c0.91-11.1,3.06-22.09,4.68-33.13c1.67-1.06,3.34-2.12,5.01-3.17l-0.08,0.07c1.11-0.16,2.23-0.33,3.34-0.49
		c19.04-0.21,38.08-0.42,57.12-0.63c0.9-0.01,1.79,0,2.49,0c1.2,6.01,1.83,11.78,3.55,17.21c4.64,14.58,9.7,29.02,14.73,43.47
		c1.04,3,0.78,5.23-1.52,7.64c-3.48,3.65-6.54,7.71-9.77,11.59c-3.77,5.45-7.48,10.94-11.35,16.32c-1.11,1.55-2.49,3.08-4.1,4.05
		c-2.66,1.61-6.1,2.2-8.31,4.21c-5.24,4.76-9.94,10.1-14.86,15.2c-0.83,1.12-1.66,2.25-2.49,3.37c0,0,0.09-0.09,0.09-0.09
		C174.54,535.21,174.25,535.26,173.95,535.32z M184.42,474.55c0.26,0.36,0.52,0.71,0.77,1.07c-5.18,5.97-10.17,12.12-15.59,17.87
		c-5.65,5.98-11.74,11.55-17.57,17.36c-0.81,0.81-1.72,1.94-1.8,2.98c-0.59,7.15,5.64,14.29,12.8,14.93
		c1.23,0.11,2.53,0.61,3.66,0.36c1.96-0.44,4.21-0.88,5.65-2.12c5.39-4.64,9.96-10.47,15.88-14.2c6.04-3.81,12-6.95,13.79-14.5
		c0.03-0.12,0.15-0.23,0.24-0.33c5.64-6.69,11.32-13.35,16.88-20.11c0.73-0.88,1.46-2.42,1.19-3.37
		c-5.33-19.06-10.81-38.08-16.33-57.37c-13.32,0-26.08-0.1-38.83,0.05c-4.62,0.05-9.27,0.49-13.85,1.12
		c-3.58,0.49-6.2,2.12-6.43,6.48c-0.49,9.31-1.51,18.6-1.97,27.91c-0.32,6.37-0.06,12.77-0.06,19.29
		C156.86,472.83,170.64,473.69,184.42,474.55z"/>
	<path class="st0" d="M294.14,315.98c-0.71,0.96-1.74,1.82-2.08,2.9c-1.78,5.78-5.79,8.69-11.49,10.25
		c-5.92,1.63-11.6,4.1-17.45,5.99c-2.28,0.73-3.12,2.01-3.67,4.26c-1.01,4.18,0.82,9.23-3.75,12.46c-0.49,0.35,0.29,2.48,0.62,4.75
		c-3.22-2.73-5.68-5.25-8.55-7.15c-4.94-3.26-6.89-7.22-7.13-13.47c-0.52-13.68,2.07-26.38,8.42-38.36
		c1.58-2.99,3.76-5.66,5.76-8.62c6.39,3.49,12.46,6.62,18.33,10.09c2.67,1.58,5.02,1.9,8.06,1.13c5.77-1.47,11.69-2.38,17.78-3.56
		c-1.33,5.86-2.68,11.78-4.03,17.7C294.69,314.89,294.41,315.43,294.14,315.98z"/>
	<path class="st0" d="M143.37,600.27c-1.75-2.98-1.21-5.21,1.44-7.67c4.09-3.8,7.68-8.14,12.31-13.16c2.2,5.3,4.14,9.95,6.08,14.62
		c5.54-5.56,6.12-13.19,7.51-20.39c4.79-0.16,8.51,4.04,8.01,8.55c-1.29,11.44-2.69,22.87-3.61,34.33
		c-0.22,2.76,0.83,5.88,2.08,8.45c2.57,5.28,5.6,10.34,8.58,15.42c1.18,2.01,1.3,3.42,0.24,5.85c-1.71,3.93-2.05,8.46-3,12.72
		c-0.2,0.91-0.54,1.8-0.81,2.7c-12.85-19.09-27.84-36.81-37.11-58.18C144.6,602.39,143.94,601.35,143.37,600.27z"/>
	<path class="st0" d="M231.3,354.32c0.26-4.08,0.14-8.23,0.89-12.22c0.55-2.92,0.44-4.63-2.4-6.3c-4.8-2.82-9.44-3.16-14.39-0.8
		c-1.84,0.88-3.7,1.72-6.56,3.05c0.31-3.6,0.1-6.72,0.91-9.54c3.56-12.33,6.93-24.75,11.39-36.76c1.91-5.14,6.1-9.54,9.76-13.86
		c0.84-0.99,4.08-0.95,5.62-0.18c5.46,2.73,10.65,5.98,16.3,9.24c-9.05,10.31-12.23,23.29-14.76,36.41
		c-0.83,4.34,0.02,8.98-0.23,13.46c-0.12,2.01-1.02,3.99-1.66,5.95c-1.26,3.83-2.58,7.63-3.88,11.44
		C231.96,354.26,231.63,354.29,231.3,354.32z"/>
	<path class="st0" d="M249.03,257.14c3.44-2.64,6.88-5.28,10.27-7.88c6.17,4.97,12.29,9.91,18.42,14.85l-0.04-0.03
		c2.12,2.96,3.98,6.15,6.43,8.81c3.36,3.65,5,7.63,4.36,12.59c-0.21,1.6-0.03,3.26-0.03,5.25c3.7-0.98,7.14-1.71,9.06,2.77
		c-4.22,1.78-8.17,4.92-13.46,3.26c-0.6-0.19-1.51-0.25-1.95,0.07c-4.46,3.3-8.04,0.42-11.46-1.82
		c-5.33-3.49-10.23-7.65-15.65-10.98c-3.91-2.4-8.38-3.89-12.56-5.85c-5.6-2.63-6.56-4.29-5.3-10.23c0.29-1.37,1.84-2.48,2.81-3.71
		C242.96,261.87,245.99,259.51,249.03,257.14z"/>
	<path class="st0" d="M214.13,300.96c-0.76,3.53-1.1,7.21-2.34,10.57c-4.69,12.74-7.13,25.9-7.24,39.39
		c-0.11,13.7,0.35,27.4,0.77,41.1c0.09,2.8,1.08,5.58,1.72,8.67c-8.1,0.68-16,1.42-23.92,1.94c-1.7,0.11-3.44-0.79-5.18-0.86
		c-8.85-0.35-17.72-0.97-26.56-0.73c-9.21,0.25-10-0.45-6.32-9.01c6.64-15.43,11.97-31.49,21.55-45.5
		c3.68-5.38,7.92-10.39,12.15-15.36C188.76,319.43,200.48,309.6,214.13,300.96z M199.3,397.45c0-16.02-0.18-30.8,0.06-45.57
		c0.19-12.2,1.2-24.32,6.33-35.69c0.65-1.45,0.91-3.08,1.35-4.63c-10.18,8.18-20.81,15.53-27.52,26.65
		c-6.93,11.47-13.64,23.07-20.08,34.82c-3.9,7.12-7.09,14.63-10.55,21.86c5.55,0,10.57-0.25,15.56,0.05
		C176.28,395.66,188.11,396.63,199.3,397.45z"/>
	<path class="st0" d="M61.74,382.09c2.29,4.45,4.58,8.89,7.44,14.46c-7.29,0-13.8,0.03-20.32-0.04c-0.83-0.01-2.01-0.36-2.41-0.96
		c-5.05-7.59-12.72-11.88-20.26-16.36c-4.11-2.44-8.17-4.98-12.3-7.51c5.39-3.79,7.85-3.89,12.86-0.46c3.1,2.12,6.15,4.33,9.22,6.5
		c0.29-0.31,0.58-0.62,0.88-0.93c-2.74-2.6-5.49-5.2-8.23-7.81c0.07-0.27,0.13-0.54,0.2-0.8c3.03,1.37,6.41,2.28,9.04,4.2
		c6.96,5.09,13.6,10.63,20.38,15.97c0.28,0.22,0.71,0.27,2.12-0.24c-4.08-7.35-8.17-14.7-12.25-22.05c2.22,3.08,5.96-0.09,8.84,1.26
		c3.62,1.69,6.69,4.57,9.96,6.98c0.72,0.53,1.31,1.22,1.96,1.84c0.32-0.17,0.63-0.33,0.95-0.5c-0.81-1.78-1.63-3.56-2.69-5.89
		c2.47,0.53,4.46,0.86,6.38,1.39c2.4,0.67,3.99,1.96,4.2,4.82c0.09,1.27,1.38,2.46,2.13,3.69c0.2,0.43,0.41,0.86,0.61,1.29
		c0.17-0.07,0.34-0.15,0.52-0.22c-0.16-0.54-0.32-1.09-0.48-1.63c-0.37-2.15-0.74-4.3-1.25-7.3c3.12-0.69,6.29-1.4,8.87-1.97
		c6.4,9.59,12.57,18.85,18.67,28c-8.85,0.74-16.95-0.76-22.16-9.65c-0.33,0.42-0.67,0.84-1,1.26c1.33,2.18,2.65,4.36,4.03,6.64
		c-2.86,0-5.41,0.21-7.9-0.08c-1.46-0.17-3.15-0.79-4.2-1.78c-4.48-4.21-8.75-8.63-13.1-12.98c-0.21-0.59-0.42-1.18-0.63-1.77
		c-0.36,0.3-0.73,0.6-1.09,0.9C61.06,380.92,61.4,381.51,61.74,382.09z M70.31,378.11c0.09,0.17,0.18,0.34,0.28,0.52
		c0.09-0.09,0.26-0.2,0.24-0.27c-0.04-0.19-0.16-0.36-0.25-0.54C70.5,377.91,70.41,378,70.31,378.11z M69.44,376.46
		c0.1,0.17,0.19,0.35,0.29,0.53c0.09-0.09,0.27-0.2,0.26-0.27c-0.04-0.19-0.17-0.37-0.26-0.55
		C69.64,376.26,69.55,376.35,69.44,376.46z"/>
	<path class="st0" d="M293.19,329.31c3.02,8.05,5.92,16.16,9.17,24.12c0.78,1.9,2.73,3.32,4.15,4.97c2.71,3.14,5.41,6.28,7.88,9.15
		c-5.59-0.72-10.84-1.66-16.12-1.93c-1.98-0.1-4.09,1.27-6.02,2.22c-0.34,0.17-0.05,1.61-0.05,2.46c0,0,0,0.09,0,0.09
		c-0.07-0.67,0.03-1.83-0.24-1.93c-1.48-0.54-6.7,3.37-7.17,5.22l-0.04-0.01c0.04-0.27,0.15-0.75,0.1-0.77
		c-4.83-1.68-9.67-3.31-14.52-4.96c-0.82-0.71-1.65-1.43-2.47-2.14c-1.29-0.77-2.57-1.55-3.87-2.29c-4.88-2.77-5.68-6.65-3.35-11.9
		c1.17-2.64,1.15-5.86,1.42-8.84c0.29-3.27,1.33-5.29,4.98-6.26c6.69-1.78,13.17-4.38,19.8-6.42
		C288.83,329.47,291.06,329.55,293.19,329.31z"/>
	<path class="st0" d="M229.98,411.66c-4.12-1.32-8.16-2.94-12.37-3.86c-3.63-0.8-6.23-2.16-6.77-6.11
		c-4.09-10.58-3.45-21.69-3.9-32.59c7.75-3.53,16.47-1.07,20.85,5.51c0.92,1.38,2.48,2.33,3.74,3.49c4.93,1.93,9.86,3.85,14.8,5.78
		c4.75,13.93-4.27,24.06-9.67,35.49c-2.07-2.46-3.96-4.71-5.86-6.97C230.53,412.16,230.26,411.91,229.98,411.66z"/>
	<path class="st0" d="M286.04,138.98c3.3-7.79,5.99-15.54,5.99-24.34c0-15.88,0.99-31.76,1.57-47.63c0.35-0.02,0.7-0.05,1.05-0.07
		c8.11,24.63,16.21,49.27,24.54,74.56c-3.35,1.83-6.74,3.69-10.13,5.54c-0.29-0.42-0.58-0.84-0.87-1.26
		c1.11-1.49,2.22-2.98,3.57-4.8c-4.28-6.64-8.62-13.37-13.76-21.33c-1.09,4.85-2.28,8.57-2.7,12.37c-0.45,4.07-0.17,8.22-0.2,12.33
		c-0.07,11.23-0.41,12.42-6.81,22.94c-2.16-1.81-4.28-3.6-6.41-5.38c-2.48-2.7-4.96-5.4-7.86-8.55c2.55-2.42,5.75-5.12,8.51-8.22
		C284.09,143.43,284.9,141.06,286.04,138.98z"/>
	<path class="st0" d="M110.55,440.41c-1.68,1.69-3.83,3.13-4.91,5.14c-0.96,1.8-0.75,4.23-1.05,6.38c-6.1,3.09-6.09-3.53-8.85-5.33
		c-2.85,1.44-5.67,2.87-9.65,4.89c1.1-3.46,1.86-5.83,2.61-8.2c0.05-0.33,0.11-0.66,0.17-0.98c-0.24,0.16-0.47,0.32-0.71,0.48
		c-2.18,2.59-4.23,5.31-6.58,7.74c-2.05,2.12-4.43,3.92-6.21,5.47c-1.97-2.21-3.55-3.98-5.3-5.94c0.87-1.35,1.86-2.9,3-4.66
		c-2.19-0.26-3.99-0.47-5.78-0.68c8.64-2.05,12.57-8.94,17.4-15.8c-2.52,0-4.37,0-6.42,0c4.95-4.97,9.73-9.79,14.52-14.6
		c0.4,0.27,0.79,0.54,1.19,0.81c-0.73,3.09-1.46,6.18-2.19,9.27c0.07,0.61,0.14,1.22,0.21,1.84c0.19-0.43,0.39-0.85,0.58-1.28
		c1.08-2,2.57-3.88,3.16-6.02c0.96-3.46,2.91-4.47,6.75-3.46c-0.51,2.12-1.03,4.27-1.55,6.42c-0.05,0.34-0.1,0.67-0.15,1.01
		c0.32-0.1,0.65-0.2,0.97-0.31c1.28-2.28,2.56-4.56,4.21-7.5c7.26,0,15.53,0,23.63,0c-2.7,6.48-5.13,12.35-7.57,18.22
		c-0.23-0.07-0.46-0.14-0.69-0.2c0-2.24,0-4.49,0-6.73c-0.8-1.78-1.59-3.55-2.82-6.3c-2.98,7.15-5.39,12.94-7.8,18.73
		c-0.06,0.56-0.13,1.11-0.19,1.67C110.5,440.48,110.55,440.41,110.55,440.41z"/>
	<path class="st0" d="M309.86,189.88c-0.11,0.08-0.21,0.19-0.34,0.23c-1.8,0.62-3.61,1.24-5.41,1.86c0.07-1.8-0.03-3.63,0.23-5.41
		c1.21-8.17,6.49-14.33,10.61-21.06c0.69-1.13,1.55-2.16,2.52-3.49c-3.41-1.28-6.57-2.46-10.81-4.05c4.42-4.8,8.25-9.4,12.58-13.47
		c2.18-2.04,2.49-3.54,1.59-6.3c-8.42-25.72-16.74-51.47-24.91-77.27c-1.64-5.19-2.51-10.63-3.74-15.95c0.13-0.3,0.26-0.6,0.38-0.9
		c0.29-0.07,0.59-0.14,0.88-0.2c7.4,19.06,15.04,38.04,22.11,57.22c4.67,12.67,8.41,25.68,12.77,38.47c0.89,2.6,0.61,4.25-1.49,6.01
		c-3.14,2.63-6.06,5.54-9.44,8.68c3.42,3.02,6.74,5.94,10.55,9.3c-3.36,1.53-6.5,2.72-9.37,4.37c-1.63,0.94-3.13,2.45-4.14,4.05
		C310.99,177.4,309.9,183.53,309.86,189.88z"/>
	<path class="st0" d="M293.99,204.75c1.23,1.26,2.43,2.55,3.7,3.77c4.6,4.47,4.68,10.2,4.36,15.97
		c-1.18,20.92-0.85,41.81,0.87,62.69c0.13,1.62-0.67,3.31-1.04,4.97c-1.05-0.29-2.23-0.36-3.14-0.9c-2.38-1.41-4.65-3.01-6.97-4.53
		c-0.36,0.35-0.73,0.7-1.09,1.05c-0.45-4.31-0.99-8.62-1.25-12.94c-0.05-0.89,0.79-2,1.51-2.74c2.57-2.66,1.32-5.12-0.11-7.68
		c-0.61-1.09-1.53-2.43-1.33-3.47c2.13-11.08,1.38-22.13-0.4-33.1c-0.59-3.64,0.37-5.95,2.85-8.21c1.51-1.38,2.79-3,4.52-4.88
		c-2.29-2.03-4.36-4.18-6.75-5.89c-3.68-2.63-3.57-5.57-1.32-8.95c0.86,0.74,1.71,1.48,2.57,2.22
		C291.97,202.98,292.98,203.87,293.99,204.75z"/>
	<path class="st0" d="M225.37,262.72c1.1-0.65,2.53-1.04,3.25-1.97c14.2-18.44,32.56-31.39,53.12-40.68
		c1.65,2.14,3.69,3.97,4.68,6.26c1.15,2.65,1.8,5.69,1.91,8.59c0.27,6.89,0.09,13.79,0.09,20.47c-4.86,0.76-8.88,1.54-12.94,1.93
		c-1.26,0.12-2.87-0.56-3.9-1.39c-3.93-3.18-7.7-6.57-11.79-10.11c-3.62,3.11-7.23,6.21-10.84,9.32c-3.09,2.52-6.17,5.05-9.26,7.57
		c-3.33,0.55-6.71,0.89-9.97,1.73c-2.21,0.57-3.58,0.25-4.43-1.88c0,0,0.11-0.05,0.11-0.05L225.37,262.72z M279.79,226.16
		c-15.51,6.67-36.51,22.37-43.05,32.39c1.31-0.44,2.58-1.01,3.61-1.86c3.17-2.61,6.15-5.48,9.39-7.98
		c11.16-8.61,8.82-10.38,20.28-0.31c4.15,3.65,8.24,4.04,13.53,2.83C281.98,242.97,284.08,234.31,279.79,226.16z"/>
	<path class="st0" d="M47.86,416.64c8.64-0.11,17.28-0.22,25.92-0.32c0.54-0.01,1.09,0,2.84,0c-1.67,2.28-3.07,3.87-4.1,5.67
		c-1.55,2.72-2.74,5.64-4.28,8.37c-1.02,1.8-2.39,3.4-3.89,5.48c-0.74-2.68-1.25-4.53-1.75-6.32c-0.67,0.07-1.07-0.01-1.18,0.13
		c-3.48,4.88-10.26,7.81-8.98,15.56c0.19,1.17-1.1,2.59-1.71,3.9c-1.21-1.22-2.54-2.36-3.58-3.71c-0.37-0.49-0.06-1.5-0.06-1.91
		c-2.53,1.48-5.03,2.94-8.26,4.82c0-2.59,0-3.87,0-5.36c-1.59,0.58-2.98,1.08-5.79,2.1c1.23-3.82,1.66-7.02,3.2-9.55
		c3.41-5.62,7.41-10.87,11.08-16.33c0.46-0.68,0.41-1.71,0.6-2.57C47.92,416.58,47.86,416.64,47.86,416.64z"/>
	<path class="st0" d="M225.37,262.72c0,0,0.03-0.2,0.03-0.2s-0.11,0.05-0.11,0.05c-1.45,1.08-2.75,2.67-4.38,3.15
		c-4.99,1.48-10.11,2.54-16.19,4c15.79-18.53,45.66-42.78,78.37-63.92c0.5,2.19,1,4.35,1.47,6.52c0.55,2.53,0.01,4.55-2.67,5.52
		c-14.6,5.32-27.66,13.46-39.05,23.78C236.14,247.7,231.13,255.63,225.37,262.72z"/>
	<path class="st0" d="M116.05,387.92c1.88,3.58,3.77,7.15,5.64,10.72c-4.26,1.38-7.48,0.27-9.43-4.28
		c-4.38-10.24-8.92-20.42-13.35-30.64c-0.23-0.53-0.03-1.24-0.03-2.53c1.64,1.18,2.75,1.98,4.19,3.02c0-1.92,0-3.45,0-5.91
		c2.67,3.9,4.85,7.08,7.03,10.26c0.22-0.07,0.44-0.15,0.66-0.22c-0.44-2.43-0.87-4.87-1.49-8.35c3.36,3.78,6.25,6.67,8.71,9.9
		c3.3,4.35,6.06,9.12,9.44,13.39c2.45,3.09,5.51,5.69,8.38,8.42c0.37,0.35,1.24,0.18,1.88,0.24l-0.11-0.11
		c0.54,0.98,1.19,1.91,1.58,2.94c0.5,1.32,0.8,2.72,1.2,4.13c-4.6,1.61-6.64-2.26-9.68-3.58c-0.6-0.1-1.2-0.2-3.01-0.51
		c1.44,0.98,1.85,1.25,2.25,1.52c0.67,0.8,1.35,1.59,2.23,2.64c-3.53,0.7-6.05,0.23-8.11-2.94c-2.07-3.17-4.81-5.91-7.26-8.83
		c-0.42-0.29-0.85-0.57-1.27-0.86C115.69,386.87,115.87,387.4,116.05,387.92z"/>
	<path class="st0" d="M137.68,391.95c-3.8-4.58-7.52-9.23-11.45-13.69c-1.66-1.88-2.03-3.49-0.93-5.83
		c2.14-4.56,3.82-9.34,6.03-13.87c0.48-0.98,2.34-1.39,3.64-1.82c0.55-0.18,1.3,0.39,1.97,0.42c5.84,0.22,10.83,1.46,11.11,9.29
		c-0.34-7.16,3.47-10.33,9.33-11.8c0.22,0.17,0.45,0.34,0.67,0.52c-5.69,11.65-11.39,23.3-17.08,34.96
		c-0.7,1.43-1.34,2.95-3.39,1.73C137.57,391.84,137.68,391.95,137.68,391.95z"/>
	<path class="st0" d="M184.22,664.54c1.6-5.46,3.2-10.92,4.8-16.38c0.4-0.02,0.8-0.05,1.2-0.07c9.33,13.93,18.65,27.85,28.02,41.83
		c-1.99,1.29-3.76,2.44-5.53,3.58c-1.89,1.24-3.78,2.48-6.03,3.95C199.03,686.25,191.63,675.4,184.22,664.54z"/>
	<path class="st0" d="M284.74,373.67c0,0,0.04,0.01,0.04,0.01c2.02,0.92,4.04,1.84,6.06,2.77c0.58,0.86,1.52,1.65,1.67,2.58
		c0.96,5.8,1.77,11.63,2.59,17.46c0.41,2.96-1.18,4.56-3.93,4.4c-2.93-0.17-5.84-0.91-8.74-1.49c-4.4-0.88-8.86-1.56-13.14-2.83
		c-5.37-1.58-6.55-6.11-3.82-11.24c2.19-4.12,6.24-5.55,9.7-7.88C278.35,376.18,281.55,374.92,284.74,373.67z"/>
	<path class="st0" d="M207.88,403.35c0.24,2.02,0.48,4.05,0.83,7.05c-19.93,0.42-39.7,0.84-59.47,1.26
		c-1.11,0.55-2.22,1.09-3.33,1.64c0,0,0.08-0.07,0.08-0.07c-1.68,0.56-3.35,1.13-5.03,1.69c-1.02,0.12-2.05,0.24-3.34,0.39
		c0-4.47,0-8.64,0-12.81c3.13-0.52,3.13-0.52,3.58,8.74c3.82-1.13,3.82-1.13,3.94-7.11c9.45-0.22,18.94-0.44,28.43-0.67
		c10.62-0.26,21.24-0.56,31.86-0.79C206.25,402.66,207.07,403.11,207.88,403.35z"/>
	<path class="st0" d="M291.14,44.95c2.27,10.22,0.86,20.4,0.05,30.65c-1.03,13.12-1.39,26.3-1.66,39.46
		c-0.13,5.98-0.78,11.68-3.37,17.12c-0.87,1.83-1.29,3.88-1.92,5.83c-5.67-4.25-6.06-4.62-2.86-10.48c3.1-5.68,2.34-11.75,2.7-17.67
		c0.47-7.74-0.33-15.56,0.28-23.27c0.68-8.58,2.39-17.08,3.52-25.63c0.77-5.78,1.31-11.59,2.01-17.96
		C290.44,43.87,290.79,44.41,291.14,44.95z"/>
	<path class="st0" d="M47.58,412.67c0.09,1.32,0.19,2.64,0.28,3.96c0,0,0.06-0.06,0.06-0.06c-9.69-0.01-19.38,0.09-29.06-0.07
		c-3.71-0.06-7.82,0.2-9.23-4.78c-0.16-0.55-1.84-0.76-2.86-0.96c-3.2-0.64-5.3-2.29-5.05-5.79c0.22-3.19,2.11-4.71,5.32-5.12
		c11.65-1.48,23.28-3.14,34.93-4.65c0.73-0.09,1.55,0.51,2.33,0.79c-0.48,0.68-0.87,1.46-1.47,2.02c-0.47,0.43-1.2,0.58-2.27,1.06
		c0.84,4.34,1.46,8.77,2.59,13.07c0.77,2.93,2.71,2.08,4.44,0.61C47.6,412.76,47.58,412.67,47.58,412.67z M32.2,399.57
		c-5.21,0.67-9.74,1.25-14.77,1.89c1.3,4.41,1.32,9.69,3.93,11.87c2.64,2.2,7.85,1.33,12.56,1.88
		C33.28,409.39,32.76,404.71,32.2,399.57z M41.47,413.89c-1.14-5.27-2.15-9.99-3.2-14.85c-1.3,0.15-2.44,0.28-3.47,0.4
		c0.6,4.99,1.17,9.68,1.75,14.44C38.18,413.89,39.62,413.89,41.47,413.89z M13.11,401.83c-0.43,8.58,1.03,11.57,4.81,10.79
		C15.93,409.12,18.51,403.65,13.11,401.83z M9.66,408.39c0-2.24,0-4.17,0-6.4c-2.91,0.5-6.64-0.53-6.16,4.09
		C3.95,410.28,7.34,407.47,9.66,408.39z"/>
	<path class="st0" d="M91.96,411.98c0-4.39,0-8.3,0-12.7c8.35,0.57,16.47,1.13,24.98,1.71c-0.25,3.86-0.48,7.48-0.7,10.99
		C108.1,411.98,100.09,411.98,91.96,411.98z"/>
	<path class="st0" d="M253.94,382.62c-2.49-0.19-4.99-0.38-7.48-0.57c-4.91-1.76-9.82-3.52-14.73-5.29
		c-2.44-3.55-4.87-7.1-7.03-10.24c6.77,0.78,13.43-5.91,21.6-3.71c0,0-0.02-0.09-0.02-0.09c5.43,3.02,10.83,6.07,16.29,9.03
		c3.36,1.82,6.8,3.49,10.2,5.22c-2.65,0.91-5.26,1.96-7.96,2.69c-2.34,0.63-4.8,0.78-7.15,1.35c-1.36,0.33-2.62,1.08-3.92,1.64
		C253.75,382.66,253.94,382.62,253.94,382.62z M230.88,369.65c3.43,9.99,21.29,13.15,34.22,6.11
		C254.38,370.14,244.06,362.67,230.88,369.65z"/>
	<path class="st0" d="M48,412.42c-0.8-4.44-1.59-8.87-2.49-13.91c6.25-0.34,12.27-0.67,18.5-1.01c-0.26,5-0.49,9.58-0.76,14.67
		c-4.82,0.39-9.68,0.79-14.54,1.18C48.48,413.04,48.24,412.73,48,412.42z"/>
	<path class="st0" d="M280.18,163.62c2.94,2.72,5.87,5.45,8.89,8.24c-0.46,1.4-0.9,2.75-1.34,4.1c-0.7,1.32-1.39,2.64-2.27,4.31
		c-5.62-10.66-14.39-18.12-24.6-25.43c4.55-0.23,4.61-7.8,10.35-4.04c-0.55,0.73-1.13,1.51-2.14,2.88
		C272.74,156.97,276.46,160.3,280.18,163.62z"/>
	<path class="st0" d="M113.52,509.51c-0.71-6.5-1.32-12.01-2-18.24c5.35,0.97,10.22,1.85,15.85,2.87
		C122.85,499.16,118.65,503.82,113.52,509.51z"/>
	<path class="st0" d="M277.71,264.11c-0.57-1.61-1.14-3.21-1.9-5.37c3.49-0.44,7.18-0.91,11.16-1.41c0.4,3.46-1.29,7.16,2.56,9.46
		c0.48,0.29-0.8,3.51-1.26,5.37c-0.45,0.06-0.9,0.12-1.36,0.18c-2.2-2.33-4.35-4.7-6.63-6.94c-0.66-0.65-1.72-0.88-2.6-1.31
		C277.68,264.08,277.71,264.11,277.71,264.11z"/>
	<path class="st0" d="M290.31,176.01c2.07-5.39,4.13-10.79,6.2-16.18c0,8.73,0,17.53,0,26.74c-1.71-1.2-3.2-2.25-4.7-3.3
		C288.87,181.36,288.77,178.86,290.31,176.01z"/>
	<path class="st0" d="M118.73,592.73c4.82,4.96,11.17,4.28,17.25,4.96c2.03,0.23,3.87,2.21,5.8,3.39
		c-5.02-0.24-10.04-0.47-15.06-0.71c-3.03-0.14-8.55-4.88-8.81-7.57c0,0-0.05,0.05-0.05,0.06
		C118.15,592.81,118.44,592.77,118.73,592.73z"/>
	<path class="st0" d="M276.46,136.78c2.43,1.12,4.52,2.08,7.24,3.33c-2.84,2.67-5.37,5.05-8.22,7.72c-1.39-1.55-2.63-2.93-4.11-4.58
		C273.01,141.17,274.59,139.17,276.46,136.78z"/>
	<path class="st0" d="M123.34,548.24c4.82,2.91,8.81,5.31,13,7.83c-3.05,0.71-6,1.39-9.55,2.22
		C125.76,555.29,124.61,551.94,123.34,548.24z"/>
	<path class="st0" d="M70.92,411.76c-1.43,0-2.47,0-3.76,0c0-4.71,0-9.27,0-13.83c0.35-0.2,0.69-0.41,1.04-0.61
		c0.67,1,1.81,1.94,1.94,3C70.59,403.97,70.68,407.67,70.92,411.76z"/>
	<path class="st0" d="M299.92,201.54c1.77,2.18,3.54,4.36,5.31,6.54c-0.35,0.31-0.71,0.61-1.06,0.92c-2.87-2.7-5.73-5.39-8.6-8.09
		c0,0-0.16-0.09-0.16-0.09c-0.65-0.9-1.3-1.8-1.96-2.71c-3.35-2.5-6.69-5-10.04-7.5c0.21-0.27,0.42-0.55,0.62-0.82
		C290.07,192.66,295.11,196.93,299.92,201.54z"/>
	<path class="st0" d="M289.25,185.05c4.41,3.95,8.89,7.83,13.19,11.9c1.87,1.78,1.68,2.34-0.04,3.42
		c-4.36-3.99-8.68-8.03-13.12-11.93C287.8,187.15,286.11,186.22,289.25,185.05z"/>
	<path class="st0" d="M86.33,399.2c0.68-0.06,1.07-0.1,1.47-0.14c0.25,4.14,0.5,8.29,0.69,12.44c0,0.01-1.2,0.3-1.46,0.05
		c-0.41-0.4-0.54-1.11-0.69-1.72c-0.1-0.39-0.01-0.82-0.01-1.23C86.34,405.48,86.33,402.36,86.33,399.2z"/>
	<path class="st0" d="M123.64,412.83c-2.48-0.93-2.77-1.97-3.37-11.6c1.02-0.1,2.04-0.2,3.37-0.33
		C123.64,405,123.64,408.87,123.64,412.83z"/>
	<path class="st0" d="M286.16,210.34c2.02,1.63,3.26,2.64,4.81,3.89c-1.26,1.6-2.45,3.1-4.19,5.3
		C286.55,216.18,286.39,213.77,286.16,210.34z"/>
	<path class="st0" d="M133.01,538.99c-0.28-0.38-0.56-0.76-0.84-1.14c0.48,0.2,0.96,0.39,1.44,0.59
		C133.43,538.64,133.23,538.82,133.01,538.99z"/>
	<path class="st0" d="M48,412.42c0.24,0.31,0.48,0.62,0.72,0.94c-0.38-0.22-0.76-0.44-1.14-0.67c0-0.01,0.02,0.08,0.01,0.06
		C47.82,412.75,47.96,412.64,48,412.42z"/>
	<path class="st0" d="M157.38,354.64c0.29-0.16,0.59-0.31,0.88-0.47c-0.07,0.33-0.14,0.66-0.21,0.99
		C157.82,354.98,157.6,354.81,157.38,354.64z"/>
	<path class="st0" d="M484.13,421.65c4.17,25.87,3.77,51.59-3.23,76.94c-7.29,26.42-16.82,51.96-31.26,75.44
		c-1.89,3.07-4.11,5.93-6.17,8.88c-1.68-0.96-3.37-1.92-5.05-2.89c-0.95-0.13-1.91-0.26-2.86-0.39c-2.51-0.67-5.01-1.33-7.57-2.01
		c-0.63-4.09-1.19-8.39-2.03-12.64c-0.12-0.61-1.59-0.95-2.43-1.41c0,0,0.05,0.04,0.05,0.04c0.56-0.48,1.32-0.85,1.63-1.46
		c0.53-1.04,0.58-2.35,1.18-3.34c5.93-9.83,12.22-19.46,17.8-29.48c3.7-6.63,7.32-13.55,9.43-20.79
		c7.47-25.69,13.42-51.72,11.65-78.78c-0.25-3.84,0.87-5.93,4.45-6.86c1.85-0.23,3.89-0.04,5.51-0.78
		C478.23,420.77,481.1,420.56,484.13,421.65z"/>
	<path class="st0" d="M423.59,563.62c0,0-0.05-0.04-0.05-0.04c0.29,1.88,0.65,3.74,0.86,5.63c1.06,9.55,2.08,19.11,3.11,28.66
		c-1.53,2.73-3.06,5.45-4.59,8.18c-1.5,1.14-2.91,2.43-4.52,3.38c-8.73,5.2-17.52,10.33-26.28,15.48
		c-5.29,3.36-10.57,6.74-15.89,10.05c-1.01,0.63-2.29,1.53-3.27,1.35c-7-1.33-12.75,2-18.7,4.66c-3.48,1.55-7.07,2.93-10.41,4.75
		c-3.44,1.87-6.59,2.4-9.86-0.71c0.7-0.61,1.53-1.34,2.7-2.38c-3.48-1.81-6.78-3.53-10.08-5.24c-0.08-0.67-0.45-1.75-0.18-1.95
		c1.25-0.92,2.67-1.59,4.33-2.51c-3.5-1.37-6.48-2.54-9.78-3.83c1.51-1.18,2.57-2.01,3.98-3.12c-1.95-0.51-3.5-0.92-5.06-1.33
		c-0.6-0.16-1.2-0.31-1.8-0.47c-0.01-0.35-0.02-0.7-0.04-1.04c5.69-0.68,11.75-0.34,17-2.23c16.92-6.11,33.86-12.23,49.15-22.2
		c7.03-4.59,13.8-9.29,19.67-15.27C410.41,576.77,417.02,570.22,423.59,563.62z"/>
	<path class="st0" d="M498.4,211.6c-0.94-1.15-1.67-2.67-2.88-3.38c-1.98-1.16-4.25-1.86-6.45-2.63c-4.96-1.74-9.67-3.41-9.59-10.2
		c0.02-1.83-2.07-3.69-3.32-5.75c-3.09,2.16-6.1,3.86-8.61,6.12c-2.97,2.68-6.1,2.7-9.82,2.41c-19.02-1.48-36.76,3.16-52.85,13.1
		c-5.04,3.12-8.71,8.47-13,12.79c0.19,0.53,0.39,1.05,0.58,1.58c5.64,1.52,11.28,3.05,16.91,4.57c0.03,0.22,0.05,0.43,0.08,0.65
		c-4.79,0.6-9.56,1.32-14.37,1.76c-6.6,0.6-9.75,3.57-9.94,10.41c-0.21,7.66-0.05,15.32-0.05,23.02c10.2,1.87,17.97-3.69,26.43-6.21
		c0.24,0.34,0.47,0.67,0.71,1.01c-4.94,4.33-9.67,8.92-14.88,12.88c-3.25,2.47-2.8,4.6-0.72,7.08c2.29,2.73,6.57,4.73,4.73,9.09
		c-1.57,3.71-4.27,6.93-6.69,10.7c-8.76-10.91-9.71-14.31-7.3-24.74c-0.68-0.22-1.42-0.7-2.1-0.64c-5.21,0.47-6.71-2.52-7.17-7.04
		c-1.18-11.67-4.23-23.32,0.43-35.11c2.26-0.41,4.76-0.87,7.62-1.39c-0.72-1.48-1.29-2.69-1.9-3.89c-2.55-4.98-2.21-5.7,1.8-9.88
		c14.05-14.65,32.1-20.9,51.35-24.53c6.17-1.16,12.48-1.62,19.72-2.52c-15.77-6.33-32.03-5.39-47.84-8.04
		c1.36-2.15,2.57-4.06,3.78-5.98c1.52-0.6,3.12-1.85,4.55-1.68c10.44,1.24,20.86,2.74,31.28,4.19c14.69,2.04,29.18,5.23,42.53,11.72
		c7.42,3.6,14.03,8.9,20.78,13.75c0.79,0.56,0.61,3.38-0.01,4.76c-0.81,1.8-2.5,3.21-3.54,4.45c-3.36-1.16-5.9-2.03-8.43-2.9
		c-0.07-0.33-0.15-0.66-0.22-0.99c-0.21,0.19-0.42,0.39-0.64,0.58c-0.37,0.26-0.74,0.53-1.11,0.79
		C498.26,211.52,498.4,211.6,498.4,211.6z"/>
	<path class="st0" d="M437.67,265.47c-0.09-0.74,0.05-1.98-0.32-2.15c-3.67-1.73-7.32-3.65-11.2-4.77
		c-2.71-0.78-4.95-1.29-4.78-5.12c-10.3,3.16-20.29,6.22-30.47,9.35c-1.64-8.44-2.67-16.59-0.37-24.94c0.78-2.83,2.6-2.23,4.36-2.5
		c9.98-1.54,19.96-3.09,29.87-5.61c-8.91-1.81-17.82-3.61-27.15-5.5c3.03-5.64,7.22-9.57,12.59-12.64
		c5.17-2.96,9.28-2.64,14.93-0.04c9.96,4.59,12.5,13.95,17.16,22.04c1.72,2.99,2.65,6.44,4.32,9.47
		c-2.07-15.82-8.63-28.76-25.06-36.59c6.38-1.63,11.48-3.63,16.72-4.1c9.22-0.83,18.55-2.15,27.76,0.76
		c2.16,0.68,3.28,1.25,3.8,3.85c0.75,3.79,2.64,7.35,4.04,11.01c2.13,3.45,4.26,6.89,6.39,10.34c0.97,0.91,1.94,1.82,2.91,2.72
		c0.22,2.01,0.29,4.05,0.71,6.02c0.42,1.98,1.18,3.88,2.04,6.59c5.42-6.22,10.13-11.62,14.83-17.01c0.38,0.18,0.76,0.36,1.14,0.54
		c0.86,7.68,1.8,15.35,2.5,23.05c0.1,1.1-0.68,2.67-1.57,3.41c-8.68,7.23-18.38,12.59-29.57,15.64c-0.45-1.25-0.85-2.37-1.26-3.5
		c-0.49-2.2-0.97-4.41-1.34-6.06c-2.44,0.12-4.92,0.43-7.39,0.32c-5.18-0.22-8.76,1.79-8.56,5.62c0.32,6.37,1.15,12.71,1.76,19.07
		c-0.1,0.25-0.23,0.74-0.3,0.73c-5.23-0.64-12.67-8.76-12.81-14.01c-0.06-2.43-0.01-4.87-0.01-8.18c-2.23,0.77-4.01,1.38-5.78,1.99
		C437.57,265.27,437.67,265.47,437.67,265.47z M446.76,260.32c0.99,4.35-2.84,11.34,4.76,14.8c0-1.6,0.06-3.08-0.02-4.56
		c-0.09-1.64-0.34-3.27-0.45-4.92c-0.24-3.71,2.94-8.4,6.51-8.85c5.33-0.66,10.72-0.83,15.98-1.2c0.57,2.84,1.2,5.92,2.08,10.29
		c7.68-4.46,14.46-8.21,21.01-12.32c1.58-0.99,3.31-3.1,3.43-4.79c0.31-4.58-0.22-9.21-0.42-13.82c-0.41-0.04-0.82-0.07-1.24-0.11
		c-2.22,2.77-4.72,5.38-6.59,8.37c-1.8,2.87-4.25,3.25-7.01,2.7c-2.94-0.59-5.11-2.73-5.13-5.64c-0.03-4.62-1.7-8.14-5.01-11.16
		c-0.77-0.7-1.2-1.83-1.61-2.83c-2.23-5.43-4.52-10.84-6.55-16.35c-0.78-2.13-1.87-3.08-4.1-3.86c-7.58-2.63-15.17-1.36-22.77-0.71
		c-2.4,0.21-4.74,1.06-7.54,1.73c15.66,11.16,19.73,26.11,17.94,43.78c-2.54-1.09-5.13-2.24-6.5-4.23c-2.84-4.1-5.12-8.6-7.45-13.04
		c-2.16-4.11-3.5-8.77-6.2-12.45c-6.55-8.93-16.45-9.65-23.78,0.26c8.41,2.21,16.76,4.41,26.21,6.9c-1.7,2.39-2.37,4.45-3.62,4.89
		c-5.12,1.82-10.35,3.53-15.67,4.57c-5.99,1.16-12.13,1.55-18.53,2.32c0,5.33,0,10.51,0,15.91c10.7-3.02,20.66-5.83,30.88-8.71
		c0,2.4,0,4.27,0,6.52C432.31,255.91,439.25,258.03,446.76,260.32z"/>
	<path class="st0" d="M336.05,686.44c5.75,3.56,11.5,7.12,18.25,11.29c-7.71-1.73-14.36-3.22-21.02-4.72
		c-0.17,0.31-0.33,0.63-0.49,0.94c5.49,4.35,10.98,8.7,16.48,13.04c-7.18-1.22-14.69-0.58-20.95-5.41
		c-3.92-3.03-8.37-5.37-12.91-7.61c4.53,8.57,10.67,16.02,14.11,24.93c-0.3,0.21-0.6,0.42-0.9,0.63c-2.98-2.83-5.96-5.67-8.94-8.5
		c2.04,7.77,10.57,11.81,9.71,21.63c-1.38-2.02-2.42-3.54-4.06-5.93c-0.99,4.82-1.69,8.25-2.58,12.57
		c-2.19-4.37-4.02-8.01-5.8-11.57c-0.87,6.28-1.7,12.25-2.53,18.23c-0.36,0.01-0.72,0.02-1.09,0.03c-0.57-1.97-1.04-3.98-1.71-5.91
		c-5.43-15.61-6.32-31.86-6.79-48.17c-0.06-1.9-0.44-3.79-0.67-5.69c0-5.51,0-11.03,0-16.81c3.1,2.4,5.71,4.41,8.32,6.43
		c0.3-0.35,0.61-0.69,0.91-1.04c-3.87-5.36-11.88-8.32-10.22-16.88c-0.05-1.66-0.1-3.31-0.16-4.97c0-1.34,0-2.67,0-5.17
		c3.94,4.77,7.09,8.8,10.51,12.6c1.5,1.67,3.4,3.09,5.35,4.22c7.16,4.16,14.41,8.16,21.62,12.24c0.56,0.32,1,0.83,1.17,2.01
		c-2.55-0.47-5.1-0.94-7.65-1.4c-0.77-0.21-1.55-0.43-2.32-0.64c-0.06,0.18-0.11,0.37-0.17,0.55c0.59,0.27,1.18,0.54,1.78,0.82
		c1.8,1.18,3.47,2.97,5.43,3.4c3.94,0.86,4.64,3.46,5.06,7.13c-2.41-1.13-4.43-2.08-6.46-3.03c-0.83-0.21-1.65-0.41-2.48-0.62
		c-0.03,0.21-0.07,0.42-0.1,0.63C335.18,685.95,335.61,686.2,336.05,686.44z M314.46,675.99c-0.29,0.12-0.71,0.25-0.7,0.29
		c0.07,0.36,0.19,0.72,0.39,1.02c0.03,0.05,0.5-0.17,0.76-0.27C314.76,676.7,314.61,676.35,314.46,675.99z M323.55,727.24
		c-0.11,0.21-0.22,0.43-0.33,0.64c0.46,0.07,0.91,0.14,1.37,0.21c-0.01-0.22,0.05-0.58-0.04-0.62
		C324.25,727.33,323.89,727.3,323.55,727.24z"/>
	<path class="st0" d="M493.64,614.28c1.17-6.09,4.2-12.55,3.09-18.19c-1.93-9.83-1.09-19.11,0.57-28.63
		c1.34-7.71-0.4-14.82-3.99-21.74c-4.54-8.73-8.69-17.65-12.86-26.56c-0.58-1.23-0.71-2.93-0.41-4.27c0.8-3.59,1.94-7.11,3.03-10.92
		c0.39,0.44,0.7,0.64,0.8,0.91c3.64,9.64,9.61,17.79,16.41,25.37c2.36,2.63,4.88,5.23,7.75,7.23c2.79,1.94,3.52,4.13,3.83,7.41
		c1.79,18.73,0.18,37.3-2.63,55.75c-0.81,5.32-4.55,10.12-6.42,15.35c-3.68,10.28-13.6,12.08-21.64,16.46
		c-0.35,0.19-0.9,0.02-2.06,0.02c2.46-2.67,4.58-4.89,6.6-7.2c0.41-0.47,0.47-1.26,0.69-1.91c0,0,0.02,0.01,0.02,0.01
		s0.2-0.02,0.2-0.02c0.79-0.26,1.96-0.27,2.3-0.82C490.62,619.86,492.09,617.04,493.64,614.28z"/>
	<path class="st0" d="M459.69,399.79c-9.72-20.77-14.87-43.09-21.9-64.77c-0.2-0.63-0.11-1.35-0.16-2.17
		c5.25-1.34,10.03-0.05,14.74,1.99c1.62,0.7,3.29,1.28,4.94,1.92c3.56,8.81,7.4,17.52,10.62,26.46
		c4.61,12.79,8.76,25.75,13.11,38.64c-1.3,0.45-2.6,0.89-3.9,1.34c-1.58-0.94-3.16-1.88-4.75-2.82c-0.6-0.41-1.2-0.81-1.8-1.22
		c-3.01-1.79-5.77-1.67-8.44,0.8C461.74,400.33,460.53,399.86,459.69,399.79z"/>
	<path class="st0" d="M280.63,748.39c-4.27-4.98-8.54-9.96-12.97-15.14c1.77-1.02,3.44-1.98,5.11-2.94
		c-0.09-0.27-0.18-0.55-0.26-0.82c-2.31,0.4-4.61,0.79-7.05,1.21c0.14-2.91-1.37-4.89-4.07-4.12c-3.72,1.06-5.54-1.12-7.94-3.15
		c5.88-4.29,0.13-8.69,0.48-13.48c3.09-1.45,6.46-3.03,10.92-5.13c-3.87-0.94-6.61-1.6-9.34-2.26c-0.11-0.08-0.25-0.14-0.32-0.25
		c-0.06-0.09-0.06-0.32-0.04-0.33c2.28-0.75,4.53-1.75,6.87-2.18c3.57-0.65,5.93-2.35,6.59-6.01c0.72-4.02,3.24-6.33,6.92-7.71
		c1.65-0.62,3.14-1.65,4.78-2.28c0.49-0.19,1.26,0.32,1.9,0.51c0.11,4.37,0.23,8.75,0.34,13.12c0.02,0.57,0.05,1.14,0.07,1.72
		c-0.13,13.65-0.32,27.31-0.34,40.96c0,2.14,0.94,4.27,1.05,6.42c0.05,1-0.86,2.04-1.34,3.06
		C281.53,749.2,281.08,748.79,280.63,748.39z M273.64,702.4c6.76-1.6,7.18-2.34,4.31-7.19C276.55,697.55,275.2,699.79,273.64,702.4z
		 M272.33,702.55c-0.02,0.21-0.05,0.42-0.07,0.63c0.41-0.06,0.83-0.12,1.24-0.19c-0.05-0.19-0.1-0.53-0.16-0.54
		C273.01,702.44,272.67,702.51,272.33,702.55z"/>
	<path class="st0" d="M552.1,402.7c-14.71-2.49-29.41-5.08-44.14-7.41c-7.23-1.15-11.26-7.18-9.04-14.65
		c7.13,3.52,14.03,7.48,21.35,10.37c6.43,2.54,13.26,4.75,20.07,5.41c3.73,0.36,7.67-0.39,11.39,1.05c1.5,0.58,2.97,1.28,4.41,2.01
		c1.51,0.77,2.7,3.05,4.79,0.81c0.2-0.22,1.37,0.08,1.74,0.47c5.01,5.25,12.08,5.42,18.37,7.41c4.02,1.27,8.26,1.81,12.53,2.7
		c-3.85,5.43-9.87,4.72-15.16,5.5c-11.53,1.7-23.13,2.85-34.67,4.5c-6.35,0.91-12.07,3.39-16.44,8.91
		c-1.03-0.93-1.96-1.76-3.47-3.12c0,2.78,0,4.86,0,7.4c-4.11-1.61-7.72-3.03-11.84-4.64c1.27,3.67,2.34,6.76,3.6,10.43
		c-9.46-3.43-16.69-8.54-23.01-15.18c-1.53-1.61-4.17-2.18-6.29-3.22c-0.29-0.86-0.59-1.71-0.93-2.69
		c4.17-0.99,7.73-0.91,10.74,2.29c1.3,1.38,2.91,2.49,4.48,3.6c2.92,2.07,5.85,3.19,9.22,0.62c1.36-1.04,3.16-1.71,4.86-2.06
		c10.05-2.05,20.07-4.41,30.22-5.79c10.15-1.38,20.45-1.66,30.67-2.59c2.08-0.19,4.09-1.14,6.13-1.73c-0.03-0.33-0.06-0.66-0.1-0.99
		C571.76,408.97,561.93,405.83,552.1,402.7z"/>
	<path class="st0" d="M434.4,594.86c2.47,3.42,3.35-1.54,5.49-0.76c0,0.49,0.08,1.23-0.01,1.95c-1.27,9.6-2.67,19.19-3.77,28.82
		c-0.29,2.51,0.04,5.21,0.65,7.68c1.54,6.31-0.73,12.15-1.92,18.09c-2.95,14.75-13.66,22.95-25.83,29.7c-1.58,0.87-3.74,0.68-5.72,1
		c5.85-6.33,11.41-12.27,16.88-18.3c0.86-0.95,1.32-2.26,1.96-3.4c0.44-7.74,0.95-15.48,1.3-23.22c0.38-8.71,0.59-17.43,0.95-26.14
		c0.02-0.59,0.63-1.15,0.97-1.73c3.44-3.97,6.9-7.92,10.25-11.95c0.1-0.11-0.83-1.08-1.28-1.65L434.4,594.86z"/>
	<path class="st0" d="M402.18,176.68c-0.07,1.48-0.15,2.95-0.24,4.91c-14.9-0.23-30.82-3.28-46.95,2.11
		c11.91,10.49,26.42,15.09,39.48,22.25c-0.12,0.21-0.19,0.5-0.37,0.65c-6.69,5.79-6.65,5.7-14.34,1.44
		c-15.3-8.48-30.65-16.86-45.98-25.29c-1.59-0.97-3.19-1.93-5.85-3.54c7.4-0.81,13.68-1.71,19.99-2.15
		c14.87-1.05,29.76-1.86,44.63-2.83c2.91-0.19,5.73-0.64,7.49,2.57c0.21,0.39,1.46,0.21,2.22,0.29
		C402.24,176.95,402.21,176.81,402.18,176.68z"/>
	<path class="st0" d="M533.95,240.05c-8.15,8.08-16.27,16.13-24.58,24.38c-4.33-0.24-9.43-0.53-14.81-0.83
		c3.6-2.88,7.13-5.53,10.45-8.41c4.29-3.72,3.46-8.56,2.37-13.28c-0.43-1.84-1.41-3.55-2.04-5.36c-2.59-7.48-1.15-11.35,5.06-15.72
		c2.41-1.7,4.39-1.36,6.33,0.04C523.64,225.88,530.11,231.34,533.95,240.05z"/>
	<path class="st0" d="M533.16,405.99c-10.62-1.99-21.23-3.97-31.85-5.97c-0.78-0.15-1.52-0.48-2.28-0.73
		c-0.03-0.42-0.07-0.85-0.1-1.27c2.55-0.36,5.18-1.34,7.63-0.99c15.18,2.14,30.32,4.58,45.47,6.92c7.06,2.44,14.12,4.89,21.17,7.33
		c0.91,0.31,1.82,0.62,2.73,0.93c-6.35,1.38-12.57,2.49-18.78,2.42c-15.67-0.19-30.71,2.85-45.51,7.63
		c-6.96,2.25-9.93,1.11-14.38-4.97c12.58-5.12,26.78-4.04,39.27-10.26C535.4,406.69,534.28,406.34,533.16,405.99z"/>
	<path class="st0" d="M420.23,659.56c-4.3,6.4-10.78,10.27-16.53,14.97c4.62-8.26,1.76-16.81,1.82-25.16
		c0.07-9.13-4.6-15.97-9.9-22.64c4.06-3.01,7.87-4.58,12.8-0.92c3.14,2.34,7.37,3.21,11.39,4.86c0.3,2.04,0.85,4.46,1,6.91
		C421.27,644.92,422.75,652.29,420.23,659.56z"/>
	<path class="st0" d="M486.62,623.35l-0.2,0.02c0,0-0.02-0.01-0.02-0.01c-0.88,0.25-1.77,0.49-3.13,0.87
		c0.75-6.44,1.18-12.66,2.27-18.77c1.37-7.62-2.14-13.81-5.24-20.11c-3.38-6.85-9.07-11.01-16.51-12.81
		c-1.42-0.34-2.75-1.05-4.43-1.71c1.3-3.36,2.51-6.5,3.67-9.52c13.95-0.66,25.36,11.36,27.57,23.57c1.76,9.76,3.43,19.39,1.87,29.3
		C490.51,617.24,488.57,620.3,486.62,623.35z"/>
	<path class="st0" d="M524.88,271.44c0-3.8,0.54-7.04-0.12-10.02c-1.06-4.78,0.53-7.92,4.13-10.87c2.6-2.13,4.59-4.99,6.86-7.52
		c9.53,9.86,11.41,36.68,2.06,48.38C532.57,276.16,532.57,276.16,524.88,271.44z"/>
	<path class="st0" d="M328.84,644.81c2.2,2,4.4,4,6.97,6.34c-0.89,0.06-1.38,0.09-1.86,0.12c-1.3-0.17-2.6-0.34-3.88-0.52
		c0.16-0.17,0.31-0.33,0.45-0.49c-0.09-0.08-0.19-0.16-0.28-0.23c-0.02,0.23-0.05,0.47-0.07,0.7c0.49,0.53,0.98,1.05,1.47,1.58
		c0.47,0.76,0.93,1.52,1.4,2.28c-0.19,0.2-0.37,0.41-0.56,0.61c-4.78-1.24-9.55-2.48-14.33-3.72c-0.28-0.02-0.56-0.05-0.84-0.07
		c-2.6-0.64-5.21-1.28-7.81-1.92l-0.15-0.17c-2.04-1.51-4.07-3.02-6.11-4.53c-0.36-2.21-0.73-4.41-1.09-6.62c0-3.54,0-7.07,0-10.77
		c1.17,0.68,2.28,1.32,3.39,1.97c0.5,0.36,0.99,0.72,1.49,1.09c0.35,0.02,0.69,0.03,1.03,0.05c-0.19-0.21-0.37-0.43-0.56-0.64
		c-0.32-0.39-0.64-0.79-0.95-1.18c-1.77-3.21-6.47-5.03-4.78-9.68c5.45,2.53,10.93,5.08,16.41,7.62c-0.65,0.6-1.31,1.2-2.18,2
		c2.52,1.66,4.86,3.2,7.36,4.84c-1.1,0.89-2.03,1.64-3.17,2.56c2.15,1.34,3.98,2.48,5.8,3.61c1.3,0.9,2.6,1.81,3.9,2.71
		c-2.65-0.56-5.31-1.13-7.96-1.69c-0.05,0.21-0.1,0.41-0.16,0.62C324.12,642.45,326.48,643.63,328.84,644.81z"/>
	<path class="st0" d="M465.29,555.33c4.14-10.15,7.94-19.45,11.99-29.38c5.47,14.83,14.96,27.72,14.52,44.52
		C484.25,563.08,475.82,557.62,465.29,555.33z"/>
	<path class="st0" d="M457.42,333.97c-4.47-1.96-8.94-3.91-13.48-5.9c-1.78-5.74-3.7-11.93-5.75-18.55
		c4.42,1.15,8.45,2.21,12.83,3.35c1.59-7.02,3.14-13.88,4.69-20.74c2.74-5.37,4.27-5.89,11.39-3.44c-1.29,1.84-2.57,3.48-3.66,5.25
		c-3.25,5.27-5.68,10.77-5.63,17.2C457.88,318.74,457.57,326.36,457.42,333.97z"/>
	<path class="st0" d="M301.05,659.59c0,1.5,0,3.01,0,5.06c-5.55-0.29-10.94-0.57-16.5-0.86c-0.14-1.56-0.27-2.88-0.39-4.2
		c-0.03-0.83-0.07-1.66-0.1-2.49c0-7.05,0-14.09,0-21.5c4.54,0,9.02,0.1,13.5-0.04c2.03-0.06,2.66,0.8,2.58,2.6
		c0.11,2.22,0.22,4.45,0.33,6.67c0.36,2.74,0.71,5.47,1.07,8.21C301.37,655.23,301.21,657.41,301.05,659.59z"/>
	<path class="st0" d="M531.38,407.49c-2.98,0.61-5.96,1.17-8.93,1.83c-8.94,1.99-17.94,3.75-26.77,6.12
		c-7.45,2-13.93,2.2-18.27-5.53c-0.38-0.67-1.14-1.12-1.72-1.68c1.59-0.52,3.17-1.05,4.76-1.57c0.27-0.02,0.55-0.04,0.82-0.07
		c3.62,0.06,3.74-0.04,2.97-2.5c0,0-0.13,0.04-0.13,0.04c0.2,3.12,1.72,1.32,2.9,0.78c0.86-0.43,1.72-0.86,2.57-1.29
		c4.27-2.84,8.45-1.61,13.11-0.61C512.14,405.07,521.81,406.06,531.38,407.49z"/>
	<path class="st0" d="M285.52,684.45c4.56,0.22,9.13,0.36,13.69,0.71c0.91,0.07,1.75,0.96,2.63,1.47c0,7.35,0,14.71,0,22.15
		c-5.55,0-11.24,0-16.32,0C285.52,700.43,285.52,692.44,285.52,684.45z"/>
	<path class="st0" d="M332.81,183.45c3.08,1.97,6.16,3.94,9.3,5.94c-9.98,9.31-22.98,11.58-35.11,15.83
		c-3.15-7.98-3.15-7.98,3.72-12.07C318.09,189.92,325.45,186.68,332.81,183.45z"/>
	<path class="st0" d="M437.67,265.47c0,0-0.1-0.19-0.1-0.2c-0.55,1.65-1.09,3.3-1.64,4.96c0,0-0.02-0.02-0.02-0.02
		c-6.68,6.44-13.26,13-20.13,19.23c-1.27,1.15-3.72,1-5.97,1.07c7.59-8.45,11.01-18.24,10.64-29.45
		C427.29,259.42,432.35,262.96,437.67,265.47z"/>
	<path class="st0" d="M529.1,280.17c-10.35,2.2-8.36,5.65-31.74-7.18c1.99-6.42,2.78-6.96,8.95-5.35
		c7.95,2.07,15.58,4.82,21.54,10.86C528.23,278.87,528.49,279.34,529.1,280.17z"/>
	<path class="st0" d="M498.4,211.6c0,0-0.14-0.08-0.14-0.08c1.99,1.87,3.99,3.73,6.25,5.85c-2.2,1.46-5.09,2.96-7.44,5.06
		c-2.4,2.15-4.27,4.9-6.6,7.66c-4.09-4.16-7.99-8.13-11.89-12.1c-2.03-4.22-4.06-8.45-6.26-13.01c7.6-0.82,12.94,3.3,18.91,5.31
		C493.51,211.06,496,211.19,498.4,211.6z M478.85,209.65c0.94,3,1.01,5.86,2.48,7.38c3.13,3.25,7.17,5.4,12.04,4.47
		c2.73-0.52,3.32-2.76,1.77-4.41C491.16,212.88,486.39,209.84,478.85,209.65z"/>
	<path class="st0" d="M343.56,650.79c10.32-6.12,18.42-9.3,26.38-9.99c-1.64,2.72-2.66,5.2-4.36,7.06
		c-3.76,4.12-7.84,7.96-11.84,11.86c-1.84,1.79-3.34,1.18-4.64-0.81C347.37,656.26,345.54,653.68,343.56,650.79z"/>
	<path class="st0" d="M453.64,292.01c-1.67,5.86-3.33,11.72-5.03,17.71c-10.24-1.34-18.16-6.87-24.33-13.8
		c4.58-1.93,8.96-3.76,13.33-5.6c1.36-0.12,2.72-0.25,4.08-0.37c0.58-0.03,1.16-0.07,1.74-0.1c2.68-0.07,5.36-0.07,8.03-0.24
		C453.31,289.49,454.45,289.81,453.64,292.01z M447.81,292.04c-5.93,1.72-11,3.2-16.07,4.68c-0.07,0.5-0.15,1.01-0.22,1.51
		c4.84,2.42,9.67,4.84,15.25,7.64C447.14,300.89,447.42,297.15,447.81,292.04z"/>
	<path class="st0" d="M434.4,594.86c0,0-0.1,0.08-0.1,0.08c-1.63,0.67-3.25,1.34-4.88,2c-0.42-5.41-0.84-10.82-1.28-16.53
		c2.24,0.16,4,0.39,5.75,0.35c0.56-0.01,1.11-0.73,1.67-1.12c0.95,0.13,1.91,0.26,2.86,0.39c-0.15,0.65-0.62,1.7-0.39,1.9
		c1.17,1,2.54,1.78,3.84,2.64c-1.28,2.14-2.45,4.35-3.88,6.38C436.98,592.38,435.61,593.56,434.4,594.86z"/>
	<path class="st0" d="M435.91,270.21c0,0,0.02,0.02,0.02,0.02c0.85,0.38,1.71,0.76,2.53,1.13c1.48,3.43,3.2,7.42,4.88,11.32
		c-2.44,1.25-5.35,2.73-8.25,4.22c-2.47,1.34-4.95,2.68-7.75,4.2c-0.48-7.5,3.64-12.02,7.8-16.6
		C436.1,273.42,439.18,272.24,435.91,270.21z"/>
	<path class="st0" d="M462.57,282.8c-1.14,0.62-2.28,1.24-3.41,1.85c-0.39-5.59-0.8-11.18-1.13-16.78
		c-0.05-0.83,0.07-1.93,0.57-2.49c2.73-3.06,8.79-2.79,11.37,0.39c1.41,4.85-0.07,8.88-3.5,12.35c-0.68,0.84-1.35,1.67-2.03,2.51
		c-0.25,0.06-0.37,0.21-0.39,0.47C463.57,281.67,463.07,282.24,462.57,282.8z M462.61,276.5c0.64,0.12,1.28,0.23,1.92,0.35
		c0.83-3.1,1.65-6.2,2.69-10.09c-2.5,0.73-3.75,1.1-5.15,1.51C462.27,271.22,462.44,273.86,462.61,276.5z"/>
	<path class="st0" d="M300.39,733.18c0.52-2.14,1.35-4.26,1.45-6.42c0.06-1.19-1.11-2.43-1.84-3.86
		c-5.01-0.29-10.28-0.59-15.79-0.91c0.29-0.73,0.42-1.38,0.57-1.39c5.17-0.25,10.42-1.01,15.5-0.4c2.69,0.32,5.37,2.07,5.8,6.38
		c0.52,5.16-2.3,8.7-3.73,12.92c-0.69-0.02-1.39-0.04-2.08-0.06c-5.26-0.68-10.52-1.35-15.78-2.03c0.02-0.21,0.04-0.42,0.06-0.63
		c4.88,0,9.76,0,14.64,0c0.23-0.19,0.45-0.38,0.68-0.57c0.12-0.96,0.24-1.92,0.35-2.88L300.39,733.18z"/>
	<path class="st0" d="M492.23,265.4c0.75,3.34,1.19,5.31,1.7,7.56c-7.99,0.53-16.2-0.05-21.05,8.52c0.17-2.85,0.28-5.71,0.56-8.55
		c0.05-0.52,0.68-1.23,1.2-1.42C480.33,269.48,486.06,267.53,492.23,265.4z"/>
	<path class="st0" d="M484.11,404.14c0,0,0.13-0.04,0.13-0.04c-0.45-0.47-0.9-0.94-1.34-1.4c0.55-0.39,1.1-0.79,1.65-1.18
		c0.43-0.21,0.87-0.42,1.3-0.63c3.97-2.84,1.19-5.64-0.47-8.7c4.3-0.4,9.5,2.19,10.88-4.72c1.5,2.79,2.7,5.02,4.12,7.66
		c-3.54,2.27-7.28,4.66-11.01,7.05c-1.1,0.64-2.2,1.27-3.3,1.91C485.41,404.11,484.76,404.13,484.11,404.14z"/>
	<path class="st0" d="M521.07,269.31c-2.79-1.09-5.02-1.96-7.85-3.06c2.37-3.07,4.53-5.86,6.68-8.64c0.39,0.16,0.78,0.31,1.17,0.47
		C521.07,261.7,521.07,265.33,521.07,269.31z"/>
	<path class="st0" d="M283.44,714.03c6.42,0,11.75-0.04,17.07,0.05c0.61,0.01,1.22,0.71,1.83,1.09c-0.47,0.5-0.93,1.45-1.4,1.45
		c-5.21-0.02-10.42-0.15-15.63-0.35C284.93,716.25,284.57,715.42,283.44,714.03z"/>
	<path class="st0" d="M299.91,744.73c-2.99-0.1-5.97-0.21-8.96-0.31c-2.14-0.35-4.28-0.69-6.48-1.05c1.4-2.46,1.95-2.51,15.51-1.5
		C299.95,742.82,299.93,743.77,299.91,744.73z"/>
	<path class="st0" d="M402.18,176.68c0.03,0.14,0.05,0.27,0.08,0.41c2.89-2.49,5.89-1.98,8.92-0.32c-1.67,1.82-3.34,3.65-5.23,5.71
		C404.58,180.36,403.38,178.52,402.18,176.68z"/>
	<path class="st0" d="M299.91,744.73c0.02-0.95,0.04-1.91,0.06-2.86c0.1-0.81,0.2-1.63,0.3-2.44c0.69,0.02,1.39,0.04,2.08,0.06
		c0,1.94,0,3.88,0,5.82c-0.48,1.35-0.96,2.71-1.44,4.06C300.58,747.82,300.25,746.27,299.91,744.73z"/>
	<path class="st0" d="M499.37,210.73c0.21-0.19,0.42-0.39,0.64-0.58c0.07,0.33,0.15,0.66,0.22,0.99
		C499.94,211,499.66,210.87,499.37,210.73z"/>
	<path class="st0" d="M333.81,655.47c-0.3,0.05-0.59,0.09-0.89,0.14c-0.15-0.14-0.3-0.28-0.45-0.43c0.19-0.2,0.37-0.4,0.56-0.61
		C333.29,654.87,333.55,655.17,333.81,655.47z"/>
	<path class="st0" d="M328.45,440.83c-1.37-0.45-2.73-0.89-4.1-1.34c0,0-0.01,0.11-0.01,0.11c-0.75-2.2-1.49-4.39-2.24-6.59
		c-0.3-0.8-0.59-1.61-0.89-2.41c-0.19,0.05-0.37,0.1-0.56,0.14c0.05,0.76,0.1,1.52,0.15,2.27c0.23,3.54-1.27,5.09-4.96,5.02
		c-3.07-0.06-6.16,0.55-9.24,0.87c-2.25-0.49-4.64-0.65-6.71-1.55c-3.65-1.59-7.09-3.41-11.32-2.11c-0.62,0.19-2.3-1.2-2.59-2.14
		c-0.94-2.99,0.82-5.52,4.8-7.56c0.47,5.59,1.09,6.68,4.68,8.15c5.52,2.25,8.69,2.34,11.51-0.07c-2.38-0.23-4.39-0.6-6.38-0.57
		c-6.42,0.1-7.1-4.24-6.7-8.75c0.16-1.81,1.3-3.54,1.99-5.3c0.68-1.53,1.86-3.04,1.96-4.61c0.27-4.34,0.09-8.72,0.09-13.26
		c3.53-1.02,5.73,0.87,7.71,3.58c2.76,3.78,4.53,8.6,9.82,9.88c1.32,0.32,2.64,0.64,3.99,0.97c0.17-0.95,0.32-1.4,0.24-1.45
		c-5.58-3.18-8.99-8.37-12.97-13.16c-1.81-2.18-5.69-2.64-9.4-4.2c-0.19-1.67-0.5-4.32-0.72-6.28c3.86-0.68,7.24-1.79,10.58-1.7
		c2.59,0.07,5.16,1.57,7.69,2.54c1.64,0.63,3.21,1.46,4.81,2.2c1.61,0.58,3.22,1.15,4.83,1.73c0.18-0.51,0.36-1.01,0.54-1.52
		c-1.45-0.7-2.91-1.4-4.36-2.09c-2.87-2.09-5.59-4.45-8.67-6.14c-1.57-0.86-3.85-0.92-5.71-0.65c-3.34,0.48-6.6,1.48-10.1,2.31
		c-0.49-3.56-0.64-6.32-1.33-8.94c-0.3-1.15-1.68-2.03-2.57-3.03c-1.08-0.73-2.16-1.46-3.43-2.32c1.26-0.94,2.29-1.7,3.32-2.47
		c0,0,0-0.09,0-0.09c6.76-2.93,13.43-2.6,18.92-0.06c-0.35,2.54-1.61,5.63-0.72,6.48c1.87,1.79,4.86,2.39,7.39,3.49
		c0.21-0.54,0.42-1.07,0.61-1.61c-0.01,0,0.21-0.02,0.21-0.02c0.94,1.28,1.88,2.56,2.81,3.83c0.15,0.1,0.28,0.22,0.38,0.37
		c0.34,0.19,0.68,0.38,1.02,0.57c3.26,1.35,6.52,2.7,9.94,4.12c-3.05,5.09-1.71,9.48,2.71,11.87c0.77,0.42,1.76,1.13,1.92,1.87
		c1.22,5.41,2.26,10.87,3.3,16.06c-5.23,1.94-9.29,0.19-13.43-2.1c-1.84-1.02-4.3-0.92-6.48-1.32c-0.16,0.4-0.33,0.81-0.49,1.21
		c0.74,0.51,1.44,1.07,2.21,1.51c2.97,1.67,6.1,3.11,8.92,5c3.36,2.26,3.13,7.67-0.24,11.97c-0.31,0.32-0.61,0.64-0.92,0.96
		c-0.44,1.93-0.88,3.87-1.32,5.8C328.78,440.49,328.61,440.66,328.45,440.83z"/>
	<path class="st0" d="M387.34,403.79c0.27-2.06,0.55-4.12,0.82-6.18c0,0-0.12-0.01-0.12-0.01c1.84,1.53,5.29,0.88,5.96-1.22
		c0.31-0.98,0.28-2.07,0.4-3.1c-0.14-0.54-0.27-1.08-0.41-1.61c-4.29-4.72-8.53-7.99-15.95-5.67c-5.34,1.67-11.5,0.79-17.29,0.87
		c-0.93,0.01-1.99-0.76-2.79-1.41c-3.33-2.71-6.56-2.62-10.11-0.28c-3.13,2.06-5.91,5.89-10.69,2.7c0-1.18,0-2.66,0-4.13
		c11.42-10.02,22.88-19.99,34.23-30.09c3.36-2.99,6.21-6.57,9.63-9.49c3.19-2.72,5.83-5.48,6.88-9.76c0.52-2.13,2.29-3.96,3.49-5.93
		c12.72,8.42,35.59,51.14,40.3,75.36c-10.64-0.05-21.01,3.21-31.74,0.78C395.9,403.71,391.55,404.04,387.34,403.79z M351.02,376.8
		c3.98,2.08,7.49,3.97,11.05,5.74c0.55,0.27,1.35,0.12,2.02,0.03c6.24-0.87,12.52-1.51,18.69-2.72c8.94-1.75,17.07,5.16,16.34,14.23
		c-0.14,1.75-0.31,3.5-0.48,5.44c9.03,0,17.7,0,26.51,0c-6.04-22.8-15.92-42.94-30.63-61.04
		C383.43,355.3,368.91,368.07,351.02,376.8z"/>
	<path class="st0" d="M356.97,197.93c9.2,5.08,18.53,10.24,27.8,15.36c-1.79,5.22-9.63,8.88-3.44,15.93
		c-1.82-0.1-3.43-0.19-6.16-0.34c-0.66,6.99-2.06,13.99-1.77,20.93c0.31,7.43,1.69,14.93,3.56,22.15c1.45,5.62,2.11,5.45,6.53,8
		c-4.07,5.77,0.49,10.09,2.73,14.66c1.29,2.63,3.59,4.77,5.17,6.8c-3.84,4.61-7.48,8.98-11.19,13.43
		c-8.77-5.38-16.99-10.42-26.06-15.99c3.52-1.34,6.36-3.27,9.19-3.25c2.86,0.01,5.71,1.95,9.63,3.46
		c-0.51-4.92-0.57-9.25-1.49-13.39c-0.85-3.83-2.79-7.41-3.94-11.2c-1.3-4.27-4.34-6.56-8.28-7.77c-6.8-2.08-13.69-3.82-20.47-5.97
		c-1.17-0.37-2.58-1.93-2.76-3.11c-0.8-5.28-1.68-10.64-1.58-15.95c0.07-3.65,0.98-7.68,2.76-10.83
		C343.44,219.8,350.23,209.06,356.97,197.93z M379.03,309.28c3.16-2.48,5.88-4.96,4.22-9.3c-3.85-10.09-8.15-20.03-11.54-30.27
		c-1.86-5.64-2.9-11.74-3.17-17.68c-0.58-12.94,1.21-25.47,9.95-36.11c-6.73-3.97-13.15-7.76-18.92-11.17
		c-7.15,11.18-14.09,21.97-20.93,32.82c-0.52,0.82-0.6,2.06-0.52,3.08c0.33,4.24,1.01,8.46,1.15,12.69c0.08,2.53,1.17,3.54,3.4,4.12
		c4.76,1.25,9.42,2.9,14.22,3.94c7.76,1.68,12.89,5.65,14.72,13.78c1.54,6.86,5.71,13.03,4.97,20.53c-0.48,4.92-1.5,6.26-6.29,6.32
		c-0.95,0.01-1.9,0.08-3.73,0.16C371.2,304.83,374.97,306.97,379.03,309.28z M365.53,301.03c-0.12,0.23-0.25,0.46-0.37,0.69
		c0.51,0.07,1.02,0.14,1.53,0.21c0.03-0.15,0.06-0.29,0.09-0.44C366.36,301.34,365.94,301.19,365.53,301.03z"/>
	<path class="st0" d="M367.95,415.01c-0.88-1.49-1.76-2.98-2.44-4.12c4.22,0,8.29,0,12.36,0c4.36,0,7.44-2.06,9.48-5.84
		c4.9,0.5,9.79,1.32,14.7,1.43c8.17,0.18,16.35,0.01,24.52-0.19c7.51-0.18,15.02-0.6,22.54-0.91c3.43,2.06,6.86,4.11,10.29,6.17
		c3.43,3.55,6.87,7.11,10.3,10.66c-5.46-2.17-10.92-4.35-16.37-6.52c-1.72-2.1-3.47-1.81-5.7-0.55c-3.93,2.21-7.36,4.87-12.68,4.63
		c-17.79-0.81-35.63-0.54-53.42-1.22C376.96,418.37,372.48,416.24,367.95,415.01z"/>
	<path class="st0" d="M304.25,273.15c-0.28-4.73-0.54-8.95-0.81-13.44c11.66-0.64,23.11-1.18,34.26,2.52
		c7.51,2.49,15.02,5,22.42,7.8c1.72,0.65,3.49,2.24,4.37,3.86c3.4,6.29,5.93,12.91,5.71,21.58c-8.32-14.53-23.2-16.09-36.47-21.6
		c2.66-2.22,5-4.17,7.34-6.12c-0.19-0.32-0.39-0.64-0.58-0.96c-2.21,1.28-4.77,2.21-6.52,3.95c-1.83,1.82-3.54,2.51-6.06,2.46
		C320.14,273.05,312.36,273.15,304.25,273.15z"/>
	<path class="st0" d="M321.8,382.78c-0.1-0.15-0.23-0.27-0.38-0.37c1.34-2.09,0.98-2.59-2.81-3.83c0,0-0.22,0.02-0.21,0.02
		c-2.12-0.68-4.25-1.37-7.32-2.35c6.59-5.97,12.06-11.08,17.76-15.92c0.88-0.74,2.83-0.25,4.28-0.29c4.74-0.13,9.67,0.54,14.15-0.6
		c3.6-0.92,6.64-4.01,10.21-6.32c1.55,1.89,3.25,3.98,5.14,6.28c-9.09,7.85-18.09,15.62-27.1,23.38c-4.62,1.86-8.74-0.29-12.96-1.59
		C322.32,381.72,322.06,382.25,321.8,382.78z"/>
	<path class="st0" d="M303.69,257.02c0-9.04-0.06-17.94,0.06-26.84c0.02-1.41,0.42-3.13,1.29-4.15c3.36-3.93,3.88-8.19,2.45-12.97
		c-0.5-1.68-0.64-3.47-1-5.55c7.6-2.73,15.14-5.44,23.09-8.3c1.15,20.04,2.3,39.9,3.41,59.33
		C323.57,258.05,313.72,257.54,303.69,257.02z M328.31,252.93c-1.17-15.87-2.31-31.22-3.47-47.01c-4.71,1.59-8.92,3.01-13.2,4.46
		c0.33,1.92,0.31,3.64,0.92,5.1c1.96,4.67,0.48,8.36-2.65,11.88c-1.04,1.17-2.21,2.77-2.26,4.2c-0.23,7.24-0.11,14.48-0.11,21.37
		C314.43,252.93,321.07,252.93,328.31,252.93z"/>
	<path class="st0" d="M429.39,380.95c-4.25-8.03-8.19-15.34-11.94-22.75c-0.54-1.06-0.58-2.72-0.17-3.86
		c3.33-9.23,6.83-18.4,10.35-27.79c3.45-0.06,5.15,1.15,6.02,4.81c2.24,9.41,5.12,18.66,7.61,28.01c0.31,1.15,0.2,2.77-0.41,3.75
		C437.28,368.93,433.5,374.61,429.39,380.95z M428.89,370.31c2.17-2.65,4.59-5.4,6.72-8.37c0.57-0.8,0.55-2.33,0.27-3.38
		c-1.93-7.16-4.01-14.29-6.17-21.87c-0.76,1.72-1.26,3.12-1.97,4.41C422.35,350.87,421.29,360.59,428.89,370.31z"/>
	<path class="st0" d="M439.49,329.35c-0.99-0.36-2.75-0.59-2.83-1.09c-0.49-3.1-3.17-2.98-5.14-3.92
		c-6.76-3.23-13.59-6.35-20.19-9.88c-0.95-0.51-0.81-3.04-1.17-4.63c6.13-0.85,7.88-6.89,11.5-10.04
		c14.59,4.5,15.26,17.34,18.94,28.32C440.23,328.52,439.86,328.94,439.49,329.35z"/>
	<path class="st0" d="M384.37,337.27c-1.31-1.69-2.48-3.22-3.67-4.73c-0.15-0.19-0.5-0.24-0.64-0.44c-1.76-2.47,0.15-13.82,2-16.27
		c5.76-7.63,14.81-6.53,22.54-8.89c0.62-0.19,2.41,1.04,2.35,1.43c-0.22,1.63-0.5,3.68-1.58,4.66c-2.09,1.89-4.86,3-7.13,4.71
		C391.44,322.89,386.85,329.67,384.37,337.27z"/>
	<path class="st0" d="M394.84,323.41c2.84-2.23,6.24-5.06,9.84-7.61c0.65-0.46,2.31-0.05,3.21,0.47c4.94,2.85,9.8,5.86,14.95,8.97
		c-2.84,8.26-5.75,16.72-8.55,24.86C408.04,341.51,401.75,332.88,394.84,323.41z M413.47,338.87c5.11-13.66,6.3-9.83-4.53-17.82
		c-0.74-0.55-1.55-1.01-2.57-1.67c-1.73,1.79-3.41,3.55-4.82,5.01C405.63,329.35,409.6,334.17,413.47,338.87z"/>
	<path class="st0" d="M364.89,354.92c-5.58-3.17-7.53-8.06-7.2-14.09c0.03-0.55,0-1.09,0.01-1.64c0.05-3-0.89-6.63,0.47-8.82
		c1.18-1.9,5.02-2.09,7.62-3.18c2.25-0.95,3.83-3.07,7.04-1.79c3.3,1.32,5.43,2.75,4.9,7.74c-2.34-0.3-4.69-0.6-7.34-0.94
		C369.35,339.68,370.61,348.23,364.89,354.92z"/>
	<path class="st0" d="M345.21,283.13c0.03,0.39,0.23,0.99,0.06,1.13c-5.89,4.87-11.82,9.69-18,14.72c-2.23-2.98-4.7-5.91-6.76-9.11
		c-2.84-4.41-4.91-5.23-9.88-3.23c-1.76,0.71-3.53,1.41-5.71,2.29c-0.3-4.15-0.58-8.01-0.88-12.11c14.43,0.09,27.76,3.88,41.27,6.41
		C345.31,283.22,345.21,283.13,345.21,283.13z M336.37,285.72c-0.02-0.56-0.05-1.11-0.07-1.67c-9.3-1.49-18.6-2.97-28.48-4.56
		c0.25,2.06,0.37,3.05,0.39,3.22c4.3,0.43,8.53-0.1,11.78,1.43c3.36,1.59,5.77,5.19,8.68,8
		C331.18,290.05,333.77,287.89,336.37,285.72z"/>
	<path class="st0" d="M361.91,185.11c13.36,0,26.73,0,40.44,0c-1.8,6.31-3.51,12.34-5.36,18.82c-11.89-5.9-23.48-11.65-35.08-17.4
		C361.91,186.05,361.91,185.58,361.91,185.11z M376.07,189.13c-0.08,0.33-0.16,0.66-0.24,0.99c5.75,2.65,11.51,5.3,17.47,8.05
		c1.14-3.43,2.09-6.3,2.99-9.04C389.28,189.13,382.67,189.13,376.07,189.13z"/>
	<path class="st0" d="M334.83,228.78c-0.66-10.02-1.33-19.9-1.91-29.79c-0.04-0.68,0.31-1.61,0.81-2.06
		c5.91-5.35,11.88-5.74,19.59-0.83C347.13,207.03,340.93,217.99,334.83,228.78z M336.58,200.04c0.73,4.95,1.36,9.23,2.04,13.82
		c2.93-5.92,5.66-11.45,8.54-17.28C342.69,194.44,340.29,199.12,336.58,200.04z"/>
	<path class="st0" d="M420.05,292.4c0.22,2.92,1.38,6.37-3.1,8.81c-1.57,0.85-1.19,4.62-4.39,4.8c-0.67,0.04-1.43,0.54-1.99,0.35
		c-7.31-2.48-14.39-0.26-21.02,0.99c4.2-4.5,8.53-9.28,13.07-13.85c0.81-0.82,2.49-1.02,3.79-1.06
		C410.86,292.33,415.33,292.4,420.05,292.4z"/>
	<path class="st0" d="M405.32,184.73c13.07,1.5,25.71,2.96,37.5,4.31c-13.66,4.26-27.95,8.71-42.66,13.3
		C401.8,196.74,403.47,191.05,405.32,184.73z M405.87,197.2c6.16-2.25,11.52-4.22,16.89-6.18c-0.01-0.21-0.03-0.43-0.04-0.64
		c-4.53-0.62-9.05-1.25-13.74-1.89C408,191.24,407.09,193.78,405.87,197.2z"/>
	<path class="st0" d="M443.9,366.14c2.96,7.76,5.76,15.1,8.72,22.86c-6.7,0-12.93,0-19.99,0c0-1.19-0.56-3.03,0.09-4.18
		C436.2,378.64,439.98,372.63,443.9,366.14z M443.33,376.86c-2.21,3.31-4.04,6.03-6.24,9.33c3.68-0.32,6.57-0.58,9.76-0.86
		C445.62,382.38,444.61,379.93,443.33,376.86z"/>
	<path class="st0" d="M351.52,310.3c0-2.59,0-4.8,0-7.79c-0.06,0,1.11-0.36,1.87,0.05c8.01,4.33,16.07,8.6,23.78,13.42
		c1.13,0.71,0.48,4.24,0.66,6.54c-3.75-0.21-6.76-0.37-10.33-0.57C364.97,314.78,357,313.75,351.52,310.3z M355.69,306.38
		c-0.33,0.47-0.66,0.95-0.99,1.42c0.78,0.59,1.49,1.32,2.35,1.74c4.14,2.03,8.43,3.67,11.27,7.76c0.73,1.06,2.88,1.2,4.42,1.58
		c0.49,0.12,1.12-0.33,1.68-0.52c-0.26-0.65-0.33-1.62-0.81-1.89C367.67,313.04,361.67,309.72,355.69,306.38z"/>
	<path class="st0" d="M298.99,159.62c4.83,1.07,9.06,2,13.86,3.06c-5.14,8.94-12.2,16.51-11.73,27.59c-2.1-2.12-2.1-2.12-2.1-9.28
		c0-3.42-0.02-6.84-0.02-10.26C298.98,167.44,298.99,164.16,298.99,159.62z"/>
	<path class="st0" d="M299.21,128.07c3.13,4.76,5.74,8.73,8.58,13.04c-1.69,2.01-3.49,4.15-5.46,6.49c2.65,0.79,4.95,1.49,7.26,2.18
		c-2.4,6.98-3.2,7.49-10.38,6.36C299.21,147.13,299.21,138.06,299.21,128.07z"/>
	<path class="st0" d="M457.65,400.21c0.21,0.74,0.42,1.48,0.93,3.28c-2.54-1.05-4.64-1.38-5.93-2.57c-2.14-1.98-3.94-1.81-6.03-0.31
		c-2.57,0.88-5.14,1.77-8.2,2.82c-1.21-3.02-2.39-5.98-3.87-9.67c6.66,0,12.73-0.09,18.8,0.1c0.83,0.03,1.79,1.36,2.37,2.28
		C456.52,397.4,457.02,398.84,457.65,400.21z"/>
	<path class="st0" d="M403.03,283.22c-1.4-1.19-2.85-2.42-4.59-3.91c5.28-5.75,10.47-11.41,15.72-17.13
		C417.04,271.19,415.64,273.82,403.03,283.22z"/>
	<path class="st0" d="M344.65,311.19c1.85,0.21,3.93-0.03,5.51,0.74c4.03,1.95,7.95,4.19,11.7,6.63c1.82,1.19,3.74,3.73,1.46,5.32
		c-1.82,1.27-5.87,1.81-7.36,0.65c-4.35-3.38-7.92-7.78-11.79-11.77C344.33,312.23,344.49,311.71,344.65,311.19z"/>
	<path class="st0" d="M349.94,282.25c-0.7,0.27-1.39,0.53-2.09,0.8c-0.88,0.03-1.76,0.05-2.64,0.08c0,0,0.1,0.09,0.1,0.09
		c-3.59-1.35-7.09-3.18-10.8-3.95c-8.14-1.68-16.39-2.82-24.59-4.18C324.29,271.48,337.05,277.23,349.94,282.25z"/>
	<path class="st0" d="M468.02,198.73c2.3-1.73,4.59-3.46,7.42-5.6c1.03,2.69,1.87,4.89,2.97,7.76c-3.73-0.46-6.78-0.84-9.83-1.22
		C468.39,199.36,468.2,199.04,468.02,198.73z"/>
	<path class="st0" d="M349.34,306.31c-4.84,4.12-5.82,4.24-9.46,1.3C341.8,303.06,344.67,302.59,349.34,306.31z"/>
	<path class="st0" d="M372.71,338.7c1.47,1.41,3.19,3.05,5.19,4.97c-1.48,1.14-3.46,2.66-6.07,4.67
		C372.22,344.16,372.49,341.11,372.71,338.7z"/>
	<path class="st0" d="M382.06,335.57c-0.46,1.51-0.58,3.34-1.53,4.4c-0.53,0.59-2.48-0.11-3.8-0.23c-0.13-0.4-0.25-0.8-0.38-1.21
		c1.35-1.34,2.7-2.68,4.05-4.02C380.95,334.87,381.51,335.22,382.06,335.57z"/>
	<path class="st0" d="M362.63,293.8c-0.51-1.73-1.03-3.47-1.54-5.2c1.79,1.48,3.58,2.95,5.37,4.43c-0.16,0.32-0.32,0.64-0.48,0.96
		C364.86,293.93,363.74,293.87,362.63,293.8z"/>
	<path class="st0" d="M346.68,285.75c-0.13,3.11-0.76,3.67-2.84,2.5C344.78,287.41,345.73,286.58,346.68,285.75z"/>
	<path class="st0" d="M261.28,690.12c1.74,0.31,3.48,0.63,5.49,0.99c-3.04,8.5-12.66,6.13-18.05,11.24c2,0.39,3.81,0.73,5.62,1.08
		c1.35,0.53,2.7,1.06,4.36,1.71c-2.71,1.46-5.09,2.74-7.35,3.97c-0.73,4.1,3.59,7.77,0.42,12.07c-4.44-4.18-8.82-8.11-12.94-12.31
		c-0.85-0.87-1.04-2.71-0.99-4.09c1.48-45.4,3.02-90.8,4.54-136.2c0.07-2.13,0.01-4.26-0.98-6.47
		c-5.63,43.38-11.26,86.76-16.89,130.13c-0.33,0.05-0.67,0.1-1,0.14c-3.15-4.76-6.3-9.52-9.45-14.27
		c-8.93-13.48-17.73-27.05-26.83-40.41c-6.52-9.57-10.77-19.41-8.47-31.46c1.4-7.34,1.53-14.91,2.33-23.43
		c3.62,4.77,6.63,8.72,9.63,12.68c0.4-0.24,0.81-0.48,1.21-0.73c-3-5.56-6-11.12-9-16.68c0.19-0.18,0.35-0.37,0.48-0.59
		c5.25,4.75,11.66,7.22,18.04,9.78c0.23-0.32,0.46-0.65,0.69-0.97c-4.66-3.82-9.13-7.91-14.04-11.38c-3.46-2.45-4.3-4.97-3.9-9.21
		c0.51-5.42,2.71-11.02-0.1-16.53c-0.3-0.59,0.42-2.02,1.05-2.72c7.39-8.26,14.06-17.43,22.54-24.39
		c7.74-6.35,13.84-13.7,19.86-21.4c2.26-2.89,4.9-5.49,7.36-8.22c1.02,0.9,2.21,1.68,3.03,2.74c5.17,6.69,10.01,13.65,15.45,20.12
		c7.18,8.55,16.65,14.15,26.67,18.76c2.23,1.03,3,2.23,2.96,4.58c-0.06,4.39,0.11,8.78,0.3,13.17c0.05,1.08-0.65,3.27,1.97,2.06
		c-0.03,1.86-0.05,3.72-0.08,5.58c-0.59,0.3-1.68,0.57-1.7,0.89c-0.09,1.76,0.09,3.53,0.17,5.3c0.01,1.1,0.02,2.2,0.03,3.31
		c-0.25,3.27-0.57,6.54-0.73,9.81c-0.44,8.73-0.72,17.48-1.26,26.2c-0.26,4.2-0.7,8.42-1.58,12.53c-0.31,1.47-1.92,3.21-3.35,3.78
		c-6.46,2.57-13.07,4.76-19.63,7.09c-0.56,0.52-1.11,1.03-1.67,1.55c0.85,0.82,1.71,1.63,2.56,2.45c-1.81,1.23-3.62,2.46-5.4,3.67
		c2.62,0.66,5.16,1.3,7.69,1.93c-1.57,1.24-3.13,2.47-5.19,4.1c1.92,0.18,3.12,0.29,5.58,0.52c-5.41,3.59-9.77,6.47-14.32,9.49
		c0.66,0.62,1.23,1.16,1.8,1.69c0.78,0.84,1.57,1.67,2.35,2.51c-0.08,2,0.18,4.1-0.33,5.98c-0.84,3.12-0.69,5.77,2.21,7.75
		c-1.37,1.92-2.65,3.51-3.64,5.26c-0.22,0.39,0.6,1.36,0.95,2.06l0-0.05c-1.42,0.49-2.84,0.98-4.26,1.48
		c-0.02,0.54-0.04,1.09-0.06,1.63c7.55-1.59,5.63,6.35,9.44,8.48c5.36-5.26,6.88-13.63,14.24-17.44c0.49,2.38,0.87,4.25,1.38,6.7
		c1.3-1.88,2.29-3.04,2.96-4.36c0.53-1.06,0.67-2.32,0.98-3.49c0,0,0,0,0,0c0.71,0,1.49,0.19,2.12-0.04
		c1.82-0.64,3.58-1.44,5.62-2.28c0,3.6,0.16,6.45-0.08,9.27c-0.08,0.99-0.92,2.32-1.79,2.76c-6.29,3.22-12.67,6.26-19.02,9.35
		c-0.53,0.09-1.06,0.18-1.58,0.27c0.02,0.14,0.03,0.29,0.05,0.43C260.26,690.07,260.77,690.09,261.28,690.12z M220.62,677.15
		c0.15-1.58,0.2-2.33,0.29-3.08c1.95-16.19,3.67-32.42,5.94-48.57c2.35-16.81,5.87-33.47,7.66-50.33
		c1.28-11.99,5.06-22.99,9.54-34.12c1.67,6.9,4.01,13.85,3.95,20.77c-0.16,18.79-1.32,37.57-2.1,56.36
		c-0.37,8.82-0.79,17.63-1.19,26.45c0.35,0.22,0.7,0.44,1.05,0.65c1.78-1.31,3.57-2.62,5.56-4.08c-1.54-1.65-2.46-2.63-3.76-4.03
		c4.25-3.42,1.3-7.13,0.22-11.19c8.32-2.94,16.53-5.9,24.78-8.7c2.2-0.75,3.29-1.67,3.38-4.26c0.79-23.17,1.67-46.35,2.73-69.51
		c0.16-3.56-0.94-5.28-4.22-6.65c-12.17-5.07-22.94-12.17-31.01-22.87c-3.01-3.99-6.04-7.97-9.26-12.21
		c-1.13,1.72-2.27,3.26-3.2,4.91c-4.71,8.45-10.56,15.92-18.02,22.18c-6.72,5.64-13.29,11.47-19.7,17.46
		c-1.36,1.27-2.26,3.54-2.48,5.45c-0.52,4.62-0.66,9.3-0.61,13.96c0.02,1.54,0.66,3.5,1.73,4.52c5.27,5.01,10.99,9.55,16.11,14.7
		c3.04,3.06,5.27,6.94,7.86,10.45c-0.4,0.51-0.79,1.02-1.19,1.52c-6.67-2.35-13.33-4.69-19.99-7.03c0.76,3.15,1.59,6.57,2.67,11.01
		c-4.52-0.86-8.48-1.62-12.41-2.37c-0.54,4.35-1.19,9.1-1.69,13.86c-0.11,1.03,0.04,2.19,0.44,3.14
		c4.22,9.93,8.25,19.85,14.87,28.67c7.39,9.82,13.67,20.48,20.43,30.77C219.34,675.5,219.73,675.97,220.62,677.15z M254.4,694.62
		c-1.86-2.5-3.42-4.84-5.24-6.96c-1.51-1.77-3.31-3.29-4.99-4.92c-1.35,6.4-1.37,12.01-2.06,17.54c-0.51,4.09,1.47,5.88,5.37,7.78
		c-0.27-1.73-0.15-2.93-0.65-3.76c-2-3.29-1.49-5.46,1.98-7.13C250.87,696.19,252.97,695.27,254.4,694.62z"/>
	<path class="st0" d="M217.04,494.62c4.19-4.8,8.37-9.61,12.99-14.9c1.6,3.63,2.94,6.65,4.27,9.67c-0.63,0.85-1.21,1.74-1.89,2.55
		c-4.45,5.32-9.21,10.42-13.3,16.01c-3.03,4.14-6.63,7.44-10.43,10.81c-8.27,7.34-15.9,15.41-23.78,23.2
		c-0.97,0.96-1.87,2-3.11,3.32c-2.66-2.33-5.34-4.58-7.85-6.99c-0.39-0.37-0.01-1.53,0.01-2.32c0.3-0.27,0.6-0.55,0.9-0.82
		c0,0-0.09,0.09-0.09,0.09c1.11-0.84,2.21-1.69,3.32-2.53c0.56-0.37,1.14-0.72,1.67-1.13c8.31-6.38,15.56-14.23,25.58-18.24
		c0.79-0.31,1.76-1.17,1.9-1.92C208.53,504.64,213.52,500.07,217.04,494.62z"/>
	<path class="st0" d="M153.28,555.74c0.78,0.05,1.89-0.21,2.28,0.2c3.43,3.62,6.73,7.36,10.34,11.36
		c-6.15,6.46-12.79,13.44-19.93,20.93c-2.56-6.19-4.96-12.01-7.38-17.86c1.4-1.6,2.74-3.13,4.08-4.66c2.2-2.51,4.39-5.01,6.59-7.52
		c0,0-0.08,0.07-0.08,0.07c0.59-0.28,1.17-0.57,1.76-0.85c0,0-0.06,0.05-0.06,0.05C151.68,556.89,152.48,556.32,153.28,555.74z"/>
	<path class="st0" d="M181.97,551.9c-0.49,7.25-0.95,13.97-1.44,21.17c-0.17,0.09-1.2,0.63-1.9,1c-2.33-1.31-4.76-2.67-7.95-4.46
		c-2.65,6.46-5,12.16-7.46,18.16c-1.26-2.89-2.59-5.64-3.6-8.49c-0.25-0.72,0.29-2,0.86-2.68c6.67-7.91,13.41-15.76,20.14-23.62
		C180.86,552.69,181.21,552.49,181.97,551.9z"/>
	<path class="st0" d="M144.27,590c-2.47,1.47-8.13-1.26-16.93-7.82c0.65-0.81,1.3-1.62,2.11-2.63
		C134.38,583.01,139.13,586.37,144.27,590z"/>
	<path class="st0" d="M179.7,548.57c-1.1,1.31-1.78,2.13-2.45,2.93c-6.54-4.79-8.99-7.81-8.12-10.52
		C172.59,543.46,175.95,545.87,179.7,548.57z"/>
	<path class="st0" d="M139.88,583.73c-3.02-2.48-5.4-4.42-8.04-6.58c1.8-1.9,2.98-3.16,4.82-5.1
		C137.78,576.12,138.76,579.67,139.88,583.73z"/>
	<path class="st0" d="M235.35,642.34c-0.34-0.01-0.68-0.01-1.02-0.02c0.29-3.23,0.58-6.45,0.87-9.68c0.05,0.01,0.1,0.02,0.15,0.03
		C235.35,635.9,235.35,639.12,235.35,642.34z"/>
	<path class="st0" d="M261.38,729.67c-0.03-0.17-0.06-0.35-0.09-0.52c0.16,0.03,0.31,0.07,0.47,0.1c-0.16,0.12-0.33,0.23-0.49,0.35
		C261.27,729.6,261.38,729.67,261.38,729.67z"/>
	<path class="st0" d="M182.94,578.09c-0.2-0.16-0.39-0.32-0.59-0.47c0.36-0.04,0.71-0.08,1.07-0.12
		C183.29,577.71,183.13,577.91,182.94,578.09z"/>
	<path class="st0" d="M330.49,306.13c-0.09-0.71-0.19-1.43-0.28-2.14c0.25-0.09,0.5-0.19,0.75-0.28c0.39,0.8,0.79,1.61,1.18,2.41
		C331.59,306.12,331.04,306.13,330.49,306.13z"/>
	<path class="st0" d="M334.82,301.71c-0.23-0.1-0.58-0.15-0.64-0.31c-0.06-0.16,0.16-0.44,0.26-0.66c0.23,0.1,0.58,0.15,0.64,0.31
		C335.14,301.21,334.92,301.48,334.82,301.71z"/>
	<path class="st0" d="M323.91,440.43c0.99,0.82,1.92,1.73,2.98,2.43c1.32,0.87,2.76,1.56,4.76,2.66c-2.77,2.66-5.1,4.9-7.43,7.14
		c-2.6-2.01-5.2-4.03-7.8-6.04c-0.43,0.57-0.86,1.14-1.28,1.72c2.16,1.56,4.31,3.13,6.47,4.69c4.18,1.64,4.25,5.38,4.7,9.01
		c0.31,2.5,0.93,4.97,1.52,8.04c-0.78,0.77-2.03,2-3.61,3.56c-2.87-2.68-5.88-5.04-8.3-7.9c-1.89-2.24-3.92-2.95-6.7-3.05
		c-5.5-0.2-11-1.05-16.49-0.99c-1.98,0.02-4.27,1.55-5.85,3.01c-3.4,3.1-6.43,6.61-9.68,10.02c-3.33-2.36-6.18-4.38-9.04-6.41
		c-2.35-2.45-5.12-4.62-6.96-7.4c-6.69-10.1-13.06-20.4-19.55-30.63c-4.29-6.18-1.82-11.61,1.81-16.96
		c1.12-1.64,2.02-3.43,3.84-5.02c0,3.16-0.34,6.37,0.11,9.47c0.33,2.23-0.62,6.09,4,5.4c0.23-0.29,0.46-0.58,0.68-0.87
		c-0.24-5.33-0.52-10.67-0.73-16c-0.21-5.36,2.59-8.22,8.93-8.68c0.41,20.6,0.82,41.17,1.24,62.24c4.35-1.82,5.07-4.76,4.68-8.02
		c-0.53-4.42-1.9-8.79-1.99-13.21c-0.28-12.96-0.1-25.92-0.1-38.88c10.39,1.75,20.66,3.49,31.95,5.39
		c-0.54,3.66-1.21,8.28-1.89,12.89c-2.77,2.69-5.59,5.34-8.31,8.1c-2.7,2.74-3.14,6.39-1.68,9.46c0.59,1.25,4.15,1.07,6.35,1.58
		c2.5,0.57,4.98,1.28,7.5,1.75c2.83,0.53,5.71,0.86,8.56,1.27C312.37,440.28,318.14,440.35,323.91,440.43L323.91,440.43z"/>
	<path class="st0" d="M288.24,476.26c-3.49,0.69-6.98,1.39-10.47,2.08c-0.19,0.05-0.39,0.1-0.58,0.15c0.21,0.18,0.41,0.35,0.62,0.53
		c0.68,0.84,1.68,1.59,1.98,2.55c2.2,7.22,8.32,8.03,14.3,8.48c5.84,0.44,11.74,0.09,17.61,0.09c0.26,0.54,0.52,1.07,0.79,1.61
		c-1.1,0.89-2.34,1.65-3.26,2.7c-1.35,1.53-2.34,3.4-3.75,4.86c-1.19,1.24-2.76,2.11-4.84,3.64c0,1.2-0.14,3.26,0.03,5.29
		c0.24,2.89-0.98,4.69-3.21,6.53c-4.18,3.45-1.86,8.32-2.11,12.64c-0.07,1.25-0.71,2.46-1.09,3.69c-0.58,0.09-1.16,0.18-1.74,0.26
		c-0.52-2.92-1.05-5.84-1.57-8.77c-0.57,0.05-1.14,0.1-1.7,0.16c-0.17,2.41-0.33,4.82-0.53,7.65c-6.91-0.78-13.66-1.93-19.15-6.32
		c-12.22-9.76-22.32-21.57-30.29-34.92c-4.45-7.44-7.29-15.86-10.61-23.95c-0.61-1.48-0.22-3.5,0.09-5.2
		c1.44-7.65,2.91-15.29,4.59-22.89c0.75-3.41,2.01-6.7,3.28-10.83c1.62,2.74,2.72,4.61,3.81,6.47c1.67,3.44,3.16,6.98,5.06,10.29
		c5.78,10.12,12.14,19.82,21.55,27.06c5.19,7.77,12.61,7.3,20.39,5.52C287.7,475.85,287.97,476.05,288.24,476.26z M286.43,516.38
		c-1.22-2.61-2.35-5.26-3.69-7.81c-1.48-2.81-3.15-5.52-4.73-8.27c-0.47,0.27-0.93,0.54-1.4,0.81c0.97,1.92,1.82,3.91,2.93,5.74
		c1.42,2.33,0.51,5.82-1.83,6.99c-1.43,0.71-2.7,1.76-4.05,2.65c0.37,0.46,0.74,0.91,1.11,1.37c3.38-0.82,6.85-3.64,10.02,0.16
		c1.34,1.87,2.68,3.75,4.01,5.62c0.37-0.22,0.75-0.43,1.12-0.65C290.05,520.25,288.43,518.23,286.43,516.38z"/>
	<path class="st0" d="M285.22,559.46c0.03-1.86,0.05-3.72,0.08-5.58c0-6.77,0-13.53,0-20.72c2.62,0,5,0,7.38,0
		c0.52,0.1,1.05,0.2,1.57,0.3c0.28,7.32,0.56,14.63,0.85,21.95c0.08,2.04,0.19,4.08,0.28,6.12c0.2,6.87,0.39,13.75,0.59,20.62
		c0,9.11,0,18.21,0,27.69c-3.78,0.17-8.05,0.35-12.27,0.54c0.39-14.14,0.77-27.78,1.15-41.41c0.01-1.11,0.03-2.21,0.04-3.32
		C285,563.59,285.11,561.53,285.22,559.46z"/>
	<path class="st0" d="M226.51,457.95c-5.21-16.8-13.29-31.68-14.68-48.85c5.12,1.23,10.07,1.87,14.53,3.69
		c2.54,1.04,4.14,4.21,6.43,6.1c3.19,2.63,1.31,5.23,0.63,8.12c-1.87,7.96-3.38,16.01-5.08,24.02
		C227.91,453,227.3,454.94,226.51,457.95z"/>
	<path class="st0" d="M253.94,382.62c0,0-0.19,0.04-0.19,0.03c0.33,0.36,0.84,1.1,0.97,1.03c2.99-1.43,3.51,0.64,3.95,2.75
		c0.45,2.13,0.81,4.28,1.19,6.28c-3.06,1.39-5.96,2.71-8.85,4.03c-0.38-0.16-0.76-0.32-1.13-0.47c1.08-3.17,2.2-6.33,3.21-9.52
		C253.5,385.42,253.66,384.01,253.94,382.62z"/>
	<path class="st0" d="M260.55,634.23c1.02-0.31,2.04-0.63,3.74-1.15c-1.9-1.09-3.21-1.85-4.41-2.55c7.13-2.45,14.19-4.87,21.19-7.27
		c1.08,4.62-3.1,5.55-6.34,7.75c1.73,0,3.45,0,5.56,0c0.29,5.49,0.58,11.01,0.88,16.63c-3.49,1.08-6.73,2.08-9.97,3.08
		c-0.66,0.27-1.32,0.54-1.98,0.81c0.04,0.14,0.09,0.28,0.13,0.42c0.62-0.1,1.24-0.19,1.86-0.29c2.13,0.14,4.27,0.28,7,0.45
		c-2.7,3.06-5.13,5.81-7.55,8.57c0.28,0.35,0.55,0.69,0.83,1.04c3.21-0.64,6.43-1.28,9.64-1.92l0.22,0.09l0.18-0.16
		c0.84,2.26,0.09,3.48-2.03,4.85c-2.05,1.32-3.38,3.75-5.03,5.69c0,0,0,0,0,0c-0.89-0.76-1.78-1.52-2.82-2.4
		c-1.32,0.52-2.91,0.97-4.33,1.74c-2.2,1.19-4.86,2.16-6.29,4.01c-2.04,2.64-3.15,6.01-4.65,9.06c-0.54-0.05-1.08-0.1-1.62-0.15
		c1.21-4.46-3.28-3.53-4.96-5.26c0,0,0,0.05,0,0.05c2.72-1.94,5.45-3.87,8.87-6.31c-5.81-2.48-5.58-6.88-4.77-11.47
		c0.4-2.26-0.26-3.98-2.46-4.93c-0.3-0.26-0.61-0.52-0.91-0.78c0.8-0.79,1.49-2.06,2.43-2.29c5.57-1.38,8.4-5.87,11.71-9.48
		c-0.65-1.64-4.26,0.59-2.92-2.9c1.01-0.94,2.03-1.89,2.85-2.66C262.99,635.62,261.77,634.92,260.55,634.23z M269.03,661.28
		c0.03,0.24,0.07,0.49,0.1,0.73c0.72-0.13,1.44-0.25,2.15-0.38c-0.07-0.33-0.14-0.66-0.21-0.98
		C270.39,660.85,269.71,661.07,269.03,661.28z"/>
	<path class="st0" d="M300.66,672.14c-4.62-0.34-9.25-0.55-13.84-1.1c-1.01-0.12-1.88-1.45-2.82-2.22c0.23-0.43,0.46-0.86,0.69-1.29
		c4.85,0.28,9.72,0.42,14.54,0.96c0.9,0.1,1.61,1.84,2.4,2.82C301.31,671.58,300.98,671.86,300.66,672.14z"/>
	<path class="st0" d="M463.24,404.8c0.71-0.21,1.66-0.82,2.08-0.56c2.55,1.55,4.99,3.3,7.46,4.99c2.72,2.56,5.43,5.11,8.15,7.67
		c-0.34,0.42-0.68,0.85-1.02,1.27C474.36,413.72,468.8,409.26,463.24,404.8z"/>
	<path class="st0" d="M475.29,420.33c-4.24-1.16-6.86-4.85-10.33-7.21c0.24-0.38,0.47-0.76,0.71-1.14
		c3.41,2.33,6.82,4.65,10.23,6.98C475.7,419.41,475.49,419.87,475.29,420.33z"/>
	<path class="st0" d="M460.18,409.17c-0.73-0.92-1.47-1.84-2.2-2.76c0.2-0.26,0.39-0.52,0.59-0.78c1.03,0.6,2.07,1.2,3.1,1.8
		c0.79,1.09,1.58,2.17,2.37,3.26c-0.39,0.12-0.78,0.23-1.17,0.35C461.97,410.42,461.08,409.79,460.18,409.17z"/>
	<path class="st0" d="M464.06,410.73c0.31,0.54,0.61,1.07,0.92,1.61c-0.41-0.18-0.81-0.36-1.22-0.54
		C463.86,411.44,463.96,411.08,464.06,410.73z"/>
	<path class="st0" d="M463.76,411.79c-0.3-0.25-0.59-0.51-0.89-0.76c0.39-0.12,0.78-0.23,1.17-0.35c0,0,0.02,0.04,0.02,0.04
		C463.96,411.08,463.86,411.44,463.76,411.79z"/>
	<path class="st0" d="M420.29,612.79c0,3.75-0.09,6.89,0.03,10.01c0.12,3.26-1.89,3.87-4.23,3.08c-3.29-1.11-6.4-2.77-10.64-4.65
		C410.91,618.12,415.33,615.61,420.29,612.79z"/>
	<path class="st0" d="M363.13,542.88c1.86,5.51,4.51,10.9,5.36,16.57c0.87,5.86-0.4,11.9-3.45,17.31
		c-8.03-3.85-11.23-10.58-11.97-18.76c-0.43-4.77-0.67-9.57-0.71-14.36c-0.01-1.51,0.68-3.16,1.44-4.53
		c3.6-6.44,7.46-12.73,10.92-19.24c0.75-1.41,0.21-3.49,0.26-5.27c-0.31-0.26-0.61-0.52-0.92-0.78c-0.2,0.8-0.4,1.61-0.6,2.41
		c-4.45,6.72-8.89,13.44-13.42,20.3c-2.7-2.15-5.33-4.24-7.96-6.33c-0.46,0.44-0.91,0.87-1.37,1.31c1.32,1.62,2.44,3.48,4,4.81
		c3.4,2.9,4.54,6.46,4.54,10.83c0.01,6.99,0.76,13.99,0.49,20.96c-0.09,2.2-2.44,4.3-4.39,7.48c-4.38-4.69-7.84-8.55-11.49-12.2
		c-0.86-0.86-2.4-1.04-3.62-1.53c0.44,1.12,0.67,2.39,1.36,3.32c2.03,2.75,3.96,5.69,6.46,7.97c4.17,3.8,3.7,7.95,1.49,12.18
		c-5.45,10.42-10.6,21.07-17.05,30.85c-1.69,2.56-8.07,3.79-11.68,2.96c-8.07-1.86-11.48-8.63-12.26-16.49
		c-0.64-6.54-0.79-13.13-1.15-19.69c-0.03-7.14-0.06-14.28-0.09-21.42c0.38-11.77,0.57-23.56,1.27-35.31c0.18-3.04,1.95-6,3.04-8.98
		c0.41-1.12,1.58-2.36,1.34-3.27c-1.33-5.04,1.13-8.18,4.59-11.32c5.18-4.71,7.55-10.8,8.11-17.81c0.47-5.9,2.66-7.6,8.35-8.97
		c1.87-0.45,3.65-2.06,5.06-3.53c3.12-3.27,6.2-3.15,8.57,0.68c0.65,1.04,1.15,2.17,1.73,3.26c2.34,4.42,10.54,5.49,13.9,1.82
		c1.94-2.12,0.82-9.2-2.5-11.51c-3.62-2.52-5.24-5.28-4.87-9.78c0.2-2.41-1.01-5-1.83-7.41c-0.91-2.66-2.86-4.05-5.74-4.55
		c-2.93-0.51-6.11-7.31-4.06-9.16c3.39-3.07,2.89-7.19,4.36-10.74c0.74-1.8,2.26-3.27,3.42-4.89c0.49,0.17,0.97,0.34,1.46,0.51
		c0.64,1.45,1.25,2.9,1.91,4.34c1.68,3.64,9.6,6.79,13.21,5.28c1.85-0.77,2.61-4.62,1.58-8.98c2.06,0.1,4.04,0.4,5.96,0.22
		c1.12-0.11,2.16-1,3.23-1.54c1.63-0.2,3.28-0.69,4.87-0.54c2.69,0.25,5.34,1.3,8.01,1.33c14.34,0.19,28.68,0.1,43.02,0.28
		c4.34,0.06,9.14-0.36,12.9,1.31c5.48,2.44,10.51,2.17,15.88,0.8c2.44,0.29,4.87,0.59,7.38,0.89c2.73,8.93,1.73,17.9,0.34,26.57
		c-3,18.62-6.81,37.1-10.5,55.6c-0.49,2.46-2.1,4.73-3.33,7.01c-3.5,6.49-7.06,12.94-10.66,19.5c-5.04-1.22-10.11-1.95-14.8-3.7
		c-7.12-2.66-12.58-7.37-14.84-15.07c-1.58-5.36-3.31-10.67-4.97-16c-0.43-0.91-0.86-1.82-1.29-2.73c-0.25,0.09-0.49,0.18-0.74,0.27
		c0,1.17,0,2.33,0,3.5c-1.15,10.6-2.35,21.19-3.44,31.79c-1.13,11.03-7.41,22.33-15.99,28.57c-5.96-2.41-11.02-5.74-13.67-12.01
		c-0.81-1.92-2.48-3.48-3.76-5.2c-0.33-0.02-0.66-0.04-0.99-0.07C362.92,542.3,363.02,542.59,363.13,542.88z M397.26,483.48
		c2.6,2.26,5.5,4.59,8.19,7.14c4.7,4.45,5.24,10.66,6.61,16.47c2.18,9.24,6.98,15.81,16.98,17.42c1.88,0.3,3.71,0.97,5.71,1.51
		c0.41-0.85,0.84-1.68,1.21-2.54c7.76-17.99,14.3-36.36,18.25-55.62c2.56-12.49,5.5-24.89,2.89-38.08
		c-8.09-0.43-16.42,0.47-24.08-3.22c-0.33-0.16-0.81,0.01-1.23,0c-18.11-0.55-36.21-1.3-54.32-1.49c-3.49-0.04-7.02,2.02-10.5,3.22
		c-0.35,0.12-0.48,0.93-0.67,1.43c-2.14,5.52-4.69,7.24-10.43,6.25c-4.37-0.75-8.64-2.11-13.03-3.22c-2.24,4.4-1.82,6.61,2.03,9.37
		c3.76,2.69,5.99,6.38,6.34,10.93c0.32,4.05,1.56,7.44,4.88,9.89c4.52,3.36,4.4,8.33,4.11,13.06c-0.13,2.07-1.4,4.67-3.01,5.94
		c-8.03,6.3-17.71,4.65-23.38-3.62c-0.21-0.3-0.58-0.48-0.74-0.62c-3.31,1.72-6.35,3.61-9.63,4.92c-2.29,0.91-3.36,2.06-2.94,4.5
		c0.91,5.28-0.8,9.6-4.69,13.22c-1.19,1.11-2,2.63-3.15,3.8c-3.3,3.38-5.32,7.03-4.3,12.07c0.28,1.38-0.91,3.39-1.97,4.63
		c-2.37,2.76-3.18,5.69-3.08,9.36c0.65,22.64,1.42,45.3,1.36,67.94c-0.02,6.48,2.56,10.48,6.95,14.19c3.13,2.65,7.38,1.65,9.12-2.07
		c4.35-9.3,8.67-18.63,13.19-27.85c1.01-2.06,0.92-3.4-0.55-5.11c-3.65-4.27-7.44-8.49-10.56-13.14c-2.15-3.2-3.28-7.08-4.87-10.66
		c11.69-1.3,18.66,5.67,26.14,11.84c0-3.81-0.28-6.97,0.05-10.06c1-9.21-2.97-16.37-8.8-22.91c-1.75-1.97-3.26-4.16-4.87-6.24
		c0.21-0.42,0.42-0.84,0.63-1.26c6.33,0.87,12.66,1.75,19.31,2.67c4.92-7.88,10.88-16.21,8.98-27.65c3,2.33,5.52,4.82,7.69,7.59
		c4.4,5.61,4.4,13.05,0.24,18.75c-2.09,2.86-4.15,5.74-5.65,7.83c6.18,6.45,12.09,12.62,18.15,18.94c4.41-4.79,8.43-9.07,9.33-15.79
		C391.51,519.56,394.42,502.02,397.26,483.48z M362.29,568.66c2.46-8.99,0.37-18.29-4.69-21.88
		C355.21,554.79,358.43,561.57,362.29,568.66z M328.75,561.13c0.16-0.3,0.33-0.6,0.49-0.9c-0.79-0.43-1.58-0.85-2.37-1.28
		c-0.14,0.26-0.29,0.53-0.43,0.79C327.21,560.21,327.98,560.67,328.75,561.13z M341.59,531.04c-0.54-0.43-0.79-0.7-1.1-0.83
		c-0.15-0.06-0.42,0.14-0.63,0.23c0.15,0.28,0.24,0.7,0.48,0.81C340.58,531.35,340.96,531.16,341.59,531.04z"/>
	<path class="st0" d="M361.26,397.51c-0.8-1.63-1.6-3.26-2.85-5.79c4.73-1.17,8.73-2.21,12.77-3.1c0.69-0.15,1.59,0.2,2.27,0.56
		c2.26,1.19,8.67,11.1,8.99,13.65c0.41,3.26-0.6,5.35-4.22,5.48c-2.05,0.08-4.21,0.59-6.13,0.12c-1.74-0.43-4.26-1.67-4.6-3.02
		c-0.93-3.69-3.34-5.81-6.09-7.85C361.41,397.54,361.26,397.51,361.26,397.51z"/>
	<path class="st0" d="M342.75,415.23c0-3.85,0-7.68,0-11.48c12.4-1.11,19.95,2.91,19.81,10.18
		C356.55,417.89,350.15,416.54,342.75,415.23z"/>
	<path class="st0" d="M345.57,401.7c-4.05,0-6.64-1.89-6.33-4.77c0.3-2.74,4.3-6.11,7.69-4.9c2.04,0.73,4.19,1.17,6.28,1.78
		c3.07,0.89,2.76,3.09,0.97,4.49c-2.38,1.86-5.33,2.98-8.04,4.41C345.95,402.37,345.76,402.04,345.57,401.7z"/>
	<path class="st0" d="M336.27,456.08c-2.44-4.72-1.92-7.43,1.51-7.32c3.75,0.12,3.34,4.02,4.44,6.19c0.73,1.44-0.18,4.47-3.49,3.87
		C337.91,457.91,337.09,456.99,336.27,456.08z"/>
	<path class="st0" d="M289.13,474.04c3.02-3.89,6.84-2.67,10.77-1.94c2.49,0.46,5.16-0.12,7.71,0.18c2.79,0.32,5.52,1.1,8.28,1.68
		c-0.22,0.26-0.43,0.53-0.65,0.79c-8.54-0.09-17.1-1.86-25.62,0.21C289.46,474.65,289.29,474.35,289.13,474.04z"/>
	<path class="st0" d="M388.04,397.61c0,0,0.12,0.01,0.12,0.01c-2.17-1.97-4.47-3.83-6.43-5.99c-0.62-0.69-0.34-2.19-0.54-3.81
		C390.63,392.52,391.02,393.14,388.04,397.61z"/>
	<path class="st0" d="M338.44,461.67c0.82,1.53,1.64,3.07,2.59,4.84c-3.54,1.43-4.47-1.62-5.85-3.14c-1.21-1.33-1.79-3.32-2.27-5.12
		c-0.12-0.44,1.27-1.28,1.97-1.94C336.07,458.1,337.25,459.88,338.44,461.67z"/>
	<path class="st0" d="M343.65,467.3c5.31,1.75,5.8,4.87,4.99,9.29c-1.42-1.12-3.27-1.98-4.13-3.43
		C343.71,471.8,343.96,469.82,343.65,467.3z"/>
	<path class="st0" d="M357.89,426.61c-2.23-0.16-4.14,0.28-4.94-0.47c-1.53-1.43-2.42-3.53-3.95-5.93
		C354.8,419.19,356.09,422.25,357.89,426.61z"/>
	<path class="st0" d="M361.26,397.51c0,0,0.15,0.04,0.15,0.04c0,2.07,0,4.13,0,6.45c-3.06,1.16-3.27-1.74-3.74-3.43
		c-0.8-2.86,1.31-2.35,3.03-2.12C360.84,398.47,361.07,397.84,361.26,397.51z"/>
	<path class="st0" d="M317.29,475.03c-0.27,0.15-0.54,0.31-0.81,0.46c-0.41-0.25-0.82-0.49-1.23-0.74c0.22-0.26,0.43-0.53,0.65-0.79
		C316.36,474.31,316.82,474.67,317.29,475.03z"/>
	<path class="st0" d="M324.35,439.61c0,0,0.01-0.11,0.01-0.11c-0.15,0.31-0.3,0.63-0.45,0.94c0,0-0.01,0-0.01,0
		C324.05,440.15,324.2,439.88,324.35,439.61z"/>
	<path class="st0" d="M328.96,440.32c0.15,0.16,0.31,0.32,0.46,0.48c-0.32,0.01-0.64,0.02-0.96,0.03
		C328.61,440.66,328.78,440.49,328.96,440.32z"/>
	<path class="st0" d="M288.31,474.87c0.27-0.28,0.55-0.55,0.82-0.83c0.16,0.3,0.32,0.61,0.49,0.91c-0.27,0.25-0.54,0.5-0.81,0.75
		C288.64,475.43,288.48,475.15,288.31,474.87z"/>
	<path class="st0" d="M288.81,475.71c-0.13,0.25-0.32,0.43-0.57,0.55c-0.27-0.21-0.54-0.42-0.81-0.62c0.29-0.26,0.59-0.51,0.88-0.77
		C288.48,475.15,288.64,475.43,288.81,475.71z"/>
	<path class="st0" d="M331.36,615.7c0.68-1.18,1.28-2.42,2.06-3.54c6.09-8.69,10.62-18.05,13.19-28.41
		c0.94-3.77,3.02-7.25,4.95-11.71c9.26,9.65,19.83,15.98,32.66,18.18c-0.03,0.33-0.07,0.67-0.1,1c-5.31,3.3-10.85,6.28-15.87,9.98
		c-10.79,7.94-22.84,12.51-35.93,14.66C332,615.81,331.68,615.76,331.36,615.7z M344.9,606.62c8.72-4.6,17.44-9.21,26.38-13.93
		c-6.35-3.49-12.01-6.61-17.37-9.55c-3.24,7.63-6.44,15.15-9.63,22.67c-0.14,0.31-0.28,0.62-0.41,0.93
		C344.21,606.7,344.55,606.66,344.9,606.62z"/>
	<path class="st0" d="M424.18,533.58c3.38,1.34,6.27,2.49,9.61,3.82c-6.29,14.15-14.06,26.92-26.4,36.94
		c-2.19-3.46-4.29-6.76-6.89-10.85c2.21,0,3.75-0.08,5.28,0.01c6.65,0.43,12.07-4.11,11.22-11.66c-0.39-3.5,0.52-5.97,3.09-8.28
		c1.23-1.1,1.98-2.86,2.63-4.45C423.38,537.5,423.64,535.73,424.18,533.58z M419.85,552.88c0.44,0.23,0.88,0.46,1.32,0.69
		c1.52-2.4,3.03-4.81,4.55-7.21c-0.48-0.29-0.95-0.58-1.43-0.87C422.81,547.95,421.33,550.42,419.85,552.88z"/>
	<path class="st0" d="M394.45,559.04c2.93,6.55,5.8,12.96,8.83,19.73c-3.85,2.5-8.13,5.28-12.4,8.05
		C385.06,579.04,387.49,563.58,394.45,559.04z M397.82,576.94c-1.19-2.56-2.25-4.85-3.76-8.09c-0.83,4.06-1.46,7.12-2.29,11.2
		C394.43,578.68,396.06,577.84,397.82,576.94z"/>
	<path class="st0" d="M411.3,536.28c-1.02,0.92-1.92,2.02-3.07,2.72c-1.49,0.9-3.18,1.49-4.78,2.21
		c-2.51-5.84-2.42-10.02,0.57-18.85c2.63,1.89,5.28,3.47,7.46,5.54c0.69,0.66,0.2,2.64,0.14,4c-0.07,1.52-0.25,3.04-0.39,4.57
		C411.22,536.47,411.3,536.28,411.3,536.28z"/>
	<path class="st0" d="M381.34,577.08c-1.1,1-2.2,2-3.35,3.05c-7.32-3.34-8.13-7.25-3.54-17.71c9.85,1.69,12.26,6.83,6.87,14.68
		C381.32,577.09,381.34,577.08,381.34,577.08z M377.28,575.86c3.91-5.16,3.76-5.94-1.5-8.62
		C376.3,570.24,376.71,572.59,377.28,575.86z"/>
	<path class="st0" d="M405.62,561.44c-3.87-6.32,0.09-10.72,2.67-15.8c2.02,3.49,6.97,4.68,5.89,9.88
		C413.18,560.36,408.69,559.59,405.62,561.44z"/>
	<path class="st0" d="M411.3,536.28c0,0-0.08,0.19-0.08,0.19c1.95-1.7,3.89-3.4,6.52-5.7c1.12,1.76,2.87,3.3,3.02,4.98
		c0.47,5.32-4.07,6.57-8.05,8.9C412.19,541.57,411.74,538.93,411.3,536.28z"/>
	<path class="st0" d="M400.2,541.37c3.02,5.56,2.04,8.67-4.06,13.59C393.23,550.56,393.24,550.54,400.2,541.37z"/>
	<path class="st0" d="M298.72,616.17c-5.51,0.53-10.37,1-16.26,1.57c0.79-1.56,1.23-3.29,1.75-3.32c4.33-0.23,8.67-0.17,13.01-0.1
		C297.54,614.32,297.84,615.05,298.72,616.17z"/>
	<path class="st0" d="M454.08,422.45c-2.15,0-4.29,0-6.44,0c-0.22-0.33-0.43-0.66-0.65-1c1.8-1.33,3.6-2.65,5.39-3.98
		c1.36,1.47,2.71,2.94,4.22,4.57C455.61,422.2,454.84,422.32,454.08,422.45z"/>
</g>
</svg>
