<?xml version="1.0" encoding="utf-8"?>
<!-- Generator: Adobe Illustrator 23.0.0, SVG Export Plug-In . SVG Version: 6.00 Build 0)  -->
<svg version="1.1" id="Capa_1" xmlns="http://www.w3.org/2000/svg" xmlns:xlink="http://www.w3.org/1999/xlink" x="0px" y="0px"
	 viewBox="0 0 595.3 841.9" style="enable-background:new 0 0 595.3 841.9;" xml:space="preserve">
<style type="text/css">
	.st0{fill:#A4793C;}
</style>
<g>
	<g>
		<path class="st0" d="M438.8,593.6c11.1-10.9,22.4-21.4,33-32.7c4.6-4.9,7.9-11.1,11.6-16.9c1.2-1.9,2.3-2.8,4.4-2.2
			c4.1,1.2,7.4-0.7,10.5-2.8c3.8-2.5,5.1-7.1,3.2-12.6c-1.1-3.3-0.7-5.6,1.3-8.5c11.8-16.7,19.3-35.6,26.5-54.6
			c5.2-13.7,10.2-27.5,14.2-41.5c2.1-7.3,1.9-15.2,2.9-22.7c2.5-18.6,1.6-37.4,1.3-56c-0.1-4.8,0.8-8.1,5.9-9.5
			c-0.1,0,0.2,0.1,0.4,0.1c9.7,3.1,8.9,11.9,10.7,19.4c1.8,7.9,4.3,15.5,10.2,21.5c1.3,1.3,2.3,3.4,2.4,5.3
			c1.1,17.2,2.8,34.4,2.7,51.6c0,13.5-4.5,26.4-9.8,38.9c-5.4,12.6-10.5,25.3-16.4,37.7c-2.5,5.3-6.3,10-10,14.6
			c-13.2,16.7-26.5,33.2-39.8,49.7c-0.7,0.9-2.5,1.6-3.7,1.5c-4.2-0.5-7.1,0.7-9.3,4.6c-4.3,7.9-10.7,14.1-18,19.7
			c-4.5-5-9.5-3.1-14.5-1.3c-2.6,1-5.2,2.3-7.9,2.7C445.2,600.6,441.3,597.7,438.8,593.6z"/>
		<path class="st0" d="M339.6,632.3c-2.6,3.9-5.2,7.7-7.7,11.6c-0.3-0.1-0.6-0.2-0.8-0.3c0-10.8,0-21.7,0-32.5c0-0.7,0-1.5,0-2.2
			c0.1-3.2,0.2-6.5,0.2-9.7c0.1-1.2,0.1-2.3,0.1-3.5c1.3-31.7,2.8-63.4,3.9-95.2c0.2-4.9,1.6-8.6,4.7-12.3
			c12.8-15,23.8-31.2,31.9-49.2c2.5-5.4,5.9-10.5,7.2-16.1c4.4-19.1,0.4-37.6-6.2-55.6c-1.5-4.1-1.3-6.3,2.3-8.9
			c4.6-3.3,9.5-6.9,12.9-11.4c5.5-7.3,5.9-16.5,7.3-25.2c0.6-3.5,1-7.4,0.1-10.8c-3.1-11.3-7.2-22.3-14.9-31.4
			c-4.2-4.9-6.4-10.3-7-16.6c-0.4-3.8-1.5-7.5-2.3-11.3c1,0.1,2,0.2,3,0.3c0.6,0.1,1.2,0.3,1.7,0.4l0,0c0.8,0.5,1.6,1.1,2.4,1.6l0,0
			c1.1,0.5,2.2,1.1,3.2,1.6l0,0c-0.1,0.4-0.2,0.9-0.3,1.3c0.7,0.1,1.3,0.2,2,0.3l0,0c1.4,0.8,2.7,1.6,4,2.4l0,0c0,0.4-0.3,1-0.1,1.2
			c3,3,6,6.1,9.1,9c1.7,1.6,3.7,2.9,5.6,4.4l0,0c0.2,0.6,0.2,1.3,0.6,1.9c5.2,8.5,10.5,17,15.8,25.5c0.7,1.1,1.5,2.2,2.2,3.3l0,0
			c0.1,1.6,0.1,3.2,0.4,4.8c0.9,4.6,2.1,9.1,2.8,13.7c2.2,14.1,2.6,28.2,0.8,42.4c-0.2,1.4,0.4,3,0.7,4.5c6.8,8,13.7,16,20.4,24
			c-7.2,5.5-14.5,10.3-20.7,16.1c-20.6,19.3-40.6,39.3-56.4,63c-3.5,5.3-6.9,11.1-8.7,17.2c-8.1,27.5-15.8,55.1-17.4,83.9
			C341.5,593.9,340.5,613.1,339.6,632.3z"/>
		<path class="st0" d="M263.7,320.4c0.4,0,0.8,0.2,1,0.1c7.5-3.8,15.1-7.5,23.1-11.6c0-29,0-58.9,0-89.6c6.1-0.3,12-0.5,18.1-0.8
			c0.1,1.9,0.2,3,0.3,4c0.1,28.4,0.1,56.8,0.2,85.2c0,1.5,0.4,3.1,0.7,4.6c14.4,8.2,28.5,17,40.4,28.9c7.8-5.4,16-9.8,20.2-18.6
			c-10.5-16.1-22.5-31.2-29.5-49.3c-3.2-17.5-3-35.2-3.1-53.2c23.2,6.9,44.1,17.6,64.4,30.5c-4.7,2.6-9.3,3.6-14.2,1.9v0.1
			c-4.8-3.3-9.5-6.6-14.3-9.7c-0.3-0.2-1.2,0.6-1.8,0.9l0,0c-0.3-0.9-0.7-1.7-1-2.6c-0.4,0.2-0.8,0.3-1.2,0.5
			c0.1,2.3,0.2,4.6,0.4,6.9c0,0.5,0,1.1,0,1.6c0.9,8.5,1.9,16.9,2.8,25.4c0.5-0.1,1-0.1,1.6-0.2c-0.7-6.8-1.5-13.6-2.2-20.4
			c0.3,0,0.6,0.1,0.9,0.1c0.3,1.1,0.7,2.3,0.9,3.4c1,9,2,17.9,9.1,24.6c1.4,1.4,2.3,3.3,3.4,5c6.6,11.2,11.2,22.9,9.1,36.3
			c-0.2,1.4-0.7,2.7-1,4.1c-0.4-0.1-0.8-0.1-1.1-0.2c0-7.9,0.9-15.9-2.3-23.6c-4.3-10.3-9.3-19-11.5-19.5c3.2,7,6.9,14.3,10,21.9
			c3.3,8,3,16.3,0.6,24.5c-0.6,2.1-1.2,4.6-2.7,6.1c-6.1,6-12.4,11.9-18.9,17.6c-5.6,4.9-5.7,4.7-3.2,11.5
			c6.3,17.4,10.2,35.2,6.5,53.7c-1.7,8.4-4.4,16.5-6.6,24.8c-1.2,2.1-2.4,4.2-3.6,6.2c-7.8,12.9-16.1,25.3-28.9,34
			c-0.8,0.5-1.3,2-1.3,3c-0.2,6.7-0.3,13.4-0.4,20.1c0,0.2,0,0.4,0,0.6c-0.3,16.5-0.7,33-1,49.5c-0.1,4.9-0.1,4.4-5,3.7
			c-2.5-0.4-5.5,0.6-7.7,1.9c-4.3,2.6-8.4,1.7-12.7,0.6c-2.5-2.1-5-4.2-7.5-6.3c-1.1-0.9-2.2-1.9-3.4-3c-1.6,1.9-3.6,3.6-4.9,5.7
			c-2,3.3-4.5,4.5-8.3,3.2c-2.5-0.9-5.3-0.9-8.4-1.5c0-1.5,0-2.9,0-4.4c-0.3-23.5-0.6-47.1-0.9-70.6c0-1.3-0.4-2.6-0.5-3.9
			c-3.6-3.2-7-6.6-10.7-9.7c-8.4-7.2-15.7-15.4-20.1-25.4c-6-13.5-9.8-27.8-10.4-42.8c-0.5-12.1-0.5-24.1,4.6-35.6
			c4.8-10.8,4.5-11-4.3-18.9c-7.1-6.4-12.4-14.3-13.8-23.6c-2.4-15.3-0.6-30.3,9.1-43.4c2.8-3.7,6.5-7.8,6.9-12
			c1-11.2,0.3-22.6,0.3-35c-5.2,2.9-9.9,5.4-14.5,8c-0.1,0,0.2,0.6,0.3,1c-1.6,1-3.2,2-4.8,3c-3.1,1.7-6.5,3-9.4,5.1
			c-13.5,10.1-23,23.7-31.1,38.2c-3.2,5.7-6.4,11.7-8,18c-4.3,16.8-3.6,33.9-1.6,50.9c0.4,3.5-0.5,5.9-3.2,8.3
			c-8.9,7.9-17.5,16.2-26.5,24.6c21.5,14.4,40.9,30.2,57,49.9c1.6,2.1,3.2,4.2,4.7,6.2c-9.5,3.8-18.9,3.9-28.5,2.4
			c-3.6-0.6-5.8,1-7.8,4.1c-3.2,4.9-7.8,8.3-13.5,10.1c-3.7,1.2-6.3-0.1-7.6-3.2c-2.4-5.5-4.7-11.1-6.3-16.9
			c-3.3-11.9-7.8-23.6-7.8-36.1c0.1-11.7,0.6-23.4,1.8-34.9c2.5-24,8.2-47.3,19.6-68.6c6.5-12.2,15.3-23.4,24-34.2
			c15.3-18.9,36.6-29.3,57.6-40.4c10.6-5.6,21.4-9.7,32.7-13c0.6-0.2,1.3-0.3,1.9-0.5c2.4,17.9,2.1,35.6-3.1,52.8
			c-5.3,17.4-13.9,33-26.2,46.7c-1.4,1.5-4.8,3.3-1.3,6.2l0,0c0,0.2,0.1,0.3,0.3,0.3c5.1,5,10.2,10,15.5,15.1
			c3.9-4.7,7.2-8.7,10.5-12.7c2.4-2.2,4.8-4.4,7.2-6.5l0,0C262.1,321.4,263,320.9,263.7,320.4L263.7,320.4z M303.3,314.5
			c0-31.1,0-62,0-93.5c-2.6,0-5-0.1-7.4,0c-3.9,0.2-5.6,1.7-5.5,6.2c0.4,26.8,0.4,53.6,0.7,80.4c0.1,3.6-1.3,4.8-4.4,5.8
			c-14.4,4.5-27,11.8-36.7,23.7c-2,2.5-4.4,4.6-7.2,7.6c-6.8-7.5-13.3-14.7-20.2-22.3c13.7-11.9,22.1-28.1,28.4-45.4
			c6.3-17.4,7.9-35.4,5.2-54.2c-4.1,1.2-7.9,1.9-11.5,3.5c-7.4,3.3-14.8,6.8-22,10.6c-11.4,6-23,11.7-33.8,18.6
			c-6.5,4.1-11.6,10.4-17.2,15.7c-12.9,12-22.5,26.6-29.5,42.4c-9.1,20.3-15.2,41.6-17.3,63.9c-1.7,18.4-2.3,36.8,2.3,55
			c2,7.9,4.3,15.8,6.8,23.6c1.1,3.5,3.2,6.6,4.8,9.9c6.1-1.9,11.1-4.6,13.9-9.5c2.8-5,6.4-6.7,11.7-5.8c1.3,0.2,2.7,0.2,4,0.4
			c6.2,1,12.2,0.6,18.5-2c-15.8-22.9-38.7-37.5-61.1-53.4c10.1-9.4,20-18.7,30-27.8c1.7-1.6,2.4-3.1,2.2-5.5
			c-1.5-14.6-2.9-29.2-0.3-43.8c0.7-4,1.1-8.1,2.7-11.7c5.7-12.9,12.4-25.3,21.5-36.3c10.9-13.4,24.5-23.2,39.5-31.3
			c3-1.6,6.6-2,11.1-3.2c0,11.6,0.1,22.6-0.1,33.6c-0.1,4.8-2.5,8.8-5,12.9c-4,6.5-8.1,13.2-10.3,20.4c-3.2,10.2-3.9,20.9,0.5,31.2
			c3.8,9,9.8,16.3,17.7,22c2.2,1.6,2.9,2.9,1.8,5.6c-2.2,5.6-4.3,11.3-5.8,17.2c-3.2,12.6-2.3,25.4-0.8,38.1
			c2.2,18.3,8.4,35,21.1,48.7c4.9,5.3,10.8,9.7,16.4,14.2c2,1.7,3,3.3,3,6c0.3,23.6,0.7,47.1,1.2,70.7c0,1.6,0.9,4.2,1.8,4.4
			c3.1,0.7,6.6,3.9,9.6-0.7c2.1-3.2,4.9-6,7.2-8.9c3.8,3.5,7.2,6.9,10.7,10c2.3,2,9.9,2.6,11.6,0.8c3.1-3.3,6.7-3.9,11.2-3
			c0-1.3,0-2.4,0-3.4c0.3-22.5,0.5-45,0.9-67.4c0-1.8,1.2-4.2,2.6-5.2c14.6-10.4,23.8-25.2,31.8-40.5c8.6-16.5,8.9-34.5,5.7-52.4
			c-1.8-9.7-5.2-19.2-7.6-28.8c-0.3-1.3,0.3-3.4,1.3-4.3c3.9-3.7,8.3-6.9,12.3-10.5c3.7-3.3,8-6.4,10.5-10.5c5.5-9,5.4-19.2,2-28.8
			c-2.4-6.9-6.2-13.3-10.1-19.6c-4.1-6.7-7.8-13.5-8.3-21.5c-0.6-9.4-1.3-18.9-2-28.8c3.7,1.1,6.6,2,9.4,2.9
			c0.2-0.5,0.3-1.1,0.5-1.6c-11.3-5.8-22.5-11.5-35.3-15c0.4,11.3,1.1,21.9,1.2,32.5c0.2,10.6,2.3,20.7,7.8,29.6
			c6.5,10.6,13.8,20.8,20.8,31.2c3.1,4.7,2.8,6.5-0.4,11.4c-5,7.6-13.1,10.8-20,15.9C334,332.2,319.6,321.6,303.3,314.5z
			 M393.5,249.7c-6.8-3.8-13.3-7.4-19.8-11.1C375.5,243.8,389.5,251.3,393.5,249.7z M371.9,275.4c-0.4,0.2-0.9,0.5-1.3,0.7
			c1.4,2.3,2.8,4.7,4.3,7c0.3-0.2,0.7-0.4,1-0.5C374.5,280.2,373.2,277.8,371.9,275.4z"/>
		<path class="st0" d="M499.2,491.4c-14.8,33.6-38.9,59.2-67.3,81.8c-2-2.8-3.9-5.5-5.8-8.3c-4.5-6.8-8.7-13.9-13.6-20.5
			c-2.8-3.6-2.2-6.3,0.6-8.9c5.5-5.2,9.7-11.7,17.6-14.3c2.9-1,4.9-5.2,6.9-8.3c6.7-10.4,13.2-20.9,19.6-31.4
			c1.4-2.3,2.7-3.4,5.4-2.1c2.3,1.1,4.9,1.6,7.1,2.7c2.5,1.3,5,2.2,5.6,6c0.6,3.9,4.6,4.4,8.4,3.1c3.5-1.2,7.5-0.9,11.2-1.1
			C496.2,490.1,497.4,490.8,499.2,491.4z"/>
		<path class="st0" d="M44.9,532c4,1,7.3,1.8,10.6,2.6c0.3-0.4,0.6-0.7,0.7-1c1.8-6.5,7.8-9.1,12.7-12.4c2.8-1.8,6.8-1.9,10.3-2.6
			c0.8-0.1,1.9,0.7,2.7,1.3c1.3,1.2,2.6,2.4,3.6,3.9c12.4,18.7,28.4,34.4,42.8,51.4c0.5,0.6,1,1.2,0.9,1.1
			c-2.8,4.8-5.2,9.2-7.8,13.4c-0.5,0.9-1.7,1.3-2.4,2.1c-2.1,2.4-4.6,4.6-5.9,7.3c-2.6,5.2-5.9,6.4-10.6,2.7
			c-2.8-2.2-5.4-4.5-6.4-8.5c-0.7-2.6-3-5-5.1-7c-2.9-2.6-6.3-4.6-9.4-6.9c-0.4-0.3-0.9-0.8-1.4-0.8c-11.9-0.7-17.1-10.3-22.5-18.5
			c-5.1-7.9-8.3-17.1-12.3-25.8C44.9,533.5,45,532.5,44.9,532z"/>
		<path class="st0" d="M265.4,111.5c-0.7,2-1.1,4.2-2.2,5.9c-2.4,3.8-4.5,7.4-4.2,12.2c0.2,3.6-4.2,7.9-7.7,8.4
			c-24.3,3.4-46.8,12-67.9,24.2c-15,8.7-29.5,18.3-42.3,30.1c-1.4,1.2-2.5,2.8-4.9,1.5c-0.5-0.3-2.9,1.3-3.2,2.3
			c-0.8,2.9-2.5,4.1-6.2,3.7c1.4-2,2.6-4.1,4.3-5.8c2.9-2.9,4.2-8,3-12c-0.9-2.9-1.3-5.9-1.7-8.9c-0.1-0.8,0.5-2,1.2-2.6
			c26.8-24.2,57.6-41.8,92.2-52.1c12.4-3.7,25.4-5.4,38.1-8.1C264.5,110.6,264.9,111.1,265.4,111.5z"/>
		<path class="st0" d="M348.3,613.9c1.1-7.3,2.2-14.3,3.3-21.3c1.2-8,2.2-16,3.6-23.9c0.2-1,1.4-2.4,2.5-2.8
			c14.7-4.6,26.6-8.4,44.6-21.3c10.4,9.4,17.2,21.4,24.9,33C403.5,595,377.2,606.5,348.3,613.9z"/>
		<path class="st0" d="M512.9,259.4c-5.5,2.1-11.1,4.4-16.9,6.1c-1.6,0.5-3.8-0.9-6.1-1.4c0.2,6.8-6,8.6-10.6,12.8
			c-8.9-18.6-22.8-32.2-39.1-44.2c0.9-1.6,1.4-3.1,2.4-4.3c7.2-7.9,12-17.3,16.7-26.7c1-2,1-4.5,1.6-7.5
			C484.4,211.3,503.5,231.4,512.9,259.4z"/>
		<path class="st0" d="M257.2,645.2c0,0.3,0.1,0.5,0.1,0.8c1,10.8,2.1,21.7,3.1,33c-4.7-3.2-7.4-6.6-8.1-12.3
			c-4.6-37.1-8.8-74.3-14.5-111.2c-4.3-27.2-11.4-53.9-25-78.4c-6.6-12-14.6-23.2-24-33.2c-6.9-7.5-13.4-15.4-20.7-22.4
			c-9.1-8.7-19-16.6-29.6-25.7c5.6,1,10.1-0.5,14.7,2.7c26.9,18.8,48.8,42.5,66.6,69.8c6.6,10.1,10.5,21.9,15.6,33
			c0.8,3.3,1.5,6.6,2.5,9.9c0.2,0.5,1.5,0.7,2.3,1l0,0c-0.6,0.3-1.6,0.7-1.6,0.9c0.4,2.2,1,4.4,1.6,6.5c0,0.1,1-0.1,1.6-0.1
			c0,0.3,0,0.6,0,0.8c-0.4,0.4-1.3,0.8-1.3,1.1c0.8,4.4,1.7,8.8,2.6,13.2c0.1,0.8,0.2,1.5,0.3,2.3c0.5,3,1,5.9,1.6,8.9
			c0.1,0.6,0.2,1.1,0.2,1.7c0.2,1.1,0.4,2.1,0.6,3.2c0.1,0.6,0.2,1.1,0.2,1.7c0.9,5.4,1.8,10.7,2.8,16c0.1,0.5,1.1,0.8,1.7,1.2
			c0,0.3,0,0.6,0,0.9c-0.5-0.1-0.9-0.1-1.4-0.2c0.5,2.2,0.9,4.4,1.4,6.6c0,0.3,0,0.5,0,0.8c-0.2,0.6-0.7,1.2-0.6,1.8
			c0.7,7.4,1.6,14.7,2.4,22c0,0.6,0.1,1.1,0.1,1.7C254.2,617.2,255.7,631.2,257.2,645.2z"/>
		<path class="st0" d="M82.8,414.9c-1.4,0.8-2.8,1.7-4.9,2.9c-0.2-7.8-2.9-15,1.2-22.1c0.3-0.6,0.3-2.1,0.1-2.2
			c-3.7-1.2-2.1-4.2-2.2-6.5c-0.8-16,2.5-31.6,5.7-47.1c1-4.9,3.8-9.4,5.7-13.8c5.8,2.3,11.3,4.1,16.5,6.7c3.2,1.6,6,4.2,8.9,6.4
			c0.2,0.2,0.4,0.3,0.7,0.4c6.9,3,6.3,2.9,4.4,10.2c-1.9,7.5-2.6,15.3-3.5,23c-0.8,7.1-0.9,14.2-1.4,21.3c-0.3,4.2-3.2,7.9-7.4,8.6
			c-4.9,0.9-9.6,1.1-13,5.9c-1.5,2.1-5.5,2.4-8.2,3.8C84.3,412.9,83.6,414.1,82.8,414.9C82.7,414.9,82.8,414.9,82.8,414.9z"/>
		<path class="st0" d="M211.1,232.7c-7.5-12.1-14.8-23.7-22.3-35.7c21.6-13.3,45.5-21.5,70.5-26c0,14.4,0,29.2,0,44.4
			c-6.9,0.2-13,5.3-20.2,1C232,225.4,220.7,227.2,211.1,232.7z"/>
		<path class="st0" d="M130.3,568.5c-2.9-3.5-6.4-6.7-8.7-10.6c-6-10.4-16.7-16.3-23.5-25.8c-4.1-5.8-8-11.7-12.4-18.1
			c3.7-1.4,6.6-2.5,9.4-3.6c7.2-2.9,14.6-5.5,21.6-8.8c3.8-1.8,7.3-4.4,10.6-7c2.3-1.8,3.7-1.6,4.5,1c3.8,13.1,13.2,22.2,21.8,31.9
			c3,3.4,2.8,7.8-0.8,11c-0.7,0.6-1.6,1.1-2.1,1.8c-3.9,6.4-7.5,12.9-11.6,19.2c-1.9,3-4.5,5.5-6.8,8.2
			C131.8,567.9,131.1,568.2,130.3,568.5z"/>
		<path class="st0" d="M228.1,675.5c-3.6-0.9-7.4-1.8-11.1-2.8c-9.9-2.6-19.3-6.3-28.2-11.4c-11.6-6.6-23.7-12.4-35.5-18.6
			c-1.1-0.6-2.5-2-2.5-3c0-0.9,1.6-2.1,2.7-2.8c2.3-1.3,4.7-2.6,7.2-3.5c1.6-0.6,3.6-0.4,5.3-0.7c2.6-0.4,5.2-0.8,7.6-1.6
			c0.6-0.2,0.4-2.4,0.6-3.6c0.3-1.7,0-3.9,1-4.8c1.6-1.5,4.3-2,6.1-3.3c3.2-2.4,4.5,0.7,5.9,2.1c8.1,8,19.1,10.6,28.8,15.7
			c3.8,2,7.9,3.5,12,4.8c4.5,1.4,6.8,4.2,7.5,8.8c0.8,5.5,2.6,11,2.9,16.5c0.1,2.3-2.3,5.2-4.2,7
			C232.9,675.3,230.3,675.1,228.1,675.5z"/>
		<path class="st0" d="M268.4,591.8c0-6.4,0-12.9,0-18.5c19.4,0,38.2,0,57.5,0c0,14.8,0,28.7,0,43c-19,2.2-38.1,2.8-57.3,1.4
			C268.6,609,268.5,600.4,268.4,591.8z"/>
		<path class="st0" d="M385.3,252.5L385.3,252.5c0.6,0.7,1.1,1.7,1.9,2.3c7.6,5.7,15.4,11.2,23,17c1.1,0.8,1.8,2.3,2.4,3.6
			c3.4,6.8,7.5,13.4,10,20.6c3.4,9.6,5.7,19.5,8.2,29.3c3.8,14.6,3,29.2-1,43.7l0.1,0.2c0,0.6,0.1,1.2,0.1,1.8
			c7.3,7.2,14.6,14.5,21.9,21.8c0.9,0.9,1.1,2.4,1.6,3.7c-15.6,15.4-31.2,30.8-46.8,46.2c-2.1,2.1-4.1,4.4-6.5,6
			c-10.3,6.5-15.6,17.2-22.8,26.3c-9.5,12.1-14.1,25.8-17,40.8c-6.9,35.6-10.4,71.6-15,107.4c-0.5,4.2-0.4,8.4-4.1,11.5
			c-0.1-0.8-0.3-1.5-0.4-2.2c0.4-7.9,0.7-15.9,1.2-23.8c1.1-15.7,1.3-31.6,3.8-47.1c3.1-19.3,8-38.4,12.2-57.6
			c3.7-16.6,11.3-31.3,22.7-43.9c8.5-9.4,17.3-18.5,25.6-28c10.2-11.7,21.8-21.9,34.5-30.9c2.6-1.8,5.2-3.8,7.9-5.7
			c-1.1-1.3-2-2.3-2.9-3.3c-6.4-7.4-12.8-14.9-19.2-22.3c0.4-6.5,1.2-13.1,1-19.6c-0.4-10.6-1.3-21.1-2.5-31.6
			c-0.5-4.4-2.3-8.7-3.6-13.1c-0.1-0.2-0.9-0.2-1.4-0.4l0,0c0.2-0.6,0.7-1.4,0.6-1.9c-3.7-10.8-10.1-20-17.2-28.8
			c-0.3-0.3-1.3,0-2-0.1l0,0c0.1-0.6,0.6-1.5,0.3-1.7c-3.6-3.8-7.2-7.6-11-11.2c-0.9-0.9-2.6-1.1-3.9-1.6l0,0
			c-1.4-0.8-2.7-1.6-4-2.4l0,0c0.1-0.5,0.1-0.9,0.2-1.4c-0.6-0.1-1.2-0.1-1.8-0.2l0,0c-1.1-0.5-2.2-1.1-3.2-1.6l0,0
			c0-0.6,0-1.6-0.1-1.6c-0.8-0.1-1.5,0-2.3,0l0,0c-0.2-0.6-0.4-1.2-0.5-1.8c-0.8-0.5-1.6-1.1-2.4-1.6c-1.3-1.3-2.6-2.7-3.9-4
			c0-0.5-0.1-1-0.1-1.5l0,0c3.7,2.4,7.3,4.9,11.1,7.1C381.8,251.7,383.6,252,385.3,252.5z"/>
		<path class="st0" d="M46.2,432.2c0.8,4,1.7,8,2.3,12.1c2.2,14.8,6.6,29.1,11.9,43c2.4,6.4,5.1,12.7,7.6,19
			c-5.1,1.4-10.3,7.5-11.4,12.4c-0.4,1.8-1.9,3.4-3.3,5.7c-1.9-2.4-3.8-4.2-5-6.3c-11.4-21.3-19.1-43.8-23.1-67.6
			c-1.5-8.9-2.6-17.7,4.2-25.2c0.9-1,1.2-2.6,1.9-4.2c2.3,1,4.6,1.9,6.7,2.8C40.8,426.7,43.5,429.4,46.2,432.2z"/>
		<path class="st0" d="M204.9,234.8c-11.9,8.6-23.3,17-35.1,25.5c-2.5-1.3-5.3-3.2-8.4-4.2c-1.5-0.5-4.3,0.2-5.3,1.4
			c-4.8,5.3-9.1,5.1-15.6,2c-4.5-2.1-10.1-1.5-12.7-7.1c-0.1-0.3-0.7-0.3-1.1-0.5c-0.3-0.2-0.7-0.4-1.7-1c4.5-5,8.8-10,13.3-14.8
			c0.6-0.6,2.4-1.1,3-0.7c6.2,4.4,10.5-0.5,15.1-3.1c3.8-2.2,7.7-4.3,11.2-6.8c5.1-3.7,10.2-7.4,14.7-11.7c1.4-1.3,0.7-4.8,0.8-7.4
			c0.1-2,0-4,0-7.4c2.2,2.3,4,3.7,5,5.4C193.8,214.5,199.3,224.7,204.9,234.8z"/>
		<path class="st0" d="M535.1,421.1c-5.4,18.4-9.2,36.8-20.5,52.3c-6.5-4-13-7.8-19.2-12c-5.1-3.4-10.7-4.8-16.7-5.2
			c-3.1-0.2-4.7-2.7-3-5.1c6.8-9.2,8.8-20.1,11-30.8c1.3-6.2,2.8-4.7,6.8-3.6c10.4,2.9,20.7,7,31.9,5.7
			C528.4,422,531.4,421.6,535.1,421.1z"/>
		<path class="st0" d="M333.2,170.1c20,1.5,37.8,7.9,55.7,16.8c-6.5,12.3-12.9,24.3-19,36c-6.2-0.1-6.2-4.8-7.9-8
			c-0.3,0.1-0.7,0.1-0.8,0.3c-2.2,4.6-5.7,4.7-9.9,3.1c-5.4-1.9-11-3.5-16.6-5.3C334.2,198.7,333.7,184.6,333.2,170.1z"/>
		<path class="st0" d="M478.8,397.6c0-1.7,0-3.2,0-4.6c0.7-19.9-1.7-39.4-7.9-58.4c-0.8-2.6-0.6-4.5,1-6.7c1.1-1.5,1.5-3.6,2.2-5.3
			c-0.7-0.4-1-0.7-1.2-0.7c-5,1-7.3-1.5-9.3-5.8c-2.7-5.9-6.2-11.5-9.3-17.2c0.3-0.4,0.6-0.8,0.9-1.2c2.9,1.8,6.2,3.3,8.7,5.6
			c6,5.5,11.9,11.2,15.4,18.9c1.9,4.1,4.8,7,10.2,7.2c1.8,0.1,4.2,3.2,5.1,5.4c4.8,11.8,8.2,24.1,7.2,36.8c-0.4,5-4.2,10-7.1,14.5
			c-1.9,2.9-4,5.1-3.1,8.9c0.8,3.4-1.8,3.8-4.2,3.7C484.6,398.7,481.9,398.1,478.8,397.6z"/>
		<path class="st0" d="M440.1,163.6c-3.9-1.1-7.9-1.9-11.7-3.2c-6.1-2-12.1-4.3-18.1-6.6c-4.1-1.6-8-3.5-12.2-4.9
			c-3-1-6.3-1.1-9.4-1.8c-13.4-2.9-26.7-5.8-40.1-8.7c-1.4-0.3-2.9-0.8-4.4-0.8c-3.8,0-5.7-2.3-7.1-5.4c-2.6-5.5-1.8-5.8,1.9-10.5
			c5.5-6.9,11.6-7.9,19.2-4.8c6.6,2.8,13.3,5.5,19.9,8.4c12.2,5.5,24.2,11.6,36.6,16.6c9.3,3.8,16.8,10,24.5,16
			c1.1,0.9,1.4,2.8,2.1,4.3C440.9,162.5,440.5,163,440.1,163.6z"/>
		<path class="st0" d="M106.3,438c4.6-3.7,10.2-1.7,12.2,3.9c3.4,9.7,6.4,19.6,9.4,29.5c0.2,0.8-0.8,2.6-1.6,3
			c-7.2,2.9-14.5,5.5-21.8,8.1c-0.6,0.2-2.1-0.3-2.3-0.8c-1.5-3.9-4.9-3.9-8.1-4.6c-1.3-0.3-3.1-1.7-3.4-3
			c-3.4-11.2-7-22.3-9.3-33.7c-0.6-2.9,2.1-8,4.8-9.7c2.7-1.7,6.1-4.2,10.4-3.1c2.3,0.6,3.6,1.4,4.7,3.5
			C102.5,433.5,104.4,435.5,106.3,438z"/>
		<path class="st0" d="M403,244.2c-7.5-4.3-15.3-8.9-23.1-13.4c-3.4-2-4.2-5.3-2.5-8.8c4.2-8.6,8.4-17.1,12.4-25.8
			c1.3-2.9,1.9-6.1,2.8-9.3c1,0.1,2.1-0.1,2.8,0.3c4.9,2.7,10,5.3,14.6,8.4c4.4,2.9,8.3,6.4,12.6,9.5c2.3,1.7,2.7,3.7,0.9,5.8
			c-3.2,3.7-4.2,7.9-4.1,12.7c0.2,7.7-4.8,12.1-10.6,16C407,240.9,405.2,242.4,403,244.2z"/>
		<path class="st0" d="M108.9,277c3,1.1,6,2.1,8.8,3.3c0.7,0.3,1.1,1.5,1.8,2.1c1.1,0.9,2.3,1.6,3.4,2.4c2.8,1.9,5.6,3.7,8.3,5.8
			c0.5,0.4,0.5,2,0.2,2.9c-0.8,3.2-1.8,6.4-2.7,9.6c-1.4,5.3-0.7,7.8,3.5,11.7c-3.3,7.3-6.6,14.7-10.2,22.6
			c-6.3-3.5-12.2-6.8-18.2-10.1c-0.8-0.4-1.6-1.3-2.4-1.2c-5,0.6-7.6-3.4-11.2-5.5c-0.5-0.3-0.8-1.8-0.5-2.6
			c3.7-12.8,9.4-24.8,16.8-35.9C107.6,280.5,108.2,278.6,108.9,277z"/>
		<path class="st0" d="M270.8,126.4c-0.5-3.6,2.3-4.3,5.5-6.1c1.1,24.3,0.9,47.9,1.3,71.6c0.2,9.7,0.4,19.4,0.6,29.1
			c0,12.6,0,25.3,0,37.9c-0.1,12.8-0.4,25.6-0.4,38.4c0,2.7-0.8,4.2-3.2,5.3c-11.4,5-20.3,13.5-29.1,22c-0.3,0.3-0.2,1-0.3,1.5
			l0.1-0.1c-0.6,0.3-1.1,0.6-1.7,0.8l0.1,0c-0.8-0.4-1.6-0.8-2.4-1.2c-0.1-0.2-0.2-0.3-0.3-0.3c-0.1-0.5-0.3-1.1-0.4-1.6l0,0.1
			c0.4-0.1,0.8-0.1,1.1-0.4c16.9-16.8,26.6-37.6,28.4-60.9c2.2-29,1.5-58.3,2.1-87.5c-0.2-8.1-0.4-16.2-0.6-24.3
			c-0.1-5.7-0.1-11.5-0.3-17.2c0-0.5-1-1-1.6-1.5c0-0.9,0-1.7,0-2.6C271.2,129.5,271.2,129.5,270.8,126.4z"/>
		<path class="st0" d="M162.9,559.5c6.9-7.7,13.5-14.9,20-22.1c9.6,6.2,19.8,12.8,30.7,19.9c-7,11.1-14,22.1-21.1,33.4
			c-11.7-5.7-23.3-10.6-31.5-21.3C162.4,566.2,166.4,563.4,162.9,559.5z"/>
		<path class="st0" d="M269.4,129.3c0,0.9,0,1.7,0,2.6c0.4,6.2,0.7,12.5,1,18.7c0,8.1,0.1,16.3,0.1,24.4c-0.1,9.3-0.2,18.6-0.2,27.9
			c-0.1,22.3-0.4,44.7-5,66.7c-1.8,8.8-3.4,17.9-7.3,25.9c-4.5,9.2-11.3,17.2-17.1,25.8c-0.4,0.6-0.4,1.6-0.6,2.4l0-0.1
			c-3-0.2-5.9-0.3-8.9-0.5c-0.5-0.1-1-0.2-1.6-0.4c0.6-1,1.1-2.2,1.9-3c11.2-11.5,18.4-25.6,23.5-40.4c3.6-10.4,5.6-21.7,6-32.7
			c1.3-34.2,1.2-68.5,2.4-102.8c0.2-5.8,3.6-11.6,5.5-17.3C269.3,127.4,269.3,128.4,269.4,129.3z"/>
		<path class="st0" d="M244,614.2c-11.6-1.7-33.8-11.3-43.9-19.1c5.6-11.4,11.2-22.7,16.6-34.1c1.6-3.4,4-2.6,6.3-1.6
			c4.3,1.8,8.6,3.8,12.8,5.8c0.8,0.4,1.6,1.5,1.7,2.3C239.7,583.1,241.8,598.6,244,614.2z"/>
		<path class="st0" d="M318.8,128.6c0.6,2.2,1.2,4.4,1.8,6.7c0.2,9,0.1,18,0.5,27c1.8,37.5,3.7,75,5.6,112.5
			c0.1,1.8,0.6,3.7,1.4,5.3c7.8,15.6,15.2,31.4,29,43.2c-2.6,1.7-4.9,3.2-7.2,4.7c-6-5.7-11.8-11.2-17.5-16.6
			c-2.5-2.4-5-4.8-7.6-7.1c-0.4-0.4-1.4-0.1-2.1,0l0,0c-0.4-0.9-0.5-2.3-1.2-2.8c-3.3-2.3-4.1-5.3-4.1-9.3
			c0.2-34.6,0.2-69.1,0.3-103.7c0-12.1,0.1-24.2,0-36.3c0-0.9,1.5-3.4-1.6-2.6c0-0.9,0-1.8,0-2.6c2.6,1.3,1.7-1,1.7-1.9
			c0.1-5.3,0-10.7,0-16C318.2,128.8,318.5,128.7,318.8,128.6z"/>
		<path class="st0" d="M260.5,636.3c0-20.9,0.8-41.8-0.1-62.6c-1.1-26.6-3.5-53.2-5.5-79.7c-0.2-2.6,0.4-4.1,3.2-4.3
			c2.6-0.2,5.2-0.6,7.9-0.9c0.3,33,0.6,66,0.9,99.1c0,1.3,0.1,2.7,0.1,4c0.1,8.7,0.1,17.3,0.2,26c0.1,14-0.1,28,0.5,41.9
			c0.3,6.9-1.5,12.9-4.8,18.7c-0.3,0-0.6-0.1-0.8-0.1C261.6,664.3,261,650.3,260.5,636.3z"/>
		<path class="st0" d="M437.7,238.4c13.6,8.4,20.7,21.3,27.2,34.7c-4,4.3-8,8.2-14.5,6.8c-4.9-1-9,0.7-12.3,4.2
			c-3.3,3.5-7,1.9-10.4,0.7c-3.7-1.2-6.5-3.3-6.4-8c0-2.6-0.9-5.3-2.1-7.6c-1.4-2.6-0.9-4.4,0.7-6.5c4.1-5.4,7-11.6,12.9-15.8
			C435,245.2,435.9,241.6,437.7,238.4z"/>
		<path class="st0" d="M278.8,191.8c-0.2-22.1,0.1-44.2-0.8-66.2c-0.2-5.8,1.9-9.9,4.3-14.4c0.4-0.7,1.5-1.1,2.2-1.7
			c0.4,0.9,1,1.8,1,2.7c0.1,7.9,0.1,15.9,0.1,23.8c0.1,54.3,0.1,108.5,0.2,162.8c0,2.1,0,4.2,0,6.7c-4.7-2.4-6.4-5.5-6.4-10.6
			c0.1-23.1-0.2-46.3-0.4-69.5c0-1.5-0.1-3-0.2-4.4C278.9,211.3,278.9,201.5,278.8,191.8z"/>
		<path class="st0" d="M321.9,136.9c4.9,4.4,7.8,9.4,8,16.5c1.1,32.9,2.5,65.8,4.2,98.7c0.4,7.4,2.1,14.8,3.2,22.2
			c0.1,0.5,0.2,1,0.4,1.5c6.2,15.9,14.6,30.5,24.9,44c0.9,1.1,1.4,2.5,2.1,3.8c-0.4,0.3-0.7,0.7-1,1c-2-1.3-4.3-2.3-6-3.9
			c-12.7-12.1-21.3-26.9-27.7-43c-0.6-1.5-0.9-3.1-1-4.7c-0.9-15.3-1.8-30.6-2.5-45.9C324.9,197,323.4,166.9,321.9,136.9z"/>
		<path class="st0" d="M133.4,585.3c12.1,9.4,23.6,18.5,35.2,27.5c-0.2,0.4-0.4,0.8-0.6,1.2c-3.3-0.8-6.5-1.7-9.8-2.4
			c-1-0.2-2.9-0.2-3.2,0.3c-0.6,1.3-1.2,3.2-0.7,4.3c2.4,5.1,2.6,5.1-2.3,7.6c-3.9,2-7.9,3.8-12.1,5.3c-1.2,0.4-3.2,0-4.4-0.8
			c-6-3.8-11.9-7.8-17.8-11.8c-4.9-3.4-5.5-7.5-1.7-11.8C121.9,598.3,127.6,592,133.4,585.3z"/>
		<path class="st0" d="M46.2,348.1c-3.8-15.6-10.2-30.4-9.2-47c1.6,4.9,2.8,9.5,4.7,13.9c1.8,4.4,4.3,8.6,6.7,13.3
			c4.1-6.4,7.8-12.3,11.6-18.2c0.9-1.5,1.8-3.1,2.9-4.4c4.8-5.6,6.3-12,6.1-19.3c-0.1-2.8,2-6,3.9-8.4c2.6-3.4,3.8-6.8,3.6-11.1
			c-0.3-4.8-0.1-9.7,0.6-14.8c0.6,1.2,1,2.5,1.7,3.6c8,12.7,7.9,26,3.7,39.8c-0.6,1.9-1,3.9-1.8,5.7c-1.8,3.8-4.7,6.1-9.9,5.4
			c2.8,8.3-2.9,13.1-6.2,18.9C59.7,334,54.2,341.6,46.2,348.1z"/>
		<path class="st0" d="M316.2,146.8c0,0.9,0,1.8,0,2.6c0,1.5,0.1,3,0.1,4.4c-0.4,43.5-0.9,87-1.2,130.5c-0.1,6.7,0.6,13.4-4,19.1
			c-0.8,0.5-1.5,1-2.3,1.5c-0.2-8.6-0.5-17.2-0.5-25.8c0-46.4,0.1-92.9-0.1-139.3c0-4.9,1-8.2,5.6-10.2c1-0.4,1.8-1.1,2.8-1.7
			C316.4,134.2,316.3,140.5,316.2,146.8z"/>
		<path class="st0" d="M132.3,311c0.2-3.1,0.4-6.2,0.6-9.3c0.1-0.8,0.5-1.5,0.7-2.3c2.8-9.3-4.7-16.4-10.4-16.6
			c-1.6-1.9-2.9-3.7-4.4-5.2c-1.5-1.5-3.4-2.6-5.4-4.1c4.7-6,9.2-11.9,13.8-17.7c0.2,0,0.6,0,0.7,0.1c1.1,4.6,3.8,5.5,8.4,5.4
			c3.3-0.1,6.7,2.1,9.9,3.7c2,1,3.3,1.1,5-0.4c2.7-2.4,5.7-4.5,8.5-6.6c3.1,1.5,6,3,9.4,4.7c-14.8,14.5-27.6,29.7-35.4,48.6
			C133.1,311.2,132.7,311.1,132.3,311z"/>
		<path class="st0" d="M380.8,660.6c0.8-2,1.6-4,2.2-6c1.7-6.2,3.7-12.3,4.9-18.6c0.7-3.8,2.2-6.4,5.8-7.9c1.1-0.4,2.1-1.2,3.1-1.8
			c6.1-3.5,8.7-2.9,14.2,3.6c1.5-0.7,3.5-1.2,4.8-2.3c3.8-3.2,8.1-4.1,12.8-3.6c2.2,0.2,4.4,0.8,6.6,0.8c2.2,0,4.4-0.6,6.6-1
			c0.3,0.4,0.5,0.9,0.8,1.3c-4.8,4.3-9.2,9.3-14.5,12.9c-14.3,9.7-30.3,16.1-46.1,22.9C381.8,660.9,381.6,660.7,380.8,660.6z"/>
		<path class="st0" d="M402.7,449c10.4,5.8,20.6,11.6,30.9,17.2c2,1.1,4.4,1.4,6.3,2.6c4,2.4,7.8,5,11.5,7.8
			c0.6,0.4,0.9,1.9,0.6,2.6c-0.8,2.2-1.8,4.5-3.1,6.5c-3.2,4.6-7,8.9-10.1,13.6c-2.2,3.3-4.6,5-8.8,4.8c-3.4-0.2-5.2,2.5-5.5,5.7
			c-0.5,5.5-3.1,9.2-8,11.8c-5.8,3.1-11.1,6.9-16.7,10.3c-13.9,8.6-27.8,17.2-41.7,25.8c-0.4-0.3-0.8-0.6-1.2-0.8
			c0.7-6.3,1.1-12.7,2.2-18.9c2.7-14.4,5.7-28.7,8.7-43c0.2-1.2,0.5-2.4,1.2-3.4c10-14.5,19.1-29.6,32.3-41.6
			C401.7,449.6,402.1,449.4,402.7,449z M360,552.2c2.2-1.4,3.2-2,4.2-2.6c16.8-10.4,33.6-20.7,50.4-31c4-2.5,6.9-5.4,7.2-10.4
			c0.3-4.6,3.9-7.2,7.4-7.2c4.7,0.1,6.6-2.6,8.9-5.6c2.3-3,4.6-6,6.7-9.1c5.5-7.9,6.4-8.5-4.3-14.3c-0.7-0.4-1.5-0.6-2.2-1
			c-5.2-2.4-10.6-4.6-15.7-7.2c-6.5-3.4-12.9-7.1-19.3-10.6c-6.6,7.8-12.4,15.2-18.8,22c-9.2,9.8-15.3,20.8-17.2,34.3
			C365.5,523.3,362.7,537.1,360,552.2z"/>
		<path class="st0" d="M336,697.9c-3.6,4.3-6.9,8.1-10.2,12.1c-3.3,4-7.9,4.9-12.6,5.4c-9.9,0.9-19.8,2.2-29.7-0.1
			c-2.5-0.6-5.2-1.3-7.3-2.7c-5.1-3.4-9.9-7.1-15-10.9c0.6-0.4,0.8-0.6,0.9-0.6c8.5,2.3,16.6,0,24.9-1.2c5.5-0.8,11.2,0.1,16.7,0.2
			c2.1,0,4.3,0,6.4-0.1c4.4-0.1,8.8-0.2,13.2-0.4c0.7,0,1.7-0.2,2.2-0.7C328.5,695.9,331.8,696.5,336,697.9z"/>
		<path class="st0" d="M41.8,549.6c2.6-0.5,4.5,1.1,6.2,4c5.2,9.1,10.4,18.2,15.9,27.1c3.8,6.1,8.1,11.8,12.5,18.2
			c-1.7,3.4-9.4,2.1-10.4,9.4c-4.1-3.9-8.7-7.4-12.1-11.8c-5.1-6.5-9.6-13.6-14-20.7c-1-1.7-0.9-4.3-0.7-6.4
			C39.8,563,40.8,556.6,41.8,549.6z"/>
		<path class="st0" d="M431.2,368.9c5.9-13.1,4.7-26.8,2.6-40.4c-1-6.9-2.8-13.6-4.3-20.8c5.7-2.5,11.7-5.2,17.7-7.8
			c18.5,30,26.3,62.7,28.6,98.1c-6.8,0.1-13.3,0.3-19.8,0.4c-0.2,0-0.4-0.6-0.6-0.9c2.2-2.3,1.5-3.8-0.8-5.8
			c-7.1-6.1-13.9-12.5-20.8-18.8C432.7,371.7,432.1,370.2,431.2,368.9z M472.9,395.1c-2-13.7-3.1-26.9-6-39.6
			c-2.6-11.3-6.8-22.3-11-33.2c-2.1-5.5-5.8-10.5-8.9-15.6c-0.5-0.8-2-1.7-2.8-1.5c-4.2,1.2-8.3,2.7-11.9,4
			c1.7,6.2,3.7,11.9,4.7,17.8c2.2,13.6,3.7,27.2-2,40.5c-0.4,0.9,0.5,3,1.4,3.9c7.3,6.8,14.7,13.4,22,20.2c1.1,1,1.9,2.5,2.9,3.7
			C464.6,395.1,468.3,395.1,472.9,395.1z"/>
		<path class="st0" d="M306.3,209.7c-5.8,0-11.7,0-18,0c0-13.2,0-26.6,0-40.7c5.7-0.4,11.6-0.9,18-1.4
			C306.3,182.1,306.3,195.6,306.3,209.7z"/>
		<path class="st0" d="M82.7,414.9c4.6-1.7,9.7-2.4,13.5-6c1.3-1.2,2.8-2.6,4.4-3.1c4-1.3,8.2-2.1,12.8-3.3c-2,12,2.7,23.3,6.1,34.9
			c-0.4,0.2-0.7,0.4-1.1,0.6c-1.1-0.8-2.2-1.6-3.2-2.5c-2.2-2.1-4.4-3.3-7.6-1.7c-0.8,0.4-3.1-0.6-3.7-1.6c-2.8-4.8-8.1-8.1-13-6.7
			c-2.9,0.8-5.4,2.9-8,4.4C82.1,425.1,78.8,420.1,82.7,414.9C82.8,414.9,82.7,414.9,82.7,414.9z"/>
		<path class="st0" d="M193.5,522.8c1.1,1.2,2.2,2.5,3.4,3.8c0.4,0,0.8-0.1,1.3-0.1c0.2-3.9,0.7-7.7,0.5-11.6
			c-0.1-2.7,0.5-4.7,2.8-6.1c3.1-2,4-5.1,5.4-8.4c1.8-4.3,5.3-7.8,8.6-12.3c11.7,23.8,17.2,48.1,21.1,73.8c-4.6-3-8.5-5.8-12.6-8.2
			c-2.3-1.4-5.2-1.9-7.5-3.3c-1.8-1-3.2-2.7-4.9-3.9c-1.7-1.2-3.4-2.7-5.3-3c-5.5-0.8-8.8-4.9-13-7.6c-1.5-1-2.7-2.2-4.2-3.1
			c-2.4-1.3-1.9-3.1-0.7-4.7C189.5,526.2,191.5,524.7,193.5,522.8z M215.2,494.3c-3.6,3.3-6.5,6.2-6,11c0.1,1-1.2,2.8-2.3,3.2
			c-4.8,1.9-6.1,5.3-5.5,10.1c0.6,4.4-0.1,8.5-2.5,11.1c-3.4,0-5.9,0-8.4,0c0,0.4-0.1,0.7-0.1,1.1c5.6,3.1,10.2,8.4,17.4,8.2
			c2.5-0.1,3.8,1.1,5.2,3c1.1,1.5,2.5,3,4.1,3.9c2.7,1.6,5.7,2.6,8.3,4.2c2.3,1.4,4.3,3.4,7.3,5.9
			C226.7,534.9,225.2,513.6,215.2,494.3z"/>
		<path class="st0" d="M93.5,219.8c1.9-3.8,3.4-8,5.8-11.4c4-5.7,8.3-11.3,13.1-16.3c4.7-4.9,10.2-9.1,15.4-13.6
			c-0.4-0.5-0.8-1-1.1-1.4c0.4,0.2,1.3,0.5,1.3,0.7c-0.1,5.3,0.6,10.8-0.8,15.8c-0.8,2.9-5.1,4.8-7.7,7.3c-2,1.9-3.4,4.4-5.5,6
			c-6.2,4.8-12.7,9.3-19,13.9C94.4,220.5,94,220.2,93.5,219.8z"/>
		<path class="st0" d="M552.9,288c-9-9.5-18.2-20.7-9.1-38.1c0.9,1.6,1.6,2.7,2.2,3.8c4.1,6.1,8.2,12.1,12.3,18.2
			c2.7,2.9,3.7,6.1,2.8,10.1c-0.4,1.8,0.4,3.8,0.8,6.4c-1.7,0.4-3.7,0.8-5.7,1.2C555.2,289.2,554,288.6,552.9,288z"/>
		<path class="st0" d="M512.6,318c-3.4,0.8-6.7,2.5-9.6,2c-2.5-0.4-4.7-3.3-6.8-5.3c-1.1-1-1.6-3-2.8-3.7c-3.3-2-3-4.7-2-7.6
			c2-6,4.1-12,6.1-17.9C503.7,288.5,510.8,307.4,512.6,318z"/>
		<path class="st0" d="M168.8,526.6c-4.5-2.5-7.2-6.8-12.4-5.9c-0.5,0.1-1.2-0.5-1.6-1c-6.2-9.2-12.4-18.4-19.3-28.6
			c9.5-0.3,15.2-5.6,21.6-9.7c2.9-1.8,5.7-3.1,9.4-2c3.9,1.1,8.1,1,11.9,2.3c3.4,1.1,6.5,3.4,10.8,5.7
			C182.2,500.8,175.6,513.6,168.8,526.6z M168.5,522c0.2-0.7,0.8-2,1.3-3.3c1-2.6,1.6-5.4,3-7.8c4.6-7.4,10-14.4,11.8-23.7
			c-2.2-0.9-4.3-2.1-6.5-2.6c-2.2-0.6-4.9,0.2-6.7-0.8c-6.8-3.9-12.3-1-17.8,2.7c-3.9,2.6-7.9,5-12.5,8c4.9,7.1,10.3,15,15.8,22.9
			c0.3,0.4,0.8,0.7,1.3,0.9C161.4,519.5,164.8,520.7,168.5,522z"/>
		<path class="st0" d="M331.4,312.4c5.5,5.3,10.8,10.8,16.5,15.9c2,1.8,3,3.1,1.3,5.6c-0.8,1.1-0.8,2.7-1.3,4.5
			c-11.6-11.4-24.4-20.6-38.7-27.8c0.3-1.1,0.6-2.1,0.9-3.2c1.3-1.6,2.6-3.2,3.9-4.8c0.6-1,1.1-1.9,1.6-2.7c2.7,1.5,5,2.9,7.3,4.3
			l0,0C325.6,306.9,328.5,309.6,331.4,312.4z"/>
		<path class="st0" d="M470.2,448.8c-1.3-0.9-2.8-1.6-3.9-2.7c-2.6-2.4-5.3-3-8.8-1.9c-4.2,1.3-9.9-2.5-10.6-6.9
			c-1-6.2-1.7-12.4-2.3-18.6c-0.1-1.1,1.3-2.8,2.4-3.4c3.6-2.2,7.3-4.1,11.9-3.7c3.6,0.3,6.8,0.8,9.7,3.1c3.1,2.4,6.4,3.3,10,1.1
			c0.7-0.4,2.3-0.7,2.5-0.5c0.5,0.8,0.8,1.9,0.7,2.9C480.3,427.6,475.3,440.8,470.2,448.8z M478.2,421c-3.8-1.4-7-2.2-10-3.7
			c-4-2-7.9-3.9-12.5-3.7c-3.8,0.1-8.6,4.1-8,7.5c0.9,5.8,2.2,11.6,4,17.2c0.4,1.4,3.5,3.1,4.9,2.8c5.2-1.2,9.6-1.2,13.3,5.1
			C473,436.7,475.8,428.4,478.2,421z"/>
		<path class="st0" d="M60.7,274.7c6.6,10.1,6.4,24.8-5.5,34.8c-2.5-7.1-5.1-14.2-7.6-21.4c-0.2-0.5,0.2-1.5,0.7-2
			C52.3,282.3,56.5,278.5,60.7,274.7z"/>
		<path class="st0" d="M539.3,296.1c-1.4-1.5-3.1-2.8-4.2-4.5c-2.2-3.6-4.6-7.2-5.9-11.1c-1.5-4.7-1.9-9.8-2.8-15.1
			c0.9,0.5,2.2,0.7,2.8,1.5c4.4,5.9,12.8,7.9,15.2,15.7c0.1,0.4,0.3,0.8,0.6,1c7,4.9,1.5,9.8,0.5,14.9c-2.1-0.6-3.8-1.1-5.5-1.6
			l0.1,0.1C539.8,296.7,539.6,296.4,539.3,296.1L539.3,296.1z"/>
		<path class="st0" d="M245.1,326.1c2.5-1.8,5-3.6,7.6-5.4c8.2-5.6,16.3-11.3,24.6-16.6c3.7-2.3,4.6,2.3,6.8,3.2
			c-6.3,3.5-12.4,6.9-18.5,10.4c-0.9,0.5-1.3,1.7-1.9,2.6l0-0.1c-0.8,0.6-1.6,1.1-2.5,1.6l0,0c-0.6,0-1.5-0.2-1.8,0.1
			c-2.1,1.8-4.2,3.7-6.2,5.6c-3.1,3.3-6.2,6.6-9.6,10.2c-0.3-3.4-0.5-6.3-0.7-9.3c0.2-0.6,0.4-1.2,0.6-1.7l-0.1,0
			C244.1,326.5,244.6,326.3,245.1,326.1L245.1,326.1z"/>
		<path class="st0" d="M48,324.2c-2.9-8.3-5.6-15.9-8.3-23.5c-1.9-5.5,0.9-9,6.3-12.1c2.4,7.6,4.8,15.1,7,22.6c0.3,1,0,2.4-0.4,3.4
			C51.3,317.5,49.8,320.3,48,324.2z"/>
		<path class="st0" d="M145.6,218.6c0.7-1.3,1-3,2.1-3.9c7.2-6,14.1-12.6,23.2-15.6c1.1-0.4,3.1-0.5,3.7,0.2
			c0.6,0.7,0.5,2.6,0.1,3.8c-2.1,5.8-5.7,9.9-12.3,10.6c-1.4,0.1-2.6,1.2-4,1.8c-3.8,1.6-7.7,3.2-11.6,4.8
			C146.4,219.6,146,219.1,145.6,218.6z"/>
		<path class="st0" d="M308.2,694.4c-1.6-3-3.7-1.1-5.5-0.4c-3.6,1.3-7,3.6-11.5,1.1c2.5-2,4.8-3.9,7-5.8c1.2-1,2.3-2.2,3-3.6
			c2.2-4.2,6.1-5.6,10.4-3.3c1.5,0.8,3,1.9,4.5,2.7c1.5,0.9,3,1.6,5.4,3c-3.3,3.2-6.2,6.1-9.2,9
			C310.6,695.9,309.4,695.1,308.2,694.4L308.2,694.4z"/>
		<path class="st0" d="M66.6,281.5c-2.3-6.1-5.9-10.8-3.1-16.4c3-6,6.5-11.7,10.1-18.1c0,8,0.8,15-0.3,21.8
			C72.7,272.9,69.2,276.7,66.6,281.5z"/>
		<path class="st0" d="M552.9,288c1.1,0.6,2.2,1.1,3.3,1.7c2.4,1,3.2,2.8,3.1,5.5c-0.4,7.3,0,14.7-2.8,21.2
			c-2.5-4.4-5.6-8.6-7.2-13.4c-1-3.1,0.3-7,0.3-10.5C549.5,290,550.7,288.7,552.9,288z"/>
		<path class="st0" d="M42.5,286.9c6.7-10.8,8.1-25.3,21.7-31.8C60.8,271.1,54.9,280,42.5,286.9z"/>
		<path class="st0" d="M278.8,688.4c1-1.2,1.9-2.1,2.7-3.2c3.3-5,7-7.9,13.2-4.3c1.5,0.9,3.6,0.5,6.7,0.9c-2.9,3-5.2,5.6-7.7,8
			C288.1,695.1,284.5,694.8,278.8,688.4z"/>
		<path class="st0" d="M328.4,508.7c0.6-1.5,1.6-3.1,1.7-4.6c0.2-3.8,0.1-7.7,0.1-11.5c0.5-0.1,1-0.3,1.5-0.4
			c0.6,1.7,1.8,3.4,1.7,5.2c-0.7,20.3-1.6,40.5-2.6,60.8c0,0.9-1.1,1.8-1.7,2.6c0.3-15.6,0.6-31.2,0.7-46.8c0-1.5-1-3-1.5-4.5
			C328.4,509.1,328.5,508.9,328.4,508.7z"/>
		<path class="st0" d="M417.2,162.1c11.3,0.2,20.1,5.2,28.7,12.2C436.7,176.1,419,168.5,417.2,162.1z"/>
		<path class="st0" d="M34.5,404.5c3.8-7.2,7.7-14.4,11.5-21.6c1.3,8.2,2.6,16.3-4.1,22.9C38.8,408.7,36.9,408.4,34.5,404.5z"/>
		<path class="st0" d="M529.5,246c4.9,9.1,8.1,18.8,8.7,26c-3.8-3.1-7.8-6.4-11.7-9.7c-0.5-0.4-1.1-1.4-0.9-2
			C526.8,255.5,528.2,250.7,529.5,246C529.5,245.9,529.5,246,529.5,246z"/>
		<path class="st0" d="M39.1,423c-2.3-1.5-4.6-3-7.4-4.8c0.4-2.4,0.8-5.4,1.3-8.8c3.2,0,6.5,0,9.4,0c1.3,6.3,2.6,12.8,3.9,19.3
			c-0.7-0.3-1.6-0.3-2.1-0.8C42.5,426.3,40.8,424.6,39.1,423z"/>
		<path class="st0" d="M271.7,691.4c6.2-1.3,10.4,3.2,15.9,5.1c-7,3.9-16.5,4.6-26.9,2.3C264.4,696.3,268.1,693.8,271.7,691.4
			L271.7,691.4z"/>
		<path class="st0" d="M458.8,173.2c-6.8-0.9-13-1.5-17.6-8.2c2.6-0.4,5.2-1.5,6.8-0.8C452.1,166.1,457.2,167.2,458.8,173.2z"/>
		<path class="st0" d="M193.7,464.3c1,2.2,0.7,3.7-1.7,4.7c-3.3,1.4-6.5,3.2-9.8,4.7c-0.3,0.2-0.8,0.1-1.4,0.2
			c-0.5-2.6-1-5.2-1.4-7.3C183.7,461,188.7,463.2,193.7,464.3z M190,467c0-0.4,0-0.7,0-1.1c-2.1,0-4.3-0.4-6.1,0.2
			c-0.9,0.3-1.1,2.6-2,5C185.4,469.3,187.7,468.2,190,467z"/>
		<path class="st0" d="M485.4,477.9c0.5-0.1,1-0.1,1.4-0.3c3.1-1.1,4.9-0.1,4.9,3.3c0,1.4-1,3.7-1.8,3.9c-2.5,0.4-5.3,0.3-7.8-0.4
			c-0.7-0.2-1.3-3.3-0.8-4.8c0.3-1.2,2.3-1.8,3.6-2.7C485.1,477.3,485.3,477.6,485.4,477.9z"/>
		<path class="st0" d="M432.5,605.8c-0.9-4.7-3.1-9.3,3.6-11.4c1.8,1.9,3.9,4.1,6.2,6.6C438.9,602.6,435.9,604.1,432.5,605.8z"/>
		<path class="st0" d="M529.5,246C529.5,246,529.5,246,529.5,246c0.3-1.5,0.6-3.1,0.8-4.5c3.7,2.3,7.5,4.7,11.4,7
			c-1.2,2.5-2.5,5.3-4,8.5c-1.8-3.5-3.4-6.8-5.1-10C531.9,245.9,531.3,243.9,529.5,246z"/>
		<path class="st0" d="M300.8,566.1c-1.6,0.8-3.2,2-4.9,2.3c-3.6,0.7-7.2,0.6-8.9-4.1c1.6-2,3-4.8,6.6-3.2
			C296,562.7,298.4,564.4,300.8,566.1z"/>
		<path class="st0" d="M428.6,598.4c2.4,7.8,0.4,11.6-7.9,11C423.2,600.9,423.2,600.9,428.6,598.4z"/>
		<path class="st0" d="M547.8,253.2c-0.4-0.7-0.8-1.4-1.4-2.4c4.1,0.4,6.9,0.9,7.6,6c0.6,4.1,3.5,7.9,5.4,11.8
			c-0.8-0.7-1.9-1.2-2.5-2C553.8,262.2,550.9,257.7,547.8,253.2z"/>
		<path class="st0" d="M540,296.9c2.6,2.6,5.4,5.1,7.8,7.9c1.3,1.5,2.2,3.4,2.6,5.5c-4.5-4.1-8.9-8.2-13.4-12.3
			c1.3-1.1,1.8-1.5,2.4-1.9l0,0c0.3,0.3,0.6,0.6,0.9,0.9C540.1,297,540,296.9,540,296.9z"/>
		<path class="st0" d="M93.7,482.5c-0.6,2.2-1.1,4.5-1.9,6.6c-0.1,0.3-2.5,0.3-2.8-0.2c-0.9-1.5-2.1-3.7-1.6-5
			c0.5-1.3,2.9-1.9,4.5-2.9C92.5,481.6,93.1,482,93.7,482.5z"/>
		<path class="st0" d="M316.7,697.1c1.6-2.5,2.6-4.2,3.7-5.9c0.3-0.4,0.7-0.8,1.1-1.3c1.8,1.8,3.6,3.5,5.9,5.6
			C323.8,696,320.6,696.5,316.7,697.1z"/>
		<path class="st0" d="M163.9,624.5c-1.8-2.3-3.6-4.5-5.5-6.9C165.5,615.8,165.5,615.8,163.9,624.5z"/>
		<path class="st0" d="M271.7,691.3c-1.5,0.3-3,0.6-4.5,0.9l0.1,0.1c2.4-4.2,6.5-5.4,10.5-7c0.3,0.4,0.5,0.7,0.8,1.1
			c-1.3,1-2.6,2.1-4,3.1C273.6,690.2,272.6,690.7,271.7,691.3C271.7,691.4,271.7,691.3,271.7,691.3z"/>
		<path class="st0" d="M330,587.7c-0.4-0.1-0.9-0.1-1.3-0.2c0.1-7.2,0.2-14.3,0.5-21.5c0-0.7,1.1-1.4,1.7-2.1
			C330.6,571.9,330.3,579.8,330,587.7z"/>
		<path class="st0" d="M151.5,224c-1.4,1.6-2.8,3.2-4.9,5.5c-0.6-1.9-1.7-3.8-1.3-4.2c1.3-1.3,3.1-2.1,4.8-3.1
			C150.5,222.8,151,223.4,151.5,224z"/>
		<path class="st0" d="M308.2,694.4c-0.6,4.4-0.6,4.4-6.5,2C303.8,695.7,306,695,308.2,694.4C308.2,694.4,308.2,694.4,308.2,694.4z"
			/>
		<path class="st0" d="M313.8,302.6c-1.3,1.6-2.6,3.2-3.9,4.8c-0.4-0.8-0.8-1.6-1.2-2.4c0.8-0.5,1.5-1,2.3-1.5
			C312,303.2,312.9,302.9,313.8,302.6z"/>
		<path class="st0" d="M267.2,692.2c-0.3,0.1-0.6,0.2-0.9,0.2c0-0.1,0-0.2,0-0.3C266.6,692.2,266.9,692.3,267.2,692.2
			C267.3,692.3,267.2,692.2,267.2,692.2z"/>
		<path class="st0" d="M223.2,244.9c-2.9,3.1-5.3,7-8.8,9.1c-16.4,10-27.5,24.2-35,41.5c-2.9,6.6-5.4,13.4-7.7,20.3
			c-3.8,11.7-3.8,23.8-2.9,35.9c0.5,6.8,1.4,13.5,1.6,20.5c-3.6-3.4-7.9-5.7-8.6-11.9c-1.8-16.2-1.4-32.4,2.7-48
			c2.1-8.1,6.4-15.9,10.7-23.3c8.7-15,19.9-28,34.5-37.7c0.4-0.3,0.5-0.9,0.8-1.3c1.6-1,3.2-2,4.8-3c2.4-0.9,4.7-1.8,7.1-2.8
			C222.6,244.5,222.9,244.7,223.2,244.9z"/>
		<path class="st0" d="M250.8,577.7c0-0.3,0-0.5,0-0.8c0.5,0,0.9,0.1,1.4,0.1c-0.5-2.2-0.9-4.4-1.4-6.6c0-0.3,0-0.6,0-0.9
			c0.2-0.6,0.6-1.3,0.5-1.9c-0.7-5.1-1.5-10.3-2.3-15.4c-0.1-0.6-0.1-1.1-0.2-1.7c-0.2-1-0.4-2.1-0.6-3.1c-0.1-0.6-0.1-1.1-0.2-1.7
			c-0.5-2.9-1-5.9-1.5-8.8c-0.2-0.8-0.4-1.6-0.7-2.4c-0.4-2-0.7-4-1.2-5.9c-0.8-2.8-1.8-5.5-2.8-8.2c0-0.3,0-0.6,0-0.8
			c-0.5-2.4-1.1-4.9-1.6-7.3l0,0c-0.9-3.6-1.7-7.3-2.6-10.9c-5.2-16.1-12.1-31.2-22.1-45c-16.5-22.8-35.8-42.5-59.1-58.4
			c-1.3-0.9-2.6-1.9-4-2.9c3.1-3.2,6.1-6.3,9.1-9.4c3.8-3.8,9.1-7,10.9-11.6c1.7-4.4-0.4-10.3-0.5-15.5c-0.1-9.9-0.6-19.9,0.1-29.8
			c1.1-14.3,7-27.2,13.3-39.9c6.5-13,15.5-23.8,27.7-31.9c0.9-0.6,1.8-1.2,2.7-1.7c0.4-0.2,1-0.3,2.6-0.7c0,6.2,0.1,12.1-0.1,17.9
			c-0.1,1.3-1.3,2.6-2.1,3.8c-5,8.3-11.4,16-14.7,24.9c-6,16-6.8,32.5,3.6,47.4c3.5,5,8.7,8.7,13.4,12.8c1.7,1.5,2.2,2.7,1.4,4.8
			c-1.5,3.6-2.6,7.4-4.1,11c-7.8,18.9-7.2,37.9-1.6,57.2c6.1,21.3,19.5,37.7,34.7,53.1c1.7,1.7,3,4.5,3.2,6.9
			c1.9,25.1,3.9,50.2,5.2,75.3c0.9,16.9,0.9,33.9,1.2,50.9c0,0.8-0.9,1.6-1.4,2.4c-0.6-6.6-1.3-13.3-1.9-19.9
			c-0.1-0.6-0.1-1.1-0.2-1.7c-0.8-7.3-1.6-14.7-2.6-22C252.5,578.8,251.5,578.3,250.8,577.7z"/>
		<path class="st0" d="M231.8,361.2c-16.5,50-7,91.6,34.2,125.1c-3.5,0.7-6.6,1.4-9.7,1.8c-1,0.1-2.5-0.3-3.1-1
			c-8.1-9.2-16.5-18-24-27.7c-9-11.8-12.4-26.1-15.4-40.3c-3.9-19.1,2.2-36.7,9.9-53.8C224.6,363.3,228.7,362.7,231.8,361.2z"/>
		<path class="st0" d="M220.9,274.7c1.5,0.7,2.8,1.3,4.6,2.2c-10.3,12.7-16.4,26.5-15.5,43.1c0.9,16.8,8.1,29.7,21.8,39.2
			c-6.9,3.1-6.8,3-12.5-1.2c-7.6-5.6-14.1-12.4-16.5-21.6c-1.7-6.5-2.1-13.5-1.8-20.3C201.7,299.7,210.9,287,220.9,274.7z"/>
		<path class="st0" d="M163.4,368.7c1.5,1.4,3.7,3.4,5.9,5.4c-6.4,6.5-12.7,13-19.1,19.3c-0.8,0.8-2.4,0.9-3.7,1
			c-3.1,0.1-6.2,0-9.2,0C146,385.8,154.5,377.4,163.4,368.7z"/>
		<path class="st0" d="M226.5,274.9c-4.2-0.5-5.1-1.9-4.7-5.2c0.5-3.9,0.2-8.1-0.3-12c-0.9-6,1.3-10.6,5.1-14.1
			C226.5,253.6,226.5,264.2,226.5,274.9z"/>
		<path class="st0" d="M258.9,636.2c-0.6-4.4-1.1-8.8-1.7-13.2c0.6,0.6,1.5,1.2,1.6,1.8C258.9,628.5,258.9,632.4,258.9,636.2z"/>
		<path class="st0" d="M222.4,244.2c0.5-0.1,1-0.3,1.6-0.4c-0.3,0.4-0.5,0.7-0.8,1.1C222.9,244.7,222.6,244.5,222.4,244.2z"/>
		<path class="st0" d="M241.2,327.6c0,2.5,0,5,0,8.1c-4-3.6-7.8-7-11.8-10.7c1-0.3,1.5-0.4,2.1-0.6c3.1,0.2,6.3,0.4,9.4,0.7
			c0.2,0.1,0.3,0.2,0.3,0.3C241.1,326.2,241.1,326.9,241.2,327.6z"/>
		<path class="st0" d="M351.2,336c-0.5-5.7,2.1-8.7,6.3-10.5c1.2-0.5,2.7-0.1,4-0.1c0.1,0.4,0.2,0.9,0.3,1.4
			C358.4,329.8,355,332.7,351.2,336z"/>
		<path class="st0" d="M363.9,445.6c9.8-17.8,11.2-36.7,7-56.2c-1.8-8.7-4.5-17.3-6.8-25.9c4.9-1,4.6-0.8,6.7,4.2
			c4.3,10,6.7,20.5,7.3,31.2c0.6,11.9-0.2,23.9-5.6,35.1c-0.8,1.7-1.4,3.5-2.1,5.2c-8.6,14.8-16.7,30.1-27.9,43.2
			c-2.8,3.2-5.4,6.6-8.3,10.2c-1.3-1.6-2.4-2.9-3.9-4.7C346.4,477.5,355.9,462.2,363.9,445.6z"/>
		<path class="st0" d="M390,331.9c1.4,12.5-14.8,29.8-27.2,28.8c5.3-4.6,10.5-8.8,15.2-13.4C382.8,342.8,388.3,338.8,390,331.9z"/>
		<path class="st0" d="M327.2,446c0.6-4.7,1.1-9.4,1.7-14c-3.4,2.9-5.4,6.4-4.3,11.3c0.7,3.4-0.1,6-3.8,7.2c-3.5,1.2-5.6,3.9-7,7.2
			c-0.7,1.6-1.4,3.6-2.7,4.4c-5.4,3.3-8.6,7.8-9.3,14.4c-4.8-2.5-9.1-4.5-13.1-6.8c-0.9-0.5-1.7-1.9-1.9-3.1c-0.8-5-2-9.5-7.9-10.6
			c-0.9-0.2-2.3-0.9-2.5-1.7c-1.8-5-3.4-10.1-5.2-15.1c-0.5-1.5-1.1-2.9-1.7-4.3c-1.8-4.4-3.9-8.8-5.4-13.3
			c-0.4-1.3,0.6-3.7,1.8-4.9c2.8-2.8,4.1-5.7,3.8-9.7c-0.8-8.7,2.9-15.7,8.8-21.7c3.8-3.8,6.2-9,12-10.8c1.6-0.5,2.6-3.2,3.7-4.7
			c5.5,3.1,10.8,6.2,16.2,9.2c0.3,0.2,0.9,0.5,0.9,0.7c0.3,5.5,5.7,6.7,8.4,10c1.2,1.4,2.1,3.3,2.4,5.1c0.5,2.8-0.7,5.9,2.3,8.1
			c0.5,0.4,0.6,1.8,0.5,2.7c-0.6,6,2,10.6,6.6,14.8c1.9-6.6,1.5-13.1,0.7-19.7c-0.9-7.3-3.7-13.7-8.9-19c-3.3-3.4-5.8-7.6-9.3-10.5
			c-7.7-6.2-16.3-7.1-25.7-3.7c-12.3,4.5-19.4,13.4-22.7,25.6c-1.1,4.1-2.2,8.3-2.8,12.6c-1.6,11.2,0.1,21.9,4.5,32.3
			c0.6,1.4,0.9,3,1.8,5.7c-11.6-6.1-20.8-12.6-25.1-24.7c-7.2-19.8-5.7-39.7,2.7-57.8c9.1-19.6,28.9-35.9,54.4-32.6
			c5.2,0.7,10.7,0.7,15.5,2.5c14.2,5.5,24.6,15.6,32.3,28.6c6.1,10.2,7.9,21.3,8.6,33.1c1.1,17-5.9,30.6-16.1,43
			c-3.4,4.2-8.4,7.1-12.6,10.6C328.1,446.3,327.7,446.2,327.2,446z M259.8,349.4c-0.6,1.2-1.1,2.5-1.6,3.7c0,0.2-0.1,0.4-0.4,0.4
			c-0.6,0-1.5-0.3-1.7,0c-1.5,1.7-3.1,3.4-4.4,5.2c-5.4,7.8-6.8,16.9-8.3,25.9c-2.5,15.6-0.4,30.7,8.7,44c3.1,4.6,8.3,7.7,12.6,11.5
			c0.3-0.3,0.5-0.6,0.8-0.9c-1.6-4.2-4-8.3-4.8-12.7c-3.4-20.3-1.5-39.2,14.7-54.5c9.2-8.7,26.1-11.5,36.6-4.8
			c4.4,2.8,8.3,6.8,12,10.6c2.6,2.6,5,5.7,6.6,8.9c6,12,5.5,24.7,3,37.4c-1.1,5.5-2.3,11-3.4,16.8c10.7-4.9,19.7-18.9,22.1-29.5
			c3.5-15.9,3.2-32.1-4.1-47.3c-1-2.2-3-3.9-4.5-5.8l0,0c-0.8-1.6-1.3-3.6-2.5-4.7c-5.9-5.4-11.8-11-18.3-15.8
			c-3.1-2.3-7.2-3.7-11.1-4.4c-5.9-0.9-12.1-1.2-18.1-1.1C279.8,332.6,268.4,338.5,259.8,349.4z M294.2,372.8
			c-1.2,1.4-2.3,3.4-4,4.5c-7.1,4.7-12.5,11.1-16.1,18.5c-1.9,3.8-1.5,8.8-1.8,13.3c-0.2,2.8-0.9,5-3,7.1c-4.6,4.4-4.4,5.4-1.6,11.1
			c2.4,4.9,5.7,9.3,6.8,15.1c1.1,5.8,3.4,11.9,10.6,13.8c0.9,0.2,1.9,1.7,2.2,2.8c1.8,6.1,5.2,10.7,11.9,12.4
			c1.1-4.2,3.2-7.4,7.4-9.4c1.8-0.9,3.4-3.3,4-5.4c1.3-4.5,4.2-7.3,8.1-9.4c2.3-1.3,3.3-2.8,2.6-5.5c-1.2-4.4,0.4-7.6,3.9-10.4
			c2.1-1.7,3.7-4.1,5.5-6.2c-0.8-1.2-1.2-2-1.8-2.7c-3.8-4.7-8.1-9.1-7.1-16c0.1-0.6-0.5-1.2-0.7-1.8c-0.7-2.2-1.4-4.4-1.9-6.7
			c-0.3-1.2,0.2-2.8-0.4-3.5c-3.8-4.6-7.5-9.4-11.9-13.4C303.4,377.9,298.9,375.8,294.2,372.8z"/>
		<path class="st0" d="M257.7,353.5c0.2,0,0.4-0.1,0.4-0.4c0.8-1,1.6-1.9,2.4-2.9c1.9-1.8,3.7-3.8,5.8-5.5
			c13.3-10.3,28.5-12.3,44.6-9.5c3.5,0.6,7.3,1.6,10,3.7c7.1,5.6,13.7,11.9,20.5,17.8c0.7,0.6,1.5,1,2.3,1.5l0,0
			c0.2,1,0.2,2.2,0.7,3.1c4,8.1,6.7,16.5,7.2,25.8c0.6,12.1,0.2,23.9-7,34.4c-0.7,1.1-1.5,2.2-2.2,3.3c0.7-4,2.4-7.4,3.5-11
			c3.8-12.2,5-24.2-2.3-35.7c-2.7-4.3-5.3-8.8-8.4-12.7c-7.1-8.9-15.7-15.6-27.5-17.4c-14.3-2.1-27,0.5-37.4,11
			c-2.7,2.7-5.4,5.3-8.2,8c-1,1.2-2.5,2.3-3,3.6c-2.6,7.2-5.4,14.3-7.3,21.7c-2.9,11.4,0.5,22.3,4.1,33.1c0.5,1.4,0.6,2.8,1,4.3
			c-0.5,0.2-0.9,0.4-1.4,0.5c-2-3.8-3.9-7.7-5.9-11.5c-4.7-9.5-5.6-19.4-4.4-29.8C246.5,376.2,250.3,364.2,257.7,353.5z"/>
		<path class="st0" d="M296.5,468.5c-4.8-3.6-7.5-8.6-7-15.5c0.2-3.6-1-7.3-1.6-11.4c3.8-2.9,7.7-1.8,12.3,0.4
			c5.5,2.5,3.7,7.6,5.4,11.7c1.2-0.3,2.2-0.6,4.6-1.2c-2,3-3.1,5.3-4.7,7.1C302.7,462.7,299.7,465.4,296.5,468.5z"/>
		<path class="st0" d="M294.4,375c3.8,2.8,7.2,5.3,10.5,7.8c2.1,1.6,2.1,6.5-0.1,8.9c-5.3,5.8-10.6,11.6-15.8,17.3
			c-3-4.6-4-8.6-2.2-13.8C289,388.5,291.8,381.9,294.4,375z"/>
		<path class="st0" d="M291.1,434.3c-10.4-1-15.1-8.9-20.9-15.8c4-4.9,8.1-10,12.8-15.8C286.1,413.5,292.3,422.7,291.1,434.3z"/>
		<path class="st0" d="M294.7,425.5c-4.1-5.9-4.8-11.5,0.3-17.3c3.7-4.2,6.9-8.8,11.3-12.9c0.5,3.9,1.1,7.8,1.4,11.7
			c0.1,0.9-0.7,2-1.3,2.8C302.5,415,298.7,420.2,294.7,425.5z"/>
		<path class="st0" d="M303.2,440c-1.8-0.1-7.3-3.9-7.9-6.3c-0.2-0.7,0.1-1.6,0.4-2.2c3.6-6.2,7.4-12.4,11.6-18.3
			C310.1,422.5,311.5,431.6,303.2,440z"/>
		<path class="st0" d="M313,426c-1.3-12.5-2.6-25-3.8-37.5c4.2,3.6,8,7,8.2,12.9c0.1,3.3,1.3,6.5,2.3,9.7c2.2,6.8-3.3,10.2-5.5,15.1
			C313.8,426.1,313.4,426,313,426z"/>
		<path class="st0" d="M268.1,422.2c8.8,8.8,17.3,17.7,16.8,32.6c-2.3-2.5-4.6-4.1-5.6-6.3c-1.8-3.9-2.5-8.3-4.2-12.3
			c-1.4-3.4-3.6-6.4-5.3-9.7C269.1,425.1,268.7,423.6,268.1,422.2z"/>
		<path class="st0" d="M313.1,429c4,3.8,7.3,8.9,5.6,14c-1.1,3.4-6.2,5.5-9.5,8.1c-0.6-0.3-1.2-0.6-1.9-0.9c0.3-3.5,0.1-7.2,1-10.6
			C309.3,436.1,311.3,432.9,313.1,429z"/>
		<path class="st0" d="M274,405.6c0.7-2.9,0.8-6.2,2.3-8.7c3.6-6,7.9-11.6,11.9-17.3c0.5,0.3,1,0.6,1.5,0.9
			c-0.6,1.4-1.2,2.8-1.8,4.2c-1.8,4.1-3.2,8.5-5.4,12.4c-1.8,3.3-4.5,6.2-6.8,9.2C275.2,406.1,274.6,405.8,274,405.6z"/>
		<path class="st0" d="M322.9,417.6c1.8,2.6,3.3,4.8,5,7.2c-2.5,2.8-5,5.5-7.4,8.2c-3.6-3-4.4-5.9-1.3-9.5
			C320.7,421.8,321.6,419.7,322.9,417.6z"/>
		<path class="st0" d="M268.2,420.5c0.1,0.2,0.2,0.4,0.2,0.5c0,0.1-0.2,0.2-0.2,0.3c-0.1-0.2-0.2-0.4-0.2-0.5
			C267.9,420.7,268.1,420.6,268.2,420.5z"/>
		<path class="st0" d="M263,368.2c2.7-2.7,5.4-5.4,8.1-8.2c5.7-4,11.4-8.1,18.5-9.2c17.7-2.8,32.9,1.5,43.6,16.7
			c4.2,6,7.9,12.5,11.2,19c3,6,1.9,12.6,0.8,19c-1.1,6.6-6.5,20.8-11.2,27.3c0.6-2.5,1.1-3.9,1.3-5.3c0.9-8,2.9-16.1,2.2-24
			c-0.9-10.4-3.7-20.7-11.7-28.5c-2.9-2.8-5.9-5.4-9-8c-10.7-9.1-32.3-6.5-42.6,2.7c-13.5,12.1-17.7,27.4-17.9,44.5
			c0,1.1,0,2.1,0.1,3.2c0,0.1-0.1,0.2-0.5,1.5C250,400.1,254.4,383.9,263,368.2z"/>
	</g>
</g>
</svg>
