<?xml version="1.0" encoding="utf-8"?>
<!-- Generator: Adobe Illustrator 23.0.0, SVG Export Plug-In . SVG Version: 6.00 Build 0)  -->
<svg version="1.1" id="Capa_1" xmlns="http://www.w3.org/2000/svg" xmlns:xlink="http://www.w3.org/1999/xlink" x="0px" y="0px"
	 viewBox="0 0 790.09 927.32" style="enable-background:new 0 0 790.09 927.32;" xml:space="preserve">
<style type="text/css">
	.st0{fill:#A4793C;}
</style>
<title>logo_tauren</title>
<g>
	<path class="st0" d="M119.15,181.77l-3.09-1.31l-1.61-1.77l-2.16-3.72l-2.32-3.87l-1.82-3l-1.21-4.75l-0.45-2.2l-0.64-3.19
		l-1.45-3.78l-0.61-1.62l-2.41-6.15l-1.62-4.06c-1.5-3.28-2.99-6.55-4.48-9.82c-0.96-2.11-1.92-4.21-2.87-6.32l-0.61-1.41
		l-2.11-3.87v-1.55c14.96,4.58,29.91,9.16,44.86,13.74c4.16,1.28,6.87,3.97,8.6,8.1c6.18,14.84,15.58,27.06,30.15,34.71
		c0.88,0.46,1.45,1.55,2.16,2.32l0.12-0.15l-3.09,1.47l-4.72-1.44h0.04l-2.36-1.55l0,0l-0.7-1.04l-0.88-0.56l0.06,0.05l-9.35-7.76
		l0.05,0.05l-1.62-0.77l0.05,0.05c-0.96-1.79-1.92-3.57-2.89-5.34l-2.54-2.45l0,0l-1.55-3.09l0,0c-0.52-0.77-1.04-1.55-1.55-2.36
		v0.04l-1.55-2.37l0.04,0.05l-1.58-2.38l0.05,0.06l-1.59-2.39l0.05,0.06l-1.62-1.55l0.04,0.05c0.23-2.32-0.86-3.37-3.18-3.15
		l-1.43-2.03l-0.84-1.13l0.06,0.06c-3.7-1.81-7.26-4.12-11.15-5.31c-6.48-1.99-13.14-3.25-19.77-4.82l-0.6,1.31l2.02,3.02l0.9,0.38
		v-0.04c0.63,3.03,1.21,6.08,1.96,9.08c0.11,0.44,1.02,0.68,1.55,1c0.13,0.11,0.26,0.22,0.37,0.35c-0.25,0.9-0.98,2.03-0.68,2.67
		c3.65,7.61,7.46,15.15,11.22,22.72c1.14,2.32,3.62,4.37,1.11,7.34c-0.35,0.42,0.43,1.79,0.7,2.71L119.15,181.77z"/>
	<path class="st0" d="M302.42,451.02c-0.13-0.39-0.26-0.77-0.39-1.15l0.49-0.43l-0.66,0.27l-3.15-1.65v-1.69
		c-0.93-3.59,1.89-4.15,4.17-5.14l2.43,0.53c3.21-0.66,7.31-0.3,9.44-2.18c5.34-4.74,8.87-10.87,7.94-18.55
		c-0.06-0.56-0.13-1.11-0.2-1.67l-0.11-1.55c0.68-0.81,1.35-1.63,2.47-2.98h-3.59l-2.26-2.61l-2.02-2.19l-9.28-2.43h-7.87
		l-1.49,0.31l-2.23,0.43l-1-0.54l0.65-4.64l0.28-3.87l0.45-4.64l0.89-0.62l-0.94-0.95l-5.31-11.48l0.63-3.9l3.59-0.61l5.47,0.77
		c-0.42-1.65-0.67-2.69-0.94-3.74c2.45-0.99,4.83-2.24,7.37-2.91c9.34-2.5,10.82-4.72,12.98-13.77l1.1-0.83l-1.14-0.77
		c-0.13-1.55-0.22-3.09-0.39-4.58c-1.18-10.16-3.98-13.61-13.98-14.19c-6.04-0.35-8.21-2.98-8.68-8.27
		c0.29-0.97,0.56-1.92,0.84-2.88c0.11-0.58,0.22-1.15,0.33-1.73c0.66-1.78,1.32-3.56,1.98-5.35l0.95-2.19
		c0.48-2.1,0.97-4.21,1.45-6.31l1.12-1.96l5.36-2.64l13.26,4.48c7.87,4.52,11.5,0.24,12.79-5.72c0.77-3.58-1.31-7.77-2.1-11.69
		l0.11-3.23l-1.86,0.77c-2.37-2.6-4.69-5.23-7.13-7.73c-0.32-0.32-1.2-0.09-1.82-0.12l0.05,0.12c-0.06-5.41,4.95-7,7.79-10.22
		c1.88-2.13,3.99-4.06,6-6.08l10.92-6.01c2.26-0.08,4.21-3.91,6.74-0.56c1.3,3.09,3.22,5.84,6.67,6.27
		c6.46,0.77,12.98,1.11,20.6,1.72V253c-0.06-0.32-0.13-0.64-0.19-0.97c-0.22-0.46-0.43-0.94-0.64-1.4l-0.7-4.45l12.44-1.14
		l2.16,0.15l13.2,1.35v3.51c-0.51,1.04-1.02,2.08-1.55,3.09c0.08,4.72,0.16,9.43,0.26,14.55c7.5-0.58,13.96-1.04,20.42-1.62
		c0.62-0.05,1.17-0.87,1.75-1.33l0,0l0.77,0.09c1.02-1.07,2.04-2.14,3.05-3.22l1.99-2.43l1.76-0.29l8.67,4.3l2.32,2.32
		c5.22,4.1,10.53,8.11,15.58,12.41c0.89,0.77,0.77,2.73,1.07,4.14c-3.76,4.53-7.53,9.06-11.31,13.58l-2.26,1.43l1.62,1.65
		c0,0.63,0,1.28-0.08,1.9c-0.77,8.7,4.77,13.01,12.69,9.92c4.5-1.76,9.1-3.25,13.64-4.86l4.54,2.16l2.09,2.48
		c1.75,5.98,3.5,11.95,5.25,17.93c-0.65,2.46-1.3,4.92-1.94,7.38l-9.28,2.64c-2.81-0.69-5.69-0.54-7.22,2.06
		c-3.67,6.23-5.3,12.96-3.62,20.22c1.42,2.33,2.83,4.67,4.24,7h-0.05l1.99,0.77l0,0l6.14,2.83l10.18,4.73
		c0.72,0.47,1.5,0.85,2.32,1.12c3.23,0.66,5.26,4,3.2,6.31c-5.3,5.93-5.19,12.66-4.05,19.75c0.04,0.51,0.07,1.02,0.11,1.55
		l-0.77,3.65l-7.9-1.17c-2.43,0.11-4.85,0.35-7.26,0.73c-5.11,1.08-8.97,4.24-10.64,9.04c-2.69,7.73-0.06,14.54,4.95,20.59
		c0.27,0.32,0.94,0.32,1.41,0.48l-0.06-0.05c0.19,3.87,2.88,3.35,5.41,3.09h0.9c1.3,0.05,2.59,0.22,3.87,0.49
		c2.23,0.69,5.33,1.03,6.3,2.61c1.17,1.91,1.37,5.12-2.2,6.51c-0.98,0.39-1.43,2.16-2.12,3.3c-0.6,2.32-1.21,4.59-1.82,6.89
		l-3.25,17.59c-6.39-2.32-12.28-4.72-18.34-6.53c-4.02-1.09-8.17,1.28-9.27,5.31c-0.26,0.95-0.33,1.94-0.21,2.91
		c0.71,4.93,1.14,10.2,3.29,14.52c1.8,3.61,5.92,6.08,9.01,9.04c1.4,2.45,2.65,5.29,6.11,2.32c0.9,1.25,2.83,2.86,2.54,3.7
		c-2.43,7.1-2.36,14.39-2.16,21.71c-0.42,2.81-0.83,5.63-1.24,8.45l-10.29,3.94l0.19,1.02l-4.11-2.67
		c-4.21-5.16-8.41-10.27-15.07-12.57c-3.09-1.07-4.54,0.1-4.58,3c-0.16,8.84,0.13,17.61,6.96,24.47l3.87,3.04l3.87,1.55l3.09,1.48
		c3.66,1.45,4.75,5.55,1.55,7.78c-4.22,2.92-5.77,7.13-7.45,11.48l-7.26,17.01c-0.77-0.51-1.6-1.02-2.39-1.55s-1.45-1-2.19-1.55l0,0
		c0.07-0.64,0.02-1.29-0.16-1.92c-9.15-16.36-18.36-32.73-27.64-49.13l-2.73-2.19c-0.3-1.22-0.7-2.43-0.88-3.67
		c-0.63-4.23-3.18-6.64-7.18-7.73l-0.19-1.28c0.09-2.54,0.34-5.09,0.22-7.62c-0.06-1.1-0.88-2.16-1.35-3.24
		c-0.85,0.92-2.13,1.71-2.46,2.78c-0.53,2.21-0.91,4.46-1.12,6.73c-0.65,0.9-1.29,1.81-1.93,2.72v-0.05l-1.43-1.21l-0.66,0.23
		l0.83,2.5c-0.55,4.04-1.1,8.07-1.64,12.09l-2.74,0.6c-1.15,1.32-2.21,2.72-3.15,4.19c-1.65,2.99-3.09,6.12-4.58,9.19l-0.7,1.55
		c-1.03,2.06-2.06,4.12-3.09,6.18c-0.23,0.53-0.46,1.05-0.7,1.55l-0.81,1.55c-0.48,0.95-0.96,1.9-1.45,2.84
		c-1.81,3.7-3.61,7.4-5.41,11.1l-0.73,1.55l-7.13,15.45v1.55l0,0c-0.26,0.51-0.52,1.03-0.77,1.55l0,0c-2.08,1.48-3.87,1.2-5.29-0.95
		l-0.86-1.39l0.06,0.08l-0.88-3.87l1.22-0.94l-1.88-0.63c-1.95-4.25-3.9-8.51-5.85-12.76c-1.15-2.96-2.31-5.93-3.46-8.89
		c0.33-0.59,0.66-1.18,0.98-1.77l-1.93,0.29l-4.11-3.01l0.72-1.07l-1.6-0.45l0.13-2.48l2.7-3.09l2.44-1.1
		c2.18,0.22,4.48,0.68,5.16-2.37l3.21-1.96l2.59,0.19l0.19-0.71l-1.66-1.16c5.8-6.63,6.04-14.75,6.01-22.89
		c0-3.9-1.63-5.02-5.09-3.21c-3.46,1.81-6.61,4.29-9.89,6.48l-1.62,1.83c-1.31,1.55-2.63,3.09-3.93,4.64l-2.39,1.28l-10.54-4.3
		c-0.34-1.34-0.69-2.67-1.03-4c-0.2-0.9-0.4-1.82-0.6-2.72l0.09-0.91c-0.46-6.5,1.27-13.21-1.81-19.48l-0.46-2.78l3.96-3.7
		l2.98-1.04c0.13,0.01,0.26-0.01,0.38-0.05c8.63-4.39,15.51-18.24,13.73-27.65c-0.56-2.91-5.59-7.02-8.26-6.13
		c-6.08,2-12.01,4.48-18.01,6.76l-1.55-0.11l-0.29-3.87l-1.12-1.42c-0.36-1.86-0.72-3.72-1.07-5.58l-0.27-1.55l-2.62-12.45
		L302.42,451.02z M408.97,309.55l4.1-1.24c0.52-4.2-3.15-5.27-6-7.07l2.84-2.44l-4.9-3.2c0.34-1.07,0.95-2.13,0.97-3.2
		c0.11-6,0.15-12,0-18c0-1.51-0.45-2.99-1.31-4.24c-2.08-2.78-4.44-5.34-7.04-7.64c-1.21-1.02-3.92-1.85-4.97-1.2
		c-6.1,3.78-10.19,9.04-11.04,16.56c-0.56,4.9,2.93,9.63,0.34,14.53c-0.56,1.04-0.77,2.37-1.6,3.09c-1.81,1.7-0.97,2.59,0.68,3.46
		c0.91,0.25,1.84,0.77,2.74,0.7c2.19-0.12,3.5,0.52,3.46,2.92c0,0.22,0,0.43,0,0.64c-1.63,0.9-3.17,2.26-4.91,2.61
		c-5.15,1-7.64,4.11-8.26,9.08c-0.66,0-1.62,0.32-1.93,0c-1.39-1.46-2.61-3.09-3.93-4.73c-6.96,5.02-12.32,10.15-14.78,17.48
		c-3.87,11.54-7.51,23.16-10.91,34.85c-0.86,3.3-1.11,6.74-0.73,10.13c1.16,11.94,3.16,23.66,10.26,33.84
		c1.5,2.15,2.7,4.49,3.58,6.96c1.92,5.41,3.52,10.9,5.32,16.34c0.36,0.84,0.8,1.65,1.31,2.4l0.63-0.36
		c0.22-4.14,0.46-8.29,0.65-11.71c4.32,2.84,8.12,5.48,12.06,7.9c3.66,2.25,6.73,4.81,8.86,8.79c3.22,6.04,3.7,12.55,4.31,19.04
		c0.77,8.5,1.08,17.1,1.72,25.64c0.08,0.97,1.04,1.87,1.58,2.81l0.99-0.28c0.28-1.85,0.45-3.72,0.52-5.6
		c-0.16-9.53-0.95-19.09-0.4-28.56c0.23-3.95,2.32-8.87,5.21-11.32c4.08-3.42,9.69-5.07,14.77-7.21c3.16-1.34,5.92,0.2,7.67,2.73
		c1.68,2.28,2.86,4.88,3.47,7.64c1.21,6.96,1.86,13.98,2.77,20.97c0.15,1.18,0.48,2.32,0.73,3.52l1.65-0.12
		c0.08-2.81,0.39-5.63,0.19-8.42c-0.76-10.5-1.61-21-2.56-31.48c-0.45-4.85,1.76-8.44,5.01-11.6c11.2-10.74,16.52-23.96,14.69-39.25
		c-1.85-14.51-4.45-28.92-7.78-43.16c-1.92-8.4-4.89-16.69-13.04-21.89c-4.16-2.66-5.83-2.92-9.21,1.04
		c-0.77,0.9-2.02,1.4-3.05,2.08L408.97,309.55z M361.04,488.2c-0.41-1.07,0.97-3.56-2.04-2.56c0.01-1.93-0.12-3.86-0.39-5.77
		c-0.63-2.95-1.62-5.81-2.46-8.72c0.18-1.02,0.36-2.04,0.54-3.09c8.33-5.86,6.79-11.9,4.15-19.91c-0.69-2.29-3.1-3.59-5.39-2.9
		c-0.02,0.01-0.05,0.01-0.07,0.02c-1.12,0.34-1.46,3.22-2.16,4.96l-2.23,1.46l-6.96-4.64l-0.65-1.13l-0.9,1.23l-1.65,3.09
		l-0.95-0.15c-0.01,0.12-0.01,0.24,0,0.36c0.32,0.07,0.65,0.11,0.98,0.15c0.24,3.82,0.29,7.65,0.77,11.44
		c0.53,4.08,4.53,7.82,8.73,8.22c2.23,0.21,2.9,1.21,2.75,3.21l-1.28,1.04l1.48,1.24c0.07,0.62,0.14,1.23,0.22,1.85
		c0.39,2.93-0.53,6.69,4.34,6.77l-0.67,1.21c-1.05,1.99-2.41,3.87-3.09,5.98c-0.88,2.82,0.7,4.82,3.67,4.72
		c1.29-0.05,3.49-0.94,3.63-1.73C361.82,492.52,361.21,490.32,361.04,488.2z M426.87,520.28c4.73-0.24,8.14-6.42,6.32-10.68
		c-1.61-3.8-0.05-5.48,2.96-6.96c1.38-0.68,2.66-1.55,4.04-2.26c3.59-1.72,7.2-11.39,5.98-14.54c-1.62-4.17-3.02-8.44-4.73-12.58
		c-0.49-1.17-1.71-2.04-2.59-3.05c-1.02,1.03-1.98,2.11-2.88,3.25c-1.05,1.47-1.91,3.09-2.81,4.54l-10.54-8.12
		c-4.8,4.31-4.64,9.94-5.63,15.26l-5.63-1.28l10.99,12.24c-5.3,2.32-5.29,2.32-9.35,0.19c-0.58-0.3-1.79-0.5-1.96-0.26
		c-0.46,0.68-0.62,1.52-0.44,2.32c1.05,3.09,3.01,4.27,6.24,2.76c4-1.89,8.02-2.94,11.28,0.37c-0.44,6.35-0.86,12.45-1.3,18.81
		H426.87z M447.51,474.42l1.59,0.53c0.7-1.38,2.19-2.92,1.96-4.12c-1.1-5.61,2.26-8.68,5.73-12.06c1.55-1.5,3.09-3.96,3.01-5.92
		c-0.13-4.46-0.88-8.89-2.23-13.14c-1.38-4.14-4.73-4.32-7.69-0.94c-1.14,1.31-2.13,2.74-3.33,4.29c-2.37-2.06-4.38-3.81-6.4-5.55
		c-2.18-1.89-3.99-1.75-4.93,1.17c-0.92,2.65-1.65,5.37-2.19,8.12c-1.24,7.17,1.55,12.04,8.5,14.13c3.09,0.94,4.32,2.82,4.78,5.64
		c0.42,2.61,0.78,5.23,1.17,7.85H447.51z"/>
	<path class="st0" d="M524.73,388.3c-1.26,0.37-2.64,1.45-3.18-0.94c-2.17-9.46-4.42-18.9-6.64-28.35l-0.28-1.55
		c-1.55-3.16-0.46-5.13,2.83-5.98c5.25-1.35,10.82-1.86,15-5.9c3.62-3.51,7.18-7.07,10.78-10.61l1.75-2.23
		c0.97-2.31,1.95-4.63,2.94-6.96l0.97-1.47h3.2l2.17-0.65l2.88-2.53l0.2-1.55l-0.26-2.49c-0.49-0.95-0.97-1.91-1.45-2.86
		c-3.86-3.87-3.86-4.64,0.17-7.73l1.64-0.64l0.67,0.43v1.72l0.47,0.07c0.12-0.38,0.26-0.77,0.38-1.14l1.55,0.61
		c3.93,0.36,7.85,0.77,11.78,1.04c4.85,0.32,7.64,3.09,9.12,7.46l1.22,2.75c-0.56,1.6-1.14,3.19-1.82,5.11
		c1.87,2.79,10.2,3.56,13.71,0.89c0.69-0.36,1.44-0.6,2.21-0.71c0.09,2.5-0.49,5.83,2.85,6.18c2.65,0.29,5.53-0.77,8.16-1.71
		c0.47-0.17,0.71-2.73,0.18-3.7c-1.34-2.31-2.93-4.47-4.73-6.44c-1.02-1.16-2.49-1.91-4.14-3.09c-0.94,3.65-1.65,6.35-2.32,9.06
		c-0.49-0.24-1.38-0.45-1.41-0.73c-0.49-6.76-0.88-13.53-1.29-20.29h0.27l4.77,4.75l1.55,0.63c3.93,0.61,7.61,0.88,9.48-3.87
		c0.91-2.32,2.82-2.32,4.68-0.94c1.21,0.91,2.32,1.99,3.42,2.99l-1.33,1.66c-0.93,0.19-2.4,0.07-2.71,0.61
		c-1.96,3.41-5.13,4.39-9.03,4.45c1.69,2.24,3.42,3.87,4.31,5.9c0.89,2.38,3.03,4.07,5.55,4.38l0.6,0.33l-0.47-0.45l6.82-7.3
		l1.89,2.27l-2.27,3.09c-0.54,0.77-1.08,1.48-1.62,2.22c-0.83,0.94-1.49,2.15-2.51,2.77c-11.46,6.91-23.19,13.26-36,17.46
		l-3.25,2.23l-3.78,1l0.66,1.32l3.21-2.23c1.97,1.02,3.62,0.97,4.64-1.36c12.85-2.89,24.47-8.6,35.1-16.19
		c6.18-4.41,10.68-10.38,12.37-18.04c0.7-3.15,2.41-5.23,4.89-7.41c3.94-3.45,7.36-7.44,10.17-11.86c1.55-2.43,1.2-6.03,2.32-9.38
		c1.04,3.18,2.61,6.28,3.04,9.55c1.38,10.4,0.97,20.48-3.13,30.62c-7.73,19.08-21.2,31.92-39.95,39.37
		c-4.9,1.94-10.51,2.15-15.82,3.01c-11.67,1.91-23.45,3.32-35.01,5.74c-8.26,1.72-16.36,4.52-22.68,10.71h-2.32l6.18-13.54
		c1.3-0.82,2.82-1.42,3.86-2.5c7.85-8.11,17.84-12.2,28.35-15.38c1.06-0.32,2.09-0.77,3.09-1.14c-0.15-0.38-0.29-0.77-0.43-1.14
		l-17.9,5.41c-1.76-1.55-2.62-0.6-3.2,1.14l-10.82,9.44l-2.32-1.68c4.87-2.1,3.24-5.91,1.99-9.24c3.17-1.59,7.47,1.02,8.75-3.09
		l-2.97-3.87l13.53-2.08v-1.38c-1.07-0.83-2.06-2.19-3.24-2.37c-3.29-0.53-4.29-2.26-3.87-5.35c0.09-0.65-0.49-1.38-0.77-2.08
		l0.35-1.35l-0.47-0.05v1.34c-0.83,0.59-2.06,0.99-2.43,1.79c-1.51,3.31-3.05,6.4-6.87,7.73c-0.82,0.29-1.26,1.69-2,2.76l5.9,1.06
		c-0.58,0.66-1.25,1.24-1.99,1.7c-1,0.43-2.7,0.11-3.18,0.77c-2.59,3.45-4.91,7.09-6.96,10.89c-0.66,1.29,0.19,3.36,0.39,5.65
		l3.83-2.74c0,1.04,0,2.08,0,3.09l-0.9,1.27C533.49,373.79,529.12,381.05,524.73,388.3z M574.35,319.98l0.94,0.95l0.63-0.87
		c0.77-0.72,2.05-1.35,2.2-2.19c0.66-3.7-3.26-7.02-6.76-5.82c-2.2,0.77-4.34,1.72-7.64,3.05L574.35,319.98z M524.36,384.58
		c3.53-5.08,6.61-10.37,5.13-17.15c-0.44-1.62-0.44-3.33,0-4.95c1.16-3.18,2.84-6.18,4.64-9.95c-1.55-0.11-3.45-0.77-4.93-0.25
		c-3.93,1.43-7.66,3.39-11.5,5.16L524.36,384.58z M567.79,331.92c0.7-2.64,0.65-4.15,1.38-4.99c3.41-3.87,0.22-5.03-2.43-6.64
		c-3.09-1.88-4.35,0.19-5.6,2.39c-0.54,0.95-0.97,1.96-1.66,3.37L567.79,331.92z M574.74,337.11c4.32,2.47,12.87,0.82,14.79-2.56
		l-6.71-2.01L574.74,337.11z"/>
	<path class="st0" d="M537.67,571.13c1.79,0.69,3.94,0.95,5.29,2.14c4.46,3.97,8.44,8.5,12.95,12.37
		c4.51,3.86,9.89,6.87,11.19,13.14c0.87,4.24,0.83,8.65,1.21,12.99l0.14,9.44c0.45,41.67,0.91,83.33,1.38,124.99
		c-1.55-4.64-5.33-5.72-9.57-6.22c0,0-0.33,0.22-0.3,0.36c1.36,5.82-2.55,10.15-4.39,15c-2.32,6.02-5.19,11.8-7.73,17.45
		c0.08,0.22-0.19-0.19-0.19-0.59c-0.05-16.86-0.15-33.72-0.05-50.57c0-4.34,0.64-8.68,0.99-13.02c0.06-0.25,0.06-0.52,0-0.77
		c-4.33-12.03-1.03-24.43-1.74-36.63c-0.36-6.18,0.35-12.37,0-18.55c-0.22-3.95-1.43-7.85-2.12-11.37
		c0.18-6.79,0.35-13.44,0.53-20.1c0.13-1.13,0.36-2.26,0.39-3.39c0.29-13.19,0.93-26.4-2.66-39.33c-1.46-1.31-2.84-2.7-4.14-4.17
		C538.22,573.45,538.06,572.18,537.67,571.13z M551.71,665.43c-0.42,4.17-0.94,8.92-1.34,13.67c-0.07,0.91,0.21,1.82,0.77,2.54
		c0.64,0.7,1.75,0.96,3.2,1.68c-0.63-2.92-1.28-4.87-1.41-6.86c-0.09-1.55,0-4.17,0.77-4.55c1.75-0.75,3.73-0.75,5.47,0
		c2.8,1.46,2.47,4.22,1.37,7.91l-3.28-4.72l-0.97,0.23c0.11,1.38-0.11,2.91,0.39,4.13c1.24,3.05,2.8,5.96,4.72,9.95
		c1.24,0.51,3.04,0,3.21-3.03c0.19-3.32,0.63-6.75,0-9.95c-0.77-4.17-2.98-7.51-8.02-8.07
		C554.94,668.18,553.41,666.49,551.71,665.43z M549.13,636.35l-0.63,0.77c0.69,0.9,1.19,2.17,2.09,2.62
		c2.45,1.22,3.25,3.17,3.09,5.66c-0.23,4.1-0.6,8.18-0.82,12.28c0.02,1.1,0.12,2.21,0.31,3.29h2.01l1.95-14.27l0.82-0.43l3.78,5.83
		l0.69-0.17v-10.58L549.13,636.35z M557.09,600.96c-3.66-3.42-6.96-3.26-7.4,0.47c-0.35,3.09,1.04,6.66,2.54,9.56
		c1.13,2.16,7.07,2.32,9.35,0.9c2.96-1.79,4.46-7.51,2.58-10.64C562.15,597.88,559.61,598.87,557.09,600.96L557.09,600.96z
		 M556.23,716.91c1.34,1.84,2.57,3.74,3.7,5.71c0.46,1.21,0.66,2.5,0.59,3.79c0,0.18-1.55,0.77-1.84,0.51
		c-1.1-0.9-2.02-1.98-2.74-3.21c-0.59-1.07-0.67-2.42-1.07-3.97c-2.76,1.6-3.73,3.25-2.66,5.74c1.26,2.91,5.91,6.18,8.2,5.07
		c1.55-0.77,2.95-3.09,3.22-4.85c0.79-5.2-1.01-7.35-7.41-8.82V716.91z M556.81,699.04l-3.74,9.06h11.32l0.58-0.77
		c-2.95-2.47-2.47-7.95-8.16-8.31V699.04z M555.26,627.69c-0.55,5.8-0.55,5.8,6.72,8.26c0.52-2.27,1.03-4.55,1.66-7.34
		c-3.23,2.44-6.03,2.9-8.35-0.94L555.26,627.69z M564.62,656.93c-3.67,7.13-3.63,11,0,12.14V656.93z M553.7,620.8
		c-0.15,0.46-0.29,0.92-0.43,1.38c2.93,0.77,5.84,1.67,8.81,2.26c0.29,0.06,0.93-1.55,1.66-2.87L553.7,620.8z M557.34,663.01
		l2.32,0.49c0.29-2.61,0.58-5.21,0.87-7.82l-1.76-0.25c-0.47,2.51-0.95,5.04-1.42,7.56V663.01z M556.89,686.75l-2.45-0.09
		c0,1.92,0,3.86,0.1,5.77c0,0.05,1.55,0,2.32,0L556.89,686.75z"/>
	<path class="st0" d="M336.57,195.85c0.3-10.05,0.77-20.04,0.82-30.05c0-7.95,5.47-13.23,8.77-19.56c0.45-0.75,1.17-1.28,2.02-1.5
		c13.69-2.91,27.3-6.42,41.47-6.13c0.61,0,1.22,0.12,2.43,0.24c0,4.48,0.1,8.83-0.08,13.14c-0.18,1.1-0.77,2.09-1.65,2.76
		c-2.52,1.99-5.23,3.73-7.82,5.62c-3.74,2.72-7.53,2.09-11.16-0.04c-6.66-3.91-13.78-3.66-20.87-2.13
		c-1.55,0.35-3.71,2.71-3.83,4.28c-0.23,3.09,2.32,4.8,5.16,5.73v-0.04c4.82,4.3,10.57,3.77,15.75,1.78
		c8.09-3.09,15.81-7.23,23.83-10.98c0,0.51,0.15,1.44,0.15,2.37c0,19.19,0.07,38.39,0,57.58c0,1.17-0.73,2.32-1.11,3.49l-0.77-0.28
		v0.05l-0.79-0.8h0.05c-1.19-2.21-1.95-4.87-3.66-6.56c-6.18-6.13-13.01-11.6-18.96-17.96c-4.04-4.29-8.25-3.69-14.96-0.96
		c-1.13,1.28-4.31-1.17-4.22,2.32l-2.32,0.77l0,0c-3.42,1.75-5.33-0.99-7.62-2.56L336.57,195.85z"/>
	<path class="st0" d="M438.35,160.27c-3.09-4.09-7.73-3.01-11.68-2.94c-4.41,0.09-8.78,0.89-12.81,3.56c-2.67,1.78-6.08,1.68-9.5,0
		c-7.73-3.87-12.03-9.15-9.93-18.2c0.19-1.31,0.26-2.62,0.23-3.94c11.77-0.36,22.93,1.97,34.23,3.77
		c8.19,1.31,13.03,5.06,16.73,12.31c1.98,3.94,3.11,8.25,3.32,12.65c0.52,7.19,0.38,14.43,1.04,21.6c0.44,4.71-0.67,8.26-4.73,10.76
		c-3.76-1.55-7.45-3.41-11.32-4.64c-5-1.62-9.53-2.32-14.39,2.05c-8.63,7.75-17.97,14.76-23.71,25.25
		c-0.32-1.07-0.92-2.13-0.93-3.21c-0.1-20.18-0.16-40.35-0.19-60.53l1.16-0.43c8.06,4.1,15.97,8.5,24.26,12.11
		c2.75,1.19,6.46,0.15,9.74,0.12c3.09-1.78,6.41-3.25,9.16-5.46C440.38,164.02,440.66,161.6,438.35,160.27z"/>
	<path class="st0" d="M287.23,193.27c0.56-1.31,1.69-2.24-0.4-3.73c-7.47-5.32-14.69-10.98-21.99-16.55
		c-1.11-0.84-2.06-1.87-3.29-3.01c-6.39,5.77-12.64,11.43-19.19,17.36l-2.42-2.18l19.55-17.98c-2.45-3.6-4.86-7.17-7.27-10.73
		c2.01-1.47,3.87-3.98,6.05-4.22c5.41-0.61,10.98-0.2,16.64-0.2l0.96,4.45c4.78-3.87,9.9-5.41,15.89-4.24
		c-0.3-1.87-0.52-3.22-0.77-4.9c6.96-1.74,12.24,1.35,17.65,6.62c0.33-4.12,0.58-7.13,0.9-11.01c5.59,4.21,10.82,8.05,15.92,12.05
		c2.73,2.14,5.07,4.8,7.89,6.79c2.97,2.09,2.72,4.58,2.46,7.73c-0.71,8.56-0.92,17.15-1.29,25.73c0,0.32,0.38,0.64,0.58,0.97
		l1.86,2.4c0.98,2.16-0.53,1.91-1.83,1.91c-1.55,0-3.09,0.05-4.64,0.08h-0.77l-12.37-2.32c-0.43,10.82-0.82,20.87-1.21,30.84
		l-5.06,2.32c0.43-7.33,0.77-13.3,1.14-19.33c0.36-4.44,0.71-8.9,1.05-13.27l-22.54-6.96c-3.91,9.01-7.82,18.05-11.75,27.12
		l-2.69-1.55c1.04-3.09,1.96-5.76,2.88-8.45h-0.1l0.95-0.57L287.23,193.27z M269.34,163.61c1.83,2.23,3.6,4.51,5.56,6.62
		c0.37,0.4,1.48,0.12,2.25,0.14l1.96,1.21c-1.24,1.03-1.27,1.07,0.31,2.4c8.56,7.28,19.02,10.63,29.54,13.33
		c6.57,1.69,13.28,4.14,20.23,2.32c0.17-0.26,0.31-0.37,0.31-0.48c-0.14-5.41-0.24-10.82-0.44-16.23
		c-0.25-6.53-6.49-12.69-13.09-13.02l-49.27-2.49l-0.77,0.62l2.44,4.26L269.34,163.61z"/>
	<path class="st0" d="M475.32,229.91l-4.49,0.77c-0.65-10.49-1.29-20.99-1.97-32.03l-14.35,1.43l-5.5,0.65
		c5.71-10.65,1.8-21.4,1.47-31.97c-0.09-2.86,0-4.97,2.57-6.96c7.78-6.04,15.3-12.44,23.62-19.28c0.43,4.18,0.73,7.17,1.11,11.03
		c5.35-4.37,10.54-8.02,17.7-6.18l-0.77,3.64l16.06,4.21c0.12-0.63,0.4-1.96,0.77-3.87c7.12,1.34,14.69-1.63,21.24,3.14
		c0.6,0.43,0.87,1.33,1.29,2.01l-7.37,10.95l18.88,16.4c-0.16,1.21-0.32,2.4-0.59,4.39l-19.95-18.06
		c-5.18,4.32-10.18,8.69-15.4,12.77c-3.09,2.43-6.62,4.34-9.85,6.63c-0.64,0.46-0.77,1.62-1.15,2.47
		c3.66,7.78,7.32,15.56,10.98,23.34l-0.94,3.33l-0.77,0.37c-0.21-0.09-0.43-0.16-0.66-0.21l-11.52-26.96l-22.72,7.01
		c0.73,9.08,1.45,18.15,2.16,27.19c0.08,1.01,0.15,2.02,0.22,3.03L475.32,229.91z M464.06,164.21c-2.03-0.73-6.35,2.1-6.45,4.8
		c-0.26,6.88-0.09,13.77-0.09,20.69c23.8,1.32,57.2-14.12,62.91-32.41c-4.64,0.56-9.2,1.43-13.77,1.62
		c-12.21,0.49-24.43,0.67-36.63,1.05c-2.03,0.06-4.51-0.29-4.69,2.9L464.06,164.21z"/>
	<path class="st0" d="M494.67,432.4c2.07-2.49,4.24-2.32,6.71-0.47c2.15,1.62,4.54,2.91,6.74,4.46c0.69,0.45,1.2,1.14,1.42,1.94
		c0.32,2.1,0,4.47,3.09,4.71c0.42,4.8,5.36,5.99,7.54,9.42c1.55,2.46,2.32,4.64-1.02,6.31c2.01,1.23,3.87,2.32,5.6,3.44
		c0.77,0.49,1.86,1.07,1.97,1.76c0.77,4.64,1.41,9.28,1.9,13.91c0,0.38-1.31,0.9-2.02,1.35c4.81,4.23,6.11,12,2.98,17.83l5.31,5.98
		l-5.12,4.85c3.87,1.09,3.32,3.87,3.09,6.66c-0.14,1.88,0.46,3.8,0.36,5.69c-0.2,1.52-0.59,3.01-1.17,4.43
		c-0.15,0.47-1.03,0.91-0.95,1.22c1.35,5.53-2.12,2.09-3.52,2.04l-6.04,10l-0.5-0.33c0.63-9.04,1.46-18.07,1.82-27.13
		c0.16-4.07-0.68-8.19-0.86-12.28c-0.06-1.42,0.49-2.87,0.73-4.07c-0.77-2.09-1.62-4.15-2.2-6.3c-3.3-11.9-6.18-23.96-9.96-35.67
		c-1.55-4.75-4.99-8.91-7.73-13.25c-0.41-0.66-1.6-0.83-2.83-0.94c11.77,16.03,12.21,35.65,18.66,54.34
		c-5.71,0.6-10.64,1.28-15.58,1.5c-0.82,0-2.26-1.78-2.5-2.92c-0.65-3.22-0.77-6.55-1.25-9.81c-0.07-0.5-1-0.87-1.55-1.31l-0.67-6.6
		c0.48-0.17,1.36-0.32,1.37-0.51c0.15-3.55,0.21-7.1,0.26-10.66c0.14-9.17-2.06-17.9-5.03-26.48l0.58-3
		C494.55,432.5,494.65,432.46,494.67,432.4z"/>
	<path class="st0" d="M487.82,335.65c0.65-2.46,1.3-4.92,1.94-7.38c0.65-0.05,1.58,0.17,1.89-0.18
		c10.13-11.51,21.93-21.54,30.29-34.62c0.83-1.29,2.97-1.74,4.49-2.58l1.62,0.13l-0.07-0.06c0,0.3-0.04,0.6-0.05,0.9l0.89-0.05
		l-0.05-0.05l5.32,6.45c2.01,4.45,5.69,7.26,9.68,9.76c-3.2,4.27-6.01,8.92-9.67,12.76c-12.5,13.14-25.29,26.03-38,38.98
		c-0.65,0.46-1.37,0.8-2.13,1.01c0-4.07,0.22-8.16-0.19-12.19c-0.41-4.03-1.48-7.88-2.26-11.83L487.82,335.65z"/>
	<path class="st0" d="M295.27,357.48c-0.19,1.48-0.37,2.96-0.64,5.15c-6.57-6.41-12.89-12.19-18.76-18.38
		c-10.23-10.82-20.22-21.83-30.24-32.84c-0.77-0.84-0.92-2.24-1.36-3.39c0.07-0.08,0.21-0.16,0.2-0.23
		c-0.03-0.18-0.08-0.35-0.15-0.51l0,0c0.6-0.14,1.4-0.08,1.78-0.44c4.53-4.44,9.01-8.92,13.45-13.46c0.56-0.56,0.67-1.55,1-2.36
		h-0.05c1.14,0.56,2.57,0.87,3.37,1.74c10.41,11.34,20.77,22.71,31.06,34.11c0.45,0.62,0.83,1.28,1.13,1.99
		c0.39,2.46,1.23,4.94,1.09,7.36C296.72,343.34,295.92,350.4,295.27,357.48z"/>
	<path class="st0" d="M569.42,611.69v-8.63c0.69,0.38,1.35,0.84,1.95,1.35c8.24,8.84,18.85,14.49,28.6,21.26
		c2.16,1.5,4.99,2.03,7.34,3.29c0.77,0.43,1.13,1.78,1.67,2.71c-1.79,1.82-3.65,3.59-5.36,5.48c-7.78,8.52-15.53,17.06-23.26,25.63
		l-3.73,4.64l0.04-0.04c-3.7,0.36-3.01-2.81-3.77-4.75c-4.53-11.6-2.19-23.81-3.13-35.73c-0.15-1.92-0.09-3.87-0.12-5.8
		L569.42,611.69z"/>
	<path class="st0" d="M497.19,473.16l0.67,6.6c-0.25,2.68-0.49,5.36-0.77,8.05c-0.25,2.43-0.54,4.87-0.82,7.3l-3.82-4.29l-1.08,1.04
		l4.17,4.33l0.73,2.75c0,0.77-0.07,1.55-0.11,2.32c-3.4,9.08-5.58,18.76-12.55,26.13c-0.97,0.88-2,1.68-3.09,2.4
		c-0.77-1.07-1.55-2.16-2.39-3.2c-0.63-0.77-1.31-1.51-1.98-2.26c0,0,0-0.05-0.04-0.25c0.56-0.27,1.6-0.54,1.59-0.77
		c0.02-1.93-0.14-3.85-0.48-5.74c-1.31-6.25-2.13-12.37,1.29-18.32c0.41-0.94,0.63-1.95,0.66-2.97c1.03-8.41,2.03-16.81,3-25.22
		c0.43-3.73,0.77-7.46,1.19-11.19l-0.92-0.06l-0.63,0.97c0.6-2.32,1.21-4.59,1.82-6.89c2.13-1.69,5.41-3.01,6.14-5.17
		c1.08-3.25,0.87-7.32-3.66-8.2l3.09-13.4l0.77-0.15c0.6,1.58,1.19,3.15,1.78,4.73c0.25,1.29,0.49,2.57,0.73,3.87
		c1.6,8.57,3.42,17.11,4.7,25.74C497.74,465.16,497.22,469.19,497.19,473.16z"/>
	<path class="st0" d="M279.11,209.05c-1.23,1.38-2.4,2.82-3.49,4.32c-1.63,2.44-3.09,5.01-4.55,7.45
		c-10.68-2.78-24.32-13.34-32.54-27.16l22.59-20.42l24.98,19.56c-2.35,4.91-4.7,9.8-7.04,14.69l-0.05,1.55L279.11,209.05z"/>
	<path class="st0" d="M500.32,192.16l25.05-18.74l22.53,20.31c-8.12,12.37-18.13,22.18-32.47,27.24l-3.93-6.18L500.32,192.16z"/>
	<path class="st0" d="M347.08,198.28c-0.09-3.49,3.09-1.04,4.22-2.32c1.66,0,3.46,0.32,4.97-0.19c3.15-1.08,5.35,0,7.64,2.04
		c3.79,3.48,7.77,6.73,11.93,9.76c2.84,1.98,2.84,4.13,1.35,6.45c-1.04,1.64-2.85,2.79-4.27,4.21c-1.41,1.41-3.09,2.62-3.9,4.28
		c-0.99,2.03-1.21,4.43-1.75,6.67c-1.38,5.29-2.75,10.57-4.14,15.86c-0.53-0.28-1.55-0.6-1.49-0.84c0.16-1.38,0.39-2.76,0.7-4.11
		c2.68-10.21,3.27-20.87,1.74-31.31l-8.77,5.53c0.22,0.4,0.44,0.77,0.66,1.21l3.46-1.17l3.09,1.7l-1.55,24.02
		c-0.5,0.96-1,1.91-1.86,3.54c-6.64-8.1-8.94-16.39-4.85-26.13l-1.66-0.48l-17.05,23.82l-0.77,0.05c-0.21-0.82-0.36-1.66-0.43-2.5
		c0-9.52,0.11-19.05,0.17-28.6c0-2.27,0-4.54,0-7.04c1.63,0,3.09,0.39,4.14-0.09c2.13-1.08,4.19-2.29,6.16-3.63l0,0L347.08,198.28z"
		/>
	<path class="st0" d="M476.15,524.1c0.04,0.19,0.05,0.28,0.04,0.25c0.1,0.9,0.13,1.8,0.3,2.67c0.9,4.68,3.44,6.08,7.9,4.34
		c0.69-0.38,1.34-0.82,1.94-1.31c0.73,28.72-0.18,56.92-5.69,84.79l-0.97,0.06c-0.93-1.45-1.82-2.92-2.78-4.35s-2.07-2.91-3.72-5.21
		l2.98-0.9l-0.65-0.91h-3.33c0-5.77-0.1-11.32,0.09-16.86c0.22-1.23,0.91-2.32,1.94-3.04c3.28-2.32,6.72-4.41,10.57-6.88
		c-5.22-0.89-8.94,4.82-13.98,2.32c0.33-8.45-2.61-16.97,1.99-25.66c-3.39-3.46-3.2-8.43-2.87-13.45c0.26-2.85,0.52-5.71,0.77-8.56
		c1.02-6.76-0.52-13.98,4.28-20.21C475.36,515.48,475.75,519.78,476.15,524.1z"/>
	<path class="st0" d="M617.61,636.4c0.83,0.6,2.06,1.04,2.41,1.84c2.07,4.79,3.87,9.72,5.91,14.51c1.55,3.51,1.78,6.52-1.79,8.95
		c-0.68,0.57-1.31,1.2-1.87,1.89c-1.16,0.77-2.25,1.64-3.25,2.6c-5.03,5.79-9.98,11.65-14.96,17.49l-0.19,0.06l-1.28,3.45
		l-20.48-9.38l1.67-4.16c2.09-3.32,3.7-7.09,6.35-9.86C599.08,654.49,608.41,645.51,617.61,636.4z"/>
	<path class="st0" d="M614.63,183.39l-1.46-0.83c0.31-0.28,0.53-0.63,0.81-0.71c15.07-3.87,24.44-14.76,33.12-26.58
		c0.87-1.19,1.87-2.84,3.09-3.14c4.13-1,6.62-3.87,9.44-6.69c6.39-6.42,13.2-12.43,19.83-18.61c0.09,1.18,0.06,2.37-0.09,3.55
		c-1.49,6.27-3.55,12.45-4.55,18.79c-1.21,7.61-2.84,14.9-9.21,19.98c-2.61,2.09-2.61,4.28-1.86,7.1c0.43,1.55,0.2,3.32,0.27,4.99
		c0,0.52,0,1.04,0,1.55v-0.1c-0.86-0.27-1.68-0.66-2.43-1.16c-5.95-5.41-13.26-4.71-18.3,1.55c-3.32,4.11-7.12,7.88-7.05,13.73
		c0,0.16-1.01,0.34-1.55,0.51l-5.41-4.08v0.1c1.7-1.08,4.76,0.72,5.35-2.97c0.38-2.37,1.78-4.58,2.82-6.83
		c1.34-2.87,2.96-5.62,4.07-8.57c0.43-1.17-0.21-2.74-0.44-4.92c-2.21,1.45-3.64,2.25-4.91,3.25c-2.74,2.19-5.3,4.64-8.13,6.68
		c-2.05,1.48-4.42,2.52-7.13,4.03c1.89,1.62,3.58,2.93,5.11,4.4c0.92,0.89,2.14,2.18-0.61,2.18L614.63,183.39z M670.44,144.14
		c-5.83,4.2-9.43,13.14-6.18,15.39l2.9-1.38l2.03,2.83C672.29,156.44,672.89,147.34,670.44,144.14z M659.47,164.36l0.46,0.84
		c0.94-0.77,2.25-1.45,2.71-2.47c0.3-0.66-0.36-2.16-1.04-2.81c-2.67-2.57-7.51-3.17-10.64-1.21c-1.08,0.67-1.63,2.21-2.42,3.35
		c1.37,0.9,2.64,2.32,4.11,2.58C654.86,164.99,657.19,164.53,659.47,164.36z"/>
	<path class="st0" d="M376.43,804.29c-0.45-4.09-0.91-8.18-1.36-12.28l-0.16-2.4l-0.56-6.1l-0.21-3.18
		c-0.17-1.78-0.33-3.56-0.5-5.33l-0.26-3.18l0.06-7.57c1.68-4.64,3.39-9.28,4.98-13.91c0.2-0.6-0.26-1.43-0.41-2.15l0,0
		c0.56-0.42,1.39-0.72,1.62-1.26c1.86-4.55,2.04-9.61,0.51-14.29l2.64-0.09c1.23,0,2.46,0,3.68-0.06c0.56,2.39,4.23,4.25,1.01,7.46
		c-0.42,0.42,1.78,3.64,2.98,5.41c1.45,2.13,2.32,4.05,0,5.48c1.12,4.94,2.18,9.59,3.24,14.23l-1.11,0.84l-11.6-6.4l-0.94,0.87
		c0.58,1.06,0.94,2.32,1.77,3.15c3.29,3.26,6.74,6.35,10.05,9.58c0.77,0.77,1.83,1.76,1.86,2.67c0,1.41-0.71,2.84-1.12,4.27
		l-4.32-1.55l-0.73-0.58l-0.07,1.19c0.08,0.23,0.08,0.58,0.24,0.69c5.15,3.37,3.55,7.58,1.42,12l-3.16-0.95l-0.86-0.26l0.12,0.9
		c3.96,3.87,2.77,7.83,0.64,12.14c-2.54,5.16-5.13,10.4-4,16.52c0.11,0.56-0.52,1.26-0.77,1.89c-1.17-3.33-2.36-6.66-3.54-9.99
		l-0.3-1.63l-0.65-4.55L376.43,804.29z"/>
	<path class="st0" d="M535.33,157.51c2.4-6.53,7.42-7.12,13.54-6.65c9.28,0.72,18.66,0.7,29.37,1.03l-23.59,35.2l-7.93-5.87
		l-16.67-13.76C531.88,164.02,533.6,160.76,535.33,157.51z"/>
	<path class="st0" d="M236.59,183.56l-4.91,3.43l-23.56-35.13c13.21-0.39,24.99-0.77,36.77-1.01c0.97,0,2.14,1.07,2.92,1.91
		c0.97,1.19,1.85,2.44,2.64,3.75c1.51,2.81,2.93,5.66,4.56,8.39c1.24,2.07,0.77,3.26-1.12,4.72
		C248.02,174.14,242.33,178.9,236.59,183.56z"/>
	<path class="st0" d="M310.84,212.17c-0.7,8.78-1.41,17.55-2.13,26.4c-7.97,0.32-14.03-3.56-20.48-6.18
		c-1.16-0.54-2.28-1.17-3.35-1.87c-6.66-3.87-6.66-3.87-4.4-11.26l11.87-24.58l18.49,6.65V212.17z"/>
	<path class="st0" d="M506.24,219.91l0.6,2.23l0.32,1.61c0.47,2.25-0.15,3.8-2.43,4.83c-6.65,3.01-13.14,6.34-19.87,9.28
		c-1.91,0.83-4.27,0.65-6.69,0.97c-0.28-1.25-0.51-2.32-0.77-3.4c-0.15-0.77-0.31-1.55-0.46-2.37c-0.1-1.21-0.19-2.4-0.29-3.61
		v-0.05c-0.15-1.1-0.32-2.2-0.48-3.3v-25.02l17.82-6.4L506.24,219.91z"/>
	<path class="st0" d="M532.65,567.7l3.87,3.15c-0.77,0.84-1.51,1.69-2.49,2.81l7.82,4.94c0.77,6.89,1.79,13.75,2.19,20.65
		c0.4,7.06,0.17,14.15,0.22,21.23c-3.98-3.9-8.09-7.73-11.92-11.75c-5.72-6.06-11.26-12.31-16.87-18.48
		c-0.93-5.58-1.89-11.17-2.74-16.77c-0.05-0.35,0.69-0.77,1.06-1.21l2.61-0.59L532.65,567.7z"/>
	<path class="st0" d="M444.53,201.35l6.88,1.82l2.26,4.8l0.16-0.09c-0.59,0.38-1.69,0.77-1.7,1.13c-0.15,7.81-0.19,15.62-0.24,23.43
		c0.14,1.84,0.29,3.68,0.43,5.52l1.51,0.92v-0.2l-1.39,2.91c-0.77-0.77-1.55-1.55-2.21-2.37c-5.54-7.03-11.04-14.06-16.51-21.08
		l-1.45-1.45l-1.22-1.46c-2.03-3.44-5.3-4.82-9.39-5.85c-0.78,8.66-0.33,17.39,1.31,25.93c0.61,2.46,1.21,4.92,1.82,7.37
		c0.48,3.34,0.48,3.34-1.39,2.73c-0.93-3.74-1.76-7.51-2.8-11.22c-1.9-6.8-1.99-14.28-9.89-18.3c-3.87-1.96-3.19-5.69,0.34-8.61
		c4.26-3.52,8.45-7.15,12.88-10.45c1.24-0.93,3.42-1.55,4.81-1.14C434.03,197.32,439.23,199.43,444.53,201.35z"/>
	<path class="st0" d="M176.03,236.99l-3.8-2.18v0.09l5.23-5.56l2.7-2.5h-0.05l0.77-0.15l2.73-1.41c5.57,5.67,10.82,11.6,17.78,15.58
		l0.87-0.98c-5.86-5.17-11.73-10.39-17.85-15.85l4.32-3.36l6.12-3.73l5.41,2.2l2.32,2.27l1.46,1.8l3.18,2.08h-0.04
		c0.22,0.7,0.44,1.4,0.66,2.09l3.24,2.55l-0.06-0.05l0.83,0.83l-0.05-0.05l5.47,4.59l2.25,5.41l-2.45-1.27
		c-4.03,3.5-8.02,6.96-12,10.44c-2.7,2.32-5.37,4.75-8.05,7.12l-4.16-4.12l-9.11-10.64c-0.69-0.49-1.38-0.99-2.06-1.49l-2.55-1.66
		L176.03,236.99z M205.67,243.06l-0.1-0.08l0.08,0.09c0.26,0.45,0.51,0.9,0.77,1.35h-0.09L205.67,243.06z M212.05,236.28l0.58,0.13
		l0.37-1.37l-0.64-0.16L212.05,236.28z"/>
	<path class="st0" d="M209.64,274.85l0.72-0.7c2.16-0.77,4.81-1.08,6.39-2.53c5.09-4.64,9.79-9.73,14.59-14.69
		c0.16-0.16-0.12-0.77-0.19-1.16l-0.77-0.98l2.32,1.09l2.44-0.24l4.56,4.39l6.87,3.25c3.96,4.64,8.16,9.09,9.38,15.46
		c0.21,1.1,1.6,2.21,2.71,2.84c5.03,2.88,5.06,2.81,1.96,7.96c-0.23,0.39-0.07,1-0.1,1.51l0.05-0.04c-0.85,0.42-1.87,0.64-2.5,1.27
		c-2.87,2.83-5.62,5.77-8.84,9.11c-0.13-5.84-1.7-8.57-6.79-12.65l-1.06-0.99c-3.19-5.99-8.31-10.23-13.23-14.69
		c-2.42-2.19-4.71-2.93-7.34-0.67c-3.39,2.89-6.73,5.86-10.39,9.05C210.15,279.35,209.9,277.1,209.64,274.85z"/>
	<path class="st0" d="M629.28,193.27v-0.1c0.14,0.64,0.07,1.48,0.46,1.88c1.37,1.43,2.9,2.71,4.36,4.04v0.19
		c-1.55,2.15-3.22,4.24-4.7,6.45c-3.67,5.47-7.27,10.99-10.9,16.5h-3.13l-10.05-7.71c-0.17-4.64-3.87-4.14-6.81-4.68
		c-1.86-4.11,0.19-7.42,2.2-10.74l7.79-10.82c1.62-1.85,2.67-4.64,6.04-3.6l10.82,6.76l3.25,1.04v0.1L629.28,193.27z"/>
	<path class="st0" d="M401.24,718.35c4.74-1.9,9.22-2.9,14.59-1.17c2.85,0.92,6.76-1.43,10.63-2.43c0,3.09-0.04,5.22,0,7.36
		c0.02,3.13,1.6,6.04,4.21,7.77c1.05,0.77,1.31,2.62,1.93,3.97c0.07,0.77,0.13,1.48,0.19,2.21l-0.19,1.04
		c-1.58-1.55-3.01-2.62-5.6-1.42c-1.37,0.63-3.52-0.11-5.23-0.57c-10.16-2.74-20.52-3.01-30.92-2.92c-1.12,0-2.26-0.92-3.39-1.41
		l-6.43-0.87V716.8h3.18l6.18,0.09L401.24,718.35z"/>
	<path class="st0" d="M549.66,257.78l4.64-1.46c1.79,1.17,3.76,2.13,5.33,3.53c4.34,3.87,8.5,7.93,12.74,11.91l0.3,1.93
		c-1.06-0.09-2.32,0.14-3.15-0.33c-1.76-0.96-3.23-2.44-4.99-3.43c-1.99-1.13-2.14-0.96-3.3,1.76l0.05-0.05l-2.51,1.5
		c-7.07,7.15-14.12,14.32-21.26,21.4c-0.81,0.82-2.14,1.12-3.23,1.65l-5.49-4.46l0.05,0.05l-0.83-0.84l0.07,0.06
		c-0.53-0.53-1.04-1.07-1.55-1.59l-1.41-1.99c3.04-4.94,5.87-9.55,8.7-14.15l11.68-11.46c0.87-1.1,1.74-2.21,2.61-3.33l-0.08,0.05
		L549.66,257.78z"/>
	<path class="st0" d="M497.09,527.91c2.37,1.73,4.9,3.29,7.1,5.23c3.49,3.09,7.1,6.18,7.54,11.34c0.19,1.1,0.39,2.2,0.57,3.29
		c-0.42,6.15-0.83,12.31-1.24,18.46c0.51,6.61,1.03,13.21,1.5,19.83c0.01,0.9-0.05,1.81-0.18,2.71c-4.72-4-9.72-7.73-14.07-12.09
		c-3.19-3.2-3.87-7.59-2.95-12.15c0.19-1.51,0.24-3.03,0.15-4.55l-0.04,0.1c0.42-0.77,0.83-1.55,1.24-2.32
		c-0.19-3.95-0.37-7.91-0.63-11.87c-0.47-0.11-0.94-0.17-1.42-0.19c0.1-0.23,0.1-0.49,0-0.72l1.45-0.32
		c-1.99-4.87,3.09-9.79-0.07-14.69C495.89,529.61,496.75,528.61,497.09,527.91z"/>
	<path class="st0" d="M640.53,242.67c5.98-0.87,6.79-6.27,8.94-10.5l1.27,0.19c-0.43,6.23-0.25,12.58-1.43,18.68
		c-1.88,9.7-7.19,17.49-16.83,20.87c-4.45,1.55-9.57,1.39-14.4,1.55c-3.68,0.13-7.38-0.46-11.71-0.77l-2.21-4.64l4.24-0.9
		c4.33,0.42,7.63-1.38,11.12-3.91c4.85-3.51,10.5-6.06,13.53-11.55c0.99-1.8,0.89-4.2,1.28-6.32l3.34-1.95L640.53,242.67z"/>
	<path class="st0" d="M683.39,125.6c5-11.04,11.12-16.16,17.01-20.33c-0.2,0.98-0.15,1.73-0.49,2.25
		c-10.75,17.08-14.97,36.47-19.57,55.72c-2.2,9.21-7.67,18.71-14.93,24.69c-0.52-1.99-0.94-3.6-1.36-5.22v0.1l0.89-0.6
		c1.3-1.12,3.34-1.96,1.82-4.25c-2.47-3.72-0.66-6.26,2-9c4.72-4.84,7.06-10.85,7.67-17.57c0.17-3.19,0.65-6.35,1.43-9.45
		C679.45,136.41,681.52,131.03,683.39,125.6z"/>
	<path class="st0" d="M329.69,200.59h0.77c0.46,1.08,1.21,2.13,1.35,3.25c0.45,3.18,0.71,6.38,0.77,9.59
		c0,9.11-0.13,18.22-0.22,27.33c-0.59,0.32-1.19,0.94-1.76,0.92c-4.48-0.17-8.95-0.47-13.78-0.77c0.19-4.09,0.37-7.9,0.56-11.72
		c0.65-9.4,1.31-18.8,1.92-27.7L329.69,200.59z"/>
	<path class="st0" d="M511.46,524.94c-1.8,0.07-4.89,0.73-5.17,0.11c-1.11-2.44-1.44-5.26-1.79-7.98c-0.09-0.7,0.77-1.55,1.38-2.65
		c-4.25-0.12-4.72-2.61-4.44-6.02c0.31-3.69,0.07-7.43,0.07-10.9l17.36-2.75c2.62,12.5,0.89,25.35-0.15,38.21l-1.45,0.39
		c-1.14,0.39-3.09,1.35-3.27,1.06c-1.27-1.72-2.26-3.63-2.92-5.66c-0.26-0.85,0.71-2.08,1.13-3.14c0-0.4,0-0.77,0-1.21
		L511.46,524.94z"/>
	<path class="st0" d="M453.81,207.88l-0.16,0.09l0.97-6.45h12.37c0.12,1.38,0.29,3.02,0.4,4.64c0.62,8.69,1.24,17.38,1.86,26.07
		v8.62l-14.52,1l-0.91-3.15v0.19l0.05-1.24l-0.12-6.18C453.78,223.61,453.81,215.75,453.81,207.88z"/>
	<path class="st0" d="M483.95,681.55c0.52-4.55,1.38-9.08,1.4-13.63c0-2.14,0.46-3.37,2.32-3.52c4.7-0.36,9.43-0.59,14.15-0.53
		c2.03,0,2.98,1.38,1.72,3.45c-0.32,1.25-1,2.54-0.87,3.74c0.63,6.22,3.71,10.68,9.85,12.68c2.18,1.72,1.38,3.27-0.65,3.95
		c-3.97,1.34-8.05,3.09-12.12,3.18c-5.19,0.13-10.4-1.17-15.6-1.95c-0.39-0.05-0.68-0.84-1.01-1.29
		C485.85,685.94,483.51,683.56,483.95,681.55z"/>
	<path class="st0" d="M494.71,544.97c0.1,0.23,0.1,0.49,0,0.72c0.26,4,0.52,8,0.77,11.99l0.05,2.39l0.04-0.1
		c-2.99,3.52-2.25,9.06-0.91,14.15c1,3.82,1.15,7.86,1.68,11.8l-1.28,0.45l-3.87-1.79l-0.6,0.66c1.18,1.14,2.59,2.12,3.48,3.46
		c0.89,1.34,2.32,3.53,1.9,4.73c-1.02,2.71-3.18,4.96-4.64,7.54c-1.46,2.57-2.67,5.41-4.03,8.11c-0.47,0.94-1.07,1.83-2.16,3.66
		c-0.27-1.74-0.49-2.25-0.4-2.71c4.78-25.69,5.07-51.63,3.72-77.59c-0.33-6.35,1.95-11.1,5.08-15.93h1.16
		c0.05,4.16,0.1,8.32,0.15,12.48C494.8,534.32,494.75,539.66,494.71,544.97z"/>
	<path class="st0" d="M505.6,270.15c-0.34,0.63-0.52,1.55-1.04,1.84c-2.63,1.44-5.34,2.71-8.38,4.22c0-3.16-0.31-6.35,0.07-9.46
		c0.66-5.48,1.69-10.92,2.69-16.35c1.28-6.96,6.28-10.37,13.41-10.14c4.12,0.12,8.26-0.98,12.41-1.11c3.7-0.03,7.4,0.19,11.08,0.65
		c0.49,0.05,1.24,1.38,1.21,2.09c-0.29,7.73,3.69,13.06,10.87,14.42l0.09,2.26l0.08-0.05c-8.88-0.65-13.91-4.55-14.74-11.49
		c0-0.28,0-0.55,0-0.82c-0.14-0.52-0.34-1.02-0.6-1.49c-4.47,0.77-8.91,1.55-13.36,2.32c-6.62,0-11.5,2.43-12.72,9.54
		c-0.6,3.45-0.77,6.96-1.2,10.45C505.55,268.11,505.6,269.12,505.6,270.15z"/>
	<path class="st0" d="M560.43,301.91c-3.51,1.07-6.6,2.32-8.77,5.86c-1.67,2.77-4.39,0.26-6.58-0.59c-1.35-1.14-2.61-2.4-4.05-3.42
		c-4.72-3.32-4.86-3.82-0.97-8.22c6.59-7.45,13.26-14.82,19.9-22.22l1.28-1.68l-0.05,0.05l5.81,2.07l-0.32,1.08
		c-0.62,0.07-1.22,0.24-1.79,0.51c-1.21,0.84-2.32,1.82-3.46,2.76c1.07,0.85,2.2,1.63,3.39,2.32c2.26,1.12,4.6,2.13,6.96,3.02
		c0.63,0.23,1.48-0.12,2.23-0.21l1.12,1.21c-3.63-0.46-8.59,3.24-10.44,7.78c-1.55,0-3.2-0.42-4.51,0.11
		c-1.55,0.64-2.84,2.08-4.24,3.17c1.21,1.2,2.26,2.68,3.7,3.49c1.14,0.64,2.77,0.35,4.14,0.64c1.62,0.35,3.21,0.87,4.81,1.32
		l-0.19,0.47L560.43,301.91z"/>
	<path class="st0" d="M230.35,254.79c0.26,0.33,0.53,0.66,0.77,0.98c-3.03,2.71-6.1,5.41-9.08,8.12c-2.72,2.51-5.3,5.18-8.08,7.62
		c-0.71,0.63-1.95,0.66-2.95,0.96c-4.01-3.39-8.09-6.7-11.98-10.23c-0.97-0.88-1.31-2.45-1.93-3.7c6.29-5.36,12.54-10.78,18.93-16
		c0.66-0.55,2.2,0,3.32,0L230.35,254.79z"/>
	<path class="st0" d="M241.1,259.14l-1.69-1.8c4.35-0.73,7.73-2.07,9.38-6.32c1.42-3.59,3.87-6.78,1.07-10.82
		c10.53-1.96,20.64-0.48,30.7,1.55c4.51,0.9,7.03,4.17,7.58,8.56c0.98,7.73,1.62,15.54,2.43,23.58c-3.29-0.77-5.59-2.01-5.48-5.75
		c-0.08-1.15-0.28-2.29-0.6-3.4c-0.96-2.98-1.94-5.95-2.91-8.93l-0.99-0.32l0,0c0-3.25-2-5.83-5.09-6.01
		c-5.75-0.34-11.52-0.56-17.28-0.63c-0.83,0-1.69,1.07-2.53,1.65c-3.09,2.65-6.1,5.51-9.45,7.84
		C244.96,259.2,242.84,258.9,241.1,259.14z"/>
	<path class="st0" d="M430.51,688.91l-8.45-0.69l-0.68-0.66l-0.29-0.72c0.1-5.41,0.2-10.82,0.29-16.23c2.81-0.58,4.36,0.6,5.47,3.24
		c1.21,2.89,2.98,5.55,4.51,8.31l4.46,4l3.39-4.04c2.02-2.58,4.04-5.12,6.06-7.64l3.22-4.71l0.63-0.56l1.59-0.39l0.77,0.36
		c0.48,5.19-1.03,10.6,0.94,15.61l1.39-0.08v-15.46l2.32-1.01c2.79,0.35,6.08-2.44,8.33,1.33c0,1.14,0.09,2.32,0,3.41
		c-0.4,4.1-0.88,8.18-1.33,12.27c-0.27,0.73-0.53,1.45-0.77,2.19l-4.54,0.53l-5.5,0.17l-0.77-2.93c-0.43,1.73-0.59,2.36-0.77,2.99
		L430.51,688.91z"/>
	<path class="st0" d="M569.02,236.92c-0.48-0.86-1.28-1.67-1.38-2.57c-0.65-5.27-3.87-8.39-8.89-8.46
		c-5.41-0.09-6.77,1.31-7.69,7.73c-0.05,0.38-0.17,0.77-0.51,2.26l-2.43-8.27c0.26-3.61,0.52-7.21,0.77-10.82
		c1.55-3.57,4.37-5.41,8.06-6.18c1.99-0.44,3.91-1.13,5.87-1.69c5.34-1.55,5.23-1.44,8.09,3.52c1.39,2.43,3.35,4.53,5.04,6.79
		c1.48,2.61,3.49,0.98,5.33,0.66c-0.43,1.12-0.61,2.43-1.31,3.34C576.37,227.83,572.68,232.36,569.02,236.92z"/>
	<path class="st0" d="M569.69,241.55l0.65-4.64l15.68-17.78l-0.06,0.05l1.08-0.64c2.25-1.28,4.25-3.59,7.25-1.74l9.78,7.51
		c-2.41,5.1-6.5,7.26-10.57,9.44c-1.02,0.46-1.97,1.07-2.82,1.8c-3.3,3.32-6.39,6.86-9.83,10.05c-0.77,0.72-2.86,0.77-3.96,0.25
		C574.39,244.67,572.08,243,569.69,241.55z"/>
	<path class="st0" d="M556.31,254.56l12.68-11.45c1.14,0.47,2.24,1.05,3.27,1.72c5.37,4.28,10.68,8.64,16.02,12.98
		c2.62,1.93,1.23,3.46-0.47,5.01c-3.8,3.47-7.56,6.96-11.34,10.47l-0.11-0.05l-2.54-1.69c-4.54-4.46-9.08-8.92-13.62-13.37
		C558.93,256.95,557.59,255.74,556.31,254.56z"/>
	<path class="st0" d="M202.52,221.43l-2.32-2.27c0.26-0.22,0.5-0.56,0.81-0.65c3.19-1.01,7.44-1.03,9.38-3.16
		c3.91-4.09,5.54-9.85,4.34-15.38c-0.11-0.48-0.18-0.98-0.35-1.96c1.17,0,2.23-0.26,3.09,0.05c7.21,2.64,14.4,5.41,21.58,8.12
		c0.56,0.22,1.35,0.64,1.48,1.12c1.74,6.12,3.87,12.2,4.89,18.45c0.88,5.18-3.44,8.19-6.75,11.39c-0.46,0.44-0.9,0.9-1.35,1.36
		l-1.55-0.09c0.21-2.82,0.41-5.64,0.62-8.5l1.55-5.41c0.3-1.64,0.55-3.29,0.91-4.92c0.55-2.43,0.5-5.02-1.96-6.04
		c-5.93-2.49-12.04-4.55-18.37-6.87c-0.87,3.5-1.5,6.07-2.13,8.63l0.05-0.08c-2.95,4.41-7.37,5.97-12.37,6.35L202.52,221.43z"/>
	<path class="st0" d="M283.02,264.75c0.14,1.89,0.27,3.77,0.49,6.84c-2.17-1.23-3.87-1.83-5.12-2.98
		c-4.06-3.78-10.87-5.65-15.53-3.05c-2.49,1.39-4.05,4.44-5.86,6.55l-9.48-9.82c-1.62-1.49-0.55-2.04,0.77-2.91
		c3.22-2.09,7.21-3.45,8.37-7.78c7.95,0.46,16.54-2.54,23.36,4.24c0,0,0.36-0.24,0.55-0.37l0,0c0,0.5,0,1.01,0.05,1.55
		L283.02,264.75z"/>
	<path class="st0" d="M434.09,734.04l6.24-4.76l-0.15,0.06l2.01-0.08c3.8,2.05,7.55,8.29,5.3,11.37c-2.88,3.93-1.78,5.74,0.26,9.21
		c2.04,3.48,0.07,8.29-2.74,10.5c0.29,2.02,0.56,3.86,0.92,6.25c5.36,3.81,6.08,9.84,4.86,16.5c-0.89-0.36-1.99-0.51-2.64-1.12
		c-3.1-2.88-7.12-4.56-11.34-4.74c-0.18-1.34-0.84-2.84-0.43-3.97c1.55-4.12,3.39-8.12,5.08-12.02c-6.1-5.63-6.39-9.04-1.48-16.48
		C435.62,742.53,433.54,738.95,434.09,734.04z M442.88,740.18l1.77-1.29c-1.11-2.24-2.22-4.48-3.33-6.73l-1.55,0.09
		c-0.62,1.48-2.15,3.56-1.65,4.33C439.12,738.15,441.23,739.02,442.88,740.18z M441.63,748.54c-1.69,2.42-2.32,4.69-0.46,6.84
		c0.4,0.46,2.69,0.19,2.95-0.33C445.44,752.4,443.98,750.46,441.63,748.54z"/>
	<path class="st0" d="M464.63,718.62c1.62-0.69,3.23-1.43,4.89-2.06c0.87-0.32,2.37-0.91,2.64-0.59c2.25,2.67,4.82,5.29,6.18,8.4
		c1.37,3.12-1.38,6.01-5.81,7.31c-2.94,0.87-5.85,1.83-8.72,2.91c-7,2.63-17.33-1.88-18.92-8.31c0.15-1.99,0.3-3.99,0.43-5.57
		c1.32-0.47,2.66-0.86,4.03-1.16c1.04-0.15,2.41-0.35,3.13,0.17c3.05,2.22,5.98,1.69,9.01,0.15L464.63,718.62z"/>
	<path class="st0" d="M457.62,689.92h3.87c0.19,1.28,0.38,2.61,0.58,3.93c1.04,6.66,2.13,13.32,3.05,20.01
		c0.17,1.21-0.36,2.5-0.56,3.76l-3.09,1.24c-2.16,0.09-5.24,1.12-6.28,0.09c-2.61-2.58-5.11-1.97-7.55-1.21
		c-0.55-2.56-1.04-4.92-1.55-7.27l2.32-2.03c0.49-0.51,1.41-1.01,1.41-1.55c0.1-5.66,0.06-11.31,0.06-17.01L457.62,689.92z"/>
	<path class="st0" d="M599.07,197.47c-0.32-5.12-3.09-7.82-8.12-8.57c-0.69-0.1-1.26-0.97-1.88-1.48l5.63-5.12
		c-4.31-0.6-4.97,2.68-6.44,5.08l-6.36,4.93c-3.87-7.43,3.59-16.6,10.82-18.98c3.42-1.14,7.3-1.24,10.97-1.2
		c4.93,0.05,6.04,2.62,3.33,6.9c-0.36,0.5-0.74,0.98-1.14,1.45l-2.43,0.71c0.05,0.26,0.1,0.5,0.15,0.77l5.22,0.77l-1.44,4.34
		l-7.46,10.39H599.07z M595.93,181.66v1.21l5.79-0.42c0-0.26-0.05-0.53-0.09-0.77L595.93,181.66z"/>
	<path class="st0" d="M395.61,239.8c-2.57-5.75-1.18-8.93,4.41-10.98c2.1-0.77,3.92-2.32,5.87-3.52h-0.07l1.62-0.77h-0.05l1.55-0.77
		c1-0.77,1.89-1.85,3.02-2.26c0.84-0.31,2.71-0.05,2.88,0.42c1.5,3.87,2.71,7.88,4.32,12.81c-2.68-1.22-4.21-2.2-5.87-2.61
		s-3.33-0.22-5.01-0.29l-0.14,5.21l1.07,1l-0.26-1.14c-0.17-3.29,1.82-3.48,4.24-2.88c5.31,1.32,7.51,4.5,7.92,11.3l-1.43,0.3
		c0.15-0.1,0.21-0.3,0.13-0.46l-0.8-0.99l-0.77,1.28l-1.14,1.55l-7.09-1.42l-15.56-1.98l2.17-3.5h0.07l6.86-3.17
		c-2.32-2.57-4.93-2.06-7.25,2.03L395.61,239.8z M407.27,242.38l1.27-2.88l-3.01,0.42c0.61,0.92,1.14,1.73,1.69,2.51h0.14
		L407.27,242.38z"/>
	<path class="st0" d="M234.2,228.45c-2.01-3.63-8.99-4.32-11.53-0.97c-1.69,2.23-3.09,4.7-4.64,7.06l-6.26-3.87l0.05,0.05
		l-0.83-0.83l0.06,0.05l-3.03-4.08l-0.88-0.6h0.04l-0.88-2.37c4.31-1.55,10.05-1.01,10.17-7.73l-0.05,0.08l3.61-5.88
		c2.67,0.77,5.26,1.47,7.81,2.32c9.52,2.98,9.52,3,8.94,12.82L234.2,228.45z"/>
	<path class="st0" d="M595.27,253.13l-6.18,2.95c-2.62-2.54-5.25-5.08-8.16-7.88l25.33-21.96l3.64,2.19l5.69,4.64l-8.79,7.65
		l0.05-0.05l-1.48,0.77l-4.75,4.53L595.27,253.13z"/>
	<path class="st0" d="M505.6,270.15c0-1.03-0.06-2.06-0.08-3.09c0.6-1.24,1.61-2.43,1.72-3.71c0.87-10.15,2.66-12.44,12.19-15
		c4.78,0.15,9.65,0.86,13.96-2.15c0,0.27,0,0.54,0,0.82c-1.82,2.8-1.93,5.46,1.11,7.4c2.78,1.78,5.74,3.27,8.67,4.8
		c1.1,0.58,2.32,0.9,0.77,2.28l-1.99,0.95c-0.29-0.29-0.59-0.57-0.89-0.85l-12.55-3.97c-0.88,4.92,1.6,9.85,5.73,11.66
		c-0.56,1.29-1.12,2.59-1.69,3.87c-0.86-0.53-1.95-0.87-2.54-1.62c-3.9-4.94-8.19-8.85-15.23-7.53c-2.69,0.51-5.29,0.62-6.3,3.94
		C508.16,268.88,506.59,269.43,505.6,270.15z M523.38,251.88c-1.55,0.09-3.09,0.42-4.5,0.19c-5.96-0.94-7.02,0-6.59,6.15
		c2.82-0.58,5.65-1.14,8.5-1.75c2.67-0.57,3.67-2.07,2.62-4.59H523.38z"/>
	<path class="st0" d="M448.31,620.39c8.3,13.91,16.58,27.83,24.84,41.74c0.43,0.73,0.59,2.32,0.18,2.65
		c-0.85,0.66-2.16,0.73-3.28,1.04v0.1l-0.87-0.83l0.04,0.05c-0.19-0.95-0.14-2.03-0.59-2.83c-4.84-8.63-9.76-17.22-14.69-25.82
		c-3.48-6.35-6.92-12.73-10.47-19.03c-0.34-0.6-1.41-0.77-2.13-1.17l-3.76-7.58l-0.83-1.55l0.04,0.05c-0.45-1.27-0.9-2.53-1.35-3.8
		l-20.1-35.11c-2.84-5.23-5.67-10.48-8.56-15.68c-0.3-0.54-1.09-0.81-1.65-1.21l0.77-1.99c1.24,1.01,2.92,1.79,3.66,3.09
		c7.09,12.49,13.99,25.08,21.01,37.6c1.21,2.16,2.68,4.15,4.04,6.18l0,0l2.26,4.69L448.31,620.39z"/>
	<path class="st0" d="M450.6,785.1c-0.43,4.14-0.85,8.28-1.31,12.68c-3.59,1.17-5.67,5.84-4.24,10.91
		c1.05,3.76,1.55,7.44-0.45,10.99l-1.32,0.36c-1.38-4.22-3.18-8.36-4-12.69c-0.83-4.33-0.71-8.99-1.03-13.91l-2.1,1.07
		c-0.63-5.34-5.06-10.34-0.11-15.69c2.25,0.61,4.64,0.97,6.71,1.89C445.47,781.96,447.98,783.63,450.6,785.1z"/>
	<path class="st0" d="M581.25,219.87c-1.84,0.32-3.87,1.95-5.33-0.66c-1.28-2.43-2.57-4.85-3.87-7.27c-3.63-6.9-3.86-7-11.6-4.97
		c-1.24,0.32-2.48,0.7-3.74,0.94c-4.96,0.94-8.02,3.77-8.91,8.8L547,227.65c0.13,2,0.26,4,0.4,6.18c-3.87-2.13-5.54-5.71-4.68-10.52
		c0.77-4.55,1.31-9.4,3.37-13.38c1.62-3.09,5.02-5.97,8.31-7.44c6.26-2.81,13-4.55,20.22-6.96c-2.02,5.12-1.67,10.88,0.97,15.71
		c1.74,3.42,4.07,5.46,7.94,5.77c0.85,0.07,1.64,0.84,2.46,1.28c-0.08,0.09-0.24,0.19-0.23,0.27c0.04,0.2,0.11,0.39,0.2,0.57
		l0.06-0.05L581.25,219.87z"/>
	<path class="st0" d="M636.23,200.3c7.07,6.1,8.5,5.82,12.99-2.53c0.22-0.3,0.48-0.58,0.77-0.82c1.83,7.69-0.62,19.92-12.21,22.27
		c-5.41,1.09-10.82,2.11-16.23,3.16c-0.09-0.34-0.36-0.82-0.22-1c1.96-2.65,4.05-5.21,5.94-7.91
		C630.31,209.13,633.24,204.72,636.23,200.3z"/>
	<path class="st0" d="M600.63,246.03l4.75-4.53l1.48-0.77l-0.05,0.05l6.05-1.61c1.06,3.87,3.23,5.84,7.58,3.35
		c0.99-0.34,2.08-0.17,2.91,0.47c2.77,2.89,6.32,2.16,9.67,2.47c0.56,2.7-0.61,5.47-2.94,6.96h-1.55c0-0.6,0.14-1.59-0.13-1.73
		c-3.2-1.62-6.42-3.22-9.75-4.56c-0.59-0.23-1.94,0.53-2.48,1.2c-2.32,2.88-2.32,2.76-4.27-0.3c-0.86-1.38-3.14-3.18-4.21-2.86
		c-2.2,0.65-3.82,2.76-2.42,5.46c1.1,2.12,2.58,4.03,3.7,6.14c2.67,5.03,4.52,5.47,9.53,2.49c1.29-0.77,3.03-0.77,4.56-1.17
		l0.77,1.6l-15.55,7.36c-0.75,0.14-1.51,0.17-2.27,0.1c-0.88-0.19-2.18-0.49-2.43-1.11c-0.36-0.99-0.24-2.08,0.34-2.96
		c2.03-2.12,1.92-4.44,0.05-6.01c-1-0.85-3.42-0.61-4.95-0.11c-2.32,0.77-2.32-0.49-2.5-1.99c1.43-1.93,2.93-3.83,4.24-5.84
		C601.09,247.62,600.68,246.72,600.63,246.03z"/>
	<path class="st0" d="M560.78,305.99l-0.25-2.4h16.39c-1.01-0.77-1.74-1.75-2.68-2.07c-3.97-1.34-8.03-2.43-12.01-3.75
		c-1.19-0.51-2.32-1.13-3.39-1.86c1.11-1.17,1.71-1.39,2.32-1.42c2.82-0.15,5.67-0.09,8.5-0.41c2.57-0.29,4.07,0.7,5.15,2.95
		c0.63,1.31,1.68,2.4,3.09,4.39c0.39-5.7-0.77-6.79-9.59-10.51c1.14-2.83,2.64-3.52,5.82-2.76c1.11,0.27,2.24,0.39,3.36,0.57l0,0
		c-0.06,0.22-0.13,0.44-0.19,0.66l0.94,0.07l0,0l0.77,0.77l-0.06-0.05l0.81,1.24c0.15,0.08,0.27,0.2,0.34,0.36h1.25l-0.08-0.08
		c0.26,0.54,0.52,1.07,0.77,1.62l5.03,8.43l-1.09,1.02l-3.87-1.68c-0.77,1.99-0.09,3.26,2.2,4.36c0.77,0.39,2.16,0.98,2.17,1.48
		c0,3.87-0.22,7.79-0.41,12.27c-0.4-0.25-0.78-0.53-1.13-0.84c-0.31-0.55-0.59-1.13-0.82-1.72c-2.4-7.44-6.96-11.52-15.29-10.35
		C566.23,306.64,563.48,306.08,560.78,305.99z"/>
	<path class="st0" d="M582.67,672.24c-1.04,1.09-1.9,2.67-3.17,3.13c-1.38,0.32-2.84,0.01-3.97-0.86c-0.69-0.6-0.66-2.4-0.46-3.56
		s1.04-2.38,1.61-3.56l-0.05,0.05l5.36-4.34l27.94-30.39c3.09-2.43,5.7-1.48,6.38,2.32c-1.62,1.19-3.42,2.19-4.82,3.61
		c-6.55,6.7-12.69,13.85-19.58,20.18C587.91,662.56,584.75,667.15,582.67,672.24z"/>
	<path class="st0" d="M505.6,667.5c3.01,0.77,5.99,1.73,9.04,2.22c2.65,0.36,5.32,0.48,7.99,0.36c3.02-0.06,6.04-0.39,8.95-0.6
		c1.78,6.77,0.9,7.87-5.16,9.28c-3.25,0.77-6.22,2.7-9.44,3.7c-1.33,0.41-2.99-0.22-4.5-0.38
		C505.6,677.62,504.24,674.71,505.6,667.5z"/>
	<path class="st0" d="M512.35,547.77l-0.58-3.29c7.26,5.42,13.85,11.68,19.63,18.64c0.65,0.77,0.77,1.98,1.16,2.98l-19.19,4.4
		c-0.54-1.55-1.04-2.95-1.55-4.34c0.11-1.55,0.24-3.01,0.33-4.53c0.26-4.55,0.51-9.09,0.73-13.64
		C512.9,547.94,512.55,547.85,512.35,547.77z"/>
	<path class="st0" d="M309.82,304.18c3.18-5.49,6.37-10.98,9.56-16.47c0.99-1.72,2.02-3.41,3.03-5.12l-0.05-0.12l8.8,10.74
		c-2.99,5.8-5.51,10.68-8.04,15.57L309.82,304.18z"/>
	<path class="st0" d="M185.44,204.61l4.64,3.03l-2.91,2.32l-11.65,6.84l-2.65-3.87l-7.85-16.37l6.57-4.72l2.38,1.11l0.77-0.09
		l-0.05-0.05C176.74,198.14,180.68,201.75,185.44,204.61z"/>
	<path class="st0" d="M463.85,283.39c1.76,1.41,4.1,2.47,5.19,4.28c3.18,5.37,5.87,11.05,8.76,16.6l-12.55,3.42
		c-0.65-1.55-1.42-3.36-2.19-5.18l-2.32-1.48c-1.18-2.61-2.36-5.21-3.87-8.5L463.85,283.39z"/>
	<path class="st0" d="M445.26,560.02l-3.87-3.04c-0.64-1.88-1.31-3.74-1.91-5.64c-0.32-1.02-0.94-2.19-0.71-3.09
		c1.17-4.69,2.57-9.33,4.02-14.44l9.73,8.57c0.68,5.13,0.77,10.17-3.05,14.29C448.15,557.9,446.75,559.02,445.26,560.02z"/>
	<path class="st0" d="M580.12,291.8c-0.07-0.15-0.19-0.28-0.34-0.36l0.39-0.89l-1.21-0.36l0.06,0.05c0-0.28,0-0.56,0.05-0.83h-0.83
		l0,0c0.05-0.22,0.12-0.43,0.18-0.65l-0.92-0.09l0,0l-2.32-4.19l-1.12-1.21l-9.81-5.59l10.6-2.03c0.37-0.58,0.95-1.49,1.55-2.4
		l0.11,0.05l6.42,11.09c1-1.82,1.82-3.3,2.91-5.26c2.23,7.82,4.36,15.25,6.48,22.69c-0.2,1.96-0.41,3.92-0.62,5.88l-1.34,0.26
		c-0.63-1.71-1.77-3.41-1.79-5.13c-0.05-4.56-2.4-7.61-5.68-10.26l-1.55-0.84l0.08,0.08l-0.9-0.77L580.12,291.8z"/>
	<path class="st0" d="M380.53,225.85c1.7,0.9,3.34,1.95,5.11,2.67c6.78,2.78,6.79,2.74,5.63,10.82c-5.52-4.82-6.69-4.98-10.05-1.37
		h-0.1l-0.9,1.08c-0.39-0.97-0.85-1.9-1.38-2.8c-0.47-0.52-1.01-0.96-1.62-1.32v0.05c0.34-0.86,0.69-1.71,1.03-2.57
		c-1.22-0.36-2.61-1.29-3.63-0.99c-2.26,0.66-4.34,1.95-6.91,3.18c0.33-2.03,0.6-3.63,0.87-5.23l1.55-4.31
		c1.98-5.41,1.97-5.41,6.33-2.14h0.77l-0.05-0.05l0.83,0.85l-0.07-0.06l2.44,2.07L380.53,225.85z"/>
	<path class="st0" d="M336.66,241.72c2.69,5.72,5.33,11.46,8.13,17.12c0.35,0.7,1.55,0.99,2.32,1.47l-10.91,5.98
		c-3.6,0.23-3.23-3.02-3.42-4.77c-0.45-4.32-0.48-8.67-0.08-12.99c0.15-1.67,1.8-3.21,2.77-4.82c0.37-0.49,0.77-1,1.1-1.49l0,0
		c-0.02-0.19-0.02-0.39,0-0.58L336.66,241.72z"/>
	<path class="st0" d="M603.88,683.74l0.19-0.06c1.89,2.49,2.85-0.06,3.64-0.92c5.28-5.75,10.4-11.6,15.58-17.48l2.17-1.41
		c2.22,10.15-1.11,16.47-9.21,20.1c-2.93,1.31-6.45,1.44-9.72,1.75C605.71,685.8,604.77,684.44,603.88,683.74z"/>
	<path class="st0" d="M440.18,729.34l0.15-0.06c-1.79,0-3.87,0.53-5.32-0.15c-2.13-0.98-4.55-2.47-5.61-4.41
		c-1.5-2.71-2.42-6.12,0-9.05c0.56-0.68,1.85-0.89,2.84-1.04c1.25-0.13,2.51-0.17,3.77-0.14c5.72-0.33,6.25-0.07,7.54,5.35
		c0.49,2.07,0.32,4.29,0.44,6.45l-1.89,2.03L440.18,729.34z"/>
	<path class="st0" d="M381.14,237.96h0.1c0.73,0.05,1.46,0.02,2.18-0.1c3.27-0.94,7.89,2.61,7.73,5.97l-13.5,2.03l-8.87,1.1l0,0
		l-3.63-3.21c0.37-1.21,0.93-3.42,1.73-5.53c1.28-3.35,7.46-5.2,10.4-3.23v-0.05c0.29,2.42,0.57,4.84,1,8.5
		c1.17-1.59,1.66-2.32,2.16-2.98C380.62,239.62,380.86,238.8,381.14,237.96z"/>
	<path class="st0" d="M444.53,263.19c-4.18-3.59-2.32-6.88,0.12-10.57c1.72-2.6,2.5-5.82,3.82-8.7c0.23-0.5,1.08-0.73,1.65-1.08
		c6.56,7.18,3.32,15.17,2.57,23.11l-5.82-0.43L444.53,263.19z"/>
	<path class="st0" d="M194.85,216.95l-6.09,3.72c-0.99,0.11-2.24-0.12-2.93,0.39c-2.03,1.55-3.83,3.31-5.72,4.99
		c-0.07,0.1-0.22,0.21-0.2,0.29c0.06,0.19,0.14,0.37,0.24,0.54h0.05l-3.87,1.68l-1.47-0.36l-3.21-3.69l-0.07-1.55l1.62-3.09
		l-0.05,0.05l3.58-2.32l11.17-6.96c1.77,1.65,3.54,3.32,5.32,4.95C193.72,216.06,194.28,216.49,194.85,216.95z"/>
	<path class="st0" d="M177.48,185.98c0.69,0.39,1.68,0.6,2.03,1.2c3.59,6.18,9.14,8.62,16.06,8.57c0.89,0.04,1.78,0.15,2.66,0.32
		c0.1,0,0.18,0.13,0.6,0.47c-2.16,2.98-4.05,5.96-8.55,5.74c-1.55-0.07-3.15,0.82-4.72,1.27l-10.82-10.74l0.05,0.05l-0.77-0.83
		c0-0.77,0-1.55,0-2.32l-0.05,0.05l2.32-3.14l-0.06,0.05l1.27-0.83L177.48,185.98z"/>
	<path class="st0" d="M351.77,168.24c-0.6-1.11-1.29-2.17-2.06-3.17c-1.72-1.9-1.89-3.6,0.86-4.24c8.26-1.95,16.23-1.47,23.92,4
		c-7.3,3.09-14.08,5.77-21.71,2.78c-0.23-0.09-0.69,0.38-1.04,0.6L351.77,168.24z"/>
	<path class="st0" d="M448.39,582.43c0.32,0.77,0.55,1.57,0.68,2.4c0.3,10.87,0.56,21.73,0.77,32.6c-0.08,0.7-0.26,1.38-0.53,2.03
		c-2.41-4.2-4.56-8.57-7.3-12.54c-2.2-3.18-1.89-5.87-0.32-9.11C444.1,592.77,446.14,587.57,448.39,582.43z"/>
	<path class="st0" d="M429.84,168.86c-6.22,0.29-12.39-1.14-17.86-4.12c8.22-5.69,16.6-5.87,25.35-3.46
		C437.57,164.82,434.76,167.67,429.84,168.86z"/>
	<path class="st0" d="M177.48,185.98v-0.12l-1.09-0.3l-0.18,1.13l0.06-0.05l-2.32,3.14l0.02-0.05l-2.32,0.93
		c-3.52,2.06-7.19,3.87-10.5,6.25c-2.57,1.82-4.95,2.32-7.73,0.97l-1.71-0.77l1.38-1.96l1.61-1.55l-0.09,0.07l0.8-0.86l-0.08,0.09
		l0.77-0.2c4.48-2.88,9.01-5.74,13.46-8.69c0.61-0.4,0.86-1.33,1.28-2.02l0,0l4.71-3.87l-0.12,0.15l0.86-0.6l0.87,0.19
		C177.24,180.56,177.35,183.27,177.48,185.98z"/>
	<path class="st0" d="M610.73,227.6c-4.49-5.11-9.57-9.46-15.82-12.31c-1.01-3.25,2.02-3.87,3.55-5.46
		c2.97,0.55,6.64,0.07,6.81,4.68l9.2,8.61l1.25,2.02L610.73,227.6z"/>
	<path class="st0" d="M483.95,681.55c-0.41,2.01,1.93,4.39-0.77,6.08c-1.93,2.09-3.95,3.73-6.79,1.4c0.63-2.32,1.24-4.64,1.9-6.9
		c0.53-1.81,1.12-3.59,1.69-5.41c-0.47-2.6-0.94-5.19-1.41-7.79l0.05,0.06l-0.43-1.55l0.63-3.59c1.28,0.5,3.09,0.63,3.76,1.55
		c3.29,4.46,1.55,9.45,1.04,14.29C483.65,680.32,483.76,680.95,483.95,681.55z"/>
	<path class="st0" d="M380.53,225.85l-0.18-0.09l-2.37-2.03l0.07,0.06c0-0.29,0.04-0.6,0.05-0.89h-0.89l0.05,0.05
		c0.08-0.09,0.22-0.18,0.22-0.26c-0.04-0.19-0.1-0.37-0.19-0.55l-2.04-2.32c1.83-2.78,3.46-5.23,5.36-8.09
		c1.8,2.32,3.5,4.68,5.34,6.91c0.9,0.99,1.88,1.92,2.91,2.78h-0.05c0,0.29,0,0.58-0.04,0.87l0.87-0.04v-0.05
		c0.26,0.53,0.51,1.06,0.77,1.58l1.55,3.49l-0.72,0.88c-2.51-0.77-5.01-1.55-7.54-2.18C382.66,225.82,381.59,225.77,380.53,225.85z"
		/>
	<path class="st0" d="M462.31,687.42c0.27-0.77,0.53-1.46,0.77-2.19c0.52-0.26,1.43-0.45,1.49-0.77c0.49-2.78,1.48-5.7,1-8.35
		s2.73-5.84-0.83-8.13c-0.43-4.02,2.92-1.97,4.48-2.79l-0.04-0.05v0.89l0.89-0.05v-0.1c0.26,0.77,0.53,1.55,0.77,2.36
		c-0.18,4.99-0.36,9.99-0.55,14.98c-0.1,1.67-0.19,3.34-0.29,5.01L462.31,687.42z"/>
	<path class="st0" d="M395.83,223.91l7.1-8.88c0.87-1.09,1.73-2.19,3-3.79c0.94,2.19,1.34,3.63,2.13,4.81s2.04,2.25,3.77,4.07
		l-3.78,2.81l-0.7,1.62h0.05c-0.35-0.15-0.91-0.5-1-0.41c-0.26,0.38-0.47,0.79-0.62,1.22h0.07c-1.08,0.14-2.15,0.33-3.21,0.57
		c-2.49,0.7-4.95,1.55-8.64,2.64L395.83,223.91z"/>
	<path class="st0" d="M480.04,369.93c-3.76-1.31-1.45-4.21-1.95-6.67l7.37,0.42c7.6,1.77,7.6,1.77,7.96,9.75c0,0.5,0,1,0,2.13
		l-3.21-0.82C487.55,371.59,484.03,370.26,480.04,369.93z"/>
	<path class="st0" d="M470.04,688.21c0.1-1.67,0.19-3.34,0.29-5.01l1.05,0.36c1.11-3.56,2.23-7.11,3.35-10.65l0.42-3.09
		c0-0.81,0.07-1.62,0.1-2.43l1.76,0.04l1.55,1.55l-0.05-0.06c0.16,2.55,0.33,5.09,0.49,7.64c-1.45,3.9-2.91,7.8-4.37,11.7
		C473.05,690.02,471.51,689.58,470.04,688.21z"/>
	<path class="st0" d="M486.27,362.24l-8.03-1.24v-5.8h13.98c0.32,2.2,0.6,4.18,0.88,6.18c-0.64,0.48-1.28,1.35-1.93,1.36
		C489.53,362.68,487.89,362.51,486.27,362.24z"/>
	<path class="st0" d="M488.59,414.86l-11.83-0.52c-1.26-5.7,2.76-5.6,6.36-5.94l7.66,1.01
		C490.67,411.48,491.78,414.04,488.59,414.86z"/>
	<path class="st0" d="M488.59,421.66l-3.09,0.81l-10.4-1.91c-0.11-3.8,1.55-5.08,5.12-4.7c2.8,0.16,5.6,0.18,8.4,0.04l1.28,2.49
		l0.15,0.05l-1.04,2.4C488.85,421.11,488.73,421.38,488.59,421.66z"/>
	<path class="st0" d="M623.87,318.83l-1.89-2.27c0.19-1.74,0.36-3.48,0.53-5.06l-5.6-2.87l1.36-1.63l10.9,0.77
		C628.91,312.02,627.01,315.98,623.87,318.83z"/>
	<path class="st0" d="M493.55,431.42c-0.72-1.96-1.43-3.93-2.21-6.04l2.63-2.32c1.11,0,2.41-0.27,3.3,0.19s2.02,1.71,2.05,2.64
		c0.03,0.93-1.11,1.98-2.01,2.59c-1.45,0.99-3.94,1.09-2.64,3.87c0,0.07-0.12,0.11-0.29,0.12
		C494.09,432.14,493.82,431.78,493.55,431.42z"/>
	<path class="st0" d="M526.29,388.45l3.29-3.09c-1.46,2.91-2.92,5.82-4.64,9.19c-0.9-1.26-1.55-2.1-2.09-2.89L526.29,388.45z"/>
	<path class="st0" d="M588.25,187.36c1.47-2.4,2.13-5.68,6.44-5.08l-5.61,5.14L588.25,187.36z"/>
	<path class="st0" d="M517.28,533.35l1.45-0.39v6.01h-1.45V533.35z"/>
	<path class="st0" d="M582.9,345.35c-0.99,2.32-2.64,2.38-4.64,1.36l-0.09-0.09l3.25-2.23L582.9,345.35z"/>
	<path class="st0" d="M608.77,182.71l-5.22-0.77c-0.05-0.26-0.1-0.5-0.15-0.77l2.43-0.71L608.77,182.71z"/>
	<path class="st0" d="M530.27,382.94l1.64-1.48h2.32l-2.64,2.32L530.27,382.94z"/>
	<path class="st0" d="M530.27,382.94l1.3,0.81l-2.01,1.61C529.81,384.55,530.04,383.74,530.27,382.94z"/>
	<path class="st0" d="M558.99,306.98c-0.12,0.38-0.26,0.77-0.38,1.14l-0.47-0.07v-1.72L558.99,306.98z"/>
	<path class="st0" d="M512.43,588.65l0.77,0.2l-0.77,0.77V588.65z"/>
	<path class="st0" d="M599.9,197.47c-0.04,0.26-0.06,0.51-0.05,0.77l-0.77-0.77H599.9z"/>
	<path class="st0" d="M334.76,241.73l-0.81-0.19l0.83-0.77C334.76,241.05,334.76,241.4,334.76,241.73z"/>
	<path class="st0" d="M594.05,303.39c-0.08-0.19-0.17-0.37-0.28-0.55l0.55,0.58L594.05,303.39z"/>
	<path class="st0" d="M255.83,384.06c-3.67-2.54-7.37-5.04-11.02-7.63c-7.31-5.19-15.69-7.4-24.35-8.99
		c-4.91-0.9-9.03,0.56-13.08,3.09c-1.65,1.03-3.6,1.55-5.41,2.32c-0.69-1.97-1.41-3.93-2.06-5.92c-0.16-0.71-0.26-1.43-0.31-2.15
		c-4.82,4.3-9.4,8.37-13.97,12.45l-1.14-0.82V364.2c-6.32,0.22-10.49,4.64-15.99,6.28c0.25-3.57,0.73-7.07,0.62-10.54
		c-0.05-1.47-0.95-3.59-2.12-4.24c-10.48-5.78-17.54-14.78-24.16-24.39c-3.16-4.36-6.75-8.38-10.72-12.02
		c-1.63-1.55-4.29-2.06-7.79-3.64c5.19-2.23,9.45-4.37,13.91-5.92c3.98-1.38,8.16-2.7,12.31-2.97c2.75-0.17,6.18,0.47,7.89,3.59
		c-0.06,0.52-0.03,1.04,0.08,1.55c4.64,11.32,12.58,19.5,23.61,24.64c0.84,0.39,2.42-0.25,3.41-0.83c2.76-1.6,5.41-3.42,7.78-4.96
		l2.32,1.7v-0.08c-1.8,0.4-2.05,0.77-2.53,3.76c-1.1,6.83-0.43,7.52,5.7,5.91c-0.14,0.46-0.19,0.94-0.14,1.42
		c0.46,1.37,1.06,2.7,1.61,4.04c1.21-0.87,2.94-1.48,3.49-2.66c0.83-1.75,0.83-3.9,1.23-6.12l-4.04,1.14
		c0.11-3.19,2.7-5.41,6.06-5.25c0,0.68,0.09,1.35,0.12,2.03l0,0c-0.32,1.87-1,3.77-0.82,5.6c0.08,0.77,2.16,2.07,3,1.86
		c2.08-0.63,4.05-1.58,5.84-2.83c2.43-1.58,4.64-3.45,7-5.19l1.16,0.94c-0.41,4.15-0.82,8.3-1.22,12.43
		c3.49,1.79,7.27,3.17,10.39,5.45c4.23,3.09,7.94,6.9,11.9,10.36c5.41,4.72,9.14,10.59,11.93,17.11
		C256.53,382.73,256.02,383.46,255.83,384.06z M212.49,350.38c5.5,0.09,8.7-4.24,7.02-8.99
		C215.93,343.34,213.14,345.79,212.49,350.38z M190.42,334.92c-5.41,3.04-6.18,5.06-3.29,9.35c4.24-1.9,5.58-5.69,3.29-9.31V334.92z
		"/>
	<path class="st0" d="M235.35,635.05c-0.68,4.03-3.87,6.63-6.54,5.36c-2.75-1.41-5.19-0.5-6.28,2.64c-0.61,2.18-1.08,4.4-1.41,6.64
		c-2.06,4.48-4.07,8.99-6.18,13.44c-0.96,2.01-2.1,3.92-3.17,5.87c-7.99-8.05-16-16.13-24.03-24.22
		c-3.79-3.81-7.61-7.58-11.42-11.36c0.95-1.11,1.7-2.57,2.89-3.29c4.64-2.74,9.39-5.19,14.02-7.91c1.02-0.6,1.69-1.82,2.51-2.75
		l1.55-1.28l2.43-2.32l-1.38-1.04c-0.49,1-0.98,2.01-1.47,3.01l-1.66,0.11c-0.15-3.39,1.74-5.34,4.78-5.98
		c0.94-0.19,2.16,1,3.26,1.55l-0.89,1.96c3.64,0.2,3.64,0.2,4.04-2.89c8.25-7.39,16.53-14.77,24.84-22.15
		c1.2-0.94,2.46-1.8,3.76-2.58c0.58,2.06,1.16,4.12,1.75,6.18c0.73,9.37-1.98,18.95,1.66,28.18c0.32,0.83-0.29,2.5-1.03,3.18
		C234.36,628.21,234.78,631.58,235.35,635.05z M214.89,622.04l-12.65,2.84v13.25l11.84,1.74c1.08-2.37,2.19-4.69,3.18-7.07
		c0.3-0.67,0.39-1.41,0.25-2.13C216.71,627.74,215.77,624.85,214.89,622.04z"/>
	<path class="st0" d="M243.61,649.93l-1.3,5.92v2.32c2.39,2.32,0.9,4.22-0.56,6.18l-0.62,4.64c-0.11,1.03-0.22,2.06-0.33,3.09
		l-2.65-3.09v-23.96c2.4-0.85,1.11-1.59-0.07-2.32l-1.55-7.73c0.42-2.35,0.84-4.7,1.27-7.05l2.27-2.06
		c-0.58-4.59-1.38-9.17-1.67-13.77c-0.39-6-0.39-12.02-0.55-18.03c-0.7-2.34-1.4-4.68-2.1-7.01c0.06-0.77,0.13-1.55,0.2-2.32
		l2.88-3.05l1.72-0.77c2.41,0.2,3.59-0.93,3.62-3.33l2.95-2.99l1.81-2.08c1.76-2.12,3.52-4.25,5.28-6.37l1.55-1.83
		c1.41-2.94,2.73-5.94,4.33-8.77c0.45-0.77,1.73-1.11,2.64-1.65c-0.98,2.06-1.32,3.8,1.86,3.81l0.51,19.33l0.16,6.18l0.63,11.6
		l0.09,1.55l0.42,32.47h-1.19l-3.09-3.59c-1.45-1.23-2.84-2.96-4.73-0.57c-0.17,0.59-0.33,1.18-0.5,1.77
		c-0.49,0.46-0.96,0.94-1.4,1.45c-0.39,0.54-0.74,1.1-1.07,1.67v-0.94l-1.12-1.28l-1.25,1.55c-3.43,3.87-4.28,8.5-3.87,13.5
		c0.19,2.4-0.06,4.84-0.12,7.26l-1.68,0.12c-0.21,0.05-0.42-0.08-0.46-0.29c-0.01-0.04-0.01-0.09-0.01-0.13l-1.23-1.12
		L243.61,649.93z"/>
	<path class="st0" d="M195.62,332.33v0.08c0.23-1.06,0.46-2.12,0.69-3.18l-0.77-0.98c-3.01,1.43-6.32,2.47-8.96,4.41
		s-4.41,1.76-6.69-0.13c-4.64-3.87-9.92-7.11-13.84-11.6c-2.88-3.23-3.98-7.99-5.88-12.13c0.31-0.53,0.63-1.04,0.86-1.43
		c8.8,7.56,18.41,4.71,27.94,2.32c1.33-0.45,2.62-0.99,3.87-1.63c0.09,0,0.25,0.05,0.6,0.15c-0.12,1.69-0.26,3.41-0.39,5.14
		c-0.49,3.87-2.88,7.73-0.04,11.53c4.48-0.77,4.4-0.72,7.48,2.43c0.96,0.81,2.17,1.27,3.43,1.28c5.14,0.19,7.81-2.78,7.12-8.46
		c-0.4-3.33,0.9-5.01,3.62-6.31c2.53-1.21,4.97-2.58,7.45-3.87l11.16-4.97l1.21,4.1c-6.62,3.09-8.1,7.6-3.74,13.06
		c1.48,1.58,3.59,2.43,5.75,2.32c2.58-0.33,3.44,0.46,4.11,2.57c0.57,1.71,1.25,3.37,2.04,4.99c5.13,10.56,13.91,16.23,25.11,18.55
		c4.72,0.96,8,4.88,6.6,10.28c-2.78,10.75-6.28,21.31-9.62,32.42l-1.68-1.8c-2.81-5.74-4.64-12.25-8.64-17.01
		c-6.83-8.24-14.93-15.46-22.59-22.98c-0.71-0.7-2.06-0.84-3.14-1.04c-4.21-0.77-4.68-1.72-4.08-5.9c0.49-3.45,0.4-6.96,0.6-11.18
		c-2.32,0.73-3.87,0.87-4.92,1.6c-2.51,1.71-4.74,3.87-7.27,5.52c-1.28,0.85-2.98,1.09-4.48,1.61c-0.39-1.44-0.77-2.87-1.2-4.31
		c-0.07-0.36-0.12-0.72-0.15-1.09l0,0c0.49-0.83,1-1.65,1.49-2.49c-0.77-0.43-1.48-0.87-2.21-1.31c-3.58-0.08-5.82,1.9-7.73,4.7
		c-1.01,1.49-2.5,2.66-3.78,3.97l-1.28-0.77L195.62,332.33z M263.06,385.88l8.05-29.15c-6.1-2.88-7.64-2.59-10.1,2.32
		C256.39,368.21,256.94,377.1,263.06,385.88L263.06,385.88z M234.97,334.08c-1.92,7.25,3.53,22.11,10.72,24.2l4.1-9.15
		L234.97,334.08z M219.24,314.74l-1.55,0.46c-2.74,3.83-4.22,8.43-4.23,13.14c0,0.9,1.83,2.61,2.75,2.56
		c2.8-0.16,5.56-0.71,8.21-1.64c0.85-0.29,1.94-2.52,1.59-3.17C223.98,322.22,221.55,318.49,219.24,314.74z M253.66,367.55
		c1.91-3.55,3.87-6.46,5.1-9.66c2.04-5.36,1.69-5.7-3.87-7.2C249.53,357.65,248.81,362.58,253.66,367.55z M172.11,316.88
		c3.94,3.36,6.75,6.44,10.2,8.34c1.32,0.77,5.84-1.08,5.93-2c0.2-2.32-1.01-6.66-2.16-6.83
		C181.96,315.77,177.63,316.55,172.11,316.88z"/>
	<path class="st0" d="M252.77,660.49c-0.47-6.18-0.77-12.37,4.89-16.78c0.4-0.31,0.37-1.16,0.54-1.76c0.48-0.6,0.97-1.19,1.45-1.78
		c3.35-1,6.66-2.2,10.05-2.91c3.47-0.64,6.97-1.08,10.48-1.31c1-0.09,2.56,0,3.01,0.66c2.17,3.05,4.07,6.32,6.04,9.52
		c0.86,1.4,1.68,2.82,2.52,4.24c-0.31,2.15-0.65,4.3-0.92,6.45c-0.97,7.69-4.64,13.37-12.03,16.32l-21.49,3.81l-3.73-6.33l1.07-0.73
		l-1.28-0.87l-0.69-5.41L252.77,660.49z"/>
	<path class="st0" d="M317.03,539.18c0.6,2.41,1.05,4.87,1.82,7.23c1.38,4.16,1,4.96-3.09,6.18c-1.08,0.33-2.07,0.9-2.88,1.69
		c-4.06,3.91-7.95,7.99-12.05,11.85c-1.92,1.82-4.17,3.29-6.28,4.92l-0.83-0.26l-0.67-0.68c0-0.52,0.05-1.04,0.08-1.55l1.75-1.13
		l-1.66-1.21c0-2.57-0.07-5.14-0.1-7.73c0.39-0.28,1.15-0.56,1.14-0.82c-0.11-4.88-0.31-9.76-0.49-14.63
		c0.12-3.36,0.25-6.73,0.39-10.1v-13.99c0.96-0.9,1.78-2.09,2.9-2.67c5.77-3.01,10.05-7.25,12.45-13.43
		c0.94-2.43,2.58-4.22,5.98-2.08c-2.71,3.87-3.31,7.9-0.77,12.04c2.67,7.17,2.09,14.59,1.55,21.98L317.03,539.18z"/>
	<path class="st0" d="M294.21,518.93v13.99c-0.64,0.73-1.83,1.43-1.86,2.18c-0.45,12.37-0.77,24.79-1.09,37.18l-23.14,24.02
		c-0.46-3.53-1.16-6.63-1.21-9.74c-0.17-9.64,0-19.28-0.17-28.92c-0.05-2.56,0.87-4.23,2.52-6.05c8-8.86,15.93-17.78,23.65-26.89
		C294.02,523.36,293.79,520.88,294.21,518.93z"/>
	<path class="st0" d="M294.57,653.38l9.53,7.86l-1.75,12.37l0.07-0.08c-0.56,0.97-1.62,1.95-1.59,2.89
		c0.12,4.23,0.68,8.44,0.85,12.67c0.17,4.23-2.95,7.31-7.11,6.26c-8.77-2.23-17.46-0.52-26.14-0.1c-4.72,0.38-9.38-1.28-12.79-4.55
		c-2.32-2.13-1.76-4.1,1.98-6.24c-0.85-1.66-3.87-3.5-0.14-5.23c1.89-0.36,3.77-0.66,5.64-1.07c5.33-1.16,10.66-2.37,15.99-3.56
		c5.62-1.02,9.58-4.1,11.31-9.59c1.04-3.26,1.55-6.67,2.5-9.97C293.12,654.37,294.02,653.92,294.57,653.38z"/>
	<path class="st0" d="M210.14,669.04c0.05,0.38,0.3,0.94,0.14,1.11c-4.79,5.06-10.35,8.78-17.64,7.44
		c-10.23-1.89-19.18-6.32-24.07-16.02c-1.46-2.88-1.39-6.69-1.44-10.05c-0.08-6.96,1.77-13.18,8.33-17.01
		c2.9,3.24,5.77,6.51,8.7,9.72C192.23,653.07,200.17,662.13,210.14,669.04z"/>
	<path class="st0" d="M326.18,711.42c0.15,0.62,0.22,1.75,0.45,1.78c2.12,0.31,4.55,1.16,6.35,0.46c4.9-1.9,9.54-0.73,14.29,0.12
		c2.11,0.37,4.24,0.62,6.18,0.9c1.1,2.32-3.04,4.64,0.3,6.74l-0.12,0.14l-0.83-1.09l-1.16,2.4c-0.26,0.6-0.5,1.21-0.77,1.82
		l0.05-0.05c-1.7,0.46-3.4,1.31-5.1,1.31c-3.97,0-7.94-0.53-11.91-0.6c-1.48,0-3.29,0.22-4.41,1.06c-3.61,2.69-7.8,2.32-11.83,2.56
		c-1.5,0.08-3.09-1.07-5.32-1.93c-2.1,1.18-5.36,4.28-8.4,0.45c-0.94-1.18,0.47-4.22,0.91-7.11c-0.42-0.25-0.81-0.54-1.17-0.88
		c-0.73-0.76-1.41-1.56-2.05-2.4l5.18-1.92c0.82-1.93-4.15-2.81-0.87-4.86c0.55-0.34,2.22,1.13,3.55,1.86
		c0.24-1.74,0.59-3.47,1.04-5.17c0.32-0.87,1.05-1.53,1.95-1.77c0.66,0,1.45,1,2.03,1.69c1.68,1.97,3.27,4.01,4.89,6.03l1.17-0.7
		c-0.06-0.64-0.13-1.28-0.19-1.92L326.18,711.42z"/>
	<path class="st0" d="M134.94,253.72l-0.73-0.77l-5.41-4.64l-2.97-2.32l10.95-1.99l1.72,0.14l9.16,1.36l1.55,0.32l3.97-0.13
		c-0.05,0.87-0.16,1.74-0.31,2.61c-0.82,3.39-1.21,6.44,3.53,7.27c0.77,0.13,1.69,1.69,1.77,2.65c0.31,3.43,2.58,4.96,5.41,5.7
		c4.7,1.22,9.48,2.09,14.24,3.09l3.72,1.59c0.35,2.11,0.77,4.21,1.04,6.33c0.09,0.69,0.15,1.68-0.24,2.06
		c-0.39,0.38-1.35,0.21-2.07,0.22c-0.26,0-0.51-0.11-0.68-0.31c-3.24-5.13-8.24-3.09-12.75-3.22c-4.51-0.12-8.95-0.33-13.4-0.77
		c-1.37-0.14-2.64-1.26-3.95-1.92l-1.02-1.08l-3.95-4.4l-1.18-1.65l-3.96-5.41C137.9,256.87,136.42,255.3,134.94,253.72z"/>
	<path class="st0" d="M326.18,711.42l-5.73-1.11l0,0c0.09-0.72,0.16-1.44,0.25-2.16c1.42-5.7,2.84-11.4,4.42-17.78l17.28,0.83
		l15.51-0.13l2.46,1.17l0.05-0.07c-1.04,1.3-2.03,2.63-3.09,3.87c-2.78,3.2-4.04,6.7-2.87,10.98c0.46,1.68,0.39,3.51,0.62,5.95
		c-8.12-0.35-15.6-4.94-23.42-1.65l-0.77-1.05l-0.77,1.08L326.18,711.42z"/>
	<path class="st0" d="M342.28,674.02v-8.85c1.79,1.48,3.47,2.23,4.07,3.49c1.94,4.13,3.46,8.46,5.21,12.68
		c0.51,1.09,1.09,2.16,1.72,3.18c5.25-2.26,5.6-2.64,12.12-13.46l12.65,18.06c1.86-9.28,8.17-14.35,11.9-21.17l1.37,0.69v19.74
		c-11.19,1.81-22.28,1.69-33.39,1.06l-15.46,0.47l-2.95-1.61l-0.16,0.05l2.32-1.59c0.26-1.76,0.55-3.52,0.71-5.3
		c0-0.12-0.97-0.32-1.48-0.49v-1.03c0.54-0.19,1.55-0.36,1.55-0.57C342.49,677.59,342.35,675.81,342.28,674.02z"/>
	<path class="st0" d="M340.87,679.94c0,0.35,0,0.69,0,1.03c-0.05,1.52-0.11,3.03-0.18,4.53l-1.37,2.86l0.16-0.05
		c-4.1,0-8.24-0.21-12.31,0.22c-2.69,0.29-5.27,1.55-7.93,2.38c-1.94-4.51-2.32-18.02-0.65-27.2h7.6l3.87,1.38
		c0.77,0.09,1.5,0.15,2.25,0.26c9.61,1.38,7.95,0,8.68,8.28L340.87,679.94z"/>
	<path class="st0" d="M354.86,732.53c0.86-0.42,1.92-0.65,2.54-1.31c3.09-3.29,10.98-5.59,14.81-3.44c2.51,1.4,4.28,4.14,6.39,6.28
		l-0.6,14.16l0,0l-9.28,2.69l-3.71-2.4l-5.82,4.27c-0.43-0.53-0.61-0.96-0.92-1.1c-8.07-3.66-3.59-11.46-5.53-17.11
		C352.6,734.23,354.09,733.23,354.86,732.53z"/>
	<path class="st0" d="M331.24,663.4c-0.16-0.03-0.32,0.07-0.37,0.22l-4.64-0.88c1.28-3,2.5-6.02,3.87-8.98
		c1.22-2.68,2.59-5.3,3.87-7.94c6.44-12.46,12.87-24.92,19.28-37.38c0.62-1.43,1.14-2.9,1.55-4.4l0,0c0.26-0.52,0.52-1.04,0.77-1.55
		l0,0l1.32-1.37c8.7-17.47,17.38-34.94,26.58-53.42c0.42,2.72,0.68,4.42,0.94,6.11c-5.5,10.98-11.05,21.95-16.5,32.96
		c-3.97,8.02-7.79,16.1-11.67,24.16c-7.48,15.25-14.96,30.51-22.42,45.75c-0.19,0.38,0.12,1,0.19,1.51l0,0l-2.37,3.86L331.24,663.4z
		"/>
	<path class="st0" d="M174.29,238.56l1.21-0.27l2.13,1.04l3.87,2.47l0.31,1.24l-0.15,0.77c-2.67-0.34-6.02-2.25-6.45,3.18
		c4.9,1.3,2.98,5.67,3.38,9.66c3.31-3.54,5.63-6.71,4.64-11.22c1.11,0.47,2.16,1.08,3.13,1.8c1.93,1.85,3.69,3.87,5.51,5.84
		c-1.13,0.63-2.32,1.87-3.37,1.79c-5.87-0.47-7.5,1.44-5.35,6.65c0.77,1.92,1.5,3.87-0.7,5.41l-4.59-1.44
		c-3.01-0.57-6.08-0.96-9.02-1.76c-4.1-1.12-8.56-1.88-8.9-7.73c-0.09-0.95-2.18-2.37-3.53-2.57c-2.47-0.43-2.59-1.82-2.13-3.56
		c0.42-1.07,0.97-2.08,1.64-3.01l7.31-3.48l3.03-1.29l4.64,1.23l3.01-1.01l0.19-0.77L174.29,238.56z M168.57,258.57
		c-2.32-6.96-2.32-6.96,2.64-10.91c0.58-0.45,0.93-1.13,0.95-1.86c-0.1-0.49-1.04-0.99-1.69-1.16c-2.94-0.86-6.1,0.31-7.78,2.88
		c-1.14,1.84-1.34,5.3-0.32,7.16C163.39,256.53,166.39,257.29,168.57,258.57z"/>
	<path class="st0" d="M140.85,214l-7.78-8.83l0.2-1.41l1.91,0.36l3.21,0.24l10.27-0.7c0.67-0.9,1.35-1.79,2.03-2.68l0.97-0.18
		l2.93,1.23c7.33,5.79,11.21,13.22,11.12,22.63l-1,0.05l-3.09-0.77l-10.05-2.61l-3.09-1.48l-3.87-2.26L140.85,214z"/>
	<path class="st0" d="M198.81,308.8c-2.54-0.18-3.09-1.55-2.84-3.94c0.2-1.91-0.29-3.87-0.46-5.84c-0.16-0.73-0.19-1.48-0.09-2.22
		c0.67-2.4,1.48-4.75,2.5-7.88c-0.1,0,1.55,0.15,1.81-0.43c2.37-4.49,4.5-9.11,6.7-13.7c1.92,5.32,3.87,10.64,5.41,15.04
		c1.55-0.86,2.87-2.09,4.39-2.32c1.29-0.22,3.31,0.3,4,1.24c0.57,0.77-0.4,2.62-0.52,4.01c0.08,0.6,0.28,1.19,0.58,1.72l-1.12,0.46
		c-1.69-1.76-3.73-1.02-4.89,1.71c-0.56,1.33-1.25,2.61-1.89,3.87v0.26l-1.43,0.25c-3.46,0.09-5.46,1.92-6.18,5.23l-3.94,1.77
		c0.18-2.54,0.36-5.08,0.54-7.61l4.55-5.88l4.85-0.77l-0.36-1.29l-5,1.46l-5.16,6.39l-0.86,7.73l0.08-0.06l-0.9-0.04l0.05,0.91
		L198.81,308.8z"/>
	<path class="st0" d="M353.66,721.55l0.12-0.14l2.9-8.12l5.76-1.27c3.75,3.52,11.03,3.63,16.23,0v18.02l-1.1,0.66
		c-2.32-5.36-7.13-6.08-11.47-5.83c-4.34,0.26-9.37,0.83-11.3,6.18c-1.99,0.22-3.17-0.39-3.2-2.65c-0.11-1.29-0.32-2.56-0.63-3.82
		l-0.05,0.05l1.45-0.77L353.66,721.55z"/>
	<path class="st0" d="M334.46,638.93c1.64-9.97,3.58-19.9,4.8-29.92c0.83-6.83,0.64-13.78,0.97-20.68c0.13-1.16,0.35-2.32,0.66-3.45
		c1.73,4.39,3.39,8.81,5.26,13.14c0.58,1.37,1.69,2.5,2.56,3.75l-0.06-0.08l0.77,2.4c0.37,1.86,1.62,4.12,0.97,5.52
		c-3.95,8.7-8.26,17.22-12.62,25.73C337.08,636.74,335.58,637.75,334.46,638.93z"/>
	<path class="st0" d="M371.73,764.04c-0.66,6.7-1.48,13.4-1.93,20.1c-0.29,4.48-0.05,8.99-0.05,13.49l-1.27,0.14
		c-0.97-4.84-2.32-9.64-2.87-14.53c-1.02-8.8-1.55-17.66-2.37-26.48c-0.54-5.6,0.34-6.39,5.46-4.45l7.3-0.84
		C374.62,755.49,373.17,759.74,371.73,764.04z"/>
	<path class="st0" d="M194.07,313.43c-0.11-3.29,3.09-3.2,4.75-4.64l-0.17,0.05l0.83-0.87l-0.08,0.06l0.81,0.05l0.12,1.15
		c0.32,1.48,0.64,2.97,0.96,4.45l0.98-0.25l0.96-3.02l3.65,1.87l0.62-0.7l-1.16-2c1.43-0.91,1.45-0.9,3.3,1.55l3.17-2.73l-4.9-1.41
		l3.94-3.04l4.64-0.46h12.49v0.99l-7.14,4.2c-2.92,1.22-5.96,2.23-8.75,3.71c-2.93,1.55-4.88,3.64-3.83,7.67
		c0.43,1.65-0.77,4.17-1.98,5.65c-0.72,0.87-3.09,0.84-4.49,0.46c-0.6-0.16-0.69-2.26-1.01-3.47c0.18,0.02,0.35-0.11,0.39-0.29
		c2.21-1.98,5.23-3.56,3.8-7.97l-4.43,7.26l-0.83,0.86c-2.4,0.09-2.23-1.49-2.07-3.09c0.15-1.41,0.22-2.84,0.31-4.03
		C197.04,314.4,194.07,317.63,194.07,313.43z"/>
	<path class="st0" d="M302.37,673.59c3.4,0.77,6.9,1.24,10.14,2.43c1.28,0.48,2.32,2.46,2.84,3.97c0.62,1.96,0.98,3.99,1.05,6.04
		c0.14,2.07,2.32,4.44-0.5,6.18c-3.39,2.1-6.88,4.14-11.05,2.16c-0.76-0.35-1.33-1.01-1.55-1.82c-0.38-6.35-0.61-12.71-0.87-19.06
		L302.37,673.59z"/>
	<path class="st0" d="M337.85,559.22c-1.65-4.08-3.44-8.12-4.86-12.27c-0.37-1.07,0.39-2.52,0.63-3.8l8.91-8.36
		c1.99,4.64,3.87,8.96,5.65,13.33c0.3,0.8,0.26,1.68-0.12,2.45C345.58,554.54,342.86,558.25,337.85,559.22z"/>
	<path class="st0" d="M119.15,181.77l1.48-2.61c3.22-6.18,6.58-8.33,12.23-7.79c0.87,0.01,1.73-0.05,2.59-0.19l5.28,1.41
		c-0.17,0.16-0.5,0.38-0.47,0.46c0.11,0.32,0.29,0.81,0.55,0.88c6.66,1.86,9.99,7.73,14.69,12c2.32,2.12,2.7,4.1,0,6.14
		c-0.09,0.09-0.24,0.18-0.23,0.26c0.04,0.19,0.1,0.38,0.18,0.56l0.08-0.09l-0.94,0.87l0.09-0.07l-1.65,0.62l-1.03-1.55l-1.09-2.61
		l-0.77-1.88c-0.19-0.56-0.36-1.12-0.54-1.68c-2.8-6.18-7.65-9.38-14.32-9.99l-6.73,0.62l-5.77,4.46l-2.9,1.26L119.15,181.77z"/>
	<path class="st0" d="M219.2,294.91l1.12-0.46l1.45,0.17c3.09,0.44,6.4,1.66,9.34,1.11c3.35-0.63,5.03,0.55,6.62,2.89
		c2.13,3.15,4.84,5.21,8.9,4.75l-2.32,3.91l0,0l-1.9,0.52c-4.15,2.43-5.84,1.6-7.38-3.66c-1.38-1.12-2.84-3.27-4.14-3.18
		c-4.82,0.33-9.87-0.9-14.42,1.64l-2.37-0.39c0.61-1.45,1.42-2.55,1.48-3.69C215.72,296.05,217.06,295.16,219.2,294.91z"/>
	<path class="st0" d="M311.82,478.91c3.57-1.37,7.21-2.59,10.7-4.16c2.39-1.08,3.39,0.14,4.09,1.93c0.7,1.79,1.72,3.87,1.55,5.7
		c-0.11,1.47-1.75,2.82-2.72,4.23l-7.06,4.9c-0.43-0.09-1.23-0.15-1.24-0.29C316.64,486.54,312.98,483.26,311.82,478.91z
		 M316.98,484.07c-0.33,0.22-0.64,0.48-0.9,0.77c-0.05,0.08,0.28,0.6,0.35,0.57c0.35-0.08,0.68-0.24,0.96-0.48
		C317.44,484.91,317.16,484.47,316.98,484.07L316.98,484.07z"/>
	<path class="st0" d="M304.52,672.1c0.4-3.16,0.4-6.67,1.44-9.84c0.6-1.8,2.78-4.13,4.44-4.28c3.09-0.3,6.4,3.3,6.31,6.54
		c-0.09,3.24-0.98,6.66-1.48,9.71L304.52,672.1z"/>
	<path class="st0" d="M169.97,222.94c-0.22,0-0.43,0.02-0.65,0.05h-1.38c-0.93-8.66-4.34-16.02-10.98-21.75v-0.92
		c0.77-0.15,1.68-0.08,2.21-0.5c4.07-3.2,5.71,0.2,7.13,2.85c2.03,3.79,3.56,7.85,5.34,11.8l1.55,3.09v2.32l0.05-0.05L169.97,222.94
		z"/>
	<path class="st0" d="M303.02,363.62h8.61c0.12,1.43,0.22,2.66,0.26,3.2l-13.47,6.12l-4.04,1.72l2.06-8.28
		C297.39,362.52,301.07,365.14,303.02,363.62z"/>
	<path class="st0" d="M303.84,433.23l12.59-2.91c1.69,4.51-1.72,8.88-7.21,9.23c-1.53,0.03-3.07-0.03-4.59-0.16
		C302.3,437.6,300.96,435.67,303.84,433.23z"/>
	<path class="st0" d="M301.68,425.8l13.6-3.62c0.46,1.95,0.9,3.87,1.41,6.04l-12.95,3.81C301.08,431.42,300.21,428.76,301.68,425.8z
		"/>
	<path class="st0" d="M307.6,408.8l5.26,2.82l-0.43,1.34l-7.92,1.93l-6.18,1.07c-0.42-2.15-0.77-4.15-1.19-6.18l0,0l1.32-0.45
		l1.59-0.46L307.6,408.8z"/>
	<path class="st0" d="M304.61,416.26l8.59-1.31c0.49,1.55,0.99,3.2,1.7,5.53l-14.15,2.68c-0.22-1.75-0.43-3.49-0.67-5.47
		C301.52,417.22,303.07,416.74,304.61,416.26z"/>
	<path class="st0" d="M296.42,357.51l14.98-0.83v5.04l-8.39,0.82h-6.59V357.51z"/>
	<path class="st0" d="M326.41,487.44l3.09-1.75l0.54,3.94l-9.28,8.39c-2.04-0.45-2.85-2.32-2.27-5.2L326.41,487.44z"/>
	<path class="st0" d="M330.28,491c2.43,1.28,1.94,3.01,0.44,4.51c-3.02,3-6.18,5.82-9.34,8.72c-1.82-1.06-1.89-2.16-0.33-4.97
		L330.28,491z"/>
	<path class="st0" d="M227.92,641.39c1.63,4.88-2.12,6.35-5.21,8.25C223.29,643.23,224.11,641.93,227.92,641.39z"/>
	<path class="st0" d="M319.43,506.28l-3.99,3.7c0.09-0.96-0.18-2.43,0.32-2.76C316.78,506.57,318.19,506.56,319.43,506.28z"/>
	<path class="st0" d="M298.43,374.56l1.41-0.38c0.26,1.05,0.52,2.09,0.94,3.74l-5.43-0.82L298.43,374.56z"/>
	<path class="st0" d="M238.14,669.02l2.65,3.09v3.15l-1.42,0.21L238.14,669.02z"/>
	<path class="st0" d="M316.33,534.8l1.91,1.1c0.34,1.34,0.69,2.67,1.03,4l-2.24-0.7L316.33,534.8z"/>
	<path class="st0" d="M254.37,629.58c0.33-0.57,0.69-1.13,1.07-1.67c0.44-0.51,0.91-0.99,1.4-1.45c-0.11,1.85-0.21,3.69-0.32,5.53
		l-1.05,0.24C255.14,631.35,254.75,630.46,254.37,629.58z"/>
	<path class="st0" d="M206.44,612.59c-0.4,3.09-0.4,3.09-4.04,2.89l0.89-1.96L206.44,612.59z"/>
	<path class="st0" d="M264.59,557.72c-3.18,0-2.84-1.75-1.86-3.81L264.59,557.72z"/>
	<path class="st0" d="M238.91,581.71l-2.88,3.05C235.82,582.68,235.82,580.74,238.91,581.71z"/>
	<path class="st0" d="M257.35,624.69c1.89-2.39,3.29-0.66,4.73,0.57L257.35,624.69z"/>
	<path class="st0" d="M244.21,577.61c0,2.4-1.21,3.53-3.62,3.33L244.21,577.61z"/>
	<path class="st0" d="M339.34,560.61l3-0.96c-0.68,3.09-2.98,2.59-5.16,2.37L339.34,560.61z"/>
	<path class="st0" d="M336.9,573.21l1.93-0.29c-0.32,0.59-0.65,1.18-0.98,1.77L336.9,573.21z"/>
	<path class="st0" d="M238.09,642.71c1.18,0.77,2.47,1.48,0.07,2.32L238.09,642.71z"/>
	<path class="st0" d="M243.61,649.93l1.01-1.67l1.23,1.12L243.61,649.93z"/>
	<path class="st0" d="M246.32,649.8l1.68-0.12v2.28l-0.83,0.16C246.89,651.34,246.64,650.57,246.32,649.8z"/>
	<path class="st0" d="M252.05,628.92l1.25-1.55l1.12,1.28L252.05,628.92z"/>
	<path class="st0" d="M259.66,640.17c-0.49,0.59-0.97,1.18-1.45,1.78C258.68,641.35,259.17,640.76,259.66,640.17z"/>
	<path class="st0" d="M197.28,618.21l-1.55,1.28c-0.18-0.52-0.36-1.04-0.55-1.55l1.66-0.11
		C197.02,617.93,197.17,618.06,197.28,618.21z"/>
	<path class="st0" d="M248.96,572.53l-1.81,2.08L248.96,572.53z"/>
	<path class="st0" d="M304.55,440.81l0.77,0.95l-2.43-0.53L304.55,440.81z"/>
	<path class="st0" d="M265.19,628.8h1.21l-0.19,1.24L265.19,628.8z"/>
	<path class="st0" d="M331.9,568.69l1.6,0.45l-0.72,1.07L331.9,568.69z"/>
	<path class="st0" d="M296.46,393.03l0.94,0.95l-0.89,0.62C296.5,394.11,296.48,393.55,296.46,393.03z"/>
	<path class="st0" d="M253.42,669.01l1.28,0.87l-1.07,0.73L253.42,669.01z"/>
	<path class="st0" d="M310.23,478.17c-0.08,0.22-0.15,0.45-0.24,0.68l-1.32-0.77L310.23,478.17z"/>
	<path class="st0" d="M167.73,223.91l0.22-0.94h1.38L167.73,223.91z"/>
	<path class="st0" d="M140.74,172.6l-5.29-1.41c-4.64-4-8.71-0.3-13.83,1.55c-4.51-9.75-8.94-19.37-13.35-29.01
		c-0.11-0.13-0.24-0.24-0.37-0.35l-3.52-10.05v0.04l-0.77-1.64c0.9-0.17,1.86-0.66,2.67-0.47c5.41,1.27,10.82,2.59,16.23,4.09
		c3.54,0.98,7,2.32,10.48,3.45l-0.06-0.06l0.85,1.07l1.42,1.99l3.22,3.17l-0.04-0.05l1.62,1.55l-0.05-0.06l1.57,2.42l-0.05-0.06
		l1.59,2.38l-0.04-0.05l1.55,2.37v-0.04c0.53,0.77,1.05,1.55,1.55,2.36l0,0l1.55,3.13l0,0l2.26,3.98l3.18,3.73l-0.05-0.05l1.62,0.77
		l-0.06-0.05l9.31,7.81l-0.06-0.05l0.83,1.63l0.77-0.04l0,0l2.36,1.55h-0.04l3.09,3.87l0,0c-3.57,2.4-6.32,0.9-9.39-1.4
		c-4.95-3.74-10.22-6.92-15.34-10.29c-0.26-0.16-0.69-0.07-1.16-0.1l-0.41,3.04L140.74,172.6z M137.48,152.5l-0.28-1.11
		l-23.68-13.78c0.93,7.07,1.89,12.88,6.9,17.25c-0.16-5.01,0.98-5.68,5.47-3.46c0.57,0.29,1.36,0.46,1.65,0.94
		c1.2,1.94,2.88,3.91,3.09,6c0.12,1.14-2.37,2.54-3.87,4l8.33,2.98c1.98-2.55,2.07-6.1,0.22-8.75c-1.55-2.53-1.7-3.69,2.13-4.07
		L137.48,152.5z"/>
	<path class="st0" d="M354.09,258.48c1.05-2.72,1.92-5.52,3.2-8.12c1.65-3.37,5.06-3.38,8.21-3.72l3.23,0.34l0,0
		c1.58,0.38,3.26,1.27,4.74,1.01c2.76-0.49,4.64-0.13,5.41,2.81l2.04,1.24l0.19,0.97c-0.39,0.7-1.19,1.46-1.11,2.12
		c0.52,4.3-0.66,5.83-4.72,6.53c-2.61,0.46-5.09,1.65-7.73,2.14c-2.17,0.41-4.79,1.06-6.58,0.23
		C358.4,262.82,356.36,260.38,354.09,258.48z"/>
	<path class="st0" d="M407.38,250.04c0.88-1.09,1.77-2.17,2.65-3.26c0.72,0.49,1.5,0.88,2.32,1.17c2.04,0.46,4.29,1.82,5.9-0.86
		l1.58-0.72c1.73,0.43,3.47,0.84,5.2,1.29c2.88,0.77,5.26,1.75,5.13,5.58c-0.05,1.4,1.38,2.86,2.32,4.64l-1.2,2.77
		c-1.08,1.09-2.16,2.19-3.24,3.29c0,0.12-0.14,0.27-0.09,0.35c0.11,0.18,0.24,0.35,0.39,0.49l0,0c-1.66-0.06-3.42,0.19-4.99-0.24
		c-5.19-1.41-10.3-3.09-15.88-4.75l-1.55-6.6C406.36,252.12,406.87,251.1,407.38,250.04z"/>
	<path class="st0" d="M390.09,301.9c-2.27,8.46-4.53,16.93-6.8,25.39c-1.55,2.47-2.84,5.21-4.79,7.3c-1.28,1.38-3.56,1.83-5.41,2.7
		c-0.56-1.85-1.85-3.83-1.55-5.51c1.03-5.65,2.62-11.2,4-16.79c1-4.1,3.36-6.59,7.73-7.2c1.41-0.19,2.78-1.28,3.96-2.24
		c0.37-0.31,0-1.49,0-2.27c0-0.22,0-0.43,0-0.64L390.09,301.9z"/>
	<path class="st0" d="M475.74,341.28c0.19,7.81,0.27,15.62,0.65,23.42c0.11,2.2-0.45,3.3-2.55,3.64l0,0l-1.99-0.77h0.05
		c-1.07-2.77-2.14-5.53-3.22-8.3c0-1.55,0-3.09,0.06-4.64c0.32-5.08,1.14-9.98,5.41-13.46
		C474.48,340.95,475.21,341.23,475.74,341.28z"/>
	<path class="st0" d="M484.73,432.36c1.51,2.58,0.64,5.89-1.93,7.4c-0.53,0.31-1.11,0.53-1.71,0.64c-1.07,0.26-2.16,0.37-3.25,0.55
		h-0.9l-5.41-3.09l0.06,0.05c0.21-2.13,0.31-4.3,0.7-6.4c0.12-0.6,1.05-1.06,1.62-1.55L484.73,432.36z"/>
	<path class="st0" d="M463.08,503.58c-1.79-2.08-3.52-4.2-5.37-6.18s-2.53-3.87-0.13-6.33c3.59,2.57,7.52,4.95,10.82,8.04
		c0.9,0.83-0.18,3.76-0.39,6.18l1.19,0.67C465.69,508.87,464.44,506.03,463.08,503.58z"/>
	<path class="st0" d="M390.09,301.9l-2.81,0.73c0.04-2.4-1.28-3.05-3.46-2.92c-0.9,0.05-1.82-0.45-2.74-0.7l4.22-8.64l5.86,3.69
		C390.84,296.42,390.46,299.16,390.09,301.9z"/>
	<path class="st0" d="M406.65,545.18c-2.93,0.88-1.89,2.56-0.87,4.25l-0.77,1.99l-0.14,1.64l-5.3,0.77
		c2.94-2.81,4.52-6.76,4.32-10.82L406.65,545.18z"/>
	<path class="st0" d="M386.55,553.05c-1.03-2.4-2.06-4.8-3.09-7.2l2.74-0.6c0.77,2.11,1.58,4.22,2.37,6.34L386.55,553.05z"/>
	<path class="st0" d="M391.12,531.42l4.55-1.09l0.19,1.28l-2.71,5.06C392.22,534.23,391.67,532.82,391.12,531.42z"/>
	<path class="st0" d="M333.07,292.8l-1.75-2.47l1.86-0.77L333.07,292.8z"/>
	<path class="st0" d="M452.18,295.64c-0.19,1.03-0.39,2.06-0.6,3.09l-1.65-1.65L452.18,295.64z"/>
	<path class="st0" d="M322.39,417.78c-0.37-0.99-0.77-1.98-1.13-2.98h3.59C323.75,416.15,323.07,416.97,322.39,417.78z"/>
	<path class="st0" d="M353.19,450.25l-0.45,2.25l-1.75-0.82L353.19,450.25z"/>
	<path class="st0" d="M389.06,531.66c-0.42,0.51-0.83,1.01-1.26,1.55l-0.83-2.5l0.66-0.23L389.06,531.66z"/>
	<path class="st0" d="M390.96,528.98l0.16,2.43l-2.09,0.29C389.67,530.79,390.31,529.88,390.96,528.98z"/>
	<path class="st0" d="M361.04,488.2l-1.93-2.45l-0.11-0.11C361.97,484.64,360.6,487.13,361.04,488.2z"/>
	<path class="st0" d="M345.58,557.69l1.12-1.69l1.66,1.16l-0.19,0.71L345.58,557.69z"/>
	<path class="st0" d="M353.09,473.43l0.23,2.32l-1.48-1.25L353.09,473.43z"/>
	<path class="st0" d="M347.82,597.9l-0.66-1.55l1.88,0.63L347.82,597.9z"/>
	<path class="st0" d="M344.04,447.05l-1.55,0.09l0.9-1.22L344.04,447.05z"/>
	<path class="st0" d="M320.18,357.49l-0.05-1.64l1.14,0.77L320.18,357.49z"/>
	<path class="st0" d="M340.8,450.21v0.33c-0.32-0.05-0.65-0.09-0.97-0.15c-0.01-0.12-0.01-0.24,0-0.36L340.8,450.21z"/>
	<path class="st0" d="M301.87,449.7l0.66-0.27l-0.49,0.43L301.87,449.7z"/>
	<path class="st0" d="M317.65,533.15l-0.57-0.36l0.66-0.55L317.65,533.15z"/>
	<path class="st0" d="M578.26,346.71l-3.21,2.23l-0.66-1.32l3.78-1L578.26,346.71z"/>
	<path class="st0" d="M541.15,363.75l-2.32,1.5c0-1.04,0-2.08,0-3.09v-0.05L541.15,363.75z"/>
	<path class="st0" d="M555.14,353.14l-3.16,1.17C552.52,352.57,553.38,351.59,555.14,353.14z"/>
	<path class="st0" d="M574.35,319.98l1.55,0.08l-0.63,0.87L574.35,319.98z"/>
	<path class="st0" d="M552.26,332.59l-0.12-0.06v-1.34l0.47,0.05L552.26,332.59z"/>
	<path class="st0" d="M615.12,323.86l0.47,0.45l-0.6-0.33L615.12,323.86z"/>
	<path class="st0" d="M279.11,171.59l-1.96-1.21l-6.47-7.95c0.04-0.24-0.12-0.47-0.36-0.51c-0.01,0-0.03,0-0.05,0
		c-0.29-2.99,1.95-1.38,2.88-1.35c11.17,0.33,22.33,0.83,33.5,1.27c3.72,0.15,7.46,0.11,11.17,0.4c4.02,0.32,7.2,3.21,7.91,6.39
		c1.32,5.9,1.11,12.14,1.55,18.71c-7.31-1.07-14.05-1.92-20.73-3.09c-2.64-0.57-5.19-1.48-7.58-2.71
		C292.29,178.3,285.71,174.91,279.11,171.59z"/>
	<path class="st0" d="M464.06,164.24l1.27-1.36c3.3-0.29,6.6-0.77,9.91-0.87c9.51-0.33,19.02-0.48,28.54-0.77
		c4.14-0.19,8.26-0.58,13.37-1c-15.14,19.65-35.5,25.05-58.08,26.83c0.34-4.77,0.82-9.1,0.9-13.44
		C459.99,169.84,460.85,166.57,464.06,164.24z"/>
	<path class="st0" d="M359.41,214.32l3.09-1.98v3.68L359.41,214.32z"/>
	<path class="st0" d="M433.71,218.15l-1.55,0.21c0-0.5-0.05-1-0.09-1.5l0.18-0.15L433.71,218.15z"/>
	<path class="st0" d="M430.61,216.02l0.42-0.77l1.22,1.46l-0.18,0.15L430.61,216.02z"/>
	<path class="st0" d="M437.57,608.71l3.83,7.61c0.13,0.34,0.22,0.7,0.39,1.03l10.9,20.81c1.31,8.01,2.67,16.02,3.87,24.04
		c0.19,1.29-0.25,2.67-0.4,4l-3.93,0.58l-1.51,0.19c-6.01,0.36-12.04,1.09-18.05,1.03c-12.72-0.14-25.45-1.28-38.14-0.95
		c-20.63,0.53-41.05-1.72-61.53-3.36c0-0.55,0-1.09,0-1.64l0.97-3.81l0,0c0.7-0.66,1.65-1.21,2.08-2.03
		c5.53-10.71,10.95-21.47,16.5-32.17c1.62-3.09,3.56-6.08,5.34-9.11c6.58,10.45,13.26,20.87,19.68,31.38
		c4.53,7.45,10.71,10.33,19.38,8.85c5.57-0.95,9.88-2.98,12.54-8.25c1.91-3.66,4.08-7.17,6.49-10.51
		c6.83-9.78,13.81-19.46,20.73-29.17l-0.04-0.05L437.57,608.71z"/>
	<path class="st0" d="M384.19,715.49l-2.47-1l2.46-3.3l0.04-0.05c0.77-1,2.37-2.09,2.25-2.97c-0.38-2.81-1.38-5.53-2.13-8.29
		l-3.93-5.74h-0.82v-2.67c15.58-2.09,31.28-4.56,46.94-0.61c-3.42,2.37-2.98,6.66-3.32,10.82c-0.38,4.6,1.27,8.24,4.95,11.32
		c-0.7,0.32-1.28,0.77-1.55,0.66c-5.78-3.09-11.88,3.6-17.91-0.63c-1.01-0.71-4.33,1.86-6.59,2.92l-3.59,0.38l-8.1-0.85
		L384.19,715.49z"/>
	<path class="st0" d="M419.79,686.81c-6.01,0.07-12.04,0.05-18.05,0.26c-2.87,0.11-5.73,0.65-8.91,1.03v-19.33l26.96,1.78V686.81z"
		/>
	<path class="st0" d="M379.6,694.04v0.13c-0.05,0.39-0.1,0.77-0.15,1.17l3.48,4.73c0.11,3.55,3.4,7.06,0.12,10.64l1.17,0.45
		l-0.04,0.05c-3.54-0.36-7.41-3.73-9.41,0.26c-2.74,0.21-4.42,0.46-6.09,0.42c-1,0-2.32-0.19-2.95-0.84
		c-2.84-3.02-3.87-3.09-6.78-0.09c-2.63-2.23-3.56-8.19-1.65-10.99c1.08-1.55,2.5-2.98,3.37-4.64c0.4-0.77-0.14-2.05-0.25-3.09
		l-0.05,0.07l1.55,1.34c2.32-3.59,5.96-0.28,8.8-1.65c3.19-1.55,5.87-0.22,8.13,2.24C378.94,694.27,379.33,694.07,379.6,694.04z"/>
	<path class="st0" d="M446.08,710.46l-10.05,2.95c-6.45,0.07-10.92-5.55-10.49-12.66c0.27-4.38,2.63-7.59,5.1-10.82
		c4.05,0.04,8.09,0.14,12.14,0.08c3.2-0.05,5.62,2.52,5.65,6.34c0,4.04,0,8.07,0,12.11L446.08,710.46z"/>
	<path class="st0" d="M445.3,674.48c-2.01,2.54-4.04,5.09-6.06,7.64c-3.75,3.09-3.81,3.09-6.96-1c-1.59-3.33-3.19-6.66-4.95-10.32
		l18.34-1.45C445.51,671.19,445.39,672.84,445.3,674.48z"/>
	<path class="st0" d="M376.8,684.18c-3.09-4.92-6.42-10.14-9.88-15.58l19.02,1.43C382.85,674.8,379.91,679.35,376.8,684.18z"/>
	<path class="st0" d="M363.83,668.57c-3.09,5.03-4.01,10.82-9.68,14.12c-1.74-5.19-3.39-10.11-5.01-14.97L363.83,668.57z"/>
	<path class="st0" d="M401.18,716.87l-2.64-0.56l3.59-0.38L401.18,716.87z"/>
	<path class="st0" d="M212.01,236.28l0.32-1.38l0.64,0.16l-0.35,1.35L212.01,236.28z"/>
	<path class="st0" d="M451.49,669.18l0.77-0.29l1.55,0.35v15.46l-1.39,0.08C450.42,679.77,451.93,674.36,451.49,669.18z"/>
	<path class="st0" d="M452.26,688.11l-1.55,0.06c0.15-0.63,0.31-1.26,0.77-2.99L452.26,688.11z"/>
	<path class="st0" d="M595.93,181.66h5.71c0,0.26,0.06,0.53,0.09,0.77l-5.79,0.42L595.93,181.66z"/>
	<path class="st0" d="M418.25,247.09c-1.61,2.67-3.87,1.32-5.9,0.86c-0.82-0.29-1.6-0.68-2.32-1.17c0-0.41,0-0.77-0.04-1.22
		l7.09,1.43L418.25,247.09z"/>
	<path class="st0" d="M408.2,237.05l0.81-0.14l0.26,1.14L408.2,237.05z"/>
	<path class="st0" d="M419.83,245.17l-1.61,0.26l0.8-1.28L419.83,245.17z"/>
	<path class="st0" d="M623.09,257.03l5.47-4.64h1.55l-6.18,6.25L623.09,257.03z"/>
	<path class="st0" d="M312.67,340.11c-0.2,2.98-0.37,5.49-0.56,8.28l-14.56-1.96c0.54-9.28,0.87-9.52,9.58-7.58
		C308.87,339.23,310.6,339.63,312.67,340.11z"/>
	<path class="st0" d="M296.82,354.86v-6.96l15.11,2.25c-0.17,1.96-0.32,3.67-0.47,5.51L296.82,354.86z"/>
	<path class="st0" d="M314.34,365.91v-22C319.14,349.21,318.91,361.77,314.34,365.91z"/>
	<path class="st0" d="M330.12,711.35l0.77-1.08l0.77,1.07L330.12,711.35z"/>
	<path class="st0" d="M440.58,257.49c-7.77-10.71-6.62-21.24-4.04-32.56l11.43,15.29L440.58,257.49z"/>
	<path class="st0" d="M430.61,216.02l1.46,0.83c0,0.49,0.05,1,0.09,1.5c3.45,6.8,1.78,18.68-3.29,23.28
		c-0.97,0.88-2.02,2.46-2.87-0.11c-0.56-2.06-1.11-4.11-1.66-6.18c-0.19-2.85-0.39-5.68-0.6-8.5c0.23-3.09,0.37-6.18,0.73-9.22
		c0.27-1.38,0.66-2.74,1.16-4.06L430.61,216.02z"/>
	<path class="st0" d="M436.67,257.1c-2.88-0.84-4.69-2.23-5.32-5.67c-0.4-2.19-2.86-4-4.44-6.04c0.92-0.57,1.79-1.22,2.6-1.94
		c0.84-0.89,1.62-1.84,2.32-2.84c1.76,5.19,3.6,10.6,5.41,16C437.03,256.75,436.84,256.92,436.67,257.1z"/>
	<path class="st0" d="M437.22,256.61l0.19,0.89l-0.77-0.39C436.82,256.92,437.01,256.75,437.22,256.61z"/>
	<path class="st0" d="M171.66,214.46l1.21-1.55c0.88,1.3,1.77,2.59,2.65,3.87c-0.08,0.21-0.14,0.43-0.17,0.65l-2.16,0.1
		L171.66,214.46z"/>
	<path class="st0" d="M463.08,302.52c-0.41,0.32-1.22,0.77-1.17,0.97c0.51,1.69,1.17,3.34,1.79,4.97c-3.93,2.02-6.86,1.67-8.66-0.9
		c-2.64-3.79-2.4-9.03,0.92-12.11l4.78,5.6L463.08,302.52z"/>
	<path class="st0" d="M338.53,240.77c0-0.49-0.3-1.15-0.08-1.43c3.68-4.64,7.43-9.21,11.36-14.05c2.7,10.82,3.59,21.27-3.87,32.13
		c-2.69-5.94-4.95-10.94-7.21-15.94C338.77,241.24,338.7,240.98,338.53,240.77z"/>
	<path class="st0" d="M349.16,256.73l5.25-15.68l4.31,5.41c-2.25,1.04-3.87,3.43-4.38,7.05c-0.22,1.43-3.09,2.47-4.75,3.68
		L349.16,256.73z"/>
	<path class="st0" d="M349.57,257.15l-0.7,0.36c0.1-0.26,0.19-0.53,0.29-0.77L349.57,257.15z"/>
	<path class="st0" d="M588.1,309.41c3.67,1.04,5.87,7.73,4.57,12.28c-0.73,2.57-4.23,3.35-9.72,1.75
		C591.26,321.03,588.63,315.01,588.1,309.41z"/>
	<path class="st0" d="M492.24,353.14l-14.29-0.67c-0.14-1.99-0.26-3.7-0.39-5.76l13.91-1.78
		C491.75,347.84,491.99,350.4,492.24,353.14z"/>
	<path class="st0" d="M478.48,338.74l12.32-1.23c0.18,1.88,0.36,3.76,0.56,5.98l-13.95,1.25c-0.22-1.3-0.41-2.38-0.6-3.47
		C477.36,340.42,477.92,339.58,478.48,338.74z"/>
	<path class="st0" d="M475.4,410.34c-2.02,8.36-3.82,15.83-5.6,23.19C463.4,425.98,465.48,414.07,475.4,410.34z"/>
	<path class="st0" d="M485.45,423.78c2.73,1.29,2.73,4.15,0,7.31l-10.82-2.32c-2.32-1.27-2.32-1.27-0.24-6.18L485.45,423.78z"/>
	<path class="st0" d="M436.64,546.91v-15.55C440.76,532.35,440.91,541.13,436.64,546.91z"/>
	<path class="st0" d="M534.82,268.11c0.04,0.43,0.09,0.87,0.12,1.31l-0.83-0.09L534.82,268.11z"/>
	<path class="st0" d="M196.87,617.83c0.49-1,0.97-2,1.47-3.01l1.38,1.04l-2.43,2.32C197.17,618.04,197.03,617.92,196.87,617.83z"/>
	<path class="st0" d="M293.14,558.47c0.22-5.15,0.44-10.31,0.66-15.46c0.18,4.88,0.38,9.76,0.49,14.63
		C294.3,557.92,293.54,558.19,293.14,558.47z"/>
	<path class="st0" d="M293.16,568.52c0-0.77,0.05-1.55,0.09-2.32l1.66,1.21L293.16,568.52z"/>
	<path class="st0" d="M200.26,308.08l0.73-0.12l-0.61,1.28L200.26,308.08z"/>
	<path class="st0" d="M314.46,412.1c6.18,2.99,8.21,11.36,4.51,17.53C317.51,423.9,316.06,418.26,314.46,412.1z"/>
	<path class="st0" d="M332.27,488.21c-1.25-3.87-2.58-7.68-3.7-11.6c-0.2-0.71,0.34-2.32,0.73-2.37c0.9-0.17,2.56,0.11,2.78,0.66
		c1,2.25,1.65,4.63,1.95,7.07c0.17,2.06-0.56,4.21-0.9,6.31L332.27,488.21z"/>
	<path class="st0" d="M348.85,545.4c-1.59-3.61-3.18-7.22-4.92-11.19l5.91-3.23l1.21,0.48l-1.16,14.01L348.85,545.4z"/>
	<path class="st0" d="M156.97,201.24l-2.23-0.77l2.23-0.15V201.24z"/>
	<path class="st0" d="M247.41,302.12c-3.87,0.25-6.32-1.86-8.5-4.77c-1.95-2.61-4.13-4.3-8.04-3.38c-2.81,0.66-6.01-0.37-9.04-0.65
		c0.04-0.63,0-1.28,0.12-1.91c0.72-4.52-1.09-6.43-5.7-5.85c-1.52,0.28-3.03,0.65-4.51,1.1c0.29-1.24,0.25-2.7,0.93-3.62
		c1.88-2.73,4.02-5.26,6.4-7.56c3.51-3.19,5.06-2.19,9.04,0c5.69,3.14,8.13,8.91,12.55,12.98l1.11,1.16
		c2.4,3.63,6.78,6.18,6.08,11.46C247.75,301.44,247.6,301.79,247.41,302.12z"/>
	<path class="st0" d="M194.3,322.91c-1.08-4.77-0.83-5.25,2.78-5.57C197.65,321.39,197.57,321.55,194.3,322.91z"/>
	<path class="st0" d="M352.84,605.63l0.19,0.28c-0.09,0.06-0.2,0.19-0.28,0.17c-0.08-0.02-0.13-0.17-0.19-0.26L352.84,605.63z"/>
	<path class="st0" d="M414.38,348.25c4.31-0.43,4.38-4.41,6.04-7.1c1.11-1.79,2.36-3.47,3.55-5.2c1.43,1.57,2.77,3.21,4.03,4.92
		c8.87,13.43,8.8,27.74,4.16,42.53c-1.23,3.9-1.75,8.04-3.17,11.86c-1.07,2.9-3,5.48-4.64,8.16c-1.48,2.44-3.24,4.74-4.52,7.27
		c-1.36,2.68-2.4,4.95-6.27,3.74c-2.95-0.92-5.55,0-7.54,2.95c-4.53,6.7-15.46,6.14-19-1.06c-2.08-4.25-5.87-4.81-9.55-5.24
		c-4.11-0.49-6.76-2.03-7.58-6.18c-0.53-2.72-1.4-5.2-4.28-6.42c-0.68-0.36-1.18-0.98-1.39-1.72c-1.42-5.85-3.49-11.67-3.87-17.6
		c-0.63-7.68-0.39-15.4,0.71-23.02c0.9-5.81,3.87-11.31,6.11-16.87c0.28-0.69,1.9-1.39,2.71-1.21c8.34,1.93,14.81,6.73,19.68,13.67
		c2.8,3.61,7.39,5.35,11.88,4.51c1.96-0.45,3.97-0.73,5.94-1.08l1.5,2.38C410.91,354.13,412.66,351.18,414.38,348.25z"/>
	<path class="st0" d="M405.11,307.44l-2.47,0.86l9.43,5.13c0,0.13,0.05,0.26,0.07,0.38c0.77,6.88,1.76,13.74,2.13,20.63
		c0.08,1.44-2.13,3-3.81,5.18c0.57,1.86,1.49,4.85,2.4,7.83c-1.55,2.31-3.09,4.63-4.64,6.96c-1.77-8.5-3.55-17.01-5.41-25.83
		c-1.92,0.94-3.5,1.68-5.06,2.47c-4.82,2.43-8.56-0.9-12.66-2.32c0.92-2.57,2.14-5.06,2.69-7.73c1.75-8.36,3.26-16.77,4.85-25.18
		c0.15-1.27,0.65-2.48,1.46-3.48l1.37,3.32l8.63-4.01l-0.92,5.7c-1.55,6.12,5.26,5.41,7.37,9.1L405.11,307.44z M402.53,326.16
		c-1.66-8.95-3.21-17.25-4.77-25.67c-1.93,2.31,1.56,22.26,4.73,25.67H402.53z"/>
	<path class="st0" d="M423.4,476.05c2.78,2.4,5.08,4.41,7.4,6.39c1.62,1.38,2.79,1.28,3.87-0.77c0.83-1.55,2.2-2.88,3.32-4.3
		c1.34,1.62,3.7,3.18,3.81,4.89c0.26,4.06,0.48,8.67-1.2,12.14c-1.83,3.78-6.12,5.74-10.82,3.49c-6.74-3.22-9.92-7.35-8.97-13.56
		C421.25,481.46,422.55,478.66,423.4,476.05z"/>
	<path class="st0" d="M454.43,491.84c-0.77-4.45-1.71-8.18-2.06-11.95c-0.39-4.19,4.04-6.69,9.11-5.41
		C461.68,478.88,460.08,482.9,454.43,491.84z"/>
	<path class="st0" d="M473.59,506.62c-3.04-1.48-3.78-3.54-2.47-6.82c2.07-5.18,3.72-10.53,5.75-16.4
		C478.64,491.24,477.72,497.28,473.59,506.62z"/>
	<path class="st0" d="M458.03,489.54c0.77-1.48,1.24-2.49,1.92-3.83l11.71,6.65c-0.49,1.79-0.93,3.36-1.59,5.76L458.03,489.54z"/>
	<path class="st0" d="M463.85,479.6v-5.48l13.42,5.66l-3.4,4.57l-3.87-1.65h0.06l-2.4-0.77h0.05l-0.82-0.83h0.06l-2.39-0.77
		l0.06,0.04l-0.83-0.84L463.85,479.6z"/>
	<path class="st0" d="M473.86,485.83c-0.59,1.55-1.18,3.04-1.84,4.73l-11.6-6.53l3.45-4.44h-0.07l0.83,0.84l-0.06-0.04l2.39,0.77
		h-0.06l0.82,0.83h-0.05l2.4,0.77h-0.06L473.86,485.83z"/>
	<path class="st0" d="M350.86,465.73c-4.51,0-9.08-7.55-6.76-11.38c0.26-0.43,2.52-0.38,2.8,0.08c2.37,3.95,4.92,3.68,8.13,1
		c0.84-0.71,2.47-0.48,3.73-0.68c0.07,1.19,0.44,2.47,0.15,3.56C357.64,463.22,354.81,465.73,350.86,465.73z"/>
	<path class="st0" d="M438.99,440.88c1.33,0.99,2.6,2.05,3.8,3.19c3.35,3.49,6.01,3.25,8.63-0.77c0.75-0.9,1.59-1.72,2.52-2.43
		c0.67,1,1.25,2.05,1.75,3.15c0.31,1.11,0.52,2.25,0.64,3.39c0.81,4.44-1.92,9.68-6.01,11.47c-3.78,1.66-12.52-2.82-13.09-6.9
		C436.71,448.29,435.78,444.41,438.99,440.88z"/>
	<path class="st0" d="M403.28,279.74c0,1.83,0,3.09,0,4.4c-0.19,6.18-1.69,7.67-7.78,6.76c-4.41-0.67-9.43-0.65-11.22-6.33
		c-1.67-5.3-1.21-10.13,2.57-14.39c1.62-1.82,3.4-3.5,4.95-5.41c2.19-2.66,4.14-1.86,6.03,0.22
		C401.74,269.35,404.8,274.01,403.28,279.74z M390.64,276.16c1.23-0.97,1.55-1.26,1.94-1.55c0.77-0.61,1.63-1.21,2.45-1.81
		c0.29,1,0.88,2.02,0.77,2.98c-0.26,1.47-0.65,2.91-1.17,4.31c2.71,0.63,3.76-0.73,3.73-3.46c-0.05-3.66-2.2-7.73-4.17-7.33
		C391.07,269.93,390.88,272.53,390.64,276.16L390.64,276.16z"/>
	<path class="st0" d="M377.83,570.35c0.95-1.96,1.91-3.91,2.86-5.87l1.55-0.52l-0.77-1.02c0.53-1.03,1.04-2.06,1.55-3.09l2.75-0.07
		c-0.32-1.11-0.66-2.22-0.98-3.32l0.94-2.65l0.77-0.77l2.02-1.45l5.57,3.72l1.17-0.14v-0.05c0.32,0.99,0.63,1.99,0.94,2.98l0.9-0.37
		l-0.5-2.18l3.03-1.73l5.3-0.77l9.48,16.23c6.06,10.61,12.12,21.22,18.18,31.83c0.69,1.21,1.28,2.48,1.91,3.73
		c-0.16,0.72-0.32,1.45-0.48,2.17l-1.55,1.81l-1.85,2.29c-8.46,12.43-16.86,24.91-25.44,37.25c-2.02,2.91-4.73,5.2-8.73,4.82
		c0-7.15,0.08-13.91-0.05-20.72c0-1.48-0.83-2.96-1.28-4.44c0.17-1,0.23-2.01,0.19-3.02c-0.27-1.77-0.23-4.08-1.32-5.1
		c-1.47-1.14-3.39-1.53-5.19-1.06c-1.46,0.54-2.78,2.57-3.27,4.22c-0.36,1.21,0.77,2.84,1.19,4.28c-5.86,0.56-3.05,4.72-3.2,7.66
		c0.09,1.39,0.19,2.78,0.26,4.17c0.21,3.98,0.41,7.96,0.62,11.94c-1.32-1.72-2.71-3.38-3.94-5.15
		c-7.52-10.82-15.02-21.68-22.5-32.58l-0.81-2.32c6.12-12.07,12.24-24.15,18.36-36.24c0.35-0.68,0.77-1.32,1.13-1.99
		C379.55,573.29,378.22,571.6,377.83,570.35z M401.5,647.01l-0.51-0.16l0.08,0.29L401.5,647.01z"/>
	<path class="st0" d="M395.27,555.18l-1.17,0.14c-0.13-2.28-0.1-4.58,0.08-6.86c0.26-1.91,0.39-3.21-1.55-4.55
		c-0.88-0.61-0.99-2.98-0.69-4.38c0.16-0.77,2.4-1.86,2.93-1.55c1.11,0.67,1.89,2.1,2.47,3.38c0.31,0.7-0.04,1.72-0.18,2.58
		C396.6,547.71,395.91,551.44,395.27,555.18z"/>
	<path class="st0" d="M396.6,555.56l0.5,2.18l-0.9,0.37c-0.31-1-0.63-1.99-0.94-2.98L396.6,555.56z"/>
	<path class="st0" d="M324.42,308.95l7.37-12.45c2.57,5.23,2.14,8.94-0.89,11.97C328.87,310.5,328.05,310.62,324.42,308.95z"/>
	<path class="st0" d="M370.54,265.27c4.88-2.45,6.83-2.47,8.39,0H370.54z"/>
	<path class="st0" d="M419.07,265.33c-4.1,0-7.39,0-10.68-0.07c-0.15,0-0.27-1.08-0.46-1.88
		C411.73,263.03,415.28,262.46,419.07,265.33z"/>
	<path class="st0" d="M563.05,605.45c-1.32,1.45-2.2,3.3-3.42,3.56c-2.04,0.46-4.17,0.26-6.09-0.58c-1.01-0.49-1.2-2.84-1.55-4.41
		c-0.08-0.38,0.97-1.4,1.07-1.35c2.67,1.48,4.78-0.13,7.13-0.91C560.63,601.63,561.83,603.83,563.05,605.45z"/>
	<path class="st0" d="M425.6,213.53c-0.5,1.32-0.89,2.68-1.16,4.06c-0.36,3.09-0.49,6.15-0.73,9.22c-0.37-4.55-0.77-9.08-1.16-14.11
		L425.6,213.53z"/>
	<path class="st0" d="M384.85,634.97v-4.84c1.06-0.37,2.14-0.69,3.24-0.94c6.14-1.09,6.86-0.44,6.82,5.67
		c-0.05,6.27,0,12.53,0,19.33c-3.54-0.73-6.96,1.03-8.61-2.88L384.85,634.97z"/>
	<path class="st0" d="M392.36,626.98l-4.55-0.44l-0.77-2.27l-0.17-1.78l3.35-4.27C395.31,622.25,395.5,623.14,392.36,626.98z"/>
	<path class="st0" d="M430.61,611.09l1.83-2.27L430.61,611.09z"/>
	<path class="st0" d="M433.99,607.01c0.16-0.73,0.32-1.45,0.48-2.17l0.63,0.18C434.73,605.68,434.36,606.35,433.99,607.01z"/>
	<path class="st0" d="M160.39,188c-7.9-6.31-13.58-12.65-13.42-15.35l18.27,12.04L160.39,188z"/>
	<path class="st0" d="M199.49,340.45c-0.26,0.54-0.52,1.08-0.77,1.62C199,341.54,199.25,341,199.49,340.45z"/>
	<path class="st0" d="M205,636.06c-0.15-2.69-0.3-5.33-0.46-8.17l8.69-2.17c3.96,3.99,0.68,7.8-0.77,11.83L205,636.06z"/>
	<path class="st0" d="M384.78,556.44c0.32,1.11,0.66,2.21,0.98,3.32l-2.75,0.07C383.6,558.76,384.23,557.6,384.78,556.44z"/>
	<path class="st0" d="M377.83,570.35c0.39,1.22,1.72,2.91-1.24,2.42C377,571.99,377.41,571.18,377.83,570.35z"/>
	<path class="st0" d="M381.44,562.96l0.77,1.02l-1.55,0.52C380.94,563.99,381.19,563.48,381.44,562.96z"/>
	<path class="st0" d="M401.5,647.04l-0.43,0.12l-0.08-0.29L401.5,647.04z"/>
	<path class="st0" d="M387.03,624.27c-0.05-0.6-0.12-1.18-0.17-1.78C386.91,623.09,386.97,623.69,387.03,624.27z"/>
</g>
</svg>
