<svg id="Capa_1" data-name="Capa 1" xmlns="http://www.w3.org/2000/svg" viewBox="0 0 573.89 779.2"><defs><style>.cls-1{fill:#a4793c;}</style></defs><title>logo_elfo_de_sangre</title><path class="cls-1" d="M50,519.2c4.16,4.45,4,9,2.23,14.83-1.46,4.81.17,10.58.53,15.91a38.46,38.46,0,0,0,.83,4.59l-.77,3.88L48.79,556l-.15-.17-5.19-6.27-1.74-2.88c-1-2-2-4-3.05-6v-.14L35.85,537l-.16-.17-3.54-7.39c-.28-.58-.56-1.16-.83-1.74-.79-1.75-1.57-3.49-2.35-5.24l-.84-1.73-4-9.87v-.08c-.4-1.28-.81-2.55-1.21-3.83-.39-4.67-.55-9.38-1.24-14-.54-3.67-1.73-7.23-2.62-10.84v-.87l5,2.17a30.56,30.56,0,0,0,.82-4.85c.17-7,4-12.15,8.74-16.61a235.77,235.77,0,0,1,19.69-17.18,30,30,0,0,0,11.66-17.7,18.64,18.64,0,0,1-3.35,14.94,142,142,0,0,1-9.9,11.31c-11,10.92-15.58,24.3-14.21,39.36.92,10.08,5.9,18.88,12.62,26.54ZM30.42,477.85c-1.08,10.35-1.45,20.61,3.19,30.36a22.77,22.77,0,0,0,.64,2.46c4.2,11.17,11,21.38,12.43,33.58,0,.15.44.25,1,.58-.59-14.09-5.86-26.24-13.21-37.68q-1.35-14.64-2.69-29.3l9.9-17.56-1.73-.9Q35.22,468.62,30.42,477.85Z" transform="translate(-19.06 -6.4)"/><path class="cls-1" d="M563.54,515.84c.63-.16,1.64-.13,1.83-.5,4.12-8.26,9.79-16,9.52-25.85-.36-13.29-4.22-25.12-13.46-35.15a114.24,114.24,0,0,1-13.57-17.94c-2-3.28-1.92-7.81-2.78-11.78l1-.25c.67,2.11,1,4.46,2.1,6.28,2.75,4.39,5.36,9.06,9,12.64,6.51,6.39,13.8,12,20.65,18.06a27.56,27.56,0,0,1,9.77,22.36l5.31-2.43v.87c-.89,3.6-2.6,7.22-2.55,10.81.25,16.25-7,29.77-14.83,43.15-1.37,2.33-2.63,4.73-4.11,7-3.45,5.26-7,10.44-10.53,15.66l-2-.69c0-2.35-.46-4.82.09-7,1.92-7.68,2.3-15.17-.7-22.72-.52-1.31.28-3.36.91-4.88A25.92,25.92,0,0,1,562,519.2l-.1.06,1.73-3.58Zm17.24-39.72c-2.29-6.25-5.41-12-11-16.06q4.9,8.08,9.82,16.17c.18,4.56.57,9.12.52,13.68-.1,8.71-2.71,16.57-6.63,24.48-4.31,8.7-6.69,18.35-9.8,27.63-.3.88.19,2,.31,3a3.51,3.51,0,0,0,1.82-2.35c1.4-9.63,5.79-18.08,9.94-26.72a63.09,63.09,0,0,0,6.34-33.69A53.53,53.53,0,0,0,580.78,476.12Z" transform="translate(-19.06 -6.4)"/><path class="cls-1" d="M228.48,591.63c-3.57-5.12-6.81-10.51-10.79-15.27-3.57-4.27-7.94-7.88-12-11.7-1-.94-2.3-2.12-3.5-2.18-4.49-.22-4.24-3.2-3.71-6.09.85-4.62-4.46-13.38-9-14.07-.71-.11-1.66.94-2.39,1.58a19.37,19.37,0,0,1-4.11,3.2c2.2-4.62-1.49-5.93-3.38-8.42-5.88-7.76-11.35-15.82-16.85-23.85a5.68,5.68,0,0,1-.66-3.65c.49-3.77-1.47-5.72-4.48-7.44a13,13,0,0,1-4.41-4.33c-6-9.77-11.76-19.66-17.62-29.51a1.25,1.25,0,0,1-.21-.37c-1.29-8.21-8.35-13.52-10.57-21.34s-5.3-15.08-7.42-22.77a272.08,272.08,0,0,1-6.78-31.9c4.27,3,6.28,7.55,9.28,11.32,3.32,4.14,6.8,8.15,10.34,12.1,3.39,3.78,6.95,7.42,10.44,11.12l1-.61c-.2-.82-.35-1.66-.62-2.47-1.27-3.73-2.37-7.55-4-11.14-.52-1.18-2.38-1.76-3.63-2.61l-1,1c-1.31-3.92-2.54-7.86-3.95-11.74-1.13-3.08-1-7-5.14-8.29-.38-.12-.66-.9-.8-1.42-5.27-20.68-10.8-41.31-10.32-62.93,0-.66,0-1.33,0-2.44l24.71,37.32,1.37-.7c-.75-2.82-1.94-5.61-2.14-8.47-.36-5.15,1.49-11.13-.54-15.34-2.62-5.41-1.49-10.5-2-15.69-1.45-14.76,1.94-29.05,5-43.34a61.11,61.11,0,0,1,3-9.89c6.43,18.12,9.16,37.55,20.74,54.51.42-2.41.77-4,1-5.64,2.29-19.49,11.13-36.68,20.3-53.4,7.95-14.5,18.21-27.73,27.39-41.54,9.6-14.44,19.73-28.58,28.43-43.54,3.82-6.56,5-14.76,6.79-22.36.8-3.41.26-7.14.24-10.73,0-7.93,1.42-16.07-3.79-23.28l1.14-.62c1.34,1.6,3,3,3.94,4.84,2.12,4.2,3.8,8.61,5.82,12.86.46.95,1.61,1.56,2.44,2.32l0-.05,2.63,3.09a.41.41,0,0,0,.36.37l4.79,8.8-1.1.61-2.31-1.62c-3.45,4-6.62,7.71-9.76,11.41-.1.12.11.5.18.76l.11-.13c-.17,1.66-1,3.72-.3,4.85.57.94,3.21,1.46,4.41.94a4.55,4.55,0,0,0,2-3.94c-.84-4,.77-7.08,3.1-10.85,3.53,19.13,12.13,36.09,14.48,54.89,2.33,18.56,5.95,37,8.94,55.06,2.67-16.44,1.24-33.3-.91-50.24,8.7,14.17,12,30.21,16.92,46.32l5.34-11.4c2.22,3.79,8.43,13.37,8.43,13.37l-2.65,5.22s-4.11-5.88-5.53-8c-1.62,3.29-4.07,6-4.16,8.85-.39,11.81-.06,23.65,0,35.49-2.83,10.47-5.35,21.05-8.55,31.41-6,19.57-13.09,38.92-12.34,59.84.27,7.44,1.27,14.85,1.93,22.28,1,11.09,3.6,21.69,9.3,31.39a4.35,4.35,0,0,1,.43,3.11c-1,3.17-2.2,6.24-3.19,9-3.33-11.09-7-22.21-9.94-33.5a102.75,102.75,0,0,1-3-19,110.8,110.8,0,0,1,.37-19.36,199.54,199.54,0,0,1,4.19-25.78c4.4-17.9,9.88-35.54,14.08-53.48a105.28,105.28,0,0,0-1.67-55.73c-1.2,8-2.7,16.64-3.76,25.31a58.47,58.47,0,0,1-20,37.86q-13.51,12-27.41,23.51c-15,12.55-27.47,27.26-36.47,44.61-2.8,5.39-6.9,10.39-6.92,17.21a76.79,76.79,0,0,0,9.83,37.39c7.56,13.8,16.57,26.79,25,40.14.68,1.09,1.3,2.23,1.95,3.34l-1.16.91c-22.42-16.74-43.27-35.19-60.91-57.3a97.58,97.58,0,0,0,2.34,11.79c2.79,11.15,6,22.11,14.2,30.78,4.54,4.79,8.83,9.82,13.49,14.48,15.53,15.52,31.21,30.88,46.73,46.41,2.61,2.62,4.7,5.75,7,8.64l-1,1c-22.15-12.1-45.91-21.36-65.29-38.4a14.25,14.25,0,0,0,1.45,4.14c8,16.4,16.92,32.1,30.47,44.87,9.07,8.54,17.93,17.53,25.53,27.36a272.67,272.67,0,0,1,35,59.32,230,230,0,0,1,11.94,35.35c4.56,18.5,7.85,37.3,11.33,54.29.18-2.86.81-7.56.71-12.25-.76-34.3-1.39-68.62-2.61-102.91-.91-25.24-6.77-49-23.58-69-.66-.78-.56-2.48-.33-3.66.73-3.76,2-7.44,2.46-11.23.5-4.52-5.58-12.85-9.73-14.06-7.36-2.16-13.46,1.89-15.64,10.95-10-10.74-17.09-22.65-20.92-36.53,18.09,2,18.75,1.93,21.85-2.32a27,27,0,0,1-4,.61c-8.71-.08-15.25.38-18.26-8.23a136.74,136.74,0,0,1-4.76-18.55c-.8-4.06-.69-8.29-1-13,7.27,8,14.12,15,24.92,16-12.28-6.18-20.09-16.39-23.77-29.05-3.58-12.28-5.82-25.11,0-37.91,10.18,23.37,17.24,33.8,22.74,33.92-3-4.73-6.69-9.28-9.05-14.42-7-15.24-8.73-31.45-6.42-47.91,1.5-10.7,6.73-20.06,13.89-28.1,8.31-9.32,16.9-18.38,25.55-27.39A42,42,0,0,0,289.86,291c.4-2.81,1.12-5.57,1.83-9a36.6,36.6,0,0,1,1.31,4.62,28.67,28.67,0,0,1,.15,4.73c-.45,19.48-3.44,38.38-10.78,56.64-6.22,15.47-9.17,31.85-10.77,48.47-1.36,14.19,2,27.55,6.14,40.9,2.79,9,5,18.13,7.54,27.21.76,2.76,0,4.56-2.88,5.64-1.44.54-2.58,1.86-3.86,2.84l.62.72,11.4-5.51,1.07,1c-.5,2.81-1,5.61-1.53,8.61,3.7,1.32,6.43,4.66,7.42,9.49-.13,1.66-.25,3.33-.37,5l-.72-.29v0l.75.3c-1.19,4.63-5.27,8.34-9.29,8.43-5.35.12-10.63-3.32-11.72-8.16-.86-3.85-1.09-7.84-1.6-11.77l-1.08.06c.22,3.59.29,7.19.7,10.76.71,6.32,5.24,9.18,10.63,11s9.33-.51,12.3-5c.2-.31,1.4,0,2.13.08l8.82,32.14.75.06,4.38-31.11c3.63,1.54,7.11,3.36,10.79,4.49,4.69,1.44,8.82.31,11.35-4.28,3.95-7.18,4.8-14.5.72-22a11.4,11.4,0,0,0-9.07-7.23c.89-6.27.78-12.9,2.86-18.74,6.7-18.76,10.08-38,8.65-57.78-.84-11.63-4.09-23.08-6.17-34.62-.25-1.4-.51-3.46.24-4.27,6.28-6.8,12.8-13.38,19.75-20.54,29.75,32.63,28.34,65.42,4.34,99.4,13.53-6.93,18.81-19.82,23.91-33.84,7.89,28.81-2,49.9-24.41,66.55,11.36.27,18.34-6.49,24.71-15a217.4,217.4,0,0,1-4,25.88c-1.76,7.82-6.59,11.42-13.84,11.35-4,0-8,0-11.87,0,6.21,9,15.42,4.23,24.8,4.25l-19.83,33.7c-2.48-3-4.09-5.16-6-7.09-3.31-3.37-12.79-4.06-15-.81-4.65,6.69-9.41,13.46-5.09,22.43.82,1.69.39,4.46-.36,6.37-3.58,9-7.87,17.8-11.15,26.93-6.52,18.15-10.72,36.7-10,56.29.82,22.08.69,44.21,1,66.32,0,1.17.22,2.34.33,3.52l1.11.1c.35-1.36.7-2.72,1-4.09,2.65-10.68,4.76-21.53,8.07-32,5-15.77,10.41-31.43,19.12-45.68,3.21-5.26,6.41-10.52,9.48-15.86A166.07,166.07,0,0,1,373,570c15.85-16.48,33.11-31.92,42.58-53.52,1.69-3.85,3.67-7.57,5.52-11.35l-.95-.8c-19.05,17.59-43,26.56-65.47,38.3a44.6,44.6,0,0,1,6.87-9.32c15.42-15.42,31-30.64,46.42-46.09,11.84-11.89,23.75-23.79,27.05-41.35,1-5.36,2.56-10.61,3.84-15.84-10,10.32-19.51,20.81-29.77,30.52s-20.15,19.53-33,26.58c9.26-15,19-28.93,26.69-43.88,4.91-9.48,7.37-20.36,10-30.85,1.75-7-1.1-13.41-4.12-20a127.74,127.74,0,0,0-24.12-34.77c-10.84-11.36-23.61-20.87-35.42-31.32A116.52,116.52,0,0,1,336.51,314c-6-7.16-11.12-14.86-12.61-24.48-1.72-11.16-3.76-22.27-5.6-33a25.55,25.55,0,0,0-.57,2.74c-1.31,10.49-3.92,21-3.56,31.48.59,17.18,4.32,34.06,9.53,50.52,6.61,20.92,12.35,41.82,12.07,64.22-.19,15.33-4.35,29.3-9.16,43.66l-3.4-2.2a238.31,238.31,0,0,0,6.68-32.2,132.58,132.58,0,0,0-4.34-54.81q-7.69-26.31-15.33-52.65c-.35-15-1.49-30,1.72-44.82,3.17-10.69,6.16-21.44,9.6-32.05,1.52-4.69,4-9.09,6-13.62l1.17.41c-1.79,16.66-4.05,33.31-1,49.33,3-17.92,6.58-36.33,8.94-54.9,2.37-18.73,10.87-35.62,15.19-54,1.26,3.29,1.54,6.66,2.24,9.94.34,1.58,1.14,3.49,2.36,4.31.85.57,3.7-.07,4-.84.59-1.42,0-3.35-.14-5.06l.1.12a4.66,4.66,0,0,0-.54-1.7c-1.84-2.14-3.92-4.09-5.62-6.32a26.85,26.85,0,0,1-2.4-4.83L348,155.78l-.72-.6,4.48-9.09-.08.06.84-.24.9-2a.41.41,0,0,0,.38-.36c1.1-.56,2.58-.84,3.19-1.73.84-1.21,1-2.88,1.47-4.35l.18-2.56-.1.06c1.2-1.68,2.43-3.35,3.57-5.06,1.62-2.43,3.18-4.9,4.91-7.59.7.86,1,1.11,1,1.23-6.76,18.31-4.69,36.63,2.44,53.9,4.47,10.82,12.17,20.38,18.9,30.17,10.22,14.88,21.65,29,31.09,44.34,7.61,12.36,13,26.08,19.44,39.15a85.4,85.4,0,0,1,8.43,30.41c.05.49.24,1,.52,2.13,6.11-8.72,9.7-17.75,12.34-27.25s5.4-18.67,8.45-29.18c1.87,7.79,3.74,14.56,5.09,21.42a151.47,151.47,0,0,1,2.68,43.17c-.17,1.81-1.4,3.5-1.69,5.31s.09,3.77-.05,5.64c-.33,4.41-.71,8.83-1.24,13.22-.21,1.79-.87,3.53-1,5.44,10.61-10.31,17.16-23.44,25.27-35.6-.33,13.92-.32,27.75-4.14,41.22-1.79,6.33-3.25,12.75-4.82,19.15-.72,3-.62,6.31-4.41,7.65-.74.26-1.06,1.92-1.42,3-1.68,5-3.31,10.05-5.07,15.43-4.4-2.15-5.14,1.76-6.2,4.21-1.53,3.5-2.31,7.32-3.41,11,0,.46,0,.92,0,1.37l.78-.75a159.35,159.35,0,0,0,27.68-32.66c.61-1,1.25-1.91,1.93-2.83.14-.18.51-.21,1-.4-2,22.83-8.7,44.2-18.08,64.82-.51,1.12-1.7,1.91-2.36,3a53,53,0,0,0-2.84,5.31c-.7,1.53-1,3.29-1.82,4.72-5.63,9.64-11.27,19.27-17.13,28.76a17.62,17.62,0,0,1-5.28,5.25c-2.61,1.71-4.26,3.46-4.07,6.84a8.91,8.91,0,0,1-1.39,5.12c-4.85,7.25-9.92,14.37-14.93,21.52a6.36,6.36,0,0,1-1.68,1.94c-2.78,1.6-4.5,3.53-3.17,7.52-1.14-.77-2.94-1.32-3.3-2.37-1.24-3.62-3.33-2.77-5.07-1-3.72,3.75-9.37,6.57-6.64,13.76.77,2,.36,5.06-3.42,5a4.07,4.07,0,0,0-2.67,1.12c-5.88,5.86-12.2,11.39-17.4,17.82-18.36,22.75-32.52,48.22-45,74.46-6.52,13.69-10.31,28.73-14.94,43.28-3.56,11.16-6.51,22.52-9.73,33.78l-.6,1.77q-3.56,13.33-7.1,26.67l-.57,1.77c-2.63,7.28-2.56,15.37-5.54,22.54l-1.07-.37q-1.94-8.49-3.89-17l-.52-2.69q-6.9-25.18-13.8-50.37c-1.45-5.23-3-10.42-4.61-15.62a23.59,23.59,0,0,0-1.35-2.75c-1.68,5.61-3,10.46-4.58,15.21-2.44,7.18-13.95,15.65-20.72,16.06-11.68.72-20.73-7.34-20.17-21,.07-1.72.05-3.44.08-5.15l3.65-6.88,2.76,1.79c-2.57,7.62-1.32,14.53,3.39,21.07,2.58,3.58,5.77,4.2,9.71,3.54,8.38-1.4,12.8-7,16.21-14.25s2.12-19.1-3.8-24.64a8.18,8.18,0,0,0-4.19-1.81c-8-1.21-14.58-4.14-16.64-12.82a95.65,95.65,0,0,1-1.44-9.72c-.67-5,1.35-8.6,6-10.68l.93,1.66-.13,1.31-.78,1.24c.53,3,.94,6.13,1.62,9.15,1.15,5.11,1.57,10.93,7.93,12.58,6.71,1.74,12.51,4.53,16.12,12.25a24.21,24.21,0,0,0,.22-3.33,11.32,11.32,0,0,0-.66-2.9c-5-11.85-9.23-24.1-15.25-35.4-8.8-16.52-18.87-32.38-28.49-48.46-.61-1-2.05-1.54-3.11-2.29l.12.06-.91-1.83Zm51.64,101.7-1-3.3-1.35.61,1.46,2.61.49,4.12,1.34-.28C280.77,695.84,280.45,694.58,280.12,693.33Zm27.44,46.46c1.21-4.26,2.44-8.52,3.62-12.79,9.91-35.93,17.84-72.51,34.59-106.18,4.32-8.69,8.58-17.56,14.15-25.43,6.78-9.56,14.93-18.14,22.46-27.18.28-.33.23-.94.36-1.52-.6,0-1,0-1.12.1-8.81,10.2-18.7,19.68-26.08,30.82a185.44,185.44,0,0,0-18.5,36.7c-12.94,34.27-22.81,69.52-30.68,105.31-.19.38-.38.76-.59,1.13,0,.06-.18,0-.46.1-.29-.91-.62-1.84-.88-2.79-7.56-27.43-15-54.89-22.69-82.28C272.42,622.64,256,593.52,231.68,569a32.59,32.59,0,0,0-3.45-2.7c7.9,10.68,17.54,19.91,24.25,30.92A283.54,283.54,0,0,1,275.76,644c7.37,19.48,12.45,39.83,18.19,59.91,4,14.09,7.49,28.35,11.53,43.78C306.41,744.17,307,742,307.56,739.79ZM443.27,446.66c2.71-3.65,5.66-7.15,8.1-11,11.07-17.3,17.28-36.65,23.43-56a8.82,8.82,0,0,0,0-2.57l-1.16-.61c-4,4.75-8.73,9.07-11.95,14.31a137,137,0,0,0-17.88,48.4,73.58,73.58,0,0,0-.57,7.45c-.17-.26-.33-.51,0,0C442.8,446.25,443,446.45,443.27,446.66ZM385.7,518c16-7.31,31-16.1,44.8-28.91-2.23,17.91-10.17,32.17-17.82,46.63,27.75-26.33,44.26-59.76,59.64-93.95a2.3,2.3,0,0,0-1.71.58C459.37,454,446.07,463,433.12,472.46a6.19,6.19,0,0,0-2.06,4.24c-.15,3.94-2.05,6.28-5.46,7.92-3.59,1.73-7.53,3.19-10.48,5.73-10.18,8.78-20,18-29.95,27l-.62.7Zm-9.3-176.94.77.75.11-1.42c-6.36-24.91-1.62-50.11-2.1-75.2a1.9,1.9,0,0,1,.7,1,144.45,144.45,0,0,1,5.89,38.55c.61,21.1,7.12,40.29,18,58.38.4-.85.77-1.61,1.13-2.38,4.54-9.55,5.77-20,8.2-30.12,3.7-15.47,3.6-31.06,2.59-46.63a110,110,0,0,0-5-26.09c-5.4-16.89-14.15-32.16-24.74-46.41-6.79-9.13-13.13-18.6-19.79-28.08v31.19l-.62.24c-3.06-10.06-6.13-20.13-9.47-31.09-2.06,7.2-3.84,13.5-5.66,19.79-1.35,4.67-3.3,9.23-4,14-2.2,14-3.64,28.14-5.92,42.14a63.58,63.58,0,0,0,7.08,42A136.87,136.87,0,0,0,376.4,341.09Zm-141.68,0a133.62,133.62,0,0,0,32.81-39.42c4.58-8.23,7.67-18.41,7.77-27.76.17-14.8-2-29.76-4.55-44.41-2.43-13.89-6.65-27.46-10.1-41.17a13.9,13.9,0,0,0-.74-2c-.28-.65-.63-1.27-1.41-2.84-2.49,11.6-4.75,22.13-10.07,31.77.49-10.76,1-21.16,1.46-31.55-7.53,9.21-13.95,18.47-20.48,27.64-8.23,11.56-15.66,23.49-21.24,36.66-5.12,12.08-7.62,24.66-8.76,37.44a157.66,157.66,0,0,0,3.1,47.85c2.23,10.21,4.13,20.42,9.33,30.61,4.07-9.16,8.27-17.58,11.61-26.34,5.44-14.26,5.38-29.45,6.82-44.4.9-9.43,3-18.74,4.53-28.1l2,.19c0,8.37-.24,16.75.05,25.12.57,16.79,1,33.55-2.94,50.06l.09,1.41Zm-36.07-86.21c-11.44,16.93-19.07,35.2-24.34,54.46-2,7.29-4.19,14.59-5.39,22-2.21,13.66,1.46,26.19,7.92,38.33,3.27,6.14,7.7,11,12.48,15.67,3.76,3.67,7.27,2.4,9.9-2.12,5.41-9.29,5.73-18.89,3-29-7.29-26.65-7.94-53.77-5.62-81.09C197.1,267.06,198,261,198.65,254.86Zm214.29-.07c0,1.54,0,3.09,0,4.64a27.31,27.31,0,0,0,.2,3c3.83,29.38,4,58.6-3.25,87.58-2.78,11.05-4.85,22,1.81,32.76,3.23,5.23,6.28,5.93,11,1.82,7.4-6.41,11.28-14.91,15.49-23.4a48.42,48.42,0,0,0,3.52-33.14C435.68,302.42,428.15,277.15,412.94,254.79Zm-3.29,191.86c12-7.23,31.11-34.35,41.48-55C462,370,461.31,348.41,462.24,323.28c-3.6,7.23-7.05,13.79-10.17,20.52-6.84,14.77-12.91,29.88-23.24,42.88-3.11,3.9-4.62,9.59-5.45,14.69C420.83,417.1,417.64,432.54,409.65,446.65ZM201.24,447a30,30,0,0,0-1.45-4.25,92.41,92.41,0,0,1-10.28-32.52c-1.4-12.6-5.55-23.86-14.2-33.34-1.6-1.75-2.54-4.14-3.6-6.32-6.77-14-13.48-28.09-20.26-42.12a22.64,22.64,0,0,0-2.07-3.09C145.39,374.9,165.08,414.51,201.24,447Zm-2.69,89.06c-7.28-14.72-16-28.93-17.75-46.81a150,150,0,0,0,45.14,28.58,20.23,20.23,0,0,0-1.72-2.24c-6.27-5.67-12.65-11.22-18.83-17s-12.7-11.48-20.9-14.82c-1.94-.78-3.67-4-4-6.28a8.34,8.34,0,0,0-3.73-6.2c-12.17-8.61-24.55-17-34.91-27.85A25.15,25.15,0,0,0,139,441.3C143.35,462.05,180.16,521.07,198.55,536.09ZM135.38,375.82c8.33,29.65,19.64,57.64,32.6,69.84C167.21,428.13,153.93,387.37,135.38,375.82ZM285.77,477.73a8.41,8.41,0,0,0-2.29.63c-4.86,3-5.78,11.23-1.42,15.76,2.15,2.24,3.89,2.28,6.31.94,3.12-1.7,3.49-4.63,2.62-7.34-.46-1.41-2.78-2.22-4.26-3.29q-1.92,2.71-3.82,5.45c-.19.29-.33.61-.55,1C280,485.47,280.89,482.29,285.77,477.73Zm98.47,85.64,1.25,1.24,20.79-21.93c.65.94,1,2,1.64,2.26a7,7,0,0,0,3.95.44c.78-.22,1.9-1.93,1.68-2.52a7,7,0,0,0-2.66-2.88c-2.59-1.74-4.53,0-6.17,1.67C397.85,548.84,391.06,556.12,384.24,563.37Zm-158.68,1.31c.19-1.22.37-1.62.26-1.74-6.65-7.29-13.2-14.68-20.11-21.71-1.09-1.11-3.89-1-5.78-.68-.92.15-1.56,2-2.33,3.11,1.54.67,3,1.74,4.61,1.87.94.07,2-1.33,3.29-2.26ZM420.32,394.23c-2.16-1.6-3.56-3.39-4.53-3.17-1.16.25-2.57,2.16-2.68,3.45-.08,1,1.74,3,2.67,2.95C417,397.43,418.19,395.85,420.32,394.23Zm-225.85,3.89h1.59c.73-1.32,2.17-2.75,2-3.94s-1.92-2.23-3-3.33c-.93,1.09-2.54,2.15-2.59,3.28C192.41,395.43,193.74,396.79,194.47,398.12Zm274.08-92.2,1.59,0c.71-1.33,2.14-2.78,1.95-4s-2-2.18-3.08-3.25c-.9,1.11-2.49,2.2-2.53,3.33C466.44,303.29,467.8,304.61,468.55,305.92Zm-327.37,0,1.57-.06c.69-1.36,2.09-2.83,1.89-4s-2-2.14-3.13-3.2c-.88,1.14-2.45,2.26-2.47,3.4C139,303.35,140.4,304.65,141.18,306ZM426,474.17c-1.31,1.78-2.76,2.89-2.64,3.78.16,1.18,1.56,2.19,2.42,3.28.85-1,2.27-1.85,2.38-2.89S427.11,476.13,426,474.17ZM207.76,241.32l-3.35-2.94c-.89,1.05-2.31,2-2.47,3.18-.1.77,1.57,2.46,2.5,2.49S206.34,242.57,207.76,241.32Zm-22.24,232.9c-1.26,1.78-2.58,2.82-2.55,3.83s1.32,2.1,2.07,3.14c1-1,2.47-1.81,2.73-2.94C188,477.36,186.65,476.11,185.52,474.22Zm255.14-12.49c-1.8-1.32-2.9-2.77-3.79-2.64-1.18.15-2.19,1.54-3.27,2.4,1,.85,1.84,2.26,2.89,2.39S438.69,462.82,440.66,461.73ZM126.19,357c-2-1.14-3.26-2.47-4.15-2.25-1.15.29-2,1.82-3,2.82,1.06.74,2.12,2,3.2,2.05S124.34,358.32,126.19,357Zm367,0c-2-1.13-3.14-2.34-4.15-2.22s-2,1.51-2.93,2.35c1.06.88,2.05,2.27,3.22,2.45C490.26,359.72,491.39,358.31,493.23,357Zm-318,101.53-2.13-1.29c-.49,1.31-1.56,2.75-1.31,3.91a4.34,4.34,0,0,0,2.87,2.72c.76.16,2.53-1.4,2.67-2.36S176,459.53,175.25,458.53ZM406.8,237.21c-1.19,1.86-2.44,2.95-2.38,4s1.4,2.06,2.17,3.08c.93-1,2.4-1.92,2.62-3.08C409.38,240.28,408,239.08,406.8,237.21ZM127.68,424.5c-1.45-1.2-2.46-2.62-3.19-2.49-1.06.18-1.92,1.51-2.86,2.34.9.88,1.7,2.22,2.75,2.46C125.1,427,126.18,425.61,127.68,424.5Zm362.91-.09c-1.63-1.2-2.7-2.56-3.43-2.39a4.18,4.18,0,0,0-2.58,2.5c-.17.52,1.43,2.29,2.22,2.28C487.83,426.79,488.86,425.58,490.59,424.41Zm-87.69,29.8c-1,2-2.09,3-2,3.94s1.45,1.61,2.25,2.41c.63-.83,1.76-1.66,1.76-2.49C405,457.09,404,456.12,402.9,454.21Zm-194.67,0c-1.07,1.93-2,2.92-2,3.92,0,.82,1.13,1.65,1.76,2.47.79-.8,2.11-1.53,2.24-2.43S209.27,456.15,208.23,454.18ZM276.8,688.27l1.26.29c.1-1,.21-2,.32-3l-.78-.14ZM275,476.44l.6.69,2.56-2.22-.65-.77Zm25.2-211.51c-.3.34-.76.64-.73.89s.6.79.74.73a4.09,4.09,0,0,0,1.05-.87ZM274.91,479l.37-.67a3.42,3.42,0,0,0-.71,0c-.07,0-.2.29-.17.33A3.75,3.75,0,0,0,274.91,479ZM142.15,428.41l-.3-.55c-.1.1-.29.21-.27.28a2.18,2.18,0,0,0,.27.58Zm117,60.52c.1-.1.18-.2.26-.29a2.78,2.78,0,0,0-.51-.27c-.06,0-.17.15-.26.24Zm-32.94,29.28.55-.3c-.09-.1-.21-.29-.28-.27a2.34,2.34,0,0,0-.58.27Z" transform="translate(-19.06 -6.4)"/><path class="cls-1" d="M343.05,140.91c-.54-.42-1.45-.75-1.58-1.27-7.24-29.34-17.24-57.75-28.4-85.8-2.84-7.14-4.78-14.63-7.44-22.92-7,19.77-14.2,38.57-20.36,57.71s-15.35,37.39-16.43,58c-2.73-4.52-5.55-8.92-8-13.52-.53-1-.05-2.76.4-4,10.92-30.4,22-60.75,32.83-91.16,3.36-9.4,6.29-19,9.54-28.4C304,8.34,305.19,7.43,306,6.4c4.17,4.77,4.65,10.85,6,16.63.35,1.51.95,3,1.43,4.43h0q4.17,11.58,8.36,23.17l4.32,12c.8,2.24,1.59,4.49,2.39,6.73l1.43,4,1.43,4.79c.39,1,.77,2,1.15,3,1,3,2,5.94,2.95,8.9.22.58.45,1.15.68,1.73q1,3.53,2.08,7.07l1,3.4c2.63,10.62,5.61,21.11,11.12,30.69Z" transform="translate(-19.06 -6.4)"/><path class="cls-1" d="M438.71,597.16c-1.07,1-2.42,1.73-3.14,2.9-2.33,3.79-3.17,8.5-7.74,10.84-3,1.53-6.27.49-6.12-2.8a11.47,11.47,0,0,1,2.71-6.76c2.57-2.82,4.87-2.19,7.55,1.84,1.84-11.35,10.39-18,16.26-26.28,3.47-4.91,6.11-9.92,6.95-15.89a13.49,13.49,0,0,1,2.72-6.23c.78,2.83,1.38,5.72,2.4,8.46.46,1.26,1.79,3.18,2.61,3.12a5.15,5.15,0,0,0,3.82-2.47c1.52-3.94,2.34-8.09-1.4-12,5.17-1.14,8.07-4.4,10.11-8.58,4.13-8.49,8.34-16.94,12.33-25.49.82-1.75.65-3.92,1.21-5.82q4.68-15.78,9.53-31.51a25.82,25.82,0,0,1,2.34-4.35l1.09.27c-.53,3.53-1.44,7.05-1.5,10.58-.1,5.35.36,10.71.63,16.06.1,2,.57,4,.47,5.93-.54,9.89-1.88,19.61-5.61,28.92-1.84,4.62-3,9.51-4.38,14a57.82,57.82,0,0,0-6.27,1.6c-.6.23-1.35,1.66-1.14,2.13a2.64,2.64,0,0,0,2.2,1.24A41,41,0,0,0,492,555a7.08,7.08,0,0,1,3.56-.67c-7.48,10.24-10.44,24-25.29,27.82-9.37,2.4-18.36,6.37-27.45,9.82-1.3.5-2.2,2.07-3.28,3.15l.07-.15-1,1,.12-.13-.86.89.86.38Z" transform="translate(-19.06 -6.4)"/><path class="cls-1" d="M161.38,627.72c1.34.3,2.7.94,4,.85,10.55-.73,21.1-1.52,31.64-2.46,3.54-.32,5.83,1.31,8.19,3.62s4.78,4.68,7.66,5.81c12.77,5,18.49,14.73,19,27.83.34,9.28-.08,18.59,0,27.88,0,3.55.5,7.09.77,10.63q-.39,6.45-.77,12.9a2.07,2.07,0,0,1-.72-.22.4.4,0,0,0-.14-.62l-.45-1.85-1.38-4.51-.83-3.12c-1.67-8.42-2.84-17-8-24.28l-4.76-6.79c-4.36-1.74-1.59-5.95-3-8.71-1-2.73-2.66-4.75-6.25-5v6l-3.87,15.91-1,1.45-6.05,7-2.29.64c-4.51-.1-9.16.14-11.33-5.12l.22-1.62,5.94,2.57,1.59.46,3.7-1c4.18-2.32,7.94-9.58,6.63-14.54-2.19-8.31-5-16.47-12.05-22.22l-2.46-2.34-1.42-1.09c-3.89-2.23-7.75-4.52-11.69-6.67-4.85-2.64-9.76-5.17-14.68-7.7-1.34-.69-2.77-1.18-4.17-1.77l1.69-1.92,4.08.21Zm29.56,9c20.57,8.92,31.94,24.74,36.91,46.88C231.33,667.08,205.66,635.07,190.94,636.7Z" transform="translate(-19.06 -6.4)"/><path class="cls-1" d="M405.89,659.67c-5.11,1.29-7.34,3.88-6.86,8.34.25,2.38-.64,3.39-2.17,4.94-5.53,5.62-8.86,12.58-10.78,20.19-1.77,7-3.45,14-6.17,20.91,0-4.69,0-9.38,0-14.06-.06-6.31-.42-12.62-.21-18.91.29-8.86,0-17.91,1.8-26.51a23.77,23.77,0,0,1,13.72-17.14c4.68-2.12,9.26-4.08,12.63-8.45,1.34-1.75,4.71-2.8,7.1-2.71,10.88.42,21.74,1.44,32.62,2,3.09.16,6.22-.36,10.79-.67-2,1.78-2.89,3.06-4.16,3.74-6.17,3.32-12.31,6.74-18.68,9.63-13.13,6-20.28,16.66-23.1,30.09-.83,3.9,1.21,9.11,3.47,12.79,2.7,4.39,7.65,3.85,14.07-.32.54,3.6-1.47,5.37-4.37,6.31-5.86,1.89-10.13.39-13.64-5-3.73-5.69-6.62-11.72-6.07-18.84C406,664.08,405.89,662.07,405.89,659.67Zm-22.06,23.38c3.87-10.33,6.35-20.27,13.28-28.45,6.78-8,15-13.8,25.11-18.68C406,635.66,381.41,665.94,383.83,683.05Z" transform="translate(-19.06 -6.4)"/><path class="cls-1" d="M566.39,478c-3.44,8.76-7.32,17.38-10.23,26.31-5.3,16.32-10,32.82-15,49.24l-4.72,8.16,10.85,4,2,1.36c-5.91,6.55-14.32,5.38-21.4,8.11a54.92,54.92,0,0,0,19.82-4l1.12,1.06c-6.81,8-15.87,9.88-25.79,9.35-.25-1-.5-1.94-.76-2.91-3.26.37-6.72.2-9.75,1.25s-5.9,3.44-8.91,5.07a27.16,27.16,0,0,1-4.21,1.5c7.92-14.07,8.31-30.1,13.06-44.81,1.09,5.85,2.19,11.71,3.16,16.94,5-6.17,10.15-12.88,15.66-19.29,6.66-7.74,11-16.71,14.27-26.19a128.35,128.35,0,0,1,16.7-32.26,35.74,35.74,0,0,1,3.49-3.7Z" transform="translate(-19.06 -6.4)"/><path class="cls-1" d="M69,563.17l5.77-1.08c-7.68-19.38-13.49-38.79-19.16-58.27C53,495,49,486.58,45.62,478l.68-.75c1.25,1.34,2.6,2.59,3.72,4C59.8,493.72,64.4,508.75,70.58,523c4.8,11.07,12.68,19.93,20.55,28.81,1.62,1.82,3.09,3.78,5.08,6.24l3.44-16.19.78-.28c1,5,1.9,10,3,14.95q2.68,11.88,5.65,23.69c.26,1,1.42,1.85,2.17,2.78l0,0,0,2.55-6.78-2.82-7.76-3.78-3.49-.43-2.64-.7L88,576.87l.1.08c-1.39-.86-2.68-2.14-4.18-2.5-5.49-1.32-11-2.34-16.59-3.47l-2.9-2.12-1.63-1.45,4.6-3.39-.08,0,1.81-.93Z" transform="translate(-19.06 -6.4)"/><path class="cls-1" d="M182,620c-4.51-1.18-9-3.14-13.53-3.34s-9.47,1.06-14.08,2.2c-1.63.4-3.3,2.11-4.24,3.65-2.71,4.44-5.54,5.23-9.84,1.89-7.43-5.76-16.07-8.88-24.85-11.71a16.33,16.33,0,0,0-3.37-.36l-9.35-3-2.61-1.63c-.56-.37-1.12-.74-1.67-1.12L95,604.9c-8.93-6.52-17.35-5.21-25.4,1.64.15-.39.3-.78.44-1.17.64-.81,1.27-1.63,1.9-2.45L73.89,601l3.76-2.49,4-1.59,16.53,2.73,1.71.95,6.18,3.15a.55.55,0,0,0,.63.42c4,.91,8,1.64,11.9,2.76s5.23-2.77,7.95-3.91l5.78-4.22.69-3.51-.83-.14-.81,2.71-7.12,2-6-6.54c.21-1.18.42-2.35.62-3.53l.93-1.47c2.58-2.86,5.48-3.08,8.64-1,1.94,2.92,2.61,3,4.3.78l2.26-.2c2.44,6,2.44,11.77-2.53,18.28,5.1-1.82,9.58-2.84,13.43-5,2.57-1.43,4.34-1.31,7-.76,4.66,1,9.53.88,14.32,1.13.27,0,.59-.92.89-1.41l-.1.07,2.51-.12,1.75.08c2.87,4.57,5.83,9.1,8.56,13.76a27.89,27.89,0,0,1,1.84,5.23l.05-.12-1,0,.06,1Zm-49.26-29.48-1.11.52c.48.89,1,1.78,1.43,2.67l.83-.43Zm-3.36,16.61c-.22-.61-.27-1-.52-1.27s-.6.13-.92.22a3,3,0,0,0,.39,1C128.49,607.28,128.93,607.15,129.41,607.15Z" transform="translate(-19.06 -6.4)"/><path class="cls-1" d="M430.08,619.13c.21-1.5,0-3.23.72-4.46,2.79-4.9,5.87-9.64,8.84-14.44l1.77-.09,2.48.13-.09-.07c.26.48.55,1.4.77,1.39,5.07-.36,10.13-.82,15.2-1.24,1.46-.12,3.1-.63,4.38-.18,4.78,1.69,9.44,3.71,14.15,5.6l10.42,1.73c2.07-.42,4.2-.66,6.22-1.27,9.95-3,19.77-6.54,29.85-9.06,6.61-1.65,11.71,2.09,15.72,7.21l-.65.63a45.87,45.87,0,0,0-3.92-2.6c-3.92-2.07-7.91-3.17-12.19-.82-5.5,3-11,5.92-16.6,8.83a14,14,0,0,1-2.74,1.06c-7.12,2-14.37,3.55-21.31,6-3.79,1.34-7.18,4-10.51,6.38-5.44,3.91-7.21,3.12-11.22-1.79-2.3-2.81-6.73-4.63-10.49-5.33-5.87-1.09-11.95-.84-17.49,2.37-.83.48-2.24,0-3.38-.08Z" transform="translate(-19.06 -6.4)"/><path class="cls-1" d="M360.09,646.79c5.43,2.45,7.94,6.22,7.07,12-.42,2.84-.34,5.79-1.08,8.52-2.11,7.77-8.46,12.58-16.74,13.41a8,8,0,0,0-4.53,2c-6.16,6.08-7.22,17.06-3.39,25,3.34,7,7.74,12.16,15.67,13.63,4.12.77,7.5.1,10-3.7s4.45-7.85,4.54-12.69a13.39,13.39,0,0,0-16-13.64c-4,.8-5.92,6.18-3.57,9.95,1.12,1.79,2.31,3.53,3.61,5.5-6.78-.53-9.78-5.9-7-11.89,3.16-6.89,13-9.4,19-4.83,1.71,1.29,3.33,2.7,5,4,4.26,3.37,4.07,8.13,4.2,12.88.4,14.7-8.78,22.46-22.7,20.95-2.11-.23-4.21-1.66-6.06-2.91-14.19-9.55-19.06-23.82-12.62-39.49,1.76-4.28,4.57-9.1,9.94-9.93,11.06-1.73,14.11-9.27,14.6-18.91C360.22,653.54,360.09,650.39,360.09,646.79Z" transform="translate(-19.06 -6.4)"/><path class="cls-1" d="M61.53,621.83a11.16,11.16,0,0,1,8.85-2.72c1.28.16,2.79-1.55,4.19-2.41l.48-1.85c.62-1.25,1.24-2.49,1.85-3.73,1.06.55,2.11,1.11,3.16,1.67,5.33,1.19,10.64,2.51,16,3.52,2.46.46,5,.33,7.69,1.34l-5.41,1-16,1.41.1,1.56,15.9-1.53,12-1.34,4.39,3.82-4.12-.51-2,.21-6.75,2.36-2.91,1.33-3.64,1.29-.33.23-12.14,6.2-1.72.87c-2.71,1.17-5.41,2.37-8.13,3.52-5,2.14-9.93.62-14.85-.53-2.06-.47-4.15-.83-6.22-1.25l-5.07-1.34-.9-.09-3.46-.67L32.14,630l-.65-.6-1.4-2.71c8.61,3.45,16.81,5.35,24.31-1.45C57.3,625.19,60.05,624.85,61.53,621.83Z" transform="translate(-19.06 -6.4)"/><path class="cls-1" d="M581,627.9c-4.34,2.21-8.49,5-13.07,6.48-6,1.88-12.39,2.22-18.37,4-5,1.54-9.28.14-13.57-1.79-9.89-4.43-19.62-9.25-29.62-13.44-3-1.25-6.61-.93-10.68-1.42,3.84-1.83,6.38-3.82,10.9-2.38,5,1.6,10.76,1.11,16.18,1.54,2,.16,4,.34,6,.52l.09-1.45-20.49-2.26c9.4-2.06,19.39-.64,27.92-7.44a43.17,43.17,0,0,0,.57,5.1c.67,2.57,2,4.25,5.16,3.9,1.87-.21,4.26-.15,5.67.85,3.32,2.35,7.11,3.91,10.39,6,7.62,4.86,14.77,3.88,22.36,1.12A5.41,5.41,0,0,0,581,627.9Z" transform="translate(-19.06 -6.4)"/><path class="cls-1" d="M343.05,140.91l7.33-7.95c1.75-1.18,3.57-2.26,5.23-3.55,1.42-1.11,2.67-2.45,4.89-4.52-.81,4.07-1.4,7.06-2,10l.1-.06-1.05,1.54-3.79,7.1a.41.41,0,0,1-.38.36c-.29.28-.59.55-.89.82l-.85,1.46.08-.06c-1.43.74-3.69,1.16-4.14,2.29-1.8,4.59-3,9.39-4.49,14.11-4.38,14.42-6.46,20.51-23.19,23.45-7.59,1.33-12.17,7-12.16,14.77,0,6.89.08,13.78.07,20.67a19.25,19.25,0,0,1-.42,2.81,183.78,183.78,0,0,1-3.57-24.33c-.52-6.33-4.48-9.47-9.62-11.84l-1.83-.76-1.76-.82-2.18-1.24-3.6-1.64a18.12,18.12,0,0,0-3.52-1.47c-3.5-.69-5.46-2.84-7.31-5.82a62.74,62.74,0,0,1-9.28-24.66c-.55-3.86-3.1-6.06-5.77-5.51a.41.41,0,0,1-.36-.37L256,142.64l0,.05-5.34-16.11c7.05,4.53,11.71,11.45,14.73,19.5,2.66,7.07,4.38,14.54,7.46,21.41a24.12,24.12,0,0,0,8.27,10c5.32,3.47,11.56,5.52,17.37,8.24,2.29,1.08,4.49,2.35,6,3.13,6.39-2.46,12.38-4.93,18.47-7.09,8.69-3.09,13.11-9.88,15.59-18.09,2.13-7.08,3.61-14.36,5.31-21.57C343.92,141.79,343.33,141.32,343.05,140.91Z" transform="translate(-19.06 -6.4)"/><path class="cls-1" d="M417.18,615.71c-7.2-10.32-20.23-10.8-28.82-7.15-2.86,1.22-5.38,5.28-6.37,8.55-4.27,14.07-5.64,28.59-5.61,43.28a18,18,0,0,1-2.4,8.52c-.1-1.68-.19-3.36-.3-5-.36-5.24-.6-10.5-1.11-15.73-1.41-14.36-1.34-28.6,4-42.24a69.82,69.82,0,0,1,7.09-12.71c.77-1.16,3.52-2.31,4.5-1.81C397,596,405.62,601,414.3,605.88c2.3,6.61,8.06,9.7,13.48,13.1.57.36,1.53.12,2.3.15L430,619c.19,1.07.38,2.14.73,4.07-2.34-1.1-4.53-2.07-6.66-3.16s-4.14-2.26-6.2-3.39l.19.07-.94-1Z" transform="translate(-19.06 -6.4)"/><path class="cls-1" d="M131.58,637.48,138,632l-.06.11,1.84-.94-.14.05c6.62-3.22,11.24,1.2,16,4.4,6.64,4.43,13.12,9.1,19.67,13.67l3.29,5.5-1,1.61L170,650.56l-1.86-1.34c-2.79-4.3-6.18-2-9.46-.84l-3.5-.75a12.43,12.43,0,0,0-3.21-.89c-6.35,0-12.71.17-19.07.28l-4.43-.11-20.82,2.34-2.44,1c-4.58,3.92-9.16,7.84-13.51,11.58.85-8.15,7.67-11.92,13.67-16.35l3.43-1.72c5.91-1.29,11.85-2.48,17.72-3.93C128.31,639.45,129.9,638.3,131.58,637.48Z" transform="translate(-19.06 -6.4)"/><path class="cls-1" d="M47.49,598.68l-4.94-1.54-1.84-2.43-.25-2L45.9,592,51,587.66,46.78,586,42,582l-1.63-1.83q-4.41-8.52-8.8-17c-.28-1.18-.55-2.36-.83-3.54l-2.37-13,1.89-.65q.93,3,1.85,6.07L38,563.13l5.2,5.17c.44.57.87,1.15,1.5,2l.4-2.83L53,573.73l6.66,4.07q1.68,1.77,3.34,3.56c4.27,3.28,9,2.21,13.75,1.55l-.08,0,.78,2.62L73.86,588l-7.51,3.93-2.62,1c-2.29,1-4.56,2.11-6.89,3.06-2.51,1-5.08,1.9-7.62,2.85Z" transform="translate(-19.06 -6.4)"/><path class="cls-1" d="M474.53,633l.53.65c5.48,6.48,13.43,6.43,20.82,8a35.82,35.82,0,0,1,21.94,13.9c1.11,1.5,1.59,3.47,2.36,5.22l-1,.72c-2.62-2.66-4.95-5.73-7.94-7.87s-6.81-4.83-10.42-5.1c-10.78-.82-21.64-.66-32.48-.73-5.17,0-10.43-2-15.53.48-7.65-4.11-10.74,2.61-15.15,6.3a20.69,20.69,0,0,1-3.49,1.94l-1.09-1.24c1.72-2.3,3-5.19,5.24-6.79Q451,639.32,464.26,631c1.59-1,4.18-.46,6.32-.63Z" transform="translate(-19.06 -6.4)"/><path class="cls-1" d="M561.1,587.67l6,5.47,4.55-1.07a9.91,9.91,0,0,1-13.49,6.17c-6.54-3.14-12.9-6.63-19.27-10.09a12.23,12.23,0,0,1-4.62-4.48c3.73-.2,7.47-.34,11.2-.63a6.07,6.07,0,0,0,3.11-1c6-4.74,12-9.61,18.17-14.62.2.92.36,1.64.53,2.38,7.51-6.25,13.16-13.62,14.14-23.86C584.17,556.37,577.47,582.23,561.1,587.67Z" transform="translate(-19.06 -6.4)"/><path class="cls-1" d="M550.09,497.88l-3.32,6.78c-3.54-2.63-6.63-5.08-9.88-7.31-3.58-2.45-7.11-2.3-10.68.37s-5.72,5.88-3.88,11.73c1.64-1.65,3.08-2.71,4-4.12s1-3.37,1.93-4.71a5.16,5.16,0,0,1,3.5-2.07c.79,0,2.16,1.63,2.35,2.7a12.52,12.52,0,0,1-13.28,14.51c-3.88-.26-6.42-5-6.11-10.63.43-7.89,5-12.61,11.78-15.4a15.49,15.49,0,0,1,17.19,2.88C545.6,494.32,547.65,495.88,550.09,497.88Z" transform="translate(-19.06 -6.4)"/><path class="cls-1" d="M412.56,566.21c.14,2,.24,3.37.33,4.7,6.58,3,7.81,10.63,3.48,16.21-2.77,3.57-4.23,8.15-6.23,12.2a10.39,10.39,0,0,1-.83-2.73c-.15-1.85.22-3.74,0-5.58-.22-2.14-.88-6.09-1.22-6.08-3.78.17-8-3.76-11.48,1l4.74,8.35c-8.59-2.26-10.61-6.19-6.24-12.54,3.74-5.44,9-9.86,13.7-14.57C409.55,566.43,411.09,566.55,412.56,566.21Z" transform="translate(-19.06 -6.4)"/><path class="cls-1" d="M527.87,487.34a4.85,4.85,0,0,1-1.36.44c-2,.31-5.07,1.44-5.76.61a20.05,20.05,0,0,1-4.32-8.47c-2.12-10.41,11.59-26.13,21-27.55,7-1.07,13.53,3.21,13.36,9.49-.11,3.68-2.28,5.8-5.65,6.57-3,.67-5-.61-5.41-2.91,2.25-.94,4.5-1.5,6.2-2.79.56-.42.17-3.57-.62-4-2-1.16-4.7-2.43-6.8-2-8,1.56-17.1,13.22-16.16,21.32C522.68,481.21,525.84,484.09,527.87,487.34Z" transform="translate(-19.06 -6.4)"/><path class="cls-1" d="M370.35,652.21c-3.13-4.87-7.68-9-14.47-9.81,2.13-10.9,9.06-18.65,14.47-27.3Z" transform="translate(-19.06 -6.4)"/><path class="cls-1" d="M413.59,603.52c-.36-14,10.82-21.34,22.72-15.9l-3.35,6C423.69,590.36,419.34,597.6,413.59,603.52Z" transform="translate(-19.06 -6.4)"/><path class="cls-1" d="M478.3,604.66c-3.43-3.95-3.69-8.73-2.51-13.33a30.14,30.14,0,0,1,10.57-16c.46,3,.81,5.35,1.22,8l-3,1.7-.19,0-3.49,3.11.07-.07c-.61,2.31-1.23,4.63-1.84,6.95l1,3.46-.11,0c2.31,1.93,4.58,3.89,6.95,5.74a13.35,13.35,0,0,0,2.64,1.25l-.87.92Z" transform="translate(-19.06 -6.4)"/><path class="cls-1" d="M484.38,585.06l.19,0c.49.4,1.09,1.24,1.45,1.14,3.75-1,6.13,1.18,6.69,4.17a9.6,9.6,0,0,1-2,7.07c-2.26,2.68-5.54,4.17-9,1.27-.36-.3-1.11-.13-1.68-.18l.11,0c-.06-1.15-.12-2.3-.17-3.45l1-7-.07.07Z" transform="translate(-19.06 -6.4)"/><path class="cls-1" d="M417.88,616.56c.83,1,1.72,1.89,2.48,2.91,1.67,2.25.4,5.68-2.28,5.55a42.6,42.6,0,0,0-17.37,3.18c-.91.34-2.22-.38-3.11-.56,1.71-2.78,2.79-5.67,4.84-7.48,1.24-1.09,4-.71,6-.62a31.71,31.71,0,0,1,5.11,1.1c.17-1.65.33-3.3.52-5.2l3.09.27-.05-.06.94,1Z" transform="translate(-19.06 -6.4)"/><path class="cls-1" d="M111.27,583c0-1.24,0-2.48-.14-3.71-.28-3.63.35-7,4.06-8.49a6.54,6.54,0,0,1,8.29,3.88c1.39,3.35.08,8.07-3.46,9.3a4.18,4.18,0,0,0-1,.76l-.84.15-1.75.25h-.92L111.22,583Z" transform="translate(-19.06 -6.4)"/><path class="cls-1" d="M495,570.67c3.44-.09,5.79,2.57,6,6.79s-2.13,7.35-5.36,7.46c-3.9.13-7.62-3.29-7.64-7C487.92,573.52,490.59,570.78,495,570.67Z" transform="translate(-19.06 -6.4)"/><path class="cls-1" d="M427.5,583.83c-3.94.72-4.47-2.25-4.53-5.49-.11-5.61,2.83-8.41,8.41-8.35,4.25,0,4.28,3.43,4.44,6C436.11,580.48,432.4,583.87,427.5,583.83Z" transform="translate(-19.06 -6.4)"/><path class="cls-1" d="M76.63,582.93l.08,0c2-1.23,1.42-1.92-.47-2.52-2.14-.68-4.24-1.52-6.36-2.29l-1-.29-1.3-1-3.66-3.37L62.35,571l4.92,1,20.79,5-.1-.08,2.63,1.73,1.72.92c-2.2,3.08-5.31,2.31-8.42,2.24C81.47,581.71,78.53,579.51,76.63,582.93Z" transform="translate(-19.06 -6.4)"/><path class="cls-1" d="M399.88,616.53c-.1,5.42-2.86,9-6.62,8.74-3.3-.24-5.06-2.18-5-5.63.06-4.44,3.55-8.57,7.09-8.53C399.54,611.17,400.23,613.71,399.88,616.53Z" transform="translate(-19.06 -6.4)"/><path class="cls-1" d="M55.09,554.53c.45-.32,1.09-1,1.33-.9,2.15,1.07,4.11,2.65,6.36,3.35,2,.64,4.36.37,6.56.51l.23-1.14,2.92,4L69,563.17l.1,0-1.81.93.08,0L62,565l-6.95-3.76Z" transform="translate(-19.06 -6.4)"/><path class="cls-1" d="M542.14,556.43c3.7,2.87,6.93.85,10.19-1,1.34-.74,2.72-1.44,4.66-2.46-.28,3.07.4,6.51-1,8.33-1.8,2.32-4.94,4.54-8.67,2.78l-7.72-3.37Z" transform="translate(-19.06 -6.4)"/><path class="cls-1" d="M112.94,617l.14-2.49c5,.64,12.78,7.7,13.59,12.36l-3.48,2.83h-.06l-4.94-4.41,5.27.92c.21-.37.41-.75.61-1.12-1.41-1.16-2.75-2.41-4.24-3.46-2.23-1.56-4.56-3-6.85-4.45Z" transform="translate(-19.06 -6.4)"/><path class="cls-1" d="M474.53,633l-3.95-2.62-.62-1.85,12.4-8.09C483,627.29,481.42,629.67,474.53,633Z" transform="translate(-19.06 -6.4)"/><path class="cls-1" d="M498.93,613.73c.59,8.34-9.44,5.84-10.58,12.34l5.55-.39c-1.13,1-1.93,1.83-2.81,2.54-1.63,1.33-3.23,1.67-4.79-.2s-.84-3.65.57-5.25c1.82-2.06,3.46-4.36,5.59-6C494.16,615.4,496.47,614.83,498.93,613.73Z" transform="translate(-19.06 -6.4)"/><path class="cls-1" d="M451.69,626.81h-8.55c-.39-2.21-1.08-4.17-.95-6.08.07-1.12,1.48-3.09,2.21-3.06,1.55.08,3.66.81,4.43,2C450.22,621.79,450.8,624.45,451.69,626.81Z" transform="translate(-19.06 -6.4)"/><path class="cls-1" d="M562,519.2c-6.82-.6-8-3.63-4.31-13.73,2.2,3.92,4,7.14,5.83,10.37l.11-.16c-.58,1.2-1.16,2.39-1.73,3.58Z" transform="translate(-19.06 -6.4)"/><path class="cls-1" d="M441.41,600.14l-1.77.09-.93-3.07,0-.09V595.8l-.12.13,1-1-.07.15c3.13-2.38,5-.77,6.35,2.08,1.11,2.25.1,3-2.07,3l.09.07Z" transform="translate(-19.06 -6.4)"/><path class="cls-1" d="M522.26,578.65c.26,1,.51,1.94.76,2.91L519.19,580Z" transform="translate(-19.06 -6.4)"/><path class="cls-1" d="M550.14,570.26l-1.33,2-1.12-1.06,2.58-.82Z" transform="translate(-19.06 -6.4)"/><path class="cls-1" d="M565.73,477.16l1.18-.78c-.18.54-.35,1.07-.52,1.6Z" transform="translate(-19.06 -6.4)"/><path class="cls-1" d="M540.51,604.38l.87,1.44-.5.34-1-1.15Z" transform="translate(-19.06 -6.4)"/><path class="cls-1" d="M580.46,627.28l1.1-.16-.55.78A5.41,5.41,0,0,1,580.46,627.28Z" transform="translate(-19.06 -6.4)"/><path class="cls-1" d="M550.27,570.33l-.2-.8h.3c-.09.23-.17.47-.24.71Z" transform="translate(-19.06 -6.4)"/><path class="cls-1" d="M172.48,595.09c-1.22-1.12-2.25-2.74-3.69-3.29-10.28-3.94-20.62-7.72-31-11.42a20.05,20.05,0,0,1-11.55-9.62c-2.52-4.65-5.66-9-8.5-13.43a5.36,5.36,0,0,1-.86-3.65,45.25,45.25,0,0,0,5.84,2.51,14.59,14.59,0,0,0,4.81.16,3.25,3.25,0,0,0,.46-1.76,34.06,34.06,0,0,0-4.91-2.26,7.75,7.75,0,0,0-2.56.08c-3.9-14.37-10.36-27.91-10-43,.09-3.93,1.72-7.85,1.61-11.75-.2-7.19-1.16-14.35-1.24-22,1.27,2.64,3.19,5.17,3.7,7.95,2.06,11.11,7,21.31,9.45,32.42,2.4,10.84,9.35,20.75,14.77,30.81,1.27,2.35,4.44,3.68,7,5.68-2.54,3.14-2.38,7.34-.5,11.39a5.2,5.2,0,0,0,3.83,2.44c.81,0,2.07-1.92,2.55-3.19,1-2.72,1.64-5.59,3.32-8.22a12.7,12.7,0,0,1,1,2.81c1.1,11,7.54,19.14,14.08,27.39,4.09,5.16,7.34,11,10.82,16.3,1-2.62,3.52-2.22,6.16-.68,2.82,1.65,4.69,6.35,3,8.54-1,1.28-4.19,2.49-5.13,1.85-2.43-1.64-4.32-4.2-6.11-6.63-2-2.76-3.73-5.77-5.58-8.67l.15.07c-.33-.32-.65-.65-1-1Z" transform="translate(-19.06 -6.4)"/><path class="cls-1" d="M305.34,47.06c1.86,2.86,3.32,4.37,3.93,6.16,9.8,29,20,57.79,28.93,87,3,9.86.44,20-6.89,28.43s-16.46,12.63-27.42,12.62c-10.11,0-17.94-4.75-23.88-12.84-9.42-12.82-8-26.9-3.47-40.53C285.45,101.22,295.37,74.87,305.34,47.06Zm1.84,7.59-1.05.15c-3.28,8.65-6.72,17.25-9.82,26-7,19.65-15.74,38.85-18.28,59.78-2,16.83-.36,26.82,15.82,34.55,17.15,8.2,33-2.16,39.53-17.81,4.54-10.82,2-21.91-1.75-32.65-4.94-14-9.75-28.11-14.65-42.15C313.74,73.2,310.45,63.93,307.18,54.65Z" transform="translate(-19.06 -6.4)"/><path class="cls-1" d="M191.41,618.27l-10.09,4.58-.33-.31c.35-.84.7-1.68,1-2.52l-.16.05c.31-.32.63-.64.94-1l-.05.12c5.64-2.87,11.53-5.42,14-12.06a29.73,29.73,0,0,1,2.49-4.41l-.08.08a6.78,6.78,0,0,0,.46.64q9.18-5,18.31-10c.11-.06-.1-.7-.16-1.06l-.17.09c.81,0,1.63,0,2.43-.09,2.83-.23,5.65-.5,8.47-.75l0-.11.91,1.83-.12-.06c2,3.9,4.4,7.65,6,11.71,5.6,14.21,5.83,29,4.19,43.93-.54,4.92-.63,9.89-.86,14.84-.09,1.81,0,3.63,0,5.44l-1.4.16c-.55-2.88-1.58-5.77-1.56-8.65a176,176,0,0,0-5.11-42.5c-1.94-8.08-8.29-11.56-15.33-11.52s-14,1.14-18.78,7.28l-3.23,2.35-.92,1.11.09-.07-.94,1Z" transform="translate(-19.06 -6.4)"/><path class="cls-1" d="M65.21,504.5l-3.33-6.6c2.82-2.26,5.37-4.53,8.14-6.5,6.81-4.83,15-3.86,22.63,2.92,5,4.52,5.66,11.83,2.89,19.05a3.9,3.9,0,0,1-2.2,1.74c-5,1.81-8.94-.83-12.71-3.33-2.37-1.57-3.76-9.09-2.5-11.67a3.26,3.26,0,0,1,2.51-1.6,4.18,4.18,0,0,1,3,1.63c.95,1.56,1.15,3.56,2.06,5.15.8,1.41,2.14,2.51,3.76,4.32,1.67-4.36,1.25-7.34-1.32-9.91-4.13-4.12-7.64-5.27-11.42-3.1S69.4,501.58,65.21,504.5Z" transform="translate(-19.06 -6.4)"/><path class="cls-1" d="M217.58,592.47l.17-.09L212,594.93l-1.13-.48q1-2.33,2-4.67c.65-1.48,1.31-3,2-4.45a27.79,27.79,0,0,0-5.5-1.56,9.9,9.9,0,0,0-4.83,1,3.84,3.84,0,0,0-1.84,2.75c-.18,2.84.22,5.72.09,8.58a8.12,8.12,0,0,1-1.81,4.32c-.2-6.34-3.2-10.93-7.11-15.36-2.74-3.1-.23-11.38,3.27-13.3a4.49,4.49,0,0,0,2-3.06c.26-2.93,2-3.24,3.66-1.85,5.82,4.81,12.33,9.25,15.07,16.63C218.82,586.06,217.73,589.44,217.58,592.47Z" transform="translate(-19.06 -6.4)"/><path class="cls-1" d="M72.16,465.34c-.68,3.21-3,3.68-5.58,3-3.17-.84-5.22-2.91-5.33-6.42-.21-6.13,6.18-10.9,12.93-9.59,7.22,1.4,12.23,6.14,16.27,11.79a32,32,0,0,1,5.14,10.76c1.29,5.44-.51,10.44-5.06,14.39L83.14,487c1.14-1,2-1.81,2.79-2.55,4.72-4.23,5.72-10.79,1.68-15.61a94.62,94.62,0,0,0-11.34-10.94,8.43,8.43,0,0,0-5.16-1.58c-3,0-5.47,1.61-5.42,4.85.06,3.66,2.78,4.16,5.82,3.62A4.78,4.78,0,0,0,72.16,465.34Z" transform="translate(-19.06 -6.4)"/><path class="cls-1" d="M199.22,602.75c-1.21-.57-3-.83-3.53-1.78-1.95-3.4-4.49-5.79-8.36-6.7-2.45-.58-4.88-1.24-7.32-1.86l-.68,1.42-3.65-6c10.26-5.55,22.27,1,22.86,12.22a17.5,17.5,0,0,0,.6,2.82Z" transform="translate(-19.06 -6.4)"/><path class="cls-1" d="M189,578.28c.11,3.47-.75,5.82-5,5.6-4.44-.23-8.32-3.83-7.84-8.27.3-2.72.61-5.84,4.86-5.62C186.47,570.27,189.07,572.81,189,578.28Z" transform="translate(-19.06 -6.4)"/><path class="cls-1" d="M50.09,519.26l-1.39-5,5.42-8c4.43,7.8,2.88,12.35-4.09,12.91Z" transform="translate(-19.06 -6.4)"/><path class="cls-1" d="M135.07,587.94l-2.26.19-4.1-1.73L125,583.66l-.58-.68,1.19-7.37C130.44,578.75,132.72,583.37,135.07,587.94Z" transform="translate(-19.06 -6.4)"/><path class="cls-1" d="M172.36,600.23l-1.75-.08-2.51.12.1-.07L165.84,598A36,36,0,0,1,170,594c.39-.28,1.66.67,2.53,1.05l-.07-.14c.32.33.64.66,1,1l-.15-.07Z" transform="translate(-19.06 -6.4)"/><path class="cls-1" d="M128.71,586.4l4.1,1.73c-1.69,2.27-2.36,2.15-4.3-.77Z" transform="translate(-19.06 -6.4)"/><path class="cls-1" d="M45.62,478l-.84-1.5,1-.75.55,1.5Z" transform="translate(-19.06 -6.4)"/><path class="cls-1" d="M71.51,464.8l.84-.52c-.07.36-.13.71-.19,1.06A4.78,4.78,0,0,1,71.51,464.8Z" transform="translate(-19.06 -6.4)"/><polygon class="cls-1" points="100.77 579.69 100.76 579.77 100.54 579.68 100.77 579.69"/><path class="cls-1" d="M238.83,695c6.64-8,13.29-9.13,20.45-4.87,4.74,2.82,6.41,9.61,3.3,13.69-1.26,1.66-3.56,2.54-5.39,3.77l-.8-1c1.16-1.77,2.83-3.4,3.36-5.34.63-2.31,1.06-5.25.12-7.22-.71-1.48-3.69-2.48-5.72-2.61-4.94-.29-9,2.1-12.56,5.4Z" transform="translate(-19.06 -6.4)"/><path class="cls-1" d="M279.26,693.25l-1.46-2.61,1.35-.61,1,3.3Z" transform="translate(-19.06 -6.4)"/><path class="cls-1" d="M276.8,688.27l.8-2.88.78.14c-.11,1-.22,2-.32,3Z" transform="translate(-19.06 -6.4)"/><path class="cls-1" d="M300.23,264.93l1.06.75a4.09,4.09,0,0,1-1.05.87c-.14.06-.71-.45-.74-.73S299.93,265.27,300.23,264.93Z" transform="translate(-19.06 -6.4)"/><path class="cls-1" d="M250.82,647.48l.89-.56c0,.74,0,1.48,0,2.22Z" transform="translate(-19.06 -6.4)"/><path class="cls-1" d="M274.91,479a3.75,3.75,0,0,1-.51-.38s.1-.32.17-.33a3.42,3.42,0,0,1,.71,0C275.16,478.53,275,478.76,274.91,479Z" transform="translate(-19.06 -6.4)"/><path class="cls-1" d="M251.62,650.45l-.8,1.24C251.1,651.28,251.36,650.86,251.62,650.45Z" transform="translate(-19.06 -6.4)"/><path class="cls-1" d="M297.15,492.3l0,0-.75-.29v0Z" transform="translate(-19.06 -6.4)"/><path class="cls-1" d="M256.05,642.37c-6.78,1.17-11.44,5.11-15.16,10.56,2.38-12.94,2-25.68-.3-39.33C246.05,619,254.5,635,256.05,642.37Z" transform="translate(-19.06 -6.4)"/><path class="cls-1" d="M193.12,616.33l3.23-2.35c.54,1.18,1.78,2.58,1.49,3.49-1.14,3.64,1.67,4.31,3.26,3.27,5.16-3.39,8.3-2.62,10.44,3.22.42,1.14,2.06,1.84,3,3.8a28,28,0,0,1-4.67,0c-4.24-.72-8.42-2.11-12.68-2.38-6.1-.38-6.9-1-5.79-7.07l-.06.05,1,0-.06-1-.09.08,1.27,0Z" transform="translate(-19.06 -6.4)"/><path class="cls-1" d="M212.11,616.55c-.65-3.17.7-5.47,4.82-5.66,3-.15,7,4.61,7,8.44,0,3.51-2.16,6.06-5.2,6.08C215,625.44,212.19,622,212.11,616.55Z" transform="translate(-19.06 -6.4)"/><path class="cls-1" d="M138,632c-5.83.28-8.37-3.13-8.7-11.79L142,628.4l-2.4,2.83.14-.05-1.84.94Z" transform="translate(-19.06 -6.4)"/><path class="cls-1" d="M161.21,625.11c.54-1.3,1.49-2.57,1.56-3.9.17-3.4,2.2-4.05,4.91-3.7,3.44.44,2.16,3.11,2.07,5a23.21,23.21,0,0,1-1,4.13l-7.5.36Z" transform="translate(-19.06 -6.4)"/><path class="cls-1" d="M161.21,625.11l.08,1.94a2.52,2.52,0,0,0,.09.67l-2.21.18Z" transform="translate(-19.06 -6.4)"/><path class="cls-1" d="M181.32,622.85l-.81.3.48-.61Z" transform="translate(-19.06 -6.4)"/><path class="cls-1" d="M132.77,590.54l1.15,2.76-.83.43c-.47-.89-1-1.78-1.43-2.67Z" transform="translate(-19.06 -6.4)"/><path class="cls-1" d="M129.41,607.15c-.48,0-.92.13-1,0a3,3,0,0,1-.39-1c.32-.09.79-.34.92-.22S129.19,606.54,129.41,607.15Z" transform="translate(-19.06 -6.4)"/><path class="cls-1" d="M300.69,497.66l-2.25-10.39c.27-3.67-1.18-6.55-3.67-9.24-1.09-1.18-1.34-3.18-1.85-4.85-.71-2.3,1.58-5.7-2.52-6.77-.13,0-.22-.71-.13-1,2.18-7.08,3.63-14.73,11.21-18.37,2.78-1.33,6-1.75,9.52-2.72,0,5.2-.12,9.15,0,13.1.09,2,.42,4.33,3.56,3.07,2.67-1.26,1.78.9,1.95,2,.7,4.42,1.39,8.85,2.13,13.51a15.25,15.25,0,0,0-6.61,10.87c-1.37,9.63-2.37,19.32-3.53,29a6.12,6.12,0,0,1-1.26,3.38Q304,508.45,300.69,497.66Zm.52-46.29c2.36.78,3.69,1.7,4.63,1.4s1.57-1.81,2.33-2.79c-1-.54-2-1.62-2.88-1.48C304.19,448.69,303.25,449.86,301.21,451.37Z" transform="translate(-19.06 -6.4)"/><path class="cls-1" d="M326.44,470.67l8.71,7.43c0,4.65.52,9.36-.11,13.92-.7,5.07-4.58,7.82-10.38,8.67-3.62.53-8.37-1.94-10-6-1.75-4.25-1.6-8.78,1.25-12.63,1.94-2.63,4.34-5.07,8.22-4.33a.59.59,0,0,0,.68.27l2.66,1.65.76,1c1.77,3.32,3.09,6.66.2,10.82-.1-1.15,0-1.77-.22-2.14-1.12-1.66-2.08-3.66-3.65-4.66-.67-.43-3.81,1.17-3.9,2-.23,2.48-.08,5.39,1.12,7.45.7,1.2,4.31,2.13,5.5,1.39,4.72-2.92,7.22-10.94,1.34-16h-.07l-3.17-2.12-1.25-.32c-4.22-3.59-5.55-8.3-5.27-13.63.1-1.95.18-3.9.3-6.44l-4.52,2.35c-3.15-.11-1.94-2.12-1.62-3.74l.79-1.92-.07.05,9.53.88,0,0,.83,1a78.36,78.36,0,0,0,.49,7.83A69.06,69.06,0,0,0,326.44,470.67Z" transform="translate(-19.06 -6.4)"/><path class="cls-1" d="M322.49,447.65c3.32,4.48,3.32,4.48,1.56,6.77l-.85.15,0,0c-1.32-3.79-6.22-4.24-9.53-.88l.07-.05-.94.68c-.23-2.68-.82-5.4-.46-8,.1-.74,3.06-1.75,4.51-1.49C318.86,445.22,320.63,446.67,322.49,447.65Z" transform="translate(-19.06 -6.4)"/><path class="cls-1" d="M302.47,307.25c0-1,0-2-.1-2.95-.27-2.17-.07-4.52,2.63-4,1.45.29,2.77,2.45,3.63,4,.52,1,.05,2.48,0,3.75l-3.17-2.79Z" transform="translate(-19.06 -6.4)"/><path class="cls-1" d="M330.3,351.59c-8-23.24-13.9-46.53-11.62-71.17a24.7,24.7,0,0,1,1.06,2.56c2.27,7.66,4.4,15.36,6.81,23a17.51,17.51,0,0,0,3.09,5c2.08,2.72,4,5.72,6.57,7.9,6.07,5.14,6.7,11.75,6,18.87a5.44,5.44,0,0,1-1.11,3C337.62,344.38,334,347.85,330.3,351.59Z" transform="translate(-19.06 -6.4)"/><path class="cls-1" d="M291.72,188l1.61.92c7.69,5.46,10.64,11.9,9,19-2.54-4-4.74-8.79-8.14-12.49-4-4.4-9.31-7.3-15.71-4.53-1.74.75-3.25,2.05-5.53,3.53-3.2-10.12-6.44-20.32-9.68-30.53l1.16-.61c.61.93,1.28,1.82,1.82,2.79,1.5,2.75,3.13,5.46,4.39,8.32,2.61,5.9,6.49,9.94,13.35,10.15l3.62,1.51L290,187.2Z" transform="translate(-19.06 -6.4)"/><path class="cls-1" d="M337,195.42c-5.09-9.08-17.17-6.37-20.84.41-2.28,4.19-4.36,8.47-6.84,13.31-.69-8.21.05-15.24,7.25-19.73a14.24,14.24,0,0,1,6-1.9c9.44-.92,16.77-4.46,19.48-14.44.86-3.17,1.89-6.3,3-9.39a25.87,25.87,0,0,1,2.11-3.81l1.56.63Z" transform="translate(-19.06 -6.4)"/><path class="cls-1" d="M360.28,165.93c-.06.84.21,2-.24,2.46-.78.79-2.16,1.75-3,1.53a3.27,3.27,0,0,1-1.67-2.8c.17-.82,1.66-1.59,2.72-1.93.61-.19,1.51.54,2.28.86Z" transform="translate(-19.06 -6.4)"/><path class="cls-1" d="M250.76,166.06c.77-.32,1.68-1.07,2.29-.88,1,.34,2.53,1.13,2.71,2a3.24,3.24,0,0,1-1.69,2.77c-.84.23-2.23-.71-3-1.5-.44-.46-.15-1.63-.2-2.48Z" transform="translate(-19.06 -6.4)"/></svg>