<?xml version="1.0" encoding="utf-8"?>
<!-- Generator: Adobe Illustrator 23.0.0, SVG Export Plug-In . SVG Version: 6.00 Build 0)  -->
<svg version="1.1" id="Capa_1" xmlns="http://www.w3.org/2000/svg" xmlns:xlink="http://www.w3.org/1999/xlink" x="0px" y="0px"
	 viewBox="0 0 697.01 712.2" style="enable-background:new 0 0 697.01 712.2;" xml:space="preserve">
<style type="text/css">
	.st0{fill:#A4793C;}
</style>
<title>logo_goblin</title>
<g>
	<path class="st0" d="M346.81,497.05c4.95-0.81,8.18,2.6,11.85,4.91c1.66,1.04,3.41,1.95,5.11,2.91v-0.05l11.96,8.91
		c0.35-17.86,8.91-31.57,17.94-44.83c3.93-5.73,9.71-10.38,15.31-14.72c5.14-4.05,11.13-6.95,16.71-10.4
		c0.74-0.46,1.66-1.15,1.85-1.89c1.07-4.27,1.93-8.59,2.98-13.41l-11.71-3.09l0.06,0.09l-0.87-0.92l-2.35-0.75l-2.86-1.03
		c0.69-1.81,1.34-3.51,2.13-5.56c5.08,1.85,10.06,3.71,15.09,5.44c1.17,0.28,2.37,0.44,3.58,0.47l-0.08-0.06l7.71,4.56
		c-2.63,7-5.38,14.57-8.35,21.99c-0.62,1.11-1.67,1.92-2.91,2.23c-21.05,5.01-32.72,20.33-42.1,38.18
		c-5.12,9.76-6.96,19.97-4.69,30.87c0.21,1.02-0.41,2.22-0.66,3.33l-3.77-1.43l-1-0.4l-6.2-3.63l-5.74-3.24l-1.35-0.73l-5.94-3.35
		l-1.01-0.4c-1.9-1.08-3.8-2.15-5.72-3.2c-3.98-2.88-7.94-5.9-12.7-1.34l-20.81,11.89l-2.59,1.55l0.57,0.85l2.96-1.62l20.42-11.82
		c3.35-2.52,6.59-2.38,9.77,0.34c0.55,0.36,1.13,0.66,1.75,0.89l5.74,3.24l1.04,0.41l5.72,3.24l1.56,0.87l5.67,3.2l6.21,3.62
		l1.05,0.45l3.46,2.25c-1.49,2.19-2.98,4.37-4.59,6.75c-10.37-6.19-20.51-12.21-30.59-18.3c-2.02-1.22-3.66-1.79-4.62,1.08
		l0.15-0.06l-1.73,0.81l0.09-0.06l-0.88,0.9v-0.12c-1.15,0.3-2.27,0.71-3.34,1.25c-7.82,4.98-15.58,10.04-23.59,15.22l-5.01-6.78
		l3.29-3.01h-2.52l-1.68-0.14c-0.08-1.35-0.08-2.7,0-4.05c2.15-17.46-4.44-32.01-14.95-45.34c-8.59-10.88-19.34-18.46-32.88-21.93
		c-1.01-0.46-1.79-1.32-2.15-2.37c-2.43-7.08-4.78-14.22-7.29-21.67c9.53-3.89,18.91-7.82,28.38-11.5c1.47-0.57,3.38,0,5.08,0
		l-0.09-0.08l5.73,2.43h-0.06c0.92,0.88,1.94,1.64,3.03,2.29c6.79,3.09,13.64,6.07,20.47,9.09l0.1,1.81l-7.64,10.86l-9.93-7.34
		l-1.04-0.74c-3.08-2.51-6.4-4.77-9.17-7.57c-3.57-3.62-7.16-3.64-11.19-1.2l-14.7,4.23l4.48,14.98l13.4,6.48l18.62,14.57
		l-1.62-3.39c4.93-4.19,9.82-8.34,14.71-12.48c1.24,2.2,4.15,3.69,2.75,7c-2.64,6.28-5.16,12.61-7.72,18.91l-1.49-0.85l-2.27-3.18
		c-1.13-1.9-2.26-3.79-3.38-5.67l-1.42,1.05l4.61,5.42l2.39,2.49l1.7,1.62l0,0c0,0.77,0,1.55,0,2.32c-0.05,0.48-0.02,0.96,0.09,1.42
		c2.11,4.67,4.27,9.32,6.43,13.97l1.56,1.75v1.62c1.25,5.08,2.49,10.16,3.82,15.55c8.27-5.55,16.39-10.98,24.5-16.41L346.81,497.05z
		 M315.82,521.25l-0.43-1.27l-5.5,2.97l0.72,1.24L315.82,521.25z"/>
	<path class="st0" d="M239.43,351.96l4.86-2.51l-0.06-0.12l4.58,3.68l0.32,1.21l4.46,5.67v-0.04c-0.81,1.38-1.42,2.95-2.49,4.1
		c-1.91,2.05-4.05,3.85-6.48,6.1l22.18,5.34c0,7.67,0.05,15.3-0.08,22.94c0,0.63-1.13,1.25-1.73,1.89
		c-0.03-0.25-0.09-0.49-0.16-0.73c-0.18,0.01-0.35,0.04-0.53,0.09l0.69,1.58c-0.74,2.82-0.81,2.88-4.05,1.62
		c-13.1-5.2-26.21-10.42-39.31-15.67c-19.24-7.67-38.27-15.94-57.7-22.84c-12.36-4.38-25.44-6.75-38.21-9.96
		c-6.91-1.73-13.84-3.43-20.8-4.94c-2.73-0.59-4.19-1.62-3.14-5.16c16.33,4.11,32.79,7.85,49,12.46
		c16.06,4.57,31.87,10.01,47.76,15.06l0.4-1.09c-1.16-0.47-2.27-1.04-3.46-1.4c-30.37-9.11-60.74-18.21-91.11-27.31
		c-1.39-0.53-2.74-1.15-4.05-1.87l0.54-1.48l62.77,12.35c3.17-8.3,6.62-16.74,13.83-22.81l0.07,2.65l-11.33,17.58l9.63,1.92
		c0.28-0.52,0.53-1.06,0.74-1.62c5.29-17.69,22.26-29.23,40.66-27.65c2.53,0.2,3.81-0.64,4.26-3.03c1.55,1.58,1.55,1.58,0.06,4.55
		c-4.7,0-8.91,0-13.18,0.05c-0.33,0-0.65,0.66-0.98,1.01l0.12-0.15l-9.16,3.24c-0.23,0.09-0.43,0.23-0.6,0.41l-2.49,2.91l0.08-0.06
		l-1.72,0.81l0.08-0.05l-0.88,0.9l0.1-0.07l-1.73,0.85l0.07-0.06l-2.87,1.62l-1.18,1.96c-0.28,0.72-0.56,1.43-0.81,2.15l0.06-0.09
		l-0.9,0.88l0.06-0.09l-1.62,3.34l0.06-0.08c-0.57,0.81-1.13,1.66-1.68,2.49v-0.05l-2.43,4.12l0.06-0.09l-2.43,3.29l-1.52,0.45
		l-6.99-0.53v0.59l62.95,14.82l-5.04-4.05l-0.04,0.08l0.81-0.85v0.05l0.81-0.87l-0.06,0.06l0.87-0.87l-0.06,0.06l0.87-0.89
		l-0.1,0.07l1.71-0.81h-0.05l0.87-0.87l-0.06,0.06l0.87-0.87l-0.07,0.06l0.87-0.87l-0.06,0.06l0.87-0.87l-0.06,0.06l0.87-0.86v0.04
		L239.43,351.96z M243.04,369.62l0.41,0.14l-0.31-0.24l-1.5-1.56c-0.17,0.27-0.35,0.53-0.53,0.81L243.04,369.62z M200.9,371.24
		l-1.62,0.09l1.67,0.62l0.85,2.25c0.44-0.53,0.88-1.05,1.33-1.57L200.9,371.24z M237.46,367.14h-2.52l-0.06,0.44l2.57,0.81
		l2.03-0.25L237.46,367.14z M261.68,397.91c-18.77-8.59-37.24-17.81-56.92-24.21c17.35,8.19,34.88,15.96,52.43,23.68
		c1.48,0.54,2.98,0.98,4.52,1.33l0.72,1.27l0.81-0.7L261.68,397.91z M165.91,350.21l-0.21,0.55l1.38,0.75
		c0.12-0.3,0.24-0.6,0.37-0.9L165.91,350.21z M233.87,367.43l0.36-0.92l-2.49-0.45l-0.13,0.67L233.87,367.43z"/>
	<path class="st0" d="M537.05,217.38c1.47-4.48,2.94-8.96,4.43-13.5c39.94,1,84.89,42.35,85.81,95.21l-22.41,4.39
		c-1.29-19.37-7.75-35.91-21.49-50.02c-13.52-13.88-29.27-22.34-48.06-25.3c0.66-4.12,1.21-7.46,1.74-10.82L537.05,217.38z
		 M568.81,221.39c-3.32,0.07-5.97,3.34-5.97,7.33c0.01,3.98,2.7,7.25,6.02,7.29c3.47,0.05,6.27-3.38,6.17-7.54
		C574.93,224.47,572.16,221.31,568.81,221.39L568.81,221.39z M618.78,287.38c0-3.81-2.38-6.91-5.31-6.91c-2.93,0-5.32,3.1-5.32,6.91
		s2.38,6.92,5.32,6.92C616.41,294.31,618.78,291.21,618.78,287.38L618.78,287.38z M603.4,253.77c-3.36-0.24-6.28,2.29-6.53,5.65
		c-0.24,3.36,2.29,6.28,5.65,6.53s6.28-2.29,6.53-5.65c0.01-0.13,0.01-0.26,0.02-0.4c0.15-3.23-2.35-5.98-5.59-6.12
		c-0.03,0-0.07,0-0.1,0H603.4z"/>
	<path class="st0" d="M355.59,577.54c-3.3,1.66-6.71,3.12-9.85,5.04c-1.98,1.21-3.38,1.23-5.28-0.1c-3.71-2.61-7.62-4.92-11.44-7.35
		l-22-14.41l-1.57-0.15v0.05l-2.49-1.68l0.06,0.04l-2.48-1.66l0.05,0.06l-1.63-2.12l-1.17-0.36l-3.72-1.62l0.08,0.05l-2.48-1.67
		l0.05,0.05l-1.62-1.66l0,0l-11.33-7.29l0,0l-4.3-3.88l10.29-12.27l59.1,41.29l57.77-40.77c5.01,4.22,9.9,8.31,14.96,12.56
		c-0.89,0.61-2.05,1.47-3.24,2.2c-18.35,11.03-36.68,22.06-54.98,33.09c-1.02,0.77-1.97,1.64-2.81,2.61L355.59,577.54z"/>
	<path class="st0" d="M461.17,505.82c3.1-0.28,6.14,0.92,8.21,3.24c1.91,2.08,4.13,3.85,6.58,5.26c2.01,1.05,5.08,2.11,6.78,1.3
		c4.22-2.02,7.38-0.81,10.66,1.54v-0.09c4.81,6.75,9.66,13.3,10.99,22c1.98,12.9-0.42,17.09-13.33,18.07
		c-11.72,0.89-23.28-0.05-34-6.06c-9.63-5.4-14.57-14.23-13.54-26.11c0.66-7.9,7.94-15.75,17.28-18.67c0.19-0.06,0.3-0.36,0.45-0.55
		L461.17,505.82z"/>
	<path class="st0" d="M286.71,609.22c5.31,4.23,10.6,8.5,15.93,12.7c2.83,2.23,5.74,4.36,8.83,6.7l-13.33,15.59l-88.64-69.2
		l12.05-14.29c1.13,0.81,2.19,1.47,3.24,2.25c18.47,13.97,36.95,27.95,55.42,41.93c1.08,0.72,2.21,1.38,3.37,1.98v-0.06l3.24,2.43
		L286.71,609.22z"/>
	<path class="st0" d="M244.71,521.66c0.81,6.15-0.74,12.6,2.37,18.49c0.32,0.59-0.45,1.75-0.71,2.65l-5.67,5.63
		c-1.95,1.09-3.84,2.28-5.67,3.56c-14.57,11.38-30.6,10.82-47.17,6.04c-1.06-0.51-1.85-1.45-2.16-2.59
		c-3.66-13.69,0.55-30.72,13.7-38.27v19.04c6.48-0.64,12.62-1.11,18.68-1.98c0.96-0.14,2.43-2.09,2.38-3.18
		c-0.07-5.91-0.53-11.81-0.87-18.16c-4.5,0.58-9.19,2.1-13.63,1.56c-6.07-0.73-9.81,2.11-13.55,5.85
		c-5.4,5.39-9.16,11.82-9.88,19.39c-0.59,6.35-0.86,12.95,2.95,18.87c-6.29-0.81-10.44-5.12-10.7-10.74l0.23-5.89
		c1.7-12.68,5.92-23.99,17.25-31.35c4.47-2.89,6.97-2.82,10.27,0.45c0.58,0.57,0.81,1.52,1.51,3.04c4.8-1.03,10.11-2.3,15.47-3.24
		c6.81-1.24,13.57-1.62,19.62,2.76c-0.06,0,0,0,0.21,0.11l2.89,3.24v-0.06l1.68,3.3l-0.05-0.08l0.88,1.71L244.71,521.66z
		 M220.24,536.68l-20.76,1.62c0.81,3.81,1.48,7.67,2.58,11.38c0.37,1.25,1.9,3.08,2.89,3.07c5.53,0,11.06-0.53,17-0.91
		C221.3,546.07,220.78,541.44,220.24,536.68z"/>
	<path class="st0" d="M162.92,417.33c-6.48,0.05-12.14,5.78-10.88,12.44c1.05,5.59-0.81,8.91-5.02,11.77
		c-1.02,0.67-1.94,1.49-2.73,2.43c-1.93,2.47-4.05,2.63-6.48,0.86c-2.05-1.47-3.94-1.32-6.26-0.11c-6.53,3.42-13.24,6.52-20.13,9.86
		l-24.07-39.26c2.61,0.87,4.58,1.44,6.48,2.17c6.15,2.35,12.22,4.86,18.45,7c1.79,0.51,3.72,0.28,5.34-0.66
		c9.53-6.56,18.85-13.43,28.34-20.05c1.19-0.81,3.24-1.38,4.56-0.93c20,7.06,39.95,14.31,59.91,21.51c0.49,0.17,0.95,0.42,1.62,0.73
		c-0.11,1.47-0.23,2.91-0.38,4.77L167.3,416.2c0.7,5.19,1.22,9.1,1.74,13c-0.23,0.1-0.42,0.25-0.57,0.45
		c-6.67-1.28-8.74-3.38-7.96-8.61c0.16-1.06,1.58-1.93,2.43-2.87l2.58-0.17v-0.49L162.92,417.33z M149.16,420.77
		c0.06-4.09-2.97-7.44-6.79-7.5c-4.01-0.27-7.49,2.76-7.76,6.78s2.76,7.49,6.78,7.76c4.01,0.27,7.49-2.76,7.76-6.78
		C149.15,420.94,149.15,420.85,149.16,420.77z"/>
	<path class="st0" d="M383.16,644.21l-11.14-13.76l89.65-68.81l11.73,13.76L383.16,644.21z"/>
	<path class="st0" d="M402.16,437.44c-0.77,0.04-1.52,0.18-2.25,0.42c-2.27,1.14-4.4,2.65-6.75,3.58c-7.76,3.08-9.71,2.91-14.7-3.71
		c-4.86-6.4-11.88-9.02-18.51-12.39c-2.69-1.25-4.6-3.74-5.09-6.67c-1.59-7.15-0.95-14.62,1.83-21.4c0.33-1.13,0.55-2.29,0.65-3.46
		l-0.13,0.06l2.51-2.43l6.48-5.72c0,0.4-0.23,0.97,0,1.18c0.91,1.01,1.81,2.33,2.96,2.7c0.57,0.18,1.72-1.48,2.6-2.31
		c-1.08-0.76-2.11-1.58-3.24-2.23c-0.4-0.23-1.02-0.04-1.54-0.05c0.55-0.65,0.97-1.62,1.67-1.89c3.74-1.62,7.54-3.05,11.33-4.56
		c14.18-0.51,24.57,5.67,30.12,17.94c5.77,12.74,3.34,27.69-6.17,37.94c-0.72,0.96-1.34,2-1.84,3.09L402.16,437.44z M392.64,430.25
		c-7.03-12.86-13.76-25.15-20.5-37.5c-5.76,4.17-5.78,4.18-2.47,9.71c5.92,9.88,11.85,19.76,17.89,29.83L392.64,430.25z
		 M377.59,390.1l19.61,36.33c3.86-4.38,3.86-4.38,1.49-9.01l-12.31-24.08C383.72,388.16,383.72,388.16,377.59,390.1z M380.01,432.1
		l-16.04-27.22c-3.69,12.2,3.97,25.34,16.11,27.18L380.01,432.1z M402.75,414.96c1.98-11.33-4.56-22.86-13.24-24.12
		C393.85,398.77,398.15,406.57,402.75,414.96z M385.75,381.51c-1.19,1.69-2.43,2.67-2.43,3.63c0,0.96,1.25,1.98,1.94,2.98
		c0.91-0.91,2.33-1.72,2.58-2.79C388.04,384.48,386.79,383.31,385.75,381.51z M406.8,425.59c1.07-1.62,2.29-2.63,2.11-3.31
		c-0.26-0.97-1.54-1.67-2.38-2.49c-0.75,0.81-2.12,1.62-2.09,2.33c-0.02,0.96,1.14,1.88,2.3,3.46L406.8,425.59z M397.51,428.63
		c-0.96,1.47-2.16,2.53-1.98,3.24c0.27,0.96,1.56,1.62,2.43,2.43c0.74-0.92,1.92-1.79,2.04-2.78c0.02-0.7-1.36-1.57-2.55-2.88
		L397.51,428.63z M363.9,399.39c-1.62-1.07-2.63-2.29-3.31-2.11c-0.97,0.26-1.67,1.54-2.49,2.38c0.81,0.75,1.62,2.12,2.33,2.09
		C361.38,401.7,362.28,400.55,363.9,399.39z M385.5,435.12c-1.03,1.34-2.06,2.12-2.15,3c-0.06,0.53,1.41,1.78,2.07,1.7
		c0.91-0.11,1.72-1.16,2.57-1.81L385.5,435.12z"/>
	<path class="st0" d="M424.52,539.57c-0.59-0.54-1.24-1.01-1.93-1.4c-16.37-6.82-24.81-19.66-26.23-36.76
		c-1.46-17.39,4.78-31.92,19.9-41.47c16.5-10.42,37.6-5.5,49.26,11.04c6.48,9.17,8.96,19.43,8.1,31.64
		c-3.59-3.93-6.6-7.38-9.78-10.67c-1.36-1.4-3.17-2.36-4.61-3.69c-0.79-0.82-1.42-1.76-1.89-2.79c-1.62-3.24-3.04-6.58-4.82-9.71
		c-0.43-0.77-1.9-0.96-2.89-1.41l-1.71-1.49c-0.12-0.76,0-1.85-0.41-2.23c-10.28-9.02-29.4-3.94-34.12,9.03
		c-0.07,0.19,0.32,0.56,0.49,0.81l0.07-0.05c-0.57,0.48-1.45,0.81-1.68,1.46c-4.23,11.04-3.53,21.86,4.27,30.76
		c5.39,6.19,9.37,13.05,13.58,19.91c1.45,2.37,2.82,4.81,4.53,7.76l-10.15-0.81L424.52,539.57z M414.09,525.57l4.6,5.02
		c1.08-1.47,3.06-2.96,3.04-4.43c0-1.72-1.76-3.42-2.75-5.13L414.09,525.57z M406.92,498.72l-3.82-3.62c-1,1.21-2.66,2.36-2.78,3.65
		c-0.11,1.08,1.62,2.35,2.47,3.53L406.92,498.72z M452.33,464.5l-0.05-1.46c-1.26-0.66-2.57-1.88-3.77-1.8
		c-1.06,0.08-2.02,1.62-3.02,2.52c1.06,0.97,2.05,2.57,3.24,2.72c1.19,0.15,2.42-1.26,3.63-1.98H452.33z M467.56,484.74l-3.7-3.35
		c-0.74,1.14-2.13,2.33-2.06,3.42c0.09,1.25,1.46,2.43,2.27,3.63L467.56,484.74z M420.07,467.52l-1-1.79
		c-0.93-0.74-1.94-2.13-2.78-2.02c-0.83,0.11-2.37,1.75-2.24,2.48c0.34,1.26,1.28,2.27,2.5,2.71c1.06,0.23,2.39-0.86,3.55-1.37
		L420.07,467.52z"/>
	<path class="st0" d="M474.52,361.63c7.98-1.55,16-2.96,23.96-4.67c28.92-6.2,57.82-12.52,86.73-18.77c0.76-0.11,1.53-0.15,2.3-0.14
		l0.59,1.17c-1.18,0.72-2.27,1.75-3.55,2.1c-17.47,4.86-35.13,9.17-52.4,14.66c-15.72,5-31.03,11.28-46.51,17.04
		c-0.54,0.2-0.89,0.94-1.33,1.42l0.07-0.07l-2.53,0.81h0.06l-3.29,1.66h0.06l-5.72,2.43h0.06c-1.17,0.07-2.33,0.27-3.46,0.6
		c-15.37,6.36-30.72,12.75-46.06,19.18c-0.47,0.19-0.95,0.36-1.98,0.77c0.46-8.4,0.9-16.37,1.36-24.68
		c6.83-1.89,13.64-3.9,20.53-5.57c1.25-0.31,2.84,0.77,4.46,1.27c0.89-3.24,3.95-3.72,7.01-4.42c6.58-1.51,13.12-3.17,19.67-4.76
		L474.52,361.63z"/>
	<path class="st0" d="M573.42,410.89c-0.23-5.96-2.1-7.55-11.12-9.21c-0.92,2.53-1.87,5.13-3,8.26c-4.57,0-9.25,0.09-13.92,0
		c-2.43-0.06-6.42-6.23-6.09-9.25c0.2-2.14,0.54-4.27,1.01-6.37c0.98-4.15,1.21-7.97-1.34-11.92c-2.02-3.13-0.22-7.17,3.17-9.03
		c2.94-1.62,5.97-3.1,8.82-4.86c2.85-1.76,5.4-0.66,6.17,1.93c2.34,7.93,8.47,11.07,15.38,13.76c5.37,2.09,10.6,4.58,15.75,7.18
		c1.72,0.86,3.13,2.23,4.05,3.92c3.62,7.5,6.85,15.17,10.39,22.67c0.97,2.08,1.1,3.55-0.6,5.32c-3.67,3.76-6.23,8.47-7.38,13.6
		c-0.46,1.98-3.13,3.46-5.11,5.5c-1.14-1.81-1.82-2.91-2.5-4c-3.48-7.33-6.96-14.67-10.43-22.01l-1.75-2.32l0.09,0.06l-0.87-1.71
		l0.06,0.1l-0.87-1.72L573.42,410.89z M550.47,388.22c3.88-0.09,6.89-3.63,6.77-7.97c-0.11-4.17-3.13-7.46-6.87-7.49
		c-3.89,0-7,3.45-6.98,7.79S546.58,388.31,550.47,388.22L550.47,388.22z"/>
	<path class="st0" d="M375.03,605.04L363,612.44l-9.88-15.38l12.26-8.91l0,0l2.43-1.62l0,0c0.81-0.55,1.62-1.1,2.43-1.62l0,0
		l2.43-1.62l0,0l2.43-1.62l0,0l2.43-1.62l0,0l2.43-1.62v0.06c1.31-0.57,2.58-1.21,3.81-1.93c17.81-11.7,35.62-23.43,53.84-35.4
		l9.76,13.88l-4.36,3.93l0.07-0.07l-0.85,0.86l0.06-0.06l-2.87,1.09l-2.53,1.73l-2.36,1.62l-5.29,3.72l-0.9,0.68l-1.89,1.14
		l-2.43,1.62l-2.43,1.62l-12.95,8.78c-6.36,4.26-12.73,8.48-19.04,12.82c-2.12,1.46-4.05,3.2-6.06,4.81l-0.81,0.81l-2.85,1.62l0,0
		l-2.43,1.62l0,0l-2.43,1.62L375.03,605.04z"/>
	<path class="st0" d="M232.65,488.22l-3.99,0.48l-0.66-0.53c0.81-2.13,0.81-4.22-1.69-4.91c-1.05-0.29-2.8,0.5-3.66,1.38
		c-0.55,0.56-0.44,2.87,0.06,3.15c1.33,0.73,3.03,0.81,4.57,1.09l0.53,0.63l-9.18,13.13c-3.33-19.67,10.38-48.26,36.8-48.03
		c8.32,0.07,15.5,3.24,21.63,8.78c19.52,17.54,19.43,51.59-0.06,69.09c-6.22,5.57-14.18,8.75-21.66,8.43
		c3.94-4.59,7.84-8.82,11.33-13.36c1.49-1.92,3.01-4.5,2.96-6.74c-0.08-3.66,1.69-5.67,3.84-8.16c7.55-8.82,9.01-18.92,4.26-29.45
		c-4.32-9.54-11.97-14.82-22.67-14.78c-10.69,0.03-20.85,8.49-23.23,19.2c-0.05,0.23,0.35,0.56,0.54,0.81L232.65,488.22z
		 M291.38,499.91l-1-1.79c-0.93-0.74-1.94-2.13-2.78-2.02s-2.37,1.75-2.24,2.48c0.34,1.26,1.28,2.27,2.5,2.71
		C288.9,501.51,290.22,500.42,291.38,499.91L291.38,499.91z M243.92,465.53c-1.36-1.21-2.27-2.66-3.13-2.62
		c-0.86,0.03-2.43,1.62-2.36,2.34c0.15,1.08,1.48,2.02,2.31,3.01L243.92,465.53z M272.88,471.76c1.21-1.69,2.43-2.67,2.43-3.62
		s-1.24-1.99-1.93-2.98c-0.91,0.91-2.34,1.7-2.59,2.77C270.57,468.78,271.81,469.96,272.88,471.76L272.88,471.76z"/>
	<path class="st0" d="M260.9,317.69l-4.28,2.61c-4.05-6.34-8.1-12.61-11.91-19.02c-0.53-0.87-0.3-2.59,0.21-3.61
		c0.82-1.7,1.96-3.22,3.34-4.5c4.45-3.95,2.7-8.14,0.65-12.3c-1.55-3.12-3.45-6.06-5.04-9.15c-0.35-0.68,0-1.69,0-2.55
		c0.49,0.22,1.19,0.31,1.41,0.68c2.59,4.5,5.1,9.04,7.4,13.15l3.42-0.92c1.34-0.32,2.81-0.38,3.99-1
		c6.79-3.62,13.52-7.37,20.24-11.07l1.03-0.28l-1.04-0.54l-8.48,1.17c0.91-0.77,1.91-1.43,2.97-1.96c2.96-1.07,6.02-1.93,8.3-2.65
		c0.13-2.43,0.23-4.2,0.32-5.97c1.08,2.49,2.15,4.97,3.24,7.48c3.88,0.34,8.31,0.37,12.55,1.28c2.04,0.63,3.72,2.1,4.61,4.05
		c1.71,4.35,2.67,8.99,3.93,13.5c-2.02,0.57-4.11,1-6.06,1.75c-15.82,6.12-29.04,15.9-40.11,28.68l-0.81,1.24L260.9,317.69z"/>
	<path class="st0" d="M433.72,286.36c4.53,4.86,8.64,10.01,10.19,16.64c0.21,1.19-0.05,2.42-0.74,3.42
		c-3.44,4.41-7.08,8.68-10.92,13.33c-13.89-15.23-28.56-30.71-52.03-32.92c2.11-5.93,4.09-11.73,6.32-17.42
		c0.28-0.71,1.95-1.31,2.94-1.25c5.63,0.32,11.24,0.81,16.86,1.34c1.46,0.13,2.91,0.38,4.36,0.58l-0.1-0.06l17.81,10.52l0,0
		l1.71,0.81l-0.1-0.07l0.9,0.89l-0.09-0.09l0.89,0.9l-0.08-0.08l0.89,0.88l-0.07-0.1l0.85,2.13L433.72,286.36z"/>
	<path class="st0" d="M322.83,348.99c6.95-2.78,13.88-5.59,20.85-8.31c0.88-0.32,1.83-0.35,2.73-0.08
		c5.21,1.78,10.41,3.57,15.53,5.59c3.29,1.29,5.56,7.59,3.85,12.09c-2.02,5.33-4.86,10.35-6.81,14.49
		c-5.86-1.12-10.61-2.77-15.33-2.72c-4.73,0.05-9.53,1.78-14.9,2.9l-6.31-11.51l-1.79-8.62l-1.58,0.36l1.82,8.32l5.67,12.43
		l-22.44,9.54c-1.69-5.19-3.62-10.61-5.21-16.11c-1.29-4.84,1-9.92,5.49-12.14c4.23-2.04,8.56-3.9,12.65-6.19
		c2.1-1.17,3.82-1.28,5.76-0.07l-2.43,0.96l0.77,1.02L322.83,348.99z M336.2,363.47l1.53,1.24c2.17,0.52,4.37,1.57,6.48,1.45
		c5.72-0.32,9.46-5.55,7.71-10.29c-1.03-2.77-2.62-4.49-5.75-2.43c-0.27-1.01-0.54-2.02-0.81-3.03c-5.2-0.62-8.91,0.81-10.69,4.35
		C333.06,357.99,333.4,360.96,336.2,363.47z"/>
	<path class="st0" d="M192.07,135.5c-6.48,4.63-13.45,8.78-19.43,14.01c-7.17,6.37-12.88,14.21-16.73,22.99
		c-2.23,4.95-1.12,6.57,4.05,7.07c3.24,0.32,6.82-1.51,10.02,1.9c2.23,2.39,1.03,4.72,1.76,6.95l0.09-0.12
		c-6.53,0.13-13.07,0.89-19.43-1.69c-4.79-1.95-6.48-3.7-5.67-8.68c0.56-4.07,1.85-8.01,3.8-11.63
		c11.92-20.43,29.5-34.87,50.87-44.11c10.74-4.65,22.67-6.54,34.63-6.78c6.8-0.14,13.59-0.58,20.39-0.89l-0.19-0.05
		c2.19,0.71,4.4,1.38,6.57,2.16c3.85,1.41,5.48,4.19,4.57,8.19c-1.47,6.48-3.38,12.71-9.18,17.58c-0.19-6.7-2.95-13.12,2.43-19.57
		c-2.74-0.65-4.58-1.38-6.48-1.48c-4.55-0.34-9.12-0.41-13.67-0.22c-5.45,0.33-11,0.65-16.26,1.98c-8.57,2.19-16.94,5.13-25.35,7.93
		c-1.62,0.54-3,1.9-4.48,2.89l0,0l-2.43,1.62L192.07,135.5z"/>
	<path class="st0" d="M471.4,425.33l-8.66,2.66c-0.09,0.68-0.26,1.91-0.5,3.67l-17-3.19c-0.57-3.92-1.09-7.63-1.62-11.2
		c4.74,0,10.29,0.18,15.83-0.09c2.21-0.06,4.36-0.71,6.23-1.9c23.33-16.67,46.54-33.51,69.83-50.19c2.08-1.46,4.33-2.67,6.7-3.6
		c13.1-5.22,26.25-10.31,39.37-15.47c1.7-0.67,3.34-1.48,5.1-2.27c1.44,2.28,0.52,3.38-1.62,4.32c-6.37,2.86-12.52,6.28-19.05,8.69
		c-15.29,5.67-28.17,14.98-40.72,25.04c-17.13,13.76-34.57,27.08-51.81,40.65c-0.95,0.74-1.48,2-2.21,3.03L471.4,425.33z"/>
	<path class="st0" d="M433.72,286.36l-0.4-0.52l-0.85-2.13l0.07,0.1l-0.89-0.88l0.08,0.08l-0.89-0.9l0.09,0.09l-0.9-0.89l0.1,0.07
		l-1.71-0.81l0,0c-1.55-1.84-2.74-4.35-4.71-5.36c-4.16-2.15-8.73-3.51-13.12-5.18l0.1,0.06l-8.74-3.33
		c3.17-7.71,6.37-15.7,9.71-23.62c1.24-2.91,2.89-5.67,0.58-8.76l3.5-2.43c-0.17,0.94-0.34,1.87-0.5,2.78
		c8.48-3.33,15.98-0.49,22.85,3.24c7.07,3.76,12.93,9.45,16.91,16.39c0.37-1.38,0.64-3.01-0.05-3.88
		c-2.78-3.61-5.78-7.05-8.98-10.29c-7.75-7.67-17.15-10.99-28.05-9.85c-0.05-1.16,0.23-2.43-0.21-3.42
		c-0.76-1.68-2.04-3.12-2.97-4.74c-3-5.21-5.55-5.46-9.88-0.75c1.34,2.06,2.79,4.13,4.05,6.31c1.25,2.19,2.24,4.42,3.35,6.64
		c-1.73-2.01-3.65-3.89-5.17-6.05c-2.87-4.05-5.48-8.31-8.24-12.46c-1.52-2.28-1.39-4,1.46-4.96l1.43-1.19
		c4.95-0.81,9.92-1.62,14.85-2.59c0.9-0.18,1.68-1,2.51-1.52c0.56,2.78,2.28,3,4.53,2.06c4.09,1.04,8.1,2.33,12.27,3.04
		c9.07,1.55,16.38,6.7,23.66,11.63c4.73,3.24,8.79,7.5,12.76,11.68c5.59,5.91,7.25,13.62,8.65,21.33c0.53,2.94-0.52,5.27-3.58,5.73
		c-6.94,1.04-13.92,1.62-20.73-0.85c-0.56-0.2-0.91-0.98-1.35-1.5c6.8,0.23,13.6,0.6,20.39,0.52c1.01,0,3.02-2.35,2.83-3.24
		c-0.96-4.66-1.56-9.76-3.98-13.68c-9.8-15.92-23.83-26.21-42.38-30.26c-8.91-1.94-17.62-3.6-26.64-1.25
		c-5.79,1.51-6.08,2.38-2.97,6.72c4.61-0.96,8.95-2.85,13.09-2.52c7.84,0.63,15.88,1.66,23.31,4.1c16.19,5.3,28.21,15.55,33.8,32.31
		c1.11,3.34,0,5.14-3.17,5.21c-3.42,0.07-6.88-0.52-10.31-0.92c-2.21-0.27-4.23-0.43-4.38,2.65c-1.42,1.01-3.34,1.72-4.17,3.09
		c-3.87,6.39-7.53,12.91-11.06,19.49c-1.04,1.93-1.44,4.21-2.06,6.1L433.72,286.36z M435.74,283.93c1.25-2.65,2.12-4.86,3.29-6.87
		c3.62-6.28,7.29-12.56,11.08-18.73c1.51-2.43,1.12-4.18-0.4-6.53c-6.23-9.61-15.69-13.88-26.21-16.55
		c-2.99-0.76-5.72-0.23-7.11,2.87c-4.05,9.04-7.95,18.13-12.14,27.72C417.24,268.23,428.66,272.51,435.74,283.93L435.74,283.93z
		 M453.65,228.88l-6.76,7.16c4.63,6.72,9.29,12.56,19.03,7.6L453.65,228.88z M450.13,228.02l-17.86-7.93v9.48l12.08,5.16
		c0.81-1,1.7-2.03,2.57-3.05c0.87-1.02,1.75-1.99,3.21-3.68V228.02z M415.42,218.3c3.24,8.69,5.83,10.52,14.57,10.3
		c-1.4-2.82,1.85-6.67-2.33-8.63c-3.75-1.8-7.71-3.12-12.24-1.71L415.42,218.3z M458.17,254.01c2.49,0.19,4.86,0.45,7.29,0.52
		c3.07,0.1,4.3-1.62,3.24-4.56c-0.53-1.23-1.12-2.43-1.79-3.59l-10,1.2c0.42,2.01,0.79,3.93,1.26,6.39L458.17,254.01z"/>
	<path class="st0" d="M247.03,428.4c-5.17,1.2-10.24,2.51-15.38,3.48c-1.41,0.12-2.81-0.28-3.93-1.14
		c-26.16-19.64-52.27-39.34-78.34-59.1c-1.12-1.01-2.11-2.15-2.95-3.4c-7.97-2.55-13.64-8.01-20.3-11.84
		c3.17,0.81,6.28,1.99,9.5,2.36c11.33,1.31,20.33,7.34,29.14,13.87c19.05,14.1,38.14,28.13,57.28,42.1c1.72,1.17,3.75,1.8,5.83,1.81
		c7.49-0.11,14.98-0.61,22.67-0.28l-6.2,3.24L247.03,428.4z"/>
	<path class="st0" d="M539.34,167.17c0.87,4.12,1.93,8.21,2.56,12.37c0.53,3.51-1.68,5.47-4.8,6.48c-5.24,1.62-10.34-1.43-10.6-6.74
		c1.34,0.19,2.6,0.36,3.85,0.56c3.15,0.47,4.79-1.47,3.55-4.51c-4.26-10.66-11.08-20.11-19.85-27.53
		c-6.68-5.6-14.16-10.25-21.3-15.29c-0.77-0.53-1.63-0.93-2.53-1.2c-10.66-3.24-21.32-6.54-32.02-9.62
		c-2.35-0.55-4.76-0.77-7.16-0.66c-5.64,0-11.28,0.13-16.92,0.38c-1.68,0.07-3.33,0.72-5.11,1.13l2.89,11.58l-2.43,1.55
		c-2.15-2.7-4.31-5.38-6.48-8.1c-4.05-5.21-2.19-9.52,3.71-11.33c3.61-1.09,7.36-1.61,11.13-1.54c15.48,0.41,31,1.17,45.77,6.3
		c6.53,2.27,12.6,5.88,18.89,8.84c0.93,0.37,1.88,0.69,2.85,0.94l-0.09-0.06c0.81,1.1,1.47,2.43,2.49,3.24
		c10.82,9.15,22.54,17.43,29.27,30.5c0.08,0.17,0.44,0.19,0.66,0.28l-0.05-0.07l0.91,0.88l-0.08-0.11L539.34,167.17L539.34,167.17z"
		/>
	<path class="st0" d="M172.63,546.09c-5.26-7.15-9.03-14.99-10.13-23.83c-1.26-10.18-0.68-20.24,5.42-29.04
		c4.53-6.48,10.47-10.1,19-7.97c6.25,1.56,12.7,10.56,10.8,16.72c-0.84,2.4-2.44,4.46-4.56,5.87c-12.41,8-20.03,18.54-19.16,34
		L172.63,546.09z"/>
	<path class="st0" d="M153.25,401.19c-4.13-3.42-7.2-0.92-10.44,1.42c-4.44,3.24-9.02,6.22-13.84,9.52
		c-1.94-4.05-3.54-7.87-5.62-11.42c-0.97-1.62-2.48-2.83-4.27-3.42c-8.45-2.15-17-3.94-26.2-6.02c0.73-0.95,1.51-1.85,2.35-2.7
		c1.11-0.98,2.43-1.71,3.47-2.76c8.1-8.34,17.93-11.2,29.45-10.91c5.17,0.13,8.84,0.86,11.98,5.08c2.64,3.42,5.58,6.59,8.78,9.48
		C152.19,392.48,154.09,395.86,153.25,401.19z"/>
	<path class="st0" d="M522.34,492.61c6.76,13.51,7.14,27.31,1.34,41.15c-1.36,3.24-3.89,5.99-6.58,10.01
		c-2.37-16.81-6.82-31.03-23.8-38.05v-12.35v0.11l1.62-4.15l-0.06,0.1l0.85-1.74l-0.08,0.11l0.95,0.05c0-0.32,0-0.63,0-0.95
		l-0.09,0.07c0.42,0.09,0.97,0.4,1.24,0.23c5.67-3.54,11.27-3.74,16.89,0c2.66,1.76,5.21,3.66,7.81,5.5L522.34,492.61z"/>
	<path class="st0" d="M527.23,409.27l11.11-4.35c0.06,0,0.45,0.11,0.51,0.3c2.19,6.71,7.29,7.29,13.2,6.4
		c1.72-0.14,3.44-0.14,5.16,0l16.86,35.06c-2.08,0.95-4.05,2.43-6.24,2.7c-2.19,0.27-4.54-0.89-6.78-0.76
		c-8.27,0.45-12.72-3.72-14.83-11.33c-0.72-2.6-1.89-4.78-5.55-4.57c-1.18,0.06-2.52-2.62-3.78-4.05
		c-3.21-5.7-6.41-11.39-9.63-17.08l0.04,0.06c0-0.11,0.09-0.23,0.06-0.32c-0.07-0.19-0.16-0.38-0.26-0.55l0.19-1.58L527.23,409.27z"
		/>
	<path class="st0" d="M162.38,347.6c-1.1,0.23-2.27,0.81-3.29,0.63c-3.7-0.66-7.38-1.51-11.03-2.43c-1.15-0.3-2.2-0.88-3.06-1.7
		c-14.56-14.63-29.02-29.29-43.62-43.86c-1.83-1.82-2.43-3.33-1.8-5.93c4.99-20.06,14.54-36.98,32.77-47.88
		c8.16-4.86,16.72-9.05,24.9-13.44c19.07,26.8,38.79,51.86,64.96,71.15l-0.74,1.17c-2.02-0.94-4.28-1.55-6-2.87
		c-19.68-15.15-36.81-33.35-50.74-53.92c-2.43-3.55-4.99-7.03-7.76-10.91c-5.34,2.36-10.83,4.42-16,7.12
		c-15.87,8.31-27.14,20.93-33.95,37.45c-1.59,3.99-2.82,8.12-3.69,12.33c-0.24,1.11,0.93,2.87,1.93,3.85
		c10.33,10.08,20.79,20.02,31.13,30.09c2.67,2.47,5.09,5.2,7.23,8.15c5.57,8.1,10.52,8.39,18.33,9.66L162.38,347.6z"/>
	<path class="st0" d="M232.65,488.22l-0.25,0.21c11.33-2.35,21.21,0.59,29.58,8.44c1.38,1.3,2.02,3.39,3.04,5.09
		c0.7,1.18,1.48,2.32,2.23,3.49l-0.06-0.04c4.42,14.57-4.93,23.53-13.41,33.7c0-6.3,0.66-11.92-0.15-17.33
		c-1.37-9.12-6.63-15.67-15.51-18.86c-1.14-0.3-2.33-0.32-3.47-0.06c-4.63,0.81-9.25,1.69-14.64,2.7L232.65,488.22z"/>
	<path class="st0" d="M279.56,406.04c0.3-0.92,0.3-2.26,0.94-2.72c7.08-5.15,14.21-10.24,21.46-15.13c1.33-0.71,2.89-0.86,4.34-0.42
		c5.86,1.93,11.63,4.17,17.43,6.3c6.87,1.32,9.71,6.4,11.68,12.38c0.65,1.57,1.42,3.09,2.3,4.54l-0.73,3.97l0.06-0.08l-1.69,0.81
		l-0.68,2.32l-0.16,0.17l-2.51,3.85h-6.74l-0.68-1.14c6.26-3.76,4.69-8.55,2.57-13.47c-0.69-1.62-0.96-3.41-1.8-4.91
		c-0.63-1.24-1.64-2.25-2.88-2.87c-5.14-1.98-10.37-3.74-15.6-5.46c-1.13-0.24-2.28-0.34-3.42-0.3c3.69,1.98,7.38,3.85,11.27,4.49
		c7.29,1.21,10.39,5.63,11.28,12.37l-1.62,0.27l-7.43-2.43c-0.22,1.14-0.41,2.19-0.62,3.24l10.73,4.21
		c-1.62,1.73-2.95,3.19-4.44,4.78c-8.1-3.24-15.95-6.65-24.01-9.54c-3.56-1.28-5.37-3.03-4.78-6.84l11.67,3.07l1.55-2.66l-8.91-3.74
		l2.15-4.78c-0.19-0.22-0.36-0.44-0.54-0.66l-4.05,3.89c-3.76-0.11-3.29,2.48-3.11,4.86c-0.15,1.42-0.28,2.84-0.45,4.49
		c-1.81-0.49-3.34-0.96-4.86-1.31c-2.58-0.57-5.19-1.06-7.78-1.62L279.56,406.04z M301.61,396.46h0.33v-1.21h-0.33V396.46z"/>
	<path class="st0" d="M95.12,294.96c-5.21-0.36-8.22-4.4-6.57-9.71c3.72-11.97,10.31-22.41,17.9-32.22
		c6.71-8.67,15.58-14.99,24.89-20.33c6.07-3.49,13.16-5.33,19.96-7.35c2.47-0.74,4.78,0.81,5.61,3.85c0.9,3.32-1.49,3.49-3.45,4.16
		c-18.17,6.23-33.14,17.06-45.46,31.67c-0.9,1.17-1.62,2.46-2.14,3.85C102.27,277.57,98.71,286.22,95.12,294.96z"/>
	<path class="st0" d="M240.68,548.42l5.67-5.63l5.91,0.77l2.16,0.88l-0.05-0.06l0.86,0.88l-0.06-0.05l1.71,0.81l-0.06-0.05l1.62,1.7
		l-0.06-0.06l2.49,1.67l-0.06-0.05l2.48,1.62l0,0l4.1,2.43h-0.04l1.62,1.67l0,0c6.59,4.76,13.19,9.51,19.79,14.24
		c0.11,0.08,0.57-0.31,0.86-0.48l0.81,0.81l2.89,1.62l-0.07-0.05l2.43,2.5l-0.06-0.05l2.49,1.62h-0.05l3.31,1.62l-0.09-0.06
		c0,0.42-0.24,0.99-0.06,1.22c0.44,0.53,0.99,0.95,1.62,1.22c11.77,5,14.9,14.57,13.66,26.91c-3.76,1.17-8.05,2.59-12.4,3.76
		c-0.81,0.21-2.06-0.41-2.83-1c-19.6-15.11-39.16-30.29-58.68-45.52c-1.03-0.94-1.66-2.23-1.76-3.62
		C240.57,555.97,240.7,552.2,240.68,548.42z M314.35,600.79c-0.39-6.82-1.02-12.05-7.29-16.19c-18.34-12.02-36.1-24.93-54.1-37.48
		c-1.18-0.81-2.43-1.55-3.72-2.36l-6.48,6.11L314.35,600.79z M243.19,554.95c-0.93,4.32,0.44,6.61,3.39,8.83
		c17.63,13.28,35.09,26.8,52.62,40.24c5.18,3.97,6.94,4,13,0L243.19,554.95z"/>
	<path class="st0" d="M286.01,207.76c-3.28-4.38-6.55-8.77-10.15-13.58c-0.36,1.09-0.53,1.66-0.72,2.22c-0.98,2.95-2.43,5.76-6,5.49
		c-3.92-0.28-5.17-3.46-5.72-6.79c-0.81-4.91,1.17-8.3,5.86-10.52c-4.02-8.32-8.04-16.66-12.06-25.02l-3.72,3.62
		c-0.26-3.29-0.19-6.67-0.96-9.84c-0.29-1.19-2.59-2.74-3.85-2.63c-1.25,0.11-2.91,1.95-3.3,3.33c-1.62,5.96,1.85,9.67,8.2,9.06
		c-1.72,2.95-4.57,3.35-7.29,1.04c-4.32-3.7-4.36-12.63-0.11-16.45c2.72-2.43,5.41-1.57,8.1,0.14c0.65-2.64-0.23-3.38-2.78-3.56
		c-26.27-1.84-47.85,8.1-65.65,26.72c-4.35,4.53-7.14,10.58-10.52,16.01c-1.27,2.04-0.68,3.8,1.08,5.67
		c9.71,10.07,17.62,21.42,22.73,34.46c3.04,7.74,5.27,15.79,7.81,23.73c0.27,1,0.01,2.07-0.68,2.85c-0.97-2.79-2.08-5.55-2.9-8.38
		c-3.93-13.51-9.42-26.31-17.69-37.75c-3.68-5.1-8.1-9.71-11.97-14.66c-0.97-1.23-1.28-2.98-1.89-4.49l-0.09,0.13
		c0.87-2.53,1.75-5.07,2.64-7.61l-0.06,0.06c2-2.08,3.89-4.27,5.67-6.54c8.79-12.29,20.6-20.93,34.11-27.02
		c10.29-4.64,21.56-5.49,32.82-5.39c2.69,0,5.38,0,8.34,0c0.42,2.12,0.81,3.93,1.13,5.76c2.83,16.86,11.27,31.14,20.89,44.83
		c3.32,4.74,7.11,9.15,10.48,13.86c0.75,1.05,3.87,2.15,0.81,4.15l1.51,1.77l-2.43,0.22l-1.72-1.01v-1.98
		C285.99,208.94,286.01,208.35,286.01,207.76z M267.01,189.14c-2.67,2.91-2.56,6.07-0.35,9.04c0.94,1.08,2.29,1.71,3.72,1.75
		c0.65,0,1.68-1.84,1.88-2.96c0.83-4.59-0.34-6.2-5.25-7.85V189.14z"/>
	<path class="st0" d="M347.49,271.73c-6.2-1.5-12.72-0.93-18.56,1.62c-1.62,0.86-3.27,1.71-4.94,2.57
		c-0.15-0.93-0.21-1.87-0.19-2.81c0.48-3.76,1.06-7.51,1.62-11.27c3-0.4,5.11,0.81,7.29,2.98c1.05,1.05,3.97,1.45,5.32,0.75
		c3.53-1.81,2.87-10.75-0.68-12.56c-0.56-0.33-1.22-0.45-1.85-0.34c-2.22,0.81-4.37,1.83-6.55,2.77c-0.06,0.18-0.06,0.38,0,0.56
		l-1.67-0.94l0.1-0.74l-0.15,0.7l-3.15-1.13v-0.81c0.55-0.81,1.57-1.62,1.55-2.38c0-2.11-0.69-4.23-0.69-6.35
		c0-1.2,0.58-3.28,1.28-3.46c3.71-0.94,4.24-3.55,4.05-7.07l7.89-1.9c-0.19-2.65-0.36-5.53-0.6-8.41
		c-0.44-5.22-0.91-10.44-1.38-15.67c-0.41-4.65-0.81-9.05-3.84-13.2c-2.27-3.11-1.76-7.37,0.92-11.02l1.31,2.23v-0.23
		c0.77,3.28,1.57,6.54,2.3,9.84c1.15,5.21,2.74,10.37,3.24,15.64c0.57,5.99,0.13,12.08,0.13,18.05c5.67,0.74,6.01,0.51,6.36-4.5
		c0.4-5.5,0.96-11,1-16.51c0.05-7.55,2.31-14.5,5.04-21.37c0.23-0.53,0.45-1.06,0.69-1.62l-0.41-0.2l-1.04,1.15l-1.77,0.38
		c0.32-1.41,0.59-2.55,0.86-3.7l-0.19,0.17l4.56-1.83l2.74,2.43c-9.1,14.99-5.62,32.21-9.25,47.97l8.3,2.08
		c0,0.52,0.06,1.04,0.09,1.55c-7.86,0-15.73-0.15-23.59,0c-0.94,0-1.85,1.62-2.68,2.43c8.45,0,16.19-0.21,23.88,0.12
		c2.5,0.11,5,1.55,7.39,2.59c2.4,1.04,2.28,3.62,1.35,5.17c-5.74,9.5-3.64,19.48-2.27,29.45l-6.56-1.52l-2.78-0.42L347.49,271.73z
		 M326.87,272.05l9.71-3.3l-9.12-5c-0.14,1.81-0.15,3.02-0.34,4.19c-0.19,1.17-0.56,2.32-0.81,3.48l-0.33,0.81L326.87,272.05z
		 M358.76,272.51l0.49,0.52c0-0.34,0.06-0.68,0.08-1.01c-2.43-9.97-2.37-19.69,3.39-29.34c-2.72-1.43-4.95-3.46-7.38-3.72
		c-9.75-1.2-19.65-0.05-28.88,3.34c0.23,1.74,0.46,3.24,0.62,4.66c0.16,1.42,0.27,2.91,0.49,5.27c2.25-0.28,4.39-0.28,6.36-0.81
		c4.05-1.15,7.46,0.99,8.18,5.27c0.87,4.17-0.44,8.5-3.46,11.5L358.76,272.51z"/>
	<path class="st0" d="M554.82,342.34l26.72-23.9c5.23-4.66,10.52-9.26,15.63-14.06c1.06-1.05,1.65-2.48,1.62-3.98
		c-1.56-12.01-5.03-23.59-12.37-33.26c-11.12-14.65-24.35-26.72-42.78-32.16c-6.14-1.81-9.59-1-13.92,3.78
		c-17.54,19.43-35.56,38.37-53.53,57.37c-3.88,3.93-7.97,7.64-12.24,11.14c-1.13,0.96-2.8,1.3-4.27,1.68
		c19.1-16.9,35-36.71,52.62-54.85c7.13-7.35,14.05-14.92,20.95-22.5c1.46-1.62,2.66-1.83,4.81-1.41
		c21.49,4.19,37.57,16.93,50.02,33.79c7.91,10.7,13.69,23.2,13.59,37.24c-0.08,1.4-0.68,2.71-1.67,3.7
		c-12.44,11.77-24.91,23.48-37.56,35.05c-1.83,1.68-4.61,2.31-6.96,3.42L554.82,342.34z"/>
	<path class="st0" d="M401.75,209.74l-1.42,1.19l-2.1-1.53c16.13-19.87,31.45-40.28,34.95-67.19c11.66-0.43,23.07-0.42,34.37,2.86
		c13.44,3.91,24.46,11.59,34.24,21.19c3.91,3.92,7.4,8.22,10.44,12.85c2.04,3.05,3.14,6.78,4.33,10.31c0.26,0.81-0.63,2.27-1.4,3.01
		c-9.37,8.98-16.19,19.88-21.98,31.24c-3.83,7.46-5.91,15.81-8.77,23.78c-0.63,2.14-1.63,4.15-2.95,5.94
		c-0.02-1.01,0.07-2.03,0.27-3.02c4.48-14.8,8.65-29.74,17.99-42.47c3.34-4.54,6.93-8.91,10.52-13.26
		c4.01-4.86,4.53-7.82,0.93-12.95c-9.16-13.14-20.66-23.59-35.35-30.44c-9.54-4.45-19.36-7.1-31.4-6.61l6.91,7.2h-6.23
		c0.51,2.43-4.95,5.3,1.27,8.58l-5.13,1.81l-3.37,8.66c5.03,1.62,5.89,4.76,2.5,8.95c-0.64,0.64-1.54,0.94-2.43,0.81
		c-3.2-0.81-4.7,0.64-5.67,3.44c-0.61,1.48-1.32,2.92-2.12,4.31c3.31,3.17,3.37,3.63,0.74,5.3l-3.24-4.63
		c1.2-2.24,2.48-4.44,3.55-6.75c0.28-0.59-0.14-1.48-0.18-2.23c-0.15-2.43-0.59-4.86-0.2-7.16c0.13-0.76,2.43-1.15,3.76-1.72
		c0.45-0.19,1.17-0.31,1.31-0.65c1.3-2.8,2.38-5.69,3.24-8.65c0.22-0.85-1.34-2.15-2.1-3.24c6.24-3.8,7.67-7.42,4.72-11.49
		l3.24-2.65h-10.42c-1.17,5.21-1.62,10.45-3.51,15.07c-7.05,16.9-15.38,33.13-27.73,46.96
		C402.56,207.39,402.26,208.66,401.75,209.74z M440.8,174.86c-5.95-3.24-7.78-2.71-8.72,2.5l6.98,1.62L440.8,174.86z"/>
	<path class="st0" d="M256.27,114.48l0.19,0.05L187.07,80.6l-0.67,0.69c2.78,2.61,5.67,5.09,8.27,7.9c1.4,1.57,2.47,3.4,3.16,5.39
		c2.68,7.77,5.14,15.62,7.69,23.48c-2.27,0.69-4.38-0.63-5.57-4.95c-1.31-4.24-2.21-8.6-2.69-13.01c-0.21-4.91-2.79-9.41-6.92-12.08
		l0.11,0.11l-18.3-16.73c-1.85,7.84-3.48,14.48-5.04,21.19c-5.17,22.42-10.24,44.85-15.59,67.19c-0.81,3.24-2.88,6.08-5.25,8.75
		c2.32-9.84,4.63-19.69,6.93-29.53c5.36-22.76,10.79-45.52,16.02-68.34c0.74-3.19,2.14-3.39,4.49-2.13
		c27.72,14.88,55.43,29.78,83.14,44.7c0.32,0.18,0.53,0.57,0.81,0.88L256.27,114.48z M186.28,79.96l-0.28-0.16v0.57
		c0.1-0.05,0.22-0.06,0.28-0.14C186.36,80.17,186.28,80.04,186.28,79.96z"/>
	<path class="st0" d="M470.36,503.15c-10.43-3.24-19.19-1.13-27.24,4.05c-8.74,5.67-10.87,14.48-10.48,24.49
		c-9.86-11.9-10.99-22.16-3.17-35.02c1.81-2.96,5.38-5.51,8.69-6.77c7.06-2.66,19.56-3.18,25.74,5.55
		C465.69,497.97,467.85,500.2,470.36,503.15z"/>
	<path class="st0" d="M351.49,415.7c1.14,3.24,1.14,3.24,0.06,8.18l0.05-0.16c-0.4,0.7-0.68,1.45-0.85,2.23
		c-0.33,7.29-0.57,14.52-0.86,21.78c-0.45,11.13-0.91,22.26-1.38,33.61h-5.87c-1.36-15.87-2.66-31.57-4.05-47.21
		c-0.32-3.51-1.05-6.97-1.62-10.46l-1.57-2.28c-0.3-1.06-0.59-2.12-0.89-3.18l0.16-0.17l2.32-2.34l0.05-0.81l-0.06,0.08l2.43-4.05
		l0,0l9.01-0.81l-0.06-0.1l0.85,1.74l-0.06-0.11c0.28,0.57,0.57,1.16,0.86,1.73l-0.07-0.1l1.69,2.5L351.49,415.7z"/>
	<path class="st0" d="M391.19,313.61l-5.11,5.16c-0.82-0.55-1.58-1.2-2.23-1.93c-4.38-6.19-9.56-6.4-15.58-2.43
		c-1.75,1.15-3.89,1.7-6.43,2.76c-1.83-6.36-3.61-12.58-5.39-18.8l11.39-5.67c2.47-0.96,4.89-2.05,7.23-3.29
		c2.36-1.4,4.18-1.07,5.96,0.81l2.15,0.87l-0.07-0.07l-0.05,0.92h0.92l-0.06-0.06l4.05,4.1l0,0l1.68,0.81l-0.06-0.05l5.67,4.91
		v-0.04l1.02,3.29l-0.24,0.76l0.05-0.06c-0.28,0.57-0.57,1.14-0.86,1.71l0.04-0.08c-0.28,0.57-0.56,1.14-0.81,1.72l0.07-0.11
		c-0.57,0.81-1.13,1.62-1.69,2.49l0.04-0.06l-1.66,2.47L391.19,313.61z"/>
	<path class="st0" d="M297.31,356.7c0.52,0.3,1.01,0.64,1.47,1.02c-4.92,9.76,1.23,17.81,4.17,26.72l-27.06,19.3
		c-0.73-8.21-1.41-15.88-2.1-23.65l-5.67-0.53l3.29-5.13l13.08-10.48c0.06-0.1,0.2-0.22,0.18-0.29c-0.07-0.19-0.15-0.37-0.26-0.54
		h-0.06l13.01-6.48L297.31,356.7z M291.64,383.37c0.24-3.33-2.27-6.23-5.6-6.47c-3.33-0.24-6.23,2.27-6.47,5.6
		c-0.24,3.33,2.27,6.23,5.6,6.47c0.09,0.01,0.19,0.01,0.28,0.01c3.25,0.16,6.01-2.35,6.17-5.61c0,0,0,0,0-0.01H291.64z"/>
	<path class="st0" d="M520.14,189.82c-14.08-31.41-45.54-54.24-86.08-50.19c-1.93-3.45-1.88-8.97,0.55-10.14
		c1.62-0.76,3.83-0.14,5.81,0.32c5.34-3.8,10.78-4.53,16.47-0.21c0.56,0.37,1.26,0.45,1.9,0.24c6.95-3.46,12.45,2.16,18.69,3.04
		c0.87,0.13,1.47,2.04,2.23,3.16c7.84-1.02,18.56,5.28,21.11,12.82c4.52-2.82,7.06,0.21,9.56,3.34s6.48,5.11,6.23,9.85
		c4.99,2.36,4.56,7.75,6.48,11.79c1.32,2.5,2.15,5.23,2.43,8.05C525.74,185.43,524.75,188.9,520.14,189.82z M496.02,154.35
		c1.41-2.86,4.5-5.83,1.15-8.31c-4.23-3.14-9.2-5.38-14.04-7.59c-0.81-0.38-2.95,1.03-3.81,2.13c-0.46,0.59,0.09,2.85,0.86,3.39
		c5.16,3.58,10.49,6.9,15.88,10.38H496.02z M497.83,155.97l11.04,12.22c5.61-5.55,5.9-9.65,0.65-13.98
		c-4.22-3.51-6.74-5.95-11.66,1.76L497.83,155.97z M457.66,138.07l16.57,3.34c3.58-5.17,3.06-6.63-2.83-8.27
		c-2.03-0.67-4.1-1.21-6.19-1.62c-1.84-0.27-4.67-0.76-5.45,0.18c-1.33,1.6-1.47,4.27-2.07,6.36L457.66,138.07z M510.52,170
		l9.27,13.43c3.51-3.69,2.37-12.09-2.84-18.31L510.52,170z M455.57,130.07c-3.62,0-7.12-0.36-10.48,0.19
		c-1.17,0.19-2.28,2.52-2.78,4.05c-0.21,0.66,1.12,2.49,1.98,2.66c3.07,0.64,6.23,0.81,9.11,1.12L455.57,130.07z M440,137.52
		c-0.7-2.57,1.19-5.95-2.94-6.48c-0.62-0.07-2.06,2.24-2.19,3.54C434.54,137.89,436.82,138.07,440,137.52z"/>
	<path class="st0" d="M353.08,494.21c-0.64,0.55-1.22,1.42-1.94,1.58c-1.45,0.19-2.92,0.27-4.38,0.23l-8.17,0.05
		c-0.38-0.53-1.16-1.13-1.06-1.55c0.38-1.38,0.85-2.74,1.42-4.05c0.08-0.61,0.16-1.21,0.25-1.81l-1.08,0.91l-2.38,3.8
		c-1.3-6.03-2.5-11.9-3.9-17.73c-0.24-0.99-1.33-1.76-2.02-2.65c0.06,0,0,0-0.09-0.2c0.25-0.54,0.87-1.33,0.7-1.62
		c-3.15-4.66-6.39-9.27-9.61-13.89l-4.22-4.33l-10.07-9.11c2.69-3.72,5.41-7.46,7.8-10.78l4.05,0.44l-0.09-0.04l1.72,0.85
		l-0.11-0.07l1.76,0.87l-0.12-0.1c0.28,0.45,0.57,0.89,0.87,1.34l0.23,0.27c0.51,1.06,1.12,2.1,1.52,3.24
		c4.81,13.12,9.56,26.25,14.39,39.36c0.6,1.47,1.29,2.9,2.06,4.28l8.1-0.67l4.42,11.45L353.08,494.21z"/>
	<path class="st0" d="M146.93,212.3c1.2,2.98,2.43,5.93,3.54,8.96c0.23,0.66-0.23,1.55-0.38,2.35c-0.64-0.44-1.62-0.75-1.85-1.34
		c-1.43-4.18-2.91-8.36-3.97-12.65c-0.92-3.72-2.5-5.8-6.78-5.81c-8.6,0-16.26,2.79-23.87,6.42c-18.13,8.63-28.47,24.72-38.53,40.79
		c-3.88,6.2-6.74,13.46-6.82,21.31c0,2.74,0.45,4.33,3.18,5.46c5.2,2.15,10.21,4.73,15.3,7.12l-0.07,1.21
		c-0.95,0-2.03,0.31-2.82-0.06c-5.75-2.66-11.41-5.44-17.49-8.39c0-6.61,0-13.34,0-20.07c-0.01-0.67,0.11-1.34,0.37-1.96
		c11-23.73,26.63-43.09,51.81-52.73c5.88-2.25,12.62-3.02,18.98-3.03c7.53,0,9.1,2.43,9.24,10.13L146.93,212.3z"/>
	<path class="st0" d="M214.5,465.77v-41.9c5.2,4.2,10.48,8.44,15.69,12.75c0.48,0.61,0.74,1.35,0.76,2.12
		c0.15,1.06,0.07,2.15,0.12,3.24c0.21,5.25,1.84,10.97,0.25,15.61c-1.51,4.44-6.88,7.4-9.59,11.63c-2.95,4.63-4.8,9.97-6.88,14.43
		c0-0.46-0.1-1.79-0.17-3.12L214.5,465.77z"/>
	<path class="st0" d="M244.23,349.32l0.06,0.12c0.19-0.45,0.65-1.02,0.51-1.32c-2.43-5.53-2.24-6.6,2.43-10.39l8.44-6.89l-1.11-0.49
		c0.71-2.46,1.57-4.88,2.57-7.23c0.96-1.96,2.49-3.63,3.77-5.43l-0.06,0.05l0.89,0.11c10.26-9.64,20.67-19.1,33.48-25.35
		c4.14-2.02,8.42-3.72,12.64-5.55l5.59,0.26c0.41,2.24,0.85,4.66,1.3,7.07l-5.28-2.5l-1.62,0.13l0.11-0.06l-1.73,0.85l0.09-0.07
		c-0.56,0.57-1.12,1.14-1.67,1.72l0.06-0.06c-0.81,0.16-1.83,0.11-2.5,0.53c-2.89,1.85-5.61,3.98-8.56,5.74
		c-2.12,1.11-4.31,2.1-6.56,2.95l-2.21,2.06l0.66,0.71l2.53-1.87l2.02-1.2l4.05,3.24h-0.1c0.22,0.98,0.21,2.1,0.7,2.91
		c3.53,5.85,7.16,11.64,10.96,17.81l-2.82,1.17h-2.36c0.33-1.02,1.25-2.38,0.9-3c-3.66-6.37-7.53-12.61-11.4-18.99
		c-14.42,11.66-28.43,23.02-42.51,34.32c-2.37,1.89-2.9,3.69-0.76,6.02c0.63,0.7,1.17,1.47,1.75,2.22l-1.43,1.35L244.23,349.32z
		 M267.8,319.57l-0.59,1.23l1.14-0.45l0.91-0.71l1.99-1.51c0.08-0.38,0.15-0.76,0.23-1.14l-1.07,0.57l-1.85,1.43L267.8,319.57z
		 M260.77,325.72l-0.72,0.61l1.21-0.11l0.85-0.62l1.32-1.26l0.89-0.73l1.95-1.41c0.11-0.37,0.23-0.74,0.36-1.13l-1.04,0.56
		l-1.81,1.43l-0.86,0.61l-1.3,1.29L260.77,325.72z M284.44,307.24v-0.87l-0.87,0.09l-2.06,1.62l-5.18,4.35l-1.1,1.04l-2.82,2.3
		c-0.07,0.39-0.14,0.77-0.21,1.15l1.11-0.54l2.87-2.2l1.15-1.07l4.91-3.97L284.44,307.24z"/>
	<path class="st0" d="M484.31,374.45c6.2-2.04,12.5-3.8,18.57-6.16c22.72-8.84,46.15-15.38,69.62-21.86
		c1.07-0.32,2.21-0.25,3.24,0.18c-11.96,4.27-23.9,8.62-35.89,12.82c-37.69,13.2-74.84,27.78-111.45,43.76
		c-3.32,1.44-3.34,1.4-5.44-1.18c1.26-0.61,2.43-1.2,3.6-1.72c14.29-6.23,28.57-12.48,42.86-18.73c1.27-0.68,2.49-1.46,3.63-2.34
		H473l5.72-2.43h-0.06l3.29-1.66h-0.06l2.53-0.81L484.31,374.45z"/>
	<path class="st0" d="M471.3,425.42l3.05-0.93v7.4v22.91l-0.05,26.21l-1.32,0.26c-1.99-7.51-5.78-13.82-12.14-18.5
		c-0.98-0.73-2.2-1.98-2.23-3.02c-0.18-8.59-0.1-17.18-0.1-25.95l5.67-0.53v-3.64l0.81,0.81l6.36-5.08L471.3,425.42z"/>
	<path class="st0" d="M505.42,130.8c0.1-1.62-0.15-3.32,0.34-4.79c4.62-14.05,9.38-28.05,14.06-42.1c0.5-1.49,0.81-3.04,1.35-5.16
		c-1.62,0.53-2.75,0.81-3.8,1.22c-26.31,10.57-52.62,21.14-78.93,31.71c-2.32,0.88-4.82,1.18-7.29,0.88l91.09-37.75
		c2.92,14.57,5.81,28.93,8.68,43.3c3.16,15.84,6.28,31.68,9.37,47.52c0.08,0.43-0.62,1.01-0.96,1.53l0.06,0.07l-0.87-1.75l0.08,0.11
		l-0.91-0.88l0.05,0.07c0.18-0.55,0.28-1.13,0.27-1.71c-2.25-11.33-4.51-22.67-6.81-34c-3-14.76-6.02-29.51-9.23-45.22
		c-0.66,1.79-1.01,2.62-1.28,3.48c-4.26,13.57-8.47,27.15-12.82,40.7c-0.34,1.05-1.68,1.79-2.56,2.67L505.42,130.8z"/>
	<path class="st0" d="M446.04,617.84c-10.31,8.03-20.66,16-30.87,24.14c-2.36,1.88-4.49,2.79-7.63,2.25
		c-5.55-0.96-11.2-1.3-17.81-2.02l76.38-58.36c-0.38,6.53-0.61,12.34-1.15,18.13c-0.08,0.91-1.47,1.81-2.43,2.55
		c-4.62,3.7-9.29,7.35-13.91,11c3.88,9.79-5.43,18.99-20.06,18.56c2.06-1.16,3.08-2.11,4.23-2.32c7.6-1.37,12.91-5.07,14.1-13.21
		l1.08-1.17l0.73-0.94l-1.17,0.12L446.04,617.84z M462.47,589.75c-1.05,0.56-2.06,1.18-3.04,1.85
		c-20.18,15.51-40.35,31.04-60.52,46.58c-0.87,0.67-1.7,1.42-2.95,2.49c3.71,0.31,6.8,0.41,9.84,0.81c3.29,0.47,5.81-0.54,8.43-2.62
		c14.12-11.24,28.13-22.67,42.75-33.19c6.25-4.53,6-9.9,5.43-16.03l0.52,0.1v-0.33L462.47,589.75z"/>
	<path class="st0" d="M290.44,569.54l-0.81-0.81c-0.21-0.4-0.32-0.96-0.66-1.18c-6-4.17-12.03-8.31-18.08-12.41
		c-0.47-0.31-1.27-0.12-1.91-0.17l0,0l-1.62-1.67h0.04l-4.1-2.43l0,0l-2.48-1.62l0.06,0.05l-2.49-1.67l0.06,0.06l-1.62-1.7
		l0.06,0.05l-1.71-0.81l0.06,0.05l-0.86-0.88l0.05,0.06l-0.6-1.52c5.03-1.09,10.03-2.31,15.09-3.19c1.35-0.23,2.91,0.42,4.31,0.87
		c1.89,0.62,3.71,1.44,5.55,2.17l0,0c-0.06,0.4-0.28,1.06-0.13,1.17c3.42,2.28,6.87,4.5,10.35,6.68c0.19,0.11,0.73-0.36,1.11-0.56
		l0,0l1.62,1.66l-0.05-0.05l2.48,1.67l-0.08-0.05l3.72,1.62l1.17,0.36l1.67,2.09l-0.05-0.06l2.48,1.66l-0.06-0.04l2.49,1.68v-0.05
		l0.69,0.92l21.58,13.82c0.5,3.03,1.01,6.05,1.56,9.35c-6.87,1.62-13.12,3.34-18.95-2.28c-2.49-2.43-5.97-3.77-8.99-5.62l0.09,0.06
		l-3.31-1.62h0.05c-0.15-0.54-0.15-1.39-0.49-1.55c-0.65-0.16-1.33-0.2-2-0.11l0.06,0.06c-0.81-0.81-1.62-1.68-2.43-2.51l0.07,0.05
		L290.44,569.54z M325.45,579.77l0.36-0.69L325.45,579.77c-0.45-1.38-0.48-3.44-1.44-4.04c-17.04-11.07-34.2-21.98-51.36-32.87
		c-0.74-0.48-1.85-0.4-2.78-0.59l-0.37,1.06c1.18,0.81,2.34,1.62,3.54,2.37c13.46,8.68,26.93,17.35,40.41,26.02
		C317.49,574.32,321.45,577.11,325.45,579.77z M323.35,582.45c-1.05-0.81-1.94-1.51-2.9-2.16c-17.07-11.5-34.21-22.92-51.2-34.57
		c-3.1-2.12-5.84-2.62-9.46-0.87c1.88,1.31,3.51,2.43,5.15,3.59c15.66,10.73,31.36,21.4,46.96,32.25
		C315.38,583.13,318.64,585.1,323.35,582.45z"/>
	<path class="st0" d="M488.52,458.35l-9.31,3.47c4.05-11.18,8.14-21.91,11.79-32.78c1.34-4.05,3.45-6.58,7.36-8.17
		c4.44-1.81,8.68-4.15,13.98-6.74c-0.29,1.44-0.67,2.87-1.15,4.26c-5.12,11.51-10.07,23.11-15.62,34.41
		c-1.21,2.43-4.67,3.79-7.1,5.67L488.52,458.35z"/>
	<path class="st0" d="M361.47,373.56c0.3-1.09,0.5-2.22,0.91-3.24c1.62-4.2,3.65-8.27,4.76-12.6c0.74-2.85,0.15-6.05,0.15-9.91
		c1.72,0.39,4.25,0.66,6.53,1.56c2.57,1.14,5.05,2.48,7.42,3.99c3.24,1.88,6.61,2.95,7.65,7.75c1.29,5.93-1.31,10.46-3.49,15.17
		c-0.51,1.11-3.56,1.05-5.45,1.53c-5.42,1.66-10.08-0.66-14.77-2.84C363.97,374.39,362.7,374.02,361.47,373.56z"/>
	<path class="st0" d="M309.45,291.77l5.28,2.5l5.28,2.52l-0.07-0.07l1.7,0.85l-0.09-0.05l1.71,0.86l-0.09-0.06l1.72,0.87l-0.1-0.07
		l0.87,0.89h-0.06c0.43,1.47,1.38,3.01,1.18,4.4c-0.54,3.82-1.57,7.58-2.52,11.88c-3.16-1.48-6.03-3.06-9.09-4.15
		c-1.36-0.4-2.83-0.21-4.05,0.53c-2.69,1.98-5.06,4.38-7.67,6.72l-9.4-12.95h0.1c-0.99-2.04-0.37-3.34,1.49-4.69
		c3.17-2.28,6.05-4.95,9.04-7.45l-0.06,0.06c0.55-0.57,1.11-1.14,1.67-1.72l-0.09,0.07l1.73-0.85l-0.11,0.06L309.45,291.77z"/>
	<path class="st0" d="M488.46,458.45c10.23,1.37,17.12,7.99,24.13,15.38c-5.55,0.58-10.86,0.64-15.92,1.82
		c-5.52,1.3-9.2,5.29-11.08,10.52l-9.64-4.4c0-4.19-0.12-9.17,0.09-14.14c0.25-1.21,1.01-2.25,2.07-2.87c2.9-1.68,6-3,8.95-4.58
		c0.62-0.33,0.97-1.18,1.44-1.81L488.46,458.45z"/>
	<path class="st0" d="M536.06,429.61c1.17,2.43,2.32,4.81,3.68,7.63l-13.12,6.33l-17.49-43.19c4.05-1.89,8.01-3.75,12.01-5.53
		c0.25-0.11,0.81,0.48,1.24,0.74l2.48,4.75l1.67,0.81l-0.07-0.08l0.81,1.72l-0.09-0.09c0,2.19,0,4.38,0,6.57l0.06-0.04l-1.42-0.29
		l0.42,2l1,0.74l-0.04-0.06c-0.08,0.41-0.36,0.94-0.21,1.23C530.02,418.44,533.05,424.02,536.06,429.61z M525.16,406.45l-3.93-8.57
		l-9.08,4.55l4.78,9.59L525.16,406.45z"/>
	<path class="st0" d="M233.68,258.33c-0.15-3.07-2.18-2.88-4.38-2.65c-3.55,0.49-7.12,0.77-10.7,0.81c-2.8-0.06-3.8-1.76-2.87-4.72
		c5.33-16.71,17.28-26.85,33.19-32.47c6.87-2.43,14.38-3.18,21.66-4.32c5.18-0.81,10.1,0.49,14.57,3.24
		c0.12,0.07,0.55-0.36,0.81-0.56c0.37,0.55,1.21,1.35,1.06,1.62c-1.2,2.18-2.52,4.29-3.96,6.32c-0.13,0.19-1.19-0.26-1.81-0.42
		l2.49-3.89c-4.49-4.36-6.97-4.26-9.8,0.1l-1.13-1.28c-0.36-0.81-0.81-2.24-1.04-2.2c-4.05,0.81-8.51,1.05-12.02,2.97
		c-1.43,0.81-0.88,5.19-1.25,8.1l9.63-1.2l-0.05,1.96l-11.71,1.34v-11.1l-17.96,8.06c2.32,2.7,4.13,4.81,5.96,6.95
		c1.53-0.89,3.12-1.68,4.76-2.36c1.46-0.38,2.95-0.63,4.46-0.75c-5.74,4.77-11.47,9.55-17.25,14.26c-0.22,0.18-0.95-0.28-1.43-0.45
		c2.18-3.24,4.35-6.48,6.57-9.78l-6.78-6.88l-12.86,15.53l13.1,1.1c-0.44,1.51-0.96,2.99-1.28,4.52c-0.28,1.33-0.34,2.7-0.49,4.05
		c4.05-4.32,7.58-8.18,11.23-11.93c0.28-0.28,1.32,0.2,2.01,0.32c-1.76,2.12-3.46,4.3-5.31,6.35c-2.51,2.78-4.56,5.67-3.72,9.71
		L233.68,258.33z M221.53,246.31c-0.51,1.08-0.88,1.79-1.19,2.52c-1.87,4.35-0.81,5.86,3.89,5.67c2.12-0.09,4.23-0.37,6.21-0.56
		c0.47-2.32,0.88-4.34,1.3-6.44L221.53,246.31z"/>
	<path class="st0" d="M382.7,600.23l0.81-0.81c1.08-0.29,2.33-0.32,3.24-0.91c7.15-4.77,14.23-9.64,21.34-14.48l0.95,0.87
		l-29.87,21.41l0.45,0.92c1.43-0.51,3.08-0.71,4.27-1.56c17.85-12.92,35.66-25.87,53.43-38.86c1.25-0.9,2.56-1.74,3.73-2.74
		c0.16-0.14-0.28-1-0.45-1.52c0-0.32,0-0.63,0-0.95l1.62-1.82l-0.06,0.06l0.85-0.86l-0.07,0.07l2.85,4.16h10.52l-77.72,59.16
		c1.12-4.77,2.02-8.61,2.96-12.63l-8.1-1.22c0.58-1.26,1.09-2.36,1.62-3.45v0.06c0.67,0.11,1.35,0.09,2.01-0.06
		c0.32-0.15,0.31-1.02,0.45-1.57l0,0c0.56,0.07,1.35,0.4,1.62,0.15c0.45-0.38,0.55-1.17,0.81-1.78l0,0L382.7,600.23z M383.39,615.91
		c0.48-0.22,0.94-0.47,1.38-0.75c20.82-15.96,41.63-31.93,62.45-47.89c1.09-0.72,2.22-1.38,3.38-1.97
		c-5.21-1.07-8.14,0.06-11.15,2.32c-16.69,12.48-33.47,24.89-50.41,37.03c-4.05,2.88-6.04,6.18-6.03,10.94l-0.45,0.5L383.39,615.91z
		"/>
	<path class="st0" d="M327.12,554.45c1.62-5.4,3.04-10.52,4.76-15.61c0.61-1.04,1.68-1.73,2.88-1.85
		c6.59-0.17,13.19-0.09,20.34-0.09c1.39,5.37,2.92,11.33,4.54,17.54L327.12,554.45z"/>
	<path class="st0" d="M360.06,232.86c-1.02-4.86,0.07-8.84,4.2-11.63c2.79-1.89,5.62-3.71,8.35-5.67
		c8.28-5.92,14.05-13.36,13.67-24.12c-0.24-6.78,2.16-14.08-1.86-20.17c-4.23-6.22-8.95-12.08-14.14-17.53
		c-4.54-4.91-9.88-9.06-14.7-13.76c-3.51-3.4-4.49-7.8-4.21-12.6c0.15-2.27,0.04-4.56-0.32-6.81c-0.16-0.89-1.43-1.58-2.19-2.36
		c-0.71,0.88-1.88,1.7-2.02,2.66c-0.2,1.6-0.05,3.23,0.43,4.77c1.76,5.78-0.32,10.48-4.5,14.06c-4.9,4.18-10.26,7.83-15.5,11.57
		c-4.9,3.5-19.08,16.85-19.08,16.85h-1.53c0,0,12.34-13.93,16.32-16.73c4.5-3.17,9.5-5.67,13.99-8.83
		c4.49-3.17,8.36-6.89,8.17-13.05c0.01-1.07-0.12-2.14-0.39-3.17c-1.47-4.61-0.11-8.14,3.87-10.82c4.27,0.9,4.98,4.22,4.7,7.64
		c-0.81,10.04,4.05,16.92,11.38,23.04c6.6,5.51,13.16,11.27,18.62,17.81c4.39,5.25,6.06,12.25,6.27,19.24
		c0.5,16.71-5.33,30.01-21.11,37.53C363.29,223.33,361.31,227.72,360.06,232.86z"/>
	<path class="st0" d="M371.01,433.55c2.14,2.1,4.3,4.18,6.39,6.31c1.13,1.15,2.15,2.43,3.34,3.76c-2.26,1.89-4.53,3.69-6.71,5.61
		c-9.37,8.27-12.5,19.78-15.88,31.1c-1.19,3.98-1.86,8.1-2.97,12.14c-0.19,0.71-1.38,1.16-2.1,1.73l0.11,0.08
		c0.04-0.81,0.32-1.67,0.06-2.35c-2.02-5.31-2.9-10.65-0.63-16.11c0.28-0.81,0.54-1.62,0.81-2.43c2.93-9.2,5.8-18.43,8.81-27.61
		c1.38-4.19,1.85-8.97,6.37-11.44h-0.07l2.53-0.87L371.01,433.55z"/>
	<path class="st0" d="M213.4,480.61v3.16l-8.57,3.68l-1.5-2.09c-2.88-4.57-6.48-8.25-12.05-9.37l-12.56-1.13
		c2.19-5.67,7.07-8.65,12.14-10.93c3.42-1.54,7.37-1.89,11.07-2.77l-0.08-0.06l11.19,4.86L213.4,480.61z"/>
	<path class="st0" d="M155.69,436.77c-2.92-3.16-2.61-6.97-1.7-10.63c0.34-1.38,2.11-2.39,3.24-3.57c0.78,0.92,1.45,1.94,1.98,3.03
		c0.7,2.3,2.53,4.09,4.86,4.71c15.96,5.17,31.86,10.52,47.98,15.92v7.29c-10.58-3.24-21.1-6.48-31.62-9.67
		c-1.24-0.31-2.51-0.54-3.78-0.69h0.07l-3.33-0.81h0.07l-13.05-4.05L155.69,436.77z"/>
	<path class="st0" d="M215.9,582.5l73.67,57.72C255.41,645.64,217.47,616.52,215.9,582.5z M281.54,637.06l-62.86-49.54
		C225.09,618.54,253.23,637.35,281.54,637.06L281.54,637.06z"/>
	<path class="st0" d="M463.12,181.54c0.52,1.86,0.9,3.75,1.14,5.67c0.33,5.72,0.45,11.46,0.64,17.18c-5.5,0.23-11.01,0.71-16.5,0.54
		c-1.37,0-3.61-2-3.84-3.35c-0.7-4.79-1.11-9.62-1.25-14.46c-0.15-2.89,2.02-3.42,4.3-3.68c5.21-0.6,10.4-1.24,15.62-1.85
		L463.12,181.54z"/>
	<path class="st0" d="M324.82,393.15l-18.62-7.38l-0.35-1.32c7.21-2.87,14.41-5.8,21.68-8.53c1.09-0.41,2.54,0.12,3.82,0.21
		l-0.05-0.11l2.96,0.81l-0.1-0.06c1.06,0.84,2.07,1.75,3.01,2.72c0.93,1.08,2.28,2.35,2.3,3.55c0.13,9.28,0,18.56-0.08,27.83l0,0
		l-0.85-0.81c-1.22-2.78-2.79-5.46-3.59-8.36C333.49,396.39,329.84,394.05,324.82,393.15z M325.85,378.88
		c-1.2,1.98-2.53,3.24-2.36,4.18c0.17,0.94,1.85,2.51,2.78,2.43s2.43-1.74,2.43-2.78S327.25,380.7,325.85,378.88z"/>
	<path class="st0" d="M417.07,373.62l4.24,3.51c-6.67,0.62-5.49,5.56-5.95,9.64c-0.53,4.75-1.08,9.5-1.53,13.52
		c-2.31-4.72-4.84-9.91-7.6-15.59c1.93-2,3.13-5.23,0.88-8.61c-0.81-1.21-3.4-2.63-4.16-2.19c-2.08,1.21-3.62,3.34-5.81,5.56
		l-8.72-3.04c1.51-6.12,5.32-12.22,0.07-19.43l15.69,8.62v-0.06l2.43,1.62l0,0l3.7,2.43l-0.07-0.05l2.13,0.81h-0.1l2.15,0.81h-0.07
		l2.06,1.62l-0.06-0.07l0.88,0.91L417.07,373.62z"/>
	<path class="st0" d="M330.99,311.72l-4.9,3.2l5.36-21l9.63,1.24l-0.1-0.06l2.43,0.9c2.26-0.13,4.59,0.06,6.74-0.49
		c1.75-0.45,2.99-0.81,3.72,1.21c1.7,5.93,3.55,11.81,5,17.81c0.4,1.86,0.15,3.79-0.7,5.49c-2.53,4.57-5.47,8.91-8.28,13.35
		c-1.72,2.69-3.01,5.43-7.1,5.79c-3.07,0.27-5.92,2.43-8.97,3.42c-4.78,1.62-9.65,2.91-15.28,4.59c0.01-1.24,0.1-2.47,0.27-3.7
		c1.76-7.16,3.04-14.52,5.59-21.4c1.34-3.63,4.93-6.42,7.5-9.59l0.56-0.56c0.44-0.46,0.87-0.93,1.32-1.39l0.75-0.7l-1.22,0.08
		l-1.37,1.21L330.99,311.72z M321.65,342.7c2.39-0.12,4.15,0.06,5.76-0.33c12.2-2.88,21.66-9.38,27.27-20.91
		c0.52-1.08,1.51-1.93,2.01-3c0.5-0.9,0.7-1.93,0.57-2.95c-1.62-6.05-3.46-12.05-4.86-16.9l-19.28-1.55
		c-0.81,3.48-1.81,7.49-3,12.34l8.77-5.72l3.08,3.56c-4.44,4.19-8.78,8.2-12.99,12.36c-1.14,1.1-1.99,2.46-2.48,3.97
		C324.87,329.51,323.42,335.52,321.65,342.7L321.65,342.7z"/>
	<path class="st0" d="M464.95,205.33c7.5-0.81,15.01-1.68,22.52-2.43c0.51-0.05,1.08,0.59,1.62,0.91c0.06,4.57,0,9.12,0.23,13.68
		c0.14,2.98-1.06,4.46-4.05,4.8c-3.99,0.45-7.98,0.98-11.94,1.62c-3.54,0.57-5.38-1.31-6.02-4.33
		C466.35,214.87,465.74,210.08,464.95,205.33z"/>
	<path class="st0" d="M283.55,606.87c-0.72-1.08-1.21-2.43-2.19-3.24c-16.05-12.26-32.13-24.48-48.24-36.67
		c-2.12-1.62-4.2-3.24-7.06-5.5c6.69,0.54,12.03,0.81,17.13,4.86c18.05,14.49,36.43,28.55,54.97,42.45
		c4.2,3.16,5.81,6.96,6.53,12.47c-5.29-4.05-10.05-7.67-14.9-11.21c-0.81-0.59-2.04-0.6-3.08-0.87h0.06
		c0.06-2.34-1.07-3.08-3.24-2.43L283.55,606.87z M300.55,615.89c-1.04-3.87-62.13-51-66-51L300.55,615.89z"/>
	<path class="st0" d="M328.95,528.27c-0.54-2.43,0.61-3.79,2.58-5.12c2.78-1.88,5.28-4.19,7.9-6.32v0.12l0.88-0.9l-0.09,0.06
		l1.73-0.81l-0.15,0.06c1.13,0.15,2.43-0.05,3.35,0.49c4.68,2.84,9.25,5.87,13.58,8.65c-0.57,2.62-1.07,4.91-1.56,7.2l0.08-0.09
		c-2.64,3.93-6.68,3.18-10.52,3.17c-4.86,0-9.71,0-14.48,0l-2.61-3.24l0.11,0.07l-0.81-3.36L328.95,528.27z"/>
	<path class="st0" d="M423.58,479.73c3.24-1.14,6.35-2.79,9.66-3.31c7.38-1.16,11.85,2.91,14.91,9.81
		c-13.16,0.48-22.32,6.02-24.58,19.81c-6.68-4.86-7.66-16.86-1.94-23.58c0.73-0.87,1.33-1.85,1.98-2.77L423.58,479.73z"/>
	<path class="st0" d="M282.81,416.58c-4.2-2.02-5.42-5.67-5.08-10.2l1.84-0.33l-0.1-0.07c0.91,0.62,1.87,1.16,2.87,1.62
		c9.52,3.55,19.07,7.04,28.61,10.56c5.73,2.12,11.46,4.27,17.74,6.61l-9.85,4.05c-2.29-0.14-4.77,0.24-6.82-0.52
		c-5.27-1.93-10.33-4.44-15.53-6.57c-2.63-1.08-5.39-1.87-8.1-2.79h0.06l-5.73-2.43L282.81,416.58z"/>
	<path class="st0" d="M447.92,472.84l1.71,1.46c2.02,3.61,4.05,7.22,6.29,11.23c-4.36,0.92-6.23-0.65-7.55-3.24
		c-4.86-9.63-16.08-8.74-23.17-5.27c-0.81,0.38-1.09,1.76-1.62,2.67v-0.04c-1.99,1.4-4.86,2.36-5.8,4.27
		c-2.93,5.73-2.7,11.76,0,17.74c1.51,3.35,4.86,6.31,2.93,10.69c-6.75-5.32-10.82-16.6-8.39-24.69c0.71-2.37,1.08-4.86,1.62-7.29
		l-0.07,0.05c1.38-1.45,2.8-2.87,4.16-4.35c3.9-4.22,8.18-7.63,14.31-7.87C438.1,468.04,443.07,470.18,447.92,472.84z"/>
	<path class="st0" d="M463.12,181.54h0.11c0.34-5.08,0.81-10.14,1-15.21c0.11-3.65,1.29-5.34,5.33-5.72
		c13.63-1.33,11.8-0.81,14.06,10.86c0.57,2.88,1.24,5.75,1.86,8.62L463.12,181.54z"/>
	<path class="st0" d="M266.54,480.44c0.22,0.89,0.56,1.74,1.02,2.53c5.07,6.48,4.27,13.66,2.36,20.95c-0.4,1.55-1.12,2.23-2.7,1.5
		h0.06c0.14-4.9-2.28-8.45-5.85-11.5c-5.34-4.58-11.33-7.59-18.5-7.8c1.62-6.48,5.67-9.64,12.14-9.71c1.43,0,2.87,0,4.31,0h-0.14
		l2.55,0.81l-0.11-0.06l1.72,0.87l-0.1-0.07l0.87,0.9l-0.06-0.05l1.72,0.81l-0.11-0.08l-0.05,0.94h0.93L266.54,480.44z"/>
	<path class="st0" d="M625.51,276.59c-0.37-3.51-1.23-7.06-1.03-10.52c0.87-15.07,2.01-30.14,3.16-45.2
		c0.32-2.56,0.78-5.11,1.38-7.63c-21-2.2-42.75,3.61-62.73-6.91c21.4,5.6,43.34,2.67,64.34,4.05c-1.3,22.18-2.59,44.18-3.89,66.18
		L625.51,276.59z"/>
	<path class="st0" d="M382.4,289.44c10.73,0.81,19.82,5.83,27.92,12.24c7.56,5.98,14.43,12.88,21.19,19.79
		c1.81,1.85,2.14,5.16,3.13,7.76l-3.36,1.42c-0.14-0.08-0.28-0.19-0.39-0.31c1.72-3.53-1.9-3.24-3.24-4.52l0.04,0.04l-7.33-5.67l0,0
		c0-0.3,0.04-0.61,0.06-0.91l-0.91,0.06l0,0l-1.62-2.43l-8.91-7.38l0.05,0.05l-1.73-0.81l0.11,0.07l0.05-0.93h-0.94l0.08,0.08
		l-0.88-0.89l0.07,0.07c0.07-0.1,0.21-0.21,0.19-0.29c-0.07-0.19-0.15-0.37-0.25-0.53l-3.24-2.48l0,0l-1.7-0.81l0.09,0.07
		c0-0.31,0-0.62,0.04-0.92h-0.91l0.06,0.05c-0.41-0.36-0.81-0.99-1.24-1.01c-1.24-0.01-2.48,0.06-3.71,0.2v0.04l-5.67-4.91
		l0.06,0.05l-1.68-0.81l0,0l-4.05-4.1l0.06,0.06l-0.87-0.89l0.07,0.07C382.91,290.53,382.65,289.98,382.4,289.44z"/>
	<path class="st0" d="M356.46,376.05l4-1.93l11.2,5.46c-5.67,2.89-10.58,6.23-13.46,11.85l-1,2.43l0.13-0.06
		c-1.42,3.68-3.17,7.29-4.13,11.07c-0.63,2.5,0,5.3-0.19,7.95c-0.08,1-0.98,1.93-1.51,2.88l0.1,0.04l-1.69-2.5l0.07,0.1
		c-0.29-0.57-0.57-1.16-0.86-1.73l0.06,0.11l-0.85-1.74l0.06,0.1c-0.28-0.55-0.56-1.1-0.81-1.62c0-6.82,0.19-13.65-0.16-20.44
		c-0.22-4.26,0.28-7.45,5-8.83C353.91,378.7,355.1,377.15,356.46,376.05z"/>
	<path class="st0" d="M493.43,517.16c-0.64-3.24-2.66-4.53-7.37-4.74c2.35-3.94,6.13-5.4,9.62-3.06
		c10.52,7.06,17.28,16.69,18.71,29.57c0.12,1.07,0.1,2.15,0.17,3.24c0.55,8.5,0.21,8.99-8.52,11.99
		c4.57-13.29-0.57-24.19-8.18-34.39c-0.96-1.3-2.95-1.82-4.45-2.69C493.42,517.1,493.42,517.13,493.43,517.16z"/>
	<path class="st0" d="M155.69,436.77l4.76,1.62l8.46,3.67c0.92,2.3,1.56,3.89,2.19,5.48l1.26,0.11l-1.04-1.17
		c-0.81-2.16-0.23-3.59,2.17-4.05h-0.07l3.33,0.81h-0.07c0.25,1.1,0.51,2.2,0.76,3.3l-2.19,1.62l0.87,1.21l3.1-2.57l-0.13-0.32
		l1.86-0.52l-0.61,3.19l0.5,0.66l6.33,0.69l2.5-0.71c0.11,1.26-0.27,2.95,0.4,3.7c2.15,2.36,5.67,1.34,7.78-2
		c0.57,0.56,1.46,1.03,1.62,1.69c0.88,3.38,3.34,4.74,6.48,3.42c5.29-2.23,6.32-1.62,6.82,4.05c0.09,0.91,0.11,1.85,0.17,3.07
		l-11.08-2.48l0.09,0.06c-1.03-0.66-2.11-1.23-3.24-1.7c-13.53-4.36-27.07-8.67-40.61-12.95c-3.46-1.16-5.33-4.91-4.16-8.38
		c0.14-0.41,0.32-0.81,0.54-1.19C154.65,436.7,155.28,436.81,155.69,436.77z"/>
	<path class="st0" d="M498.2,453.57l15.52-34.81c3.66,7.93,7.05,15.27,10.61,23L498.2,453.57z"/>
	<path class="st0" d="M489.21,201.94c-0.91-7.28-1.82-14.57-2.73-21.86c4.66-0.59,9.31-1.34,14-1.62c0.69-0.05,2.16,2.06,2.17,3.18
		c0.18,4.7-0.08,9.4-0.75,14.05c-0.32,1.78-2.58,3.78-4.44,4.59C494.95,201.41,491.98,201.47,489.21,201.94z"/>
	<path class="st0" d="M493.29,493.38c-0.62,2.56-1.24,5.12-1.81,7.54c-5.02-3.72-4.7-9.25-3.24-14.91s5.97-8.35,11.33-9.46
		c2.48-0.5,5.09-0.29,7.63-0.49c7.04-0.52,14.83,4.68,16.81,11.33c0.61,2.05,1.03,4.19-1.73,5.19l0.05,0.06
		c0.18-0.17,0.54-0.4,0.51-0.49c-1.9-5.17-5.62-8.49-10.96-9.43c-5.67-1.01-11.43-1.19-15.49,4.23l0.09-0.07l-0.91,0.9l0.08-0.11
		l-0.85,1.74l0.06-0.1l-1.62,4.14L493.29,493.38z"/>
	<path class="st0" d="M259.35,476.45c-8.75-4.38-16.19-0.81-18.39,9.08l-5.38-0.4c2.08-6.85,9.46-14.57,17.88-13.81
		c9.71,0.86,20.08,3.89,23.24,15.28c2.57,9.23,2.11,18.29-6.57,24.29c0.62-2.43,1.25-4.86,1.87-7.29c1.86-7.29,2.8-14.57-2.43-20.98
		c-0.76-0.94-2.01-1.48-3.03-2.21l0.05,0.09c-0.29-0.3-0.58-0.61-0.88-0.91l0.11,0.08l-1.72-0.81l0.06,0.05l-0.87-0.9l0.1,0.07
		l-1.72-0.87l0.11,0.06l-2.55-0.81L259.35,476.45z"/>
	<path class="st0" d="M429.65,362.25c4.16-4.48,8.41-8.91,12.42-13.48c1.22-1.41,1.76-3.41,2.62-5.14c0.53,0.6,1.62,1.3,1.51,1.79
		c-0.39,1.6-0.9,3.18-1.52,4.7l-3.24,2.21c0.45,0.47,0.91,0.93,1.37,1.39l2.68-3.45c1.98,1.25,4.05,2.36,5.89,3.78
		c3.49,2.67,6.85,5.52,10.67,8.64c-4.31,1.12-8.1,1.62-11.5,3.08c-5.89,2.47-10.62,1.62-14.51-3.92c0.45-0.74,1.07-1.81,1.69-2.87
		l-0.87-0.81c-1.55,1.62-3.06,3.24-4.63,4.75C431.09,364.05,429.82,365.25,429.65,362.25z M438.63,356.31l0.68,0.72
		c0.43-0.42,0.84-0.87,1.23-1.34c0.05-0.06-0.24-0.38-0.37-0.58L438.63,356.31z"/>
	<path class="st0" d="M187.21,335.86l1.2-1.96l0.81,1.36l2.1-3.01l-0.07,0.06l1.73-0.85l-0.1,0.07l0.88-0.9l-0.08,0.05l1.72-0.81
		l-0.08,0.06c1.54-0.37,3.68-0.22,2.49-2.91c0.17-0.18,0.37-0.32,0.6-0.41c0.45,0.37,1.11,1.17,1.31,1.06
		c2.66-1.35,5.25-2.83,7.85-4.27l-0.12,0.15c4.31-0.49,8.46-0.11,12.14,2.36c2.58,1.71,2.57,3.63,0.04,4.95
		c-3.45-0.6-7.38-2.56-10.27-1.55c-10.27,3.55-18.66,9.71-21.99,20.86c-0.57,1.33-1.13,2.66-1.78,4.2l-5.61-1.03v-4.86l-0.06,0.09
		l2.43-4.12v0.05c0.56-0.81,1.12-1.62,1.68-2.49l-0.06,0.08l1.62-3.34l-0.06,0.09l0.93,0.06v-0.95l-0.06,0.09
		C186.66,337.32,186.94,336.61,187.21,335.86z"/>
	<path class="st0" d="M202.53,486.26c2.78,5.56,0.98,10.05-3.66,14.35c1.2-7.33-1.48-13.16-7.67-15.63
		c-8.82-3.54-17.7-3.41-24.19,5.78c-1.17-4.86,4.25-11.47,11.22-14.5l13.08,0.87L202.53,486.26z"/>
	<path class="st0" d="M300.52,328.26h2.36c4.8,0.68,6.52,4.62,8.66,8.14c2.02,3.31,4.05,6.6,6.25,10.09
		c-6.21,2.83-12.2,5.51-18.14,8.28c-0.86,0.54-1.65,1.19-2.35,1.93l0.06-0.06c-5.01,0.81-9.59,2.5-13.01,6.48h0.06l-0.81,0.1
		l-13.06,10.37c-1.46,1.29-2.65,1.28-3.92-0.4c-1.59-2.17-3.35-4.2-5.27-6.09c-2.43-2.32-3.73-4.74-2-8.01h-0.12l0.7-0.53l-0.7-0.53
		l2.36-0.62c-2.15,7.12,3.89,10.23,6.48,14.57l27.8-19.32c-1.62-3.79-1.01-6.78,2.17-8.39c3.18-1.6,5.9-0.34,8.86,4.51l6.78-3.29
		c-4.61-5.42-4.01-14.77-13.58-15.56L300.52,328.26z M305.47,349.39c-1.57-1.62-2.57-3.17-3.99-3.85c-0.72-0.34-2.88,0.64-3.24,1.48
		c-0.6,1.56-0.33,3.46-0.47,6.04L305.47,349.39z"/>
	<path class="st0" d="M414.31,371.23h0.07l-2.15-0.81h0.1l-2.13-0.81l0.07,0.05l-3.7-2.43l0,0l-2.43-1.62v0.06
		c-0.64-0.87-1.1-2.05-1.96-2.53c-8.61-4.86-17.29-9.64-25.97-14.42c-1.39-0.77-2.85-1.45-4.68-2.37
		c4.98-7.94,9.92-15.71,14.71-23.55c1.81-2.95,3.29-6.09,4.91-9.14v0.07l1.66-2.47l-0.04,0.06c0.56-0.81,1.13-1.66,1.69-2.49
		l-0.07,0.11c0.28-0.57,0.57-1.14,0.81-1.72l-0.04,0.08c0.29-0.57,0.57-1.14,0.86-1.71l-0.05,0.06h0.87l3.3-3.24l-0.06-0.05
		l0.87,0.89l-0.09-0.07l1.7,0.81l0,0l1.89,2.56l1.38,0.74l-0.07-0.07l0.88,0.89l-0.08-0.08l0.89,0.9l-0.11-0.07l1.73,0.81
		l-0.05-0.05c0,2.32,0.07,4.65,0.11,6.96c-0.58-0.65-1.21-1.25-1.72-1.95c-1.09-1.49-2.1-3.03-3.16-4.54l0,0l-4.7-4.56
		c-8.16,13.15-16.19,26.13-24.44,39.39l37.16,22.1c0.4-2.04,0.72-3.67,1.11-5.67l2.95,0.2c0,1.86,0,3.71,0,5.56
		c-0.49,0.1-1.38,0.1-1.43,0.31C414.64,368.68,414.44,369.95,414.31,371.23z"/>
	<path class="st0" d="M219.58,332.38c2.7,3.78,5.48,7.52,8.1,11.33c0.68,1.27,1.23,2.6,1.62,3.98l0.05-0.06l-2.47,1.7l0.09-0.07
		l-1.72,0.87l0.09-0.07l-1.62,0.22c-0.31,0.49-0.61,0.97-0.91,1.46l0.06-0.05c-3.46,0.46-7.97,4.57-8.97,8.17l0.07-0.09l-1.06,0.73
		l-25.66-5.67c0.58-1.91,1.01-3.31,1.43-4.71c2.02-6.32,6.56-10.7,11.64-14.49C206.1,331.37,212.26,328.2,219.58,332.38z
		 M211.54,337.94l0.09,0.08l-2.85-4.54c-9.49,3.81-15.11,10.48-18.39,19.83c6.71,1.42,13.12,2.81,19.53,4.11
		c0.76,0.18,1.55,0.04,2.21-0.36c2.91-2.43,5.67-5.03,8.82-7.81c-1.54-1.62-3.05-3.24-4.56-4.86l0,0L211.54,337.94z M226.88,345.92
		c-2.74-3.75-5.31-7.02-7.63-10.46c-2.08-3.08-4.8-3.58-8.62-2.95c2.32,3,4.26,5.53,6.23,8.05s4.1,5.23,6.2,7.89L226.88,345.92z"/>
	<path class="st0" d="M334.14,376.79l0.1,0.06l-2.96-0.81l0.05,0.11c0.4-0.66,0.66-1.69,1.22-1.91c7.82-3,15.6-4.05,23.09,1.03
		c-2.29,1.34-4.44,3.11-6.9,3.89c-2.23,0.7-2.53,1.81-2.52,3.73c0.07,8.42,0.05,16.84,0.06,25.26h-5.24v-22.67
		C341.04,378.69,341.04,378.69,334.14,376.79z"/>
	<path class="st0" d="M462.87,337.05c-4.55-5.8-8.33-11.86-7.98-19.7c0.24-5.42,3.33-8.33,8.69-6.94c5.94,1.56,11.77,3.54,17.45,5.9
		c4.58,1.89,8.69,4.86,13.24,6.87c12,5.23,20.85,16.63,24.89,27.77c-0.91-0.72-2.19-1.25-2.7-2.19
		c-11.14-20.54-30.21-29.77-51.38-35.8c-5.93-1.69-9.63,2.87-7.5,8.91c1.38,3.92,3.36,7.62,5.03,11.43
		c0.49,1.12,0.81,2.29,1.25,3.44L462.87,337.05z"/>
	<path class="st0" d="M239.38,513.68c-0.19-0.07-0.27-0.11-0.21-0.11c0-2.5-0.89-3.54-3.85-3.9c-4.59-0.57-9.2-0.97-13.76-1.43
		c7.03-5.05,18.3-3.92,23.82,2.26c7.91,8.83,8.41,18.94,5.67,29.8c-3.11-0.97-3.87-2.98-4.12-5.87c-0.38-4.29-1.48-8.51-2.27-12.76
		v0.16l-0.88-1.71l0.05,0.08l-1.68-3.3v0.06C242.61,513.89,241.79,512.97,239.38,513.68z"/>
	<path class="st0" d="M461.27,505.74c-4.91-0.65-8.91,1.62-12.14,4.77c-7.84,7.63-9.25,14.31-6.17,26.27
		c-6.27,3.58-8.63,2.29-8.76-5.48c-0.19-11.29,4.47-19.88,14.68-25.19c4.75-2.43,11.78-3.34,15.8-1.94l-3.51,1.62L461.27,505.74z"/>
	<path class="st0" d="M503.69,353.38l-3.45,1.15c-0.42-0.51-0.8-1.05-1.15-1.62c-5.08-9.43-13.37-14.4-23.48-16.62
		c-3.9-0.86-7.12,0.5-8.99,4.38c-1.16,2.42-2.49,4.76-3.98,7c-0.5,0.74-1.8,0.95-2.73,1.4l-0.57-1.03c1.71-2.57,3.62-5.04,5.06-7.76
		c0.81-1.57,0.76-3.59,1.35-5.31c0.39-1.13,1.04-2.69,1.94-3.02c2.08-0.88,4.34-1.29,6.6-1.2
		C485.47,331.95,500.07,341.91,503.69,353.38z"/>
	<path class="st0" d="M365.38,588.18c-0.78-1.17-1.46-2.42-2.02-3.71c-0.28-1.21-0.42-2.45-0.42-3.69l-0.09,0.1l2.16-0.81h-0.06
		c0.23,1,0.45,2.01,0.71,3.12c21.63-14.03,43.2-28.01,64.71-41.94c0.36-0.23,1.04,0.05,2.63,0.18c-1.71,1.27-2.74,2.11-3.84,2.84
		c-15.68,10.48-31.36,20.95-47.03,31.44c-0.95,0.63-1.49,1.86-2.21,2.81v-0.06c-0.66-0.11-1.34-0.08-1.99,0.08
		c-0.32,0.15-0.32,1-0.45,1.55l0,0c-0.66-0.1-1.34-0.07-1.99,0.09c-0.32,0.15-0.32,1-0.46,1.55l0,0c-0.66-0.1-1.34-0.07-1.99,0.09
		c-0.32,0.15-0.32,1.01-0.46,1.55l0,0c-0.67-0.1-1.35-0.07-2,0.09c-0.32,0.15-0.32,1.01-0.45,1.55l0,0
		c-0.67-0.11-1.35-0.08-2.01,0.09c-0.32,0.15-0.32,1.01-0.45,1.55l0,0c-0.67-0.1-1.35-0.07-2.01,0.1c-0.32,0.15-0.32,1.01-0.46,1.55
		L365.38,588.18z"/>
	<path class="st0" d="M270.37,407.84l4.52-1.17l2.43,8.19l-28.59,11.67c-2.49-3.44-1.79-5.5,1.83-7.29c5.77-2.85,11.33-6.1,17-9.24
		c1.01-0.66,1.98-1.4,2.88-2.2L270.37,407.84z"/>
	<path class="st0" d="M364.94,580.09H365l-2.16,0.81l0.09-0.1l-8.31,4.3c0.34-2.68,0.66-5.11,0.97-7.54l-0.04,0.04l2.8,1.1
		l-0.06,1.19l3.34-2.09c19.1-12.07,38.2-24.13,57.32-36.16c1.62-1.04,3.72-1.38,5.59-2.06l0,0c-1.07,1.18-2.24,2.26-3.5,3.24
		c-17.81,11.51-35.69,22.94-53.51,34.46C366.47,577.92,365.78,579.14,364.94,580.09z"/>
	<path class="st0" d="M333.13,231.43c-0.69-2.02-1.39-4.05-2.06-6.05c-1.09-3.29-3.24-5.16-6.69-6.11
		c-6.37-1.7-12.15-5.1-16.72-9.85c-5.12-5.27-5.55-11.57-5.91-17.81c-0.2-5.78,0.34-11.56,1.62-17.2c0.58-2.91,2.99-5.45,4.57-8.15
		l1.01,0.55c-0.99,1.97-2.28,3.85-2.92,5.93c-3.18,10.35-3.17,20.79,1.13,30.76c3.02,7,9.03,11.33,16.39,13.15
		c9.05,2.27,9.57,5.2,10.99,12.74c0.01,0.61-0.06,1.21-0.23,1.8L333.13,231.43z"/>
	<path class="st0" d="M433.52,423.1c-4.53-2.06-8.91-4.57-13.6-6.04c-4.7-1.47-6.01-4.14-4.64-8.82
		c11.03,0.24,18.4,8.42,27.78,12.64l-1.28,4.48l-8.35-2.33L433.52,423.1z"/>
	<path class="st0" d="M357.14,531.66l3.51-6.36c0.21-0.03,0.43-0.01,0.64,0.06c7.67,4.57,7.67,4.57,4.97,13.33l-4.36,14.28
		c-2.81-4-5.4-15.98-4.67-21.37L357.14,531.66z"/>
	<path class="st0" d="M193.29,193.09c-5.58,0-10.13-4.19-10.13-9.33s4.55-9.33,10.14-9.32c5.59,0.01,10.14,4.19,10.13,9.33
		S198.88,193.09,193.29,193.09z M200.14,183.84c0.23-3.91-2.43-7.38-5.67-7.49c-3.63-0.11-5.45,1.55-5.74,5.24
		c-0.25,3.12,3.68,7.69,6.85,7.65C198.97,189.21,199.94,186.77,200.14,183.84z"/>
	<path class="st0" d="M557.22,289c0,6.14-4.29,11.07-9.53,10.95c-5.08-0.13-9.13-4.99-9.13-10.95c0-6.14,4.29-11.07,9.53-10.94
		C553.17,278.2,557.22,283.05,557.22,289z M547.76,283.64c-4.2-0.24-7.16,1.96-7.29,5.46c-0.19,4.15,3.07,8.1,6.92,8.39
		c3.17,0.24,6.1-3.29,6.18-7.44C553.6,287.24,550.5,283.81,547.76,283.64z"/>
	<path class="st0" d="M242.65,214.9c-0.98,1.02-1.79,2.34-2.97,3.02c-10.27,5.97-19.43,13.26-25.27,23.75
		c-2.27,4.05-3.2,8.95-4.47,13.54c-0.7,2.54,0.53,4.31,3.33,4.25c6.66-0.15,13.33-0.46,19.98-0.7c-2.8,1.05-5.54,2.74-8.41,3
		c-4.11,0.38-8.34-0.11-12.49-0.53c-4.15-0.43-5.1-2.38-4.6-6.68c2-17.15,13.2-27.31,26.72-35.72
		C237.04,217.24,239.93,216.19,242.65,214.9z"/>
	<path class="st0" d="M329.62,531.46c2.43,7.8-3.03,13.92-5.07,21.1c-2.1-6.77-4.2-13.54-6.4-20.63l8.51-5.54l2.27,1.88l-0.04-0.1
		l0.81,3.36L329.62,531.46z"/>
	<path class="st0" d="M240.67,180c0.05,5.75-3.65,10.52-8.29,10.65c-4.81,0.15-8.77-4.66-8.74-10.61c0-5.76,3.84-10.44,8.49-10.45
		C236.79,169.58,240.62,174.24,240.67,180z M226.99,182.04c0,2.91,2.61,6.13,5.08,6.23c3.29,0.12,7.41-4.53,6.91-8.38
		c-0.32-2.54-1.62-4.75-4.95-4.58C230.26,175.49,227.01,178.43,226.99,182.04z"/>
	<path class="st0" d="M524.83,400.34l-2.48-4.75l16.46-6.95c-0.49,4.56-0.19,8.91-1.62,12.56c-0.81,2.1-4.52,3.05-6.74,4.41
		l-3.24-2.91l0.09,0.09l-0.81-1.72l0.07,0.08L524.83,400.34z"/>
	<path class="st0" d="M379.18,453.71c-0.91,0.64-2.13,1.08-2.67,1.94c-4.86,7.69-9.62,15.45-14.38,23.21
		c-0.72,1.18-1.34,2.43-2.01,3.65l-1.37-0.57c2.37-5.98,4.53-12.07,7.17-17.93c3.02-6.5,7.61-12.14,13.35-16.43
		c2.14-1.62,4.91-2.43,7.4-3.63l0.75,1.39c-1.94,1.26-4.12,2.28-5.76,3.86c-1.21,1.16-1.71,3.04-2.53,4.61L379.18,453.71z"/>
	<path class="st0" d="M582.62,309.67c-5.17,0-9.28-3.68-9.23-8.2s4.23-8.1,9.4-8.03s9.28,3.68,9.23,8.2
		C591.97,306.16,587.79,309.71,582.62,309.67z M581.04,306.92c3.2-0.23,5.7-2.85,5.77-6.06c-0.1-2.6-3.4-5.42-6.3-4.92
		c-2.9,0.49-4.9,2.32-5.07,5.38C575.28,304.21,578.27,307,581.04,306.92z"/>
	<path class="st0" d="M204.22,220.75c0.12-5.21,4.11-9.28,8.91-9.06c4.79,0.22,8.37,4.59,8.14,9.77c-0.22,5.03-4.05,8.96-8.66,8.86
		C207.84,230.24,204.09,225.93,204.22,220.75z M207.99,219.74l0.72,0.81c0.24,0.91,0.41,1.85,0.74,2.72
		c0.97,2.66,2.36,5.07,5.72,4.28c3.08-0.71,4.32-3.68,3.34-7.1c-0.09-0.67-0.31-1.31-0.66-1.89c-1.4-1.55-2.93-2.99-4.41-4.46
		C211.62,215.98,209.8,217.86,207.99,219.74L207.99,219.74z"/>
	<path class="st0" d="M348.1,339.54l12.71-19.16c2.66,8.85,5.08,16.94,7.9,26.36L348.1,339.54z M360.24,325.72l-8.78,12.9
		l13.76,4.86c-1.75-6.23-3.25-11.62-4.96-17.75H360.24z"/>
	<path class="st0" d="M383.76,473.63c-1.51-4.78-3.16-9.53-4.46-14.37c-0.47-1.73-0.11-3.69-0.12-5.55l-0.08,0.08
		c0.72,0.7,1.77,1.29,2.1,2.15c2.05,5.25,4.26,10.48,5.67,15.9c0.57,2.14-0.71,4.76-1.3,7.99c-4.51-3.35-7.9-5.93-11.37-8.42
		c-1.03-0.61-2.11-1.12-3.24-1.54v0.11l-0.08-0.87l-0.81,0.81h-1.34c0.81-1.5,1.68-3,2.68-4.8l11.33,9.18l0.81,0.6L383.76,473.63z"
		/>
	<path class="st0" d="M221.58,317.75l1.76-8.56c-8.67-0.2-16.33,1.47-23.31,5.42c-5.47,3.09-10.6,6.82-15.89,10.23
		c-0.81,0.53-5.03,3.8-5.03,3.8s-1.32-1.69-1.8-0.88c-0.48,0.81,20.53-17.07,31.02-18.97c4.23-0.76,8.44-1.74,12.7-2.05
		s5.23,1.18,4.32,5.38c-0.42,1.96-2.78,7.68-2.96,8.71C222.22,321.87,222.22,317.8,221.58,317.75z"/>
	<path class="st0" d="M304.51,244.96c1.73-3.57,4.42-4.19,7.85-2.57c0.94,0.5,1.91,0.93,2.91,1.29c3.42,1.09,5.51,3,4.86,6.97
		c-0.09,0.49,0.45,1.11,0.69,1.66l-0.85,1.33l1.04,0.22l-3.28,4c-4.72,5.54-7.06,5.48-13.3-0.34c-4.29-4.05-4.23-8.53,0.17-12.6
		c-0.49,1.73-1.36,3.46-1.36,5.19c0,1.35,1.08,2.7,1.68,4.05c1.31-0.71,3.38-1.13,3.8-2.2c1.06-2.64,1.36-5.57,1.97-8.39l-1.27-0.62
		L304.51,244.96z M313.01,243.93l-1.24,0.68c0.86,5.34-0.54,9.58-5.91,12.19c2.65,1.47,6.61,3.64,7.12,3.01
		c2.63-3.07,4.57-6.67,5.67-10.56C318.92,248.01,315,245.74,313.01,243.93z"/>
	<path class="st0" d="M542.65,250.3c-0.08,4.26-3.6,7.65-7.86,7.57c-4.26-0.08-7.65-3.6-7.57-7.86c0.08-4.26,3.6-7.65,7.86-7.57
		c0,0,0,0,0.01,0C539.34,242.53,542.72,246.04,542.65,250.3z M538.76,249.24c-0.08-1.55-2.23-3.03-4.47-2.43
		c-2.02,0.51-3.61,2.69-5.39,4.14c1.79,1.41,3.39,3.58,5.4,4.05C537.06,255.62,538.71,253.59,538.76,249.24z"/>
	<path class="st0" d="M378.1,493.42l-1.53,3.89l-15.46-8.1c2.23,5.87,4.12,10.82,6.03,15.84l-3.42-0.23v0.06
		c-0.92-2.37-1.62-4.86-2.84-7.1c-2.34-4.16-1.98-8.1,0.23-12.45l14.68,7.34v-0.09l1.33,0.88L378.1,493.42z"/>
	<path class="st0" d="M474.95,463.05c2.83-12.22,7.76-23.79,11.79-35.62c0.33-0.98,1.86-1.55,3.65-1.74l-13.67,37.96L474.95,463.05z
		"/>
	<path class="st0" d="M97.93,400.3l-2.96-6.77l25.91,5.44c-2.43,1.98-4.54,3.69-6.56,5.34l-1.72-4.05l-4.05,2.47l-0.93-3.72
		l-4.17,2.64l-1.85-3.91L97.93,400.3z"/>
	<path class="st0" d="M88.87,413.83c1.42-1.54,2.52-2.7,3.96-4.25l1.48,4.44l4.38-3.42c0.23,1.75,0.42,3.13,0.66,4.86l4.29-2.43
		c0.19,1.62,0.35,3.06,0.56,4.86l5.73-3.5c0.19,1.93,0.36,3.46,0.56,5.38l4.67-2.86c0.17,2.26,0.32,4.19,0.53,6.78L88.87,413.83z"/>
	<path class="st0" d="M113.57,232.69c-0.05,4.52-3.73,8.16-8.26,8.16c-4.69-0.43-8.14-4.58-7.71-9.26c0.38-4.21,3.79-7.5,8.01-7.74
		c4.59,0.19,8.16,4.06,7.97,8.65C113.57,232.56,113.57,232.63,113.57,232.69z M111.89,232.51c0.04-3.23-2.44-5.94-5.67-6.19
		c-3.32-0.24-6.21,2.25-6.45,5.56c-0.24,3.32,2.25,6.21,5.56,6.45c0.04,0,0.09,0.01,0.13,0.01c3.38,0.16,6.25-2.44,6.42-5.82
		C111.89,232.52,111.89,232.52,111.89,232.51z"/>
	<path class="st0" d="M76.27,262.39c-0.07-4.23,3.28-7.73,7.51-7.84c4.26-0.12,7.81,3.23,7.93,7.49c0,0.11,0,0.23,0,0.34
		c-0.04,4.24-3.49,7.65-7.73,7.64C79.75,270.03,76.31,266.62,76.27,262.39z M84.72,257.11c-2.96-0.17-5.67,2.1-5.89,4.86
		c-0.23,2.76,2.25,5.32,5.27,5.49s5.67-2.1,5.89-4.86C90.22,259.84,87.74,257.28,84.72,257.11z"/>
	<path class="st0" d="M194.45,133.95l4.34-0.51c2.6,4.43,5.48,9.31,8.56,14.57c-2.43,1.68-4.53,3.08-7.25,4.93
		c-2.74-5.94-5.38-11.67-8.03-17.41v0.06l2.43-1.62L194.45,133.95z M203.6,146.79c-5.6-10.65-6.08-11.16-8.91-9.71
		C198.74,146.2,200.42,148.1,203.6,146.79z"/>
	<path class="st0" d="M489.18,296.82c-0.05-4.57,2.9-8.26,6.57-8.2c3.53,0.05,6.35,3.55,6.4,7.97c0.05,4.57-2.9,8.26-6.57,8.2
		C492.06,304.73,489.24,301.23,489.18,296.82z M501.55,296.7c-2.06-1.85-3.95-4.09-4.38-3.84c-2.2,1.29-4.47,2.96-5.72,5.08
		c-0.38,0.65,2.43,3.16,3.73,4.81L501.55,296.7z"/>
	<path class="st0" d="M427.68,189.06l3.24,4.63c-5.23,0.48-7.88,4.94-5.01,9c2.43,3.46-0.15,3.96-2.27,5
		c-2.25,0.94-3.98,0.71-4.53-2.06l0,0l0.66-1.14c-0.33-0.57-0.61-1.16-0.86-1.77c-0.49-1.5-0.91-3.03-1.35-4.55l5.76-0.27
		c0.4-0.76,1.12-2.17,1.56-3.05l-1.45-4.36L427.68,189.06z"/>
	<path class="st0" d="M542.68,330.7c4.4,0,7.93,2.81,8.03,6.33c0.11,3.68-3.55,6.65-8.1,6.63c-4.4,0-7.93-2.81-8.03-6.33
		C534.44,333.65,538.1,330.67,542.68,330.7z M542.26,342.73c1.89-2.47,3.91-4.05,4.23-5.89c0.21-1.23-2.74-4.27-3.03-4.12
		c-2.54,1.47-4.98,3.12-7.29,4.94L542.26,342.73z"/>
	<path class="st0" d="M269.72,402.08c-0.52-0.75-1.46-1.5-1.47-2.26c-0.13-5.76-0.07-11.52-0.07-17.49l4-0.7
		c0.57,7.29,1.13,14.33,1.69,21.56l-2.49,0.35l0.11,0.06l-1.69-1.34L269.72,402.08z"/>
	<path class="st0" d="M402.03,437.53l8.33,9.14c1.54-6.33-1.79-13.33,1.3-19.43l1.95,0.14c0,6.4,0.14,12.8-0.11,19.18
		c-0.06,1.41-1.54,2.75-2.69,4.67c-3.46-4.05-6.48-7.42-9.24-10.96c-0.38-0.49,0.35-1.84,0.57-2.78L402.03,437.53z"/>
	<path class="st0" d="M475.62,432.06l8.84-4.22l-8.27,25.02c-0.3-0.66-0.86-1.31-0.85-1.97
		C475.37,444.61,475.49,438.33,475.62,432.06z"/>
	<path class="st0" d="M335.8,278.04c-0.04,0.52,0,1.47-0.13,1.49c-3.12,0.55-2.76,2.65-2.3,4.99h19.82v-5.29
		c3.54,1.34,2.08,4.36,2.29,6.81h-10.73c0,0.6,0,1.19,0,1.79l10.84-0.81l2.43,0.32c0,0.36,0,0.72,0,1.08
		c-2,0.06-3.99,0.09-5.99,0.18l-20.72,0.91l-4.05-0.57v-1.03h9.2l0.19-0.99l-4.81-1.13C330.45,279.39,330.9,278.48,335.8,278.04z"/>
	<path class="st0" d="M229.28,347.73c3.68-0.81,6.65,0.42,9.08,3.17c-0.81,1.38-1.69,2.76-2.53,4.14V355l-0.87,0.86l0.06-0.06
		l-0.87,0.87l0.07-0.06l-0.88,0.87l0.07-0.06l-0.87,0.87l0.06-0.06l-0.87,0.87l0.05-0.04l-1.71,0.81l0.1-0.07l-0.87,0.89l0.06-0.06
		l-0.87,0.87l0.06-0.06l-0.81,0.87v-0.05l-0.81,0.85l0.04-0.08l-13.19-2.37l0.2-0.88l-0.07,0.09l4.95-2.47l-2.73,3.57
		c4.05-0.23,7.71,0.55,10.21-0.81c3.63-2,6.42-5.55,9.6-8.48c-2.06-3.29-4.49-2.69-6.93-1.1c-3.45,2.25-6.82,4.63-10.22,6.95
		l4.05-5.77l-0.06,0.05l1.62-0.81l0.81-0.81l-0.09,0.07l1.72-0.87l-0.09,0.07l2.47-1.7L229.28,347.73z"/>
	<path class="st0" d="M358.03,288.44c0-0.36,0-0.72,0-1.08c1.32-0.01,2.63-0.09,3.94-0.23c3.68-0.6,5.18,1.01,4.91,4.59L356.4,297
		l-1.72-0.25l-1.04-3.98c-1.61,0.66-3.26,1.24-4.94,1.72c-1.74,0.32-3.5,0.56-5.26,0.7l-2.43-0.07l0.1,0.05l-10.56-3.33
		c0-0.36-0.06-0.7-0.08-1.05l0.88-0.81c0.93,0.12,1.85,0.31,2.75,0.59c6.69,2.59,13.34,5.46,19.78-0.87
		c1.11,1.94,1.88,3.29,2.78,4.9l8.16-3.98l-0.13-1.47L358.03,288.44z"/>
	<path class="st0" d="M212.16,443.88c-6.48-1.07-6.48-1.07-7.21-7.19c-0.28-2.25-0.62-4.49-0.95-6.85
		C213.27,431.93,212.18,429.77,212.16,443.88z"/>
	<path class="st0" d="M378.1,493.42h-0.96l-1.33-0.88v0.09c0-0.9-0.14-1.79-0.4-2.66c-2.26-4.8-4.5-9.61-6.99-14.3
		c-1.13-2.15-1.32-3.93,0.36-5.76h1.34H371v-0.11c2.33,5.99,4.79,11.93,6.91,18C378.47,489.54,378.07,491.57,378.1,493.42z"/>
	<path class="st0" d="M241.98,140.39h-5.95c-0.81-5.72-1.55-11.26-2.37-17.15l6.17-0.71C240.56,128.54,241.25,134.33,241.98,140.39z
		 M238.1,138.22l1.73-0.4l-2.19-12.68l-1.34,0.26L238.1,138.22z"/>
	<path class="st0" d="M512.23,411.96l-7.77,3.76c-1.32-3.34-2.57-6.48-3.9-9.84l7.54-3.1C509.42,405.74,510.71,408.6,512.23,411.96z
		"/>
	<path class="st0" d="M174.41,180.82c-1.04-0.11-2.43,0.19-3.04-0.37c-3.59-3.24-6.99-6.68-10.65-10.24l3-5.97
		c3.81,3.83,7.52,7.12,10.58,10.92c0.93,1.17,0.08,3.76,0.05,5.67H174.41z M171.52,178.8l0.97-0.81c-0.4-2.68-4.92-7.29-8.91-8.98
		c0.05,0.43-0.06,0.92,0.15,1.15C166.36,173.02,168.93,175.9,171.52,178.8z"/>
	<path class="st0" d="M190.45,88.13l-0.11-0.11c-0.19,0.49-0.4,0.99-0.58,1.49l-0.92,1.15c-2.98-1.51-5.9-1.81-7.42,1.75
		c-0.56,1.32-0.28,3.75,0.63,4.73c1.05,1.13,3.24,1.51,4.92,1.62c0.96,0.09,2.03-0.94,3.7-1.81c-0.81,3.67-2.84,5.67-5.59,5.25
		c-2.38-0.51-4.48-1.92-5.85-3.93c-1.95-3.08-1.24-6.56,1.28-9.31c1.93-2.1,4.32-2.48,7-1.29
		C188.47,87.96,189.46,88.11,190.45,88.13z"/>
	<path class="st0" d="M195.15,427c4.93,0.08,7.29,2.12,7.29,6.77c0.13,2.4,0.4,4.78,0.81,7.15c-4.55,0-7.03-1.87-7.15-6.52
		C195.92,431.91,195.6,429.44,195.15,427z"/>
	<path class="st0" d="M415.62,401.56c0.47-6.17,0.81-12.35,1.48-18.49c0.12-1.18,1.29-2.26,2.43-4.09c0,7.6,0.14,13.98-0.13,20.35
		c-0.05,1.06-1.85,2.06-2.85,3.08L415.62,401.56z"/>
	<path class="st0" d="M133.17,209.24c3.81,0.25,6.69,3.55,6.44,7.36c-0.25,3.67-3.32,6.51-7,6.45c-3.66-0.32-6.39-3.52-6.13-7.18
		c0.01-3.68,3-6.64,6.68-6.63C133.16,209.24,133.16,209.24,133.17,209.24z M137.78,215.96c-0.1-2.67-2.3-4.98-4.78-4.99
		c-2.78,0.13-4.92,2.49-4.79,5.27c0,0.02,0,0.05,0,0.07c0.23,2.85,1.72,4.79,4.74,4.97C135.6,221.44,137.88,218.78,137.78,215.96z"
		/>
	<path class="st0" d="M186.07,424.2c4.65,0.23,7.08,1.55,7.21,5.85c0.08,2.73,0.88,5.43,1.38,8.26
		C184.85,437.2,189.42,428.96,186.07,424.2z"/>
	<path class="st0" d="M170.2,418.92c4.64,0.22,6.94,2.14,6.81,6.74c-0.06,2.23,0.59,4.47,0.96,6.93c-4.12-0.07-6.42-1.47-6.53-5.76
		C171.35,424.2,170.63,421.6,170.2,418.92z"/>
	<path class="st0" d="M566.15,425.02l5.25,0.45c-0.72,1.87-1.37,3.54-2.15,5.59l5.26,1.9c-0.5,1.89-0.98,3.64-1.53,5.67l6.1,1.82
		l-4.77,4.86c-2.58-5.67-5.21-11.29-7.72-17C566.16,427.34,566.29,426.12,566.15,425.02z"/>
	<path class="st0" d="M186.49,435.53c-4.61-0.25-6.79-2.28-6.7-6.76c0.05-2.22-0.59-4.45-0.92-6.74c5.18,0.38,5.17,0.39,5.98,4.92
		C185.34,429.7,185.89,432.44,186.49,435.53z"/>
	<path class="st0" d="M354.13,429.77c4.44-3.95,8.61-1.54,12.69,0.69c1.47,0.92,2.86,1.94,4.19,3.06l0.06-0.06l-2.53,0.87h0.07
		c-5.57,0.87-10.27-1.16-14.57-4.44L354.13,429.77z"/>
	<path class="st0" d="M342.14,227.66c-0.34-7.46-0.73-14.93-0.95-22.39c0-0.68,1.01-1.38,2.25-2.97v25.44L342.14,227.66z"/>
	<path class="st0" d="M474.56,361.59c-2.43-1.37-4.96-2.57-7.25-4.14c-4.41-3.04-8.33-7.33-14.57-4.86
		c-0.15,0.06-0.53-0.48-0.96-0.88c2.36-2.66,5.4-2.16,7.71-1.03c5.12,2.53,9.96,5.67,14.82,8.66c0.39,0.24,0.15,1.48,0.2,2.27
		L474.56,361.59z"/>
	<path class="st0" d="M397.35,461.87c-1.17-0.09-2.72,0.27-3.46-0.35c-3.92-3.24-7.63-6.78-11.42-10.2l0.23-1.17
		c1.13,0.11,2.61-0.19,3.34,0.41c3.93,3.24,7.69,6.7,11.5,10.09L397.35,461.87z"/>
	<path class="st0" d="M415.59,423.78l2.35,0.75l0.87,0.92l-0.06-0.09c1.26,2.74,2.47,5.5,3.81,8.19c0.81,1.68,2.04,3.17,2.72,4.9
		c0.36,0.91-0.08,2.12-0.16,3.2l-1.33,0.1c-2.78-5.15-5.59-10.29-8.27-15.49C415.19,425.62,415.55,424.62,415.59,423.78z"/>
	<path class="st0" d="M566.17,425.04c-0.81-0.81-1.84-1.4-2.26-2.32c-1.81-3.92-3.42-7.92-5.12-11.88h5.46l-1.51,6.33l5.05,1.62
		C567.21,421.03,566.69,423.04,566.17,425.04z"/>
	<path class="st0" d="M210.51,399.61c-3.24-0.66-4.86-2.58-4.64-5.67c0.22-3.08,1.93-5.12,5.15-4.9s4.68,2.43,4.53,5.52
		C215.4,397.66,213.51,399.33,210.51,399.61z M215.14,394.05c-2.06-1.5-3.47-3.29-4.54-3.1c-1.07,0.19-2.87,2.24-2.83,3.42
		c0.04,1.18,1.92,3.09,3.09,3.17C212.04,397.62,213.21,395.77,215.14,394.05z"/>
	<path class="st0" d="M453.38,410.94c-3.24-0.66-4.86-2.58-4.64-5.67c0.22-3.08,1.93-5.12,5.15-4.91c3.21,0.22,4.68,2.47,4.53,5.53
		C458.28,408.96,456.38,410.67,453.38,410.94z M458.04,405.55c-2.02-1.58-3.37-3.4-4.46-3.24s-2.95,2.14-2.95,3.31
		c0,1.17,1.81,3.14,3,3.24C454.82,408.96,456.03,407.16,458.04,405.55z"/>
	<path class="st0" d="M484.42,394.34c-0.38,2.99-1.76,5.21-5.02,5.13c-3.26-0.07-4.82-2.24-4.77-5.29c0.05-3.05,1.68-5.19,4.92-5.14
		C482.8,389.08,484.13,391.33,484.42,394.34z M483.94,394.34c-1.98-1.62-3.24-3.5-4.36-3.39c-1.13,0.11-3.01,2.06-3.04,3.24
		c-0.02,1.18,1.72,3.19,2.91,3.36c1.19,0.17,2.45-1.64,4.49-3.19V394.34z"/>
	<path class="st0" d="M235.62,410.92c-3.12-0.52-4.78-2.43-4.66-5.5c0.11-3.07,1.78-5.17,5.01-5.05c3.23,0.11,4.76,2.33,4.68,5.38
		C240.57,408.8,238.81,410.63,235.62,410.92z M240.25,405.41c-2.06-1.51-3.46-3.3-4.53-3.12c-1.19,0.19-2.89,2.22-2.86,3.4
		c0.03,1.18,1.89,3.09,3.07,3.18S238.3,407.1,240.25,405.41z"/>
	<path class="st0" d="M398.6,459.56c-0.2-6.13-4.15-11.62-1.96-17.75C400.27,449.59,401.14,457.48,398.6,459.56z"/>
	<path class="st0" d="M416.35,367.09c0-1.85,0-3.71,0-5.56c0.54,1.77,1.13,3.53,1.62,5.32c0.49,1.79,0.81,3.49,1.47,6.43l8.23-9.01
		c2.43-0.81,2.85,0.13,1.42,1.89c-2.02,2.49-4.05,5.05-6.61,6.93c-1.24,0.93-3.57,0.4-5.4,0.53l0.12,0.05
		c-0.3-0.3-0.59-0.61-0.89-0.91l0.06,0.07C416.36,370.91,416.36,369.01,416.35,367.09z"/>
	<path class="st0" d="M285.97,211.5c-7.83-1.86-15.65-3.07-23.64-0.7c-2.34,0.7-2.43,0.44-2.67-1.57c8.34-2.34,17.16-2.4,25.53-0.16
		l0.81,0.46L285.97,211.5z"/>
	<path class="st0" d="M279.52,253.41c-1.86-3.89-3.89-7.72-5.54-11.69c-1.74-4.2-3.62-7.83-9.2-6.63c-0.4,0.09-1.04-0.81-1.55-1.3
		c3.4-0.45,6.85-1.3,9.81,1.36l2.57,0.81c0,1.31-0.46,2.76,0,3.9c1.42,3.91,3.17,7.69,4.66,11.57
		C280.42,251.93,279.78,252.74,279.52,253.41z"/>
	<path class="st0" d="M334.48,185.6v0.23c1.28-3.16,2.06-6.69,6.48-8.67c-0.36,2.36-0.62,3.94-0.87,5.52l0.09-0.09
		c-0.62,0.84-1.12,1.76-1.51,2.73c-0.3,1.46-0.5,2.94-0.61,4.43l-1.17,0.29L334.48,185.6z"/>
	<path class="st0" d="M261.6,357.41l-2.36,0.62v1.06h0.12l-5.8,0.77v0.04c-1.48-1.89-2.97-3.78-4.46-5.67l-0.32-1.21l-1.75-2.83
		l1.43-1.35l7.29,8.43l4.74-2.43l1.3,0.13L261.6,357.41z"/>
	<path class="st0" d="M205.47,104.32c0.94,2.98,1.38,5.11,2.35,6.95c0.26,0.5,2.82,0.62,3.13,0.13c1.08-1.62,1.62-3.65,2.66-6.23
		c0.35,1.62,1.45,3.59,0.86,4.5c-1.1,1.69-3.16,3.76-4.86,3.8s-4.05-1.88-5-3.56C203.93,108.72,205.07,106.48,205.47,104.32z"/>
	<path class="st0" d="M350.78,182.92l0.19-0.17l-4.6,3.06c-1.89-3.82,0.05-6.39,6.34-7.82L350.78,182.92z"/>
	<path class="st0" d="M322.44,289.48c-1.21,5.29,0.1,7.11,4.86,6.82c1.68,1.62,1.17,2.67-1.73,3.68h0.06l-0.87-0.89l0.1,0.07
		l-1.72-0.87l0.09,0.06l-1.71-0.86l0.09,0.05l-1.7-0.85l0.07,0.07c-0.81-3.18-1.23-6.3,1.62-8.79L322.44,289.48z"/>
	<path class="st0" d="M340.12,182.68l3.87-5.75l1.04,0.36c-0.53,3.13-1,6.27-1.62,9.37c-0.07,0.36-1.12,0.81-1.62,0.7
		c-0.6-0.22-1.06-0.7-1.25-1.3c-0.19-1.15-0.3-2.31-0.32-3.47L340.12,182.68z"/>
	<path class="st0" d="M536.06,429.61c-3.01-5.59-6.04-11.16-9.02-16.77c-0.15-0.29,0.13-0.81,0.21-1.23
		c3.21,5.69,6.41,11.39,9.63,17.08L536.06,429.61z"/>
	<path class="st0" d="M347.45,273.08l2.23,1.62h-16.46v-1.34L347.45,273.08z"/>
	<path class="st0" d="M258.87,210.03c-0.06,0.5,0,1.42-0.19,1.47c-4.79,1.21-9.61,2.33-14.43,3.46c0.61-0.86,1.08-2.29,1.84-2.43
		C250.31,211.5,254.6,210.81,258.87,210.03z"/>
	<path class="st0" d="M581.47,431.85l4.2,6.57h-6.9C579.83,435.82,580.65,433.82,581.47,431.85z"/>
	<path class="st0" d="M146.93,212.3l-0.18-2.27c0.61,0.04,1.2,0.19,1.76,0.43c1.48,0.97,3.48,1.78,4.15,3.19
		c0.81,1.62,1.08,4.21-2.57,4.7c0.49-1.51,0.81-2.66,1.39-4.36L146.93,212.3z"/>
	<path class="st0" d="M537.06,217.35l-3,6.16c-2.43-2.56-1.09-7.48,2.59-9.2l0.39,3.07L537.06,217.35z"/>
	<path class="st0" d="M575.95,417.27c1,2.37,2.01,4.74,3.03,7.1l-6.66-0.81L575.95,417.27z"/>
	<path class="st0" d="M354.13,429.77l-0.1,0.1c-0.81-0.74-1.96-1.36-2.27-2.27c-0.41-1.17-0.14-2.59-0.16-3.91l-0.05,0.16l1.43-0.86
		l3.35,3.18L354.13,429.77z"/>
	<path class="st0" d="M351.99,278.86c-0.39,0.45-0.81,1.29-1.16,1.26c-4.64-0.3-9.27-0.72-13.9-1.16c-0.14,0-0.22-0.6-0.33-0.91
		C341.88,275.47,346.95,276.76,351.99,278.86z"/>
	<path class="st0" d="M611.25,303.9l8.1-1.94C617.78,306.72,614.81,307.41,611.25,303.9z"/>
	<path class="st0" d="M269.72,402.08l0.07,0.19l1.69,1.32l-0.11-0.06c-0.33,1.44-0.66,2.87-1,4.31c-0.51,2.15,0.05-0.06,0.04-0.05
		c-1.53-0.68-3.05-1.38-5.67-2.57L269.72,402.08z"/>
	<path class="st0" d="M574.97,414.05v2.37h-6.41l4.86-5.53l-0.05-0.11l0.87,1.72l-0.06-0.1l0.87,1.71L574.97,414.05z"/>
	<path class="st0" d="M422.99,406.25l-8.1,0.54C418.55,402.74,420.11,402.61,422.99,406.25z"/>
	<path class="st0" d="M275.65,235.97l-2.57-0.81l0.64-3.97c0.65,0.81,1.29,1.62,1.94,2.48l3.62-4.92l1.8-0.05L275.65,235.97z"/>
	<path class="st0" d="M443.07,342.01c-1.12-0.49-2.43-0.75-3.33-1.48c-1.95-1.55-3.72-3.34-5.56-5.03l0.04-0.1l0.96-1.38
		L443.07,342.01z"/>
	<path class="st0" d="M196.95,451.33c-3.79,2.48-5.14,2.14-6.48-1.62l0.24-0.23l-0.16-0.29L196.95,451.33z"/>
	<path class="st0" d="M320.89,361.5l-1.82-8.32l1.58-0.36l1.79,8.62L320.89,361.5z"/>
	<path class="st0" d="M345.12,199.46l-2.91,2.5c-0.66-0.85-1.72-1.66-1.83-2.58c-0.07-0.66,1.18-2.15,1.71-2.08
		C342.99,197.42,343.78,198.44,345.12,199.46z"/>
	<path class="st0" d="M579.12,425.55l2.43,5.83l-4.2-0.6C577.93,428.96,578.53,427.27,579.12,425.55z"/>
	<path class="st0" d="M286.33,217.36l1.36-4.86l2.43-0.22l-2.02,5.79L286.33,217.36z"/>
	<path class="st0" d="M430.9,330.35c0.11,0.12,0.24,0.23,0.39,0.31l2.85,2.49l0.08,2.26l-0.04,0.1l-5.11-4.35l1.18-1.34
		L430.9,330.35z"/>
	<path class="st0" d="M445.49,350.28l-2.68,3.45c-0.45-0.46-0.91-0.92-1.37-1.39l3.24-2.21L445.49,350.28z"/>
	<path class="st0" d="M322.44,289.48l-0.81-1.48l5.67-0.06v1.03L322.44,289.48z"/>
	<path class="st0" d="M179.22,446.7l-3.1,2.57l-0.85-1.21l2.19-1.62L179.22,446.7z"/>
	<path class="st0" d="M241.08,265.95l0.81-1.17l1.99,4.4C241.18,269.64,241.54,267.44,241.08,265.95z"/>
	<path class="st0" d="M283.2,259.47c-2.06-0.15-3.68-6.06-3.68-6.06l0.71-1.97C280.23,251.44,282.71,258.72,283.2,259.47z"/>
	<path class="st0" d="M336.13,258.65c0.66,0.67,1.84,1.35,1.84,2.02s-1.18,1.35-1.85,2.03C336.12,261.38,336.13,260,336.13,258.65z"
		/>
	<path class="st0" d="M322.45,254.01l-1.47-0.16l-1.04-0.22l0.85-1.33l3.24,0.74v0.81L322.45,254.01z"/>
	<path class="st0" d="M180.38,328.25l-2.85,2.5l-0.07-2.65l1.66-1.56l0.62,1.76L180.38,328.25z"/>
	<path class="st0" d="M322.83,348.99l-1.69,1.97l-0.77-1.02l2.43-0.96L322.83,348.99z"/>
	<path class="st0" d="M238.59,261.87l2.74,1.3l-1.52,1.62L238.59,261.87z"/>
	<path class="st0" d="M162.92,417.33l2.6,0.15v0.49l-2.58,0.17L162.92,417.33z"/>
	<path class="st0" d="M237.41,258.66l1.81,1.02l-1.01,1C237.94,260.01,237.67,259.33,237.41,258.66z"/>
	<path class="st0" d="M281.04,228.68l-1.8,0.05c0.36-0.7,0.71-1.4,1.06-2.1l1.38,0.36C281.46,227.56,281.25,228.12,281.04,228.68z"
		/>
	<path class="st0" d="M444.69,343.63l-1.62-1.62L444.69,343.63z"/>
	<path class="st0" d="M328.94,293.49c0.26-0.76,0.52-1.51,0.77-2.27l0.1,1.67L328.94,293.49z"/>
	<path class="st0" d="M328.9,255.42l2.48,0.81l-2.49-0.28C328.83,255.78,328.84,255.59,328.9,255.42z"/>
	<path class="st0" d="M264.92,401.15l-0.69-1.58c0.17-0.05,0.35-0.08,0.53-0.09c0.08,0.24,0.13,0.48,0.16,0.73V401.15z"/>
	<path class="st0" d="M434.22,335.41l-0.08-2.26l1.04,0.88L434.22,335.41z"/>
	<path class="st0" d="M329.8,292.89l-0.1-1.67l0.73-0.45c0,0.35,0.06,0.7,0.08,1.05L329.8,292.89z"/>
	<path class="st0" d="M179.74,328.3l-0.62-1.76l1.36,0.22C180.23,327.27,179.98,327.77,179.74,328.3z"/>
	<path class="st0" d="M328.1,294.72l0.81-1.24L328.1,294.72z"/>
	<path class="st0" d="M228.7,488.69l-0.81,0.81l-0.53-0.63l0.71-0.71L228.7,488.69z"/>
	<path class="st0" d="M335.32,257.82c0.29,0.29,0.57,0.59,0.87,0.89C335.89,258.41,335.61,258.14,335.32,257.82z"/>
	<path class="st0" d="M211.61,104.79c0.2-0.05,0.33-0.24,0.28-0.45c-0.01-0.04-0.02-0.08-0.05-0.11
		C211.9,104.45,211.81,104.68,211.61,104.79z"/>
	<path class="st0" d="M169.05,429.16l-0.11,0.87l-0.45-0.41C168.62,429.42,168.82,429.26,169.05,429.16z"/>
	<path class="st0" d="M322.79,505.18c1.89-4.61,3.78-9.22,5.67-13.83l0.22-1.03l-1.01,0.19c-4.01,2.19-7.98,4.48-12.06,6.53
		c-1.37,0.7-3.01,0.81-4.53,1.24v-1.62c0.5-0.53,1-1.06,1.5-1.62h0.12l0.87-0.88l-0.08,0.08c4.27-2.31,8.52-4.69,12.85-6.89
		c1.37-0.54,2.78-0.94,4.23-1.21l-0.06-0.07l1.69,2.1l0,0c-1.92,4.67-3.73,9.4-5.81,14c-0.6,1.34-1.96,2.35-2.97,3.51
		C323.21,505.5,323.01,505.33,322.79,505.18z"/>
	<path class="st0" d="M319.98,470.02c-4.37,2.73-8.72,5.51-13.14,8.15c-1.23,0.58-2.52,1.04-3.85,1.37c0-0.81,0-1.55,0-2.32
		c4.47-3.08,8.91-6.23,13.45-9.17c0.9-0.58,2.31-0.4,3.48-0.56C319.94,468.33,319.96,469.17,319.98,470.02z"/>
	<path class="st0" d="M298.93,473.13c0.02-0.26,0.09-0.52,0.19-0.76l2.27,3.18l-0.07,0.07L298.93,473.13z"/>
	<path class="st0" d="M312.57,495.09c-0.49,0.53-1,1.06-1.5,1.62l-1.56-1.75c0.22,0.14,0.5,0.18,0.75,0.11L312.57,495.09z"/>
	<path class="st0" d="M302.88,476.4l0.14,0.81l-1.7-1.62l0.07-0.07L302.88,476.4z"/>
	<path class="st0" d="M261.7,398.7c0.07-0.27,0.07-0.54,0-0.81l1.51,1.36l-0.81,0.7L261.7,398.7z"/>
	<path class="st0" d="M237.46,367.12l2.02,1.03l-2.03,0.25C237.45,367.97,237.45,367.55,237.46,367.12z"/>
	<path class="st0" d="M200.9,371.22l2.24,1.38c-0.45,0.52-0.89,1.04-1.33,1.57l-0.85-2.25C200.97,371.68,200.95,371.45,200.9,371.22
		z"/>
	<path class="st0" d="M165.91,350.21l1.54,0.4c-0.13,0.3-0.25,0.6-0.37,0.9l-1.38-0.75L165.91,350.21z"/>
	<path class="st0" d="M243.04,369.62l-1.93-0.87c0.18-0.27,0.36-0.53,0.53-0.81l1.51,1.56L243.04,369.62z"/>
	<path class="st0" d="M243.15,369.52l0.31,0.24l-0.41-0.14L243.15,369.52z"/>
	<path class="st0" d="M280.36,269.99v-0.81l1.04,0.54L280.36,269.99z"/>
	<path class="st0" d="M433.6,345.14c-0.55,7.72-0.61,7.57-7.41,9.95c-3.32,1.17-5.76,1.21-7.64-2.22c-1.38-2.53-4.99-4.05-3.24-7.91
		c0.18-0.65,0.28-1.31,0.3-1.98c1.22-7.03,2.43-8.31,9.34-9.71c0.87-0.21,1.79-0.05,2.54,0.45
		C430.86,337.02,436.16,339.48,433.6,345.14z M422.94,353.94c1.72-0.64,3.77-1.31,5.73-2.18c0.89-0.4,2.2-1.1,2.31-1.81
		c0.7-4.71,1.89-9.36-2.57-13.42c-2.39-2.18-4.09-0.9-6.14-0.51s-3.6,0.81-4.24,3.43C416.64,345.2,417.25,350.06,422.94,353.94z"/>
	<path class="st0" d="M405.02,340.23c0.09,5.47-3.92,9.93-8.91,9.92c-4.86,0-8.82-4.23-8.91-9.54c-0.09-5.47,3.92-9.93,8.91-9.92
		C400.97,330.69,404.93,334.92,405.02,340.23z M396.12,333.19c-3.99-0.01-7.24,3.22-7.25,7.21s3.22,7.24,7.21,7.25
		c3.99,0.01,7.24-3.22,7.25-7.21c0-0.03,0-0.07,0-0.1C403.25,336.39,400.05,333.22,396.12,333.19L396.12,333.19z"/>
	<path class="st0" d="M425.9,328.33l-4.67-3.81c-3.89-3.16-7.09-8.49-13.63-3.24c-0.15-0.45-0.32-0.88-0.47-1.32l1.98-3.62
		c0.94,0.2,2.14,0.87,2.78,0.52c2.1-1.14,3.71-0.7,5.25,0.85l2.43,1.62l0,0l0.81,0.81l0,0l7.33,5.67l-0.04-0.04
		c0.29,0.81,0.58,1.62,0.87,2.43L425.9,328.33z"/>
	<path class="st0" d="M398.03,315.05c1.06,1.13,2.57,3.41,3.08,3.2c1.8-0.72,3.24-2.31,4.65-3.43c0.39,2.43-0.63,4.78-4.05,5.32
		c-3,0.49-4.71-1.92-4.76-6.3L398.03,315.05z"/>
	<path class="st0" d="M425.9,328.33l2.61-0.06l1.75,1.55l-1.18,1.34L425.9,328.33z"/>
	<path class="st0" d="M336.2,363.47c0.88-2.16,1.55-4.46,2.76-6.43c0.6-0.99,2.19-1.37,3.33-2.02c-1.52,3.24-3.04,6.48-4.56,9.71
		L336.2,363.47z"/>
	<path class="st0" d="M246.38,242.49c0.19-0.72,0.17-1.91,0.59-2.09c5.16-2.25,10.39-4.35,15.59-6.48c0.19,0.55,0.34,1.11,0.45,1.68
		C257.49,237.95,251.93,240.22,246.38,242.49z"/>
	<path class="st0" d="M261.64,275.61c0.13,0.56,0.53,1.44,0.33,1.62c-1.93,1.72-3.98,3.31-5.99,4.94c0.24-1,0.16-2.33,0.81-2.93
		C258.32,277.91,259.94,276.7,261.64,275.61z"/>
	<path class="st0" d="M271.87,270.74l-6.17,2.43c-0.21-0.38-0.38-0.77-0.53-1.17C267.23,270.71,269.18,268.71,271.87,270.74z"/>
	<path class="st0" d="M265.72,273.15c-1.34,2.76-2.22,3.29-4.05,2.43L265.72,273.15z"/>
	<path class="st0" d="M298.14,401.06l-2.43-1.55l4.05-3.89c0.18,0.23,0.36,0.45,0.54,0.66L298.14,401.06z"/>
	<path class="st0" d="M336.99,415.69l-2.32,2.34l0.68-2.32L336.99,415.69z"/>
	<path class="st0" d="M301.61,396.46v-1.2h0.33v1.21L301.61,396.46z"/>
	<path class="st0" d="M325.99,410.75v0.87l-1.67-0.61L325.99,410.75z"/>
	<path class="st0" d="M327.17,255l0.15-0.7l-0.1,0.74L327.17,255z"/>
	<path class="st0" d="M336.97,423.66c-0.07,1.73-0.15,3.46-0.23,5.43l-2.19-0.46l0.06,0.09l-2.12-0.85c-0.17,0.05-0.27,0-0.31-0.07
		c0.21-1.66,0.43-3.33,0.64-5l2.58-1.42L336.97,423.66z"/>
	<path class="st0" d="M332.15,488.21L332.15,488.21l-1.69-2.1l0.06,0.07c-2.7-5.14-5.42-10.27-8.17-15.38c-0.06-0.11-0.5,0-0.81,0
		l-0.11-0.05c-0.43-1.33-0.86-2.67-1.3-4c-2.64-4.28-5.29-8.56-7.95-12.83c-0.9-1.43-1.85-2.82-2.78-4.23l7.12,3.35l4.23,4.34
		c-0.29,0.37-0.91,0.96-0.81,1.08c3.24,4.86,6.48,9.61,9.71,14.4c0.11,0.16,0.15,0.23,0.09,0.2L332.15,488.21z"/>
	<path class="st0" d="M332.18,427.8c0.04,0.1,0.14,0.12,0.31,0.07l2.12,0.85l-0.06-0.09c-0.81,0.95-1.45,2.17-2.43,2.78
		c-3.06,1.88-6.26,3.52-9.41,5.25l-0.23-0.27c-0.29-0.45-0.58-0.89-0.87-1.34l0.12,0.1l-1.76-0.87l0.11,0.07l-1.72-0.85l0.09,0.04
		l-1.81-2.23l2.87-1.5c2.83-1.11,5.72-2.07,8.65-2.87C329.34,426.67,330.82,427.48,332.18,427.8z"/>
	<path class="st0" d="M270.64,225.48l2.2-5.32l1.13,1.28L270.64,225.48z"/>
	<path class="st0" d="M268.16,227.8l2.49-2.32c-0.35,1.08-0.7,2.16-1.06,3.24l-0.6,1.48l-0.87-0.44L268.16,227.8z"/>
	<path class="st0" d="M418.79,577.65l-9.71,7.24l-0.95-0.87l1.22-1.24c2.43-1.62,4.79-3.24,7.29-4.81
		C417.16,577.62,418.05,577.75,418.79,577.65z"/>
	<path class="st0" d="M440.65,562.54l-4.05,2.2l1.02-1.44l2.43-1.62c0.22-0.04,0.44-0.05,0.66-0.05
		C440.64,561.89,440.64,562.2,440.65,562.54z"/>
	<path class="st0" d="M171.1,447.5l0.23-1.05l1.04,1.13L171.1,447.5z"/>
	<path class="st0" d="M268.98,230.2l0.6-1.48l3.92,2.39L268.98,230.2z"/>
	<path class="st0" d="M293.28,435.86c-0.01,0.23,0.12,0.43,0.33,0.53c-0.76,7.71-1.52,15.41-2.27,23.11l-1.42,0.16
		c-0.29-1.39-0.42-2.81-0.4-4.23c0.64-5.72,1.45-11.42,2.36-18.41c-4.05,4.93-7.24,9.03-10.67,12.95c-0.66,0.76-2.15,0.81-3.24,1.17
		l0.74-1.08c3.72-4.56,7.52-9.04,11.1-13.71C291.03,434.74,291.94,434.77,293.28,435.86z"/>
	<path class="st0" d="M278.67,450.01l-0.74,1.08h-0.33h-0.34c-0.38-1.33-1.03-2.65-1.09-3.99c-0.26-5.31-0.29-10.63-0.52-15.94
		c-0.17-1.08-0.47-2.13-0.88-3.13l-0.91-1.01l3.52-0.7C277.83,434.57,278.25,442.31,278.67,450.01z"/>
	<path class="st0" d="M323.37,505.71l-0.74,0.49l0.17-1.01C323,505.34,323.19,505.52,323.37,505.71z"/>
	<path class="st0" d="M273.85,427.04l0.91,1.01l-11.07,16.39c0.19-1.12,0.09-2.43,0.63-3.33c2.83-4.72,5.81-9.34,8.74-14
		C273.32,427.03,273.59,427,273.85,427.04z"/>
	<path class="st0" d="M320.18,466.7c0.44,1.33,0.87,2.66,1.3,4l-1.41,0.06c-0.05-0.25-0.09-0.49-0.11-0.74c0-0.81,0-1.68-0.04-2.53
		L320.18,466.7z"/>
	<path class="st0" d="M320.09,470.76l1.41-0.06l0.11,0.05c-0.13,1.25,0,2.6-0.44,3.72c-1.68,4.23-3.6,8.35-5.29,12.57
		c-0.95,2.35-1.62,4.8-2.43,7.21l0.08-0.08l-0.87,0.88h-0.12l-2.31-0.05c0.81-2.9,1.42-5.91,2.58-8.67
		C315.08,481.09,317.65,475.96,320.09,470.76z"/>
	<path class="st0" d="M575.19,228.74c-2.88,2.19-4.47,4.31-6.32,4.57c-2.71,0.38-4.29-1.89-4.27-4.64c0.02-2.74,1.62-5.01,4.34-4.58
		C570.79,224.38,572.35,226.52,575.19,228.74z"/>
	<path class="st0" d="M618.56,287.46l-5.04,4.29c-1.21-1.5-3.24-2.94-3.38-4.52c-0.1-1.31,2.08-2.79,3.24-4.21L618.56,287.46z"/>
	<path class="st0" d="M604.12,254.9c1.07,1.58,2.75,3.05,3.05,4.76c0.43,2.49-1.21,4.86-3.85,4.36c-1.53-0.28-3.53-2.57-3.72-4.14
		c-0.19-1.57,1.71-3.24,2.68-4.91L604.12,254.9z"/>
	<path class="st0" d="M146.93,419.52h-9.23l-0.58-1.05c1.62-0.91,3.29-2.54,4.94-2.54c1.81,0,3.62,1.51,5.43,2.36L146.93,419.52z"/>
	<path class="st0" d="M137.69,422.4h9.06C143.77,426.4,141.01,426.44,137.69,422.4z"/>
	<path class="st0" d="M545.12,380.6c-0.06-3.24,2.43-6.1,5.2-6.11c2.77-0.01,5.36,2.91,5.17,6.1s-1.62,5.48-4.96,5.85
		C547.74,386.74,545.17,383.84,545.12,380.6z"/>
	<path class="st0" d="M424.46,573.6l-4.05,2.43l1.84-2.19L424.46,573.6z"/>
	<path class="st0" d="M420.41,576.02l-1.62,1.62L420.41,576.02z"/>
	<path class="st0" d="M432.56,567.95l-4.05,2.43l0.56-1.11l1.04-0.73L432.56,567.95z"/>
	<path class="st0" d="M436.63,564.67l-0.32,1.35l-2.17,0.32l1.07-1.39L436.63,564.67z"/>
	<path class="st0" d="M426.9,571.97l-2.43,1.62c0.06-0.48,0.13-0.96,0.19-1.44L426.9,571.97z"/>
	<path class="st0" d="M428.52,570.35l-1.62,1.62c0.06-0.49,0.11-0.99,0.16-1.48L428.52,570.35z"/>
	<path class="st0" d="M417.15,231.56l-1.05-1l1.87-0.3C417.69,230.7,417.42,231.14,417.15,231.56z"/>
	<path class="st0" d="M521.58,124.6c-1.05,3.48-1.7,6.14-5,6.05c-3-0.08-3.91-2.56-3.9-5.12c0-2.72,0.99-5.58,4.15-5.11
		C518.58,120.69,520.01,123.14,521.58,124.6z M516.31,129.27l1.3-0.08c0.49-1.37,1.46-2.78,1.31-4.05c-0.12-1.11-1.53-2.07-2.38-3.1
		c-0.72,1.28-1.92,2.53-2.02,3.85C514.48,126.99,515.67,128.13,516.31,129.27z"/>
	<path class="st0" d="M339.61,477.71c-4.93-13.51-9.85-27.02-14.9-40.88l12-4.64c1.37,15.49,2.69,30.42,4,45.34L339.61,477.71z"/>
	<path class="st0" d="M352.62,472.68c-0.11,0.95-0.21,1.9-0.31,2.86l-1.12,2.59l-0.51-0.07c0.61-14.75,1.21-29.5,1.85-44.99
		l9.99,3.63C359.16,448.96,355.89,460.84,352.62,472.68z"/>
	<path class="st0" d="M264.93,339.54c0.05-5.81,4.8-10.48,10.61-10.43c5.81,0.05,10.48,4.8,10.43,10.61
		c-0.05,5.8-4.78,10.46-10.57,10.44c-5.81-0.03-10.5-4.76-10.48-10.57C264.92,339.56,264.93,339.55,264.93,339.54z M273.99,346.93
		c4.62,1.4,8.65-0.63,10-5.05s-1-8.26-5.54-9.67c-1.49,4.92-2.96,9.83-4.42,14.73H273.99z M275.42,331.88
		c-4.57,0.66-6.48,3.1-7.04,6.48c-0.53,3.17,0.41,5.93,3.94,7.88L275.42,331.88z"/>
	<path class="st0" d="M285.37,314.46c0,0.4-0.19,0.87,0,1.19c0.58,1.48,1.36,2.88,2.3,4.17c0.28,0.33,2.52-0.19,2.69-0.71
		c0.48-1.43,0.32-3.08,0.42-4.63l1.72-0.14c1.44,2.43,1.2,5.01-1.17,6.28c-1.84,0.82-3.93,0.82-5.77,0
		c-2.37-1.27-2.61-3.83-1.17-6.28L285.37,314.46z"/>
	<path class="st0" d="M523.3,406.12l-6.05,3.48c-0.92-1.92-1.72-3.56-2.69-5.59l6.1-3.42L523.3,406.12z"/>
	<path class="st0" d="M211.54,337.94c0.04,0.58-0.01,1.16-0.16,1.72c-0.52,1.36-1.24,2.63-2.13,3.77c-0.25,0.28-2.37-0.38-2.58-0.98
		c-0.43-1.22-0.63-3.03,0-3.96c0.49-0.71,2.43-0.49,3.68-0.62c0.43,0,0.86,0.05,1.28,0.15L211.54,337.94z"/>
	<path class="st0" d="M216.4,344.41c0.08,0.66,0.03,1.34-0.14,1.98c-0.6,1.01-1.27,1.97-2.01,2.88c-0.64-0.75-1.94-1.76-1.77-2.2
		c0.38-0.99,1.43-1.76,2.34-2.43c0.36-0.28,1.05-0.14,1.62-0.19L216.4,344.41z"/>
	<path class="st0" d="M429.79,340.72c-2.8,0.45-5,0.35-6.61,1.27c-0.81,0.45-1.13,3.49-0.46,4.19c1.26,1.31,3.41,1.77,5.67,2.83
		c-1.42,0.28-3.66,1.38-4.4,0.74c-1.62-1.4-3.36-3.68-3.38-5.61c0-1.72,1.9-4.14,3.59-4.96
		C425.42,338.57,427.7,340.06,429.79,340.72z"/>
</g>
</svg>
