<?xml version="1.0" encoding="utf-8"?>
<!-- Generator: Adobe Illustrator 23.0.0, SVG Export Plug-In . SVG Version: 6.00 Build 0)  -->
<svg version="1.1" id="Capa_1" xmlns="http://www.w3.org/2000/svg" xmlns:xlink="http://www.w3.org/1999/xlink" x="0px" y="0px"
	 viewBox="0 0 578.94 636.38" style="enable-background:new 0 0 578.94 636.38;" xml:space="preserve">
<style type="text/css">
	.st0{fill:#A4793C;}
</style>
<g>
	<title>logo_pandaria</title>
	<path class="st0" d="M412.5,206.27c-7.73,4.65-16.19,7.98-24.24,12.08c-8.04,4.1-16.35,7.88-24.67,11.86
		c0.57,1.48,1.04,2.67,1.61,4.2c2.22-1.06,4.26-2.03,6.29-3.02l39.35-19.18c3.37-1.61,7.64,0.93,8.05,4.71
		c0.14,1.26,0.86,2.46,1.27,3.7c0.21,0.64,0.64,1.48,0.41,1.95c-2.14,4.24,1.07,6.67,3.61,8.25c5.37,3.24,10.05,7.51,13.75,12.57
		c0.37-5.38,0.72-10.32,1.05-15.25l-4.91-1.3l1.93-4.58l-0.72,0.24l-1.08-5.64l-3.29-0.23c0.26-3.72,0.51-7.41,0.81-11.35
		c-3.84-0.17-7.07-0.76-8.05-4.76c-0.08-0.29-0.35-0.56-0.33-0.81c0.45-6.1-4.87-9.99-6.01-15.61c-0.53-2.65-3.34-4.79-4.83-7.32
		c-0.43-0.71,0.1-1.99,0.68-3.03c2.63,5.4,7.5,9.21,8.91,15.11c0.35,1.44,1.84,2.58,2.55,3.98c0.58,1.12,0.92,2.34,0.98,3.6
		c0.1,4.66,1.18,6.03,5.71,6.22c2.06,0.09,2.98,0.81,2.8,2.87c-0.15,1.78-0.38,3.53,1.52,4.83c0.32,0.22-0.69,2.36-1.08,3.58
		c0.81,0.23,2.7,0.2,3.31,1.09c0.61,0.89-0.28,2.58-0.51,3.98c2.49,1.52,2.49,1.52,0.87,5.78c4.03,0.61,3.95,0.6,3.22,4.92
		c-0.42,2.57-0.5,5.2-0.7,7.8c0,0.38,0,0.93,0.22,1.14c4.03,3.45,1.71,7.5,1.34,11.47c-0.21,2.28,0.36,4.66,0.81,6.97
		c1.61,9.12-0.2,17.54-4.98,25.38c-0.81,1.36-0.71,2.31-0.27,3.96c0.81,3.12,2.79,6.63-0.25,9.9c-0.63,0.68-0.45,2.09-0.64,3.17
		c0,0.09,0.07,0.23,0,0.29c-2.19,2.6-2.13,5.64-1.61,8.7c0.04,0.58,0.04,1.15,0,1.73c0.04,1.1,0.53,2.42,0.09,3.27
		c-2.09,4.07-4.44,8.05-6.69,12.01c-0.18,0.32-0.59,0.81-0.5,0.96c2,2.58-0.81,2.79-1.81,3.97c-1.19,1.24-2.12,2.71-2.75,4.31
		c-0.88,2.71-2.18,4.15-4.72,3.36c0.96-2.21,1.91-4.42,2.86-6.64c0.04-0.1,0-0.21,0.09-0.29c1.66-2.5,3.37-4.97,4.97-7.5
		c2.28-3.62,4.49-7.25,6.77-11.02c-1.8-1.61-3.22-3.05-1.14-4.94c-1.8-3-0.15-5.4,1.22-7.94c0.62-1.14,0.48-2.67,1.01-3.88
		c0.77-1.73,2.6-3.11,0.6-5.31c-0.52-0.57,0.08-2.16,0.22-3.99c-2.34,2.07-3.94,4.09-6.03,5.24c-5.3,2.94-9.73,6.35-10.63,12.88
		c-0.28,1.44-0.77,2.82-1.44,4.12c-0.63,1.45-1.42,2.82-2.36,4.09c-1.41,1.8-3.06,3.4-4.9,5.41l-47.94-24.47
		c-0.68,1.23-1.29,2.35-2.06,3.74l50.3,25.08l-4.98,4.53c-0.27,2.42-0.53,4.67-0.81,7.41c-1.41-0.72-2.12-1.01-2.75-1.42
		c-8.05-5.05-16.11-10.11-24.16-15.19c-1.04-0.61-1.97-1.36-2.79-2.25c-2.11-2.48-4.37-4.16-7.96-3.73
		c-1.27,0.15-2.74-0.95-4.03-1.61c-2.32-1.18-4.54-2.54-6.89-3.65c-0.67-0.31-1.61,0-2.46,0.08c0,0.29,0,0.59-0.04,0.89
		c3.07,1.88,6.04,3.95,9.25,5.55c1.61,0.81,3.72,0.53,5.48,1.12c1.29,0.43,2.92,1.26,3.36,2.33c0.31,0.81-0.81,2.54-1.75,3.36
		c-2.46,2.18-5.14,4.13-7.79,6.1c-2.01,1.5-6.03,0.3-7.36-1.82c-0.81-1.16-1.88-2.12-3.13-2.79c-1.27-0.72-2.81-0.98-4.2-1.53
		c-1.39-0.55-2.67-1.18-4.25-1.89l-1.3,1.1c0.23,0.34,0.33,0.68,0.55,0.81c2.3,1.19,4.61,2.42,6.97,3.49
		c1.96,0.9,3.71,1.78,4.27,4.21c0.14,0.6,1.72,1.36,2.51,1.23c3.08-0.51,5.35,0.81,7.68,2.5c5.78,4.24,11.68,8.32,16.91,12
		c-0.97,1.91-1.7,3.39-2.46,4.83c-0.69,1.32-1.12,3.34-2.19,3.79c-3.84,1.61-3.22,4.98-3.81,7.93c-0.13,0.65-0.28,1.3-0.6,2.74
		c-10.7-14.41-20.98-28.26-31.26-42.07c-3.88,1.29-5.18,3.68-5.15,7.85c0.19,34.35,0.1,68.7,0.1,103.07v3.68h-79.26v-3.5
		c0-34.85,0-69.71,0-104.56c-0.11-1.18-0.35-2.36-0.69-3.49l-1.1,0.16c0,7,0.11,13.99-0.07,20.98c-0.07,1.84-0.65,3.63-1.67,5.16
		c-5.64,8.14-11.54,16.15-17.35,24.16c-0.5,0.62-1.04,1.22-1.61,1.78l-9.66-11.13l26.57-44.1l-0.48-0.68
		c-4.03,5.09-10.47,4.7-15.21,7.63c-4.32-2.75-7.76-6.68-9.91-11.33c-1.07-2.38-0.81-2.98,1.87-3.05c5.94-0.17,6.5-0.39,10.95-4.26
		c-1.3-1.82-1.39-1.93-2.94-0.81c-2.76,2.03-6.06,3.18-9.48,3.29c-0.76,0.11-1.47,0.48-1.99,1.05c-3.09,3.16-5.64,7.09-9.26,9.46
		c-8.05,5.33-16.66,9.9-25.53,15.07c-3.22-4.83-6.44-9.66-9.88-14.82l50.12-26.88l-1.34-2.92l-50.88,25.28l-4.03-10.82l10.11-8.18
		c-4.58,0.21-8.54,0.27-11.69,4.67c-0.74-4.78-4.2-4.39-6.99-5.46c-4.7-1.8-9.19-4.2-13.54-6.23c0.72,2.86,0.85,6.7,2.66,9.44
		c1.38,2,2.16,4.36,2.23,6.79c0.07,1.15,2.18,2.38,3.58,3.22c2.42,1.42,3.43,3.16,2.71,5.97c0.03,0.85,0.51,1.63,1.26,2.04
		c2.21,0.39,2.29,1.73,1.81,3.33c-0.39,1.02-0.85,2.01-1.38,2.96c-0.72,1.52-0.94,3,1.01,3.7s1.94,1.87,1.52,3.57
		c-1.06,4.36-0.35,4.98,3.85,5.96c1.72,0.4,3.12,2.21,5.25,3.83c-0.81,0.34-1.14,0.6-1.36,0.54c-2.63-0.65-5.27-1.26-7.84-2.06
		c-1.68-0.53-3.05-4.6-2.73-7.35c0.16-0.67,0.11-1.37-0.15-2.01c-3.16-4.36-3.22-4.33-0.81-9.51c-3.29-0.61-3.45-2.75-2.89-5.56
		c0.62-3.16-2.42-3.88-4.29-5.05c-1.71-1.08-2.87-1.78-2.37-4.15c0.22-0.98-1.05-2.22-1.39-3.41c-1.32-4.83-2.5-9.66-3.82-14.49
		c-0.29-1.24-0.82-2.42-1.56-3.46c-10.32-13.24-10.89-30.08-1.32-43.97c1.05-1.53,1.31-2.5,0-4.13c-0.68-0.81-0.12-2.69,0.21-4.1
		c-1.61-2.75-1.51-3.22,1.44-4.66c1.43-0.7,2.87-1.37,4.46-2.13c-2.17-2.62-2.02-4.89,0.19-7.3c0.86-0.94,0.88-2.61,1.44-3.87
		c0.53-1.05,1.12-2.07,1.77-3.06c0.81-4.21,1.24-8.48,2.46-12.51c0.39-1.3,2.79-2.01,3.91-3.12c0.98-1.4,1.67-3.34,3.03-4.08
		c2.5-1.39,3.08-3.39,3.22-5.85c0.14-2.46,1.03-4.6,3.54-5.81c0.62-0.3,0.7-1.55,1.25-2.16c0.6-0.73,1.39-1.29,2.28-1.61
		c1.33-0.35,3.08-0.39,3.14,1.43c0,0.65-1.75,1.36-2.56,2.19c-1.13,0.97-2.53,1.75-3.32,2.94c-1.07,1.48-1.78,3.19-2.07,4.99
		c-0.23,2.63-0.72,4.57-3.54,5.56c-0.75,0.27-1.11,2.01-1.37,3.13c-0.14,0.6,0.48,1.34,0.48,2.01c-0.07,0.82-0.21,1.63-0.44,2.42
		c-0.73-0.11-1.44-0.32-2.12-0.6c-2.27-1.32-3.75-0.93-4.03,1.65c-0.35,3.12-0.6,6.44,0.09,9.43c0.9,3.91,1.1,4.08-2.7,3.57
		c-1.25,2.03-2.39,4.13-3.41,6.28c-0.23,0.55,0.45,1.8,1.05,2.34c2.42,2.17,2.42,2.67-0.54,4.09c-1.61,0.81-3.22,1.51-4.03,2.63
		l-1.23,6.73c6.51-6.21,13.29-10.03,21.29-11.27c0.25-1.39,0.47-2.63,0.67-3.73l11.08,4.44c0.19-0.35,0.39-0.7,0.57-1.05
		c-0.59-0.59-1.21-1.15-1.87-1.66c-1.82-1.23-3.69-2.42-5.55-3.59c-2.87-1.84-3.37-4.9-1.09-7.48c0.61-0.45,1.36-0.67,2.11-0.6
		c6.09,0.1,12.11,1.38,17.72,3.78c11.33,4.69,22.81,9.02,34.46,13.58c0.46-0.93,0.88-1.76,1.39-2.82
		c-9.51-3.7-18.67-7.68-28.12-10.83c-8.86-2.95-15.3-9.24-23.62-14.69l6.07-3.62c-2.75-4.78,1.16-7.5,4.22-11.19l9.63,11.19
		c-3.69,1.72-5.72,4.03-4.94,7.19c0.43,1.8,2.01,4.03,3.61,4.61c1.29,0.48,3.38-1.18,4.93-1.8l29.13,17.39
		c1.06-0.94,1.26-2.24-0.52-3.49c-2.53-1.76-5.1-3.47-7.58-5.31c-0.81-0.58-1.96-1.61-1.87-2.24c0.9-6,2.04-11.97,3.15-17.95
		c0.06-0.33,0.44-0.6,0.72-0.95c4.98,4.28,9.92,8.55,14.91,12.75c0.75,0.46,1.56,0.8,2.42,1.02c-0.25-0.82-0.56-1.63-0.9-2.42
		c-0.48-0.98-1.17-1.86-1.61-2.84c-2.64-5.5-5.29-10.99-7.84-16.54c-2.11-4.73-4.85-9.15-8.13-13.15
		c-3.89-4.68-6.26-10.61-9.39-16.16l4.49-2.8l27.31,49.4c2.97-1.65,2.96-1.65,1.51-4.47c-0.91-1.76-1.79-3.52-2.58-5.1l6.09,5.92
		l3.27-2.65c-11.19-7.18-17.51-17.99-23.71-28.9c4.21-1.14,6.2-3.49,5.92-6.94c-0.23-2.72-2.21-5.21-4.38-5.51
		c-2.37-0.32-4.12,1.51-5.69,6.12l-6.49-10.32l14.6-9.24c1.73,3.61,3.35,6.9,4.91,10.23c2.42,5.07,4.49,10.28,7.17,15.19
		c2.25,3.98,4.81,7.78,7.66,11.36c1.43,1.86,2.36,3.55,2.23,5.95c-0.18,3.41-0.05,6.84-0.05,10.25l0.93,0.22
		c0.41-1.07,0.7-2.18,0.85-3.32c0.06-16.91,0-33.82,0-50.77v-38.78h5.25v29.79l0.91,0.16l1.34-5.27c4.03-2.42,5.89-6.55,9.47-8.76
		c-3.86-3.56-5.79-2.25-9.46,0.16v-16.04h14.96v12.08c3.62-1.11,2.04-3.76,2.27-5.57c0.15-2.14,0.18-4.3,0.06-6.44h20.7
		c1.68,2.71-1.3,6.84,1.72,9.32l1.01-0.19v-9.15h6.44c1.61,3.99-1.41,8.96,1.76,12.65l1.07-0.18v-12.51h16.25v2.81
		c0,6.85-0.21,13.69,0.06,20.55c0.22,5.48,1.26,10.92,1.49,16.39c0.05,4.3-0.13,8.6-0.56,12.88c-0.2,2.78-0.9,5.53-0.94,8.31
		c-0.13,8.76,0,17.52-0.08,26.29c0,1.84,0.32,3.14,2.93,3.36v-3.42c0-28.1,0-56.21,0-84.32c0-1.38-0.81-3.62,2.54-2.81v3.44
		c0,28.81,0,57.62,0,86.43c0,4.24,2.75,6,6.51,4.2c2.05-1.06,4.21-1.88,6.44-2.46c-0.94,0.97-1.89,1.93-2.8,2.94
		s-1.84,2.13-2.89,3.37l2.14,1.73c10.27-15.46,20.39-30.73,30.6-46.12l4.21,3.45l-13.08,18.94c-5.81,8.41-11.64,16.81-17.38,25.26
		c-0.48,0.72-0.29,1.9-0.41,2.87l0.95,0.18l32.3-43.69c3.9-0.16,7.52,1.99,9.25,5.48c-5.04,4.45-10.14,8.95-15.25,13.44
		c-2.62,2.3-5.05,4.9-8.75,5.56c-0.57,0.15-1.04,0.54-1.29,1.08c-2.72,7.77-9.55,12.24-14.49,18.21c-0.26,0.31-0.54,0.59-0.86,0.94
		c0.19,0.34,0.42,0.66,0.67,0.97c0.28,0.23,0.59,0.42,0.92,0.57c3.65-3.9,7.33-7.76,10.92-11.69c1.17-1.28,2.31-2.26,4.13-1.5
		c1.99,0.81,4.15,0.85,5.01,3.83c1.34,4.64,1.26,8.16-3.16,11.17c-3.04,2.07-5.59,4.9-8.21,7.55c-0.64,0.65-0.69,1.9-1.01,2.87
		l1.02,0.54l5.5-5.37c1.95-1.9,3.58-4.42,5.88-5.64c11.55-5.93,16.91-18.17,26.72-25.77c0.55-0.43,1.02-0.95,1.48-1.39
		c1.88,2,3.7,3.92,5.48,5.86c1.1,1.19,1.22,2.18-0.47,3.06c-2.57,1.34-5.03,2.91-7.61,4.23c-0.76,0.35-1.63,0.38-2.42,0.09
		c-1.93-1.06-4.33-0.65-5.79,0.99c-1.52,1.51-2.21,3.32-1.16,5.47c1.11,2.29-0.89,3.01-2.2,3.85c-7.25,4.65-14.55,9.21-21.84,13.81
		c-0.63,0.3-1.23,0.68-1.76,1.13c-0.39,0.55-0.69,1.16-0.91,1.8c0.65,0,1.45,0.16,1.95-0.14c5.98-3.66,11.9-7.41,17.84-11.13
		c1.1-0.69,2.22-1.36,3.29-2.09c6.81-4.65,14.49-6.64,22.55-7.62c1.52-0.19,3.05-0.4,4.57-0.61L412.5,206.27z M366.27,260.73
		c1.51-35.82-28.85-70.56-69.46-71.31c-41.25-0.81-70.63,32.27-72.71,66.39c-2.71,44.49,33.22,76,70.06,76.37
		C336.58,332.59,367.89,296.86,366.27,260.73z M208.52,263.14c-0.03-19.03-15.48-34.43-34.51-34.4
		c-19.03,0.03-34.43,15.48-34.4,34.51c0.03,18.98,15.4,34.36,34.38,34.4c19.04-0.08,34.46-15.49,34.54-34.54V263.14z M407.26,228.75
		c-19.03,0.06-34.41,15.53-34.35,34.56c0.06,19.03,15.53,34.41,34.56,34.35c18.98-0.06,34.33-15.45,34.35-34.42
		c-0.09-19.04-15.52-34.45-34.56-34.51V228.75z M294.94,340.54c-18.79,0-34.42,15.57-34.45,34.3c0,19.06,15.4,34.53,34.46,34.63
		c18.79,0,34.42-15.56,34.45-34.3C329.38,356.12,313.99,340.66,294.94,340.54z M295.59,115.07c-18.81,0-34.46,15.54-34.49,34.26
		c0,19.04,15.38,34.51,34.42,34.63c18.81,0,34.46-15.54,34.49-34.26c-0.01-19.03-15.38-34.49-34.42-34.6V115.07z M264.99,417.09
		h60.56v-21.77c-0.69,0.84-1.05,1.9-1.02,2.99c-0.04,4.53-0.16,9.07,0,13.58c0.11,2.67-0.52,3.64-3.44,3.62
		c-16.6-0.15-33.22-0.07-49.82-0.07h-2.97c0-4.83-0.1-9.16,0.04-13.47c0.09-2.64-1.35-4.03-3.38-5.55L264.99,417.09z M222.48,278.11
		c-8.29,4.29-18.75,3.52-24.46,13.05l26.94-5.04c-1.61-4.72-5.1-0.81-7.09-1.96C219.03,281.96,224.3,283.67,222.48,278.11z
		 M201.86,238.79l-0.38,0.67c1.26,1.34,2.3,3.45,3.82,3.9c5.29,1.57,10.76,2.55,16.41,3.82c0.37-1.92,0.65-3.41,0.95-5.01
		L201.86,238.79z M265.09,353.72c3.27-3.22,3.27-3.22,3.27-7.03c0-4.62-0.12-9.25,0.05-13.87c0.09-2.42-1.01-3.14-3.32-3.22V353.72z
		 M261.81,193.92c2.63-2.42,2.25-27.12,0-29.65V193.92z M208.07,249.18c-0.06,3.41,1.47,4.4,4.32,4.13c2-0.2,4.03,0,6.03-0.05
		c2.8-0.05,2.86-0.14,2.42-3.33L208.07,249.18z M400.88,308.54c0.86-0.81,2.89-1.96,4.03-3.72c1.8-2.92,0.61-4.99-2.74-5.7
		c-1.17-0.25-2.34-0.44-3.49-0.73c-3.11-0.81-5.06,0.71-5.15,3.98C393.42,305.63,396.36,308.54,400.88,308.54z M236.2,355.71
		c-2.47,0.08-4.83,2.73-4.7,5.32s2.42,4.9,4.79,4.93c2.38,0.02,4.88-2.55,4.83-5.17c-0.05-2.62-2.47-5.2-4.92-5.12V355.71z
		 M377.79,284.79c-2.07-3.99-4.78-5.23-9.48-3.92c-1.03,0.29-1.61,2.21-2.75,3.92H377.79z M210.46,266.27h9.97v-3.38h-9.97
		L210.46,266.27z M209.15,274.01c3.53-0.21,6.81-0.42,10.11-0.6c2.2-0.13,2.42-1.2,1.44-3.14c-3.02,0.22-6.01,0.5-9,0.6
		c-2.05,0.05-2.91,0.91-2.54,3.11L209.15,274.01z M324.96,354.68h0.64v-25.36h-0.64V354.68z M368.56,246.29
		c3.62-1.1,8.05,0.45,9.12-4.83l-9.78,1.32c0.26,1.25,0.43,2.2,0.68,3.51L368.56,246.29z M273.3,188.91l0.81,0.47
		c0.43-0.88,1.32-1.82,1.22-2.64c-0.31-2.68,1.47-5.94-2.05-8.33L273.3,188.91z M317.72,178.44c-2.09,2.6-2.01,9.24,0,10.92V178.44z
		 M278.77,181.5c0,2.25-0.16,3.57,0.09,4.79c0.1,0.48,1.11,0.81,1.72,1.16c0.27-1.21,0.39-2.45,0.37-3.7
		c-0.05-0.59-1.01-1.1-2.16-2.23L278.77,181.5z M371.93,272.86l0.73-0.65l-2.46-3.28c-0.43,1.15-0.86,2.3-1.4,3.75L371.93,272.86z
		 M311.44,182.67l-0.75-0.1v4.9h0.75V182.67z"/>
	<path class="st0" d="M431.92,128.88l-3.62,3.88c-0.23-0.97-0.39-1.61-0.56-2.29l-0.48-0.15c-0.39,1.9-0.81,3.81-1.3,6.2l-2.21-1.12
		l-2.42,5.81c-35.13-35.63-76.93-54.72-126.27-55.56s-91.76,16.74-127.61,50.56c-1-3.76-3.58-7.03-6.2-7.61
		c0.81-4.45,0.66-8.75,4.94-12.35c25.72-21.67,54.96-35.99,87.86-42.64c18.83-3.87,38.15-4.81,57.26-2.78
		c35.04,3.77,66.79,15.83,95.08,36.71C415.18,114.01,423.2,121.54,431.92,128.88z M397.58,108.26l4.68,2.02l0.52-0.88l-6.65-5.15
		l-1.82,6.58l-1.26,0.11c-1.08-3.17-2.17-6.35-3.43-10.05c-0.68,0.93-1.55,1.55-1.5,2.12c0.51,6.25,3.96,10.34,10.15,12.51
		c-0.04-1-0.16-2.2-0.81-2.71C395.54,111.29,395.58,109.95,397.58,108.26z M307,83.14l6.85-3.98c-0.05-0.53-0.14-1.73-0.31-3.66
		c-0.6,0.99-0.95,1.55-1.35,2.21l-4.43-4.83c-2.59,2.66,1.21,3.4,1.43,5.3l-2.21,1.99l-4.57-5.12l-3.22,1.67L307,83.14z
		 M281.78,82.77l0.75,0.61c1.04-1.28,2.09-2.55,2.88-3.53c1.94,0.65,4.03,2.13,5.48,1.61c1.46-0.52,2.21-2.96,3.36-4.67l-5.53-3.47
		l-0.45,0.65l3.07,2.83c-0.45,1.1-0.85,2.12-1.22,3.04l-8.13-5.83l-1.74,1.87l4.33,2.48c-0.49,0.81-0.93,1.52-1.39,2.24
		C282.74,81.33,282.28,82.05,281.78,82.77z M216.34,88.75c2.04,4.49,2.04,4.49-0.6,5.5l-2.54-3.87l-2.16,1.36
		c1.91,3,4.51,4.2,7.96,3.07l0.71,4.03c3.22-0.64,2.34-3.36,2.51-4.98C222.42,91.99,218.08,88.52,216.34,88.75L216.34,88.75z
		 M365.91,93.58c3.7,4.7,5.84,6.06,11.6,7.19l-3.69-2.65c-3.48-2.49-3.41-2.42-1.61-6.37c0.42-0.89,0.19-2.09,0.25-3.15l-0.81-0.12
		L365.91,93.58z M406.13,123.09l5.44-5.18l-3.58-4.03l-5.48,4.83L406.13,123.09z M174.1,117.53l-0.1,0.68
		c1.04-0.27,2.29-0.26,3.08-0.86c2.03-1.55,3.67-1.61,5.25,0.57l-4.14,3.62l0.68,0.9c2.36-1.24,4.48-2.89,6.26-4.88l-5.35-4.11
		C177.81,114.85,175.98,116.18,174.1,117.53L174.1,117.53z M242.74,80.03l-1.31,0.34c0.61,2.54,1.22,5.07,1.87,7.79
		c6.33-3.18,6.33-3.18,5.02-8.57c-0.81,1.23-1.3,2.65-2.02,3.92c-0.5,0.63-1.11,1.17-1.78,1.61c-0.38-0.6-0.71-1.24-0.98-1.9
		C243.2,82.21,243,81.11,242.74,80.03L242.74,80.03z M170.7,132.56c0.04-0.86,0.39-1.92,0.06-2.21c-1.54-1.38-0.85-2.32,0.19-3.53
		c0.49-0.56,0.5-1.55,0.72-2.35l-1.01-1.14c-1.13,4.96-4.69,0.81-6.78,2.77L170.7,132.56z M201.97,108.1
		c2.42-2.66,1.85-6.33,2.66-10.02c-3.5,0.27-1.2,3.75-3.16,4.55l-2.21-3.22l-0.91,0.41C199.51,102.49,200.66,105.12,201.97,108.1
		L201.97,108.1z M408.7,126.08c0.7,0,1.81,0.26,2,0c1.24-2.06,2.5-1.14,3.96-0.35c0.58,0.2,1.21,0.26,1.82,0.17
		c-0.86-2.89-1.51-5.08-2.21-7.45L408.7,126.08z M358.98,86.92l0.14-1.48c-1.3-0.52-2.58-1.11-3.91-1.51
		c-0.89-0.19-1.8-0.31-2.71-0.35c-1.14-0.14-2.27-0.31-3.41-0.46l0.64,3.38l0.7-0.81c1.86,0.42,3.7,0.9,5.57,1.22
		C356.99,87,357.99,87,358.98,86.92z M265.62,77.66l-7.87,5.64l0.39,0.81l6.65-3.47c0.84,0.68,1.74,1.29,2.67,1.83
		c0.46,0.23,1.15,0,1.75-0.06c-0.11-0.51-0.06-1.16-0.36-1.51C267.94,79.88,266.9,78.94,265.62,77.66z M353.14,92.73l0.89-1.42
		c-1.3-1.14-2.58-3.22-3.91-3.22c-2.67,0.08-5.18-1.27-6.59-3.54c-0.48,0.85-1.26,1.76-1.09,1.97c0.85,1.15,1.8,2.82,2.96,3.04
		C348.15,90.07,351.33,88.89,353.14,92.73z M336.85,81.15l-6.24,4.03c0,0,0.08,0.64,0.15,1.19c2.85-0.38,5.8-0.21,6.87-3.35
		c0.15-0.6-0.66-1.51-0.82-1.86L336.85,81.15z M193.3,102.83l3.96,4.83l0.71-0.54l-3.95-6.55l-0.9,0.09
		c-0.16,2.25-3.85,3.22-2.1,6.85L193.3,102.83z M321.49,79.66l0.29,1.42h4.99l-0.59-3.22L321.49,79.66z M239.13,88.62l-8.66-5.48
		C230.3,86.29,233.5,88.27,239.13,88.62z M376.33,96.85c0.23-1.26,0.4-2.21,0.6-3.33l-2.14-0.72c-0.48,1.22-0.87,2.21-1.3,3.29
		L376.33,96.85z"/>
	<path class="st0" d="M199.38,516.74c-4.7-3.34-4.7-3.34-13.87,0.43c-1.1-4.63-1.99-9.3-3.34-13.84
		c-3.86-12.88-11.6-22.96-22.37-31.13c-4.83-3.68-8.46-9.05-12.49-13.77c-0.58-0.93-0.86-2.01-0.81-3.11
		c-0.28-8.94-0.51-17.89-0.7-26.84c-0.11-5.28-0.52-10.56,2-15.58c2.34-4.69,6.75-6.97,10.69-9.83c0.52-0.24,1.12-0.22,1.61,0.06
		c4.03,2.81,8.71,2.57,13.28,2.63c0.98-0.12,1.92-0.46,2.75-1.01c3.36-1.79,3.35-1.81,7.07-0.35c-1.81,4.2-3.9,8.3-5.38,12.62
		c-4.44,12.88-2.59,25.45,2.58,37.71c1.01,2.42,1.94,4.9,3.46,6.97c6.08,8.23,7.96,17.94,10.05,27.57
		C195.87,498.22,197.52,507.24,199.38,516.74z M175.28,444.68c-0.41-4.03-1.34-8.17-4.32-11.35c-4.93-5.29-11.16-6.22-16.71-1.22
		c-7.34,6.62-7.34,18.52-0.08,25.34c2.58,2.42,5.75,3.82,9.58,3.03C171.43,458.88,174.69,451.87,175.28,444.68z"/>
	<path class="st0" d="M437.31,123.65l-4.56,3.87c-6.32-5.56-12.52-11.43-19.17-16.77c-24.71-19.93-53.99-33.42-85.2-39.24
		c-13.9-2.78-28.08-3.94-42.24-3.48c-42.9,1.73-81.44,15.57-115.28,42.16c-2.61,1.89-5.07,3.97-7.36,6.23
		c-2.19,2.35-4.24,2.63-6.8,0.99c-0.57-0.37-1.22-0.63-2.37-1.21c34.44-31.53,74.49-49.97,120.7-53.54
		C338.25,57.79,392.06,78.95,437.31,123.65z"/>
	<path class="st0" d="M95.46,216.22c-4.65,3.83-4.66,3.85-10.24,0.76c-6.64-3.68-13.25-7.38-19.91-11.1
		c5.44-6.36,10.47-12.79,16.05-18.62c8.41-8.75,13.69-19.45,19.54-29.79c9.08-16.02,17.88-32.15,23.99-49.6
		c0.17-0.42,0.36-0.84,0.57-1.24c0.35-0.05,0.71-0.05,1.05,0c2.03,0.81,4.03,1.67,6.5,2.69c-5.08,2.42-7.63,6.5-9.48,11.27
		c-2.61,6.8-5.09,13.69-8.37,20.19c-5.5,10.87-11.1,21.74-17.55,32.06c-6.09,9.75-13.31,18.79-20.03,28.14l-1.78,2.46l31.57,16.11
		c15.62-31.56,31.37-63.36,47.24-95.42c-2.87-1.17-6.04-2.49-9.24-3.75c-4.03-1.61-8.76-2.5-7.45-8.75c0.47,0.08,0.93,0.2,1.38,0.37
		c6.51,2.8,12.99,5.7,19.54,8.41c1.77,0.72,2.42,1.61,1.7,3.37c-2.42,6.1-4.55,12.34-7.3,18.3c-9.45,20.41-19.33,40.63-28.63,61.09
		c-4.12,9.06-7.32,18.52-10.94,27.84c-0.14,0.36-0.3,0.72-0.61,1.46l-11.02-7.25c-0.9-0.63-1.83-1.22-2.79-1.76
		C94.65,221.17,94.65,221.2,95.46,216.22z"/>
	<path class="st0" d="M531.48,212.04c-0.2,17.49-12.18,31.88-29.35,34.04c-15.95,2.01-30.71-7.95-35.49-24.45
		c-0.52-1.83-0.91-3.7-1.17-5.58c-1.03-7.14-0.72-7.88,5.64-10.78c11.02-5.03,18.59-12.88,21.56-24.92c0.5-1.17,1.54-2.02,2.78-2.29
		c14.64-1.24,28.01,7.25,33.42,21.11c0.75,1.86,1.33,3.77,1.74,5.73C531.05,207.24,531.2,209.66,531.48,212.04z M527.07,208.18
		c-0.21-4.76-1.98-9.33-5.02-13c-4.7-5.64-10.76-8.65-18.09-7.25c-12.96,2.53-20.22,15.24-16.35,27.95
		c2.75,9,10.27,15.1,18.79,15.24C517.65,231.32,527.07,221.4,527.07,208.18z"/>
	<path class="st0" d="M318.22,561.39c-2.87-1.96-3.46,0.1-4.33,1.95l-2.16-1.51c-1.81,5.05-1.81,5.05-4.73,6.11l-2.14-2.58
		c-0.34,0.91-0.61,1.61-0.87,2.36c-0.26,0.75-0.52,1.51-0.85,2.42l-1.01-1.08l-6.55,5.36l-1.76-5.23l-4.78,0.51
		c-0.1-1.76-0.18-3.32-0.27-5l-5.07,3.01c-0.44-3.01-0.81-5.45-1.17-7.89l-0.71-0.53l-0.97,2.83c-4.51-9.99-4.75-19.58-3.42-29.3
		c0.51-3.19,3.26-5.53,6.49-5.54c8.33,0.18,16.67,0.36,24.96,0.66c5.69,0.21,6.93,2.09,7.9,7.63c1.35,6.99,1.92,14.11,1.71,21.23
		C318.46,558.06,318.35,559.35,318.22,561.39z"/>
	<path class="st0" d="M461.04,357.03c-0.81-2.58-1.46-4.53-2.11-6.52l-5.64-1.01c-0.07-0.38-0.15-0.76-0.23-1.14
		c1.39-0.73,2.75-1.52,4.19-2.17s2.97-1.14,4.46-1.7l0.22-0.93c-0.81-0.21-1.72-0.81-2.32-0.56c-3.22,1.25-7.25,1.39-8.77,5.51
		c-0.16,0.44-1.55,0.43-3.09,0.81c10.09-18.59,16.86-38.78,20.03-59.69c3.09-20.95,2.44-42.29-1.93-63.01l8.17,13.4l-1.7,2.93
		c3.15,4.28,4.73,4.49,7.75,1.02c3.62,0.92,4.65,3.22,4.94,6.94C487.5,283.75,479.56,324.53,461.04,357.03z M480.08,266.17
		c-1.78-3.36,2.42-3.95,2.83-6.29c-2.69-2.11-3.03,2.08-4.59,1.96l-2.71-1.71l4.94-5.31l-1.79-3.13l-5.8,8.44l4.49,6.57
		L480.08,266.17z M467.68,319.71c-4.34,3.87-5.84,6.81-6.1,12.01c1.61-2.7,3.01-5.06,4.39-7.38c5.89,2.01,5.89,2.01,6.69,1.14
		L467.68,319.71z M467.33,306.83l1.36,0.73c1.11-1.28,3.33-2.79,3.12-3.8c-0.63-3.03,0.81-4.94,2.82-7.42
		c-1.01-0.2-1.92-0.65-2.23-0.39c-1.02,0.81-2.6,1.95-2.59,2.95c0.03,2.86,1.39,5.85-2.47,7.92L467.33,306.83z M474.81,312.15
		c0.36-0.42,0.65-0.89,0.86-1.4c0.6-2.47,1.16-4.95,1.61-7.46c-0.09-0.57-0.47-1.04-1-1.26c-0.67-0.02-1.33,0.17-1.88,0.54
		c-0.65,0.37-0.88,8.86-0.29,9.41c0.1,0.1,0.35,0.07,0.71,0.14L474.81,312.15z M477.42,289.89l-4.36-6.19
		c-0.24,0.21-1.26,0.81-1.18,1.05c0.76,2.18,0.62,5.05,3.59,5.76c0.65,0.14,1.49-0.5,1.96-0.64L477.42,289.89z M479.44,279.73
		l0.94-1.2l-2.77-4.03l-1,0.27c-0.18,1.38-0.71,2.85-0.37,4.09c0.15,0.52,2.09,0.57,3.2,0.85L479.44,279.73z M465.69,326.84
		c-0.11,1.81-0.16,2.62-0.27,4.25l3.57-1.57L465.69,326.84z"/>
	<path class="st0" d="M443.72,173.06c0.49,3.93,0.91,7.54,4.2,10.15c1.57,1.25,2.5,1.01,3.1-0.81c0.71-2.17,1.39-4.34,2.07-6.51
		c12.69-2.21,15.77-9.5,7.58-20.48c4.03,0.33,7.38,0.21,10.58,0.94c9.45,2.16,16.11,11.13,16.62,20.84
		c0.43,7.87-4.65,11.85-9.87,15.79c-2.85,2.16-6.23,3.6-9.29,5.49c-3.06,1.89-6.18,1.35-9.26,0.55
		c-10.47-2.67-17.65-13.31-16.31-24.04C443.25,174.32,443.45,173.68,443.72,173.06z"/>
	<path class="st0" d="M425.21,165.34c-2.65-9.3-8.47-11.37-16.55-9.66c0.37-0.66,0.46-1.06,0.7-1.2
		c8.45-4.78,13.82-12.8,20.38-19.53c11.1-11.39,21.82-23.14,32.71-34.74c0.33-0.35,0.72-0.64,1.77-1.53
		c2.29,5.48,4.56,10.52,6.44,15.7c0.35,0.95-0.71,2.56-1.39,3.71c-5.03,8.56-13.49,13.57-20.68,19.92
		c-5.35,4.73-10.64,9.57-15.55,14.74c-1.82,1.92-2.35,5.01-3.73,7.42C428.42,161.78,427.05,163.08,425.21,165.34z"/>
	<path class="st0" d="M96.75,242c-0.62,2.58-1.36,5.14-1.76,7.75c-0.08,0.55,0.97,1.65,1.69,1.88c7.41,2.33,14.86,4.53,22.85,6.93
		c0.87-3.41,1.76-6.7,2.54-10.02c6.56-27.44,13.31-54.84,22.42-81.55c2.93-8.59,7.19-16.73,10.84-25.08l0.69,0.26
		c-2.29,8.95-4.49,17.93-6.88,26.86c-8.57,32.14-18.59,63.9-25.77,96.41c-0.37,1.71-0.81,2.15-2.54,1.68
		c-11.56-3.04-23.14-5.98-35.39-9.12c2.36-11.39,4.7-22.74,7.13-34.51c2.2,0.97,4.1,1.48,5.53,2.58c0.72,0.56,0.93,2.26,0.81,3.36
		c-0.61,4.24-1.47,8.45-2.22,12.66L96.75,242z"/>
	<path class="st0" d="M216.95,215.69c-4.43-2.21-8.36-4.1-12.22-6.13c-0.74-0.46-1.3-1.15-1.61-1.96
		c-4.13-10.71-11.67-18.79-20-26.32c-4.78-4.31-9.19-9.04-14-13.32c-2.42-2.14-0.53-4.03-0.26-5.96c0.25-1.82,1.61-2.25,3.34-2.23
		c1.18,0,2.36-0.49,3.55-0.52c5.16-0.14,9.74-0.4,13.74,4.83c5.64,7.38,12.62,13.81,19.4,20.24c2.27,2.16,5.64,3.22,8.62,4.55
		c3.91,1.76,4.65,3.51,2.73,7.33c-2.27,4.35-3.38,9.22-3.22,14.12C217,211.91,216.95,213.52,216.95,215.69z"/>
	<path class="st0" d="M420.03,341.55c0.64,4.79,1.2,9.23,1.85,13.69c1.47,9.99,3.16,19.95,4.45,29.96s2.5,20.2,3.3,30.37
		c0.9,11.42,1.22,22.89,1.95,34.33c0.27,4.24-1.27,7.89-3.42,11.27c-0.81,1.22-2.57,2-4.03,2.52c-5.17,1.81-10.4,3.43-15.61,5.11
		c-3.11,1.01-6.23,2.01-8.86,2.85c0-7.47,0.3-14.99-0.07-22.48c-0.43-8.58-1.1-17.18-2.27-25.68c-1.61-11.27-3.74-22.46-5.64-33.68
		c-0.35-2.06-0.85-4.11-1.1-6.19c-0.2-1.61-0.81-3.57,2.83-4.14c-5.23-0.85-4.14-4.58-4.61-7.17c-1.77-9.66-3.16-19.33-4.76-29.35
		L420.03,341.55z M427.34,413.36c-3.12-22.47-6.31-45.39-9.45-68.01c-1.32-0.57-2.61-1.21-3.85-1.94c-1.92-1.27-3.6-1.12-5.58,0
		c-1.7,0.89-3.52,1.54-5.4,1.91c-3.27,0.81-6.61,1.23-9.86,2.03c-0.76,0.37-1.28,1.1-1.38,1.93c0.95,7.54,2.05,15.07,3.1,22.6
		c1.33,9.41,2.84,18.79,3.94,28.22c1.07,9.16,1.93,18.36,2.49,27.56c0.62,10.47,0.95,20.89,1.08,31.33
		c0.05,3.37-0.95,6.75-1.49,10.22c7.25-2.23,14.15-4.42,21.11-6.49c2.87-0.85,4.33-2.66,5.27-5.45c3.28-9.84,1.96-19.87,1.52-29.87
		c-0.14-3.45-0.56-6.88-0.85-10.47l-4.73,2.69c1.61-4.63-0.21-7.2-2.98-9.45c-2.53,3.04-2.75,8.19-8.19,7.87
		c-2.28-0.14-3.86-1.19-4.98-3.89c5.09,1.47,8.22-0.06,9.94-4.77c0.72-1.97,2.77-2.36,4.54-0.99c2.1,1.62,4.03,3.44,5.77,4.94
		V413.36z"/>
	<path class="st0" d="M280.84,441.2l0.66,5.98c-2.21-2.6-4.59-2.11-7.25-1.61c-1.47,0.27-3.18-0.72-5.4-1.32
		c1.92,2.62,3.52,4.11,6.51,3.07c0.81-0.29,2,0.3,2.98,0.6c1.12,0.35,2.21,0.81,3.4,1.28l3.35,8.17c-6.97-0.72-13.58-1.15-20.13-2.1
		c-21.56-3.08-42.46-9.75-61.81-19.74c-1.54-0.81-2.56-1.54-1.66-3.38c4.36-0.96,4.36-0.96,9.9,2.59c1.36-1.84,2.74-3.68,4.35-5.84
		c-2.13-0.48-2.71-4.14-5.9-2.16c-0.31-2.79-2.04-4.17-4.69-4.56c-7.37-1.08-7.96-1.61-10.28-9.47
		c25.74,16.68,55.33,26.48,85.94,28.48H280.84z M225.37,441.82v-6.77l1.29-0.46c1.7,2.79,3.41,5.59,5.35,8.8
		c0.48-0.81,1.31-1.61,1.16-2.09c-1.87-6.07-6.13-9.44-12.71-10.11c0.57,1,1.21,1.95,1.94,2.83c0.48,0.9,0.87,1.83,1.18,2.8
		c-0.87,0.43-1.79,0.73-2.74,0.91c-1.01-0.07-2.01-0.28-2.97-0.6l-0.34,0.96L225.37,441.82z M256.83,445.6
		c-3.29-3.79-7.4-4.67-11.92-4.47c1.11,0.82,2.35,1.45,3.67,1.85c3.22,0.72,3.98,2.32,2.66,5.34c-0.41,0.93,0.1,2.28,0.19,3.43h0.9
		L256.83,445.6z M265.22,450.55l0.19,1.34c1.19,0.41,2.41,0.72,3.65,0.93c1.36,0.09,2.72,0.06,4.07-0.08c0.75-0.04,1.76,0,2.14-0.43
		c0.26-0.68,0.15-1.46-0.3-2.04c-0.67-0.43-1.46-0.62-2.25-0.55c-1.5,0-3,0.08-4.49,0.24C267.22,450.08,266.22,450.36,265.22,450.55
		L265.22,450.55z M246.12,447.84c2.31,0.17,2.31,0.17,2.75-3.07h-2.75V447.84z"/>
	<path class="st0" d="M378.37,419.79c1.41-1.05,2.77-2.2,4.25-3.16c3.11-2.02,6.28-3.95,9.81-6.15c0.81,4.22,1.22,8.27,2.33,12.14
		c1.03,3.63-0.37,5.23-3.37,7c-21.94,12.88-45.34,21.59-70.57,25.24c-1.27,0.19-2.54,0.43-3.93,0.67c-0.34-1.28-0.6-2.3-0.96-3.67
		l3.03,1.52c-0.56-1.53-0.63-2.74-1.2-3.06c-2.38-1.34-1.76-2.71-0.45-4.24c2.83,0.36,4.49,6.07,8.12,1.72
		c-2.36-3.16-8.51-1.95-8.86-7.82c4.4-0.86,8.58-2.06,12.81-2.42c9.96-0.85,18.63-5.68,27.89-8.64c2.34-0.75,4.14-0.81,6.12,0.65
		c2.25,1.67,4.62,3.16,6.97,4.7c2.92,1.93,4.98,1.61,7.41-0.9c0.86-0.78,1.76-1.51,2.71-2.17c0.39-2.42,0.81-5.03,1.36-8.37
		l9.45,3.56l0.56-0.36c-0.63-0.71-1.14-1.83-1.91-2.05c-2.22-0.63-4.57-0.85-6.84-1.34c-0.72-0.21-1.4-0.54-2.01-0.98
		c-0.97-0.62-1.89-1.31-2.83-1.97L378.37,419.79z M334.08,442.6l9.03,3.86l1.11-2.21l-4.58-1.61l1.69-4.61l-0.81-0.47l-2.13,4.18
		c-2.11,0.31-4.03-3.22-6.07-0.32c-0.81,1.16-1.49,3.5-0.89,4.27c1.11,1.43,3.22,2.09,4.83,3.08l0.52-0.66
		c-1.42-1.55-4.65-2.28-2.74-5.51H334.08z M358.24,439.38l6.38-7.25c-0.74-0.21-1.54-0.06-2.15,0.41c-2.18,1.7-3.81,5.13-7.43,2.3
		c-0.17-0.14-1.16,0.32-1.18,0.54c-0.02,0.53,0.18,1.04,0.56,1.41c1.14,0.91,2.46,1.67,3.82,2.57V439.38z"/>
	<path class="st0" d="M110.57,314.74l-3.33,1.92l0.96,1.24l2.71,0.39c-2.09,3.22-1.03,5.94,0.63,8.79c1.39,2.42,1.81,5.41,3.41,7.61
		c1.6,2.2,4.03,3.45,5.97,5.06l3.93-4.73c0.14-2.06,0.33-4.61,0.52-7.25l17.99,34.8c-4.41,1.23-9.24,2.66-14.12,3.84
		c-0.54,0.13-1.61-0.93-2.09-1.68c-9.36-15.22-16.55-31.68-21.36-48.89c-4.28-15.37-6.71-31.2-7.25-47.15
		c0-0.81,0.08-1.61,0.13-2.42c2.92-0.06,5.19,0.43,6.31,3.6c0.96,2.42,2.36,4.64,4.12,6.55c0.09-0.52,0.09-1.05,0-1.57
		c-0.59-1.48-1.46-2.87-1.89-4.39c-0.18-0.61,0.52-1.47,0.81-2.21c0.68,0.52,1.91,1.01,1.95,1.61c0.46,6.39,0.73,12.79,0.97,19.48
		c-0.81-4.14-3.82-4.38-7.38-3.7c1.27,0.72,2.49,1.51,3.68,2.36c0.58,0.59,1.07,1.26,1.47,1.99c-0.73,0.36-1.49,0.63-2.28,0.81
		c-1.08,0.03-2.15,0.2-3.18,0.51c3.14,0.48,6.28,1.67,5.93,4.9c-0.29,2.57-2.51,4.92-4.03,7.59l2.8-0.24
		c0.49,1.5,1.09,3.18,1.61,4.9c0.21,0.72,0.56,1.86,0.21,2.22C107.97,312.62,109.15,313.73,110.57,314.74z M131.69,364.4
		c0-1.16,0.39-2.47-0.07-3.32c-1.22-2.19-1.19-3.83,1.22-5.2l3.01,4.65l1.16-0.58c-0.81-2.46-2.52-4.52-3.74-6.44l-4.98,4.57
		C129.37,360.07,130.43,362.04,131.69,364.4z M117.29,341.91l-0.1,0.97c2.14,0.64,2.66,4.24,6.33,3.06l-4.19-3.04l5.2-3.05
		l-0.39-0.81L117.29,341.91z"/>
	<path class="st0" d="M463.64,367.64c-1.78-5.06-1.4-8.95,0.97-13.3c10.64-19.81,17.62-41.38,20.6-63.66
		c1.82-13.05,2.79-26.19,1.4-39.38c-0.07-1.37-0.07-2.74,0-4.11l6.15,1.7c2.73,41.34-6.23,80.04-26.86,116.11
		C465.22,365.94,464.46,366.83,463.64,367.64z"/>
	<path class="st0" d="M90.43,264.2c1,0.1,1.4,0.11,1.8,0.18c4.41,0.74,4.32,0.74,4.51,5.15c1.46,34.21,10.63,66.12,28.4,95.48
		c0.36,0.6,0.72,1.21,1.26,2.13c-1.76,0.6-3.37,1.43-5.05,1.61c-0.68,0.08-1.75-1.07-2.24-1.9c-8.53-14.18-15.24-29.39-19.96-45.26
		c-4.4-14.37-7.07-29.21-7.94-44.22C90.98,273.06,90.7,268.76,90.43,264.2z"/>
	<path class="st0" d="M359.3,374.9c-3.29,0.18-5.56-0.87-7.36-3.68c-4.36-6.82-9.06-13.44-13.6-20.13c-0.52-0.59-0.87-1.3-1.03-2.07
		c-0.06-8.1,0-16.21,0-25.15c5.52,7.34,10.27,14.24,15.65,20.61c3.51,4.16,4.1,8.67,3.64,13.54c0.52,0.27,0.81,0.55,1.05,0.52
		c6.26-0.97,8.77,3.42,11.22,7.85c0.98,1.77,0.77,3.04-1.67,3.22c-2.18,0.14-4.36,0.48-6.55,0.72
		C360.13,371.94,359.71,373.44,359.3,374.9z"/>
	<path class="st0" d="M85.75,83.02c1.9-5.44,6.21-5.57,10.41-5.74c-0.81-3.35-3.81-6.51,1.41-8.74l11.35,12.66l0.67-0.48
		l-9.08-12.83l3.7-0.99l4.14,4.75l0.58-0.37l-1.82-4.83l0.63-0.39l11.56,16.46c-5.58,4.28-4.53,10.86-6.24,16.44
		c-0.72,2.3-1.22,4.68-1.93,7.52c-2.42-1.82-4.16-3.08-5.79-4.49c-0.7-0.54-1.15-1.34-1.26-2.22c0.31-3.22-1.8-4.63-3.95-6.18
		C95.26,90.07,90.45,86.49,85.75,83.02z"/>
	<path class="st0" d="M403.94,158.62c4.03-0.23,7.38-0.56,10.77-0.58c3.88,0.04,7.04,3.12,7.17,7c-0.01,0.54-0.27,1.05-0.71,1.36
		c-11.23,4.75-17.88,14.94-26.74,22.5c-2.96,2.53-5.42,5.64-8.37,8.76c-2.19-4.88-5.08-8.2-10.68-9.03c4.39-3.96,8.28-7.5,12.22-11
		c4.43-3.93,8.86-7.82,13.35-11.72C403.07,164.09,405.09,162.28,403.94,158.62z"/>
	<path class="st0" d="M360.34,147.1c1.2,1.93,1.92,4.15,3.46,5.24c1.38,0.99,3.63,0.75,5.5,1.05l0.11-0.73
		c0.93,1.36,1.86,2.72,2.96,4.33c-1.96,3-4.18,6.44-6.54,10.03c-1.7-2.63-3.36-5.05-6.78-3.83c-2.3,0.73-3.8,2.93-3.62,5.34
		c0,2.79,1.94,4.53,5.85,5.51c-3.66,5.64-7.25,11.27-10.98,16.87c-0.54,0.7-1.24,1.25-2.05,1.61c-3.54,1.81-7.13,3.54-10.7,5.31
		c-0.99-6.72,0.07-12.49,3.68-18.19c6.14-9.66,11.56-19.86,17.29-29.79C359.06,148.92,359.7,148.06,360.34,147.1z"/>
	<path class="st0" d="M194.26,356.29c-1.56-5.05-3.07-9.74-4.47-14.49c-0.47-1.61,0.42-2.42,1.84-3.22
		c6.67-3.65,13.19-7.55,19.9-11.12c3.39-1.73,6.28-4.3,8.4-7.46c0.71-0.94,1.48-1.84,2.3-2.68l9.12,12.37
		c-2.98,1.68-5.99,3.7-9.25,5.15c-5.8,2.57-10.08,6.88-13.96,11.64C204.62,350.81,200.14,353.63,194.26,356.29z"/>
	<path class="st0" d="M423.72,349.06c9.14,5.16,17.91,9.96,26.48,15.1c1.34,0.81,2.46,3.1,2.52,4.74
		c0.27,7.54,0.12,15.08,0.12,23.19c-0.98-0.81-1.66-1.33-2.22-1.92c-6.88-7.33-14.43-14.01-22.55-19.94
		c-1.55-1.1-2.01-4.12-2.42-6.36C424.87,359.16,424.41,354.39,423.72,349.06z"/>
	<path class="st0" d="M287.69,465.29c-6.82-0.52-13.34-0.76-19.8-1.57c-17.51-2.11-34.66-6.53-51-13.15
		c-4.73-1.94-9.34-4.16-14.04-6.19c-1.54-0.67-2.29-1.52-2.26-3.37c0-1.61-0.7-3.22-1.18-5.11c5.79,2.67,11.15,5.31,16.65,7.65
		c16.21,6.98,33.34,11.59,50.87,13.69c5.19,0.6,10.38,1.3,15.58,1.47c3.1,0.1,4.24,1.47,4.58,4.19
		C287.17,463.47,287.37,464.03,287.69,465.29z"/>
	<path class="st0" d="M313.18,463.7c0.1-4.03,1.89-5.96,5.96-6.57c26.26-3.99,50.89-12.51,73.64-26.31c0.81-0.51,1.71-1,2.75-1.61
		c0.24,0.81,0.39,1.49,0.6,2.11c0.96,2.82,0.35,4.62-2.52,6.29c-21.38,12.38-44.8,20.83-69.16,24.96c-3.22,0.56-6.55,0.89-9.82,1.3
		C314.15,463.86,313.66,463.81,313.18,463.7z"/>
	<path class="st0" d="M203.36,354.92c10.07-12.71,22.59-21.05,36.5-27.43c0.24,0.25,0.49,0.5,0.73,0.76
		c-2.94,4.9-5.89,9.79-8.86,14.7c-4.13,6.84-8.33,13.63-12.37,20.53c-1.26,2.17-2.66,2.66-4.56,1.1c-3.22-2.67-6.39-5.44-9.59-8.16
		C204.68,355.88,204.02,355.42,203.36,354.92z"/>
	<path class="st0" d="M486.19,66.15l5.56,1.61c-0.14,1.14-0.24,2.07-0.35,3.03c1.51-0.31,3.15-1.19,4.2-0.72
		c1.32,0.57,2.22,2.2,3.22,3.45c2.25,2.92,4.41,5.9,6.86,9.19c-0.73,0.17-1.47,0.3-2.21,0.39c-3.1,0.15-5.25,1.72-7.25,4.09
		c-3.63,4.37-7.59,8.48-11.94,13.29c0.52-8.81-7.08-9.41-11.68-13.32c2.66-3.22,5.64-6.18,7.89-9.66S484.2,70.18,486.19,66.15z"/>
	<path class="st0" d="M131.92,376.18c-1.64,0.38-3.26,0.87-4.83,1.47c-1.93,0.88-2.96,0.23-3.83-1.49
		c-0.87-1.72-1.91-3.26-3.03-5.15c8.05-1.92,15.81-3.82,23.6-5.64c0.6-0.04,1.18,0.21,1.57,0.68c0.74,1.07,1.41,2.18,2.01,3.33
		c0.93,1.88,1.99,3.7,3.16,5.44c1.33,1.5,2.77,2.9,4.31,4.19c-3.98,2.07-7.86,4.28-11.91,6.14c-2.42,1.1-3.61,2.58-3.45,5.27
		c0.06,1.01-0.41,2.06-0.69,3.37c-2.87-2.23-6.36-3.5-5.97-8l-0.94-0.33l-0.17,2.12l-0.94-0.25l-4.83-6.21l6.19-4.43L131.92,376.18z
		"/>
	<path class="st0" d="M254.36,135.89v43.37c-8.69-10.6-12.51-23.72-19.39-36.08L254.36,135.89z"/>
	<path class="st0" d="M193.64,459.84c-6.74-5.94-8.86-13.42-9.26-21.52c-0.23-4.69-0.7-9.53,0.11-14.08
		c0.9-5.1,3.14-9.94,4.83-14.91l0.96,0.14l5.33,9.95c-4.45,5.37-3.82,14.8,1.22,19.7c0.6,0.59,1.37,1.42,1.36,2.13
		C198.13,447.72,197.03,453.93,193.64,459.84z"/>
	<path class="st0" d="M406.83,338.79c-8.22,0.39-16.44,0.81-24.66,1.1c-1.25,0-2.47-0.38-3.5-1.08c-4.83-3.22-9.49-6.65-14.1-9.9
		l10.31-9.35L407,338.17L406.83,338.79z"/>
	<path class="st0" d="M155.16,392.45c0.06,0.19,0.1,0.51,0.21,0.53c3.71,0.81,5.85,3.82,8.62,6.02c4.49,3.56,10.74,2.09,13.85-2.71
		c1.61-2.46,3.22-2.72,5.49-0.88l3.37,2.75l-3.31,4.17l-3.49-2.66l0.17,0.81c-3.31,1.17-6.57,3.06-9.94,3.29
		c-2.83,0.2-5.8-1.55-8.71-2.42c-0.87-0.27-2.13-0.95-2.58-0.6c-1.97,1.46-3.07,0.34-4.28-0.99c-3.54-3.85-7.09-7.67-11.02-11.91
		c4.83-2.37,9.35-4.59,13.89-6.71c0.36-0.17,1.05,0.31,1.57,0.53c0.52,0.22,1.12,0.5,1.67,0.76c0.06-0.68,0.14-1.36,0.2-2.04
		c10.69-3.43,18.43,0.31,20.87,7.03l-2.96,0.62c-4.73-6.97-10.55-6.68-14.19-4.28c-2.74,1.8-4.88,4.52-8.51,4.73
		c-0.32,0-0.6,0.69-0.9,1.07L155.16,392.45z"/>
	<path class="st0" d="M232,201.59c-2.97-3.54-5.91-7.11-8.93-10.61c-0.94-1.1-1.96-2.5-3.22-2.91c-6.44-2.12-10.58-7-14.88-11.73
		c-1.76-1.93-3.49-3.88-5.5-6.14l9.94-9.45c0.97,1.73,1.74,3.29,2.66,4.75c3.11,4.98,6.39,9.86,9.37,14.94
		c3.95,6.76,7.67,13.64,11.5,20.48L232,201.59z"/>
	<path class="st0" d="M185.6,404.68c2.56,1.07,3.71,2.34,2.09,4.9c-5.93,9.39-5.52,19.72-4.83,30.27c0.47,7.1,3.22,13.09,6.65,19
		c1.05,1.82,3.49,2.99,2.65,5.64c-0.32,1.03-0.81,2.01-1.25,3.01l-0.96,0.06c-1.08-1.73-2.09-3.52-3.22-5.19
		c-6.42-9.2-9.14-19.65-10.19-30.62c-0.54-6.33,0.9-12.68,4.13-18.16C182.33,410.63,183.96,407.65,185.6,404.68z"/>
	<path class="st0" d="M478.34,144.01h-5.64c0-2.78-0.23-5.68,0.04-8.52c1.23-12.75,0.81-25.22-5.41-36.86
		c-0.16-0.47-0.24-0.96-0.24-1.45c6.78-0.81,9.97,0.81,11.23,5.69c0.59,2.12,0.89,4.3,0.89,6.5c-0.19,9.03-0.6,18.07-0.89,27.1
		C478.28,138.88,478.34,141.28,478.34,144.01z"/>
	<path class="st0" d="M346.92,123.46c-1.87,1.34-1.3,5.46-4.83,3.91c-1.61-0.71-4.72,0.74-4.83-2.68c0.33-0.21,0.52-0.43,0.64-0.4
		c3.91,1.11,6.44,0,7.36-4.22c0.11-0.53,1.11-1.37,1.39-1.26c0.79,0.31,1.46,0.88,1.89,1.61c1.3,2.57,2.42,5.23,3.88,8.37
		c1.22-1.56,1.96-2.7,2.89-3.66c0.64-0.54,1.35-0.99,2.1-1.35c0.44,0.61,0.8,1.28,1.06,1.98c0.56,2.42,0.99,4.83,1.49,7.42
		c2.65-0.21,5.45-1.61,7.13,1.61c0.1,0.19,0.77,0.21,1.13,0.13c3.74-0.89,5.86,0.99,7.25,4.19c0.81,1.93,2.13,2.67,4.41,2.59
		c5.21-0.16,5.96,0.75,7.29,7.02c2.97,0.49,5.88,0.81,8.68,1.55c0.65,0.16,1.33,1.61,1.38,2.49c0.12,1.92,0.23,3.45,2.03,4.9
		c2.42,1.96,2.42,4.03,0.91,5.31c-1.53-1.52-3.35-2.83-4.45-4.59c-0.81-1.31-0.68-3.22-1.01-5.02c-1.61,2.17-2.87,2.42-3.7-0.45
		c-0.73-2.56-2.61-1.25-3.98-0.92c-3.87,0.93-3.88,0.97-2.89-2.9c0.72-2.76-0.95-4.83-4.03-4.66c0.08,0.46,0.08,0.94,0,1.4
		c-0.31,0.66-0.66,1.3-1.06,1.91c-0.63-0.39-1.47-0.64-1.84-1.19c-1.69-2.49-3.22-5.11-4.88-7.6c-0.58-0.69-1.24-1.31-1.96-1.84
		c-0.56,1.84-0.99,3.22-1.41,4.6c-1-1.12-2.3-2.09-2.92-3.39c-1.17-2.42-2.56-3.74-5.35-2.58c-2.07,0.86-2.98-0.26-3.33-2.13
		c-0.3-1.57-0.55-3.16-0.81-4.73c-0.31,0.04-0.58,0-0.68,0.1c-3.22,3.59-3.66,3.59-6.33-0.53
		C348.56,126.91,347.85,125.25,346.92,123.46z"/>
	<path class="st0" d="M337.26,175.91c0-5.9,0-11.81,0.04-17.72c0.1-0.77,0.42-1.49,0.92-2.09c3.16-4.38,6.39-8.72,9.42-12.88
		c1.22-0.06,2.43-0.06,3.65,0c1.25,0.14,2.92,0.06,3.61,0.81c1.22,1.3,1.82,2.87,0.42,4.95c-5.96,8.86-11.65,17.96-17.44,26.96
		L337.26,175.91z"/>
	<path class="st0" d="M465.26,508.24c-7.15-0.28-14.26-8.73-12.22-18.94l15.71-0.7c1.75,4.68,3,9.55-1.9,14.06
		C465.72,503.68,465.83,506.04,465.26,508.24z"/>
	<path class="st0" d="M239.05,123.68c2-4.03,5.8-4.28,8.99-5.45c0.72-0.26,1.92,0.81,2.78,1.55c3.75-0.14,3.91,0.06,3.39,5.27
		c-0.76-0.44-1.34-0.81-1.95-1.13c-0.6-0.32-1.1-0.81-1.61-0.81c-2.47,0.14-2.46,0.19-3.86-2.58c-1.96,1.61-3.91,3-5.55,4.65
		c-1.83,1.85-3.29,1.86-5.35-0.48c-2.42,3.22-2.87,9.19-9.47,6.93c-0.28,0.96-0.67,1.89-1.16,2.77c-0.38,0.53-1.61,1.18-1.79,1.01
		c-1.77-1.51-2.66,0-3.74,0.93c-3.69,3.09-7.72,5.86-10.94,9.39c-2.11,2.3-3.88,2.95-6.64,2.07c-0.67-0.11-1.35,0.09-1.86,0.54
		c-1.95,1.88-3.85,3.82-5.64,5.86c-1.53,1.76-2.88,3.66-4.45,5.64c-1.39-1.71-1.8-2.66,0.06-4.32c2.95-2.64,5.33-5.92,8.05-8.86
		c0.7-0.76,1.98-1.93,2.54-1.72c4.62,1.75,6.98-1.93,9.82-4.03c3.14-2.33,5.86-5.2,8.86-7.71c0.92-0.76,2.29-0.97,3.27-1.69
		c0.66-0.61,1.18-1.35,1.51-2.18c0.81-1.54,1.66-2.34,3.16-0.81c1.61,1.69,2.78,1.03,3.72-0.75c1.18-2.21,2.29-4.48,3.6-6.6
		c0.5-0.81,1.5-1.31,2.27-1.96c0.43,0.81,0.89,1.61,1.3,2.42C238.58,122.15,238.7,122.64,239.05,123.68z"/>
	<path class="st0" d="M190.62,361.8c1.01-1.23,2.15-1.43,3.08,0.35c0.93,1.78,1.61,4.03,2.85,5.73c1.06,1.16,2.45,1.96,3.99,2.3
		c3.49,0.75,6.66,2.57,9.07,5.2c0.48,0.55,1.34,0.76,1.84,1.3c1.31,1.4,3.34,2.78,3.59,4.39c0.4,2.6,2.23,3.41,3.79,4.69
		c0.39,0.25,0.87,0.31,1.3,0.15c3.13-1.56,4.78,0.31,6.32,2.6c0.74,1.29,1.65,2.48,2.71,3.54c0.82,0.55,1.85,0.71,2.8,0.43
		c5.03-1.8,5.01-1.86,6.02,3.01c1.18,0,2.75-0.49,3.45,0.08c3.98,3.28,9.58,3.96,13.29,7.61c-0.19,0.42-0.39,0.85-0.6,1.26
		c-1.61-0.52-3.22-1-4.83-1.57c-1.93-0.71-3.22-3.15-5.89-1.98c-0.34,0.15-1.17-0.91-1.82-1.33c-0.65-0.42-1.34-1.01-1.99-0.98
		c-2.96,0.14-4.98-0.64-4.67-4.09c-0.26-0.05-0.54-0.07-0.81-0.04c-4.93,1.61-7.25,0.72-9.66-4.08c-0.91-1.76-1.71-3.13-3.71-1.14
		c-0.33,0.21-0.74,0.27-1.12,0.18c-2.05-0.34-6.49-5.07-6.93-7.25c-0.04-0.59-0.27-1.15-0.64-1.61c-2.32-1.97-4.77-3.78-7.34-5.42
		c-2.16-1.13-4.42-2.04-6.76-2.71c-2.37-0.81-4.19-1.57-4.25-4.83C193.7,365.64,191.76,363.78,190.62,361.8z"/>
	<path class="st0" d="M276.82,476.25c2.42-0.1,4.83-0.39,7.25-0.27c11.31,0.54,22.62,1.15,33.93,1.85c0.81,0.05,1.61,1.19,2.37,1.83
		c-0.64,0.81-1.22,2.16-1.93,2.23c-4.57,0.47-9.17,0.81-13.77,0.89c-5.91,0.09-11.83,0.01-17.79-0.24
		c-4.07-0.17-7.71-1.55-10.21-4.93C276.7,477.16,276.75,476.71,276.82,476.25z"/>
	<path class="st0" d="M119.1,295.85c5.48,0.6,9.6,3.62,9.66,7.46c0.06,3.84-4.08,7.15-9.31,6.92c-2.48-0.09-4.9-0.75-7.09-1.92
		c-4.03-2.35-4.07-7.38-0.09-9.84C114.3,297.21,116.81,296.7,119.1,295.85z"/>
	<path class="st0" d="M378.26,419.66c2.91,3.86,0.73,11.27-3.88,13.05c-0.65,0.2-1.35,0.16-1.98-0.1
		c-6.11-2.71-11.2-6.85-16.2-11.41c2.42-2.46,6.84-1.93,7.62-5.87c0.21-1.52,0.1-3.07-0.33-4.55c-3.31,2.28-3.74,7.09-8.6,7.55
		c0.81-5.01,4.31-7.75,8.05-10.16c0.6-0.39,2.47,0.62,3.42,1.39c4.07,3.32,8.05,6.79,12.03,10.21L378.26,419.66z M361.64,423.25
		c2,1.47,3.59,2.83,5.35,3.91c5.28,3.22,7.34,2.49,9.21-3.49c0.25-0.81,0.13-2.23-0.4-2.68c-2.71-2.31-5.64-4.4-9.04-7.03
		c0.69,4.79-1.36,7.39-5.11,9.32V423.25z"/>
	<path class="st0" d="M254.45,355.51v29.62c-0.55-0.33-0.92-0.42-0.98-0.61c-0.99-3.22-2.96-4.4-6.36-3.51
		c-3.4,0.89-3.95-2.51-5.39-4.27c-0.51-0.62,0.1-2.61,0.75-3.63c3.69-5.95,7.55-11.8,11.35-17.68L254.45,355.51z"/>
	<path class="st0" d="M306.63,476.11l-15.03-0.72c-1.36-8.19,3.95-12.7,8.79-17.62C307.32,462.14,305.63,469.22,306.63,476.11z"/>
	<path class="st0" d="M120.14,337.7c-1.41-1.61-3.02-2.9-3.88-4.57c-1.83-3.54-3.34-7.25-4.83-10.94c-0.84-1.88,0-4.08,1.88-4.92
		c0.24-0.11,0.5-0.19,0.76-0.25c2.72-0.47,5.49-0.66,8.25-0.56c0.56,0,1.43,1.19,1.61,1.96C125.29,324.5,124,331.22,120.14,337.7z"
		/>
	<path class="st0" d="M383.13,351.38c-0.27,2.8,0,5.79-0.89,8.38c-4.44,13-9.16,25.92-13.83,38.85c-0.81,2.21-1.35,4.83-2.87,6.44
		s-3.98,1.93-6.44,3.03c11.1-17.72,15.45-37.94,23.2-56.81L383.13,351.38z"/>
	<path class="st0" d="M350.47,374.2l-3.54,1.08v3.55c-3.22,1.3-7.58-0.15-8.86,4.83l-0.81-0.53v-27.21l0.51-0.31
		C341.93,361.68,346.09,367.77,350.47,374.2z"/>
	<path class="st0" d="M321.65,507.78c-0.81,3.91-3.74,4.78-6.38,4.9c-7.8,0.37-15.63,0.39-23.44,0.31c-4.7,0-9.41-0.42-14.11-0.81
		c-1.47-0.13-4.03,0.33-3.74-2.02c0.1-0.81,3.03-2,4.58-1.89c11.27,0.81,22.55,1.98,33.89,0.48
		C315.4,508.31,318.36,508.1,321.65,507.78z"/>
	<path class="st0" d="M460.71,468.53c2.74,1.14,5.41,1.81,7.55,3.22c2.83,1.91,2.67,4.83,0.11,7.12
		c-3.78,3.36-11.96,3.33-15.69-0.06c-2.52-2.28-2.63-5.24,0.24-7.11C455.17,470.28,457.94,469.63,460.71,468.53z"/>
	<path class="st0" d="M160.31,133.09l13.73,15.84c-4.73,1.93-12.76-1.1-14.26,7.85c-4.15-2.96-4.18-3.22-3.16-7.44
		C157.94,143.88,159.11,138.39,160.31,133.09z"/>
	<path class="st0" d="M453.65,102.96c-1.78,3.18-3.58,5.46-7.55,4.32c-2.52-0.72-4.03-1.61-3.73-4.6c0.46-4.32,2.34-7.04,6.44-8.35
		c3.98-1.26,7.97-2.47,12.04-3.73c0.27,0.85,0.56,1.61,0.72,2.36c0.55,2.42,0.27,4.4-2.51,5.52c-3.31,1.38-6.51,3.01-9.57,4.89
		L453.65,102.96z"/>
	<path class="st0" d="M305.36,508.19c9.41-7.08,10.29-14.27,2.25-23.35l9.38-0.59c0.52,6.68,0.96,13.05,1.52,19.4
		c0.19,2.2-0.52,3.49-2.79,3.69C312.27,507.64,308.81,507.93,305.36,508.19z"/>
	<path class="st0" d="M182.55,338.43c4.63-0.64,4.48-0.6,5.68,3.49c1.31,4.48,2.85,8.91,4.5,13.27c1.26,3.33-1.25,4.03-3.22,5.33
		c-2.32,1.53-2.85-0.44-3.82-1.79C181.19,352.46,182.75,345.33,182.55,338.43z"/>
	<path class="st0" d="M86.45,196.19c0.07-2.91,2.42-2.42,4.32-2.67l-1.39-3.66l0.59-0.73l3.69,2.02l9.43-3.67
		c1.55,1.88,1.55,1.88-0.45,5.05l7.72,2.03c-3.55,3.44-5.92,3.07-12.26-1.91c-2.79,2.6-2.5,5.04,0.81,6.7
		c1.27,0.59,2.56,1.11,3.88,1.55c1.2,0.44,2.42,0.81,3.84,1.3c-5.19,1.72-5.72,1.67-10.47-0.85L86.45,196.19z"/>
	<path class="st0" d="M440.28,165.39c2.08-0.12,3.97-0.19,5.86-0.35c4.32-0.37,6.66-3.71,9.41-6.39c1.23-1.19,2.61-3.4,4.12-2.09
		c1.3,1.13,2.02,3.78,1.8,5.64c-0.52,4.13-5.04,7.67-9.2,7.92c-2.29,0.13-4.57,0.35-6.85,0.28
		C442.42,170.31,440.62,168.72,440.28,165.39z"/>
	<path class="st0" d="M440.26,163.02c-0.75-3.75,0.11-6.76,2.93-9.08c1.71-1.55,3.54-2.95,5.48-4.19c1.21-0.62,2.61-0.77,3.92-0.41
		c4.77,1.51,5.64,5.48,1.5,8.57C450.13,161.01,445.29,162.8,440.26,163.02z"/>
	<path class="st0" d="M376.11,208.58c-1.12-8.05-1.3-10.81-9.45-13.88c0.52-2.25,3.36-4.12,6.14-4.03c2.79,0.1,9.8,5.94,10.26,8.75
		C383.4,201.48,378.74,207.74,376.11,208.58z"/>
	<path class="st0" d="M290.84,464.76c-0.55-0.53-1.02-1.14-1.38-1.82c-0.89-2.64-1.65-5.33-2.26-8.05c0-0.88,0.38-1.71,1.05-2.29
		c1.79-1.61,3.74-3.01,5.64-4.51c1.7-1.35,2.95-0.7,4.03,0.85c2.42,3.53,2.47,5.21-0.11,8.66c-1.51,2-3.27,3.8-4.97,5.64
		C292.2,463.79,291.54,464.3,290.84,464.76z"/>
	<path class="st0" d="M431.98,408.69c-1.76-4.91-1.32-8.42,2.35-11.68c3.43-3.04,6.19-6.83,9.45-10.52l4.55,4.3L431.98,408.69z"/>
	<path class="st0" d="M185.99,157.26h-18.2c-0.98,2.63-1.88,5.02-2.77,7.39c-3.45-1.01-4.19-3.16-3.22-6.24
		c1.92-6.31,7.35-5.97,12.16-7.07C179.49,150.07,181.9,154.73,185.99,157.26z"/>
	<path class="st0" d="M470.5,86.51c-5.15,0.39-5.31,0.38-5.07-4.1c0.41-8.05,5.14-13.57,11.64-17.48c2.68-1.61,2.91,1.84,3.95,3.03
		c-2.92,2.72-5.81,5.16-8.41,7.89C469.77,78.82,469.9,82.6,470.5,86.51z"/>
	<path class="st0" d="M388.5,450.15l6.9-2.58c1.22,6.88,2.15,13.45-0.85,19.87c-0.72,1.55-1.52,2.88-3.57,2.42
		c-2.18-0.49-1.25-2.08-1.17-3.35c0.2-3.1,0.69-6.22,0.52-9.29C390.18,454.97,389.22,452.77,388.5,450.15z"/>
	<path class="st0" d="M137.44,109l-12.96-5.54l-1.9,3.76c-0.43-3.22-0.81-5.77-1.04-8.3c0.05-0.58,0.4-1.09,0.92-1.36
		c2.42-0.87,4.9-1.61,7.38-2.33c0.55,0.03,1.05,0.33,1.34,0.81c2.3,4.16,4.53,8.37,6.78,12.55L137.44,109z"/>
	<path class="st0" d="M462.82,205.57c2.07-1.81,3.51-3.58,5.37-4.61c6.05-3.35,11.61-7.5,16.55-12.34c3.91-3.82,6.11-8.05,5.5-13.62
		c-0.03-0.6-0.01-1.19,0.06-1.79c0-0.06,0.13-0.1,0.93-0.7c0.48,1.85,1.52,3.57,1.17,4.92c-3.88,14.7-13.96,23.53-27.8,28.62
		C464.39,206.12,464.06,205.91,462.82,205.57z"/>
	<path class="st0" d="M279.24,482.34l8.21,2.63c-7.33,9.86-6.94,15.3,1.47,22.46l-9.66-1.31L279.24,482.34z"/>
	<path class="st0" d="M314.1,447.8l-11.87,1.73c0.2-3.37,0.31-6.39,0.62-9.41c0.04-0.39,1.01-0.91,1.61-0.99
		c1.2-0.1,2.41-0.12,3.62-0.06C315.65,439.09,316.59,440.48,314.1,447.8z"/>
	<path class="st0" d="M283.24,437.25h7.9c3.22,0,5.2,2.68,3.28,5.17c-2.29,2.97-5.6,5.16-8.56,7.58c-0.17,0.14-1.61-0.67-1.69-1.12
		C283.76,445.13,283.54,441.4,283.24,437.25z"/>
	<path class="st0" d="M246.62,428.52c-0.52,1.76-0.96,3.28-1.51,5.2l-20-6.81l2.01-5.01L246.62,428.52z"/>
	<path class="st0" d="M314.28,88.27c-0.33,2.17-0.57,3.73-0.81,5.35l-20.2-1.19v-5.4L314.28,88.27z"/>
	<path class="st0" d="M143.25,347.91l-4.65,2.76l-9.32-19.1l4.96-2.08L143.25,347.91z"/>
	<path class="st0" d="M398.82,123.05l-3.22,4.29l-17.04-11.44c0.88-1.49,1.72-2.92,2.73-4.67L398.82,123.05z"/>
	<path class="st0" d="M268.18,88.5c0.23,2.25,0.38,3.72,0.55,5.41l-19.99,3.95c-0.4-1.56-0.81-3.06-1.34-5.19L268.18,88.5z"/>
	<path class="st0" d="M457.34,220.38l4.83-1.49c0.67,2.56,1.39,4.98,1.92,7.46c0.66,3.03,1.21,6.09,1.76,9.14
		c0.81,4.53,0.52,4.83-4.67,4.61C459.94,233.65,458.63,227.11,457.34,220.38z"/>
	<path class="st0" d="M337.53,98.5c0.41-1.77,0.81-3.31,1.24-5.26l19.91,6.8c-0.68,1.83-1.24,3.35-1.88,5.08L337.53,98.5z"/>
	<path class="st0" d="M456.65,309.18l5.19,1.39c-2.28,6.67-4.5,13.2-6.82,19.97l-4.98-2.15L456.65,309.18z"/>
	<path class="st0" d="M204.68,109.98l18.98-9.2l1.98,4.91c-5.81,2.93-11.4,5.8-17.05,8.54c-0.7,0.11-1.4-0.13-1.89-0.64
		C205.93,112.45,205.26,111.24,204.68,109.98z"/>
	<path class="st0" d="M185.65,522.84c-0.05-3.3,3.98-6.44,8.15-6.35c2.49,0,5.64,2.61,5.64,4.57c0,4.08-5.1,8.05-10.15,7.99
		C186.81,529,185.65,527.06,185.65,522.84z M190.82,526.01c4.42-2.42,4.69-3.22,2.29-6.14c-3.88,2.75-4.16,3.49-2.31,6.14H190.82z"
		/>
	<path class="st0" d="M171.75,141.85l-3.55-4.03l15.53-13.69c1.25,1.67,2.23,3,3.22,4.34L171.75,141.85z"/>
	<path class="st0" d="M466.91,285.69l-5.35-0.81c0.36-6.64,0.71-13.08,1.07-19.72h5.43C467.69,271.97,467.31,278.68,466.91,285.69z"
		/>
	<path class="st0" d="M465.17,429.24c-5.81,0.23-7.25,6.2-11.27,8.96c-1.55-8.86,4.21-17.88,11.27-17.61V429.24z"/>
	<path class="st0" d="M466.46,288.25c-1.34,6.66-2.64,13.17-4.03,19.94l-5.19-1.26c1.03-5.19,2.01-10.16,3-15.15
		c0.04-0.19,0.12-0.38,0.15-0.58C461.22,286.79,461.22,286.79,466.46,288.25z"/>
	<path class="st0" d="M461.68,242.76l5.28-0.81c0.38,6.86,0.75,13.5,1.13,20.38h-5.44C462.32,255.97,462.01,249.52,461.68,242.76z"
		/>
	<path class="st0" d="M428.64,383.25l5.6,2.46c1.28-1.34,2.42-3.28,3.98-3.82c0.81-0.28,2.49,1.92,4.19,3.35l-11.85,13.42
		C429.87,393.14,429.28,388.46,428.64,383.25z"/>
	<path class="st0" d="M316.33,94.13c-0.67-5.02-0.23-5.46,4.69-4.53c5.08,0.96,10.15,2,15.44,3.05c-0.48,1.9-0.88,3.48-1.31,5.21
		L316.33,94.13z"/>
	<path class="st0" d="M270.83,88.13l19.72-1.1v5.69c-0.89,0-1.86-0.04-2.81,0c-4.12,0.19-8.23,0.4-12.34,0.61
		C270.68,93.6,270.68,93.61,270.83,88.13z"/>
	<path class="st0" d="M245.06,93.24c0.52,2.1,0.91,3.62,1.31,5.26l-18.42,6.31l-2.13-4.97L245.06,93.24z"/>
	<path class="st0" d="M188.94,126.86l-3.29-4.23l16.96-11.39l2.65,4.74L188.94,126.86z"/>
	<path class="st0" d="M358.88,106.04c0.69-1.61,1.35-3.1,2.16-4.94l18.14,8.93c-1.01,1.72-1.84,3.13-2.75,4.67L358.88,106.04z"/>
	<path class="st0" d="M204.69,416.92l2.76-4.62l17.51,8.61l-2.09,4.99L204.69,416.92z"/>
	<path class="st0" d="M411.34,141.15l-13.91-12.3c0.98-1.34,1.96-2.67,3.22-4.36l15.12,13.39L411.34,141.15z"/>
	<path class="st0" d="M449.08,330.66l5.02,2.05c-2.75,5.48-5.18,10.9-8.15,16.02c-1.8,3.11-3.6,0.15-5.46-0.65
		C443.33,342.31,446.11,336.72,449.08,330.66z"/>
	<path class="st0" d="M357.71,427.25l-18.93,6.44c-0.53-1.85-0.99-3.44-1.5-5.19c5.32-1.83,10.47-3.91,15.76-5.21
		c1.34-0.33,3.3,1.8,4.98,2.79L357.71,427.25z"/>
	<path class="st0" d="M300.56,506.73v-4.13h5.07v-13.93h-5.06v-4.22c5.84,0.98,10,5.4,10.07,10.63
		C310.74,501.16,307.04,505.48,300.56,506.73z"/>
	<path class="st0" d="M141.7,388.58l13.05,14.17l-4.54,4.03c-3.03-3.22-6.51-6.03-8.66-9.62
		C140.41,395.27,141.56,391.98,141.7,388.58z"/>
	<path class="st0" d="M456.79,218.28c-2.24-6.59-4.28-12.59-6.32-18.6c2.42-0.67,5.93,0.81,6.72,2.99
		c1.43,3.95,2.87,7.92,3.93,11.97C462.13,218.53,458.31,216.74,456.79,218.28z"/>
	<path class="st0" d="M205.37,411.08l-2.48,4.31c-6.82-2.84-11.79-7.63-15.9-13.75l1.46-1.92L205.37,411.08z"/>
	<path class="st0" d="M355.89,387.73c1.76,0.43,3.53,0.76,5.32,0.99c0.43,0,1.3-0.81,1.34-1.27c0.26-3.22,2.62-3.91,5.11-4.66
		c-0.81,4.83-3.76,8.3-8.3,8.76c-3.08,0.31-5.78,3.22-9.2,1.28c-0.38-0.21-1.47,0.81-2.21,1.31c-3.16,2.07-6.2,4.44-10.92,3.91
		c0.47-0.72,1.05-1.36,1.72-1.91c2.58-1.5,5.27-2.83,7.88-4.27c0.87-0.48,1.78-1.74,2.42-1.61
		C352.42,391.02,355.05,390.42,355.89,387.73z"/>
	<path class="st0" d="M454.14,446.68c-0.87-3.1-0.31-5.55,2.36-7.66c1.85-1.47,3.09-3.68,4.83-5.36c0.97-0.96,2.34-1.51,3.97-2.52
		c0.27,3.75,0.48,6.73,0.68,9.53L454.14,446.68z"/>
	<path class="st0" d="M465.27,453.77c0.57,0.81,0.68,0.81,0.68,0.93c1.18,8.38,1.18,8.38-7.1,8.53c-1.61,0-3.17,0-4.83,0
		c-0.81-3.04-0.48-5.25,2.74-6.32C459.68,455.94,462.51,454.8,465.27,453.77z"/>
	<path class="st0" d="M308.67,460.82c-2.23,0-5.84-3.72-5.86-6.02c0-2.87,2.82-4.67,7.56-4.75c1.98,0,3.84,2.21,3.82,4.61
		C314.17,457.51,311.19,460.84,308.67,460.82z"/>
	<path class="st0" d="M454.12,425.05c-1.36-11.47,1.31-12.55,10.47-13.78c0.17,2.07,0.34,4.12,0.55,6.67
		C460.3,418.05,457.27,421.27,454.12,425.05z"/>
	<path class="st0" d="M470.3,153.99c0-5.28,2.58-7.88,7.43-7.71c2.18,0.07,3.3,1.18,3.01,3.16c-0.39,2.71-1.2,5.37-1.9,8.35
		L470.3,153.99z"/>
	<path class="st0" d="M96.67,242.09c0.81-1.44,1.42-3.12,2.54-4.26c1.27-1.28,3.03-2.07,5.27-3.54c0.43,6.73,4.78,6.72,8.78,7.08
		c1.95,0.18,3.93,0,6.66,0c-3.88,3.49-7.77,3.42-11.71,2.75c-1.58-0.25-3.1-0.79-4.47-1.61c-2.63-1.65-4.83-1.84-6.82,1.61
		c-0.09-1.14-0.14-1.67-0.18-2.21L96.67,242.09z"/>
	<path class="st0" d="M118.01,182.63c3.59-2.13,3.04-5.44,2.75-8.86c-3.86,0.81-7.29,5.13-11.33,1.47c-1.34-1.22-1.84-3.37-2.72-5.1
		l0.93-0.55c0.53,0.38,1.03,0.8,1.51,1.25c2.18,2.22,4.33,2.98,7.41,1.22c3.92-2.25,5.57-1.3,6.72,3.22
		c0.35,1.35,0.54,2.73,0.57,4.12C123.92,183.52,122.17,184.53,118.01,182.63z"/>
	<path class="st0" d="M294.82,484.34v4.2h-6.3v13.93h6.28v4.16c-5.39-0.12-9.88-5.86-10.15-9.49
		C284.19,490.66,287.67,486.09,294.82,484.34z"/>
	<path class="st0" d="M454.13,455.23c-1.04-3.7,0-6.31,3.73-7.87c2.59-1.1,5.02-2.6,7.99-4.16v8.21L454.13,455.23z"/>
	<path class="st0" d="M141.81,139.83c-4.11-2.77-7.73-1.69-11.06,1.61l-0.59-1.39c1.1-1.12,2.03-2.56,3.35-3.27
		c1.88-1.01,2.13-2.34,1.93-4.16c-0.52-4.77-0.08-6.44,6.86-8.91c-3.36,3.76-2.65,7.34-0.93,11.06c0.44,1.28,0.74,2.61,0.89,3.95
		L141.81,139.83z"/>
	<path class="st0" d="M114.87,152.98c4.54,1.94,9.02,3.79,13.42,5.81c0.48,0.22,0.97,1.79,0.71,2.1c-1.72,2.05-3.37,4.44-5.64,5.73
		c-2.79,1.61-4.71-0.92-6.44-2.56l7.4-0.64l0.16-0.95C120.94,159.63,115.51,158.55,114.87,152.98z"/>
	<path class="st0" d="M148.61,356.41c1.22,4.41,1.61,9.08,3.77,12.67c2.16,3.58,6.15,6.13,9.5,9.27c-2.78,0.95-4.83,0.39-6.73-1.74
		c-3.66-4.03-7.09-8.01-8.62-13.46C145.46,359.47,145.32,358.91,148.61,356.41z"/>
	<path class="st0" d="M304.5,524.63c-7.63,1.92-10.05-2.98-12.13-8.86C299,513.28,302.32,515.66,304.5,524.63z"/>
	<path class="st0" d="M449.32,181.01c-2.28-1.57-2.98-3.4-3.44-9.13c8.42,1.61,14.2-1.76,16.98-10.3c1.96,6.1-2.07,12.3-7.67,12.08
		c-3.45-0.15-4.59,1.32-4.96,4.29C450.01,178.99,449.71,180.01,449.32,181.01z"/>
	<path class="st0" d="M449.02,356.7c0-6.63,1.11-7.3,7.04-4.11c0.95,0.52,1.8,1.21,2.5,2.04c1.21,1.39,1.18,2.54-0.81,3.45
		c-1.78,0.9-3.49,1.95-5.11,3.12c-2.13,1.43-3.42,0.81-3.63-1.78C448.97,358.51,449.02,357.6,449.02,356.7z"/>
	<path class="st0" d="M439.55,177.28l-5.52-8.58c-0.44-0.67-0.89-1.34-1.34-2c-2.79-4.11-2.79-4.11,0.35-8.61
		c2.42,3.04,5.07,5.88,5.22,10.12c0.13,1.08,0.6,2.09,1.33,2.89C441.61,173.52,441.72,173.53,439.55,177.28z"/>
	<path class="st0" d="M171.06,371.35c-4.53-5.81-10.23-10.9-11.58-18.64c-0.24-1.39,0.81-3.04,1.4-4.48
		c0.89,0.1,1.75,0.37,2.53,0.81c0.5,0.42,0.76,1.06,0.7,1.72c-1.27,6.07,1.52,10.69,5.23,15.01c0.87,0.83,1.65,1.76,2.33,2.75
		c0.39,0.72,0.23,1.75,0.32,2.64L171.06,371.35z"/>
	<path class="st0" d="M169.69,344.92c0.56,8.58,1.05,16.47,6.05,23.25c-4.58-3.31-8.51-7.13-9.41-12.79
		C165.76,351.86,165.72,347.99,169.69,344.92z"/>
	<path class="st0" d="M173.57,344.34c0.43,1.01,0.8,2.04,1.11,3.08c1.52,6.19,2.42,12.63,7.47,17.72l-3.33,1.89
		C173.15,362.16,171.27,349.94,173.57,344.34z"/>
	<path class="st0" d="M196.69,421.15l3.64,1.61c2.05,5.7-1.72,10.12-2.48,15.06C194.25,435.77,193.36,425.76,196.69,421.15z"/>
	<path class="st0" d="M461.93,380.01c0.26,3.53,0.47,6.48,0.7,9.74l-7.51,3.1c-0.12-2.89-0.08-5.78,0.12-8.66
		c0.1-0.93,1.43-1.89,2.42-2.5C458.64,381.07,460.03,380.73,461.93,380.01z"/>
	<path class="st0" d="M118.35,290.01c2.2,0.5,4.25,0.86,6.23,1.47c0.65,0.2,1.5,0.97,1.55,1.55c0.06,0.58-0.81,1.36-1.4,1.61
		c-4.21,1.73-8.93,1.73-13.14,0c-0.63-0.25-1.47-1.1-1.43-1.61s0.89-1.37,1.54-1.55C113.89,290.88,116.15,290.49,118.35,290.01z"/>
	<path class="st0" d="M462.65,392.6c0.1,0.16,0.26,0.31,0.28,0.49c1.1,7.46,1.1,7.46-8.15,10.32
		C453.8,395.9,455.14,394,462.65,392.6z"/>
	<path class="st0" d="M167.93,372.41c-0.9-0.2-2.03-0.12-2.66-0.64c-5.78-4.74-9.66-10.66-10.62-18.22
		c-0.1-0.81,0.61-1.73,1.49-2.57c1.67,8.46,6.98,14.49,12.2,20.63L167.93,372.41z"/>
	<path class="st0" d="M464.21,386.53v-16.56l7.43,1.13c-2.34,5.5-4.56,10.68-6.77,15.86L464.21,386.53z"/>
	<path class="st0" d="M111.44,118.95c0.5-3.95,1-7.91,1.51-11.89c7.8,1.55,6.6,0.33,5.05,6.71
		C116.64,119.3,116.32,119.59,111.44,118.95z"/>
	<path class="st0" d="M122.39,275.21c0.48,3.82-3.97,8.53-9.97,10.56c0-2.46-0.11-4.83,0.06-7.16c0.15-0.85,0.71-1.57,1.49-1.92
		C116.73,276.05,119.57,275.68,122.39,275.21z"/>
	<path class="st0" d="M288.37,525.19c-2.01-0.22-4-0.57-5.97-1.05c-3.2-0.78-5.18-3.98-4.46-7.19c0.14-0.87,1.24-2.21,1.94-2.23
		c1.45-0.06,3.35-1.02,4.26,1.51C285.2,519.16,286.8,521.93,288.37,525.19z"/>
	<path class="st0" d="M390.57,402.36c2.09,5.71,2.03,5.97-2.2,8.72c-2.01,1.31-4.07,2.55-6.1,3.82c-0.34,0.2-0.71,0.35-1.18,0.58
		l-1.92-2.97L390.57,402.36z"/>
	<path class="st0" d="M451.01,485.28c3.59-2.8,14.64-3,19.51-0.36C468.48,488.28,454.97,488.53,451.01,485.28z"/>
	<path class="st0" d="M370.41,394.74l2.96-1.87l-0.61-2.55l2.63,1.12l6.69-2.91c-0.17,1.47-0.27,2.36-0.4,3.52l4.36,0.7
		c-1.95,2.47-2.26,2.46-7.8-0.18c-1.25,2.76-1.25,2.76,5.47,5.41C381.07,399.26,381.07,399.26,370.41,394.74z"/>
	<path class="st0" d="M124.55,79.22c0.23,2.74,0.42,4.91,0.62,7.25c-6.8-0.29-3.75,5.29-5.22,8.21c-5.64-1.61-5.42-4.83-1.84-9.17
		C119.88,83.37,122.12,81.57,124.55,79.22z"/>
	<path class="st0" d="M481.7,103.86c-0.53-0.95-0.9-1.48-1.15-2.07c-1.68-3.92-4.42-6.56-8.75-7.3c-2.05-0.35-2.92-1.35-2.22-3.52
		c0.81-2.42,2.34-1.26,3.59-0.81c6.68,2.42,9.57,6.1,9.12,11.61C482.14,102.48,481.95,103.18,481.7,103.86z"/>
	<path class="st0" d="M133.48,327.29l-5.42,2.22c-0.81-3.91-1.72-7.51-2.25-11.16c-0.11-0.76,1.05-1.7,1.61-2.56
		c0.85,0.57,2.13,0.96,2.46,1.75C131.22,320.61,132.24,323.84,133.48,327.29z"/>
	<path class="st0" d="M144.5,421.71v31.64C141.58,442.81,140.26,432.27,144.5,421.71z"/>
	<path class="st0" d="M166.85,377.14c-8.05-0.39-17.72-15.13-13.91-21.3C154.06,365.33,161.14,370.36,166.85,377.14z"/>
	<path class="st0" d="M180.07,341.91c0,7.31,0.06,14.7,6.15,21.11c-1.47,0-2.42,0.27-2.7-0.05c-1.19-1.32-2.63-2.67-3.22-4.28
		c-1.5-4.43-2.76-8.94-3.77-13.51C175.98,342.36,176.79,341.78,180.07,341.91z"/>
	<path class="st0" d="M354.07,408.77l-3.98-1.77c-0.28-3.31-0.4-6.24-0.81-9.13c-0.27-1.86,0.63-2.93,2.1-2.81
		c1.22,0.1,3.32,1.26,3.34,1.99C354.81,400.76,354.36,404.48,354.07,408.77z"/>
	<path class="st0" d="M375.86,413.76l-2.8-2.15l16.11-16.65c1.39,4.14,1.08,3.78-1.47,5.99c-3.72,3.22-6.96,7.02-10.36,10.61
		C376.78,412.25,376.29,412.99,375.86,413.76z"/>
	<path class="st0" d="M311.92,518.97c-0.14,5.48-0.14,5.48-5.73,5.22c-0.94-2.83-1.89-5.69-2.93-8.79c2.75-0.23,5.43-0.81,7.76,1.25
		L311.92,518.97z"/>
	<path class="st0" d="M469.52,465.96c-3.55,2.96-13.88,3.04-17.87,0.13C454.75,462.93,465.82,462.85,469.52,465.96z"/>
	<path class="st0" d="M119.3,106.34c-5.06,0.13-6.02-0.97-5.22-5.74c0.33-1.95,0.49-3.93,0.73-5.97
		C120.19,96.9,120.85,98.69,119.3,106.34z"/>
	<path class="st0" d="M463.97,408.16l-9.66,3.66c-1.04-5.17,2.12-8.16,9.66-8.86V408.16z"/>
	<path class="st0" d="M181.07,367.11c0.69,6.44,1.29,12.01,1.88,17.58c-3.77-2.86-6.61-10.37-5.23-14.66
		C178.08,368.98,179.64,368.32,181.07,367.11z"/>
	<path class="st0" d="M123.06,280.74l1.61,8.47h-12.99L123.06,280.74z"/>
	<path class="st0" d="M460.13,359.27c2.01,7.91,1.71,6.67-4.83,11.43c-0.65-2.08-1.34-4.07-1.87-6.12c-0.04-0.57,0.2-1.12,0.64-1.49
		C455.99,361.75,458.01,360.56,460.13,359.27z"/>
	<path class="st0" d="M296.22,525.15c-2.77,0.81-4.62,0.21-5.98-2.21c-1.35-2.42-4.76-3.55-4.69-6.99c0-0.28,0.06-0.57,0.09-0.81
		c3.78-0.93,4.5-0.48,6.13,2.69C293.03,520.32,294.64,522.56,296.22,525.15z"/>
	<path class="st0" d="M117.03,177.75c-2.13,3.38-4.73,6.13-8.53,5.98c-3.79-0.14-5.55-3.4-7.17-7.12
		C106.8,177.04,111.52,182.92,117.03,177.75z"/>
	<path class="st0" d="M461.77,369.51v8.18l-6.18,2.22C454.21,374.46,455.49,372.19,461.77,369.51z"/>
	<path class="st0" d="M138.23,119.16c-1.39-0.13-3.17-0.24-4.94-0.45c-2.24-0.28-3.45-1.61-3.31-3.87c-0.04-1.81,1.39-3.31,3.2-3.35
		c0.11,0,0.22,0,0.32,0.01c2.25,0,3.41,1.26,3.71,3.5C137.48,116.4,137.81,117.79,138.23,119.16z"/>
	<path class="st0" d="M131.82,90.88c-5.39-2.33-5.64-2.92-4.61-9.61c3.29-1.02,4.45,1.66,5.74,3.59
		C134.4,87.04,132.85,88.97,131.82,90.88z"/>
	<path class="st0" d="M345.09,142.04l-7.58,8.49v-10.87c1.53-0.5,3.48,3.4,4.89-0.54L345.09,142.04z"/>
	<path class="st0" d="M450.69,139.43l7.03,9.55c-3.31-0.92-6.39-1.61-9.34-2.68c-0.88-0.31-1.42-1.61-2.29-2.64L450.69,139.43z"/>
	<path class="st0" d="M129,313.25c-6.53,1.92-12.6,1.72-19.04,0.2C113.29,310.89,124.33,310.76,129,313.25z"/>
	<path class="st0" d="M102.36,245.66c4.59,3.38,9.45,3.72,14.64,2.36c-2.68,4.03-6.51,4.9-11.86,3.04
		C102.71,250.19,101.48,248.71,102.36,245.66z"/>
	<path class="st0" d="M311.92,518.97l-0.89-2.32c0.23-0.48,0.37-1.3,0.72-1.39c2.87-0.81,5.51,0,5.94,1.78
		c0.81,3.3-0.73,5.64-4.12,6.3C313.01,521.86,312.47,520.41,311.92,518.97z"/>
	<path class="st0" d="M120.47,234.62c-5.35,5.69-12.69,3.78-16.03-4.03C109.55,233.01,114.08,236.54,120.47,234.62z"/>
	<path class="st0" d="M112.52,274.84v-5.7l10.55,2.71v0.99C119.91,274.82,116.2,274.37,112.52,274.84z"/>
	<path class="st0" d="M192.15,205.58c0.19-2.12,1.08-4.41,3.22-3.81c1.47,0.43,2.69,2.87,3.27,4.67c0.19,0.59-1.86,2.63-3.06,2.79
		C193.22,209.56,192.42,207.61,192.15,205.58z"/>
	<path class="st0" d="M88.57,202.24l13.82,5.46c-4.35,0.88-8.24,1.39-11.63-1.06C89.61,205.79,89.31,203.79,88.57,202.24z"/>
	<path class="st0" d="M144,359.27l-4.03-6.51l4.51-2.95l2.67,4.34L144,359.27z"/>
	<path class="st0" d="M254.37,430.36v5.35l-6.63-1.5C248.97,428.07,248.06,428.66,254.37,430.36z"/>
	<path class="st0" d="M303.28,496.64v2.67h-11.16v-2.67H303.28z"/>
	<path class="st0" d="M446.91,351.55c-0.14,2.64-0.27,5.2-0.43,8.17l-8.13-3.97L446.91,351.55z"/>
	<path class="st0" d="M202.17,429.64c1.44-2.01-1.74-5.79,2.58-6.24c1.77-0.22,3.37,1.04,3.59,2.81c0.04,0.35,0.03,0.7-0.04,1.05
		C207.8,430.53,204.54,429.07,202.17,429.64z"/>
	<path class="st0" d="M132.37,128.84c-0.23,5.27-2.71,7.51-6.44,6.02c-1.61-0.66-2-1.56-0.56-2.81c0.43-0.43,0.94-0.79,1.49-1.05
		C128.63,130.23,130.47,129.56,132.37,128.84z"/>
	<path class="st0" d="M233.96,164.01c-1.81,1.61-2.86,3.38-4.03,3.49c-2,0.19-3-1.76-2.55-3.54c0.33-1.3,1.61-2.35,2.51-3.52
		L233.96,164.01z"/>
	<path class="st0" d="M400.04,203.41c2.46-1.61,4.76-3.63,7.4-4.83c2.64-1.2,3.22,1.33,4.59,3.29l-11.72,1.99L400.04,203.41z"/>
	<path class="st0" d="M387.34,465.76c-3.12-3.22-3.35-6.65-0.89-10.82C388.97,457.87,389.31,461.53,387.34,465.76z"/>
	<path class="st0" d="M180.01,393.09c-0.3,0-0.66,0.11-0.88,0c-1.09-0.67-2.14-1.4-3.22-2.11c1.09-0.69,2.16-1.41,3.26-2.06
		c0.28-0.12,0.6-0.12,0.88,0c1.42,0.63,2.82,1.31,4.23,1.98l-3.82,2.85L180.01,393.09z"/>
	<path class="st0" d="M392.6,207.4c-0.72-1.19-2.16-2.5-1.98-3.55s1.92-2.74,2.93-2.7c1.01,0.04,2.61,1.81,2.71,2.93
		c0.1,1.12-1.44,2.25-2.26,3.37L392.6,207.4z"/>
	<path class="st0" d="M302.92,493.39h-11.27c-0.71-1.61-0.48-2.42,1.47-2.36c2.82,0.06,5.64-0.08,8.45,0.08
		c0.71,0,1.37,0.91,2.05,1.39C303.4,492.8,303.17,493.1,302.92,493.39z"/>
	<path class="st0" d="M365.15,168.76c-1.9,1.44-3.22,3.12-4.07,2.92c-1.33-0.57-2.26-1.79-2.46-3.22c0-1.09,1.68-2.13,2.63-3.22
		L365.15,168.76z"/>
	<path class="st0" d="M355.24,408.99c0.71-3.8,1.42-7.61,2.17-11.66l3.87,1.8l-5.43,9.88L355.24,408.99z"/>
	<path class="st0" d="M155.16,392.45v-2.87c2.01-0.05,4.03-0.19,6.02-0.08c0.47,0,1.3,0.95,1.24,1.36
		c-0.08,0.63-0.76,1.61-1.26,1.67C159.19,392.67,157.17,392.5,155.16,392.45z"/>
	<path class="st0" d="M121.88,95.51c-0.17-0.31-0.27-0.41-0.26-0.48c1.78-7.97,1.84-7.25,7.89-2.32L121.88,95.51z"/>
	<path class="st0" d="M458.86,202.07l3.35,0.41c-0.39,1.8-1.5,3.74,1.25,4.41c0.21,0.05,0.18,1.25,0.19,1.92
		c0.09,2.16-0.07,4.32-0.48,6.44L458.86,202.07z"/>
	<path class="st0" d="M347.75,405.34l-5.6-4.91l4.89-2.58C348.16,400.26,349.67,402.44,347.75,405.34z"/>
	<path class="st0" d="M462.65,94.86c0.15-1.02,0-2.05,0.47-2.67c0.92-1.1,1.92-2.12,3.01-3.04c0.43,1.02,1.22,2.04,1.22,3.06
		c0,1.68-0.71,3.13-2.84,2.96C463.97,95.14,463.46,94.99,462.65,94.86z"/>
	<path class="st0" d="M130.4,154.18c-4.95,1.61-7.93-1.34-10.73-4.69L130.4,154.18z"/>
	<path class="st0" d="M269.68,437.59h11.68c-0.61,0.81-1.1,1.92-1.49,1.89c-3.41-0.26-6.82-0.71-10.23-1.11L269.68,437.59z"/>
	<path class="st0" d="M379.62,381.69l8.86,2.17c-1.34,0.81-2.42,1.91-3.68,2.06C382.13,386.24,380.87,384.28,379.62,381.69z"/>
	<path class="st0" d="M124.28,146.04h6.69l-2.13,4.66l-4.94-4.1L124.28,146.04z"/>
	<path class="st0" d="M439.3,149.9l5.85-5.3c0.26,1.42,0.81,2.92,0.52,3.08C443.84,148.8,442.84,152.26,439.3,149.9z"/>
	<path class="st0" d="M434.3,377.73c0.99,0.87,1.8,1.61,2.71,2.42c-1.67,1.8-2.87,4.49-6.22,1.78L434.3,377.73z"/>
	<path class="st0" d="M430.49,374.96l2.38,1.61l-3.89,5.05C426.64,378.59,428.92,377.02,430.49,374.96z"/>
	<path class="st0" d="M480.23,71.32c1.36,3.29-0.94,4.91-2.77,6.74C476.08,74.59,476.47,73.59,480.23,71.32z"/>
	<path class="st0" d="M417.67,140.08l1.8,1.96l-3.63,4.16l-2.24-3L417.67,140.08z"/>
	<path class="st0" d="M120.32,186.86c-1.55,0.91-3.17,1.72-4.83,2.42c-0.17,0.06-1.06-1.83-1.88-3.29h6.22L120.32,186.86z"/>
	<path class="st0" d="M298.95,447.93l-2.01-6.31h3.16v6.02L298.95,447.93z"/>
	<path class="st0" d="M373.33,398.92l7.79,2.53C377.46,403.61,373.81,402.42,373.33,398.92z"/>
	<path class="st0" d="M308.49,467.9c-0.47-1.61-0.94-3.22-1.61-5.53c1.49,0.47,3.49,0.81,3.48,1.14c-0.16,1.55-0.5,3.07-1,4.55
		L308.49,467.9z"/>
	<path class="st0" d="M173.32,210.42c1.18-1.52,1.86-2.42,2.67-3.45l4.25,3.45H173.32z"/>
	<path class="st0" d="M434.19,156.68l4.56-2.67c-0.69,2.21-1.34,4.28-1.94,6.22L434.19,156.68z"/>
	<path class="st0" d="M301.52,438.33c-0.89,0.44-1.79,1.24-2.67,1.23c-0.89-0.01-1.78-0.81-2.67-1.28l0.32-0.89h4.43L301.52,438.33z
		"/>
	<path class="st0" d="M383.51,377.38c0.96,0.49,1.89,1.04,2.78,1.66c0.44,0.51,0.8,1.08,1.05,1.71c-0.71,0.1-1.71,0.53-2.06,0.23
		c-0.91-0.94-1.73-1.96-2.46-3.04L383.51,377.38z"/>
	<path class="st0" d="M111.78,120.62h3.47l-2.53,5.07C112.37,123.65,112.09,122.3,111.78,120.62z"/>
	<path class="st0" d="M211.28,432.66l-2.78-2.38l3.95-1.49l0.54,0.91L211.28,432.66z"/>
	<path class="st0" d="M361.43,260.88c1.52,34.09-28.82,67.69-68.73,66.47c-30.23-0.93-66.72-27.07-63.69-72.15
		c2.12-31.52,30.08-62.55,69.37-60.93C334.29,195.8,362.85,226.89,361.43,260.88z M233.29,260.68c-1.75,31.74,25.77,61.05,59,62.42
		c37.11,1.51,63.3-28.18,64.98-56.81c1.12-19.23-4.22-35.95-17.92-49.62c-11.4-11.38-25.25-17.39-41.45-18.19
		C260.18,196.61,231.37,229.19,233.29,260.68L233.29,260.68z"/>
	<path class="st0" d="M204.29,263.34c0.57,16.05-13.87,30.5-30.84,30.2c-15.3-0.27-30.27-13.69-29.72-31.4
		c0.47-15.09,13.79-29.9,31.56-29.25C190.81,233.41,204.97,247.03,204.29,263.34z M145.66,263.22
		c-1.03,14.61,11.73,28.95,28.45,28.81c16.28-0.13,28.72-12.57,28.81-28.81c0.1-17.06-14.38-28.18-27.89-28.68
		C157.96,233.93,144.26,249.25,145.66,263.22L145.66,263.22z"/>
	<path class="st0" d="M407.48,293.4c-16.15,0.72-30.8-13.77-30.46-30.87c0.28-15.59,13.97-30.1,31.16-29.68
		c15.3,0.35,30.04,13.79,29.54,31.31C437.25,279.9,423.52,293.94,407.48,293.4z M378.96,263.01c-1.1,14.98,11.84,29.05,28.23,29.04
		c16.39-0.01,28.99-12.64,29.03-28.9c0-17.04-14.34-28.02-27.68-28.58C390.74,233.82,377.61,249.75,378.96,263.01L378.96,263.01z"/>
	<path class="st0" d="M294.71,405.21c-15.83,0.56-30.47-13.69-30.12-30.91c0.32-15.55,13.96-30.08,31.2-29.66
		c15.26,0.38,30.01,13.79,29.49,31.35C324.81,391.69,311.07,405.97,294.71,405.21z M266.53,374.78
		c-1.1,15.04,11.85,29.07,28.18,29.08c16.48,0,28.99-12.64,29.06-28.87c0.05-17.06-14.33-28.05-27.64-28.6
		c-17.88-0.77-30.93,15.29-29.59,28.39H266.53z"/>
	<path class="st0" d="M325.76,149.62c0.64,16-13.78,30.71-31.05,30.28c-15.3-0.38-30-13.79-29.51-31.33
		c0.43-15.2,13.84-29.95,31.48-29.35C312.26,119.74,326.4,133.36,325.76,149.62z M267.47,144.45
		c-2.48,21.87,11.64,31.98,25.02,33.87c11.79,1.67,28.02-5.35,31.79-25.01c2.01-10.52-4.74-26.48-19.97-31.07
		c-12.33-3.7-25.9,0.99-30.66,9.84c2.36-1.43,4.5-3.22,6.85-4.61c6.56-3.98,13.5-5.64,20.74-2.01c3.51,1.71,6.82,3.82,9.85,6.28
		c3.91,3.27,8,7.04,8.56,12.33c1.07,10.14-0.63,19.72-9.28,26.57c-5.92,4.69-12.59,7.25-20.3,6.12c-4.96-0.7-8.82-3.54-12.71-6.4
		c-4.91-3.62-6.12-8.46-4.72-14.08c0.26-1.02,1.51-1.8,2.31-2.69c0.51,0.85,0.92,1.75,1.23,2.68c0.52,2.42,0.74,4.95,1.34,7.37
		c0.67,2.71,2.37,4.71,5.2,5.25c3.8,0.78,7.65,1.35,11.52,1.72c1.04,0.08,2.42-1.02,3.22-1.91c3.07-3.15,0.98-6.81,0.73-10.28
		c-0.25,1.06,0,2.22-0.31,3.17c-0.56,1.61-1.14,3.65-2.42,4.42c-0.81,0.49-3.01-0.7-4.23-1.61c-1.91-1.44-3.44-2.86-6.08-1.23
		c-1.4,0.86-3.03,0.44-2.95-1.88c0-1.31-0.1-2.63,0.06-3.92c0.19-1.61,0.91-2.49,2.84-2.17c1.93,0.31,3.62,0.81,4.83,2.6
		c0.66,1.01,1.84,1.69,3.46,3.1c-0.37-1.76-0.54-2.61-0.73-3.45c-0.61-2.73-0.6-4.83,2.69-6.23c3.74-1.61,7.3-3.81,8.58-8.22
		c0.33-0.73,0.83-1.37,1.46-1.87c2.78-2.76,2.92-4.16,0.35-8.16c0.27,4.83-4.97,7.11-4.27,11.82c0.06,0.38-0.88,0.97-1.43,1.36
		c-3.82,2.75-8.8,3.77-11.76,7.86c-0.56,0.43-1.29,0.55-1.96,0.35c-1.61-0.58-3.11-1.39-5.64-2.56l10.47-9.03
		c-5.74,0-8.7,3.5-10.69,8.74c-2.86-7.14-2.86-7.14-6.44-6.3c-0.13,1.75-0.26,3.54-0.39,5.34
		C268.5,151.6,268.53,147.48,267.47,144.45L267.47,144.45z"/>
	<path class="st0" d="M399.43,299.44c2.42,0,4.38,1.55,4.28,3.62c-0.11,2.42-1.72,3.46-3.97,3.62c-2.42,0.15-4.36-1.4-4.45-3.46
		C395.19,301.16,397,299.48,399.43,299.44z"/>
	<path class="st0" d="M240.49,360.88c-1.8,1.22-2.91,2.54-3.85,2.42c-0.94-0.12-1.83-1.61-2.73-2.46c0.95-0.93,1.8-2.42,2.89-2.61
		C237.63,358.11,238.79,359.58,240.49,360.88z"/>
	<path class="st0" d="M149.02,444.71c1.61-3.62,2.37-7.39,4.55-9.99c5.16-6.14,10.77-6.39,16.44-0.59c5.39,5.51,5.36,15.89,0,21.37
		c-5.7,5.78-11.34,5.48-16.44-0.68C151.31,452.16,150.55,448.29,149.02,444.71z M171.87,443.57c-1.14-2.04-2.34-5.27-4.45-7.74
		c-2.79-3.22-6.92-3.33-10.17-0.81c-5.38,4.19-6.34,11.95-2.15,17.32c0.63,0.8,1.35,1.53,2.15,2.15c2.99,2.35,6.55,2.23,9.6-0.07
		C170.03,452.03,171.02,448.52,171.87,443.57z"/>
	<path class="st0" d="M525.46,209.39c-0.19,11.46-8.92,20.49-19.79,19.87c-6.98-0.4-14.85-5.35-17.1-16.46
		c-1.79-8.81,3.6-18.81,11.95-22.1c10.07-3.96,21.48,2.34,24.11,13.37C525,205.81,525.15,207.61,525.46,209.39z M490.22,209.27
		c0.38,10.79,7.74,18,16.58,18.05c8.53,0.06,16.39-6.81,16.56-17.68c0.16-10.54-7.19-17.97-16.33-18.21
		c-8.41-0.22-16.33,6.68-16.85,17.83H490.22z"/>
	<path class="st0" d="M415.39,430.93l2.35,4.58l6.82-2.81c-0.85,4.5-3.87,6.8-8.05,6.19c-1.12-0.06-2.24,0-3.35,0.17
		c0.19,0.93,0.06,2.16,0.62,2.71c0.89,0.89,2.31,1.98,3.34,1.84c2.53-0.35,4.96-1.38,7.44-2.1c0.48-0.08,0.97-0.11,1.46-0.1
		c-1.89,2.87-4.1,4.74-7.39,5.19c-3.83,0.52-7.64,1.18-11.47,1.71c-2,0.27-1.78-1.17-1.42-2.29c0.43-0.96,0.97-1.86,1.61-2.7
		l-2.42-1.56l-0.14-0.95l4.03-0.9c1.5-1.99,3-3.89,4.39-5.87c0.49-0.84,0.9-1.73,1.22-2.65L415.39,430.93z"/>
	<path class="st0" d="M410.47,403.83c2.99-0.35,5.06-1.83,6.35-5.12c-4.83-0.07-9.72,2.03-13.81-2.18c3.18-0.56,6.13-1.04,9.06-1.61
		c1.08-0.2,2.14-0.47,3.18-0.81c4.2-1.34,4.32-1.31,4.2,2.97c-0.11,1.39-0.3,2.77-0.57,4.14c-0.39,2.58-2.05,3.47-4.48,3.41
		c-1.26,0-2.53,0-3.79,0C410.55,404.36,410.51,404.1,410.47,403.83z"/>
	<path class="st0" d="M407.83,377.2c0.23-1.51,0.19-3.12,0.76-4.48c0.81-1.85,0.44-3.11-0.81-4.59c-3.75-4.44-3.73-5.64-0.17-11.03
		c0.16,0.67,0.28,1.36,0.35,2.05c-0.01,2.35,1.29,4.51,3.37,5.6c0.98,0.5,1.9,1.11,2.75,1.81c0.85,0.9,1.64,1.85,2.37,2.86
		c-1.16,0.57-2.29,1.19-3.38,1.88c-0.85,0.52-1.58,1.22-2.15,2.05c-0.75,1.35-1.41,2.74-1.99,4.16L407.83,377.2z"/>
	<path class="st0" d="M419.76,415.63c0.38,4.03-0.21,7.62-3.45,9.76c-3.24,2.14-6.44,0.31-10.06-1.45
		C411.01,420.93,418.22,422.88,419.76,415.63z"/>
	<path class="st0" d="M425.43,448.27c-3.96,6.29-10.4,7.78-13.25,3.48L425.43,448.27z"/>
	<path class="st0" d="M406.48,350.63c0.56-1.12,1.2-3.11,2.42-4.61c0.92-1.04,2.26-1.6,3.64-1.52c0.85,0.17,2.09,2.2,1.87,3.07
		c-0.28,1.06-1.78,2.17-2.97,2.55C409.77,350.64,407.9,350.51,406.48,350.63z"/>
	<path class="st0" d="M403.01,366.63c2.75,5.13,2.42,7.56-0.93,8.69c-0.8,0.32-1.69,0.29-2.47-0.06c-0.4-0.32-0.37-1.68-0.06-2.35
		C400.51,370.88,401.7,368.97,403.01,366.63z"/>
	<path class="st0" d="M416.7,388.43c-3.06,4.28-7.25,3.66-11.53,2.67L416.7,388.43z"/>
	<path class="st0" d="M412.4,381.6c0.22,1.85,0.36,3.16,0.58,5.01l-6.08-0.3l-0.21-0.96L412.4,381.6z"/>
	<path class="st0" d="M427.84,420.6c-0.8,1.72-1.61,3.43-2.42,5.15l-3.7-1.86l5.22-3.78L427.84,420.6z"/>
	<path class="st0" d="M306.86,315.89c5.21-3.98,8.95-9,12.55-14.27c5.52-8.05,4.41-16.55,3.02-25.48
		c-1.92-12.33-10.61-17.8-20.82-21.34c-4.22-1.47-9.32-0.45-14.02-0.48c-6.85-0.05-10.76,4.42-14.59,9.29
		c-7.77,9.88-8.25,20.5-3.94,31.81c1.39,3.63,3.67,6.51,7.25,8.05c6.51,2.83,13.37,5.21,20.4,3.12
		c10.87-3.22,17.72-11.88,16.11-23.89c-0.27-1.99-0.1-4.03-0.54-6c-1.37-6.07-10.92-12.78-18.14-12.88
		c-6.2-0.11-13.78,5.57-15.69,11.78c-3.22,10.32,3.82,20.03,14.49,20.05c3.94,0,9.21-4.94,10.4-9.76c1.05-4.2-0.89-7.79-5.35-9.98
		c-4.24-2.06-8.12,0.53-7.83,5.23c0.13,2.05,1.08,3.82,3.22,3.54c2.14-0.29,3.22-2.09,2.66-5.02l-2.91,2.42l-0.81-0.38
		c0.46-1.24,0.61-2.86,1.49-3.6c0.67-0.56,2.42-0.33,3.44,0.14c4.28,2.1,5.16,5.08,2.83,9.35c-2.11,3.9-5.37,6.19-8.13,5.72
		c-6.78-1.16-10.65-4.29-11.54-9.33c-1.69-9.52,5.18-18.37,14.16-17.67c6.06,0.48,11.81,3.22,14.29,8.79
		c3.04,6.81,3.48,14.49-1.09,21.02c-4.68,6.69-11.27,10.19-19.82,8.56c-0.89-0.17-1.8-0.23-2.67-0.45
		c-11.7-2.93-13.83-5.64-16.34-17.55c-2.42-11.47,3.51-19.7,10.9-27.21c1.47-1.36,3.33-2.21,5.32-2.42
		c4.76-0.47,9.66-1.13,14.33-0.45c10.55,1.62,18.88,9.82,20.68,20.34c0.81,4.88,1.71,10.15,0.75,14.86
		c-1.84,8.96-7.46,15.94-14.97,21.14c-4.78,3.3-9.72,6.44-16.04,5.87c-16.69-1.45-30.7-12.78-34.15-29.95
		c-4.03-20.2,8-38.87,27.82-43.93c21.07-5.37,42.28,8.71,45.9,30.16c2.59,15.52-4.76,31.02-18.42,38.82
		C309.72,314.67,308.27,315.24,306.86,315.89z"/>
	<path class="st0" d="M332.03,226.05c4.77,7.62,9.66,14.45,11.47,22.64c1.06,4.73-0.6,9.32-3.58,13.12
		c-0.67,0.86-3.01,1.22-4.16,0.75c-4.24-1.72-5.75-5.64-5.64-9.74c0.14-7.2,0.88-14.39,1.39-21.59
		C331.59,229.75,331.79,228.27,332.03,226.05z"/>
	<path class="st0" d="M281.77,205.08c0.57,8.59,1.26,17.19,1.61,25.77c0.26,3.59-1.31,7.06-4.17,9.24
		c-2.91,2.24-5.16,1.75-6.82-1.53c-2.6-5.15-4.03-10.47-1.1-16.01c3.12-5.96,6.26-11.92,9.41-17.87L281.77,205.08z"/>
	<path class="st0" d="M305.44,204.3c4.74,7.58,9.61,14.39,11.46,22.55c1.06,4.73-0.65,9.25-3.44,13.2
		c-1.13,1.61-2.82,1.73-4.57,0.81c-3.86-2.11-5.48-5.7-5.4-9.73c0.17-7.2,0.88-14.39,1.39-21.59
		C304.99,208.04,305.2,206.55,305.44,204.3z"/>
	<path class="st0" d="M255.17,226.77c0.57,8.66,1.3,17.33,1.61,26c0.26,3.8-1.57,7.44-4.78,9.5c-2.51,1.61-4.61,1.16-6.02-1.54
		c-2.69-5.19-4.31-10.57-1.37-16.26c3.11-6.02,6.28-12,9.43-17.99L255.17,226.77z"/>
	<path class="st0" d="M181.38,274.45l2.42-9.91c-4.1,4.33-3.5,9.77-3.47,14.94c0,1.26,2.29,2.42,3.16,3.82
		c0.63,1.01,1.31,2.83,0.81,3.53c-0.89,1.54-2.86,2.07-4.4,1.17c-0.1-0.06-0.2-0.12-0.29-0.19c-3.44-2.16-3.88-3.04-2.87-7.2
		c0.35-1.44,0.39-2.34-1.17-3.22c-0.71-0.39-0.85-2.03-1.01-3.13c-0.44-3.04-0.72-6.12-1.18-9.16c-0.19-0.73-0.63-1.36-1.24-1.8
		c-0.28,1.96-1.51,3.76,0.81,5.59c0.91,0.72,0.43,3.22,0.59,4.96c-5.15-1.52-6.44-3.22-7.25-9.01c-0.23,0.87-0.43,1.76-0.72,2.62
		c-0.4,1.53-0.97,3.01-1.68,4.42c-2.33,3.78-4.53,3.87-7.25,0.31c-0.57,2.24,0.48,4.58,2.54,5.64c2.95,1.74,3.95,4.62,1.53,8.16
		c-6.71-1.81-7.13-8.52-10.47-13.46c1.11-0.72,2.07-1.72,3.22-1.98c2.13-0.52,1.92-1.61,1.23-3.08c-0.45-0.99-1.2-2.02-1.17-3
		c0.11-2.76,0.25-5.24-2.72-6.9c-0.74-0.42-0.86-2.35-0.89-3.6c-0.2-5.95,3.86-11.2,9.66-12.5c1.61,3.22,0.93,5.93-1.97,7.94
		c-0.93,0.58-1.77,1.29-2.49,2.12c-1.61,2.04-0.86,3.1,1.61,3.87c3.78,1.18,7.42,1.52,11.1,0c0.74-0.31,1.84-0.94,1.88-1.49
		c0.2-2.57,1.74-3.22,3.94-3.66c2.51-0.51,4.98-1.25,7.36-2.2c2.42-0.96,0.81-2-0.27-3.22l-1.54,1.96l-2.29-2.17
		c-2.15,6.06-6.72,5.78-11.63,4.6c-0.81-5.15-0.08-6.44,4.38-8.34c1.29-0.5,2.42-1.34,3.29-2.42l-7.16,1.47
		c2.51-3.78,6.26-4.92,10.42-3.64c2.17,0.67,4.45,1.01,6.65,1.61c5.37,1.45,10.04,3.46,11.47,9.87c0.72,3.22,3.12,5.96,4.29,9.09
		c1.34,3.54-0.23,8.33-3.43,10.28C191.03,269.61,186.61,271.69,181.38,274.45z"/>
	<path class="st0" d="M166.94,270.08c1.3,2.14,2.46,4.2,3.79,6.15c0.34,0.51,1.22,0.62,1.8,1.01c1.84,1.24,2.99,2.83,1.61,5.03
		c-0.71,1.16-1.92,3.08-2.64,2.96c-1.92-0.31-3.78-1.43-3.53-4.03c0.05-0.27,0.04-0.54-0.04-0.81l-8.86-3.65l0.1-0.81
		C163.55,276.62,164.21,272.62,166.94,270.08z"/>
	<path class="st0" d="M192.09,275.25l-4.33-2.59l4.29-2.87c0.51,0.57,0.95,1.09,1.42,1.61c3.5,3.78,3.65,5.31,0.51,9.42
		c-0.49,0.64-1.98,1.28-2.5,1c-1.18-0.63-2.13-1.63-2.71-2.83c-0.28-0.71,0.48-2,1.05-2.84
		C190.08,275.67,190.97,275.62,192.09,275.25z"/>
	<path class="st0" d="M387.31,248.23c4.41-4.98,8.28-9.82,15.36-9.94c0.95,0,1.88-1.41,2.7-1.44c2.08,0.13,4.15,0.33,6.22,0.36
		c1.61,0,3.06-0.05,3.29,2.19c0.05,0.5,1.2,1.18,1.91,1.26c4.49,0.52,6.14,4.83,9.4,6.97c0.34,0.37,0.52,0.86,0.48,1.36
		c-0.06,2.75-5.55,8.54-8.29,9.4c-4.34,1.36-8.61,2.94-12.8,4.74c-2.14,0.97-3.12,3.48-2.18,5.64c0.93,2.42,3.37,1.92,5.19,0.97
		c1.81-0.94,3.83-2.1,5-3.71c2.09-2.92,5.11-4.03,8.11-5.35c0.9-0.39,2.05-1.67,2.79,0.41c0.11,0.34,1.48,0.44,2.21,0.31
		c1.53-0.35,3.05-0.78,4.54-1.29l-1.29,2.05c5.35,3.73,4.4,10.65-0.14,14.91c-1.91,1.79-3.83,3.57-5.75,5.34
		c-3.58,3.32-8.09,3.8-13.32,4.4c4.07-3.22,7.67-5.86,11.09-8.75c1.33-1.04,2.38-2.41,3.03-3.97c0.39-1.11-0.39-2.63-0.65-3.97
		c-1.26,0.27-2.87,0.14-3.69,0.89c-1.76,1.61-2.96,3.82-4.69,5.47c-1.73,1.64-3.71,3.74-5.91,4.26c-6.76,1.61-7.3,0.56-8.79-4.96
		l-0.81,0.1c0.14,1.38,0.38,2.74,0.72,4.08c0.22,0.72,1.09,1.2,1.44,1.9c0.41,0.94,0.76,1.9,1.04,2.88
		c-1.15,0.32-2.29,0.7-3.45,0.94c-0.67,0.13-1.4-0.07-2.07,0.05c-5.03,0.93-8.86-2.53-8.56-7.93l4.66,2.51l0.56-0.56
		c-0.6-0.81-1.16-1.61-1.79-2.38c-4.28-5.15-4.79-10.9-1.47-16.66c0.25-0.43,0.44-1.08,0.81-1.24c3.1-1.32,3.22-4.22,3.87-7.55
		c1.7,3.78,4.14,3.7,7.15,2.58c2.31-0.85,4.83-1.07,7.25-1.61c0.99-0.12,1.94-0.46,2.78-1.01c0.8-0.72,1.33-1.68,1.51-2.73
		c0.06-0.44-1.11-1.21-1.85-1.61c-1.45-0.82-3.03-1.37-4.68-1.61l-7.46,1.19c0.21-0.43,0.09-0.08-0.11,0.22
		c-0.69,1.05-1.42,2.06-2.13,3.09c-0.97-0.81-2.2-1.38-2.86-2.37c-1.14-1.7-2.19-2.11-3.3-0.23
		C390.99,250.25,389.38,249.35,387.31,248.23z"/>
	<path class="st0" d="M390.56,260.12l-2.14,4.23c-4.03-4.07-4.32-6.06-1.89-11.69c0.98,2.46,2.03,5.07,3.08,7.67L390.56,260.12z"/>
	<path class="st0" d="M287.29,377.63c3.65-1.3,7.56-2.75,11.52-4.08c6.76-2.27,10.25-6.82,10.66-13.99
		c0.06-1.05,0.34-2.09,0.57-3.45c3.54,3.58,2.35,7.29,1.46,10.97c-0.3,1.22-0.81,2.61,2.19,2.1l-3.15,3.94l2.61,0.2
		c-1,2.91-2.1,5.38-5.48,5.76c-0.48,0.05-0.92,0.28-1.22,0.66c-3.49,6.23-6.91,8.96-13.69,10.81l0.21,0.88
		c1.83-0.53,3.87-0.71,5.43-1.67c4.47-2.75,8.73-5.84,13.09-8.76c0.62-0.5,1.37-0.83,2.16-0.94c1.54,0.07,3.08,0.23,4.6,0.49
		c-0.46,1.22-0.64,2.66-1.42,3.64c-3.01,3.84-5.72,8.17-9.46,11.14c-5.46,4.35-18.83,6.04-24.76-1.43
		c-2.47-3.12-5.18-6.14-7.08-9.58c-1.9-3.45-1.18-5.06,2.31-7.09c4.4-2.57,8.86-5.07,13.25-7.64c0.78-0.44,1.5-0.98,2.13-1.61
		c1.5-1.51,3.76-2.72,2.77-5.47c-0.7-1.95-5.34-4.97-7.38-4.34c-1.49,0.45-3.53,1.93-3.73,3.22c-0.52,3.34-2.14,4.66-5.27,5.55
		c-1.76,0.49-3.08,2.58-4.76,4.1c-1.73-2.18-1.38-4.17-0.17-6.15c0.41-0.67,1.46-1.31,1.39-1.86c-0.48-3.95,2.48-5.07,5.06-6.56
		c2.92-1.69,5.81-3.45,8.75-5.09c0.6-0.36,1.32-0.48,2.01-0.34c2.71,0.91,5.38,1.96,8.05,3.01c5.06,2.01,6.89,7.51,3.91,12.21
		c-2,3.16-4.33,5.77-8.44,6.66C292.16,373.55,288.86,374.97,287.29,377.63z"/>
	<path class="st0" d="M164.04,453.11l-4.5-0.81c0-1.22,0.35-2.88-0.11-4.29c-0.36-1.08-1.73-1.83-2.77-2.83l3.43-9.72l4.33,9.17
		c-2.59-0.14-3.62,0.64-2.96,3.04C161.95,449.46,163.03,451.07,164.04,453.11z"/>
	<path class="st0" d="M509.13,194.45c2.69,4.03,5.26,7.46,7.44,11.14c2.35,3.96,2.05,6.44-0.72,7.37c-4.78,1.54-6.44,1.15-7.83-3.22
		c-2.9,1.4-5.76,3.01-8.79,4.19c-2.69,1.04-3.93-0.23-4.28-3.12c-0.52-4.32,1.11-7.3,4.68-9.59
		C502.72,199.23,505.64,196.96,509.13,194.45z"/>
	<path class="st0" d="M506.94,211.73c2.01,2.9,0.81,5.64-0.11,8.6l-3.22-0.68C503.77,216.57,502.73,213.18,506.94,211.73z"/>
</g>
</svg>
