<?xml version="1.0" encoding="utf-8"?>
<!-- Generator: Adobe Illustrator 23.0.0, SVG Export Plug-In . SVG Version: 6.00 Build 0)  -->
<svg version="1.1" id="Capa_1" xmlns="http://www.w3.org/2000/svg" xmlns:xlink="http://www.w3.org/1999/xlink" x="0px" y="0px"
	 viewBox="0 0 612 792" style="enable-background:new 0 0 612 792;" xml:space="preserve">
<style type="text/css">
	.st0{fill:#A4793C;}
</style>
<g>
	<path class="st0" d="M465.1,283.82c-0.1-1.1-0.09-2.23-0.33-3.29c-1.56-6.69-0.74-13.25,0.93-19.78c0.19-0.75,0.28-1.54,0.38-2.31
		c0.03-0.2-0.08-0.42-0.32-1.62c-3.23,2.19-6.14,4.17-9.05,6.14l0.03-0.03c-1.5,1.53-3.01,3.07-4.78,4.88
		c-8.42-9.03-17.07-18.32-25.62-27.5c5.9-6.06,11.64-12.01,17.47-17.85c0.61-0.61,1.78-0.83,2.72-0.89c1.67-0.1,3.4,0.33,5.03,0.07
		c9.16-1.5,15.37,2.45,21.68,9.05c25.62,26.84,51.87,53.06,77.8,79.6c1.35,1.38,2.26,3.52,2.62,5.45c0.75,3.95,0.94,8.01,1.49,12.01
		c0.15,1.1,0.76,2.13,1.15,3.2c0,1.57,0,3.14,0,4.71c-0.44,0.46-0.89,0.93-1.33,1.39c-4.55,5.29-9.07,10.61-13.66,15.86
		c-0.91,1.05-2.08,1.87-3.14,2.8c-0.23-0.2-0.47-0.4-0.7-0.6l0.04,0.04c-0.47-0.23-0.94-0.47-1.41-0.7l0.05,0.04
		c-0.07-0.43,0.01-1.03-0.25-1.28c-3.26-3.2-6.57-6.36-9.87-9.52c-12.71-12.59-25.42-25.18-38.13-37.77
		c-2.53-2.47-5.05-4.94-7.58-7.41c-0.65-0.65-1.3-1.29-1.96-1.94c-4.18-4.23-8.35-8.47-12.56-12.67c-0.19-0.19-0.7-0.06-1.06-0.08
		l0.05,0.02L465.1,283.82z M507.88,284.23c8.18,5.27,10.65,13.85,13.06,22.55C528.04,297.42,522.73,288.11,507.88,284.23z"/>
	<path class="st0" d="M134.07,296.05c-0.79,0.81-1.59,1.62-2.38,2.43c-2.53,2.48-5.06,4.96-7.6,7.44
		c-12.71,12.59-25.42,25.18-38.13,37.77c-3.14,3.01-6.3,6-9.39,9.05c-0.41,0.41-0.49,1.16-0.73,1.75c0,0,0.05-0.04,0.05-0.04
		c-0.47,0.23-0.94,0.47-1.41,0.7c0,0,0.04-0.04,0.04-0.04c-0.24,0.2-0.47,0.4-0.71,0.61c-1.12-1.02-2.35-1.94-3.34-3.07
		c-4.46-5.1-8.86-10.25-13.28-15.38c-0.5-0.31-1.01-0.63-1.51-0.94c0-1.12,0-2.24,0-3.36c0.87-6.28,1.74-12.56,2.61-18.84
		c0.76-1.19,1.35-2.56,2.32-3.55c28.48-29.03,56.98-58.03,85.55-86.96c0.96-0.97,2.61-1.68,3.99-1.76
		c5.03-0.28,10.08-0.32,15.11-0.27c1.11,0.01,2.51,0.43,3.27,1.18c5.74,5.66,11.35,11.44,17.13,17.33c-0.85,1.03-1.83,2.22-2.8,3.4
		c-7.71,8.15-15.43,16.3-23.31,24.62c-2.92-5.97-7.88-8.64-13.56-10.74c-0.06,0.67-0.15,0.99-0.11,1.31c0.1,0.77,0.21,1.55,0.4,2.31
		c1.65,6.44,2.5,12.92,0.83,19.47c-0.39,1.53-1,3.21-2.04,4.34C141.55,288.66,137.76,292.32,134.07,296.05z M104.12,284.23
		c-14.84,3.9-20.16,13.24-13.06,22.55C93.46,298.07,95.95,289.5,104.12,284.23z"/>
	<path class="st0" d="M197.66,206.46c13.55,0,26.53,0,39.51,0c1.68,0,3.4,0.25,5.03,0c1.2-0.19,2.3-1.01,3.44-1.55
		c-0.14-0.47-0.27-0.94-0.41-1.41c-16.31,0-32.61,0-49.91,0c9.64-15.86,18.78-30.89,28.17-46.32c7.8,9.42,15.39,18.6,22.98,27.78
		c0.36-0.09,0.72-0.18,1.09-0.27c-0.16-0.91-0.02-2.03-0.52-2.68c-6.58-8.65-13.29-17.21-19.83-25.89
		c-0.69-0.91-1.18-2.83-0.69-3.65c10.7-17.87,21.55-35.65,32.91-54.31c0.11,1.77,0.21,2.65,0.21,3.53
		c0.01,25.34,0.05,50.69-0.05,76.03c-0.01,2.49,0.75,4.15,2.54,5.8c7.74,7.13,15.36,14.38,23.32,21.87c0.96-2.19,1.8-4.08,2.61-5.98
		c1.78-4.15,1.57-4.57-2.72-5.46c-0.03-0.22-0.12-0.44-0.09-0.65c1.27-8.97,2.14-9.89,13.7-12.03c3.22-0.6,6.62-0.15,9.93-0.31
		c1.29-0.06,2.61-0.34,3.84-0.75c3.14-1.05,5.83-0.26,7.22,2.72c2.87,6.15,5.51,12.4,8.26,18.6c0.22,0.5,0.57,0.95,1.08,1.78
		c2.19-2.06,4.28-4.02,6.37-5.98c5.64-5.3,11.35-10.51,16.84-15.96c1.09-1.08,1.86-3.02,1.87-4.57c0.11-24.43,0.08-48.87,0.08-73.3
		c0.37-0.28,0.74-0.56,1.11-0.84c0.19,0.6,0.27,1.26,0.58,1.79c9.72,16.24,19.44,32.49,29.25,48.68c1.03,1.7,0.63,2.71-0.47,4.1
		c-6.55,8.25-13.01,16.57-19.5,24.87c-0.33,0.42-0.63,0.87-1.08,1.49c0.94,0.6,1.74,1.1,2.68,1.69
		c7.25-8.75,14.39-17.35,21.82-26.31c9.17,15.3,18.15,30.29,27.26,45.48c-17.02,0-33.55,0-50.25,0c0,1.27,0,2.55,0,4.34
		c15.64,0,31.13,0,47.52,0c-10.08,13.41-19.58,26.07-29.22,38.89c-8.53-5.93-16.86-11.73-25.2-17.53c-0.31,0.23-0.63,0.46-0.94,0.69
		c0.51,0.78,0.85,1.8,1.56,2.32c6.71,4.86,13.49,9.63,20.25,14.44c0.89,0.64,1.74,1.34,2.78,2.14
		c-7.42,9.88-14.73,19.61-22.55,30.02c-6.83-7.44-13.41-14.59-20.36-22.17c-1.48,1.77-2.2,2.64-3.06,3.67
		c7.48,6.8,14.75,13.42,22.16,20.16c-4.49,5.99-8.85,11.8-13.44,17.92c-4-3.21-8.04-6.17-11.73-9.51c-2.37-2.15-4.4-2.53-6.97-0.61
		c-0.97,0.72-2.17,1.14-3.6,1.86c-5.94-9.5-11.84-18.94-17.91-28.66c-5.99,9.46-11.73,18.53-17.57,27.76
		c-1.72-0.95-3.26-1.8-5.04-2.79c-4.99,4.2-10.04,8.43-15.24,12.8c-4.7-6.32-9.3-12.52-14.13-19.01c4.81-4.41,9.57-8.78,14.33-13.15
		c2.32-2.12,4.74-4.13,6.91-6.39c0.7-0.73,0.77-2.07,1.13-3.14c-0.36-0.18-0.73-0.36-1.09-0.54c-7.52,6.97-15.04,13.93-22.81,21.13
		c-7.15-9.61-14.15-19.03-21.4-28.78c10.84-7.73,21.57-15.39,32.55-23.21c-0.37-1.09-0.74-2.2-1.26-3.75
		c-11.23,8.07-22.19,15.93-33.44,24.02C218.03,233.87,208.03,220.42,197.66,206.46z M302.62,215.75
		c-12.27,0.01-22.13,9.9-22.17,22.24c-0.05,12.35,10.04,22.36,22.48,22.32c12.28-0.04,22.08-9.93,22.08-22.29
		C325.01,225.47,315.24,215.75,302.62,215.75z"/>
	<path class="st0" d="M225.26,579.22c0.99,0.47,2.32,0.69,2.9,1.46c6.12,8.06,15.36,11.78,23.47,17.06
		c1.96,1.27,4.01,2.41,6.49,3.89c-8.46,9.65-8,22.28-12.21,33.98c-8.05-4.4-15.96-8.73-24.22-13.24
		c-3.47,4.08-7.26,8.34-10.74,12.83c-0.73,0.94-0.39,2.76-0.44,4.18c-0.06,1.88-0.01,3.77-0.01,5.66
		c-9.14,2.04-18.07,0.93-26.91-0.65c-0.16-0.36-0.35-0.58-0.33-0.76c0.86-6.21-2.65-10.12-6.86-13.95
		c-4.89-4.44-9.54-9.17-14.03-14.03c-3.38-3.66-6.76-6.84-12.65-5.16c0-9.58,0-18.59,0-27.76c0.3-0.02,0.76-0.18,1.14-0.08
		c5.82,1.6,9.7-1.24,13.15-5.46c1.77-2.16,3.81-4.14,5.94-5.93c1.54-1.29,1.48-2.44,0.71-4.04c-4.34-9.08-8.94-18.05-12.78-27.33
		c-2.2-5.33-3.15-11.18-4.62-16.8c-0.75-2.87-3.51-5.12-6.48-5.15c-1.12-0.01-2.24,0.04-3.36,0.07c-9.55,0.27-9.55,0.27-16.19,7.31
		c-1.26-1.34-2.45-2.75-3.8-3.98c-2.28-2.07-4.7-3.98-6.97-6.06c-0.98-0.89-1.81-1.97-2.56-3.07c-1.58-2.31-3.06-4.69-4.85-7.46
		c5.19-2.84,4.23-8.34,4.25-13.55c0.03-7.62-0.06-15.26,0.26-22.87c0.15-3.55-0.56-6.32-3.61-8.32c-0.64-0.42-1.15-1.06-1.88-1.76
		c2.92-3.79,5.56-7.78,8.77-11.23c3.27-3.51,7.1-6.5,10.68-9.71c-0.01-0.45-0.01-0.89-0.02-1.34c0.61,0.92,1.29,1.81,1.82,2.78
		c4.39,7.97,12.17,6.11,19.04,6.19c1.42,0.02,3.65-2.75,4.17-4.61c4.47-15.79,10.89-30.78,17.83-45.6c0.4-0.86,0.05-2.57-0.61-3.32
		c-2.63-3.02-5.52-5.83-8.23-8.62c2.69-0.54,5.54-1.1,8.78-1.75c10.18,10.2,21.01,21.03,31.61,31.65
		c-4.42,10.88-9.57,21.63-13.12,32.89c-2.76,8.76-4.32,18.08-4.99,27.26c-0.72,9.9-0.11,19.95,0.6,29.89
		c0.32,4.48,1.99,8.94,3.53,13.23c3.13,8.74,6.86,17.28,9.81,26.08c1.62,4.82,1.88,10.08,3.22,15.01
		c1.93,7.13,6.08,12.82,12.35,16.87c0,0,0.17-0.06,0.17-0.06C216.65,577.34,220.69,578.87,225.26,579.22z M177.8,575.2
		c-7.28,5.37-11.26,13.93-20.19,16.9c0.32,2.81,0.76,5.57,0.9,8.35c0.1,1.87,0.8,2.87,2.66,3.19c3.23,0.55,5.56,2.45,7.74,4.86
		c5.41,5.96,11.07,11.71,16.59,17.58c2.32,2.46,5.47,4.51,4.16,8.89c4.1,0.37,7.72,0.69,11.02,0.99
		c2.93-8.68,11.17-12.38,15.76-19.11c-7.02-6.4-14.49-12.38-20.92-19.31C189.08,590.59,183.68,582.7,177.8,575.2z M119.21,459.79
		c3.77,1.58,3.78,4.42,3.66,7.62c-0.34,8.83-0.4,17.68-0.58,26.52c-0.09,4.29,0.78,8.84-3.41,11.59c2.68,2.82,5.1,5.36,7.32,7.68
		c7.64-4.55,16.03-1.16,23.08-2.87c0-19.25,0-38.31,0-57.59c-5.75,0-11.22,0.07-16.68-0.04c-1.9-0.04-3.79-0.53-6.12-0.88
		C124.47,454.03,122.07,456.66,119.21,459.79z"/>
	<path class="st0" d="M398.68,573.92c7.83-5.34,12.14-12.73,13.54-22.11c0.69-4.58,1.98-9.13,3.47-13.52
		c3.49-10.27,7.82-20.3,10.74-30.72c1.71-6.13,1.55-12.82,1.92-19.27c0.73-12.7,0.21-25.42-3.59-37.6
		c-3.16-10.11-7.48-19.86-11.39-29.73c-1.1-2.79-2.56-5.44-3.81-8.05c10.95-10.88,21.75-21.61,32.26-32.04
		c2.8,0.66,5.66,1.34,8.81,2.09c-2.65,2.62-5.36,5.48-8.26,8.12c-1.42,1.29-1.5,2.29-0.69,3.99c6.93,14.56,13.32,29.34,17.59,44.96
		c1.02,3.72,3.17,4.7,7.03,5.06c7.9,0.74,14.28-1.35,18.52-9.55c6.79,7.82,13.02,15,19.1,22c-0.26,0.7-0.28,1-0.42,1.09
		c-4.66,2.94-5.4,7.25-5.06,12.41c0.46,7.04,0.29,14.12,0.25,21.18c-0.03,4.96-0.47,9.97,5.2,13.05
		c-6.61,6.98-12.78,13.49-18.97,20.01c-0.46-0.32-0.83-0.44-0.96-0.69c-4.55-8.77-12.87-6.35-20.11-6.42
		c-2.15-0.02-4.61,1.78-5.19,4.92c-2.59,14.01-7.71,27.05-15.03,39.3c-3.97,6.64-3.69,6.81,1.74,12.17
		c0.08,0.08,0.16,0.16,0.24,0.24c2.38,2.38,4.39,5.47,7.24,6.92c2.7,1.37,6.28,1.01,9.53,1.42c0,8.69,0,17.62,0,26.35
		c-0.43,0.35-0.63,0.63-0.77,0.6c-5.31-0.95-8.68,1.97-12.02,5.54c-5.36,5.73-10.94,11.26-16.63,16.66
		c-2.67,2.53-4.51,5.14-4.07,8.98c0.11,0.97-0.17,1.97-0.28,3.03c-9.06,1.72-18,2.73-27.03,0.76c2.1-9.4-4.46-14.73-9.6-20.71
		c-0.58-0.67-1.18-1.33-1.75-1.96c-8.06,4.41-16.04,8.77-24.15,13.21c-4.24-11.61-3.7-24.23-12.21-33.88
		c6.06-3.72,11.85-7.29,17.66-10.82c4.42-2.68,8.72-5.44,11.85-9.72c0.7-0.96,2.2-1.33,3.34-1.97c4.57-0.36,8.61-1.89,11.77-5.36
		L398.68,573.92z M434,575.04c-10.97,15.8-23.34,30.15-39.11,41.74c3.23,3.18,6.12,5.81,8.76,8.67c2.87,3.11,7.14,5.27,7.15,10.55
		c3.92-0.35,7.54-0.67,9.6-0.86c2.32-3.56,3.62-6.26,5.55-8.39c5.55-6.15,11.43-11.99,17.01-18.11c2.26-2.48,4.66-4.4,8-5.11
		c0.84-0.18,2.11-0.92,2.22-1.57c0.57-3.37,0.83-6.78,1.17-9.92C445.29,588.83,441.31,580.4,434,575.04z M462.72,510.62
		c0.86,0,2.3-0.14,3.7,0.02c6.51,0.77,13.44-1.57,18.98,2.34c2.66-2.42,5.21-4.73,7.73-7.01c-3.33-4.94-3.32-4.94-3.43-11.2
		c-0.16-8.86-0.29-17.71-0.53-26.57c-0.09-3.36-0.63-6.77,3.57-8.47c-2.81-3.08-5.28-5.78-7.28-7.97c-2.31,0.4-3.98,0.9-5.67,0.93
		c-5.68,0.1-11.36,0.04-17.07,0.04C462.72,472.16,462.72,491.17,462.72,510.62z"/>
	<path class="st0" d="M406.71,279.82c34.19,36.24,68.38,72.48,102.88,109.05c-5.14,5.98-10.27,11.97-15.9,18.53
		c-4.01-4.19-7.9-8.18-11.71-12.26c-5.3-5.66-11.54-10.14-18.82-12.49c-4.55-1.47-9.66-1.39-14.54-1.59c-2.3-0.09-3.92-0.6-5.5-2.34
		c-22.43-24.71-44.96-49.34-67.36-74.09c-1.02-1.13-1.37-3.09-1.53-4.72c-0.58-6.05,2.25-10.46,6.59-14.5
		c5.4-5.02,10.28-10.6,15.46-16.02c2.01,1.93,3.95,3.8,5.89,5.66l0.09,0.09C403.75,276.7,405.23,278.26,406.71,279.82z"/>
	<path class="st0" d="M210.47,274.45c1.6-1.7,3.21-3.41,5.01-5.32c7.07,7.41,14.09,14.6,20.91,21.99
		c2.27,2.46,1.51,11.83-0.76,14.31c-22.12,24.26-44.25,48.5-66.3,72.82c-1.81,1.99-3.57,3.02-6.32,2.75
		c-13.13-1.26-23.34,4.68-32.29,13.47c-4.15,4.07-8.12,8.33-12.47,12.81c-5.47-6.34-10.6-12.3-15.87-18.42
		c8.46-8.96,16.75-17.75,25.04-26.53c25.08-26.55,50.15-53.1,75.24-79.65c0.53-0.56,1.14-1.04,1.71-1.56
		C206.4,278.91,208.43,276.68,210.47,274.45z"/>
	<path class="st0" d="M249.57,453.21c0.87,0.95,1.75,1.9,2.62,2.84c-0.58,0.98-1.16,1.97-1.73,2.95c0.16,0.29,0.33,0.59,0.49,0.88
		c1.14-0.51,2.28-1.02,3.42-1.53c3.67,3.92,7.37,7.81,10.97,11.79c0.41,0.46,0.31,1.39,0.45,2.1c-1.78-0.18-2.36,0.73-2.13,2.36
		c-0.76,0.83-1.51,1.66-2.27,2.49c-0.5-0.01-0.99-0.02-1.49-0.03c-3.04-3.14-6.08-6.28-9.12-9.41c-2.08-1.62-1.86-5.57-5.59-5.51
		c-2.41-2.61-4.82-5.23-7.23-7.84c0.01-1.01,0.03-2.01,0.04-3.02c2.81-3.14,5.63-6.28,8.44-9.42c0.56-0.39,1.13-0.79,1.69-1.18
		c4.42-0.67,8.82-1.5,13.27-1.92c2.34-0.22,3.07-1.12,2.95-3.33c-0.47-8.06,0.91-15.48,7.56-20.99c0,0-0.04,0.23-0.04,0.23
		c1.04-0.98,2.08-1.96,3.48-3.28c1.72,2.04,3.45,4.09,5.19,6.15c-0.22,0.62-0.45,1.23-0.67,1.85c0.65-0.13,1.31-0.26,1.96-0.38
		c5.1,5.67,10.23,11.31,15.27,17.04c0.48,0.55,0.43,1.57,0.62,2.37c-0.16,0.45-0.33,0.9-0.49,1.35c0.69-0.37,1.37-0.75,2.06-1.12
		c2.16-2.5,4.32-4.99,6.72-7.76c2.39,2.76,4.56,5.26,6.72,7.76c0.2,1.8,1.12,2.2,2.66,1.36c0.22,0.33,0.45,0.66,0.67,0.99
		c0.13-0.13,0.27-0.26,0.4-0.4c-0.33-0.23-0.66-0.45-0.99-0.68c-0.63-0.66-1.27-1.32-1.9-1.98c1.62-1.96,3.18-3.97,4.86-5.87
		c3.89-4.38,7.84-8.72,11.76-13.07c0.65,0.13,1.31,0.25,1.96,0.38c-0.22-0.62-0.45-1.24-0.67-1.85c1.66-2.01,3.32-4.02,5.7-6.89
		c1.1,1.52,1.98,2.73,2.86,3.95c0,0-0.03-0.22-0.03-0.22c0.04,0.1,0.04,0.25,0.12,0.31c7,5.33,7.85,12.91,7.53,20.85
		c-0.09,2.31,0.81,3,3.03,3.23c4.42,0.45,8.8,1.26,13.19,1.93c0.56,0.39,1.13,0.79,1.69,1.18c2.81,3.14,5.63,6.28,8.44,9.43
		c0.01,1.01,0.03,2.01,0.04,3.02c-2.53,2.61-5.06,5.22-7.59,7.83c-1.97,2.06-3.94,4.13-5.91,6.19c-2.82,2.91-5.63,5.83-8.45,8.74
		c-0.53-0.05-1.06-0.09-1.6-0.14c-0.72-0.77-1.44-1.55-2.15-2.32c0.23-1.63-0.35-2.54-2.13-2.36c0.14-0.71,0.03-1.64,0.44-2.1
		c3.6-3.98,7.3-7.87,10.97-11.78c1.19,0.45,2.38,0.9,3.57,1.35c0.1-0.31,0.19-0.62,0.29-0.93c-0.56-0.91-1.11-1.82-1.67-2.73
		c0.87-0.95,1.75-1.89,2.62-2.84c0.8,0.43,1.6,0.86,2.42,1.3c1.48-3.37,1.37-3.7-0.97-3.83c-5.61-0.73-11.22-1.46-16.83-2.19
		c-0.48-0.09-0.95-0.18-1.43-0.27c-2.1-0.2-4.2-0.4-6.57-0.62c-0.41-8.07-0.81-15.92-1.26-24.59c-5.83,6.64-11.1,12.68-16.41,18.68
		c-0.71,0.8-1.63,1.43-2.45,2.14c-0.41-0.19-0.83-0.37-1.24-0.56c-0.07,0.13-0.14,0.26-0.22,0.38c0.31,0.24,0.61,0.48,0.92,0.72
		c12.04,13.25,24.09,26.5,36.28,39.91c-6.1,6.87-12.11,13.65-18.12,20.42c-9.29,10.47-18.61,20.92-27.86,31.44
		c-1.79,2.03-3.24,2.41-5.19,0.21c-15.28-17.29-30.61-34.54-46.15-52.06c12.12-13.34,24.22-26.66,36.31-39.97
		c0.03-0.28,0.05-0.55,0.08-0.83c-0.22,0.12-0.45,0.23-0.67,0.35c-1.86-1.88-3.8-3.69-5.56-5.66c-4.29-4.81-8.5-9.7-13.31-15.19
		c-0.43,8.63-0.83,16.4-1.24,24.56c-2.22,0.23-4.4,0.46-6.58,0.69c-0.48,0.09-0.95,0.18-1.43,0.27c-5.61,0.73-11.22,1.46-16.83,2.19
		c-2.34,0.13-2.45,0.46-0.97,3.83C247.97,454.07,248.77,453.64,249.57,453.21z M280.43,424.47c-0.05,0.09-0.1,0.19-0.15,0.28
		C280.33,424.65,280.38,424.56,280.43,424.47c0.05-0.09,0.1-0.18,0.15-0.28C280.53,424.28,280.48,424.38,280.43,424.47z
		 M331.57,424.47c-0.09-0.05-0.19-0.1-0.28-0.15C331.38,424.37,331.47,424.42,331.57,424.47c0.09,0.05,0.18,0.1,0.28,0.15
		C331.75,424.57,331.66,424.52,331.57,424.47z M338.46,484.89c-10.92-12.35-21.64-24.49-32.46-36.74
		c-10.95,12.4-21.62,24.48-32.44,36.74c10.88,11.15,21.63,22.18,32.46,33.29C316.92,506.99,327.55,496.08,338.46,484.89z
		 M295.52,440.88c0.06-0.2,0.1-0.32,0.14-0.44c-0.08,0.02-0.17,0.05-0.25,0.07C295.44,440.6,295.46,440.69,295.52,440.88z"/>
	<path class="st0" d="M307.33,728.63c0.03-0.33,0.15-0.68,0.09-1c-1.81-8.42,1.98-14.03,8.18-19.48
		c5.99-5.26,10.7-11.97,16.52-18.66c-6.67,2.02-12.54,3.91-18.47,5.58c-6.28,1.77-12.84,1.61-18.96,0.13
		c-6.06-1.46-11.71-4.64-17.54-7.06c-0.25,0.31-0.49,0.61-0.74,0.92c4.81,5.08,9.56,10.22,14.46,15.21
		c3.45,3.51,7.04,6.9,10.74,10.14c1.96,1.71,2.77,3.54,2.54,6.11c-0.21,2.33,0,4.7-0.11,7.05c-0.01,0.26-0.88,0.49-1.35,0.73
		c-3.14-3.11-6.31-6.19-9.41-9.34c-7.29-7.44-14.57-14.89-21.79-22.39c-0.9-0.94-1.61-2.15-2.13-3.35
		c-4.59-10.69-9.28-21.34-13.63-32.13c-8.69-21.57-5.74-41.63,10.02-58.7c15.18-16.43,34.53-21.57,55.85-14.81
		c21.98,6.97,34.47,22.79,37.72,45.69c0.97,6.84-0.05,13.53-1.35,20.3c-2.22,11.6-5.61,22.79-10.2,33.63
		c-0.64,1.51-1.47,3.06-2.6,4.22c-11.49,11.79-23.05,23.51-34.64,35.2C309.69,727.5,308.41,727.97,307.33,728.63z M352.58,640.02
		c-0.03-25.22-20.37-45.67-45.46-45.72c-25.42-0.04-46.15,20.61-46.07,45.9c0.08,25.08,20.62,45.68,45.59,45.73
		C332.15,685.99,352.61,665.54,352.58,640.02z"/>
	<path class="st0" d="M398.68,573.92c0,0-0.17-0.06-0.17-0.06c-0.34-0.14-0.77-0.48-1-0.38c-3.61,1.64-7.19,3.34-10.77,5.02
		c-4.54,0.12-9.16,1.46-13.54-0.71c-2.06-1.02-4.26-1.99-5.95-3.49c-10.03-8.89-19.87-17.98-28.29-28.49
		c-0.86-1.07-2.05-1.86-3.09-2.78c-0.22,0.18-0.43,0.37-0.65,0.55c1.19,1.58,2.53,3.07,3.51,4.77c0.77,1.34,1.53,2.93,1.53,4.41
		c0,4.25-0.14,8.54-0.69,12.75c-1.47,11.17,1.67,20.99,8.04,30.03c1.01,1.44,1.69,3.11,2.24,4.15c-5.57-4.02-11.34-8.13-17.03-12.36
		c-0.74-0.55-1.47-1.68-1.47-2.55c-0.09-14.79-0.06-29.57-0.06-44.59c1.08,0.18,1.74,0.29,3.42,0.57
		c-4.85-5.68-9.09-10.65-13.41-15.71c2.02-2.11,3.93-4.11,6.01-6.28c8.06,8.62,15.93,17.04,23.81,25.46
		c3.67,3.93,7.46,7.76,10.98,11.83c5.24,6.06,12.11,9.05,19.65,10.65c6.6,1.4,16.05-2.94,17.04-8.7c1.34-7.74,0.91-15.17-3.54-22.28
		c-5.59-8.93-13.35-15.63-20.93-22.59c-7.59-6.97-15.21-13.9-23.1-21.1c1.69-2.28,3.31-4.46,4.42-5.95
		c5.59,5.19,11.13,10.23,16.56,15.38c9.59,9.11,19.07,18.33,28.67,27.43c6.45,6.11,8.56,13.8,8.95,22.37
		c0.37,8.2-4.37,13.76-9.2,19.39C399.78,571.61,399.3,572.83,398.68,573.92z M336.11,542.43c-0.55-0.6-0.75-1.01-1.02-1.07
		c-0.28-0.06-0.64,0.2-0.97,0.32c0.14,0.34,0.19,0.82,0.45,0.97C334.79,542.8,335.24,542.58,336.11,542.43z"/>
	<path class="st0" d="M213.49,573.87c0,0-0.17,0.06-0.17,0.06c-0.22-0.7-0.28-1.53-0.69-2.09c-2.93-3.93-5.94-7.8-8.92-11.69
		c-0.2-0.26-0.4-0.55-0.53-0.85c-2.95-6.97,0.47-23.08,5.99-28.49c15.27-14.98,30.52-29.97,45.79-44.95
		c0.15-0.14,0.39-0.18,0.91-0.41c1.53,2.04,3.11,4.15,4.95,6.6c-2.27,2.07-4.48,4.05-6.66,6.07c-10.01,9.29-20.37,18.25-29.86,28.05
		c-4.48,4.63-8.36,10.5-10.49,16.52c-1.71,4.82-1.03,10.83-0.18,16.1c0.89,5.49,10.82,9.29,16.78,7.93
		c7.53-1.72,14.24-4.81,19.61-10.72c10.77-11.85,21.81-23.46,32.71-35.19c0.6-0.65,0.98-1.51,1.59-2.48c2.5,2.64,4.4,4.66,6.45,6.84
		c-4.4,4.98-8.7,9.83-12.99,14.68c-0.11,0.3-0.22,0.6-0.33,0.89c-2,2.24-4.12,4.38-5.96,6.74c-8.25,10.58-18.15,19.55-28.39,28.04
		c-2.98,2.47-8.03,2.58-12.2,3.4c-1.79,0.35-3.77-0.24-5.66-0.4c-3.33-1.48-6.64-2.98-9.99-4.41
		C214.75,573.87,214.09,573.93,213.49,573.87z"/>
	<path class="st0" d="M434.06,371.12c2.35,2.68,4.54,5.18,6.94,7.92c-22.71,22.46-45.3,44.81-68.24,67.5
		c-2.16-2.05-4.31-4.08-6.78-6.42C388.68,417.12,411.28,394.2,434.06,371.12z"/>
	<path class="st0" d="M171.22,379.25c0.23-0.48,0.32-0.82,0.52-1.06c1.98-2.28,3.98-4.54,6.2-7.07
		c22.71,23.01,45.32,45.93,68.07,68.98c-2.39,2.27-4.55,4.33-6.76,6.43C216.41,423.96,193.81,401.6,171.22,379.25z"/>
	<path class="st0" d="M286.72,391c3.84,0.12,4.47-3.29,5.18-5.61c1.7-5.56,0.92-10.64-3.03-15.63
		c-9.54-12.04-21.02-22.01-32.44-32.09c-0.83-0.74-1.64-1.5-2.41-2.2c0.09-0.36,0.07-0.62,0.2-0.77c5.33-6.4,5.25-6.31,11.35-0.57
		c3.38,3.18,5.85,6.82,8.16,10.87c2.26,3.97,5.96,7.2,9.33,10.44c2.48,2.4,5.32,4.49,8.22,6.38c6.32,4.12,9.65,10.14,9.87,17.33
		c0.24,8.09-2.85,15.13-9.29,20.57c-7.93,6.71-15.52,2.87-23.11-0.44c-4.09-1.78-6.42-5.42-8.6-9.11c-0.65-3.64-1.29-7.27-1.94-10.9
		c1.92,1.55,3.89,3.04,5.74,4.68c2.99,2.65,5.85,5.46,8.86,8.09c3.37,2.94,11.97,2.59,14.44-0.49c0.06-0.08,0.11-0.28,0.07-0.31
		c-0.14-0.13-0.33-0.21-0.5-0.31L286.72,391z"/>
	<path class="st0" d="M325.19,390.96c0.54,0.75,0.96,2,1.64,2.16c4.68,1.12,9.37,1.95,13.4-1.91c3.77-3.61,7.62-7.15,11.48-10.67
		c0.59-0.54,1.39-0.84,2.09-1.26c-0.65,3.64-1.29,7.27-1.94,10.91c-4.94,9.37-13.48,12.55-23.27,13.15
		c-4.41,0.27-8.06-2.54-10.66-5.58c-5.56-6.5-8.81-14.08-6.41-22.9c1.17-4.3,3.13-8.23,6.8-11.2c5.73-4.64,11.35-9.42,16.76-14.43
		c1.9-1.76,3.35-4.2,4.44-6.59c2.48-5.46,7.33-8.65,11.52-12.44c0.49-0.45,2.45,0.18,3.33,0.84c1.4,1.06,2.45,2.56,3.94,4.19
		c-4.67,4.16-9.47,7.98-13.73,12.33c-7.9,8.06-15.62,16.31-23.15,24.72c-3.82,4.27-2.61,14.53,1.74,18.2
		c0.5,0.42,1.41,0.36,2.13,0.52C325.29,391.01,325.19,390.96,325.19,390.96z"/>
	<path class="st0" d="M340,414.36c0,0,0.03,0.22,0.03,0.22c-0.46-1.49-0.92-2.98-1.61-5.19c5.04-5.2,11.51-10.37,14.12-18.4
		c2.28-3.83,3.2-7.89,2.12-12.3c-1.53-8.47-3.44-16.97-0.95-25.55c0.97-3.35,2.65-6.5,4.3-10.45c7.5,7.91,14.31,15.08,21.37,22.51
		c1.25-1.41,2.33-2.63,3.42-3.86c2.21-2.52,4.43-5.03,6.64-7.55l-0.01,0.01c2.92-3.15,5.85-6.29,8.77-9.44c0,0-0.02,0.02-0.02,0.02
		c0.23-0.23,0.46-0.46,0.69-0.7c0,0-0.02,0.02-0.02,0.02c1.58-1.57,3.16-3.14,4.74-4.7c1.56,1.18,3.12,2.36,4.4,3.34
		c-10.14,10.25-20.1,20.31-30.26,30.57c-5.78-6.4-11.77-13.02-18.53-20.51c-0.52,3.04-1.31,5.31-1.21,7.55
		c0.23,5.48,0.74,10.96,1.38,16.41c0.82,6.98-0.04,13.54-3.56,19.74c-1.88,3.3-3.03,7.06-5.19,10.14c-2.22,3.18-5.26,5.78-7.8,8.49
		C341.72,414.61,340.86,414.48,340,414.36z"/>
	<path class="st0" d="M271.87,414.65c0,0,0.04-0.23,0.04-0.23c-2.47,0.93-3.65-0.89-5.22-2.23c-7.12-6.1-10.49-14.65-13.28-22.96
		c-1.82-5.42-0.49-11.93-0.34-17.94c0.09-3.46,0.84-6.91,0.9-10.37c0.05-2.54-0.52-5.08-0.82-7.63c-0.33-0.04-0.65-0.08-0.98-0.12
		c-2.98,3.29-5.98,6.57-8.95,9.87c-3,3.32-5.98,6.65-8.86,9.85c-10.02-10.18-19.93-20.26-30.11-30.6c0.97-0.76,2.58-2.01,4.18-3.26
		c1.58,1.57,3.16,3.14,4.74,4.7c0,0-0.02-0.02-0.02-0.02c0.23,0.23,0.46,0.46,0.69,0.7l-0.02-0.02c2.92,3.15,5.85,6.29,8.77,9.44
		c0,0-0.01-0.01-0.01-0.01c2.21,2.52,4.43,5.03,6.64,7.55c1.02,1.17,2.04,2.34,3.38,3.88c6.96-7.33,13.8-14.54,20.84-21.96
		c4.52,5.39,6.04,11.55,5.91,17.92c-0.12,5.84-1.29,11.66-2,17.49c-1.09,4.41-0.16,8.47,2.12,12.3c2.63,7.94,8.89,13.14,14.22,18.51
		C272.99,411.47,272.43,413.06,271.87,414.65z"/>
	<path class="st0" d="M304.01,178.22c-3.76,0.97-7.09,1.87-10.45,2.65c-0.78,0.18-1.91,0.24-2.47-0.18
		c-9.76-7.3-19.46-14.69-29.23-22.11c4.35-4.22,8.52-8.26,12.96-12.58c7.55,5.11,15.21,11,23.53,15.69
		c5.99,3.37,7.74,7.48,6.09,13.7C304.18,176.36,304.13,177.38,304.01,178.22z"/>
	<path class="st0" d="M217.37,551.78c0.75-2.27,1.16-3.64,1.65-4.97c3.55-9.55,11.29-15.64,18.48-22.15
		c3.23-2.92,7.05-5.23,10.05-8.36c4.26-4.43,8.97-2.79,13.61-1.69c6.3,1.49,7.84,9.46,4.34,14.36
		c-7.43,10.41-15.22,20.49-25.02,28.77c-4.82,4.07-13.81,6.47-19.03,1.4C219.42,557.17,218.56,554.01,217.37,551.78z M260.94,523.28
		c-0.72-1.07-1.44-3-2.84-4.02c-1.97-1.43-4.16-0.86-6.07,0.85c-4.24,3.81-8.76,7.33-12.83,11.31c-4.61,4.51-9.05,9.24-13.18,14.19
		c-2.1,2.51-1.29,6.91,0.85,8.77c2.09,1.81,5.48,1.74,8.36-0.25c10.21-7.06,17.59-16.73,24.6-26.72
		C260.43,526.57,260.42,525.32,260.94,523.28z"/>
	<path class="st0" d="M393.94,549.52c0.44,11.59-9.18,13.49-15.55,11.67c-7.37-2.11-11.93-7.8-16.69-12.96
		c-5.44-5.89-9.98-12.61-14.91-18.97c-2.76-3.56-2.97-7.28-0.68-11.16c1.85-3.14,5.01-3.55,8.18-4.33
		c4.81-1.19,8.25,0.67,11.63,3.78c6.5,5.98,13.41,11.52,19.73,17.67C390.01,539.44,392.71,544.88,393.94,549.52z M380.68,556.42
		c2.95-0.8,4.62-1.75,5.77-4.09c2.22-4.51-0.27-7.64-3.06-10.34c-7.46-7.23-15.14-14.23-22.8-21.26c-2.8-2.57-5.52-2.82-7.74-1
		c-1.74,1.43-1.9,5.97-0.26,8.36c5.64,8.24,11.94,15.94,19.46,22.52C374.62,552.89,377.78,554.51,380.68,556.42z"/>
	<path class="st0" d="M307.11,179.25c-0.19-0.85-0.28-1.07-0.29-1.29c-0.39-11.06-0.38-11.05,9.14-16.88
		c8.59-5.26,17.16-10.55,26.01-15.99c3.14,3.97,6.23,7.89,9.5,12.04c-8.32,5.92-16.58,11.66-24.69,17.61
		c-3.25,2.39-6.38,4.22-10.67,3.31c-1.48-0.31-3.2,0.58-4.82,0.82C309.88,179.08,308.44,179.14,307.11,179.25z"/>
	<path class="st0" d="M261.64,95.98c3.11,1.03,5.9,1.82,8.55,2.93c0.73,0.31,1.46,1.58,1.5,2.44c0.61,13.41,1.13,26.83,1.56,40.24
		c0.03,1.06-0.53,2.38-1.25,3.2c-3.11,3.5-6.38,6.85-9.6,10.25c-0.25-0.15-0.5-0.3-0.75-0.45
		C261.64,135.24,261.64,115.89,261.64,95.98z"/>
	<path class="st0" d="M464.73,285.67c-2.57,0.14-5.2-0.03-7.68,0.5c-3.33,0.71-5.33-0.65-7.46-2.98c-8.89-9.75-17.89-19.41-27-28.96
		c-1.73-1.81-2.16-3.33-1.19-5.58c0.99-2.3,1.67-4.74,2.59-7.41c13.5,14.19,26.75,28.1,39.99,42.01c0.28,0.2,0.56,0.39,0.84,0.59
		c0,0-0.05-0.02-0.05-0.02C464.75,284.43,464.74,285.05,464.73,285.67z"/>
	<path class="st0" d="M184.27,244.85c1.2-1.13,2.39-2.25,3.8-3.58c1.06,3.22,2.16,6.12,2.93,9.11c0.22,0.85-0.2,2.2-0.81,2.87
		c-9.77,10.59-19.59,21.13-29.5,31.58c-0.83,0.88-2.47,1.37-3.73,1.38c-3.23,0.02-6.46-0.33-9.69-0.54
		c0.51-0.98,0.83-2.14,1.55-2.92C160.61,270.08,172.45,257.47,184.27,244.85z"/>
	<path class="st0" d="M352.02,154.68c-3.13-3.78-5.87-6.89-8.34-10.18c-0.72-0.96-0.97-2.47-0.98-3.72
		c-0.07-12.22,0.05-24.43-0.11-36.65c-0.03-2.45,0.79-3.38,3-3.82c2.06-0.4,4.07-1.09,6.43-1.74
		C352.02,117.18,352.02,135.54,352.02,154.68z"/>
	<path class="st0" d="M277.47,540.73c0.11-0.3,0.22-0.6,0.33-0.89c0.77,0.24,1.54,0.49,2.81,0.89c0,9.55-0.01,19.6,0.01,29.65
		c0.01,4.7,0.16,9.4,0.04,14.09c-0.02,0.98-0.7,2.25-1.49,2.87c-4.88,3.86-9.87,7.57-14.83,11.33c-0.72,0.55-1.45,1.09-2.5,1.23
		c2.3-4,4.54-8.04,6.92-11.99c3.18-5.27,4.14-10.98,3.78-17.03c-0.3-5.02-0.13-10.1-0.84-15.07c-0.71-4.99,1.37-8.42,4.56-11.74
		C277.02,543.3,277.09,541.86,277.47,540.73z"/>
	<path class="st0" d="M251.49,332.98c1.32,3.31-2.48,3.6-3.24,6.17c-7.24-6.56-14.17-12.84-21.29-19.29
		c1.68-1.81,3.25-3.5,5.02-5.39c2.88,2.68,5.65,5.26,8.42,7.84c0.24-0.24,0.47-0.47,0.71-0.71c-1.5-3.58-5.22-5.41-7.71-9.21
		c1.91-1.31,3.93-2.7,5.95-4.09c4.94,4.65,9.88,9.3,14.82,13.95c1.34,1.11,2.69,2.22,4.03,3.34l-0.02-0.02
		c0.53,2.52-3.39,6.95-5.92,6.68c-3.27-3.4-6.54-6.81-9.8-10.21c-0.43,0.43-0.85,0.86-1.28,1.29
		C244.61,326.55,248.05,329.77,251.49,332.98z"/>
	<path class="st0" d="M308.11,63.37c0.64,0.38,1.28,0.76,1.92,1.14c12.91,10.14,25.82,20.29,38.73,30.44
		c0.42,0.33,0.81,0.69,1.7,1.45c-3.14,0.91-5.82,1.86-8.57,2.39c-0.86,0.17-2.05-0.64-2.9-1.26c-9.65-7.07-19.21-14.25-28.92-21.23
		c-2.1-1.51-2.89-3.07-2.52-5.57C307.91,68.29,307.94,65.82,308.11,63.37z"/>
	<path class="st0" d="M278.15,294.26c2.19,7.74,0.72,14.45-5.48,19.75c4.39,6.47,8.61,12.5,12.58,18.69c1,1.57,1.59,3.65,1.65,5.53
		c0.21,5.77,0.08,11.56,0.08,18.38c-3.16-3.06-5.58-5.3-7.84-7.69c-0.52-0.55-0.62-1.62-0.68-2.46c-0.14-2.01-0.34-4.04-0.16-6.03
		c0.68-7.39-1.02-13.83-6.68-19.05c-0.98-0.9-1.34-2.73-1.52-4.19c-0.27-2.21-0.12-4.47-0.17-6.7
		C269.7,300.59,269.79,300.39,278.15,294.26z"/>
	<path class="st0" d="M333.76,293.81c2.72,2.54,5.14,4.67,7.39,6.98c0.61,0.62,0.89,1.75,0.96,2.67c0.13,1.89-0.19,3.83,0.03,5.7
		c0.88,7.23-1.16,13.3-6.45,18.41c-1.04,1-1.46,2.93-1.62,4.49c-0.32,3.22-0.27,6.48-0.36,9.72c-0.19,7.06-1.68,9.58-8.72,14.14
		c0-6.91-0.06-13.48,0.07-20.04c0.02-0.99,0.82-2.03,1.43-2.94c3.68-5.47,7.32-10.97,11.16-16.33c1.27-1.77,1.44-3.13-0.15-4.59
		C332.07,307.03,332.62,300.76,333.76,293.81z"/>
	<path class="st0" d="M327.02,419.69c-1.18,1.34-2.72,3.08-4.56,5.16c-5.48-6.13-10.85-12.15-16.46-18.42
		c-5.54,6.2-10.94,12.24-16.44,18.4c-1.74-1.94-3.3-3.68-4.73-5.27c7.19-7.08,14.32-14.11,21.34-21.02
		C312.65,405.1,319.67,412.23,327.02,419.69z"/>
	<path class="st0" d="M262.82,94.32c14.16-10.41,27.74-20.39,42.06-30.92c0,3.71,0.15,6.77-0.1,9.81c-0.07,0.86-1.18,1.8-2.02,2.42
		c-9.12,6.71-18.32,13.29-27.38,20.07c-2.12,1.59-4,2-6.39,0.89C267.21,95.76,265.29,95.21,262.82,94.32z"/>
	<path class="st0" d="M280.75,145.6c8.38-4.78,16.33-9.35,24.35-13.79c0.77-0.43,2.18-0.38,2.99,0.03
		c8.14,4.22,16.22,8.56,24.77,13.12c-8.85,6.47-17.45,12.75-26.17,19.12C298.11,157.97,289.66,151.94,280.75,145.6z M326.79,145.04
		c-4.22-2.23-8.2-3.73-11.47-6.18c-5.96-4.45-11.22-4.1-16.96,0.36c-3.35,2.6-7.35,4.37-11.33,6.67
		c6.86,5.16,13.26,9.97,19.67,14.79C313.43,155.44,319.93,150.37,326.79,145.04z"/>
	<path class="st0" d="M334.5,314.99c-3.14,0-5.46,0.13-7.74-0.07c-0.79-0.07-1.79-0.82-2.2-1.54c-5.9-10.29-11.81-20.58-17.44-31.01
		c-0.98-1.82-0.83-4.31-0.96-6.5c-0.15-2.52-0.03-5.06-0.03-8.6C315.74,283.44,324.87,298.8,334.5,314.99z"/>
	<path class="st0" d="M303.75,267.86c2.12,9.57-1.44,17.18-6.15,24.64c-3.94,6.23-7.44,12.74-10.85,19.28
		c-1.34,2.56-2.87,3.66-5.72,3.17c-1.41-0.24-2.89-0.04-5.21-0.04C285.33,298.89,294.49,283.45,303.75,267.86z"/>
	<path class="st0" d="M360.55,468.32c1.97-2.06,3.94-4.13,5.91-6.19c6.5,5.91,13,11.83,19.6,17.83c-4.78,6.97-9.19,13.4-13.72,20
		c-2.23-2.5-4.3-4.83-6.62-7.44c3.33-3.85,6.66-7.7,10.27-11.86c-4.49-4.2-8.9-8.37-13.39-12.43
		C362.23,467.9,361.24,468.27,360.55,468.32z"/>
	<path class="st0" d="M245.19,462.13c3.73-0.06,3.51,3.89,5.59,5.51c-0.64,0.04-1.51-0.19-1.89,0.15
		c-4.48,4.02-8.89,8.12-13.39,12.27c3.94,4.54,7.23,8.33,10.77,12.41c-2.09,2.39-4.2,4.79-6.57,7.51
		c-4.52-6.57-8.92-12.96-13.69-19.89C232.41,474.1,238.8,468.12,245.19,462.13z"/>
	<path class="st0" d="M279.39,143.44c-0.36-13.62-0.7-26.49-1.06-39.86c1.38,0.58,2.47,1,3.52,1.48c6.93,3.13,13.9,6.19,20.74,9.51
		c1.08,0.52,2.21,2.19,2.27,3.37c0.44,9.86,0.37,9.88-8.12,15.04C291.14,136.39,285.51,139.75,279.39,143.44z M282.31,137.15
		c6.64-3.57,12.37-6.6,18.02-9.76c0.7-0.39,1.31-1.47,1.4-2.29c0.2-1.88,0.16-3.81,0.01-5.7c-0.06-0.76-0.49-1.88-1.07-2.16
		c-6.13-2.91-12.32-5.69-18.35-8.44C282.31,118.15,282.31,127.25,282.31,137.15z"/>
	<path class="st0" d="M334.72,102.05c-9.64,3.39-18.69,6.6-27.75,9.73c-0.66,0.23-1.57,0.16-2.22-0.11
		c-8.03-3.37-16.03-6.81-24.53-10.45c3.48-2.61,6.59-4.94,9.7-7.26c4.94-3.67,9.84-7.4,14.87-10.94c0.85-0.6,2.69-0.97,3.37-0.48
		C316.9,88.79,325.49,95.22,334.72,102.05z M329.46,101.4c-7.47-5.43-14.4-10.52-21.41-15.5c-0.6-0.43-2-0.5-2.56-0.1
		c-6.6,4.78-13.11,9.68-19.99,14.81c6.74,2.85,13.09,5.55,19.46,8.17c0.65,0.27,1.58,0.22,2.27-0.01
		C314.44,106.43,321.62,104.01,329.46,101.4z"/>
	<path class="st0" d="M320.3,583.24c-2.79-0.25-5.12-0.46-7.4-0.67c0-7.75,0-15.39,0-23.29c7.1,0.38,12.02,4.04,16.59,8.36
		c0.35,0.33,0.56,0.98,0.56,1.48c0.04,5.12,0.02,10.23,0.02,15.64c-2.41-0.71-4.1-1.2-5.79-1.7c3.19-6.89,2.54-12.26-3.25-14.07
		C320.78,573.69,320.55,578.32,320.3,583.24z"/>
	<path class="st0" d="M298.98,582.59c-2.18,0.2-4.5,0.4-7.25,0.65c-0.25-4.76-0.49-9.38-0.74-14c-5.58,1.69-6.8,6.75-3.14,13.73
		c-1.76,0.55-3.48,1.09-5.92,1.85c0-5.35-0.59-10.46,0.25-15.33c0.4-2.33,3.19-4.7,5.47-6.13c3.2-2.01,6.94-3.16,11.31-5.05
		C298.98,566.99,298.98,574.62,298.98,582.59z"/>
	<path class="st0" d="M334.84,104.98c0,12.8,0,25,0,37.72c-5.93-3.16-11.61-6.18-17.29-9.2c-0.1-0.05-0.19-0.11-0.29-0.17
		c-9.48-5.07-9.51-5.07-9.61-15.71c-0.01-0.78,0.61-2.01,1.25-2.27C317.36,111.88,325.87,108.54,334.84,104.98z M332.66,110.9
		c-7.02,1.9-13.7,3.66-20.33,5.58c-0.66,0.19-1.49,1.32-1.5,2.02c-0.08,4.76,0.12,9.37,5.96,11.17c2.08,0.64,3.88,2.19,5.82,3.3
		c3.25,1.86,6.51,3.7,10.05,5.71C332.66,129.22,332.66,120.3,332.66,110.9z"/>
	<path class="st0" d="M305.5,287.47c4.67,9.36,9.04,18.04,13.28,26.79c0.38,0.79,0.32,2.23-0.17,2.92
		c-4.32,6.1-8.79,12.1-13.49,18.51c-4.88-6.29-9.58-12.32-14.21-18.4c-0.32-0.41-0.39-1.34-0.15-1.8
		C295.55,306.3,300.39,297.14,305.5,287.47z M305.36,331.48c3.66-5.11,7.12-9.89,10.49-14.72c0.37-0.53,0.56-1.54,0.3-2.08
		c-3.42-7.19-6.93-14.33-10.66-21.97c-4.02,7.67-7.78,14.76-11.43,21.91c-0.32,0.63-0.32,1.82,0.08,2.35
		C297.73,321.76,301.46,326.47,305.36,331.48z"/>
	<path class="st0" d="M306.36,354.55c-0.44-6.23,0-11.04,3.74-15.52c4.64-5.56,8.51-11.77,12.7-17.71c3.38-4.79,3.38-4.79,9.9-3.29
		C324.01,330.07,315.43,341.98,306.36,354.55z"/>
	<path class="st0" d="M277.53,318.03c4.98-1.81,7.9-0.42,10.46,3.84c3.73,6.21,8.29,11.92,12.49,17.85
		c3.84,5.43,4.15,6.78,3.16,14.47C294.83,341.99,286.25,330.11,277.53,318.03z"/>
	<path class="st0" d="M209.68,339.03c1.64-2.14,3.27-4.28,5.07-6.63c6.9,7.27,13.44,14.14,20.14,21.2c-1.9,2.03-3.72,3.98-5.53,5.93
		c-1.01-0.99-1.97-2.04-3.04-2.95c-1.19-1-2.49-1.87-3.74-2.79c0,0,0.01,0.01,0.01,0.01c-0.39-0.84-0.6-1.87-1.21-2.47
		c-2.45-2.39-5.02-4.65-7.55-6.96c0,0,0.02,0.02,0.02,0.02c0.01-0.24,0.03-0.49,0.04-0.73c-0.24,0.01-0.49,0.02-0.73,0.03
		c0,0,0.02,0.02,0.02,0.02C212.01,342.16,210.85,340.6,209.68,339.03z"/>
	<path class="st0" d="M382.64,359.54c-1.82-1.95-3.64-3.9-5.53-5.93c6.7-7.06,13.24-13.93,20.14-21.2c1.8,2.35,3.44,4.49,5.07,6.63
		c-1.16,1.56-2.33,3.13-3.49,4.69c0,0,0.02-0.02,0.02-0.02c-0.24-0.01-0.49-0.02-0.73-0.03c0.01,0.24,0.03,0.49,0.04,0.73
		c0,0,0.02-0.02,0.02-0.02c-2.96,2.8-5.94,5.59-8.87,8.42c-0.15,0.15,0.06,0.67,0.1,1.01c0,0,0.01-0.01,0.01-0.01
		c-0.58,0.21-1.29,0.27-1.7,0.65C385.98,356.09,384.32,357.83,382.64,359.54z"/>
	<path class="st0" d="M372.67,308.29c1.97,1.31,3.93,2.62,6.21,4.13c-3.34,3.53-6.2,6.55-9.06,9.58
		c-3.36,3.42-6.71,6.83-10.07,10.25c-0.19,0.1-0.4,0.31-0.58,0.28c-2.26-0.32-5.77-4.92-5.34-6.96c0,0-0.02,0.02-0.02,0.02
		c1.34-1.11,2.69-2.23,4.03-3.34C362.78,317.6,367.72,312.94,372.67,308.29z"/>
	<path class="st0" d="M319.93,527.62c0,2.18,0.34,4.42-0.07,6.52c-1.01,5.12,1.48,8.72,4.49,12.33c1.33,1.6,3.4,4.18,2.9,5.4
		c-1.18,2.87-3.3,5.77-5.84,7.48c-1.31,0.88-4.31-0.73-7.48-1.42c2.69-2.16,4.89-3.94,7.88-6.34c-9.48-4.07-7.14-11.51-6.93-17.87
		c0.07-2.21,2.87-4.34,4.42-6.5C319.51,527.35,319.72,527.49,319.93,527.62z"/>
	<path class="st0" d="M290.77,551.35c2.69,2.44,4.66,4.24,6.99,6.35c-2.4,0.77-4.33,1.46-6.3,1.95c-0.48,0.12-1.21-0.34-1.68-0.72
		c-0.59-0.49-1.03-1.17-1.54-1.77c-4.84-5.67-4.84-5.66-0.02-11.41c2.71-3.23,4.89-6.55,3.94-11.2c-0.45-2.21-0.08-4.59-0.08-7.07
		c4.83,2.83,5.26,7.11,5.4,12.18C297.63,544.99,295.97,548.67,290.77,551.35z"/>
	<path class="st0" d="M433.17,303.3c-2.06-1.77-4.11-3.53-6.08-5.23c2.52-3.27,4.66-6.04,6.81-8.82c0,0-0.06,0.03-0.06,0.03
		c0.24-0.24,0.49-0.49,0.73-0.73l-0.06,0.06c0.24-0.24,0.49-0.48,0.73-0.73l-0.05,0.06c2.62-2.44,5.25-4.87,8.19-7.61
		c1.83,1.74,3.81,3.61,5.94,5.63c-4.33,4.52-8.51,8.83-12.61,13.22c-0.51,0.55-0.62,1.47-0.91,2.21c0,0,0.11-0.08,0.11-0.08
		c-0.48,0.23-0.96,0.46-1.44,0.7c0,0,0.07-0.05,0.07-0.05c-0.25,0.25-0.5,0.49-0.74,0.74l0.07-0.07c-0.25,0.25-0.49,0.5-0.74,0.74
		L433.17,303.3z"/>
	<path class="st0" d="M178.1,289.26c1.4,1.82,2.79,3.65,4.22,5.44c0.76,0.95,1.6,1.82,2.81,3.19c-2.2,1.89-4.25,3.65-6.31,5.42
		l0.04,0.08c-0.25-0.25-0.49-0.5-0.74-0.74l0.07,0.07c-0.25-0.25-0.5-0.49-0.74-0.74l0.07,0.05c-0.48-0.23-0.96-0.47-1.44-0.7
		l0.11,0.08c-0.29-0.75-0.38-1.72-0.92-2.21c-4.39-4-8.86-7.91-13.61-12.11c3.14-2.84,5.16-4.66,7.2-6.5
		c2.56,2.37,5.25,4.86,7.94,7.36l-0.05-0.06c0.24,0.24,0.49,0.48,0.73,0.73l-0.06-0.06c0.24,0.24,0.49,0.49,0.73,0.73L178.1,289.26z
		"/>
	<path class="st0" d="M370.86,323.01c2.93-2.74,5.86-5.47,9.14-8.54c1.61,1.71,3.24,3.44,5.05,5.36
		c-7.03,6.39-13.95,12.67-21.14,19.2c-0.8-2.35-4.7-2.56-3.39-6.05C363.96,329.66,367.41,326.34,370.86,323.01z"/>
	<path class="st0" d="M392.13,327.3c1.37,1.5,2.43,2.64,3.97,4.33c-7.11,6.36-14.17,12.67-21.22,18.98
		c0.28,0.46,0.57,0.92,0.85,1.38c-1.63-1.76-3.26-3.53-5.3-5.74C377.62,339.96,384.76,333.72,392.13,327.3z"/>
	<path class="st0" d="M219.86,327.31c7.32,6.36,14.39,12.51,21.69,18.87c-1.77,1.98-3.45,3.85-4.53,5.06
		c-7.08-6.49-14.07-12.88-21.27-19.47C217.35,330.02,218.47,328.81,219.86,327.31z"/>
	<path class="st0" d="M164.03,302.73c0.13,1.04,0.3,2.12,0.41,3.21c0.33,3.45,0.64,6.91,0.98,10.61c-4.96,0-9.8,0-14.62,0
		C148.93,306.91,154.34,301.23,164.03,302.73z"/>
	<path class="st0" d="M461.19,316.61c-4.73,0-9.51,0-14.62,0c0.45-4.7,0.89-9.31,1.32-13.86
		C457.64,301.22,463.06,306.89,461.19,316.61z"/>
	<path class="st0" d="M402.17,275.05c0.02-0.22-0.05-0.54,0.07-0.65c6.03-5.71,12.08-11.4,18.37-17.33c1.27,1.2,3.1,2.91,5.06,4.76
		c-3.71,3.88-7.21,7.54-10.7,11.2c0,0,0.02-0.02,0.02-0.02c-1.69,1.5-3.32,3.08-5.09,4.48c-0.87,0.69-1.99,1.06-2.99,1.58
		c0.1-3.26-2.95-2.78-4.64-3.91L402.17,275.05z"/>
	<path class="st0" d="M196.99,272.98c-3.44-3.6-6.88-7.19-10.61-11.09c1.9-1.75,3.75-3.44,4.81-4.42c5.31,4.8,10.6,9.57,15.88,14.34
		c0.18,1.29,0.35,2.58,0.42,3.08c-1.26,2.01-2.17,3.47-3.09,4.92c-2.47-2.29-4.95-4.57-7.42-6.86
		C196.98,272.96,196.99,272.98,196.99,272.98z"/>
	<path class="st0" d="M364.88,340.56c7.45-6.63,14.38-12.8,21.41-19.05c1.28,1.41,2.52,2.77,3.99,4.39
		c-6.75,6.23-13.62,12.57-20.8,19.19C368.02,343.66,366.62,342.28,364.88,340.56z"/>
	<path class="st0" d="M246.88,340.33c-1.62,1.74-2.97,3.19-4.39,4.72c-7.06-6.51-13.95-12.87-21.04-19.4
		c1.41-1.48,2.63-2.76,4.08-4.28C232.59,327.63,239.57,333.84,246.88,340.33z"/>
	<path class="st0" d="M478.24,334.01c7.9-1.07,13.72,5.02,12.64,13.34c-4.85,0.42-9.78,0.85-15.14,1.32
		C476.62,343.47,477.44,338.7,478.24,334.01z"/>
	<path class="st0" d="M136.27,348.64c-5.21-0.43-10.06-0.83-14.86-1.23c-2.14-7.5,4.07-14.38,12.33-13.44
		C134.55,338.64,135.37,343.42,136.27,348.64z"/>
	<path class="st0" d="M240.08,307.39c0.16-0.65,0.32-1.3,0.47-1.96c0.66,0.27,1.45,0.39,1.95,0.83c3.68,3.27,7.3,6.61,10.85,9.84
		c2.76-1.58,5.47-3.01,8.02-4.69c0.62-0.4,0.96-1.61,0.99-2.46c0.11-3.47,0.05-6.94,0.05-10.41c0.31-0.16,0.62-0.33,0.93-0.49
		c0.98,1.98,2.69,3.93,2.78,5.95c0.2,4.49,2.07,9.92-4.74,11.95c-1.52,0.45-2.63,2.33-4.06,3.68c1.57,1.49,2.92,2.78,4.79,4.55
		c-1.55,0.55-2.73,0.96-3.91,1.38c0,0,0.02,0.02,0.02,0.02c-1.04-1.41-2.07-2.82-3.11-4.22
		C250.08,316.7,245.08,312.05,240.08,307.39z"/>
	<path class="st0" d="M353.83,325.57c-1.18-0.41-2.37-0.83-3.93-1.38c1.87-1.76,3.23-3.05,5.11-4.83c-2.77-1.86-5.31-3.55-7.82-5.27
		c-0.51-0.35-1.16-0.76-1.35-1.28c-1.4-3.82,0.4-11.6,3.77-15c0,3.98,0.09,7.46-0.04,10.93c-0.06,1.67,0.42,2.5,2.01,3.24
		c2.38,1.1,4.54,2.68,7,4.18c3.5-3.18,7.19-6.58,10.94-9.91c0.5-0.44,1.29-0.55,1.95-0.82c0.15,0.65,0.31,1.3,0.46,1.95
		c-5,4.66-10.01,9.31-15.01,13.97c-1.04,1.41-2.07,2.81-3.11,4.22C353.8,325.58,353.83,325.57,353.83,325.57z"/>
	<path class="st0" d="M101.38,386.82c-2.22-2.75-4.16-5.16-6.48-8.03c4.38,0,8.28,0,12.75,0c0-4.85,0-9.38,0-14.26
		c4.67,0.45,8.75,0.84,13.66,1.31C114.47,373.05,108.08,379.77,101.38,386.82z"/>
	<path class="st0" d="M490.69,365.87c4.76-0.47,8.83-0.88,13.26-1.32c0.22,4.75,0.42,9.26,0.63,13.94c4.06,0,7.94,0,12.74,0
		c-2.45,3.06-4.46,5.56-6.68,8.33C503.99,379.83,497.56,373.08,490.69,365.87z"/>
	<path class="st0" d="M118.73,349.19c0.78,5.41,1.43,9.92,2.14,14.9c-4.76-0.53-9.29-0.94-13.79-1.59c-1.6-0.23-2.14-3.19-0.85-4.69
		c2.27-2.62,4.47-5.38,7.13-7.56C114.56,349.27,116.78,349.53,118.73,349.19z"/>
	<path class="st0" d="M491.12,364.09c0.74-5.12,1.4-9.65,2.05-14.14c2.87-1.11,5.2-0.9,7.09,1.8c1.21,1.72,2.74,3.27,4.32,4.68
		c1.96,1.75,2.46,3.6,1,6.09C500.98,363.02,496.23,363.53,491.12,364.09z"/>
	<path class="st0" d="M150.06,332.08c-5.14-0.36-9.69-0.68-14.1-0.99c-1.32-2.72-0.64-4.64,1.44-6.38c1.8-1.5,3.29-3.38,5.11-4.86
		c0.87-0.71,2.45-1.47,3.25-1.13c1.16,0.5,2.44,1.84,2.73,3.04C149.25,324.99,149.52,328.34,150.06,332.08z"/>
	<path class="st0" d="M476.1,331.11c-4.6,0.31-9.14,0.62-14.11,0.96c0.54-4.04,0.92-7.79,1.6-11.48c0.37-1.99,3.79-2.79,5.32-1.36
		c1.88,1.76,3.59,3.72,5.56,5.36C476.55,326.31,477.33,328.21,476.1,331.11z"/>
	<path class="st0" d="M106.1,365.07c0,3.94,0,7.61,0,11.73c-4.44,0.26-8.63,0.51-12.86,0.77c-1.6-2.55-1.83-4.71,0.8-6.69
		c1.33-1,2.58-2.2,3.59-3.52C99.9,364.37,102.66,363.64,106.1,365.07z"/>
	<path class="st0" d="M519.86,377.6c-5.24-0.28-9.35-0.51-13.85-0.75c0-4.08,0-7.92,0-11.86c7.01-2.67,9.15,4.02,12.99,7.22
		C519.98,373.02,519.57,375.49,519.86,377.6z"/>
	<path class="st0" d="M435.8,301.4c3.39-0.41,6.78-0.81,10.55-1.27c-0.63,5.82-1.2,11.19-1.85,17.25
		c-3.86-4.06-7.34-7.63-10.68-11.33c-0.55-0.61-0.45-1.82-0.65-2.76c0,0-0.04,0.08-0.04,0.08c0.26,0.01,0.52,0.03,0.79,0.04
		c-0.02-0.26-0.03-0.52-0.05-0.79c0,0-0.07,0.07-0.07,0.07c0.26,0.02,0.52,0.03,0.79,0.04c-0.01-0.26-0.03-0.52-0.04-0.79
		c0,0-0.07,0.05-0.07,0.05c0.48-0.23,0.96-0.47,1.44-0.7C435.91,301.33,435.8,301.4,435.8,301.4z"/>
	<path class="st0" d="M178.83,303.3c-0.57,1.35-0.82,3.03-1.78,3.99c-3.12,3.13-6.51,6.01-9.68,8.88
		c-0.52-4.85-1.1-10.21-1.72-16.04c3.77,0.45,7.16,0.86,10.55,1.27c0,0-0.11-0.08-0.11-0.08c0.48,0.23,0.96,0.47,1.44,0.7
		c0,0-0.07-0.05-0.07-0.05c-0.01,0.26-0.03,0.52-0.04,0.79c0.26-0.02,0.52-0.03,0.79-0.04c0,0-0.07-0.07-0.07-0.07
		c-0.02,0.26-0.03,0.52-0.05,0.79c0.26-0.01,0.52-0.03,0.79-0.04C178.87,303.39,178.83,303.3,178.83,303.3z"/>
	<path class="st0" d="M149.79,318.32c5.64,0,10.74,0,16.87,0c-5.14,5.38-9.72,10.17-14.69,15.37
		C151.2,328.24,150.51,323.42,149.79,318.32z"/>
	<path class="st0" d="M445.38,318.37c6.1,0,11.29,0,16.8,0c-0.7,4.99-1.37,9.81-2.14,15.32
		C455.1,328.53,450.54,323.76,445.38,318.37z"/>
	<path class="st0" d="M476.29,332.71c-0.79,5.27-1.5,10-2.12,14.15c-4.5-4-9.24-8.21-13.97-12.41c0.13-0.33,0.25-0.66,0.38-1
		C465.65,333.21,470.73,332.97,476.29,332.71z"/>
	<path class="st0" d="M151.59,334.13c-4.35,4.55-8.7,9.09-13.51,14.12c-0.83-5.39-1.57-10.15-2.32-15.02c5.27,0,10.42,0,15.57,0
		C151.42,333.53,151.51,333.83,151.59,334.13z"/>
	<path class="st0" d="M120.26,328.01c-0.48-4.01-0.96-8.07-1.51-12.62c4.42,0.28,8.58,0.54,12.71,0.81
		C132.63,321.86,126.17,328.75,120.26,328.01z"/>
	<path class="st0" d="M493.23,315.32c-0.53,4.57-1,8.62-1.47,12.63c-5.56,0.86-11.83-5.43-11.57-11.69
		C484.33,315.97,488.5,315.67,493.23,315.32z"/>
	<path class="st0" d="M120.49,349.19c5.15,0.36,10,0.71,15.68,1.11c-4.73,4.95-9,9.43-13.73,14.39
		C121.74,359.12,121.13,354.32,120.49,349.19z"/>
	<path class="st0" d="M489.57,364.71c-4.79-5.02-8.99-9.43-13.71-14.38c5.5-0.41,10.38-0.77,15.63-1.17
		C490.87,354.29,490.27,359.09,489.57,364.71z"/>
	<path class="st0" d="M86.01,345.33c0.47,1.62,1.08,3.21,1.38,4.85c0.54,2.94,0.89,5.91,1.38,9.23c-5.32-0.24-10.73,2.24-14.86-2.81
		c0.21-0.5,0.41-0.99,0.62-1.49c0,0-0.04,0.04-0.04,0.04c0.47-0.23,0.94-0.47,1.41-0.7c0,0-0.05,0.04-0.05,0.04
		C79.24,351.44,82.63,348.38,86.01,345.33z"/>
	<path class="st0" d="M538.08,356.6c-4.13,5.05-9.54,2.57-15.24,2.83c1.12-5.01,2.13-9.55,3.14-14.1c3.39,3.05,6.77,6.11,10.16,9.16
		c0,0-0.05-0.04-0.05-0.04c0.47,0.23,0.94,0.47,1.41,0.7c0,0-0.04-0.04-0.04-0.04C537.67,355.61,537.88,356.11,538.08,356.6z"/>
	<path class="st0" d="M102.67,329.81c0.53,4.5,1.06,8.96,1.59,13.51c-5.23,0-10.18,0-15.03,0
		C93.72,338.8,98.12,334.38,102.67,329.81z"/>
	<path class="st0" d="M522.39,343.3c-4.42,0-9.37,0-14.64,0c0.52-4.51,1.05-8.97,1.58-13.55
		C513.82,334.41,518.16,338.9,522.39,343.3z"/>
	<path class="st0" d="M94.06,358.95c-6.11-3.33-3.58-8.84-5.29-13.02c4.23,0,8.21-0.15,12.17,0.06c2.05,0.11,2.65,2.6,1.16,4.25
		C99.47,353.15,96.79,356,94.06,358.95z"/>
	<path class="st0" d="M523.18,345.89c-1.64,4.21,0.9,9.78-5.32,13.06c-2.66-2.91-5.42-5.82-8.02-8.87c-0.51-0.6-0.72-1.9-0.42-2.61
		c0.3-0.71,1.38-1.48,2.15-1.52C515.24,345.81,518.92,345.89,523.18,345.89z"/>
	<path class="st0" d="M463.74,300.46c4.53,0,8.49,0,12.83,0c-0.42,3.69-0.67,7.1-1.24,10.47c-0.33,1.96-1.73,2.17-3.21,1.01
		c-2.36-1.86-4.96-3.56-6.86-5.82C464.16,304.8,464.24,302.51,463.74,300.46z"/>
	<path class="st0" d="M135.39,300.45c4.31,0,8.18,0,12.22,0c0.63,2.91,0.46,5.45-2.57,7.31c-1.88,1.15-3.41,2.87-5.2,4.19
		c-1.72,1.27-2.95,0.75-3.25-1.38C136.15,307.38,135.83,304.18,135.39,300.45z"/>
	<path class="st0" d="M486.96,306.79c1.82,1.92,3.64,3.84,5.89,6.22c-5.35,0.35-10.18,0.66-15.6,1.01
		c0.63-4.72,1.22-9.18,1.87-13.63c0.02-0.12,0.72-0.15,1.1-0.22C482.47,302.37,484.71,304.58,486.96,306.79z"/>
	<path class="st0" d="M131.78,300.15c0.41,0.18,1.15,0.32,1.19,0.56c0.63,4.29,1.18,8.59,1.8,13.29
		c-5.25-0.33-10.17-0.64-15.62-0.98c2.25-2.38,4.08-4.3,5.9-6.22C127.29,304.58,129.53,302.36,131.78,300.15z"/>
	<path class="st0" d="M106.06,342.8c-0.5-4.27-0.92-7.8-1.34-11.39c4.64,0,9.06,0,14.37,0c-2.94,4.08-5.11,7.58-7.83,10.58
		C110.39,342.93,108.06,342.54,106.06,342.8z"/>
	<path class="st0" d="M507.28,331.55c-0.42,3.49-0.84,7.02-1.24,10.42c-3.56,1.78-5.68,0.43-7.45-2.59
		c-1.45-2.47-3.32-4.69-5.59-7.84C498.11,331.55,502.48,331.55,507.28,331.55z"/>
	<path class="st0" d="M476.73,296.68c-0.23,0.44-0.45,1.25-0.69,1.25c-4.3,0.08-8.6,0.06-13.15,0.06c0-3.36-0.1-6.56,0.09-9.75
		c0.04-0.63,1.18-1.19,1.81-1.79c1.01,0.58,2.17,1.01,3.01,1.78C470.83,290.98,473.76,293.85,476.73,296.68z"/>
	<path class="st0" d="M135,296.99c3.06-2.93,6.08-5.9,9.2-8.75c0.84-0.77,2-1.2,3.02-1.79c0.63,0.71,1.76,1.38,1.81,2.13
		c0.21,2.99,0.09,6,0.09,9.3c-4.68,0-9.3,0-13.91-0.04C135.14,297.84,135.07,297.29,135,296.99z"/>
	<path class="st0" d="M494.65,314.86c4.47,4.54,8.42,8.55,12.57,12.77c-4.49,0.49-8.86,0.97-13.68,1.5
		C493.91,324.37,494.25,319.91,494.65,314.86z"/>
	<path class="st0" d="M117.39,315.38c0.36,4.56,0.71,8.94,1.09,13.73c-4.74-0.5-9.12-0.97-13.48-1.43
		C109.1,323.61,113.14,319.6,117.39,315.38z"/>
	<path class="st0" d="M267.39,385.79c-0.44-1.35-1.24-2.69-1.25-4.04c-0.1-10.74-0.06-21.47-0.06-32.21c0.33-0.15,0.67-0.29,1-0.44
		c0.8,1.26,2.32,2.53,2.3,3.78c-0.19,10.9-0.66,21.8-1.04,32.7C268.03,385.66,267.71,385.73,267.39,385.79z"/>
	<path class="st0" d="M343.65,385.57c-0.38-10.81-0.84-21.62-1.04-32.44c-0.02-1.33,1.38-2.68,2.13-4.02
		c0.39,0.12,0.78,0.23,1.17,0.35c0,11.02,0.04,22.04-0.06,33.06c-0.01,1.09-0.82,2.16-1.26,3.24
		C344.28,385.7,343.96,385.64,343.65,385.57z"/>
	<path class="st0" d="M456.71,262.96c2.2-0.53,4.41-1.06,6.34-1.53c-0.36,5.43-0.75,11.18-1.17,17.4c-2.5-2.61-5.11-5.12-7.39-7.9
		c-0.49-0.6,0.05-2.21,0.38-3.28c0.5-1.61,1.22-3.15,1.85-4.73C456.74,262.93,456.71,262.96,456.71,262.96z"/>
	<path class="st0" d="M334.99,392.14c-0.58,0.09-1.44,0.24-2.36,0.39c-0.15-0.37-0.37-0.66-0.37-0.94
		c-0.05-9.27-0.14-18.53-0.04-27.8c0.01-1.35,0.93-2.69,1.42-4.03c0.45,0.11,0.9,0.22,1.35,0.33
		C334.99,370.62,334.99,381.15,334.99,392.14z"/>
	<path class="st0" d="M279.85,392.53c-1.27-0.15-2.13-0.25-2.91-0.35c0-10.78,0-21.42,0-32.05c0.39-0.13,0.77-0.26,1.16-0.39
		c0.58,1.19,1.65,2.37,1.67,3.56C279.91,372.89,279.85,382.48,279.85,392.53z"/>
	<path class="st0" d="M185.6,296.52c-0.5-1.43-1.24-2.52-1.2-3.57c0.43-9.27,1-18.53,1.55-27.79c0.01-0.17,0.24-0.34,0.37-0.51
		C188.19,266.7,187.85,292.84,185.6,296.52z"/>
	<path class="st0" d="M425.72,264.29c1.8,9.54,2.08,29.67,0.51,31.65C424.32,293.45,423.71,267.04,425.72,264.29z"/>
	<path class="st0" d="M461.15,297.7c-4.56,0.57-9.26-4.47-8.98-9.61c2.93,0,5.87,0,8.98,0C461.15,291.28,461.15,294.36,461.15,297.7
		z"/>
	<path class="st0" d="M159.65,288.14c0.75,4.81-4.11,10.2-8.8,9.51c0-3.06,0-6.15,0-9.51C153.77,288.14,156.71,288.14,159.65,288.14
		z"/>
	<path class="st0" d="M176.81,287.95c1.14-6.41-0.06-13.16,2.36-19.33c0,6.48,0.02,12.96-0.05,19.44c0,0.4-0.67,0.8-1.02,1.2
		c0,0,0.06,0.03,0.06,0.03c-0.24-0.24-0.49-0.49-0.73-0.73c0,0,0.06,0.06,0.06,0.06c-0.24-0.24-0.49-0.48-0.73-0.73L176.81,287.95z"
		/>
	<path class="st0" d="M433.9,289.26c-0.39-0.85-1.11-1.69-1.12-2.54c-0.1-6-0.05-12-0.05-18.84c0.59,1.83,1.27,3.1,1.39,4.42
		c0.46,5.21,0.74,10.43,1.08,15.65c0,0,0.05-0.06,0.05-0.06c-0.24,0.24-0.49,0.48-0.73,0.73c0,0,0.06-0.06,0.06-0.06
		c-0.24,0.24-0.49,0.49-0.73,0.73L433.9,289.26z"/>
	<path class="st0" d="M286.81,390.96c0-6.86,0-13.72,0-20.63c0.21,0.29,0.7,0.66,0.76,1.09c0.89,6.57,2.67,13.19-0.84,19.58
		C286.72,391,286.81,390.96,286.81,390.96z"/>
	<path class="st0" d="M325.29,391.01c-0.61-1.57-1.66-3.1-1.76-4.7c-0.24-3.66-0.12-7.36,0.07-11.03c0.09-1.68,0.68-3.33,1.57-4.87
		c0,6.85,0,13.7,0.01,20.56C325.19,390.96,325.29,391.01,325.29,391.01z"/>
	<path class="st0" d="M196.98,272.96c0.2,3.57,0.51,7.13,0.54,10.7c0.01,1.22-0.64,2.44-0.99,3.66c-0.31-0.06-0.62-0.12-0.93-0.18
		c0-4.28-0.04-8.55,0.06-12.83c0.01-0.45,0.87-0.88,1.33-1.32C196.99,272.98,196.98,272.96,196.98,272.96z"/>
	<path class="st0" d="M414.97,273.02c0.49,0.65,1.37,1.28,1.39,1.95c0.13,3.98,0.07,7.97-0.66,12.26c-0.43-1.08-1.23-2.16-1.23-3.23
		c0.02-3.67,0.32-7.33,0.52-11C414.99,273,414.97,273.02,414.97,273.02z"/>
	<path class="st0" d="M204.4,279.81c0.92-1.46,1.83-2.92,3.09-4.92c-0.07-0.5-0.25-1.79-0.42-3.08c1.13,0.88,2.27,1.76,3.4,2.64
		c-2.03,2.23-4.07,4.46-6.1,6.69C204.38,280.7,204.39,280.26,204.4,279.81z"/>
	<path class="st0" d="M402.26,275.15c1.69,1.13,4.74,0.65,4.64,3.91c-0.06,0.25-0.13,0.51-0.19,0.76
		C405.23,278.26,403.75,276.7,402.26,275.15z"/>
	<path class="st0" d="M249.57,453.21c-0.8,0.43-1.59,0.86-2.41,1.31c-1.48-3.37-1.37-3.7,0.97-3.83
		C248.61,451.53,249.09,452.37,249.57,453.21z"/>
	<path class="st0" d="M363.87,450.69c2.34,0.13,2.45,0.46,0.97,3.83c-0.82-0.44-1.62-0.87-2.42-1.3
		C362.91,452.37,363.39,451.53,363.87,450.69z"/>
	<path class="st0" d="M359.81,456.05c0.56,0.91,1.11,1.82,1.67,2.73c-0.1,0.31-0.19,0.62-0.29,0.93c-1.19-0.45-2.38-0.9-3.57-1.35
		C358.35,457.59,359.08,456.82,359.81,456.05z"/>
	<path class="st0" d="M254.37,458.36c-1.14,0.51-2.28,1.02-3.42,1.53c-0.16-0.29-0.33-0.59-0.49-0.88c0.58-0.98,1.16-1.97,1.73-2.95
		C252.92,456.82,253.64,457.59,254.37,458.36z"/>
	<path class="st0" d="M315.38,439.98c-1.55,0.84-2.46,0.44-2.66-1.36c0.28-0.23,0.56-0.47,0.84-0.7c0.63,0.66,1.27,1.32,1.9,1.98
		L315.38,439.98z"/>
	<path class="st0" d="M299.28,438.63c-0.69,0.37-1.37,0.75-2.06,1.12c0.16-0.45,0.33-0.9,0.49-1.35
		C298.24,438.47,298.76,438.55,299.28,438.63z"/>
	<path class="st0" d="M331.47,417.52c0.22,0.62,0.45,1.24,0.67,1.85c-0.65-0.13-1.31-0.25-1.96-0.38
		C330.61,418.5,331.04,418.01,331.47,417.52z"/>
	<path class="st0" d="M281.82,418.99c-0.65,0.13-1.31,0.26-1.96,0.38c0.22-0.62,0.45-1.23,0.67-1.85
		C280.96,418.01,281.39,418.5,281.82,418.99z"/>
	<path class="st0" d="M346.21,472.24c1.78-0.18,2.36,0.73,2.13,2.36C347.63,473.82,346.92,473.03,346.21,472.24z"/>
	<path class="st0" d="M263.66,474.6c-0.23-1.63,0.35-2.54,2.13-2.36C265.08,473.03,264.37,473.82,263.66,474.6z"/>
	<path class="st0" d="M238,451.27c-0.01,1.01-0.03,2.01-0.04,3.02C236.08,453.26,236.28,452.26,238,451.27z"/>
	<path class="st0" d="M374.04,454.29c-0.01-1.01-0.03-2.01-0.04-3.02C375.72,452.26,375.93,453.26,374.04,454.29z"/>
	<path class="st0" d="M365.55,441.85c-0.56-0.39-1.13-0.79-1.69-1.18C364.43,441.06,364.99,441.46,365.55,441.85z"/>
	<path class="st0" d="M264.95,448.5c0.48-0.09,0.95-0.18,1.43-0.27C265.91,448.32,265.43,448.41,264.95,448.5z"/>
	<path class="st0" d="M345.62,448.23c0.48,0.09,0.95,0.18,1.43,0.27C346.57,448.41,346.1,448.32,345.62,448.23z"/>
	<path class="st0" d="M248.14,440.67c-0.56,0.39-1.13,0.79-1.69,1.18C247.01,441.46,247.57,441.06,248.14,440.67z"/>
	<path class="st0" d="M315.46,439.9c0.33,0.23,0.66,0.45,0.99,0.68c-0.13,0.13-0.27,0.26-0.4,0.4c-0.22-0.33-0.45-0.66-0.67-0.99
		C315.38,439.98,315.46,439.9,315.46,439.9z"/>
	<path class="st0" d="M295.52,440.88c-0.05-0.18-0.08-0.28-0.11-0.37c0.08-0.02,0.17-0.05,0.25-0.07
		C295.62,440.56,295.58,440.68,295.52,440.88z"/>
	<path class="st0" d="M331.57,424.47c0.09,0.05,0.18,0.1,0.28,0.15C331.75,424.57,331.66,424.52,331.57,424.47L331.57,424.47z"/>
	<path class="st0" d="M280.43,424.47c-0.05,0.09-0.1,0.18-0.15,0.28C280.33,424.65,280.38,424.56,280.43,424.47
		C280.43,424.47,280.43,424.47,280.43,424.47z"/>
	<path class="st0" d="M331.57,424.47c-0.09-0.05-0.18-0.1-0.28-0.15C331.38,424.37,331.48,424.42,331.57,424.47L331.57,424.47z"/>
	<path class="st0" d="M280.43,424.47c0.05-0.09,0.1-0.18,0.15-0.28C280.53,424.28,280.48,424.38,280.43,424.47
		C280.43,424.47,280.43,424.47,280.43,424.47z"/>
	<path class="st0" d="M148.99,261.35c4.13,0.7,7.16,3.09,8.46,7.31c0.26,0.83,0.04,2.21-0.53,2.83c-2.17,2.37-4.57,4.53-6.76,6.65
		C149.78,272.67,149.39,267.03,148.99,261.35z"/>
	<path class="st0" d="M313.9,221.91c-9.44,8.9-18.85,17.76-28.26,26.62c-5.24-5.73-4.25-17.12,1.97-23.94
		C294.41,217.13,305.9,215.86,313.9,221.91z"/>
	<path class="st0" d="M292.55,255.77c9.24-8.89,18.39-17.69,27.57-26.52c4.35,6.52,3.1,16.39-2.7,22.71
		C311.1,258.84,301.05,260.49,292.55,255.77z"/>
	<path class="st0" d="M177.26,605.66c0.04-6.02,4.41-10.85,9.73-10.77c5.34,0.08,9.52,4.94,9.48,11
		c-0.04,6.05-4.37,10.85-9.71,10.76C181.41,616.57,177.22,611.71,177.26,605.66z"/>
	<path class="st0" d="M126.2,481.47c0.06-6.19,4.96-11.24,10.73-11.06c5.83,0.18,10.4,5.31,10.28,11.52
		c-0.12,6.04-4.85,10.89-10.57,10.85C130.76,492.74,126.14,487.74,126.2,481.47z"/>
	<path class="st0" d="M434.74,605.84c-0.03,6.05-4.34,10.85-9.68,10.81c-5.35-0.04-9.56-4.87-9.53-10.94
		c0.02-6.03,4.35-10.88,9.66-10.82C430.53,594.94,434.78,599.81,434.74,605.84z"/>
	<path class="st0" d="M485.8,481.5c0.05,6.26-4.58,11.26-10.46,11.29c-5.72,0.02-10.43-4.84-10.55-10.88
		c-0.12-6.2,4.48-11.33,10.3-11.49C480.87,470.25,485.75,475.3,485.8,481.5z"/>
	<path class="st0" d="M315.33,497.35c-6.2,4.74-15.67,3.85-21.68-1.87c-6.29-5.99-7.36-15.66-2.28-22.89
		C299.38,480.88,307.35,489.1,315.33,497.35z"/>
	<path class="st0" d="M321.89,490.3c-8.37-7.74-16.54-15.31-24.75-22.9c5.66-4.18,14.41-3.54,20.25,1.34
		C323.74,474.03,325.67,482.65,321.89,490.3z"/>
	<path class="st0" d="M285.08,677c19.5-19.94,38.97-39.87,58.47-59.82c9.17,12.39,10.57,36.73-5.76,53.42
		C320.76,687.99,296.78,685.52,285.08,677z"/>
	<path class="st0" d="M270.31,662.35c-10.16-17.04-7.61-38.78,5.89-52.93c13.23-13.86,33.99-17.33,50.99-8.21
		C308.26,621.56,289.41,641.83,270.31,662.35z"/>
</g>
</svg>
