<svg id="Capa_1" data-name="Capa 1" xmlns="http://www.w3.org/2000/svg" viewBox="0 0 545.39 661.18"><defs><style>.cls-1{fill:#a4793c;}</style></defs><title>logo_humanos2</title><path class="cls-1" d="M199.59,433.82c-2.89-11.06-5.45-22.22-8.74-33.16-4.22-14-5.76-28.47-7.54-42.88-2.85-23.14-1.54-46.42-1.62-69.63-.05-15.56,1-31.13,1.76-46.68.19-4.05,1-8.07,1.62-12.68,2.82,2.81,5.23,5,7.39,7.47.51.57.4,1.87.28,2.79-.7,5.44,3.08,9.08,8.45,8.22a6.88,6.88,0,0,1,2.88.76c.3.1.48.5.75.7,4.22,3.23,5.43,7.09,5,12.67-1.47,17.31-3.23,34.61-2.85,52.08A572.08,572.08,0,0,0,212,375c1.76,13.53,6,26.74,8.76,40.15,2.72,13,9.57,24.45,14,36.8,6.32,17.66,18,32.27,26.93,48.4,6.88,12.38,17.37,21.07,27.37,30.39,8.54,8,17.2,15.78,25.71,23.58,15.33-8.16,28.78-18.31,39.43-32a98.87,98.87,0,0,1,9.64-10.71c11.27-10.76,18.63-24.19,26.16-37.52,4.28-7.57,8.79-15,13-22.62a50.8,50.8,0,0,0,3-8C413.4,421.79,419.68,399.69,423,377c3.1-21.38,5.33-42.91,4.2-64.65-1-19.9-1.5-39.82-2.21-59.73-.11-3,5.1-7.35,8.12-6.75,6.31,1.24,9.88-2.07,9.16-8.43a2.28,2.28,0,0,1,.45-1.73c2.73-2.37,5.54-4.63,8.79-7.31.7,11.78,1,23,2.1,34.09,3.11,32-.77,63.81-1.86,95.7-.58,17-5.67,33.06-8.83,49.53-1.74,9.06-4.58,17.91-6.91,26.85q-3.4,9.21-6.79,18.41l-1.12,3.43q-4.05,11.5-8.08,23l-.18.9-.82,2.19c-4.71,7-9.67,13.87-14.07,21.07-8.32,13.6-20.14,24.3-29.85,36.7-12.45,15.9-29.65,26-45,38.37a11,11,0,0,0-1.66,2.18l0,0L325,582.18l-2,1.4h0l-1.72,1.33-.76,0c-2.4,3.75-4.77.79-7.14,0l0,0-1.45-.71.08.06-.75-.76,0,.08-2.76-2.14,0,0-2.78-2.09,0,0a83.94,83.94,0,0,0-7.27-5.83c-20.08-12.78-36.79-29.46-51.93-47.42C235.72,513.27,224.7,500,219,483.54a17.48,17.48,0,0,0-1.24-2.39c-.38-1.06-.72-2.14-1.14-3.18q-7.59-18.37-15.2-36.73l-1.8-7.29Zm187.25,58.25a6.73,6.73,0,1,0,13.41.82c.18-3.86-2.85-7.36-6.47-7.49A7,7,0,0,0,386.84,492.07Zm-19,44a7,7,0,1,0-7.15,6.81A7.11,7.11,0,0,0,367.86,536.09ZM204,371.85a6.37,6.37,0,1,0-6.24,6.37A6.24,6.24,0,0,0,204,371.85Zm237.83-63.07a6.32,6.32,0,1,0-6.48-6.11A6.17,6.17,0,0,0,441.87,308.78ZM220.31,436.54c0-3.48-2.77-6.37-5.94-6.28s-5.68,3.05-5.56,6.61c.11,3.4,2.7,6.18,5.71,6.14C217.72,443,220.35,440,220.31,436.54Zm223.68-65a6,6,0,1,0-6,6A5.8,5.8,0,0,0,444,371.51ZM200.64,304.8c0-3.87-2.3-6.67-5.44-6.61-2.95.06-5.19,2.81-5.26,6.48s2.27,6.77,5.31,6.81S200.64,308.67,200.64,304.8ZM322.8,565.66A6.15,6.15,0,0,0,317,559.6c-3.14,0-5.92,3-5.79,6.35a6.08,6.08,0,0,0,5.91,5.89A6.16,6.16,0,0,0,322.8,565.66ZM428.66,433.08c0-3.41-2.51-6.27-5.57-6.22-2.91.06-5.31,2.81-5.31,6.09s2.52,6.07,5.36,6.11S428.62,436.17,428.66,433.08Zm-185.2,55.71a5.83,5.83,0,0,0-5.71,5.35,5.76,5.76,0,0,0,5.83,5.55,5.46,5.46,0,1,0-.12-10.9Zm38.88,46.85a5.46,5.46,0,1,0-10.91.17,5.47,5.47,0,1,0,10.91-.17Z" transform="translate(-45.67 -41.56)"/><path class="cls-1" d="M239.86,127.9l0-13.55,1.94.42L247.4,118l1.22-.81c-5.48-2.93-5.66-6.69-2.2-10.49-2-.53-4-.47-4.95-1.46a7.65,7.65,0,0,1-1.42-4.8C240,86.28,240,72.08,240,57.88V54c4.9,1.22,10.76-2.83,13.92,4,1.17,2.23,2.35,4.45,3.84,7.26,2.47-2.67,4.52-4.66,6.27-6.88.57-.73.37-2.07.53-3.13l.06,0c.93-.38,1.86-1.09,2.78-1.09q60.89-.08,121.76,0a9.23,9.23,0,0,1,2.67.86l-.21,5.89a3.64,3.64,0,0,0,0,.66q.24,5.37.47,10.74.11,17.67.2,35.36c0,.44,0,.88,0,1.32l.12,5.17c0,1.39.05,2.77.08,4.16l-.14,18.38-2.07.17H352.47l-36.1-.06h.06l-38.18.06-35.35-.11c-1.48,0-3.14.34-3-2v-.62c0-1.85,0-3.71,0-5.57Zm85.36,7c-1.85-7-1.08-8,5.8-9.57,3.73-.84,7.19-2.26,8.46-6.53a34.47,34.47,0,0,1,2.24-4.71l2.47,3.45c1.64-2.52,3.76-4.51,4.27-6.85a91,91,0,0,0,2.31-16.89c.17-5.85-1.53-11.27-7-14.77-2.64-1.69-3.77-4.36-4.26-7.48a6.52,6.52,0,0,0-2.33-4.13c-4.49-2.89-9.17-5.5-13.88-8-7.53-4-12.54-3.36-19.1,2-3.58,2.93-6.61,7.08-12.17,6.24-.13,0-.31.28-.65.61,1.75,2.89.06,4.65-2.27,6.27a34.57,34.57,0,0,0-4.5,3.7A8.15,8.15,0,0,0,283,81.09c-.51,1.31-.46,3-1.26,4a11.19,11.19,0,0,0-1.2,12c1.5,3.11,1.55,6.32,2.64,9.29,1,2.8,3.23,5.22,5.1,7.65,1.17,1.51,3.33,2.5,4,4.14,2,5.35,6.73,7,11.25,9.46.07-1,.11-1.55.2-2.67,3.15,1.87,6.44,3,8.49,5.22C315.81,134.18,320.34,134.25,325.22,134.86Zm47.62-60.94c-1.53-.55-3.24-1.79-4.52-1.44s-2.44,2.16-3,3.59c-.32.86.67,2.2,1.07,3.32l.82-.39C367,74.44,367.66,73.94,372.84,73.92Z" transform="translate(-45.67 -41.56)"/><path class="cls-1" d="M336.63,185.57a12.12,12.12,0,0,0,2.15,1.6c12.32,5.5,24.45,11.5,37.05,16.26,13.1,5,26.64,8.76,40,13,9.13,2.9,18.3,5.69,27.43,8.58,1.6.5,3.13,1.25,5.79,2.33-3.05,2.64-5.54,4.94-8.23,7-.52.39-1.86-.27-2.81-.5-3.21-.78-6.21-.54-8.53,2.07-2.12,2.39-1.9,5-.25,7.64-2.43,3.37-5.25,4.08-9.59,3.15-28.23-6-54.42-17.87-81.26-27.87-4.8-1.79-9.55-3.72-14.35-5.54-1.12-.43-2.31-.67-3.54-1,.15,3.25.29,6.15.44,9.06l-2.19-.76q.06-8.53.13-17.08l1.3-1.35a8.45,8.45,0,0,0,4.56-8.54c-.28-3.88-2.22-6.67-6.34-7.62v-8c4.33,2,8.58,4,12.86,5.88a11.49,11.49,0,0,0,2.66.49l-.05-.06,1.44.72-.07,0,1.46.72ZM379,213.1A6.46,6.46,0,1,0,379.1,226a6.67,6.67,0,0,0,6.37-6.37A6.58,6.58,0,0,0,379,213.1Z" transform="translate(-45.67 -41.56)"/><path class="cls-1" d="M295.31,189.16c3.16-1.31,6.49-2.31,9.43-4,3.76-2.16,7.19-4.86,10.78-7.31.15-.11.42-.06,1.05-.13a69.45,69.45,0,0,1-.08,7.08,4.93,4.93,0,0,1-1.63,2.66c-3.5,3.33-4.22,9.56-.68,12.63,2.39,2.08,2.65,4.2,2.53,6.85-.06,1.25,0,2.51,0,4.29-8.75,3.56-17.69,7-26.44,10.8-25.18,11.07-51.68,18.19-77.75,26.63-3.28,1.06-4.61-1.29-6.33-2.82-.63-.57-.5-2.31-.3-3.44.5-2.94,0-5.48-2.32-7.48s-4.74-1.92-8-.41l-9.42-9c12.8-2.55,25.52-4.68,38-7.73,7.24-1.78,14.19-4.89,21.16-7.68,15.92-6.34,31.77-12.85,47.62-19.34a13,13,0,0,0,2.47-1.7Zm-32.05,24c-3.88-.08-7.08,2.7-7.18,6.26a6.73,6.73,0,0,0,6.81,6.64c3.78.1,7.11-2.81,7.2-6.28A6.69,6.69,0,0,0,263.26,213.11Z" transform="translate(-45.67 -41.56)"/><path class="cls-1" d="M318.75,220.56l2.19.76q39.66,13.71,79.32,27.4c4.2,1.45,8.48,2.66,12.65,4.18,2.71,1,5,1.18,6.92-1.42a19,19,0,0,1,3-2.66l.73.62a37.58,37.58,0,0,1-3.05,3.69,6.8,6.8,0,0,0-2.21,5.73c.78,21.74,1.65,43.49,2,65.24a206.08,206.08,0,0,1-1.87,26.7c-.29,2.41-2.67,4.58-4.29,7.17,3,2.28,2.85,5.63,2.75,9.44-.42,16.3-7.16,31.08-10.63,46.63-3.82,17.12-10.82,33-18.66,48.52-6.36,12.58-15.15,23.65-24,34.6C357,505.23,351,513.82,342.2,519.78l-.11-1.67c3.21-3.08,6.86-5.81,9.56-9.29C360,498.06,368,487.06,375.94,476a6.81,6.81,0,0,0,.59-4.94c-.93-4-2.37-7.85-3.48-11.8-.91-3.21.18-5.18,3.79-6.85-3.67,6.9.67,12.26,2.69,18.79,2-3.19,4.05-5.62,5.24-8.4,5-11.65,10.21-23.24,14.46-35.16,6.45-18.07,12.51-36.31,14.81-55.52.56-4.7,1.95-9.48-1.9-13.63-.4-.43,0-2.05.55-2.8,1.07-1.59,3.33-2.86,3.52-4.45.82-6.83,1.07-13.73,1.54-20.76l-3.36,1.65c1.16-3,3.36-6,3.28-9-.6-21.52-1.69-43-2.53-64.54-.07-1.71-.76-2.31-2.21-2.81Q367.48,240.06,322,224.28a5.85,5.85,0,0,0-3.55-.18c-4.65,1.58-9.28,3.24-13.81,5.14-16.83,7.06-33.34,14.9-51.14,19.51-10.67,2.77-21.16,6.2-31.87,9.37-.15,20.2-1.54,40.15-.09,60.84,7.94-4.92,15.81-6.93,24.57-4-9.37-1-16.8,3.58-24.35,7.9a20.21,20.21,0,0,0,0,2.06c2.57,23.56,5.13,47.13,7.82,70.68.15,1.26,1.49,2.39,1.77,2.81l13.23-7.29-.08-.06c-1.79,2.24-3.36,4.7-5.43,6.63-1.9,1.78-2.87,3.43-2.61,6.15.22,2.41.3,5.38-.9,7.23A4.65,4.65,0,0,0,235,416c7.07,17.8,13.71,35.8,21.42,53.32,2.85,6.47,6.76,13.11,13.67,16.64a8.74,8.74,0,0,1,4.79,6.57c.43,1.95.74,4.31,2,5.64,11.73,12.3,22.63,25.51,37.78,34.1,6.06,3.44,5.84,3.83,11.5-.36l.85-.69,1.85-1.53,1,.61-9.8,9.25c-11.65-7.5-22.85-15.46-32.23-25.79-4.3-4.74-9.13-9-13.52-13.66a8.43,8.43,0,0,1-2.13-4.69,9.14,9.14,0,0,0-4.51-7.55,24.63,24.63,0,0,1-5-4.53c-10.07-11.42-14-26-20.05-39.47-4-8.94-7.4-18.15-11.19-27.19-.28-.67-1.48-1-2.28-1.4-1.57-.82-3.16-1.6-4.74-2.39l.49-1,5.69,1.48L227.53,401l-4.77,9.36-1.18-.53c1.4-3.71,2.85-7.4,4.17-11.13a8.73,8.73,0,0,0,.61-3.61q-3.3-33.66-6.72-67.31a41.24,41.24,0,0,0-.71-6.12,4.16,4.16,0,0,0-2.24-2.54,3.26,3.26,0,0,0-2.76,1.12c-1.66,2-3,4.27-4.51,6.43l-.87-.28c.53-1.58.6-3.69,1.68-4.63,5.65-4.91,4.23-11.14,3.45-17.16-.33-2.6-2.45-3.16-4.88-2.24l-.71-.77c.75-.76,1.36-1.92,2.26-2.2a4.12,4.12,0,0,1,5.35,3.19c.54,3.62.89,7.26,1.37,10.89.13,1,.43,2,.65,3l1.08-.13c0-2.93,0-5.87,0-8.8.13-15.35.2-30.69.5-46,.06-3-.68-5.2-3.19-6.92a13.68,13.68,0,0,1-4.24-4.63,59.16,59.16,0,0,0,7,3.81,10.26,10.26,0,0,0,5.67.72c29.56-7,57.44-18.8,85.54-30C313,223.31,315.85,221.87,318.75,220.56Zm-86.1,188.38c1.63-4.91,1-6.61-2.65-8.16Z" transform="translate(-45.67 -41.56)"/><path class="cls-1" d="M143.62,516.18c4.47.27,6.65-2.34,8.94-4.38,13.05-11.66,26-23.42,39-35.16,5.4-4.89,10.78-9.8,16.27-14.79-1.13-1.87-2.1-3.48-3.26-5.42C182,474,163.53,495.27,143.62,516.18Z" transform="translate(-45.67 -41.56)"/><path class="cls-1" d="M278.46,677.58,354,676.52c-6.84,16.16-16.41,24.68-33.13,26.07C301.93,704.18,282.39,693.06,278.46,677.58Z" transform="translate(-45.67 -41.56)"/><path class="cls-1" d="M283.05,650.19l4-.5,1.49-.2,3.35-.34,14.51-.38,19.94-.54,1.38-.09h4.82l4.92.24c3.76.13,7.52.21,11.27.45.87.06,2.22.48,2.47,1.08,2,5,3.85,10.12,5.88,15.56a28.93,28.93,0,0,1-3.43.45q-37.35.52-74.71,1c-3.71.05-5.27-2.18-3.82-5.55,1.26-2.92,2.44-5.89,3.89-8.72.49-.95,1.68-1.53,2.55-2.28Z" transform="translate(-45.67 -41.56)"/><path class="cls-1" d="M199.58,441.41c3,4.9,1.26,8.13-2.69,12-21,20.57-41.95,41.23-61.16,63.54a52.77,52.77,0,0,0-5.62,7.75c-7.63,13.13-20,21.86-30.16,32.65-.5.54-1.62.5-2.45.73A462.13,462.13,0,0,1,138.41,502c17.35-20.42,36.55-39,55.35-58a6,6,0,0,0,.6-.8l2-2C197.48,440.87,198.65,438.36,199.58,441.41Z" transform="translate(-45.67 -41.56)"/><path class="cls-1" d="M526.39,544.39c-2.19-2.17-4.31-4.42-6.58-6.5-4.84-4.42-9.18-9.17-12.15-15.14-1-2.09-2.92-3.79-4.59-5.5q-33.74-34.71-67.46-69.44a5.22,5.22,0,0,1-1-4.06,48.9,48.9,0,0,1,2.42-7c15.66,15.68,31.74,31,46.87,47.13A433.19,433.19,0,0,1,533,546.63c1.16,1.82,2.46,3.54,3.69,5.31l-.08,1.35-2.5-1.43-1.69-1.68-1.92-.31h0c-.57-1.1-1.15-2.19-1.73-3.28l-1.4,1.24-1-1,1.67-.16c-.1-.38-.12-1-.32-1.08a3.29,3.29,0,0,0-1.32.17h0C526.38,545.3,526.38,544.84,526.39,544.39Z" transform="translate(-45.67 -41.56)"/><path class="cls-1" d="M526.35,546.82l1,1,3.13,2h0l.69,1.32,2.58,2.47,2.3,2.4c0,.51,0,1,0,1.54-16.88-10.45-34.09-20.41-50.56-31.48-14-9.42-27.15-20.13-40.69-30.25-6.68-5-13.39-9.93-20.08-14.89l-1.25-1c0-.2-.14-.27-.33-.22-.09-1.05-.5-2.2-.22-3.14.9-2.91,2.06-5.74,3.21-8.86,4.51,7.81,12,11.86,18.37,17.15,19.72,16.46,39.2,33.39,61.57,46.17,6.72,3.84,12.16,8.71,18,13.41l2.37,1.23h0Z" transform="translate(-45.67 -41.56)"/><path class="cls-1" d="M549.77,117.57c-1.92-6.22,2.62-16.08,9.42-20.47,13.22-8.53,30.43.49,31.77,16.64.95,11.33-5.65,21.18-15.84,23.94a4.28,4.28,0,0,1-4.82-1.3c-4.59-4.78-9.29-9.46-14-14.07a11.06,11.06,0,0,0-3.06-1.51v-.14l-.74-1.09.08.06-1.48-.72.09.07c-.26-.26-.51-.52-.77-.77l.08.08-.75-.77Zm31.1-2.58c0-6.09-4.58-11-10.26-11.12S560,109,560.06,115.1a10.85,10.85,0,0,0,10.67,11.09C576.33,126.17,580.89,121.13,580.87,115Z" transform="translate(-45.67 -41.56)"/><path class="cls-1" d="M71.35,129.24A39.56,39.56,0,0,0,67,133.78c-1.68,2.38-3.57,2.48-6.12,1.72C49.21,132,42.74,118.55,47,106.3,51,94.56,63.22,88.78,74.28,93.37a21.62,21.62,0,0,1,12.91,21.48l-1.41,2.06,0-.06c-.71.23-1.62.24-2.12.7C79.55,121.4,75.46,125.33,71.35,129.24Zm5.37-16.15c.07-5.88-4.65-11-10.27-11.25s-10.7,5-10.76,11.1,4.81,11.23,10.62,11.22C71.89,124.16,76.65,119.1,76.72,113.09Z" transform="translate(-45.67 -41.56)"/><path class="cls-1" d="M107,556.6l-3.14.31c4.78-4.52,9-8.52,13.25-12.55a60.21,60.21,0,0,1,15.63-11.3c7.11-3.42,13.41-8.68,19.67-13.64,19.17-15.19,38.15-30.62,57.22-45.94.51-.42,1.09-.75,2-1.32.84,2.92,1.62,5.63,2.39,8.33-24.21,18.24-48.22,36.77-72.73,54.6C130.4,543,118.49,549.48,107,556.6Z" transform="translate(-45.67 -41.56)"/><path class="cls-1" d="M157.27,175.34c9.65-5.34,19.09-11.14,29-15.85,6.53-3.09,13.8-4.61,20.77-6.76.18-.06.61.65.92,1-2.14,2.33-3.6,4.91-7.38,5.88-20.75,5.34-38,16.62-52.36,32.43-11.2,12.34-18,27.07-22.87,42.81-1.2,3.83-3.07,7.45-4.63,11.18l-4.5,4-1.11-.45c2.44-8.73,4.29-17.7,7.51-26.14,3-8,7.52-15.37,11.35-23,.5-1,.89-2.07,1.33-3.1l-.07.05.73-.68q9.76-9.57,19.5-19.16c.33-.32.29-1,.42-1.53l0,0,1.43-.71Z" transform="translate(-45.67 -41.56)"/><path class="cls-1" d="M237.73,134.68c-2.11-2.56-4-5.28-6.36-7.63a11.8,11.8,0,0,1-3.46-9.49c.59-17,.89-34.1,1.15-51.15,0-2.68.75-4.5,3.06-5.93s4.19-3.09,6.92-5.14v73.21l0,5.51v.65Z" transform="translate(-45.67 -41.56)"/><path class="cls-1" d="M428.81,156c1.43-.08,2.94-.48,4.28-.18,16.86,3.85,31.85,11.7,45.91,21.53,1.13,1.13,2.26,2.24,3.37,3.38q9.83,10,19.64,20.09c2.92,5.82,5.73,11.69,8.78,17.44,5.26,9.91,7.87,20.61,9.72,31.54,0,.3,2,2.66-.94,1.77-2.2-2.82-5.49-5.33-6.39-8.52-2.72-9.62-5.86-19.08-10.63-27.81a167.22,167.22,0,0,0-13.35-20.17c-2.6-3.44-6.61-5.78-9.53-9-10.95-12.19-25.5-18.24-40.34-23.63C435.24,160.9,431,160.26,428.81,156Z" transform="translate(-45.67 -41.56)"/><path class="cls-1" d="M315.76,675.73c-12.25,0-24.49-.1-36.73.09-2.5,0-3.46-1.17-3.64-3s1-2.84,3.18-2.93c24.46-1,48.91-2.62,73.41-.85.57,0,1.27-.09,1.68.19a37,37,0,0,1,3,2.47c-1.05,1-2,2.78-3.16,2.93a76.8,76.8,0,0,1-9.6.12H315.76Z" transform="translate(-45.67 -41.56)"/><path class="cls-1" d="M392.3,109c0-.44,0-.88,0-1.32.46-.75,1.33-1.51,1.32-2.26-.13-11.05-.39-22.11-.61-33.17,0-3.15.07-6.3,0-9.44,0-.43-.88-.82-1.35-1.23a3.64,3.64,0,0,1,0-.66c.46-.16,1.28-.27,1.31-.49A28.6,28.6,0,0,0,393,57c2.94,2.79,6,5.53,8.78,8.43a4.6,4.6,0,0,1,.76,2.84c.33,12.67.71,25.33.78,38,0,1.89-1.53,3.79-2.35,5.69l-6.06,6.11-.83-.69-.36-3.3a43.39,43.39,0,0,0,0-4.42C393.67,109.41,392.79,109.2,392.3,109Z" transform="translate(-45.67 -41.56)"/><path class="cls-1" d="M287.16,152h57.6c.15.93.32,1.7.41,2.49.51,4.16-1.26,6.18-5.47,6.19-16,0-32,0-48,.05-2.88,0-4.26-1.05-4.26-4C287.42,155.27,287.27,153.8,287.16,152Z" transform="translate(-45.67 -41.56)"/><path class="cls-1" d="M343.79,141.53l1,2.53.67-.27a2.14,2.14,0,0,1-.06.63c-2,4.48-5.1,6.19-10.34,6-12.89-.5-25.8-.16-38.71-.17-6.93,0-6.93,0-10.8-6.36l4.37-1.16-.38-1.19c5.35,0,10.71-.07,16.06,0,7.39.12,14.77.48,22.16.51C333.14,142.08,338.46,141.72,343.79,141.53Z" transform="translate(-45.67 -41.56)"/><path class="cls-1" d="M455.56,255.56c-1.05-5.91-1.88-10.63,2.84-14.77,3.84-3.36,7-7.5,10.33-11.43,6-7.11,13.55-9.66,22.6-8.14,3.06.51,5.51,1.71,6.4,5.14.64,2.5,1.8,4.86,2.21,7.76-1.49-1.08-3-2.16-4.47-3.25a11.4,11.4,0,0,0-13.66-.07,126.55,126.55,0,0,0-24.44,22.41C456.88,253.8,456.44,254.43,455.56,255.56Z" transform="translate(-45.67 -41.56)"/><path class="cls-1" d="M320.45,584.94l.76,0,1.65.85c.45.52,1.28,1,1.29,1.55.06,19.69.05,39.38.05,59.49l-6.71.29c0-7.06,0-13.79,0-20.51-.07-11.57-.12-23.13-.32-34.69,0-2.25.48-3.6,2.69-4.46C321.75,586.7,321.66,586.48,320.45,584.94Z" transform="translate(-45.67 -41.56)"/><path class="cls-1" d="M142.25,220c8.32-2.65,17-1.45,23.76,5.29,3.86,3.88,7.16,8.33,11.06,12.16,2.85,2.8,4.2,5.75,3.51,9.68-.24,1.32-.21,2.68-.36,4.78-2.9-3.07-5.17-5.85-7.82-8.2-6-5.28-12-10.49-18.26-15.44-3.31-2.62-9.11-2.2-12.48.29-1.47,1.08-2.89,2.23-4.33,3.34l-.62-.13C138,227.6,138.4,223,142.25,220Z" transform="translate(-45.67 -41.56)"/><path class="cls-1" d="M205.79,163.66c0,3.42-.27,6.89.16,10.26.5,4-1,6-5,6.52-.53-3.65-1.07-7.31-1.65-11.22-13.43,3.41-24,11-32.95,20.65l-6.22-2.74c-1.5-.24-2-.7-.77-2.1,2.95-3.45,5.67-7,10-9,8.55-4,16.85-8.56,25.42-12.52,3.18-1.47,6.82-1.94,10.36-2.89Z" transform="translate(-45.67 -41.56)"/><path class="cls-1" d="M448.69,175.39l-11.19-4.45c-.63,4.12-1.2,7.86-1.84,12l-4.93-2.84V163.54c11.35-1.14,43.67,16.43,47.17,25l-3.9,1.83c-2.59,1.87-4.37.91-6.53-1.16C464,185.85,460,183,456.29,180Z" transform="translate(-45.67 -41.56)"/><path class="cls-1" d="M179.2,180.44l10.6-6.11c-.48,2.19-.78,3.87-1.22,5.5A16.62,16.62,0,0,0,191.94,195c4.57,5.69,9.73,10.9,14.68,16.29,2.13,2.31,4.36,4.55,6.51,6.79-.09.17-.12.33-.18.35-9.35,2.29-9.12,2.06-16-4.75-6.66-6.55-11.35-14.35-15.45-22.51C179.89,188.06,179.92,184.13,179.2,180.44Z" transform="translate(-45.67 -41.56)"/><path class="cls-1" d="M308.5,581.46c-.17.33-.48.67-.49,1q-.92,31.53-1.8,63c0,.9-.23,1.79-.35,2.69l-4.95-.27V624.8q.51-23,1-46.06l3.85.69,0,0,2.78,2.09Z" transform="translate(-45.67 -41.56)"/><path class="cls-1" d="M313.31,584.9c3.14,19.36,1.32,38.9,2.15,58.35.05,1.22,0,2.45,0,3.91h-6.58c0-7.75-.06-15.49,0-23.22.1-12.69.3-25.38.43-38.07,0-1.38-.11-2.71,1.94-2.27l0-.08.75.76-.08-.06,1.45.71Z" transform="translate(-45.67 -41.56)"/><path class="cls-1" d="M455.25,180.91a4,4,0,0,1,1.81,4.21,34,34,0,0,1-4,12.49,90,90,0,0,1-15.72,20.53c-2.12,2.1-4,3-6.78,1.23-1.22-.79-2.71-1.14-5.39-2.22a74.45,74.45,0,0,0,6.54-5.45c4.24-4.44,8.47-8.93,12.34-13.69,4.61-5.67,6.14-12.07,3.24-19.15-.22-.53.41-1.41.64-2.13Z" transform="translate(-45.67 -41.56)"/><path class="cls-1" d="M291.24,49c4.27-5.86,10.55-6.41,16.18-6.93,11.45-1.06,23.07-1.42,33.17,6.93Z" transform="translate(-45.67 -41.56)"/><path class="cls-1" d="M487,202.2c.38-1.19.76-2.37,1.35-4.18C500.56,211.49,506.83,227.37,511,245l-7.18-1.19c-1.38-7.61-1.92-15.55-6.26-22.2a77.69,77.69,0,0,0-9.66-11.49C485.37,207.48,484.82,205.12,487,202.2Z" transform="translate(-45.67 -41.56)"/><path class="cls-1" d="M132.54,242l-6.86.85c4.11-17.42,10.52-33.19,22.86-47.08.93,3.71,1.7,6.71,2.46,9.72l-9.6,10.91C136.92,221,135.6,227,134.64,233Z" transform="translate(-45.67 -41.56)"/><path class="cls-1" d="M332.7,640.67V646h-5.56V628.94l0-1.4q-.3-12.36-.61-24.71l-.09-2.78-.18-11.29c-.05-2.89-.61-5.92,2.22-8l0,0,2.74.22v16.31Q331.93,619,332.7,640.67Z" transform="translate(-45.67 -41.56)"/><path class="cls-1" d="M553.2,120.66v.14c1.59,2,3.08,4,4.77,5.88,3,3.27,6,6.51,9.16,9.6,1.65,1.61,1,2.79-.28,3.94-2.79,2.39-5.86,2.35-8.86,0-4-4.23-8.1-8.47-12.19-12.65-.33-.34-1-.3-1.55-.44l0,0,0-.77-.76,0,.05,0-.63-1.57c-1.94-2.14-1.63-4.32.1-6.33a4,4,0,0,1,5.69-.76c.2.13.67-.16,1-.26l-.06,0,.75.77-.08-.08c.26.25.51.51.77.77l-.09-.07,1.48.72-.08-.06Z" transform="translate(-45.67 -41.56)"/><path class="cls-1" d="M295.13,648.08c.36-11.07.78-22.13,1.05-33.19.22-8.92.28-17.84.37-26.76,0-4.44,0-8.87,0-13.47,2.87.82,3.56,2.39,3.51,4.92-.27,15.11-.36,30.21-.51,45.32v23.18Z" transform="translate(-45.67 -41.56)"/><path class="cls-1" d="M88,115.57c4.79-1.42,7.08.68,6.72,6.17L77.43,139.5c-3.94,1.11-7.07.05-9.35-3.7l5.37-5.69,12.38-13.26,0,.06Z" transform="translate(-45.67 -41.56)"/><path class="cls-1" d="M474.81,191.7c3-1.57,6-2.38,9.09,0,3.77,2.92,3.18,6.59,1.85,10.4-2.14,3.16-4.49,5.92-8.65,6.55-3.38.52-6.07-.39-8.11-3.05-1.44-1.88-.59-7.35,1.58-9.92A46.83,46.83,0,0,1,474.81,191.7Z" transform="translate(-45.67 -41.56)"/><path class="cls-1" d="M154.8,204.71c-1.59-2.67-3.75-5.17-4.64-8.06-1.32-4.33,2.28-8.32,6.78-8.29l3.07,0h0l1.33.83c5.42,3.52,7.85,8.44,7,14.91l0-.05c-.36,0-.82-.13-1.05,0C162.69,207.52,159.76,207.67,154.8,204.71Z" transform="translate(-45.67 -41.56)"/><path class="cls-1" d="M343.79,141.53c-5.33.19-10.65.55-16,.53-7.39,0-14.77-.39-22.16-.51-5.35-.09-10.71,0-16.06,0-3.69.51-7.1.25-9.3-3.35,11.09,0,22.18,0,33.27-.08,1,0,1.91-.87,2.87-1.33h-.06c.77.46,1.54,1.32,2.32,1.33,9.83.09,19.67,0,29.5.1a13,13,0,0,1,3,.7C348.76,139.9,347,142.71,343.79,141.53Z" transform="translate(-45.67 -41.56)"/><path class="cls-1" d="M332.47,597.37c-.16-5.14-.21-10.28-.53-15.41-.15-2.37.69-3.66,3.28-4.31-.15,1.76-.27,3.37-.44,5-1.31,12.61.33,25,2.35,37.44,1.37,8.48,1.1,17.22,1.58,26H334.2c-.11-1.89-.21-3.68-.31-5.48Q333.19,619,332.47,597.37Z" transform="translate(-45.67 -41.56)"/><path class="cls-1" d="M121.53,247.44c2.61-4.17,7.32-2.87,11-4.22L143.82,242c-1.77,3.51-3.29,6.66-5,9.73a2.6,2.6,0,0,1-1.82,1.12c-6.91.44-13.82.79-21,1.17Z" transform="translate(-45.67 -41.56)"/><path class="cls-1" d="M505.73,245.48c5.69-.12,9.14,3.5,12.41,7.43l2.34,3.09c-7.25-.39-14-.71-20.8-1.17a3,3,0,0,1-2-1.43c-1.56-2.88-2.94-5.87-4.67-9.37Z" transform="translate(-45.67 -41.56)"/><path class="cls-1" d="M317.41,165h-6.85l-11.88,0h-1l-3.6,0-4.39-1.71.37-1.07h52.19L338.74,165Z" transform="translate(-45.67 -41.56)"/><path class="cls-1" d="M284.44,52.92c-.45-2.51,1.28-2.44,2.91-2.45q10.14,0,20.26,0c12.25,0,24.5,0,36.75.09,1.47,0,2.93.81,4.4,1.25l-.23.95-2.23.3H285.13Z" transform="translate(-45.67 -41.56)"/><path class="cls-1" d="M126.11,154c2-1.54,2.85.65,4.16,1.34a29.74,29.74,0,0,1-1.59,2.88c-3.09,4.41-6.24,8.78-9.37,13.17L116,175.4l-6.25-7L126,154Z" transform="translate(-45.67 -41.56)"/><path class="cls-1" d="M125.62,183.52l-3.94-3.63.35-.26-5.1-3,4.45-3.2L132,167.35l.84,1-7.33,6.82L124,176.79l.61.63,1.73-1.4,12.42-12.13,2.62,1.34c-1.32,2.21-2.44,4.08-3.55,6-.28.22-.58.43-.87.65l-1.82,1.2Z" transform="translate(-45.67 -41.56)"/><path class="cls-1" d="M506.3,158.13l3.56-2.68,17.15,15-6.09,6.58a28.29,28.29,0,0,1-2.28-2.37C514.5,169.2,510.41,163.66,506.3,158.13Z" transform="translate(-45.67 -41.56)"/><path class="cls-1" d="M150.69,172.71q4.53-1.78,6.58,2.63l0-.05-1.43.71,0,0c-8.57,4.9-14.82,12.2-20.61,20l0,1.41.07-.05-2.82.21c-.19-1.82-.38-3.67-.57-5.51Z" transform="translate(-45.67 -41.56)"/><path class="cls-1" d="M402.11,112.14c.5.43,1.41.83,1.44,1.29.21,3.19.31,6.4.27,9.59a4.87,4.87,0,0,1-1,2.78c-2.64,3.28-5.4,6.45-8.82,10.49v-18l-.07,0,1.1.57C398.83,118.11,400.55,115.21,402.11,112.14Z" transform="translate(-45.67 -41.56)"/><path class="cls-1" d="M480.37,177.34c.36-2.65,2.13-3.63,5-2.57a13.65,13.65,0,0,1,2.76,1.86l.06.06,14.66,15.15c2.47,3.23,2.5,5.58.13,7.81C496.49,191.15,489.48,183.19,480.37,177.34Z" transform="translate(-45.67 -41.56)"/><path class="cls-1" d="M168.32,204.11a22.91,22.91,0,0,1,2.84,2.1c5.57,5.59,11.08,11.22,16.76,17l-3.64,2.53-18.85-17.31,2.93-4.36Z" transform="translate(-45.67 -41.56)"/><path class="cls-1" d="M467.46,206.48l3.56,4.17-18.48,17.06-3.62-2.31Z" transform="translate(-45.67 -41.56)"/><path class="cls-1" d="M287.19,648.15l-2.86-.3c3-8.43,5.87-16.64,8.61-24.43v24.63l-1,.15-3.43,0Z" transform="translate(-45.67 -41.56)"/><path class="cls-1" d="M206.66,163.62a11.34,11.34,0,0,1,2.73-9l2.13-2.56c.29,7.14.89,13.72.64,20.27-.07,1.86-2.59,3.64-4.59,6.25C207.22,172.87,206.94,168.25,206.66,163.62Z" transform="translate(-45.67 -41.56)"/><path class="cls-1" d="M555.18,143.68l-7.1,6.89c-1.5-2.31-3-4.62-4.53-6.93l0,0L539,133.33a28.67,28.67,0,0,1,3.54,1.67c3.79,2.44,7.52,5,11.28,7.48Z" transform="translate(-45.67 -41.56)"/><path class="cls-1" d="M427.44,156.73c3,3.23,2.77,7.13,2.47,11.12s-.31,7.71-.45,11.57c-3.17-1.37-5.28-3.19-5-7.22.33-5.78.08-11.59.08-17.38l1.08-.2Z" transform="translate(-45.67 -41.56)"/><path class="cls-1" d="M497.88,171.77c-.8-1.36-1.6-2.71-2.77-4.67l3.07-.69,3.05,2.85c1.72,1.74,3.41,3.52,5.22,5.17.21.19,1.06-.33,1.61-.52l.42,1c.21.66.41,1.32.62,2l1.84-.26,1,1-.21,1.08H513c.11.2.17.29.18.26l1.15,4.57-3.79,2-1.84-2.68-9.15-10Z" transform="translate(-45.67 -41.56)"/><path class="cls-1" d="M541.45,145.75a24.51,24.51,0,0,0,2,2.08c4,3.36,3.93,4.53-.56,7.48q-6.37-6.9-12.73-13.81l-3.15-3,.18-1.09a12.56,12.56,0,0,1,3.42.6,46.31,46.31,0,0,1,4.69,3l0,0,3.87,2.05c.09.35.17.7.26,1.05l1.42,1-.06-.06.74.75Z" transform="translate(-45.67 -41.56)"/><path class="cls-1" d="M95.41,131.93c2.45,0,1.15,1.31.73,2.17-2.36,4.79-4.76,9.57-7.44,14.92l-7.1-7.42Z" transform="translate(-45.67 -41.56)"/><path class="cls-1" d="M99.5,159.17c0-.88-.3-2,.13-2.59,1.43-1.89,3.13-3.58,4.72-5.35l7.72-8.33,1.84-2.39,4.85,5.17Z" transform="translate(-45.67 -41.56)"/><path class="cls-1" d="M518,147.82l4.33-5,3.26,3.09,12.5,13.54c-.23,2.21-1.25,1.6-2.45.74-2.14-1.52-4.32-3-6.48-4.46Z" transform="translate(-45.67 -41.56)"/><path class="cls-1" d="M101.67,139.17c1.34-1,2.62-2.09,4-2.94a8.26,8.26,0,0,1,2.54-.54l-.47,2.49L94,153.25l-4.43-3.13,4.3-4.91Z" transform="translate(-45.67 -41.56)"/><path class="cls-1" d="M126.11,154,126,154c-.85.12-1.94-.06-2.51.41-4,3.26-7.79,6.66-11.7,10a25.48,25.48,0,0,1-2.18,1.5l-.46-.53q3.42-6,6.83-12.08l3.51-6c2.82.12,6,3.3,6,6C125.51,153.5,125.9,153.73,126.11,154Z" transform="translate(-45.67 -41.56)"/><path class="cls-1" d="M510.59,154l6.19-5.14c3.26,5.57,6.55,11.13,9.77,16.72a7.86,7.86,0,0,1,.53,2.21Z" transform="translate(-45.67 -41.56)"/><path class="cls-1" d="M338.64,166.52c-.17,5.7-.3,11.39-.58,17.09,0,.67-.93,1.31-1.43,2l.07.08-1.46-.72.07,0-1.44-.72.05.06q-.36-7.94-.73-15.88C333.91,164.66,336.79,167.05,338.64,166.52Z" transform="translate(-45.67 -41.56)"/><path class="cls-1" d="M132.9,167.18l-.38.22c.07.07.16.21.21.2a2.58,2.58,0,0,0,.41-.2Z" transform="translate(-45.67 -41.56)"/><path class="cls-1" d="M298.06,169.75c0,3.76-.08,7.52.11,11.26.16,3.17.23,6.17-2.86,8.15l.07-.07c-.48-.7-1.37-1.41-1.37-2.12-.05-6.83,0-13.67.1-20.51l3.38-.11.55,2.81A.36.36,0,0,0,298.06,169.75Z" transform="translate(-45.67 -41.56)"/><path class="cls-1" d="M303.18,169.84c.11,3.31-.05,6.66.39,9.93s-1.15,4.75-4.62,6.07V169.77l0-.64.18-2.44,3.72-.21C303,167.89,303.08,168.86,303.18,169.84Z" transform="translate(-45.67 -41.56)"/><path class="cls-1" d="M527.87,156.9,536.1,163l-7,4.65-7.81-14.22.55-.34Z" transform="translate(-45.67 -41.56)"/><path class="cls-1" d="M497.88,171.77l1.69,1.07c0,.76-.24,1.79.15,2.23,2.75,3.11,5.63,6.11,8.63,9.3.16-.66.27-1.09.37-1.52.62.89,1.23,1.79,1.84,2.68-.56,1.08-1.11,2.17-1.86,3.6-5.41-6.17-10.43-11.86-15.38-17.61-.39-.46-.3-1.32-.43-2a7.62,7.62,0,0,1,2,.38A34.36,34.36,0,0,1,497.88,171.77Z" transform="translate(-45.67 -41.56)"/><path class="cls-1" d="M131.16,189.69c-1.19-.82-1.76-1.52-.4-2.91,5.26-5.42,10.39-10.95,15.7-16.59l2.22,1.62a5.08,5.08,0,0,1-.74,1.45Q139.59,181.5,131.16,189.69Z" transform="translate(-45.67 -41.56)"/><path class="cls-1" d="M107.15,165.93l-5.7-5.78L115,150.83a3.47,3.47,0,0,0,.4.46l-.2,1.08Q111.18,159.15,107.15,165.93Z" transform="translate(-45.67 -41.56)"/><path class="cls-1" d="M505,158.94l9.22,13.25-.53.58-9.81-5.59h0L502,166l-.09-.05-1.2-.73-.23-.11-.77-.38Z" transform="translate(-45.67 -41.56)"/><path class="cls-1" d="M538.17,130.46c-.22-.38-.66-1.09-.64-1.1,1.74-1.16,3.51-2.26,5.28-3.37l.78.5-.05,0c.24.25.49.49.74.73l0,0a13.65,13.65,0,0,0,1.3,2.15c2.85,3.23,5.77,6.39,8.6,9.63.45.53,2.52,1.69-.27,1.94l-13.78-9.49-1.94-.93Z" transform="translate(-45.67 -41.56)"/><path class="cls-1" d="M488.19,176.69l-.06-.06c.66-1.41-1.45-4.25,2.46-4.07l17.08,18.14-3.24.37c-4.81-4.86-9.61-9.72-14.45-14.56C489.17,175.71,489.1,175.77,488.19,176.69Z" transform="translate(-45.67 -41.56)"/><path class="cls-1" d="M137.42,162.25,123,170.57l-.37-.37,9.24-13Z" transform="translate(-45.67 -41.56)"/><path class="cls-1" d="M137,171.84c.29-.22.59-.43.87-.65,1.29-1.05,2.53-2.18,3.9-3.12a8.19,8.19,0,0,1,2.28-.69l.42,1L128.11,187l-1.75-2.69L136,173.94Z" transform="translate(-45.67 -41.56)"/><path class="cls-1" d="M539.4,144.05c-.09-.35-.17-.7-.26-1.05L535.27,141l0,0c0-.48.26-1.19,0-1.42-1.34-1.32-2.79-2.54-4.53-4.08l5.22-4.26,1.89,3.07c1.43,3,2.83,5.93,4.33,8.86.16.32.88.34,1.34.51l0,0-2.1,2.11,0,0,.06-.78-.8,0,.06.06Z" transform="translate(-45.67 -41.56)"/><path class="cls-1" d="M95.42,130l-13.07,8.68-.69-.89,13.08-14.07,4.07,3.46Z" transform="translate(-45.67 -41.56)"/><path class="cls-1" d="M541.75,156.08l-2.27,2q-6.35-6.59-12.71-13.16l-2.45-2.81c1.48-2.21,1.48-2.21,4.11.19Z" transform="translate(-45.67 -41.56)"/><path class="cls-1" d="M103.56,149.52l-6.9,7.32-1.86-2.73L109.41,139l2.26-.31.21,2.18Z" transform="translate(-45.67 -41.56)"/><path class="cls-1" d="M331.36,166.48v15.45c-2.16-.16-3.43-1.49-3.78-3.84V166.48Z" transform="translate(-45.67 -41.56)"/><path class="cls-1" d="M94,142.32,100.71,129l5.11,4.47-4.23,4.05Z" transform="translate(-45.67 -41.56)"/><path class="cls-1" d="M327,178.15c-.5.35-1.33,1.09-1.45,1-1.31-1.15-3.31-2.26-3.6-3.69-.56-2.81-.16-5.81-.16-8.73l4.24-.3C326.37,170.59,326.69,174.37,327,178.15Z" transform="translate(-45.67 -41.56)"/><path class="cls-1" d="M508.06,173.91l-4.24-3.79c.19-.32.38-.63.56-1l14.79,8.88c-.95,1.16-1.89,2.33-2.92,3.6l-3-2.65s-.07-.06-.18-.26l-1.1-1.09-1-1-1.59-1.24-.87-.48Z" transform="translate(-45.67 -41.56)"/><path class="cls-1" d="M346,646.07h-5.66v-13l.42-.18Z" transform="translate(-45.67 -41.56)"/><path class="cls-1" d="M310.53,166.4a106.06,106.06,0,0,1,.13,10.84c-.09,1-1.89,1.93-2.91,2.89V166.56Z" transform="translate(-45.67 -41.56)"/><path class="cls-1" d="M315.91,166.58a41.31,41.31,0,0,0,.15,5.46c.47,3.07-.92,4.61-4,5.45V166.6Z" transform="translate(-45.67 -41.56)"/><path class="cls-1" d="M307.19,180.13l-1.73,2.2-1.17-.24V169.81c.31-1.19.63-2.38.94-3.57l1.06.29Z" transform="translate(-45.67 -41.56)"/><path class="cls-1" d="M264.56,55.17c-.52.12-1.26.06-1.53.38-1.54,1.84-3,3.77-4.62,5.93l-2.76-4.42-1.22-3.47,10.19,1.63Z" transform="translate(-45.67 -41.56)"/><path class="cls-1" d="M317.59,166.59l3,.07v9.21C318.22,175.44,318.22,175.44,317.59,166.59Z" transform="translate(-45.67 -41.56)"/><path class="cls-1" d="M341.21,520.71l-10.75,9.19-.93-.78q5.31-4.7,10.6-9.41Z" transform="translate(-45.67 -41.56)"/><path class="cls-1" d="M239.85,112.59c.08-1.22.17-2.45.27-3.85,2.43.18,2.32,1.48,1.58,3.11Z" transform="translate(-45.67 -41.56)"/><path class="cls-1" d="M342.09,518.11c0,.56.07,1.11.11,1.67l-1,.93-1.08-1Z" transform="translate(-45.67 -41.56)"/><path class="cls-1" d="M329.53,529.12l.93.78-.61.42-1-.61Z" transform="translate(-45.67 -41.56)"/><path class="cls-1" d="M528.47,169.22l-.75-.84.81,0Z" transform="translate(-45.67 -41.56)"/><path class="cls-1" d="M429.2,453c20.4,18.69,41.34,36.82,59.64,57.67l-1.88.91c-8.3-7.17-16.71-14.22-24.89-21.52-10.16-9.07-20.13-18.37-30.22-27.52-1.67-1.51-3.26-2.89-2.39-5.47a12.83,12.83,0,0,0-1.38-.64Z" transform="translate(-45.67 -41.56)"/><path class="cls-1" d="M143.62,516.18C163.53,495.27,182,474,204.55,456.43c1.16,1.94,2.13,3.55,3.26,5.42-5.49,5-10.87,9.9-16.27,14.79-13,11.74-25.93,23.5-39,35.16C150.27,513.84,148.09,516.45,143.62,516.18Z" transform="translate(-45.67 -41.56)"/><path class="cls-1" d="M487,511.54l1.88-.91,5.18,5.18-.56.71Z" transform="translate(-45.67 -41.56)"/><path class="cls-1" d="M123,170.57l-.6.49c.07-.29.15-.58.23-.86Z" transform="translate(-45.67 -41.56)"/><path class="cls-1" d="M132.9,167.18l.24.22a2.58,2.58,0,0,1-.41.2s-.14-.13-.21-.2Z" transform="translate(-45.67 -41.56)"/><path class="cls-1" d="M527.79,168.45l-.75-.76Z" transform="translate(-45.67 -41.56)"/><path class="cls-1" d="M115,150.83l.77-.16-.37.62A3.47,3.47,0,0,1,115,150.83Z" transform="translate(-45.67 -41.56)"/><path class="cls-1" d="M298.76,121.08c-2-2.37-4.49-4.5-5.85-7.2-1.05-2.07-.69-4.85-1-7.31,0-.58.05-1.17.08-1.75v0l0-4,0-.12c-.14-5,2.58-8.6,5.65-12.06-.09-1.44-.17-2.89-.26-4.33L299.79,83v4l3.95-3,1.34-.74,4.1-1.43,6.18,2.79c1.91,4.57,1.2,6.45-3.14,8.36-.84.37-1.65.85-2.47,1.29L306,93.08l-3.75-2.89c-.46-.67-.91-1.34-1.36-2,0,.63,0,1.26,0,1.89,2.87,4,.87,7.54-.94,11.2a12,12,0,0,0-1.16,4.75c-.12,3.39.07,6.79.14,10.18Z" transform="translate(-45.67 -41.56)"/><path class="cls-1" d="M336.65,92.81c5.51,4.38,3.78,10.65,4,16.25a13.69,13.69,0,0,1-6.44,12.63c-.54-1.27-1.1-2.58-1.67-3.89v.12c.5-.25,1.41-.45,1.44-.76.72-6.34.47-12.5-4.05-17.65-1.38-3,.42-5.45,1.2-8.08l1.46-1a1.64,1.64,0,0,0,.28.31l3.84,2.09Z" transform="translate(-45.67 -41.56)"/><path class="cls-1" d="M292,104.86v0l-1.24.62,0,1.34,0,0c.11,1.7.23,3.4.35,5.24-3.63-.2-5.5-2.13-6.09-5.4-.39-2.24-.53-4.52-1-6.75a52.85,52.85,0,0,0-1.66-5.16c.77-2.65,3.69-4.5,6.91-6.13,2.5-1.28,4.91-2.73,7.36-4.11l.63-.14c.09,1.44.17,2.89.26,4.33-.32-.22-.78-.7-.94-.62-3.18,1.58-6.54,7.91-6,11.46.07.46.87.81,1.33,1.22l0,.12c-2.19-1.05-1.57.94-1.4,1.56C290.89,103.27,289.25,105.45,292,104.86Z" transform="translate(-45.67 -41.56)"/><path class="cls-1" d="M332.84,90.76a1.64,1.64,0,0,1-.28-.31c-.72-1.86-1.43-3.71-2.47-6.37,1.7.46,2.79.7,3.85,1.06s2.27.91,3.41,1.37c3,1.67,6,3.37,9,5,.44.22,1.12,0,1.68,0h-.11c1.43,7.65-1.09,14.68-3.12,21.79l-.92.17a28.85,28.85,0,0,1-1.31-4.81A107.38,107.38,0,0,1,342,97c.07-4-2.06-4.67-5.31-4.18l0,0Z" transform="translate(-45.67 -41.56)"/><path class="cls-1" d="M316.67,68.62c-.39-2.07-.09-4.93-1.33-6-2.15-1.88-5.09-1.17-7.51.62a14,14,0,0,1-2.44,1.14l-1.31-.77c6.12-5.94,13.24-6.56,19.08-1.65-.08.67-.16,1.34-.23,2l1.29-.67c.93,4.45.74,4.67-4,4.82l-1.17.72,1.13-.07,11,1.43-.05,0,.72.73,0,0,1.38,4.48a.26.26,0,0,0-.27.31c-.8-.3-1.83-.38-2.35-.94-3.24-3.49-5.78-1.36-8.36,1.09l-5.06-3.47-.34-.82Z" transform="translate(-45.67 -41.56)"/><path class="cls-1" d="M307.81,66.71a1.84,1.84,0,0,0,0,.66l-1.69.79.48.78,1.86-1.4,2.75-.11-.05,0,1.41,1.76a.38.38,0,0,0,.3.31c2,1.75.61,3.19-.42,4.67l-1,1A86,86,0,0,0,303,72.92c-1.39-.24-2.93.46-4.41.73l.42,2a15.13,15.13,0,0,1-.78,2.79c-.24.5-.92.78-1.4,1.16l-1.39-.48c-2.33,0-4.81-1.76-6.91.66l.06,0-.7.08-.69-.15-.09-.81c2.37-1.87,4.79-3.68,7.07-5.65.44-.37.33-1.37.47-2.08l.12-1.47c2.32-.63,4.64-1.25,6.95-1.9,2-.55,3.91-1.13,5.86-1.7Zm-3.75,4.42c.17-.1.41-.16.5-.31s-.08-.33-.13-.51c-.18.09-.44.13-.51.27S304,70.94,304.06,71.13Z" transform="translate(-45.67 -41.56)"/><path class="cls-1" d="M308.89,123.78c-.49.42-1.35,1.25-1.44,1.18-1.5-1.28-2.9-2.66-4.33-4-.1-2.62-.35-5.24-.26-7.85.17-4.85.66-9.63,6-12,.27-.11.32-.73.66-1.57l-2.81.86-1.8-4.87,1.16-2.46c.7,1.26,1.39,2.52,2.08,3.78l1-1.17L308.69,98l1.18.25.69-3.72c.4.18,1.15.38,1.14.55-.16,4.09.91,8.46-2.47,11.88l-.14.14c-.48,1.17-1.33,2.33-1.35,3.51C307.65,115,306.93,119.53,308.89,123.78Z" transform="translate(-45.67 -41.56)"/><path class="cls-1" d="M325.87,120.52c1.32,2.48,1.06,4.12-2,5.15-2.37.8-2.79,2.35-2.49,5.73a12.5,12.5,0,0,1-11.6-7.65c.34-1.28.69-2.56,1-3.84a75.43,75.43,0,0,1,8.59-.74C321.58,119.22,323.72,120,325.87,120.52Z" transform="translate(-45.67 -41.56)"/><path class="cls-1" d="M332.51,117.92v-.12c-.45,1.3-.68,3.51-1.41,3.69-1.21.3-2.74-.72-4.13-1.18-.36-2.82-.71-5.65-1.07-8.47,0-.11.1-.23.07-.31a5.36,5.36,0,0,0-.28-.53v.06l1.35-7.94,2.12-2.76c1.13,3,2.65,6,3.28,9.08C333,112.16,332.52,115.09,332.51,117.92Z" transform="translate(-45.67 -41.56)"/><path class="cls-1" d="M332.93,75.63a.26.26,0,0,1,.27-.31l3.44-.31L340,80.39c4.42,1.06,7.58,4.89,7.67,10.42l.07-.08c-3-2.49-5.81-5.32-10.14-5.18L334.29,83l1.6-2.56L335,79.17l-1.39-.85-.88-.8Z" transform="translate(-45.67 -41.56)"/><path class="cls-1" d="M296.64,83.44a78.42,78.42,0,0,0-7.44,3.28,77.73,77.73,0,0,0-6.65,4.59c-1.26-3,.82-7.2,5.43-10.63l.59-1-.06,0,9.78,1.31Z" transform="translate(-45.67 -41.56)"/><path class="cls-1" d="M329,68.05c.9-2,2.22-2,4-1,3.4,2,4.79,4.58,3.67,7.2l-4.86-3.39,0,0c-.25-.24-.49-.49-.73-.73l.05,0Z" transform="translate(-45.67 -41.56)"/><path class="cls-1" d="M312.9,69.46a.38.38,0,0,1-.3-.31l.42-1.24-1.83-.52.05,0-2.07-2.81c1.41-1.76,3.27-2.15,5-1,2.32,1.57,1.28,3.77.44,5.78h.1Z" transform="translate(-45.67 -41.56)"/><path class="cls-1" d="M328.36,67.27l-2.41.9c-.14-2.16-.25-3.89-.36-5.62C329.31,62.48,328.83,64.88,328.36,67.27Z" transform="translate(-45.67 -41.56)"/><path class="cls-1" d="M301.59,111.36l.75,9.65-1.54-.78-.72-3.39C301,115.13,298.6,112.5,301.59,111.36Z" transform="translate(-45.67 -41.56)"/><path class="cls-1" d="M316.67,68.62l.15,2.87c-1.74.37-2.26-.5-2.1-2.06h-.1Z" transform="translate(-45.67 -41.56)"/><path class="cls-1" d="M308.49,67.54l-1.86,1.4-.48-.78,1.69-.79C308.06,67.42,308.28,67.47,308.49,67.54Z" transform="translate(-45.67 -41.56)"/><path class="cls-1" d="M324.27,62.58l0,.69-1.29.67c.07-.67.15-1.34.23-2Z" transform="translate(-45.67 -41.56)"/><path class="cls-1" d="M294.75,69.64l-.12,1.47c-.27-.44-.54-.88-.8-1.33Z" transform="translate(-45.67 -41.56)"/><path class="cls-1" d="M303.68,64a.46.46,0,0,1,.4-.4l1.31.77-1.72.42Z" transform="translate(-45.67 -41.56)"/><path class="cls-1" d="M298.83,121l.92-.06-.19,1.47-.58,0Z" transform="translate(-45.67 -41.56)"/><path class="cls-1" d="M287.09,78.84l.09.81L286,79.53Z" transform="translate(-45.67 -41.56)"/><path class="cls-1" d="M303,64.53l.1.47-.28.06c.07-.15.15-.3.22-.44Z" transform="translate(-45.67 -41.56)"/><path class="cls-1" d="M307.56,66l.77.3-.52.37Z" transform="translate(-45.67 -41.56)"/><path class="cls-1" d="M303.68,64v.79l-.72-.23,0,.08Z" transform="translate(-45.67 -41.56)"/><path class="cls-1" d="M347.93,91.45H348c-.11-.24-.23-.47-.35-.71l-.07.08Z" transform="translate(-45.67 -41.56)"/><path class="cls-1" d="M343.19,294.8l2.13-5.44,3.44-5.11c-8.65-4.13-17-3.4-25.34-1.65-3.37.71-5.43,2.5-5.51,6.57-.51,27-1.24,54-1.9,81,0,.78-.06,1.56-.08,2.34q-.53,23.69-1,47.37c-.09,4.46,0,8.91,0,13.37l-.91,0c-.29-5.31-.91-10.63-.81-15.93q1.14-62.31,2.56-124.62c0-2.11-.35-3.61-2.32-4.38-.24-.09-.83.69-1.26,1.07h.15c-.39-1.45-3.09-2.28-4.82-1-5.33,4.07-11.24,7.68-14.14,14.13-2.46,5.5-4.64,11.12-7,16.84-2.43-7.44-4.74-15.05-11.88-20.06,2.89-3.26,5.19-6.9,8.41-9.29,10.71-7.95,23.22-12.27,36-15.31a61.8,61.8,0,0,1,33.55,1.4,24,24,0,0,1,7.72,4.17c3.66,3,6.88,6.6,10.29,9.94l3.82,6.62c.89,4.61,1.78,9.23,2.7,14l-7.31.64-25.57,1.48-.07-.64L367,308l-.18-1.25-4.46.42c-1.69-6.64-4.77-12.06-12.48-12.87-.37-.5-.75-1-1.12-1.48l3-4.37a7,7,0,0,1,1.14.28c.61.28,1.19.61,1.78.92-.28,2,.74,1.67,1.92,1.11,6.3,2.39,7.59,8.06,8.95,13.68l1.14,1.33c.28-.31.86-.74.79-.91a10.41,10.41,0,0,0-1.12-1.73c.1-8.58-7.13-13.07-13.2-16-.69-.34-2.39.39-3,1.14-1.75,2.06-3.19,4.4-4.75,6.63Z" transform="translate(-45.67 -41.56)"/><path class="cls-1" d="M251,302.9a223,223,0,0,1,29.16-22.1c8.27-5.27,16.84-9.58,26.46-11.65,2.35-.5,4.64-1.22,7.23-1.91.22-4.83.44-9.69.68-15h-9.47l-6.1-9a7.34,7.34,0,0,1,2.69.26c2.89,1.53,5.69,3.24,9.45,5.42-.76-2.32-1.15-3.67-1.64-5-2.52-6.83.47-12.89,7.42-15.06,2.92-.91,5.12.11,6.76,2.5,2.36,3.44,2.58,7.21,1.5,11.13-.35,1.29-.78,2.55-1.36,4.43l12.14-4.76c0,5.42,0,10.42-.06,15.43,0,.49-.83,1-1.27,1.44l.05,0-.61-.75-11.8-6.84,0,0-1.2-1-.24,1h0l-.43,12.5a9.46,9.46,0,0,0,2.82,1c9.14.14,18.21.73,26.9,3.83,2.17.78,3.52.24,5.1-1.19,3.35-3,6.88-5.82,10.34-8.71l-8.93,16.73-1.77-.35c-5.56-1.26-11.06-3.1-16.68-3.66-10.59-1.07-20.72,1-30.79,4.74-13.27,4.92-26.6,9.24-34.33,22.48-.34.59-1.87.61-2.86.68-3.61.27-7.23.42-10.83.72-.18,0-.27,1-.4,1.49l-3.43.61-4.63.45Zm71.8-62.63a5.42,5.42,0,0,0-4.94-5.54,5.29,5.29,0,0,0-5.22,5.2,5.23,5.23,0,0,0,4.88,5.49A5.29,5.29,0,0,0,322.8,240.27Z" transform="translate(-45.67 -41.56)"/><path class="cls-1" d="M315.93,372.51l.08-2.34c2.63.34,1.36-1.74,1.38-2.59q1.17-38.37,2.07-76.76c.07-3,1.18-5.05,3.66-5.89a32.65,32.65,0,0,1,8.6-1.42c4.81-.28,9.76-1.26,14.3,1.49-.57,1.47-1.15,2.94-1.72,4.4-.69.28-1.38.82-2.05.79-4.71-.24-9.42-.79-14.13-.82-2.23,0-3.35,1.45-3.45,4.09-1.2,31-2.57,62-3.87,92.92-.42,10.06-.82,20.12-1.08,30.19a27.57,27.57,0,0,0,.76,8.82,7,7,0,0,0,4.38,3.93c5.05,1.18,9.34-.82,12.93-4.49a34.62,34.62,0,0,0,9.26-16,130.86,130.86,0,0,1,6.1-17.8c0,2.16-.13,4.34.07,6.49.07.81.9,1.54,1.38,2.31v0c-2.56-.78-1.24,1.38-1.67,2.21-.39,2.45-.85,4.9-1.16,7.36A59.39,59.39,0,0,1,340.65,438c-1.34,1.82-2.6,2.31-4.85,1.62-6.08-1.87-12.26-3.43-18.39-5.1a15,15,0,0,1-1-3.72c.23-18.28.57-36.56.77-54.84C317.25,374.8,316.38,373.65,315.93,372.51Z" transform="translate(-45.67 -41.56)"/><path class="cls-1" d="M255.55,302.45l3.43-.61a60,60,0,0,1,6.4-.54c6.31.11,11.18.64,14.31,7.63,1.53,3.43,3.52,6.7,4.7,10.25a44.46,44.46,0,0,1,2.39,11.18c.48,7.64.4,15.31.55,23l.07,19.19c0,1.84-.09,3.68-.14,5.52-.71,9.54-1.46,19.07-2.1,28.6-.26,3.73-2.5,6-5.43,7.73-5.25,3.13-11,2.4-16.63,1.79l-3.42-.26-1.39-.16-1.54-.17-.4-1.05c12.21-.34,19.65-11.42,21.95-22.95,3.27-16.34,1.94-32.76,1.69-49.17a83.89,83.89,0,0,0-3-21.61c-2.49-8.78-10.61-16.83-19.31-16.85C257,303.94,256.25,303,255.55,302.45Z" transform="translate(-45.67 -41.56)"/><path class="cls-1" d="M312.3,289.43h-.15l2,1.53c-3.05,2.23-6,4.14-8.62,6.34-6.22,5.14-9,12.68-9.44,19.92-1.51,23-2,46.16-2.45,69.26a92.2,92.2,0,0,0,2.17,20.1c1.37,6.74,6.07,11.6,11.6,15.5.85.59,2.31.3,3.81.45.12,1.87.36,4.46.35,7,0,.46-1.07.91-1.64,1.36-4.85-3-10.07-5.49-14.45-9.05-5-4.07-8.39-9.31-7.92-16.47.63-9.56.72-19.16,1-28.74v-4.13q0-9.62,0-19.24c0-8.13.11-16.25,0-24.37a48.09,48.09,0,0,1,10.81-31.41C302.58,293.58,306.4,289.55,312.3,289.43Z" transform="translate(-45.67 -41.56)"/><path class="cls-1" d="M311.33,483.14C310.6,470.58,310,458,309,445.47c-.09-1.25-1.62-2.86-2.89-3.47-16.2-7.89-32.48-15.62-48.74-23.4-.5-.24-1-.51-2.08-1.09l3-.25,1.35.06,3.43.41c8.09.8,16.29,2.08,22.95-5.35,4.06,10.88,13.16,16,23,20.23l3.23,1.38v49Z" transform="translate(-45.67 -41.56)"/><path class="cls-1" d="M366.19,371.3a27.35,27.35,0,0,1-13.36-11.16c-1.28-2.13-2.58-3.26-5.1-2.62-4.12,1.05-7.57-.41-11.37-3.52,2.09,0,3.57,0,5,0,7.4-.15,9.47-3.47,6.82-10.93l1.12-1.38.76,1.22.71-.37-1.77-3,0,.06c-2.06-3.87-4.15-7.73-6.15-11.63-.15-.29.37-.92.58-1.4l12.86,16.35c9.31-4.5,11.23-12.8,11.44-22,.05-2.05-.21-4.13,0-6.16.09-.75,1.17-1.38,1.81-2.07h7.29c0,3.81,0,7.34,0,10.87,0,6.61-3.77,11.83-6.63,17.38l.05-.06-.71,1.46,0-.06-2.1,2.1,0,0-.78,0,.05.78.07-.05-2.77,1.45L356,351.16l-1.13-.6.55,1.12,1.92,2.35-.06-.07.3,1.48c1.05,1.59,2.1,3.19,3.16,4.78l0-.05c.51,1.12,1,2.25,1.53,3.35C363.52,366.12,364.86,368.71,366.19,371.3Zm-14.66-26.05c-.07-.19-.1-.49-.24-.55s-.37.12-.56.2c.07.19.1.49.24.55S351.34,345.33,351.53,345.25Z" transform="translate(-45.67 -41.56)"/><path class="cls-1" d="M354.6,399.84v0c.2-2,.39-4,.59-6l1.24.42c-.1,11.64-.24,23.28-.29,34.92-.06,16.21-.05,32.43-.08,48.64-.3-.19-.78-.31-.88-.57-4.5-11.56-9-23.11-13.35-34.72-.35-.92.17-2.39.72-3.37,1.65-3,3.65-5.78,5.26-8.78,4.73-8.79,5-18.6,6.18-28.18Z" transform="translate(-45.67 -41.56)"/><path class="cls-1" d="M354,479.79c-.27,0-.72.08-.78,0-6.21-12.08-15.67-20.86-27.68-26.93-3.47-1.75-6.07-3.77-5.83-8.05-.05-.59-.09-1.19-.14-1.79v-2l-.27-3.15c6.51,1.52,13.05,3,19.52,4.65.83.21,1.62,1.44,2,2.37,1.82,4.4,3.54,8.84,5.21,13.3C348.67,465.34,351.3,472.57,354,479.79Z" transform="translate(-45.67 -41.56)"/><path class="cls-1" d="M402,313.45c-5.49,2.56-11,4.89-17.32,4.36-.55-.05-1.58,1.53-1.8,2.49-.92,4.07-1.17,8.34-2.48,12.27A26.49,26.49,0,0,1,367.6,348a46.67,46.67,0,0,0-4.26,2.94c2,3.9,4.23,7.36,5.56,11.13s1.6,7.59,2.35,11.41l-1,.29-2-2.54c-1.57-2.63-3.08-5.3-4.76-7.86a26.23,26.23,0,0,0-2.83-3.15l0,.05q-1.12-2.42-2.23-4.82L357.27,354l.06.07a11.93,11.93,0,0,1,1.86-2.71c1.58-1.36,3.36-2.5,5.06-3.72l2.7-2.55-.07.05.73-.75,0,0,2.1-2.1,0,.06.71-1.46-.05.06c2.1-2.84,5.2-5.39,6.08-8.57,1.69-6.16,2.14-12.66,3.19-19.63,2,0,4.85,0,7.67-.06.34,0,.65-.85,1-1.3l1.74,0c.28.46.58,1.32.85,1.31,3.82-.11,7.63-.34,11.44-.54Z" transform="translate(-45.67 -41.56)"/><path class="cls-1" d="M370.41,290.29c-.93-1.85-1.5-4.05-2.87-5.48-2.89-3-6.2-5.66-9.56-8.66l11.19-18.28.89-1,.86.21c-.72,2.75-1.26,5.56-2.22,8.23-1.11,3.1-4,6.31-3.53,9s4.11,4.88,6.37,7.27c5,5.29,9,11.17,10.6,18.41.36,1.63.52,3.31.84,5.43l-5.72-.41a37.67,37.67,0,0,0-1-4.9,17.37,17.37,0,0,0-2-3.26Z" transform="translate(-45.67 -41.56)"/><path class="cls-1" d="M389.94,311.35l-1.73,0-10.3.45v-4.58c7.56-.45,15.18-1.57,22.38,2,1,.49,1.95,1,2.92,1.53a.65.65,0,0,0,.06.39Z" transform="translate(-45.67 -41.56)"/><path class="cls-1" d="M302.25,258.44c3-5.15,3-5.15,10.12-4,1.14,2.32.3,3.64-1.94,4.78-3.9,2-7.64,4.27-11.89,6.69.26-.92.37-1.32.49-1.72C300.1,262.24,301.18,260.34,302.25,258.44Z" transform="translate(-45.67 -41.56)"/><path class="cls-1" d="M276.84,461.73c1.13,4.54,2.19,8.77,3.25,13l1,0c-1.7,1.1-3.39,2.21-5,3.3C270.43,472.44,270.52,470.44,276.84,461.73ZM276,474.61l1.15-.44-.57-5.35-.83-.28c-.52.93-1.52,1.9-1.43,2.76C274.45,472.45,275.42,473.51,276,474.61Z" transform="translate(-45.67 -41.56)"/><path class="cls-1" d="M334.59,259.11v4.48l-9.47-6.1v6.11l-3.59-.15-.69-11.84h0l1.44,0,0,0c.17.41.21,1,.51,1.2,3.48,2.14,7,4.22,10.52,6.31l1.38.08Z" transform="translate(-45.67 -41.56)"/><path class="cls-1" d="M343.82,313.86H365.9v3.92l-22.13-3Z" transform="translate(-45.67 -41.56)"/><path class="cls-1" d="M400.09,279.73l-9.85-1.42c-.23-6.55.47-7.85,4.11-8.88,2.26-.64,3.65.21,4.2,2.18C399.23,274.07,399.52,276.63,400.09,279.73Zm-8-6.63c.46,4.27.46,4.27,5.22,4-.23-1.84-.45-3.65-.72-5.74Z" transform="translate(-45.67 -41.56)"/><path class="cls-1" d="M303.73,252.27l-2.88,6.18-3,3.53q.12-8.46.25-16.92Z" transform="translate(-45.67 -41.56)"/><path class="cls-1" d="M296.43,328.8c4.75,4.74,9.19,9.6,9.8,16.65C303.31,339.68,296.55,336.18,296.43,328.8Z" transform="translate(-45.67 -41.56)"/><path class="cls-1" d="M332.31,350.79l15.44-2.24c.55,1.07.14,2-2,2.82C340.74,353.21,336.06,353.06,332.31,350.79Z" transform="translate(-45.67 -41.56)"/><path class="cls-1" d="M324.7,331.2l7.24,7.81C327,337.11,324.19,334.11,324.7,331.2Z" transform="translate(-45.67 -41.56)"/><path class="cls-1" d="M343.19,294.8l2.2.07-1.84,4.18,0,0-1.88,1.64-1.61.46v0C341.11,299,342.15,296.89,343.19,294.8Z" transform="translate(-45.67 -41.56)"/><path class="cls-1" d="M348.79,292.82c.37.49.75,1,1.12,1.48l-6.37,5.39a3.88,3.88,0,0,0,0-.68l0,0Q346.16,295.93,348.79,292.82Z" transform="translate(-45.67 -41.56)"/><path class="cls-1" d="M345.55,337.37c.58.38,1.14.77,1.72,1.13s1.22.72,1.82,1.08l0-.06.3,2.16-1.12,1.38Z" transform="translate(-45.67 -41.56)"/><path class="cls-1" d="M366.16,371.21l.8,0-.49,1.27C366.36,372,366.26,371.62,366.16,371.21Z" transform="translate(-45.67 -41.56)"/><path class="cls-1" d="M244.63,391.15l.06-.46.3.09-.44.31Z" transform="translate(-45.67 -41.56)"/><path class="cls-1" d="M250.92,302.9l.61.5-.23.19c-.09-.23-.17-.46-.28-.69Z" transform="translate(-45.67 -41.56)"/><path class="cls-1" d="M306.07,93.1l-.06,0,3.74,1.14.81.29-.69,3.72L308.69,98l.46-2.27-1,1.17C307.46,95.62,306.77,94.36,306.07,93.1Z" transform="translate(-45.67 -41.56)"/><path class="cls-1" d="M302.26,90.19l-1.34-.13c0-.63,0-1.26,0-1.89C301.35,88.85,301.8,89.52,302.26,90.19Z" transform="translate(-45.67 -41.56)"/><path class="cls-1" d="M304.06,71.13c-.06-.19-.2-.42-.14-.55s.33-.18.51-.27c.05.18.2.4.13.51S304.23,71,304.06,71.13Z" transform="translate(-45.67 -41.56)"/><path class="cls-1" d="M322.91,93.82l5,1.68-1,4.87-3.25-3,2.24,5.82c-1.53,2.59-2.47,5.21-.22,7.9V111l-.64,1.11-.33,3.75c-2.8-.09-2.92-1.86-2.76-3.82-.09-3.7,2.89-7.07.92-11.06-.86-1.73-1-3.87-1.21-5.86C321.62,94.75,322.47,94.26,322.91,93.82Z" transform="translate(-45.67 -41.56)"/><path class="cls-1" d="M311.9,112.74l8.26,0c-.26,1-.53,2.07-.8,3.13l4.32,1.41-.19.59H312.68l-.05-1.54,1.34-.32Z" transform="translate(-45.67 -41.56)"/><path class="cls-1" d="M312.63,116.37l.05,1.54-1.77.37c.11-.72.23-1.43.35-2.15l-.05,0Z" transform="translate(-45.67 -41.56)"/><path class="cls-1" d="M310.44,119.52H309l-.2-.78,2.16-.46C310.76,118.69,310.6,119.11,310.44,119.52Z" transform="translate(-45.67 -41.56)"/><path class="cls-1" d="M324.23,117.53c.33.27.76.5.73.64a2.76,2.76,0,0,1-.55.87c-.2-.22-.53-.41-.58-.65S324.05,117.88,324.23,117.53Z" transform="translate(-45.67 -41.56)"/><path class="cls-1" d="M301.64,111.06c-.45-.64-1.15-1.22-1.3-1.92-1.07-5.11,2.34-9.09,3.55-13.63,0-.07.18-.14.27-.13s.19.12.29.18c.44,3.35.56,6.53-1.43,9.67C302,106.82,302.07,109.09,301.64,111.06Z" transform="translate(-45.67 -41.56)"/><path class="cls-1" d="M309.78,107.92a.6.6,0,0,0,.2-.55l1.5,5.34-.27,3.45.05,0c-.72-.42-2-.84-2-1.25C309.23,112.56,309.56,110.24,309.78,107.92Z" transform="translate(-45.67 -41.56)"/><path class="cls-1" d="M303.87,83.07l-.58.35-2.83-1.12-.27-6.67c.83-2.16,1.8-.8,2.73-.11L307.58,79Z" transform="translate(-45.67 -41.56)"/><path class="cls-1" d="M365.56,304.44l.81-1.31a10.41,10.41,0,0,1,1.12,1.73c.07.17-.51.6-.79.91Z" transform="translate(-45.67 -41.56)"/><path class="cls-1" d="M354.69,289.65l1.92,1.11C355.43,291.32,354.41,291.62,354.69,289.65Z" transform="translate(-45.67 -41.56)"/><path class="cls-1" d="M351.53,345.25c-.19.08-.43.26-.56.2s-.17-.36-.24-.55c.19-.08.43-.26.56-.2S351.46,345.06,351.53,345.25Z" transform="translate(-45.67 -41.56)"/><path class="cls-1" d="M330.17,90.75c-1.48,3.23-4.73,2.37-7.27,3.13-.59-.64-1.07-1.6-1.8-1.86-3.91-1.4-3.53-4.33-2.88-7.42l4.68-3.4C327.9,82.12,329.53,84.25,330.17,90.75Z" transform="translate(-45.67 -41.56)"/><path class="cls-1" d="M312.06,75.77l1.06-1L316.67,73c2.16,2,4.34,4,6.44,6.11.21.21-.07.92-.13,1.4l-4.85,3.37-2.76.07-4.21-2.09,6.77-2.56,1.21.58.23-.39-.92-.75c-1.29,0-2.68-.33-3.84,0a44,44,0,0,0-5.45,2.53,5.33,5.33,0,0,1,.28-2C310.2,78,311.18,76.93,312.06,75.77Z" transform="translate(-45.67 -41.56)"/><path class="cls-1" d="M318.13,83.84,323,80.47l-.08.73-4.68,3.4Z" transform="translate(-45.67 -41.56)"/><path class="cls-1" d="M332,78.27l1,1c-.54,1.21-.8,2.76-1.72,3.49-.54.43-2.27-.22-3.2-.81A33.3,33.3,0,0,1,324,78.27Z" transform="translate(-45.67 -41.56)"/></svg>