<?xml version="1.0" encoding="utf-8"?>
<!-- Generator: Adobe Illustrator 23.0.0, SVG Export Plug-In . SVG Version: 6.00 Build 0)  -->
<svg version="1.1" id="Capa_1" xmlns="http://www.w3.org/2000/svg" xmlns:xlink="http://www.w3.org/1999/xlink" x="0px" y="0px"
	 viewBox="0 0 686.12 792" style="enable-background:new 0 0 686.12 792;" xml:space="preserve">
<style type="text/css">
	.st0{fill:#A4793C;}
</style>
<g>
	<path class="st0" d="M373.53,643.59c-6.35-9.4-12.71-18.79-19.06-28.19c0.25-0.23,0.49-0.47,0.74-0.7
		c0.75,0.81,1.59,1.55,2.24,2.43c6.04,8.16,12.11,16.29,18.02,24.54c1.41,1.97,2.84,2.82,5.35,2.79
		c11.81-0.15,23.63-0.07,35.83-0.07c0-6.05,0-11.89,0-18.15c6.83,0,13.3,0,19.93,0c0-6.31,0-12.19,0-18.46c10.88,0,21.6,0,32.76,0
		c0-1.61,0-2.84,0-4.07c0-51.58-0.02-103.15,0.05-154.73c0-2.63-0.66-4.54-2.56-6.42c-6.11-6.04-12.03-12.28-18.25-18.68
		c5.31-6.32,10.55-12.45,15.63-18.72c0.96-1.18,1.75-2.91,1.75-4.38c0.09-44.63,0.07-89.26,0.06-133.89c0-0.37-0.11-0.73-0.22-1.41
		c-10.37,0-20.72,0-31.45,0c0-5.63,0-10.95,0-16.64c-7.37,0-14.37,0-21.71,0c0-5.95,0-11.53,0-17.37c-13.88,0-27.41,0-41.29,0
		c0.74,1.19,1.39,2.23,2.18,3.5c-9.5,11.55-19.04,23.14-28.66,34.84c3.93,4.71,7.71,9.38,11.68,13.89c0.66,0.75,2.4,1.41,3.11,1.05
		c0.93-0.47,1.86-1.97,1.89-3.05c0.17-6.8,0.09-13.6,0.09-20.65c21.2,0,42.22,0,63.65,0c0,15.94,0,31.93,0,48.27
		c12.32,0,24.23,0,36.41,0c0,30.99,0,61.63,0,92.61c-8.26,0-16.43,0-24.58,0c0,15.86,0,31.38,0,47.28c9.14,0,18.06,0,27.18,0
		c0,35.93,0,71.49,0,107.35c-11.88,0-23.78,0-36.03,0c0,17.72,0,35.14,0,52.69c-21.53,0-42.69,0-64.24,0c0-9.5,0-18.92,0-28.35
		c-0.26-0.14-0.53-0.27-0.79-0.41c-1.3,1.46-2.73,2.83-3.89,4.4c-3.74,5.06-7.4,10.18-11.03,15.33c-0.55,0.79-0.75,1.83-1.12,2.75
		c0.41,0.56,0.81,1.11,1.22,1.67c-0.29,0.18-0.59,0.36-0.88,0.54c-0.37-0.68-0.75-1.36-1.12-2.04c-0.49-0.32-0.99-0.65-1.48-0.97
		c-0.36,0.01-0.72,0.03-1.09,0.04c-0.58,5.46,0.2,10.33,3.78,15c5.66,7.38,10.88,15.14,15.77,23.06c2.55,4.13,5.58,5.47,10.04,4.41
		C373.46,644.33,373.5,643.96,373.53,643.59z M353.06,613.28c-0.72-1.07-1.44-2.15-2.16-3.22c-0.15-0.49-0.3-0.98-0.45-1.47
		c0.35,0.23,0.7,0.45,1.06,0.68c0.82,1.09,1.63,2.19,2.45,3.28c0.41,0.69,0.82,1.37,1.23,2.06c-0.26,0.16-0.51,0.32-0.77,0.48
		C353.96,614.48,353.51,613.88,353.06,613.28z M349.36,606.06c0.21,0.33,0.57,0.65,0.5,0.84c-0.08,0.25-0.62,0.62-0.73,0.55
		c-0.33-0.19-0.54-0.58-0.8-0.89C348.64,606.42,348.94,606.27,349.36,606.06z"/>
	<path class="st0" d="M268.72,644.4c11.96,0,23.92,0.04,35.88-0.07c1.35-0.01,3.23-0.5,3.94-1.46
		c10.01-13.35,19.87-26.81,29.94-40.48c-5.43-7.38-10.79-14.69-16.16-22c-0.31,0.12-0.63,0.25-0.94,0.37c0,9.38,0,18.75,0,28.38
		c-21.66,0-42.91,0-64.39,0c0-17.34,0-34.66,0-52.29c-12.11,0-24,0-36.13,0c0-35.86,0-71.41,0-107.34c8.76,0,17.68,0,27.05,0
		c0-15.98,0-31.58,0-47.53c-8.02,0-16.19,0-24.56,0c0-30.88,0-61.42,0-92.45c12.01,0,24,0,36.27,0c0-16.38,0-32.27,0-48.44
		c21.29,0,42.3,0,63.85,0c0,6.34-0.11,12.85,0.08,19.34c0.04,1.49,1.11,2.96,1.71,4.43c1.42-0.74,3.18-1.16,4.18-2.27
		c3.7-4.09,7.14-8.41,10.79-12.78c-9.51-11.56-18.98-23.06-28.61-34.76c0.61-1.03,1.22-2.08,2.05-3.5c-13.72,0-27.19,0-41.01,0
		c0,5.58,0,11.17,0,17.11c-7.34,0-14.35,0-21.71,0c0,5.68,0,11.02,0,16.64c-10.72,0-21.1,0-31.89,0c0,1.52,0,2.77,0,4.01
		c0,43.46-0.03,86.93,0.1,130.39c0.01,2.05,1.03,4.43,2.32,6.08c4.75,6.06,9.81,11.88,15.02,18.11c-2.25,2.35-4.44,4.62-6.62,6.89
		c-1.02,0.38-2.05,0.78-3.08,1.17c-0.25,0.69-0.51,1.37-0.76,2.06c0,0,0.05-0.07,0.05-0.07c-0.28,0.28-0.56,0.56-0.84,0.84
		l0.07-0.07c-0.28,0.28-0.56,0.56-0.84,0.84c0,0,0.05-0.03,0.05-0.03c0.06,0.09,0.18,0.19,0.16,0.26c-0.04,0.17-0.15,0.31-0.23,0.47
		c-2.29,2.07-4.58,4.15-6.87,6.22l-0.02,0.02c-0.24,0.54-0.48,1.07-0.73,1.61c-0.33,1.58-0.93,3.15-0.93,4.73
		c-0.05,51.71-0.04,103.41-0.04,155.12c0,1.11,0,2.23,0,3.74c11.07,0,21.79,0,32.81,0c0,6.38,0,12.36,0,18.4
		c5.85,0,11.37-0.07,16.9,0.07c0.91,0.02,1.79,0.95,2.68,1.46C268.39,633.2,268.56,638.8,268.72,644.4z"/>
	<path class="st0" d="M339.99,599.99c1.03-1.22,1.86-2.2,3.05-3.61c0.84,1.33,1.58,2.51,2.53,4.02c4.41-6.22,8.45-11.62,12.15-17.24
		c2.74-4.16,6.43-7.13,10.97-8.64c11.32-3.77,20.78-10.75,29.91-17.91c5.54-4.34,10.22-10.29,13.97-16.33
		c10.79-17.37,18.8-36.12,20.8-56.59c1.64-16.86,1.71-33.9,1.9-50.87c0.16-14.01-0.13-28.05-0.93-42.04
		c-0.97-16.79-4.98-32.93-12.7-47.99c-4.26-8.33-8.45-16.66-14.82-23.75c-6.09-6.78-12.86-12.6-21.01-16.54
		c-7.71-3.72-15.87-6.52-23.57-10.26c-2.83-1.37-5.17-4.05-7.31-6.5c-4.04-4.61-7.78-9.49-11.8-14.45
		c-5.15,6.08-9.93,11.96-15.01,17.58c-1.53,1.7-3.73,3.11-5.89,3.87c-13.16,4.61-25.98,9.98-36.27,19.61
		c-5.56,5.2-10.72,11.16-14.74,17.6c-5.82,9.32-10.25,19.42-13.91,29.91c-3.44,9.86-5.05,20.01-5.65,30.16
		c-1.81,30.84-1.81,61.75,0.8,92.52c1.17,13.76,5.02,27.2,11.22,39.79c5.63,11.44,11.8,22.51,20.85,31.68
		c1.43,1.45,2.86,2.97,4.53,4.1c9.41,6.42,18.58,13.18,29.52,17.14c3.47,1.26,6.61,4.39,9.04,7.37
		C331.95,587.98,335.67,593.87,339.99,599.99z M401.86,321.7c0.22,0.1,0.38,0.26,0.47,0.48c8.61,8.81,13.98,19.56,18.25,30.9
		c9.09,24.12,11.73,49.33,12.09,74.87c0.33,23.53-3.04,46.59-9.11,69.28c-4.55,17.01-9.81,33.53-21.54,47.5
		c-12.47,14.84-27.71,25.16-46.43,28.92c-22.39,4.5-42.69-2.52-59.9-16.78c-14.05-11.64-23.86-26.76-29.19-44.43
		C256.7,479.98,251,447,253.93,412.93c0.76-8.82,0.73-17.79,2.41-26.43c2.12-10.92,5.16-21.72,8.65-32.3
		c3.91-11.87,9.68-22.9,18.55-32.02c0.09-0.22,0.25-0.38,0.47-0.48c8.44-10.41,20.2-15.79,31.91-21.35
		c7.28-3.45,14.84-5.81,22.79-6.3c11.16-0.7,21.79,1.65,31.94,6.6C382.07,306.22,393.62,311.48,401.86,321.7z M348.2,285.78
		c-3.63,2.8-6.91,2.94-10.46-0.01c1.74-1.51,3.44-2.98,5.19-4.5C344.64,282.74,346.28,284.14,348.2,285.78z"/>
	<path class="st0" d="M208.38,402.48c1.13-6.21,0.49-12.05-3.33-18.15c-17.77-28.38-35.05-57.06-52.36-85.73
		c-2.13-3.52-4.2-5.93-8.66-4.5c-0.83,0.27-1.78,0.15-3.1,0.24c5.39,8.81,10.63,17.39,16.05,26.26c-26.62,0-52.76,0-79.15,0
		c-0.31,2.05-0.64,4.3-1.12,7.51c7.66,0,14.92-0.07,22.17,0.01c20.18,0.22,40.35,0.49,60.52,0.8c1.13,0.02,2.81,0.34,3.3,1.11
		c5.82,9.16,11.45,18.44,17.49,28.25c-27.52-0.43-54.41-0.84-81.37-1.26c0,2.82,0,5.32,0,8.49c7.55,0,14.84-0.05,22.12,0.01
		c20.31,0.17,40.61,0.44,60.92,0.54c2.34,0.01,3.67,0.69,4.87,2.73c4.54,7.69,9.29,15.26,14.29,23.4c-27.12,0-53.64,0-80.35,0
		c0,2.34,0,4.32,0,7.11c5.09,0,10.05-0.09,15.02,0.02c22.61,0.48,45.21,0.99,67.82,1.6C205.08,400.96,206.63,401.9,208.38,402.48z"
		/>
	<path class="st0" d="M578.68,320.73c-16.52,0-32.9,0-49.87,0c5.45-8.92,10.7-17.5,16.12-26.38c-2.01-0.15-3.68-0.08-5.26-0.43
		c-2.55-0.57-3.85,0.41-5.17,2.6c-15.54,25.68-31.2,51.29-46.84,76.91c-2.54,4.16-4.74,8.59-7.71,12.42
		c-4.21,5.44-3.02,11.23-2.51,16.5c2.11-0.54,4.01-1.4,5.93-1.45c26.46-0.67,52.91-1.22,79.37-1.81c0.74-0.02,1.49-0.19,2.43-0.32
		c0-2.15,0-4.13,0-6.45c-26.57,0-53.11,0-80.39,0c4.27-6.96,8.58-13.15,11.98-19.81c2.63-5.16,5.97-6.6,11.7-6.57
		c25.57,0.1,51.14-0.41,76.71-0.71c0.5-0.01,0.99-0.1,1.82-0.18c0-2.57,0-5.08,0-8.03c-26.76,0.41-53.67,0.83-81.31,1.26
		c2.06-3.34,3.85-6.22,5.62-9.11c3.55-5.8,7.19-11.54,10.6-17.42c1.24-2.13,2.59-2.95,5.14-2.95c13.23-0.03,26.47-0.66,39.69-0.35
		C572.84,328.6,576.61,326.59,578.68,320.73z"/>
	<path class="st0" d="M446.65,205.44c0-45.72,0-90.39,0-136.03c-5.2,7.29-10.75,12.92-19.76,13.54c0,1.56,0,2.83,0,4.09
		c0,33.16,0.03,66.31-0.06,99.47c-0.01,2.5,0.39,4.14,3.08,4.76C437.49,193.04,441.66,199.04,446.65,205.44z"/>
	<path class="st0" d="M279.13,76.26c-5.09,0.02-10.17-0.71-15.1,1.75c-3.11,1.55-4.43,3.81-4.43,6.88c0,32.79,0.09,65.59,0.15,98.38
		c0.01,7.9,1.34,9.52,9.34,10.86c2.4,0.4,4.86,0.45,7.3,0.56c6.93,0.33,8-0.63,8.06-7.67c0.08-9.9,0.03-19.81,0.02-29.71
		c-0.02-26.59-0.04-53.17-0.05-79.76c0-0.11,0.14-0.21,0.21-0.32c0,0,0.12,0.15,0.12,0.15c-0.81-0.26-1.63-0.53-2.44-0.79
		c0,0,0.1,0.04,0.1,0.04c-0.52-0.03-1.04-0.06-1.56-0.09C280.26,76.45,279.69,76.35,279.13,76.26z M265.37,146.26
		c0.09-4.48,3.37-8.08,7.22-7.9c3.68,0.17,6.67,3.79,6.67,8.07c0,4.47-3.2,8.15-7.04,8.09
		C268.39,154.47,265.29,150.72,265.37,146.26z M272.78,109.01c3.98,0.04,7.22,3.15,7.24,6.92c0.01,3.78-3.22,6.9-7.2,6.96
		c-4.12,0.06-7.53-3.2-7.43-7.11C265.48,112.02,268.81,108.97,272.78,109.01z M264.6,180.29c0.07-3.66,3.54-6.59,7.62-6.44
		c3.95,0.15,7.09,3.12,7.03,6.65c-0.07,3.66-3.54,6.59-7.62,6.44C267.69,186.8,264.54,183.82,264.6,180.29z M272.93,91.24
		c-3.38-0.07-6.11-2.41-6-5.15c0.1-2.72,2.96-4.92,6.31-4.85c3.38,0.07,6.1,2.41,6,5.15C279.13,89.12,276.29,91.31,272.93,91.24z"/>
	<path class="st0" d="M399.72,77.24c0.05,3.93,0.14,7.86,0.14,11.78c0.01,32.25-0.02,64.51,0.06,96.76
		c0.01,2.49,0.62,5.03,1.35,7.43c0.22,0.72,1.77,1.39,2.75,1.45c6.47,0.38,12.84-0.12,18.67-3.29c0.82-0.44,1.46-1.65,1.69-2.62
		c0.32-1.35,0.2-2.81,0.2-4.22c0.01-31.23,0.01-62.45,0.01-93.68c0-1.28-0.09-2.58,0.05-3.85c0.87-7.89-3.6-9.18-8.92-10.39
		c-2.94-0.67-6.05-0.59-9.08-0.85c-1.05,0.27-2.1,0.53-3.14,0.8c-0.52,0.03-1.04,0.06-1.56,0.09l0.1-0.04
		c-0.81,0.26-1.63,0.53-2.44,0.79C399.6,77.38,399.72,77.24,399.72,77.24z M405.07,146.68c-0.11-4.46,2.97-8.23,6.8-8.32
		c3.72-0.09,6.87,3.33,7.07,7.66c0.2,4.43-2.79,8.3-6.6,8.51C408.49,154.73,405.19,151.17,405.07,146.68z M411.54,109.01
		c3.96-0.05,7.3,3,7.4,6.76c0.11,3.91-3.29,7.18-7.41,7.13c-3.97-0.05-7.22-3.17-7.21-6.95
		C404.32,112.18,407.56,109.06,411.54,109.01z M405.08,180.57c-0.1-3.53,3.01-6.54,6.96-6.72c4.08-0.18,7.58,2.72,7.68,6.37
		c0.1,3.54-3,6.54-6.96,6.72C408.68,187.13,405.19,184.23,405.08,180.57z M411.07,81.24c3.36-0.08,6.21,2.1,6.32,4.83
		c0.11,2.75-2.6,5.09-5.98,5.17c-3.36,0.08-6.21-2.1-6.32-4.83C404.98,83.66,407.68,81.32,411.07,81.24z"/>
	<path class="st0" d="M344.93,196.27c-0.63,0.4-1.75,0.74-1.81,1.22c-0.65,5.2-1.07,10.12,2.86,14.77
		c4.45,5.26,8.46,11.02,11.8,17.05c3.04,5.49,7.01,7.18,13.05,5.64c-0.9-1.56-1.82-3.15-2.74-4.74c-0.79-0.75-1.58-1.5-2.38-2.26
		c0.33-0.28,0.67-0.57,1-0.85c0.69,0.98,1.38,1.96,2.08,2.94c13.87-0.19,27.75-0.38,41.62-0.57c1.4-0.02,2.8,0,4.51,0
		c0,5.52,0,10.98,0,16.79c7.17,0,14.04,0,21.27,0c0,5.78,0,11.24,0,17.04c10.7,0,21.04,0,31.38,0c0,2.62,0,4.87,0,7.13
		c0,41.15,0.14,82.3-0.15,123.45c-0.04,5.92,1.55,10.07,6.76,13.2c0-50.6,0-101.14,0-152.1c-10.57,0-21.42,0-32.52,0
		c0-4.37,0-8.32,0-12.67c-6.86,0-13.48,0-20.37,0c0-6.01,0-11.61,0-17.79c-7.96,0-15.64,0-23.32,0c-9.77,0-19.55-0.03-29.32,0.05
		c-1.05,0.01-2.09,0.71-3.82,1.34c-1.36-1.93-3.18-4.5-4.99-7.09c-3.98-5.68-7.97-11.35-11.9-17.07c-0.67-0.98-1.06-2.15-1.58-3.23
		l0.05,0.07c-0.27-0.55-0.53-1.1-0.8-1.65l0.07,0.1c-0.29-0.29-0.58-0.57-0.87-0.86L344.93,196.27z"/>
	<path class="st0" d="M318.51,228.71c0.4-1.29,0.79-2.59,1.21-3.94c-18.34,0-36.54,0-55.04,0c0,5.84,0,11.45,0,17.44
		c-6.9,0-13.53,0-20.39,0c0,4.35,0,8.31,0,12.55c-10.99,0-21.74,0-32.72,0c0,50.85,0,101.43,0,152.82c3.44-3.5,6.92-5.52,6.88-11.22
		c-0.29-41.92-0.16-83.83-0.16-125.75c0-2.29,0-4.57,0-7.19c10.21,0,20.58,0,31.26,0c0-5.79,0-11.25,0-16.91c7.11,0,13.9,0,20.99,0
		c0-5.64,0-11.1,0-16.75c7.82,0,15.34-0.06,22.85,0.02c7.19,0.07,14.39,0.34,21.58,0.34c1.2,0,2.39-0.93,3.59-1.44L318.51,228.71z"
		/>
	<path class="st0" d="M256.14,185.75c0-34.91,0-69.17,0-103.9c-6.57,3.94-12.83,7.63-18.99,11.5c-0.74,0.47-1.27,1.86-1.27,2.83
		c-0.07,24.17-0.07,48.35,0.01,72.52c0,1.07,0.68,2.5,1.52,3.14C243.41,176.44,249.53,180.87,256.14,185.75z"/>
	<path class="st0" d="M472.25,442.46c-0.27,1.35-0.77,2.7-0.77,4.05c-0.03,28.29,0.01,56.58,0.01,84.87
		c0,25.58-0.03,51.16-0.05,76.74c0,0.5-0.05,0.99-0.1,1.85c-10.94,0-21.79,0-33.01,0c0,5.93,0,11.51,0,17.39
		c-6.63,0-12.87,0-19.41,0c0,6.27,0,12.26,0,18.65c-1.49,0.08-2.71,0.19-3.92,0.19c-11.06,0.01-22.12,0.21-33.17-0.09
		c-4.32-0.12-7.71,0.73-10.34,4.29c-0.8,1.08-2.17,1.74-3.28,2.59c0.18,0.29,0.36,0.58,0.54,0.87c18.49,0,36.99,0,55.77,0
		c0-6.24,0-12.49,0-19.02c6.91,0,13.54,0,20.47,0c0-5.73,0-11.2,0-17.04c10.24,0,20.19,0,30.53,0c0-1.74,0-3.1,0-4.47
		c-0.05-37.54-0.13-75.09-0.15-112.63c-0.01-18.39,0.11-36.77,0.12-55.16c0-1.73,0.77-4.17-2.52-3.82c0,0,0.08-0.06,0.08-0.06
		c-0.28,0.29-0.57,0.57-0.85,0.86L472.25,442.46z"/>
	<path class="st0" d="M211.3,441.54c-0.31,1.19-0.9,2.38-0.9,3.57c-0.04,56.8-0.04,113.59-0.03,170.39c0,0.61,0.05,1.22,0.09,2.05
		c10.05,0,19.91,0,30.06,0c0,5.68,0,11.14,0,17.01c7.01,0,13.74,0,20.73,0c0,6.65,0,12.9,0,19.37c18.79,0,37.29,0,56.26,0
		c-3.96-4.86-7.51-8.41-14.4-7.94c-10.87,0.74-21.83,0.24-32.76,0.14c-1.06-0.01-2.11-0.89-3.17-1.37
		c-0.1-5.69-0.2-11.39-0.29-17.08c-6.37,0-12.75,0-19.46,0c0-6.25,0-11.83,0-17.73c-11.2,0-22.05,0-33.12,0
		c0-26.15-0.01-51.96,0-77.78c0.01-28.53,0.02-57.07,0.1-85.6C214.42,444.08,213.71,442.37,211.3,441.54z"/>
	<path class="st0" d="M354.82,76.56c1.17,0.01,2.34,0.02,3.51,0.02c1.28,0,2.55,0,4.02,0c1.98,9.99,4,19.85,5.86,29.74
		c0.49,2.59,1.42,4.33,4.2,5.11c1.9,0.53,3.59,1.82,6.35,2.33c-2.44-5.1-5.27-10.05-7.21-15.33c-2.01-5.47-3.17-11.26-4.84-17.41
		c7.53,2.58,8.54,8.81,9.8,14.69c1.52,7.08,2.61,14.24,4.03,21.34c0.24,1.18,1.14,2.28,1.9,3.3c5.61,7.53,2.76,19.05-4.39,25.03
		c-8.24,6.9-17.48,10.97-27.82,13.03c-1.78,0.35-3.49,0.71-3.28,3.13c0,0-0.22-0.04-0.22-0.04c0.69,0.26,1.37,0.52,2.06,0.78
		c0,0-0.07-0.07-0.07-0.07c0.27,0.55,0.53,1.11,0.8,1.66l-0.14-0.12c15.91-1.15,29.01-7.95,39.01-20.25
		c5.51-6.77,4.66-17.08-0.86-25.54c-4.48-6.87-7.23-14.42-7.24-22.75c0-1.06,0.35-2.85,0.9-3.01c1.01-0.29,2.43,0.16,3.45,0.71
		c4.82,2.6,7.46,6.38,6.67,12.19c-0.34,2.52-0.21,5.15,0.01,7.7c0.36,4.16,0.64,8.37,1.54,12.43c1.22,5.53,1.12,10.75-0.58,16.22
		c-1.08,3.46-0.75,7.37-1.01,11.08c-0.08,1.23-0.01,2.46-0.01,4.55c-2.39-2.61-4.16-4.55-6.15-6.72c-0.9,0.72-1.74,1.4-2.68,2.15
		c2.88,3.77,5.65,7.3,8.32,10.91c0.59,0.8,0.83,1.85,1.24,2.78c0,0-0.07-0.11-0.07-0.11c0.28,0,0.56-0.01,0.83-0.01
		c0.24,0.52,0.49,1.04,0.73,1.56l0.03,0.06c0.25,0.49,0.5,0.99,0.75,1.48l0.03,0.04c0.21-0.06,0.43-0.12,0.64-0.18
		c0.03,0.3,0.05,0.6,0.08,0.91c0,0,0.05,0.05,0.05,0.05c0.21-0.06,0.41-0.12,0.62-0.18c0.04,0.3,0.07,0.6,0.11,0.91
		c0,0,0.02,0.01,0.02,0.01l0.18-0.3l0.35,0.06c0.15-1.25,0.44-2.5,0.44-3.75c0.03-22.35-0.02-44.69,0.07-67.04
		c0.01-2.56-0.63-4.21-2.86-5.66c-8.45-5.48-16.76-11.16-24.96-16.65c8.16,0,16.83,0,25.47,0c1.97,5.16-2.97,11.34,2.97,16.81
		c0.25-5.15,0.37-9.43,0.74-13.68c0.1-1.13,0.97-2.19,1.49-3.28c0,0-0.12,0.14-0.12,0.14c0.81-0.26,1.63-0.53,2.44-0.79
		c0,0-0.1,0.04-0.1,0.04c0.52-0.26,1.05-0.52,1.57-0.79c0.25-0.22,0.51-0.43,0.76-0.65c-3.81-0.16-7.62-0.33-11.42-0.49
		c-12.15-0.17-24.3-0.35-36.44-0.52c-1.01,0.29-2.01,0.58-3.02,0.87c0,0-0.05-0.05-0.05-0.05c0.53,0.27,1.06,0.54,1.58,0.81
		c0.08,0.09,0.22,0.18,0.21,0.26c-0.03,0.19-0.12,0.36-0.19,0.54L354.82,76.56z M368.1,76.78c-0.02,0.24-0.04,0.49-0.06,0.73
		c-0.9-0.1-1.8-0.2-2.7-0.3c0.02-0.2,0.04-0.4,0.05-0.59C366.3,76.68,367.2,76.73,368.1,76.78z"/>
	<path class="st0" d="M291.47,74.71c-3.56,0.11-7.11,0.22-10.67,0.33c-0.01,0.24-0.01,0.47,0.01,0.71c0.52,0.29,1.05,0.59,1.57,0.88
		c0,0-0.1-0.04-0.1-0.04c0.81,0.26,1.63,0.53,2.44,0.79c0,0-0.12-0.14-0.12-0.15c0.51,0.96,1.4,1.9,1.48,2.9
		c0.34,4.33,0.45,8.69,0.69,13.99c6.14-5.31,1.07-11.4,3.06-16.76c8.39,0,17.13,0,26.42,0c-0.64,0.56-0.93,0.89-1.28,1.11
		c-8.42,5.35-16.89,10.62-25.21,16.11c-1.13,0.74-2.14,2.61-2.15,3.96c-0.13,23.24-0.1,46.49-0.07,69.73c0,0.74,0.29,1.47,0.45,2.2
		c0,0,0.34-0.05,0.34-0.05l0.18,0.3l0.02-0.01c0.04-0.3,0.07-0.6,0.11-0.91c0.21,0.06,0.41,0.12,0.62,0.18l0.05-0.05
		c-0.06-0.21-0.12-0.43-0.18-0.64c0.3-0.03,0.6-0.06,0.91-0.08c0,0,0.03-0.04,0.03-0.04c0.25-0.49,0.5-0.99,0.75-1.48
		c0,0,0.03-0.06,0.03-0.06c0.25-0.52,0.49-1.04,0.74-1.56c0.28,0,0.55,0.01,0.83,0.01l-0.07,0.11c1.65-2.57,3.24-5.18,4.98-7.69
		c1.38-2,2.94-3.88,4.51-5.93c-0.8-0.75-1.52-1.43-2.51-2.35c-1.91,2.11-3.7,4.08-5.79,6.39c-0.17-1.04-0.33-1.79-0.42-2.56
		c-0.86-6.96-1.73-13.91-2.52-20.88c-0.14-1.25-0.29-2.66,0.13-3.79c3.19-8.55,2.17-17.45,2.38-26.24
		c0.12-4.99,3.27-9.57,7.84-11.13c2.56-0.87,3.16,0.61,3.16,2.79c0,8.2-2.52,15.74-6.9,22.48c-6.99,10.76-7,22.38,4.46,32.46
		c8.7,7.64,18.72,11.28,29.5,13.84c1.21,0.29,2.52,0.11,3.79,0.15c0,0-0.14,0.12-0.14,0.12c0.27-0.55,0.53-1.11,0.8-1.66l-0.07,0.07
		c0.69-0.26,1.37-0.52,2.06-0.78l-0.23,0.07c0.24-2.43-1.47-2.81-3.26-3.15c-10.79-2.05-20.39-6.38-28.67-13.81
		c-6.3-5.65-8.37-15.86-4.25-23.31c4.2-7.59,5.68-16.15,6.65-24.8c0.7-6.23,2.13-12.47,9.81-15.67c-1.69,6.28-2.84,12.09-4.85,17.58
		c-1.94,5.29-4.78,10.26-7.23,15.37c0.3,0.11,0.6,0.22,0.9,0.32c2.39-1.15,4.87-2.17,7.14-3.52c0.91-0.54,1.77-1.72,2-2.76
		c1.81-8.26,3.44-16.56,5.17-24.84c1.67-7.99-0.2-5.96,8.73-6.42c0,0-0.11,0.06-0.11,0.06c-0.07-0.09-0.21-0.19-0.2-0.27
		c0.03-0.18,0.14-0.36,0.22-0.53c0.53-0.27,1.06-0.54,1.58-0.81c0,0-0.05,0.05-0.05,0.05c-1.01-0.29-2.01-0.58-3.02-0.87
		C315.77,74.36,303.62,74.53,291.47,74.71z M316.54,77.61c-0.09-0.27-0.17-0.55-0.26-0.82c1.13,0,2.26,0,3.4,0
		c0.01,0.15,0.01,0.31,0.02,0.46C318.64,77.37,317.59,77.49,316.54,77.61z"/>
	<path class="st0" d="M57.03,632.33c16.96-18.28,33.92-36.55,50.88-54.83c5.99-6.46,11.96-12.94,18.78-20.31
		c-9.44,0-17.83,0-26.22,0c-0.16-0.37-0.31-0.74-0.47-1.11c27.03-29.95,54.05-59.91,81.31-90.12c-9.92,0-19.54,0-29.73,0
		c7.91-8.57,15.66-16.96,23.55-25.5c-4.07-1.2-6.91-0.42-9.76,2.62c-7.3,7.78-15.01,15.17-22.55,22.72
		c-0.88,0.88-1.72,1.82-3.36,3.57c11.51,0,22.07,0,32.64,0c0.14,0.36,0.28,0.73,0.42,1.09c-28,29.65-55.99,59.31-84.63,89.64
		c9.43,0.69,18.12,1.34,27.57,2.03c-20.02,23.37-39.68,46.31-59.33,69.25C56.42,631.69,56.73,632.01,57.03,632.33z"/>
	<path class="st0" d="M629.75,631.37c-17.49-20.39-34.99-40.78-52.48-61.17c-2.15-2.5-4.29-5-6.92-8.06
		c9.37-0.69,18.09-1.33,27.47-2.01c-1.25-1.4-2.03-2.33-2.87-3.22c-10.06-10.67-20.19-21.27-30.12-32.06
		c-2.21-2.4-16.32-17.03-17.42-18.22c-10.31-11.14-20.79-22.11-31.22-33.15c-0.93-0.98-1.8-2.02-3.54-3.98c11.64,0,22.19,0,32.73,0
		c0.3-0.53,0.6-1.06,0.91-1.59c-1.32-0.94-2.78-1.73-3.92-2.86c-7.23-7.14-14.39-14.35-21.58-21.53c-3.94-3.94-3.94-3.94-10.16-3.18
		c7.92,8.57,15.65,16.93,23.68,25.62c-9.98,0-19.61,0-29.48,0c0.62,0.78,1.24,1.64,1.95,2.43c12.31,13.67,24.67,27.28,36.86,41.05
		c1.18,1.33,14.83,16.14,16.68,18.23c8.4,9.51,16.97,18.89,26.38,29.32c-9.52,0-17.99,0-26.45,0c-0.08,0.36-0.16,0.72-0.24,1.09
		c2.75,2.98,5.49,5.96,8.25,8.93c20.2,21.78,40.39,43.56,60.59,65.34C629.14,632.01,629.45,631.69,629.75,631.37z"/>
	<path class="st0" d="M56.85,283.26c0,2.65,0,5.45,0,8.47c50.64,0,101.21,0,151.97,0c0-2.61,0-5.24,0-8.47
		C158.3,283.26,107.75,283.26,56.85,283.26z"/>
	<path class="st0" d="M391.49,730.65c-30.68,0-61.35,0-93.07,0c2.98,2.55,5.17,4.78,7.7,6.54c12.29,8.55,26.01,13.19,40.9,11.53
		c7.61-0.85,15.08-4.02,22.32-6.89c7.67-3.04,14.99-6.95,22.46-10.49C391.7,731.11,391.59,730.88,391.49,730.65z"/>
	<path class="st0" d="M346.37,198.52c3.88,2.94,8.4,2.06,12.75,2.07c11.93,0.03,23.86,0.01,36.08,0.01
		c-1.48-3.34-1.82-6.36,2.58-7.87c0.52-0.18,0.47-2.04,0.76-3.56c-10.8,0-21.19,0.02-31.58-0.01c-5.39-0.01-11.01-1.08-16.12,0.1
		c-5.91,1.37-11.21,0.58-17.04,0.14c-15.7-1.18-31.55-0.4-47.92-0.4c0.31,1.63,0.22,3.53,0.79,3.76c4.03,1.61,4.46,4.21,2.29,7.57
		c6.07,0,11.79-0.03,17.5,0.01c7.96,0.06,15.93,0.01,23.88,0.32c3.39,0.13,5.89-0.71,7.8-3.57c1.13-1.7,2.62-3.16,4.16-4.98
		c0.94,1.47,1.79,2.81,2.65,4.14c0,0-0.11-0.09-0.11-0.09c0.29,0.29,0.58,0.57,0.87,0.86c0,0-0.07-0.1-0.07-0.1
		c0.27,0.55,0.53,1.1,0.8,1.65L346.37,198.52z"/>
	<path class="st0" d="M197.52,254.14c-1.79,0.07-3.58,0.19-5.36,0.19c-24.54,0.01-49.08-0.02-73.62,0.02
		c-27.23,0.05-54.46,0.16-81.69,0.25c-0.86,0-1.72,0-3.2,0c1.4,1.07,2.3,1.76,3.21,2.45l-0.05-0.09c9.38,4.98,19.6,2.8,29.4,2.95
		c38,0.55,76.01,0.5,114.01,0.67c6.89,0.03,13.78,0,21.34,0c-1.38-1.6-2.58-2.83-3.56-4.22c-0.42-0.6-0.38-1.52-0.55-2.3
		C197.43,254.05,197.52,254.14,197.52,254.14z"/>
	<path class="st0" d="M488.43,254.03c-0.33,0.97-0.48,2.05-1.02,2.88c-0.76,1.16-1.8,2.13-3.37,3.92c6.04,0,11.33,0.04,16.61-0.01
		c17.84-0.16,35.69-0.39,53.53-0.5c22.09-0.14,44.18-0.16,66.27-0.27c6.54-0.03,13.11,0.12,19.62-0.37
		c3.06-0.23,6.01-1.79,9.01-2.75c0,0-0.04,0.09-0.04,0.09c0.86-0.64,1.73-1.28,2.99-2.21c-1.37-0.08-2.41-0.2-3.45-0.2
		c-17.73-0.01-35.45,0.02-53.18-0.01c-33.91-0.06-67.81-0.16-101.72-0.26c-1.78-0.01-3.57-0.14-5.35-0.21L488.43,254.03z"/>
	<path class="st0" d="M67.91,634.69c20.99-14.56,42-29.11,62.98-43.69c15.61-10.85,31.19-21.74,46.79-32.61
		c0.93-0.65,1.85-1.29,3.51-2.46c-7.89-0.96-14.93-1.81-22.46-2.72c0.7-0.85,1.13-1.53,1.71-2.03
		c14.03-12.28,27.91-24.74,42.22-36.69c4.53-3.78,6.95-7.57,5.14-13.81c-20.37,18.74-40.7,37.44-61.8,56.86c8.03,0,15.13,0,22.23,0
		c0.11,0.3,0.22,0.59,0.33,0.89c-1.02,0.82-2.01,1.69-3.06,2.46c-31.92,23.61-63.84,47.22-95.76,70.83
		c-0.93,0.68-1.8,1.44-2.69,2.17C67.33,634.15,67.62,634.42,67.91,634.69z"/>
	<path class="st0" d="M618.84,633.89c-24.97-18.52-49.93-37.05-74.9-55.57c-8.84-6.55-17.68-13.1-26.37-20.42c7.07,0,14.13,0,21.2,0
		c0.14-0.33,0.28-0.66,0.41-0.98c-20.31-18.7-40.62-37.4-61.28-56.41c-0.69,5.34-0.47,9.24,4.12,13.03
		c14.77,12.2,28.99,25.05,43.44,37.63c0.56,0.48,1.31,0.74,1.97,1.11c-0.18,0.32-0.37,0.65-0.55,0.97
		c-7.07,0.85-14.14,1.71-21.66,2.61c0.64,0.69,0.94,1.17,1.37,1.47c36.78,25.62,73.57,51.24,110.36,76.84
		c0.31,0.22,0.67,0.36,1.01,0.53C618.25,634.42,618.55,634.16,618.84,633.89z"/>
	<path class="st0" d="M327.46,678.48c0,11.04,0,21.66,0,32.55c10.1,0,20.07,0,30.66,0c0-10.54,0-21.26,0-32.24
		c-5.37-0.67-10.99-0.67-15.8,4.33C338.75,676.6,333.06,678.49,327.46,678.48z"/>
	<path class="st0" d="M340.07,142.23c6.53-0.14,12.83-1.14,18.33-4.92c6.64-4.56,6.65-11.01,0.11-15.66
		c-9.28-6.6-27.37-6.57-36.6,0.04c-6.5,4.66-6.44,11.11,0.23,15.66C327.53,141.04,333.7,142.05,340.07,142.23z"/>
	<path class="st0" d="M528.71,291.76c33.66,0,66.9,0,100.27,0c0-2.97,0-5.76,0-9.1c-4.11,0-8.29-0.02-12.48,0
		c-26.21,0.16-52.42,0.44-78.63,0.39c-3.8-0.01-5.97,0.96-7.1,4.52C530.37,288.89,529.56,290.08,528.71,291.76z"/>
	<path class="st0" d="M455.06,67.43c-2.01-0.43-3.86-0.83-5.87-1.26c0,46.72,0,93.1,0,139.76c1.99-0.17,3.85-0.32,5.87-0.49
		C455.06,159.52,455.06,113.67,455.06,67.43z"/>
	<path class="st0" d="M457.24,82.97c0,34.14,0,68.27,0,102.85c1.98-6.78,3.87-13.22,5.76-19.67c2.91-9.96,5.86-19.91,8.68-29.9
		c0.4-1.41,0.62-3.11,0.23-4.48c-4.52-16.27-9.18-32.51-13.8-48.75C457.83,83.01,457.54,82.99,457.24,82.97z"/>
	<path class="st0" d="M472.99,437.77c1-0.07,2-0.2,3.01-0.2c20.94-0.1,41.88-0.18,62.83-0.27c0.88,0,1.77-0.11,2.9-0.19
		c-0.19-2.92-0.37-5.7-0.6-9.17c-25.12,0-49.99,0-75.06,0c0.05,0.29,0.18,1.17,0.31,2.04c0,0,0.09,0.08,0.09,0.08
		c1.74,0.92,3.84,1.62,2.67,4.34c0.2,0,0.3,0.1,0.31,0.3c0.3-0.14,0.61-0.28,0.91-0.42c0.12,0.41,0.25,0.83,0.37,1.24l-0.08-0.08
		c0.3-0.02,0.59-0.03,0.89-0.05c-0.01,0.3-0.02,0.59-0.03,0.89l-0.07-0.07c0.28,0.28,0.57,0.56,0.85,0.84l-0.07-0.07
		c0.28,0.28,0.56,0.56,0.85,0.84L472.99,437.77z"/>
	<path class="st0" d="M220.24,429.97c-0.19-0.87-0.37-1.74-0.44-2.05c-24.96,0-49.86,0-75.05,0c-0.22,3.44-0.41,6.22-0.6,9.16
		c1.1,0.09,1.97,0.21,2.85,0.21c21.6,0.08,43.2,0.14,64.81,0.22c0.36,0,0.72,0.17,1.08,0.25c0,0-0.05,0.05-0.05,0.05
		c0.28-0.28,0.56-0.56,0.85-0.84l-0.07,0.07c0.28-0.28,0.57-0.56,0.85-0.84l-0.07,0.07c-0.01-0.3-0.02-0.59-0.04-0.89
		c0.3,0.02,0.59,0.03,0.89,0.05l-0.08,0.08c0.12-0.41,0.25-0.83,0.37-1.24c0.3,0.14,0.61,0.28,0.91,0.42
		c0.01-0.19,0.12-0.29,0.31-0.3c-0.52-2.42,1.03-4.32,3.53-4.34L220.24,429.97z"/>
	<path class="st0" d="M325.18,678.15c-6.93,0.32-13.64,0.64-20.8,0.97c2.01,11.81-0.58,22.2-7.46,31.84c9.4,0,18.76,0,28.26,0
		C325.18,699.95,325.18,689.23,325.18,678.15z"/>
	<path class="st0" d="M381.58,679.12c-7.23-0.34-13.87-0.65-20.79-0.98c0,10.9,0,21.62,0,32.75c9.28,0,18.66,0,28.11,0
		C382.2,701.48,379.42,691.17,381.58,679.12z"/>
	<path class="st0" d="M406.63,73.55c2.31-0.04,4.62-0.07,6.94-0.11c0.09,0,0.17-0.13,0.38-0.29c-2.57-3.64-5.73-5.19-10.48-5.17
		c-29.68,0.16-59.37-0.08-89.05-0.12c-10.79-0.01-21.59,0.38-32.38,0.14c-4.84-0.11-8.86,0.64-11.89,5.61c7.27,0,14.34,0,21.41,0
		c12.12-0.01,24.24-0.02,36.36-0.03c9.5-2.74,19-2.74,28.49,0c12.12,0.01,24.24,0.02,36.36,0.03c4.09-0.02,8.18-0.04,12.27-0.06
		C405.57,73.55,406.1,73.55,406.63,73.55z"/>
	<path class="st0" d="M401.78,722.67c-39.32,0-78.39,0-117.47,0c0.98,5.11,2.12,6.11,6.97,6.11c34.32,0,68.64,0,102.96,0
		C399.48,728.78,400.08,728.31,401.78,722.67z"/>
	<path class="st0" d="M488.35,254.12c4.63-5.08,9.24-10.18,13.92-15.22c2.01-2.17,13.57-14.32,14.49-15.26
		c8.6-8.84,17.07-17.81,26.16-27.35c-8.76-0.39-16.93-0.76-25.99-1.16c16.02-17.95,31.6-35.4,47.18-52.85
		c-0.29-0.29-0.57-0.58-0.86-0.87c-17.82,18.65-35.64,37.3-54.08,56.6c8.4,0.82,15.98,1.57,24.02,2.35
		c-0.69,0.93-1.18,1.74-1.8,2.41c-4.55,4.9-9.07,9.82-13.71,14.63c-2.44,2.53-15.99,16.96-17.46,18.58
		c-7.24,7.97-14.65,15.78-22,23.64c0.2,0.37,0.4,0.75,0.6,1.12c1.54-0.72,3.24-1.24,4.6-2.22c1.81-1.31,3.36-2.98,5.02-4.49
		C488.43,254.03,488.35,254.12,488.35,254.12z"/>
	<path class="st0" d="M122.51,143.09c15.32,17.17,30.65,34.34,45.97,51.52c-0.12,0.35-0.24,0.71-0.36,1.06c-8.13,0-16.27,0-25.47,0
		c1.71,1.94,2.56,2.97,3.48,3.93c16.41,17.19,32.84,34.37,49.23,51.57c0.83,0.88,1.44,1.97,2.15,2.96c0,0-0.08-0.09-0.08-0.09
		c1.66,1.51,3.22,3.14,5.02,4.47c1.37,1.01,3.03,1.63,4.56,2.43c0.27-0.38,0.53-0.77,0.8-1.15c-18.36-19.64-36.72-39.28-55.53-59.4
		c8.23-0.8,15.81-1.53,24.43-2.37c-18.17-19.02-35.75-37.43-53.34-55.84C123.09,142.49,122.8,142.79,122.51,143.09z"/>
	<path class="st0" d="M222.46,104.9c-6.71,9.27-12.93,17.87-19.35,26.74c6.31,8.73,12.59,17.42,19.35,26.78
		C222.46,140.37,222.46,123.15,222.46,104.9z"/>
	<path class="st0" d="M161.96,157.59c17.68,12.71,35.36,25.42,53.05,38.14c-0.01,0.28-0.03,0.56-0.04,0.85c-5.73,0-11.46,0-17.19,0
		c-0.07,0.33-0.14,0.66-0.21,1c6.04,5.47,12.07,10.95,18.11,16.42c8.67,7.85,17.47,15.54,25.93,23.6c3.17,3.02,6.19,4.24,10.41,2.19
		c-14.77-12.3-29.54-24.59-45.17-37.59c7.02-0.37,13.14-0.69,20.12-1.06c-1.55-1.2-2.36-1.91-3.24-2.51
		c-20.28-13.96-40.57-27.91-60.86-41.86C162.57,157.04,162.27,157.32,161.96,157.59z"/>
	<path class="st0" d="M523,156.77c-19.13,13.15-38.25,26.3-57.37,39.45c-2,1.37-3.97,2.77-6.96,4.86
		c7.15,0.39,13.28,0.73,20.35,1.12c-15.5,12.9-30.32,25.25-45.22,37.65c4.26,1.87,7.25,0.77,10.49-2.25
		c13.63-12.69,27.55-25.07,41.36-37.57c0.9-0.82,1.77-1.67,3.46-3.28c-6.71,0-12.4,0-18.1,0c-0.09-0.31-0.18-0.62-0.27-0.93
		c17.72-12.75,35.44-25.49,53.17-38.24C523.6,157.32,523.3,157.05,523,156.77z"/>
	<path class="st0" d="M226.63,168.28c5.18-1.05,5.69-3.67,5.65-7.3c-0.19-18.99-0.02-37.98-0.18-56.97
		c-0.02-2.26-1.25-4.51-1.95-6.85c-4.69,1.82-5.64,4.5-5.6,8.45c0.21,18.47,0.02,36.95,0.18,55.43
		C224.76,163.48,225.98,165.91,226.63,168.28z"/>
	<path class="st0" d="M326.66,237.27c-2.99-1.11-5.98-2.21-8.97-3.32c-0.33,0.51-0.66,1.02-1,1.53
		c8.72,10.93,17.44,21.86,26.42,33.12c8.77-10.62,17.34-21,26.24-31.78c-4.81-0.47-8.59-0.64-11.88,3.51
		c-4.29,5.42-9.38,10.2-14.37,15.5c-5.54-5.95-10.94-11.74-16.31-17.56c-0.17-0.18-0.02-0.67-0.01-1.01
		C326.79,237.25,326.66,237.27,326.66,237.27z"/>
	<path class="st0" d="M225.97,312.38c0,28.86,0,57.33,0,85.93c3.95-2.51,5.43-5.65,5.37-10.33c-0.27-21.71-0.25-43.43-0.01-65.15
		C231.38,318.22,230.13,314.91,225.97,312.38z"/>
	<path class="st0" d="M459.86,312.43c-3.98,2.47-5.39,5.66-5.33,10.31c0.26,21.72,0.26,43.44,0,65.15
		c-0.05,4.64,1.3,7.88,5.33,10.41C459.86,369.62,459.86,341.08,459.86,312.43z"/>
	<path class="st0" d="M462.1,453.07c-4.06,2.48-5.48,5.59-5.43,10.24c0.25,25.43,0.28,50.86-0.02,76.28
		c-0.06,4.82,1.5,7.96,5.46,10.73C462.1,517.87,462.1,485.64,462.1,453.07z"/>
	<path class="st0" d="M223.78,550.28c3.97-2.69,5.51-5.84,5.45-10.65c-0.3-25.43-0.27-50.86-0.02-76.29
		c0.05-4.65-1.4-7.76-5.43-10.29C223.78,485.48,223.78,517.74,223.78,550.28z"/>
	<path class="st0" d="M361.8,54.77c-17.99,0.04-35.98,0.15-53.97,0.07c-5-0.02-9.34,1.01-12.8,5.28c31.43,0,62.68,0,93.84,0
		c-3.36-4.49-4.37-4.86-14.64-5.35C370.09,54.77,365.94,54.77,361.8,54.77z"/>
	<path class="st0" d="M374.08,53.22c-15.5-14.46-48.95-13.01-62.94,0.4c17.46,0,34.07,0,50.67,0
		C365.9,53.48,369.99,53.35,374.08,53.22z"/>
	<path class="st0" d="M321.81,645.42c-2.94,0-5.88,0-9.62,0c10.55,11.95,20.67,23.43,31.11,35.26c9.81-11.34,19.43-22.44,29.6-34.19
		c-3.43,0.1-6.22-1.01-8.2,1.96c-0.07,0.11-0.79-0.22-1.21-0.35c0,0-0.09-0.03-0.09-0.03c0.12,0.58,0.55,1.42,0.32,1.7
		c-6.55,7.69-13.17,15.33-19.99,23.22c-4.33-5.29-8.38-10.25-12.43-15.2c-0.2-0.02-0.32-0.14-0.35-0.34
		c-1.42-1.94-2.84-3.89-4.26-5.83c-0.64-0.37-1.27-0.75-1.91-1.12c-0.27-0.68-0.53-1.35-0.8-2.03l0.04,0.08
		c-0.53-0.53-1.07-1.06-1.6-1.59c0,0,0.05,0.06,0.05,0.06c-0.26-0.55-0.53-1.11-0.79-1.66L321.81,645.42z"/>
	<path class="st0" d="M390.59,62.1c-32.44,0-64.44,0-96.85,0c1.41,3.01,2.98,4.33,6.04,4.32c28.27-0.11,56.55-0.11,84.82,0
		C387.67,66.42,389.21,65.09,390.59,62.1z"/>
	<path class="st0" d="M336.59,676.81c-4.04-4.6-7.08-8.25-10.35-11.67c-0.82-0.86-2.41-1.36-3.66-1.37
		c-6.16-0.07-12.33,0.1-18.49,0.16c-4.73,0.04-6.52,1.59-6.71,5.85c-0.15,3.45,2.67,6.92,6.23,6.97
		C314.24,676.91,324.86,676.81,336.59,676.81z"/>
	<path class="st0" d="M349.29,676.81c11.68,0,22.3,0.1,32.92-0.05c3.63-0.05,6.42-3.43,6.29-6.93c-0.16-4.25-2-5.85-6.68-5.9
		c-6.29-0.06-12.58-0.2-18.88-0.21c-0.94,0-2.2,0.2-2.77,0.81C356.71,668.26,353.41,672.12,349.29,676.81z"/>
	<path class="st0" d="M476.95,283.34c0,3.11,0,5.64,0,8.38c16.84,0,33.59,0,50.33,0c0-0.28,0.07-0.54-0.01-0.74
		c-2.3-6.06-6.24-8.28-13.09-7.85C501.91,283.89,489.56,283.34,476.95,283.34z"/>
	<path class="st0" d="M317.47,606.32c-3.38-4.25-6.38-7.2-12.2-6.89c-11.03,0.58-22.11,0.17-33.16,0.17
		c-5.82,0-7.63,1.08-11.16,6.72C279.66,606.32,298.32,606.32,317.47,606.32z"/>
	<path class="st0" d="M425.25,606.18c-3.25-3.86-6.01-7.12-11.95-6.76c-10.38,0.63-20.84,0.56-31.23,0.03
		c-5.93-0.3-10.09,1.52-13.45,6.73C387.54,606.18,406.23,606.18,425.25,606.18z"/>
	<path class="st0" d="M324.78,650.5c0.64,0.37,1.27,0.75,1.91,1.12c1.49,1.3,3.05,2.54,4.43,3.95c0.29,0.29-0.09,1.24-0.17,1.88
		c0.03,0.2,0.15,0.31,0.35,0.34c0.82,0.22,1.91,0.17,2.41,0.7c3.4,3.59,6.67,7.3,10.04,11.04c6.7-7.31,13.17-14.39,19.65-21.46
		c0,0,0.09,0.03,0.09,0.03c0.07-1.34,0.73-3.06,0.13-3.97c-6.48-9.98-13.16-19.84-20.04-30.11c-5.43,7.67-10.71,15.05-15.91,22.49
		c-2.04,2.92-3.92,5.95-5.87,8.93c0,0-0.13-0.06-0.13-0.06c0.26,0.55,0.53,1.11,0.79,1.66c0,0-0.05-0.06-0.05-0.06
		c0.53,0.53,1.07,1.06,1.6,1.59c0,0-0.04-0.08-0.04-0.08C324.25,649.15,324.52,649.82,324.78,650.5z M361.54,645.93
		c-6.1,6.53-11.93,12.78-17.96,19.23c-6.4-7.01-12.59-13.79-18.74-20.53c6.37-8.97,12.5-17.6,18.76-26.42
		C349.67,627.6,355.52,636.63,361.54,645.93z"/>
	<path class="st0" d="M396.25,218.18c-4.43-4.42-9.62-6.77-16.1-6.51c-7.15,0.29-14.33,0.07-21.68,0.07
		c2.3,3.24,4.76,6.91,7.47,10.38c0.54,0.69,2.06,0.83,3.13,0.84c6.29,0.07,12.61-0.26,18.88,0.14
		C392.16,223.38,394.73,221.9,396.25,218.18z"/>
	<path class="st0" d="M326.62,210.83c-10.43,0.52-20.03,0.6-29.51,1.71c-3.22,0.38-6.14,3.34-9.19,5.11
		c1.59,4.18,4.05,5.72,8.28,5.45c6.27-0.4,12.59,0.04,18.88-0.21c1.49-0.06,3.32-1.06,4.31-2.22
		C321.84,217.81,323.9,214.59,326.62,210.83z"/>
	<path class="st0" d="M266.34,548.87c-5.74,3.64-7.8,8-7.52,14.36c0.55,12.43,0.16,24.9,0.16,37.35c0,1.23,0,2.47,0,3.7
		c0.28,0.16,0.56,0.33,0.85,0.49c1.79-1.92,3.67-3.76,5.33-5.79c0.65-0.8,1.13-2.01,1.13-3.03
		C266.36,580.43,266.34,564.91,266.34,548.87z"/>
	<path class="st0" d="M426.88,604.66c0-16.21,0.3-31.98-0.28-47.72c-0.1-2.78-3.9-5.42-5.99-8.13c-0.29,0.15-0.59,0.31-0.88,0.46
		c0,9.83,0,19.66,0,29.49c0,3.85,0.55,7.8-0.12,11.53C418.43,596.82,421.4,600.93,426.88,604.66z"/>
	<path class="st0" d="M341.7,600.48c-10.14,14.55-19.72,28.29-29.44,42.23c5.17,1.15,8.8,0.48,11.75-4.34
		c4.34-7.09,9.43-13.76,14.47-20.4c2.76-3.64,4.6-7.26,3.52-11.95C341.67,604.55,341.82,602.97,341.7,600.48z"/>
	<path class="st0" d="M283.62,202.94c-0.93,5,0.53,7.03,4.68,6.92c12.3-0.31,24.6-0.97,36.89-0.88c4.8,0.04,5.76-3.15,7.74-6.04
		C316.32,202.94,299.91,202.94,283.62,202.94z"/>
	<path class="st0" d="M400.65,202.92c-16.24,0-32.6,0-49.01,0c1.45,3.58,3.31,6.17,8.34,6.13c12.17-0.1,24.34,0.55,36.51,0.81
		C400.29,209.93,401.65,207.75,400.65,202.92z"/>
	<path class="st0" d="M391.99,166.2c-0.48,0.77-1.36,1.53-1.39,2.32c-0.13,4.58-0.07,9.17-0.07,13.8c-10.32,0-20.16,0.24-29.98-0.11
		c-4.43-0.16-7.63,1.13-10.27,4.96c15.57,0,30.95,0,47.18,0c-0.49-5.37-0.94-10.36-1.39-15.35c-0.09-0.36-0.17-0.72-0.26-1.09
		c0,0-0.02-0.01-0.02-0.01c-0.24-0.24-0.48-0.49-0.73-0.73c0,0-0.05-0.05-0.05-0.05c-0.24-0.24-0.48-0.49-0.73-0.73
		c0,0-0.03-0.04-0.03-0.04c-0.25-0.49-0.5-0.99-0.75-1.48c0,0-0.03-0.06-0.03-0.06c-0.49-0.26-0.99-0.52-1.48-0.78
		c-0.03-0.26-0.06-0.51-0.09-0.77L391.99,166.2z"/>
	<path class="st0" d="M420.59,262.81c-18.72,0-37.13,0-55.75,0c2.87,4.26,6.16,6.33,11.47,6.11c11.29-0.47,22.62-0.43,33.92-0.01
		C415.24,269.09,418.47,267.59,420.59,262.81z"/>
	<path class="st0" d="M321.31,262.77c-18.98,0-37.39,0-56.17,0c2.3,3.87,4.38,6.42,9.52,6.17c11.28-0.55,22.61-0.17,33.92-0.17
		C315.9,268.77,315.9,268.77,321.31,262.77z"/>
	<path class="st0" d="M288.26,171.81c-0.47,4.9-0.94,9.79-1.46,15.21c16.05,0,31.46,0,47.17,0c-2.35-2.67-4.43-4.95-8.65-4.81
		c-10.34,0.33-20.69,0.11-31.53,0.11c0-4.62,0.07-9.2-0.07-13.79c-0.02-0.79-0.9-1.55-1.39-2.33c0,0,0.07-0.11,0.07-0.11
		c0.04,0.09,0.12,0.19,0.1,0.27c-0.04,0.17-0.12,0.33-0.19,0.5c-0.49,0.26-0.99,0.52-1.48,0.78c0,0-0.03,0.06-0.03,0.06
		c-0.25,0.49-0.5,0.99-0.75,1.48c0,0-0.03,0.04-0.03,0.04c-0.24,0.24-0.48,0.49-0.73,0.73c0,0-0.05,0.05-0.05,0.05
		c-0.24,0.24-0.48,0.49-0.73,0.73c0,0-0.02,0.01-0.02,0.01C288.43,171.09,288.34,171.45,288.26,171.81z"/>
	<path class="st0" d="M337.2,83.45c-0.19,0.77-0.16,1.75-0.62,2.29c-2.48,2.89-5.08,5.68-7.9,8.79c-2.37-1.6-4.75-3.21-7.19-4.86
		c-1.99,3.13-1.61,5.41,1.68,7.1c0.93,0.48,1.61,1.46,2.41,2.21c0,0-0.04-0.06-0.04-0.06c0.28,0.28,0.56,0.56,0.84,0.85
		c0,0-0.05-0.04-0.05-0.04c1.19,0.48,2.39,0.95,3.82,1.52c3.88-5.22,7.84-10.55,12-16.15c4.11,5.52,8.11,10.88,12.03,16.14
		c1.42-0.56,2.62-1.04,3.81-1.51l-0.05,0.04c0.28-0.28,0.56-0.57,0.84-0.85l-0.04,0.06c0.7-0.68,1.29-1.6,2.13-2.01
		c3.31-1.62,4.15-3.9,2.01-7.31c-2.25,1.53-4.57,3.09-7.22,4.89c-2.97-3.3-5.96-6.61-8.9-9.96c-0.14-0.16,0.23-0.75,0.36-1.14
		l0.09,0.11c-1.79-1.24-3.58-2.48-5.01-3.48c-1.65,1.13-3.38,2.3-5.1,3.48C337.11,83.56,337.2,83.45,337.2,83.45z"/>
	<path class="st0" d="M264.17,314.49c1.05,0.08,2.1,0.15,3.75,0.27c0-1.05,0-2.39,0-3.72c0-12.34-0.26-24.69,0.14-37.01
		c0.15-4.56-1.9-7.05-5.6-9.78c0,5.57,0,10.63,0,15.7c0,9.13-0.07,18.25,0.05,27.38c0.03,2.2,0.71,4.4,1.09,6.59
		C263.79,314.1,263.98,314.3,264.17,314.49z"/>
	<path class="st0" d="M422.22,313.96c0.4-1.94,1.13-3.88,1.14-5.82c0.1-14.4,0.05-28.79,0.05-43.98c-2.83,2.59-5.62,4.03-5.56,8.27
		c0.22,14.12,0.08,28.24,0.08,42.35c1.4-0.1,2.56-0.18,3.71-0.25C421.84,314.35,422.03,314.15,422.22,313.96z"/>
	<path class="st0" d="M264.14,546.86c-9.04,0-17.65,0-26.25,0c-7.86,0-7.86,0-14.36,7.77c4.7,0,9,0,13.29,0c4.62,0,9.25,0,13.87,0
		C257.89,554.63,259.43,553.77,264.14,546.86z"/>
	<path class="st0" d="M462.32,553.67c-1.98-1.81-3.88-3.71-5.97-5.37c-0.92-0.73-2.23-1.37-3.37-1.38
		c-9.99-0.1-19.99-0.06-29.98-0.04c-0.33,0-0.66,0.23-1.25,0.45c3.68,4.31,6.88,8.07,13.56,7.49c8.75-0.76,17.62-0.19,26.43-0.19
		C461.93,554.31,462.12,553.99,462.32,553.67z"/>
	<path class="st0" d="M326.66,237.27c0,0,0.12-0.01,0.12-0.01c0.95,0.56,2.03,0.99,2.84,1.71c4.82,4.23,9.58,8.53,14.68,13.09
		c4.36-4.93,9.57-10.83,14.88-16.84c-5.35-8.19-10.6-16.2-16.05-24.54c-5.73,7.63-11.31,14.9-16.63,22.35
		C325.86,233.94,326.58,235.83,326.66,237.27z M329.79,233.62c3.95-5.71,8.46-12.23,13.15-18.99c4.44,7,8.73,13.76,13.06,20.59
		c-4.23,4.56-8.24,8.88-12.48,13.45C338.99,243.71,334.52,238.8,329.79,233.62z"/>
	<path class="st0" d="M318.56,228.68c-0.33,1.41-0.67,2.81-1,4.2c4.73,0.67,8.2-0.94,10.79-5.41c2.62-4.53,5.62-8.98,9.17-12.79
		c4.9-5.26,4.4-11.28,3.9-18.46c-4.84,6.98-9.29,13.3-13.63,19.7c-2.51,3.71-4.79,7.58-7.27,11.31c-0.43,0.65-1.33,0.99-2.01,1.47
		C318.51,228.71,318.56,228.68,318.56,228.68z"/>
	<path class="st0" d="M324.78,720.06c0-2.42,0-4.55,0-6.97c-9.48,0-18.79-0.05-28.1,0.03c-2.77,0.02-4.16,1.88-4.29,4.46
		c-0.16,3.12,2.34,2.45,4.11,2.46C305.81,720.09,315.13,720.06,324.78,720.06z"/>
	<path class="st0" d="M54.58,294.05c6.54,10.99,13.04,21.91,19.6,32.92c2.78-4.8,2.65-8.92-0.57-13.3
		c-3.16-4.31-5.93-8.99-8.23-13.81C63.17,295.22,60.08,293.07,54.58,294.05z"/>
	<path class="st0" d="M631.56,296.17c-5.78-1.37-8.59,1.35-10.81,5.82c-2.32,4.68-4.98,9.26-8.04,13.49
		c-3.14,4.33-3.61,8.47-0.69,13.46C618.56,317.97,625.03,307.12,631.56,296.17z"/>
	<path class="st0" d="M361.1,720.04c9.9,0,19.47,0.04,29.03-0.06c1.1-0.01,3.14-0.86,3.13-1.27c-0.05-1.53-0.55-3.17-1.34-4.5
		c-0.4-0.68-1.78-1.07-2.72-1.08c-9.31-0.08-18.62-0.05-28.1-0.05C361.1,715.51,361.1,717.64,361.1,720.04z"/>
	<path class="st0" d="M543.21,437.44c8.04-12.41,15.53-23.97,23.13-35.69c-4.4-1.05-7.26-0.09-9.49,3.97
		c-3.19,5.82-6.76,11.5-10.79,16.76C542.65,426.93,542.8,431.59,543.21,437.44z"/>
	<path class="st0" d="M119.53,401.73c7.61,11.75,15.16,23.4,23.07,35.61c0.42-5.49,0.81-10.05-2.48-14.43
		c-4.06-5.41-7.77-11.14-11.02-17.07C126.87,401.75,124.03,400.65,119.53,401.73z"/>
	<path class="st0" d="M96.82,364.31c0.84-6.29-0.16-11.32-3.34-16.06c-2.7-4.02-5.25-8.27-7.04-12.75
		c-2.04-5.09-5.62-5.73-10.72-5.15C82.74,341.67,89.6,352.69,96.82,364.31z"/>
	<path class="st0" d="M610.07,330.52c-6.05-1.5-9.05,1.12-11.15,5.93c-1.73,3.97-3.97,7.75-6.31,11.41
		c-3.09,4.83-4.71,9.88-3.44,16.2C596.22,352.75,603.09,341.72,610.07,330.52z"/>
	<path class="st0" d="M422.22,313.96c-0.19,0.19-0.38,0.38-0.57,0.57c-0.91,1.04-1.82,2.09-2.92,3.35c0.89,0.1,1.81,0.27,2.73,0.28
		c7.7,0.02,15.43-0.41,23.09,0.15c5.44,0.4,8.93-1.69,12.02-6.3c-10.61,0-20.93-0.06-31.25,0.09
		C424.28,312.11,423.26,313.31,422.22,313.96z"/>
	<path class="st0" d="M264.17,314.49c-0.19-0.19-0.38-0.38-0.57-0.57c-1.29-0.64-2.58-1.82-3.88-1.84
		c-9.99-0.16-19.99-0.09-30.57-0.09c3.12,3.81,5.68,6.67,11.06,6.33c8.89-0.57,17.85-0.15,27.8-0.15
		C266.27,316.5,265.22,315.5,264.17,314.49z"/>
	<path class="st0" d="M649.42,258.92c-1.23,1.01-2.5,1.97-3.67,3.04c-1.64,1.49-3.57,2.82-4.74,4.64
		c-2.21,3.43-3.74,7.29-5.95,10.71c-3.13,4.84-4.68,9.87-2.9,16.25c6.87-11.57,13.57-22.86,20.33-34.24
		c-1.24-0.12-2.18-0.2-3.11-0.3C649.38,259.01,649.42,258.92,649.42,258.92z"/>
	<path class="st0" d="M36.85,257.04c-0.94,0.08-1.88,0.16-3.12,0.27c6.72,11.35,13.4,22.62,20.66,34.88
		c0.38-5.89,1.13-10.53-2.09-14.85c-1.74-2.33-2.98-5.06-4.29-7.69c-2.4-4.83-4.72-9.67-10.56-11.31c-0.32-0.09-0.43-0.9-0.64-1.38
		C36.8,256.95,36.85,257.04,36.85,257.04z"/>
	<path class="st0" d="M358.78,720.32c0-2.09,0-4.08,0-6.26c-10.55,0-20.99,0-31.61,0c0,2.07,0,4.06,0,6.26
		C337.76,720.32,348.18,720.32,358.78,720.32z"/>
	<path class="st0" d="M365.87,604.73c5.89-3.58,8.23-8,7.5-14.38c-0.57-4.91-0.11-9.94-0.11-14.96c-6.27,1.23-7.39,2.52-7.39,8.32
		C365.87,590.57,365.87,597.44,365.87,604.73z"/>
	<path class="st0" d="M312.62,575.06c0,7.39-0.6,14.48,0.28,21.4c0.38,2.99,3.8,5.6,5.84,8.38c0.33-0.13,0.67-0.25,1-0.38
		c0.09-0.89,0.25-1.78,0.25-2.68c0.02-5.76,0.01-11.53,0.01-17.29C320,577.82,320,577.82,312.62,575.06z"/>
	<path class="st0" d="M347.12,83.45c0.94,0.76,1.88,1.53,3.06,2.48c2.2-2.78,5.72-4.85,4.64-9.37c0,0,0.11,0.06,0.11,0.06
		c-0.32-0.25-0.65-0.5-0.97-0.75c-0.21-0.29-0.42-0.58-0.63-0.87c0,0,0.05,0.05,0.05,0.05c-3.61-0.7-7.23-1.97-10.84-1.95
		c-3.87,0.02-7.74,1.25-11.61,1.95c0,0,0.05-0.05,0.05-0.05c-0.21,0.29-0.42,0.58-0.63,0.87c-0.32,0.25-0.65,0.5-0.97,0.75
		c0,0,0.11-0.06,0.11-0.06c-1.16,4.38,2.31,6.43,4.57,9.33c1.12-0.87,2.12-1.66,3.13-2.44c0,0-0.09,0.11-0.09,0.11
		c0.32-1.61-2.21-4.07,0.73-4.73c2.77-0.62,5.89-0.62,8.66,0c2.93,0.66,0.41,3.12,0.73,4.73C347.22,83.56,347.12,83.45,347.12,83.45
		z"/>
	<path class="st0" d="M588.2,368.55c-4.78-1.68-7.72-0.51-9.95,3.81c-2.35,4.54-5.16,8.92-8.32,12.94
		c-3.11,3.94-3.19,8.06-2.35,13.41C574.65,388.35,581.33,378.58,588.2,368.55z"/>
	<path class="st0" d="M118.18,398.57c1.44-5.72,0.39-10-2.74-14.06c-2.81-3.65-5.32-7.59-7.5-11.64c-2.21-4.11-4.82-6.52-10.15-4.22
		C104.44,378.41,111.15,388.25,118.18,398.57z"/>
	<path class="st0" d="M584.37,327.8c8.88,0,16.55,0,24.66,0c-0.36-2.71-0.68-5.06-1-7.43c-5.78,0-11.43-0.73-16.72,0.32
		C588.79,321.19,586.93,325.05,584.37,327.8z"/>
	<path class="st0" d="M473.91,409.96c-2-2.05-3.6-3.69-5.51-5.65c-5.35,6.51-10.56,12.84-15.98,19.44
		c4.37,1.01,7.49,0.45,10.31-2.82C466.06,417.08,470,413.74,473.91,409.96z"/>
	<path class="st0" d="M233.2,423.44c-5.15-6.27-10.3-12.54-15.42-18.77c-1.8,1.86-3.46,3.58-5.5,5.68
		c4.17,4.05,8.46,8.66,13.29,12.62c1.68,1.38,4.69,1.13,7.09,1.63C232.84,424.22,233.02,423.83,233.2,423.44z"/>
	<path class="st0" d="M340.54,146.82c-2.42,2.24-5.78,5.35-9.2,8.51c4.45,2.67,9.25,2.94,19.58,1.37
		C347.77,153.7,344.33,150.42,340.54,146.82z"/>
	<path class="st0" d="M466.46,430.06c0,0-0.09-0.08-0.09-0.08c-0.43-0.06-1.11,0.03-1.25-0.2c-2.5-4.13-6.27-4.84-11.16-3.79
		c0.8,0.99,1.48,1.92,2.26,2.76c3.47,3.78,7.08,7.43,10.4,11.33c1.59,1.87,3.13,3.07,5.64,2.36c0,0-0.05,0.04-0.05,0.04
		c0.28-0.29,0.57-0.57,0.85-0.86c0,0-0.08,0.06-0.08,0.06c0-1.31,0.01-2.62,0.01-3.93c0,0,0.05,0.05,0.05,0.05
		c-0.28-0.28-0.56-0.56-0.85-0.84c0,0,0.07,0.07,0.07,0.07c-0.28-0.28-0.57-0.56-0.85-0.84c0,0,0.07,0.07,0.07,0.07
		c-0.28-0.28-0.57-0.56-0.85-0.84c0,0,0.08,0.08,0.08,0.08c-0.43-0.27-0.86-0.55-1.29-0.82c-0.01-0.2-0.12-0.3-0.31-0.3
		C468.23,432.95,467.35,431.51,466.46,430.06z"/>
	<path class="st0" d="M212.09,440.12c1.53,0.88,3.06,1.76,4.59,2.64c0.29-0.1,0.58-0.19,0.87-0.29c0,0,0.02-0.02,0.02-0.02
		c2.02-2.35,4.03-4.71,6.05-7.06c0.3,0.04,0.59,0.08,0.89,0.12c0,0-0.05,0.03-0.05,0.03c-0.02-0.3-0.04-0.6-0.06-0.9
		c0.3,0.02,0.6,0.04,0.9,0.06c0,0-0.07,0.07-0.07,0.07c-0.02-0.3-0.04-0.6-0.06-0.9c0.3,0.02,0.6,0.04,0.9,0.06
		c0,0-0.05,0.07-0.05,0.07c0.25-0.69,0.51-1.37,0.76-2.06c1.03-0.4,2.06-0.79,3.08-1.17c0.38-1.47,0.77-2.94,1.17-4.47
		c-4.06-1.49-5.28-1.1-10.78,3.67c0,0,0.03,0.09,0.03,0.09c-1.18,1.45-2.35,2.89-3.53,4.34c-0.2,0-0.3,0.1-0.31,0.3
		c-0.43,0.27-0.86,0.55-1.29,0.82c0,0,0.08-0.08,0.08-0.08c-0.28,0.28-0.57,0.56-0.85,0.84c0,0,0.07-0.07,0.07-0.07
		c-0.28,0.28-0.57,0.56-0.85,0.84c0,0,0.07-0.07,0.07-0.07c-0.28,0.28-0.56,0.56-0.85,0.84c0,0,0.05-0.05,0.05-0.05
		C212.62,438.56,212.35,439.34,212.09,440.12z"/>
	<path class="st0" d="M457.77,451.87c-6.86,0-13.72,0-20.81,0c0,2.17,0,4.17,0,6.54c4.63,0,9.37,0.68,13.76-0.25
		c2.76-0.59,5.01-3.6,7.49-5.52C458.06,452.38,457.92,452.12,457.77,451.87z"/>
	<path class="st0" d="M395.9,711.27c-1.84-2.86-3.78-5.66-5.51-8.58c-3.1-5.24-2.05-11.21-2.83-16.87c-0.32-2.3-1.37-4.51-2.08-6.76
		c-0.67,0.1-1.35,0.2-2.02,0.29c0,2.68-0.17,5.37,0.03,8.03c0.6,7.76,2.27,15.24,7.19,21.52c1.14,1.46,3.09,2.28,4.67,3.39
		C395.53,711.96,395.71,711.61,395.9,711.27z"/>
	<path class="st0" d="M290.39,712.19c1.56-1,3.56-1.67,4.62-3.05c6.05-7.9,7.6-17.17,7.5-26.84c-0.01-0.76-0.19-1.52-0.35-2.27
		c-0.04-0.21-0.31-0.36-1.03-1.17c-0.93,1.6-2.12,2.9-2.46,4.4c-0.54,2.35-0.7,4.84-0.68,7.27c0.06,7.49-2.03,14.09-7.51,19.43
		c-0.34,0.33-0.53,0.81-0.8,1.23C289.92,711.51,290.15,711.85,290.39,712.19z"/>
	<path class="st0" d="M228.16,451.98c4.66,9.44,13.16,5.7,20.72,6.51c0-2.24,0-4.22,0-6.51
		C241.98,451.98,235.03,451.98,228.16,451.98z"/>
	<path class="st0" d="M249.81,394.4c-5.21,0-10.4-0.59-15.36,0.23c-2.88,0.48-5.38,3.23-8.05,4.95c0.15,0.31,0.3,0.62,0.45,0.93
		c7.57,0,15.15,0,22.96,0C249.81,398.64,249.81,396.76,249.81,394.4z"/>
	<path class="st0" d="M459.13,400.54c-3.12-5.32-7.6-6.87-13.21-6.28c-3.16,0.33-6.39,0.06-9.84,0.06c0,2.08,0,4.04,0,6.22
		C443.72,400.54,451.31,400.54,459.13,400.54z"/>
	<path class="st0" d="M346.73,161.49c0,0,0.22,0.04,0.22,0.04c-0.83-0.72-1.67-1.44-2.77-2.38c-0.9,3.42-0.89,6.28,1.57,8.9
		c1.73,1.84,3.03,4.08,4.78,5.89c0.8,0.82,2.22,1.03,3.37,1.51c0.87-0.02,1.74-0.04,2.61-0.06c1.14,0,2.28,0,3.87,0
		c-3.84-4.06-7.42-7.86-11.01-11.66c0,0,0.14,0.12,0.14,0.12c-0.27-0.55-0.53-1.11-0.8-1.66c0,0,0.07,0.07,0.07,0.07
		C348.1,162.01,347.41,161.75,346.73,161.49z"/>
	<path class="st0" d="M337.37,161.56c0,0,0.23-0.07,0.23-0.07c-0.69,0.26-1.37,0.52-2.06,0.78c0,0,0.07-0.07,0.07-0.07
		c-0.27,0.55-0.53,1.11-0.8,1.66c0,0,0.14-0.12,0.14-0.12c-3.41,3.63-6.83,7.26-10.81,11.49c1.66,0.07,2.67,0.12,3.67,0.17
		c0.87,0.02,1.74,0.04,2.61,0.06c0.61,0.05,1.36,0.35,1.82,0.11c4.03-2.14,8.65-11.43,8-16.37
		C339.19,160.07,338.28,160.82,337.37,161.56z"/>
	<path class="st0" d="M364.08,266.92c0,6-0.41,12.03,0.21,17.97c0.23,2.22,2.83,4.2,5.26,6.02c0-6.18,0.39-12.41-0.21-18.53
		c-0.2-2.07-2.91-3.89-4.47-5.82C364.61,266.68,364.34,266.8,364.08,266.92z"/>
	<path class="st0" d="M321.81,266.6c-4.26,2.64-6.09,5.85-5.6,10.64c0.46,4.44,0.1,8.96,0.1,13.94c3.22-2.58,6.01-4.61,5.6-9.23
		C321.46,277,321.81,271.97,321.81,266.6z"/>
	<path class="st0" d="M330.43,175.47c-0.87-0.02-1.74-0.04-2.61-0.06c-0.49,0.61-0.97,1.22-1.62,2.02
		c4.63,3.84,9.41,7.79,14.18,11.74c0.32-0.17,0.64-0.34,0.96-0.52c-0.75-1.61-1.13-3.62-2.33-4.77c-2.84-2.73-6.08-5.04-9.12-7.56
		C329.86,176.3,330.24,175.76,330.43,175.47z"/>
	<path class="st0" d="M356.51,175.41c-0.87,0.02-1.74,0.04-2.61,0.06c0.01,0.42,0.22,1.06,0.01,1.24c-3.28,2.88-6.72,5.6-9.87,8.61
		c-0.74,0.71-0.57,2.37-1.03,4.61c5.59-4.62,10.43-8.61,15.12-12.49C357.48,176.62,357,176.02,356.51,175.41z"/>
	<path class="st0" d="M377.14,657.25c-8.97-1.43-10.05-1.05-13.18,4.61C374.73,663.18,375,663.09,377.14,657.25z"/>
	<path class="st0" d="M308.65,657.13c1.97,8.47,8.67,3.7,13.25,5.32C319.81,656.65,318.59,656.17,308.65,657.13z"/>
	<path class="st0" d="M351.09,100.48c-5.31-6.81-12.54-6.81-17.85,0l-0.11-0.06c6.02,0,12.04,0,18.06,0L351.09,100.48z"/>
	<path class="st0" d="M576.04,328.67c5.77,0.96,11.71-5.3,11.59-11.78C581.46,318.62,580.09,324.71,576.04,328.67z"/>
	<path class="st0" d="M357.99,99.73c-0.44,0.98-0.87,1.95-1.43,3.18c3.07,1.65,6.36,3.41,9.75,5.22c-0.52-8.33-0.2-7.71-7.57-9.15
		c0,0,0.04-0.06,0.04-0.06c0.02,0.3,0.04,0.6,0.06,0.9c-0.3-0.02-0.6-0.03-0.9-0.05L357.99,99.73z"/>
	<path class="st0" d="M325.58,98.98c-7.35,1.44-7.05,0.81-7.57,9.13c3.29-1.74,6.51-3.44,9.75-5.15c-0.49-1.1-0.96-2.16-1.43-3.22
		c0,0,0.05,0.04,0.05,0.04c-0.3,0.02-0.6,0.04-0.9,0.05c0.02-0.3,0.04-0.6,0.06-0.9L325.58,98.98z"/>
	<path class="st0" d="M290.53,713.48c-5-0.53-6.76,1.31-6.74,7.37c2.33,0,4.66,0,6.74,0C290.53,718.4,290.53,716.06,290.53,713.48z"
		/>
	<path class="st0" d="M395.35,713.53c0,2.39,0,4.73,0,7.3c2.03,0,4.35,0,6.67,0C402.23,714.73,400.32,712.77,395.35,713.53z"/>
	<path class="st0" d="M161.96,157.59c0.3-0.27,0.6-0.55,0.91-0.82c-6.67-4.73-13.34-9.46-20.02-14.19
		c-0.26,0.37-0.52,0.74-0.78,1.11C148.71,148.32,155.33,152.96,161.96,157.59z"/>
	<path class="st0" d="M523,156.77c0.3,0.27,0.6,0.55,0.91,0.82c6.63-4.63,13.26-9.27,19.89-13.9c-0.26-0.37-0.52-0.74-0.78-1.11
		C536.34,147.31,529.67,152.04,523,156.77z"/>
	<path class="st0" d="M387.89,97.25c-2.22,0.93-3.72,1.55-5.39,2.25c0.45,1.49,0.84,2.8,1.44,4.77c1.94-0.91,3.93-1.44,5.27-2.68
		C389.66,101.17,388.45,98.96,387.89,97.25z"/>
	<path class="st0" d="M300.34,104.29c0.64-1.98,1.03-3.18,1.54-4.76c-1.68-0.7-3.26-1.36-5.4-2.25c-0.52,1.64-1.81,3.85-1.29,4.43
		C296.32,102.96,298.37,103.39,300.34,104.29z"/>
	<path class="st0" d="M57.03,632.33c-0.31-0.32-0.61-0.64-0.92-0.95c-3.11,3.6-6.22,7.19-9.34,10.79c0.16,0.28,0.32,0.57,0.48,0.85
		C50.52,639.45,53.77,635.89,57.03,632.33z"/>
	<path class="st0" d="M524.52,282.9c1.29,1.97,2.32,3.54,3.57,5.44c0.84-1.66,1.48-2.94,2.16-4.29c-1.23-1.03-2.29-1.92-3.76-3.16
		C525.82,281.57,525.18,282.23,524.52,282.9z"/>
	<path class="st0" d="M67.91,634.69c-0.29-0.27-0.58-0.53-0.88-0.8c-3.27,2.32-6.53,4.64-9.8,6.96c0.24,0.35,0.48,0.71,0.72,1.06
		C61.27,639.51,64.59,637.1,67.91,634.69z"/>
	<path class="st0" d="M109.35,128.41c2.31,2.58,4.62,5.15,6.93,7.73c0.11-0.36,0.22-0.72,0.32-1.08c-2.25-2.42-4.49-4.83-6.74-7.25
		C109.69,128.01,109.52,128.21,109.35,128.41z"/>
	<path class="st0" d="M569.62,136.13c2.3-2.57,4.6-5.14,6.9-7.71c-0.17-0.2-0.34-0.39-0.51-0.59c-2.25,2.41-4.49,4.82-6.74,7.24
		C569.39,135.41,569.5,135.77,569.62,136.13z"/>
	<path class="st0" d="M122.51,143.09c0.29-0.3,0.57-0.6,0.86-0.91c-1.86-2.06-3.72-4.12-5.58-6.18c-0.35,0.32-0.7,0.64-1.05,0.97
		C118.67,139.01,120.59,141.05,122.51,143.09z"/>
	<path class="st0" d="M563.24,141.4c0.29,0.29,0.57,0.58,0.86,0.87c1.66-1.74,3.33-3.48,4.99-5.22c-0.28-0.31-0.57-0.62-0.85-0.92
		C566.58,137.89,564.91,139.64,563.24,141.4z"/>
	<path class="st0" d="M546,141.95c1.75-1.22,3.5-2.45,5.26-3.67c-0.18-0.28-0.35-0.57-0.53-0.85c-1.78,1.28-3.55,2.56-5.33,3.85
		C545.6,141.5,545.8,141.73,546,141.95z"/>
	<path class="st0" d="M368.8,230.04c-0.69-0.98-1.38-1.96-2.08-2.94c-0.33,0.28-0.67,0.57-1,0.85c0.79,0.75,1.58,1.5,2.38,2.26
		C368.34,230.22,368.58,230.16,368.8,230.04z"/>
	<path class="st0" d="M140.47,141.28c-1.2-0.89-2.41-1.77-3.61-2.66c-0.18,0.21-0.35,0.42-0.53,0.64c1.19,0.9,2.37,1.81,3.56,2.71
		C140.08,141.73,140.27,141.5,140.47,141.28z"/>
	<path class="st0" d="M556.78,133.38c-1.2,0.85-2.4,1.7-3.6,2.55c0.18,0.16,0.35,0.32,0.53,0.49c1.15-0.89,2.3-1.78,3.46-2.68
		C557.03,133.63,556.9,133.5,556.78,133.38z"/>
	<path class="st0" d="M346.4,603.15c0.37,0.68,0.75,1.36,1.12,2.04c0.29-0.18,0.59-0.36,0.88-0.54c-0.41-0.56-0.81-1.11-1.22-1.67
		C346.93,603.03,346.67,603.09,346.4,603.15z"/>
	<path class="st0" d="M54.28,644.36c1.07-0.74,2.14-1.48,3.21-2.21c-0.2-0.29-0.4-0.57-0.6-0.86c-1.04,0.82-2.08,1.64-3.12,2.46
		C53.93,643.95,54.1,644.15,54.28,644.36z"/>
	<path class="st0" d="M44.24,644.98c-0.41,0.57-0.83,1.15-1.24,1.72c0.23,0.22,0.46,0.43,0.69,0.65c0.36-0.6,0.72-1.2,1.08-1.8
		C44.59,645.37,44.42,645.18,44.24,644.98z"/>
	<path class="st0" d="M139.89,141.96c0.65,0.4,1.3,0.8,1.95,1.2c0.13-0.2,0.25-0.4,0.38-0.6c-0.58-0.43-1.16-0.86-1.74-1.28
		C140.27,141.5,140.08,141.73,139.89,141.96z"/>
	<path class="st0" d="M343.84,602.22c0.36-0.01,0.72-0.03,1.09-0.04c-0.32-0.46-0.65-0.92-1.5-2.12
		C343.67,601.37,343.75,601.79,343.84,602.22z"/>
	<path class="st0" d="M545.4,141.28c-0.59,0.44-1.17,0.87-1.76,1.31c0.14,0.19,0.28,0.38,0.43,0.57c0.64-0.4,1.29-0.8,1.93-1.2
		C545.8,141.73,545.6,141.5,545.4,141.28z"/>
	<path class="st0" d="M553.17,135.94c-0.58,0.38-1.16,0.76-1.74,1.13c0.11,0.18,0.21,0.36,0.32,0.53c0.65-0.39,1.3-0.79,1.95-1.18
		C553.53,136.26,553.35,136.09,553.17,135.94z"/>
	<path class="st0" d="M108.48,126.35c-0.44-0.39-0.88-0.77-1.31-1.16c-0.15,0.17-0.31,0.32-0.48,0.46c0.4,0.38,0.79,0.76,1.19,1.14
		C108.06,126.62,108.26,126.47,108.48,126.35z"/>
	<path class="st0" d="M578.7,125.19c-0.44,0.39-0.88,0.78-1.32,1.17c0.22,0.12,0.42,0.26,0.61,0.44c0.4-0.38,0.8-0.77,1.2-1.15
		C579.02,125.51,578.85,125.35,578.7,125.19z"/>
	<path class="st0" d="M351.19,100.42c-0.05,0.15-0.1,0.31-0.15,0.46c0.15,0,0.3,0.01,0.46,0.01c-0.14-0.14-0.28-0.27-0.41-0.41
		C351.09,100.48,351.19,100.42,351.19,100.42z"/>
	<path class="st0" d="M333.24,100.49c-0.13,0.17-0.27,0.34-0.4,0.51c0.12,0,0.25,0,0.37,0c-0.02-0.19-0.04-0.38-0.07-0.57
		C333.14,100.42,333.24,100.49,333.24,100.49z"/>
	<path class="st0" d="M580.55,123.84c0.17-0.23,0.34-0.47,0.51-0.7c-0.1-0.06-0.27-0.19-0.28-0.17c-0.19,0.22-0.35,0.46-0.52,0.7
		L580.55,123.84z"/>
	<path class="st0" d="M105.61,123.66c-0.17-0.23-0.34-0.47-0.53-0.69c-0.01-0.01-0.18,0.11-0.28,0.18c0.17,0.23,0.34,0.47,0.52,0.7
		C105.33,123.84,105.61,123.66,105.61,123.66z"/>
	<path class="st0" d="M106.39,124.43c-0.26-0.26-0.52-0.51-0.78-0.77c0,0-0.28,0.18-0.28,0.18c0.22,0.3,0.44,0.6,0.65,0.9
		C106.12,124.64,106.25,124.54,106.39,124.43z"/>
	<path class="st0" d="M288.26,171.81c0.08-0.36,0.17-0.72,0.25-1.08c0,0-0.18-0.3-0.18-0.3s-0.34,0.05-0.34,0.05
		C288.08,170.93,288.17,171.37,288.26,171.81z"/>
	<path class="st0" d="M580.26,123.67c-0.26,0.26-0.52,0.51-0.78,0.77c0.13,0.11,0.27,0.21,0.41,0.3c0.21-0.3,0.43-0.6,0.65-0.89
		C580.55,123.84,580.26,123.67,580.26,123.67z"/>
	<path class="st0" d="M136.86,138.61c-0.36-0.02-0.73-0.04-1.09-0.07c0.19,0.23,0.37,0.47,0.56,0.7
		C136.51,139.04,136.68,138.83,136.86,138.61z"/>
	<path class="st0" d="M116.28,136.14c0.31-0.01,0.62-0.02,0.93-0.03c-0.2-0.35-0.41-0.7-0.61-1.05
		C116.49,135.42,116.38,135.78,116.28,136.14z"/>
	<path class="st0" d="M569.27,135.06c-0.2,0.35-0.4,0.71-0.6,1.06c0.32,0,0.63,0,0.95,0C569.5,135.77,569.39,135.41,569.27,135.06z"
		/>
	<path class="st0" d="M105.98,124.74c0.24,0.3,0.47,0.61,0.71,0.91c0.17-0.14,0.33-0.3,0.48-0.46c-0.26-0.25-0.52-0.51-0.78-0.76
		C106.25,124.54,106.12,124.64,105.98,124.74z"/>
	<path class="st0" d="M46.78,642.17c-0.15,0.38-0.31,0.76-0.46,1.14c0.31-0.1,0.63-0.2,0.94-0.29
		C47.1,642.73,46.94,642.45,46.78,642.17z"/>
	<path class="st0" d="M373.53,643.59c-0.04,0.37-0.07,0.73-0.11,1.1C373.46,644.33,373.5,643.96,373.53,643.59z"/>
	<path class="st0" d="M53.76,643.74c-0.19,0.23-0.38,0.46-0.57,0.7c0.36-0.03,0.72-0.06,1.09-0.08
		C54.1,644.15,53.93,643.95,53.76,643.74z"/>
	<path class="st0" d="M45.52,644.77c0.15-0.36,0.3-0.71,0.45-1.07c-0.39,0.19-0.78,0.39-1.16,0.58
		C45.05,644.45,45.29,644.61,45.52,644.77z"/>
	<path class="st0" d="M44.77,645.56c0.25-0.26,0.51-0.52,0.76-0.78c-0.24-0.16-0.48-0.32-0.72-0.49c-0.19,0.23-0.38,0.46-0.57,0.7
		C44.42,645.18,44.59,645.37,44.77,645.56z"/>
	<path class="st0" d="M109.86,127.81c-0.26-0.27-0.51-0.54-0.77-0.82c-0.14,0.21-0.29,0.41-0.46,0.59c0.24,0.27,0.48,0.55,0.72,0.82
		C109.52,128.21,109.69,128.01,109.86,127.81z"/>
	<path class="st0" d="M576.52,128.41c0.24-0.27,0.48-0.55,0.73-0.82c-0.17-0.18-0.33-0.38-0.47-0.59c-0.26,0.27-0.51,0.55-0.77,0.82
		C576.18,128.02,576.35,128.22,576.52,128.41z"/>
	<path class="st0" d="M109.09,127c-0.2-0.22-0.4-0.43-0.61-0.65c-0.22,0.12-0.42,0.27-0.6,0.45c0.25,0.27,0.49,0.53,0.74,0.8
		C108.8,127.41,108.95,127.21,109.09,127z"/>
	<path class="st0" d="M577.38,126.36c-0.2,0.21-0.4,0.43-0.61,0.64c0.14,0.21,0.3,0.41,0.47,0.59c0.25-0.27,0.49-0.53,0.74-0.8
		C577.81,126.63,577.61,126.48,577.38,126.36z"/>
	<path class="st0" d="M579.19,125.65c0.23-0.31,0.47-0.61,0.7-0.91c-0.14-0.1-0.28-0.2-0.41-0.3c-0.26,0.25-0.52,0.51-0.78,0.76
		C578.85,125.35,579.02,125.51,579.19,125.65z"/>
	<path class="st0" d="M557.16,133.75c0.26-0.18,0.52-0.37,0.78-0.55c-0.39,0.06-0.77,0.12-1.16,0.18
		C556.9,133.5,557.03,133.63,557.16,133.75z"/>
	<path class="st0" d="M349.36,606.06c-0.41,0.21-0.72,0.36-1.02,0.51c0.26,0.31,0.47,0.69,0.8,0.89c0.11,0.07,0.64-0.3,0.73-0.55
		C349.92,606.71,349.57,606.39,349.36,606.06z"/>
	<path class="st0" d="M226.78,431.94c-0.25,0.69-0.51,1.37-0.76,2.06C226.27,433.32,226.53,432.63,226.78,431.94z"/>
	<path class="st0" d="M401.8,322.97c-0.25-0.25-0.51-0.5-0.76-0.76c-7.07-5.04-14.02-10.27-21.25-15.07
		c-10.11-6.71-21.63-9.88-33.42-11.8c-3.89-0.64-8.16,0.22-12.14,1.01c-17.23,3.43-32.22,11.4-45.45,22.85
		c-1.25,1.08-2.63,2.01-3.95,3.01c-0.25,0.25-0.5,0.5-0.76,0.75c-7.3,9.69-13.44,20.16-17.05,31.68
		c-4.01,12.8-7.64,25.87-9.68,39.09c-1.87,12.12-1.62,24.6-1.91,36.94c-0.61,26.47,4.26,52.14,12.57,77.15
		c3.02,9.09,7.07,17.83,10.73,26.7c0.47,1.15,1.28,2.23,2.12,3.16c3.71,4.1,7.55,8.08,11.22,12.21
		c11.21,12.6,25.45,19.73,41.84,22.43c12.58,2.07,24.63-0.39,36.41-5.36c15.21-6.42,25.39-18.56,35.53-30.57
		c3.91-4.64,6.07-11,8.16-16.88c7.13-20.1,12.48-40.63,15.1-61.91c2.64-21.37,1.69-42.75-0.66-63.87
		c-2.76-24.89-10.06-48.72-25.73-69.12C402.36,324.12,402.11,323.52,401.8,322.97z M264.57,430.9c0-6.68-0.52-13.42,0.11-20.04
		c1.18-12.24,2.12-24.62,4.82-36.56c3.89-17.2,9.79-33.87,23.47-46.18c6.47-5.82,13.11-11.77,20.58-16.07
		c13.83-7.95,28.99-10.04,44.6-5.79c7.43,2.02,14.18,5.41,20.57,9.98c15.01,10.73,26.94,23.7,32.75,41.51
		c2.54,7.77,5.37,15.59,6.65,23.61c3.58,22.52,4.3,45.25,3.13,68.02c-0.96,18.64-2.81,37.21-9.32,54.82
		c-3.31,8.95-7.6,17.71-12.68,25.78c-7.27,11.54-18.2,19.22-30.27,25.47c-12.01,6.22-24.87,6.37-37.54,4.84
		c-9.09-1.1-17.46-5.8-25.26-10.86c-16.92-10.98-26.06-27.67-32.48-45.94C265.46,480.03,264.46,455.48,264.57,430.9z"/>
	<path class="st0" d="M269.07,438.22c-0.66,16,0.43,31.92,4.12,47.47c4.16,17.51,9.31,34.97,21.72,48.63
		c8.84,9.73,20.25,16.35,32.42,21.63c6.14,2.67,12.37,1.33,18.53,2.05c8.48,1,15.7-2.55,22.56-6.38
		c12.16-6.78,23.92-14.57,30.58-27.34c4.53-8.69,8.09-17.97,11.23-27.27c4.87-14.42,6.9-29.38,7.15-44.64
		c0.39-24.32,0.45-48.62-3.8-72.65c-2.68-15.19-8.19-29.27-18.38-41.31c-7.01-8.29-14.37-16.29-23.68-21.79
		c-14.74-8.7-30.54-12.11-46.9-4.53c-25.13,11.65-41.45,31.13-49.13,57.66c-4.86,16.78-5.48,34.17-6.38,51.48
		C268.83,426.89,269.07,432.56,269.07,438.22z M307.87,328.98c0.26-0.25,0.52-0.5,0.78-0.75c0.47-0.38,0.93-0.75,1.4-1.13
		c-0.24,0.82-0.47,1.64-0.71,2.46c-0.26,0.2-0.51,0.4-0.77,0.61c-1.2,1.09-2.41,2.19-3.61,3.28c-0.27-0.29-0.54-0.59-0.81-0.88
		c1.09-1.09,2.17-2.18,3.26-3.27C307.48,329.07,307.63,328.96,307.87,328.98z M286.16,368.32c0.26-0.39,0.52-0.78,0.79-1.17
		c1.16-2.44,2.33-4.89,3.49-7.33c0.68-1.01,1.36-2.02,2.03-3.03c0.2-0.23,0.4-0.47,0.61-0.7c0.17,0.23,0.34,0.46,0.52,0.69
		c1.15,3.83,2.3,7.66,3.45,11.49c0.3-0.23,0.6-0.46,0.9-0.69c0.05-3.22,0.09-6.44,0.14-9.66c0.46-0.54,0.92-1.07,1.38-1.61
		c0.17,0.8,0.34,1.6,0.51,2.4c0.71,2.95,1.42,5.9,2.13,8.85l-0.01-0.05c0.11-2.35,0.04-4.72,0.42-7.02
		c0.17-1.06,1.21-1.98,1.86-2.97c0.65-0.04,1.31-0.09,1.96-0.13c2.81-1.65,5.62-3.3,8.42-4.94c0.13-0.18,0.2-0.27,0.22-0.27
		c1.36-2.59,2.9-5.1,4.03-7.78c2.65-6.26,1.96-12.87,1.45-19.38c-0.18-2.25,0.37-3.5,2.33-4.61c12.45-7.05,25.25-6.7,38.17-1.76
		c3.73,1.43,6.31,3.8,5.15,8.74c-0.74,3.17-0.49,6.69-0.11,9.98c0.89,7.8,3.61,14.78,10.89,18.85c2.13,1.19,4.78,1.45,6.94,2.07
		c0.42,3.18,0.82,6.24,1.23,9.31c0.63-2.12,1.26-4.24,1.98-6.66c1.02,2.88,1.81,5.1,2.59,7.32c1.29-3.96,2.57-7.92,4.05-12.46
		c0.98,1.55,1.77,2.78,2.55,4.02c0.65,1.41,1.3,2.82,1.95,4.24c0.01,0.52,0.01,1.05,0.02,1.57c0.25,0.24,0.5,0.49,0.75,0.73
		c0.52,0.65,1.04,1.31,1.56,1.96c0.4-0.03,0.8-0.06,1.2-0.09c-1.44-9.44-7.89-21.29-10.72-20.4c-1.48-3.09-2.93-6.12-4.38-9.14
		c0.46-0.23,0.92-0.46,1.39-0.69c9.06,10.03,15.57,21.47,18.36,34.97c0.86,4.91,2.15,9.79,2.5,14.74
		c1.22,16.87,2.42,33.76,3.07,50.66c0.68,17.65-1.65,35.01-6.92,51.92c-2.44,11.37-6.79,21.99-12.71,31.98
		c-1.63,2.74-3.04,5.82-5.31,7.94c-8.95,8.37-18.64,15.83-30.59,19.4c-4.92,1.47-10.33,2.95-15.28,2.4
		c-14.46-1.61-26.68-8.56-37.39-18.24c-1.9-1.72-4.26-3.15-5.59-5.24c-7.55-11.84-13.59-24.37-16.47-38.25
		c-3.96-12.02-6.25-24.45-6.69-36.99c-0.91-25.45,0.28-50.86,4.29-76.07c0.16-0.98,1-1.85,1.53-2.76c0,0-0.01,0.05-0.01,0.05
		c-0.22-0.38-0.7-0.8-0.63-1.12c2.82-13.35,9.24-24.86,18.13-35.07c0.52-0.6,1.4-0.89,2.7-1.68c-1.8,4.52-3.24,8.16-4.69,11.81
		c0.28,0.95,0.56,1.89,0.84,2.84c0.69,1.06,1.38,2.11,2.06,3.17c-0.41,0.2-0.82,0.41-1.23,0.61c-0.27-1.1-0.55-2.21-0.83-3.31
		c-0.03-0.12-0.1-0.23-0.15-0.35c-0.49-1.04-0.99-2.09-1.48-3.13c-0.56-0.1-1.53-0.45-1.64-0.27c-3.85,6.35-8.52,12.35-8.88,20.23
		C285.35,368.26,285.76,368.29,286.16,368.32z M379.16,331.12c-0.88-0.73-1.76-1.46-2.64-2.19c-1.45-0.98-2.89-1.96-4.34-2.94
		c-0.36,0.25-0.71,0.51-1.07,0.76c1.07,1.73,1.97,3.6,3.25,5.18c3.44,4.24,7.33,8.15,10.46,12.6c2.1,2.98,0.25,8.99-2.32,9.71
		c-3.27,0.92-8-1.37-8.98-4.77c-1.06-3.67-1.87-7.45-2.33-11.24c-0.59-4.85-0.74-9.75-1.07-14.63c0.42-0.22,0.84-0.44,1.26-0.67
		c1.94,1.5,3.88,3,5.81,4.51c0.96,0.87,1.92,1.74,2.89,2.62c0.5,0.64,0.99,1.28,1.49,1.92c-0.23,0.2-0.46,0.4-0.69,0.61
		C380.31,332.1,379.73,331.61,379.16,331.12z M388.81,351.29c0.29-0.18,0.58-0.37,0.88-0.53c0.02-0.01,0.15,0.17,0.22,0.27
		c-0.33,0.14-0.65,0.28-0.98,0.42c0.11,0.5,0.32,0.99,0.31,1.49c-0.01,0.69-0.14,1.38-0.33,2.04c-0.02,0.08-1,0.04-1.01-0.05
		c-0.12-0.68-0.28-1.42-0.12-2.06C387.93,352.29,388.46,351.81,388.81,351.29z M314,325.9c-1.05,0.73-2.11,1.45-3.16,2.18
		c-0.26-0.37-0.53-0.74-0.79-1.11c1.05-0.82,2.1-1.65,3.15-2.47c0.3-0.17,0.6-0.34,0.9-0.51c1.38-0.91,2.34-1.02,2.08,1.12
		c-0.02,1.32-0.03,2.65-0.05,3.97c-0.85,6.43-1.61,12.87-2.58,19.28c-0.63,4.12-3.72,5.42-7.43,5.85c-2.58,0.3-3.89-0.6-4.61-3.28
		c-1.29-4.84,0.66-8.52,3.62-11.85c3.11-3.5,6.49-6.75,9.76-10.12C314.59,327.95,314.3,326.93,314,325.9z M387.45,357.32
		c0.27-0.03,0.54-0.06,0.82-0.1c0.1,0.71,0.21,1.43,0.31,2.14c-0.31,0.03-0.61,0.06-0.92,0.1
		C387.59,358.75,387.52,358.04,387.45,357.32z M300.94,336.32c-0.19-0.36-0.38-0.71-0.57-1.07c0.52-0.12,1.05-0.36,1.56-0.3
		c0.32,0.04,0.86,0.56,0.82,0.78c-0.07,0.42-0.42,0.89-0.8,1.11C301.78,336.94,301.29,336.51,300.94,336.32z M390.18,349.32
		c0.09-0.03,0.19-0.07,0.28-0.1c0.01,0.14,0.03,0.28,0.04,0.41c-0.1-0.02-0.21-0.02-0.29-0.07
		C390.17,349.53,390.19,349.4,390.18,349.32z"/>
	<path class="st0" d="M306.98,367.18c0.51,0.52,1.52,1.13,1.44,1.54c-0.45,2.36-1.16,4.67-1.81,7.09c2.54,1.02,3.66,0.64,4.52-2.15
		c2.5-8.07,5.08-16.25,11.45-22.31c8.45-8.04,21.33-11.19,32.99-5.84c11.61,5.33,15.56,15.61,19.47,26.28
		c0.71,1.94,0.21,5,3.78,4.68c0.23-0.96,0.84-2.03,0.62-2.87c-2.25-8.47-5.06-16.86-11.14-23.35
		c-10.23-10.93-21.24-15.8-35.36-10.46c-5.49,2.08-9.9,6.99-14.84,10.57c-0.97,0.71-2.08,1.22-3.13,1.82
		c-0.02,0-0.09,0.09-0.22,0.27c0.25,0.22,0.76,0.55,0.72,0.64c-2.06,4.57-4.16,9.12-6.37,13.62c-0.07,0.15-1.38-0.32-2.11-0.5
		C306.99,366.53,306.98,366.86,306.98,367.18z"/>
	<path class="st0" d="M281.14,377.61c3.5-1.17,6.94-2.54,10.51-3.44c2.38-0.6,4.92-0.52,7.92-0.8c0.97,0.67,2.85,1.96,4.73,3.25
		c0.16-0.27,0.31-0.53,0.47-0.8c-0.89-2.77-1.78-5.53-2.68-8.3c0,0,0.01,0.05,0.01,0.05c-1.04,0.03-2.09,0.05-3.13,0.08
		c-0.25,0.53-0.5,1.05-0.75,1.58c-0.6,0.5-1.21,1-1.81,1.49c-0.51-0.02-1.03-0.05-1.54-0.07c-0.32-0.87-0.63-1.73-0.95-2.6
		c-0.47,0.39-0.95,0.77-1.42,1.16c-0.25,0.27-0.49,0.53-0.74,0.8c-0.96,0.58-1.93,1.16-2.89,1.74c-0.15-0.28-0.3-0.57-0.45-0.85
		c0.97-0.56,1.94-1.12,2.91-1.68c0.1-0.21,0.25-0.37,0.47-0.46c0.38-0.42,0.77-0.85,1.15-1.27c1.58-3.34-0.47-5.5-2.5-7.67
		c-1.16,2.44-2.33,4.89-3.49,7.33c2.4-0.15,1.67,1.29,1.03,2.33c-0.63,1.03-1.6,1.85-2.42,2.76c-0.25-0.51-0.5-1.02-0.75-1.53
		c0,0,0.13,0,0.13,0l0.28,0.23l-0.07,0.35l-0.01,0.07c0.07,2.52-0.34,2.81-4.38,3.15c0,0,0.01-0.05,0.01-0.05
		c0.17,1.05,0.34,2.09,0.51,3.14C281.28,377.59,281.14,377.61,281.14,377.61z"/>
	<path class="st0" d="M398.15,364.06c-0.65-1.41-1.3-2.82-1.94-4.24c-2.18,2.13-3.89,4.42-2.64,7.73c0,0-0.09-0.03-0.09-0.03
		c0.27,0.55,0.53,1.1,0.8,1.65l-0.07-0.09c0.3-0.02,0.6-0.04,0.91-0.05c-0.02,0.3-0.03,0.6-0.05,0.91c0,0-0.08-0.06-0.08-0.06
		c1.09,0.25,2.19,0.5,3.28,0.75c0,0,0.33,0.08,0.33,0.08c0.11-1.44,0.22-2.89,0.33-4.33c-0.25-0.24-0.5-0.49-0.75-0.73
		c-0.43-0.25-0.87-0.51-1.3-0.76C397.3,364.6,397.73,364.33,398.15,364.06z"/>
	<path class="st0" d="M306.99,366.21c-0.22-2.94-0.44-5.88-0.67-8.82c-0.65,0.04-1.31,0.09-1.96,0.13c0.36,3.09,0.72,6.19,1.09,9.28
		c0.17,1.44,0.5,2.34,1.52,0.37C306.98,366.86,306.99,366.53,306.99,366.21z"/>
	<path class="st0" d="M296.95,351.4c0.05,0.12,0.12,0.23,0.15,0.35c0.28,1.1,0.55,2.21,0.83,3.31c0.41-0.2,0.82-0.41,1.23-0.61
		c-0.69-1.06-1.38-2.11-2.06-3.17C297.1,351.28,296.95,351.4,296.95,351.4z"/>
	<path class="st0" d="M388.81,351.29c-0.36,0.52-0.88,1-1.03,1.58c-0.16,0.65-0.01,1.38,0.12,2.06c0.01,0.08,0.99,0.13,1.01,0.05
		c0.19-0.66,0.32-1.36,0.33-2.04c0.01-0.49-0.2-0.99-0.31-1.49L388.81,351.29z"/>
	<path class="st0" d="M298.07,357.93c0.63,0.26,1.26,0.53,1.89,0.79c-0.17-0.8-0.34-1.6-0.51-2.4
		C298.99,356.86,298.53,357.39,298.07,357.93z"/>
	<path class="st0" d="M387.45,357.32c0.07,0.71,0.14,1.43,0.21,2.14c0.31-0.03,0.61-0.06,0.92-0.1c-0.1-0.71-0.21-1.43-0.31-2.14
		C388,357.26,387.72,357.29,387.45,357.32z"/>
	<path class="st0" d="M296.26,348.44c-0.26-0.06-0.53-0.12-0.79-0.18c0.49,1.04,0.99,2.09,1.48,3.13c0,0,0.14-0.12,0.15-0.12
		C296.82,350.33,296.54,349.39,296.26,348.44z"/>
	<path class="st0" d="M400.48,368.32c0.25,0.76,0.5,1.51,0.75,2.27c0.3,0.12,0.6,0.25,0.9,0.37c-0.15-0.91-0.3-1.82-0.44-2.74
		C401.29,368.26,400.89,368.29,400.48,368.32z"/>
	<path class="st0" d="M284.81,370.7c0.45-0.79,0.9-1.59,1.35-2.38c-0.4-0.03-0.8-0.07-1.2-0.1c0,0.83-0.01,1.65-0.01,2.48
		C284.94,370.7,284.81,370.7,284.81,370.7z"/>
	<path class="st0" d="M388.94,351.44c0.33-0.14,0.65-0.28,0.98-0.42c-0.08-0.09-0.2-0.28-0.22-0.27c-0.3,0.16-0.59,0.35-0.88,0.53
		C388.81,351.29,388.94,351.44,388.94,351.44z"/>
	<path class="st0" d="M390.18,349.32c0.01,0.08-0.01,0.21,0.03,0.24c0.07,0.05,0.19,0.05,0.29,0.07c-0.01-0.14-0.03-0.28-0.04-0.41
		C390.37,349.25,390.27,349.28,390.18,349.32z"/>
	<path class="st0" d="M300.94,479.95c1.09,0.61,2.19,1.76,3.28,1.76c9.23-0.03,18.46-0.37,27.69-0.41
		c17.06-0.08,34.12-0.02,51.18-0.02c0.75,0,1.5,0,2.55,0c-0.52-2.23-0.98-4.19-1.44-6.14c-0.04-0.12-0.05-0.33-0.01-0.63
		c-0.33-1.27-0.65-2.55-0.98-3.82c-1.18-4.53-2.35-9.07-3.53-13.6c-0.69-2.29-1.38-4.58-2.23-7.39c-22.9,0-45.79,0-68.91,0
		c-0.19,0.7-0.49,1.67-0.72,2.66c-1.63,7.11-3.18,14.23-4.92,21.31c-0.22,0.91-1.35,1.6-2.05,2.39c0.11,0.23,0.13,0.47,0.04,0.72
		c0,1.04,0,2.08,0,3.12C300.9,479.88,300.94,479.95,300.94,479.95z"/>
	<path class="st0" d="M329.58,503.15c-0.87,0.68-2.47,1.34-2.49,2.06c-0.16,3.88-2.68,5.51-6.31,7.05c0.62-1.82,1.11-3.26,1.65-4.87
		c-3.19,0.43-4.85,2.07-5.34,5.22c-0.69,4.43-1.96,8.79-2.36,13.24c-0.37,4.1,0.07,8.28,0.16,12.43c0.48-0.15,0.96-0.3,1.44-0.45
		c1,0.91,1.86,2.15,3.03,2.67c3.84,1.7,7.67,3.74,11.72,4.58c12.06,2.49,23.95,2.16,35.16-3.88c4.96-2.68,7.05-6.77,6.16-12.3
		c-0.92-5.7-1.72-11.43-3.13-17.01c-0.49-1.96-2.64-3.5-4.02-5.24c-0.35,0.23-0.7,0.47-1.04,0.7c0.53,1.45,1.06,2.91,1.84,5.03
		c-3.4-1.73-6.22-2.84-6.41-6.8c-0.04-0.85-1.66-1.63-2.55-2.44c-0.95-0.09-1.9-0.19-3.43-0.34c1.17,1.76,2.06,3.09,2.95,4.42
		c0.22,0.27,0.44,0.54,0.66,0.81c-0.53,0-1.06-0.01-1.59-0.01c-0.33,2.61-0.49,5.26-1.08,7.8c-0.29,1.24-1.16,2.83-2.19,3.28
		c-1.2,0.52-3.08,0.39-4.29-0.22c-1.76-0.89-3.19-2.45-4.81-3.77c-1.4,1.16-2.83,2.2-4.09,3.43c-1.56,1.52-3,1.56-5.06,0.79
		c-2.35-0.88-2.06-2.47-2.2-4.26c-0.19-2.36-0.63-4.71-0.96-7.06c-0.53,0-1.06,0.01-1.59,0.01c0.22-0.27,0.44-0.54,0.66-0.81
		c0.89-1.33,1.78-2.66,2.95-4.42C331.47,502.96,330.52,503.05,329.58,503.15z M328.31,508.96c0.31-0.11,0.61-0.23,0.92-0.34
		c-0.15,0.36-0.3,0.71-0.45,1.07c-0.5,1.74-1,3.49-1.58,5.51c-1.01-0.62-1.89-1.17-2.95-1.82
		C325.76,511.73,327.03,510.35,328.31,508.96z M358.33,508.96c1.33,1.45,2.65,2.9,4.23,4.62c-1.41,0.65-2.34,1.08-3.2,1.47
		c-0.56-2.02-1.02-3.69-1.49-5.36c-0.15-0.36-0.3-0.72-0.46-1.07C357.72,508.73,358.02,508.84,358.33,508.96z M366.46,535.49
		c-15.26,9.13-30.45,9.73-45.98-0.1c3.29-4.62,6.28-8.8,9.48-13.29c1.56,0.42,3.57,0.96,6.49,1.75
		c-5.96,2.95-10.39,6.12-11.27,12.53c5.11,0.77,6.88-2.42,8.86-5.43c0.79-1.21,2.02-2.13,3.04-3.18c0.89,2.39,0.88,4.06,0.89,5.72
		c0.01,1.67-0.18,3.39,0.16,5c0.23,1.08,1.23,2.01,1.88,3c0.41-0.23,0.83-0.45,1.24-0.68c-0.79-5.06,1.3-10.27-1.65-15.34
		c-0.7-1.21,0.69-4.05,1.78-5.69c0.42-0.63,3.56-0.53,3.98,0.15c1.04,1.68,2.3,4.49,1.57,5.77c-2.9,5.08-0.81,10.24-1.65,15.57
		c1.27-0.2,2.61-0.26,2.63-0.45c0.44-4.16,0.73-8.34,1.09-12.99c5.12,1.33,4.78,10.52,12.46,8.29c-0.69-6.46-5.65-9.27-11.36-12.32
		c3.06-0.76,5.13-1.27,6.45-1.6C360.07,526.88,363.22,531.12,366.46,535.49z M320.11,530.68c-0.57-0.21-1.14-0.43-1.71-0.64
		c0.51-4.68,1.02-9.37,1.6-14.64c2.59,1.5,4.52,2.62,6.97,4.04C324.56,523.4,322.34,527.04,320.11,530.68z M368.28,529.98
		c-0.62,0.24-1.25,0.48-1.87,0.73c-2.19-3.71-4.38-7.42-6.69-11.34c2.48-1.42,4.33-2.48,6.89-3.94
		C367.2,520.64,367.74,525.31,368.28,529.98z"/>
	<path class="st0" d="M319.96,438.59c0.4,0.87,0.79,1.74,1.51,3.31c5.86,0,12.31,0,18.75,0c8.12,0,16.24,0,25.02,0
		c-6.95-6.92-7.57-10.62-3.23-17.44c-13.74-1.1-27.28-2.36-40.63-0.67c1.21,2.59,2.25,4.83,3.3,7.08c0.03,1.13,0.19,2.27,0,3.36
		c-0.05,0.27-1.22,0.34-1.87,0.5c0,0.22-0.11,0.33-0.34,0.33c0.39,0.63,0.79,1.27,1.18,1.9c-1.01,0.43-1.39,3.23-3.16,0.84
		C320.31,438.07,320.13,438.33,319.96,438.59z"/>
	<path class="st0" d="M322.46,435.06c0.23,0,0.34-0.11,0.34-0.33c0.19-0.71,0.37-1.42,0.56-2.13c-1.7-3.23-3.39-6.47-5.38-10.25
		c15.9-1.68,31.88-1.21,48.21,1.04c-5.97,6.32-5.52,12.09,0.64,16.99c3.71,2.95,7.67,1.87,11.67,1.37c-1.79-2.15-3.8-4.16-5.34-6.47
		c-4.34-6.49-2.42-10.99,5.55-13.4c-0.74-0.87-1.48-1.74-2.22-2.62c0,0,0.07,0.05,0.07,0.05c-0.91,0.05-1.82,0.14-2.74,0.13
		c-20.73-0.05-41.46-0.1-62.19-0.2c-0.65,0-1.29-0.51-1.94-0.78l0.04,0.14c-0.49,0.46-0.97,0.92-1.46,1.37c0,0-0.17-0.01-0.17-0.01
		c0.33,0.87,0.43,1.95,1.03,2.55c1.75,1.77,4.34,3,5.45,5.07c2.59,4.82,1.94,6.69-2.14,10.3c-0.94,0.83-1.89,1.64-3.14,2.72
		c4.16,0.93,7.82,1.73,10.65-1.99c0.18-0.27,0.36-0.53,0.53-0.79C321.14,436.89,321.8,435.98,322.46,435.06z"/>
	<path class="st0" d="M293.22,425.45c1.32-3.63,0.7-6.9-1.36-10.17c-0.71-1.13-0.46-2.88-0.64-4.35c1.55-0.17,3.1-0.34,4.66-0.51
		c0.19-0.2,0.37-0.41,0.56-0.61c-1.98-3.68-4.92-3.32-8.88-1.56c-2.02-4.17-4.05-8.38-6.26-12.93c-0.83,6.05-0.52,11.32,4.62,15.47
		c-5.22,4.99-3.54,10.56-1.83,16.13c8.89,9.98,9.89,20.36,2.78,30.76c-0.73-6.36,4.75-11.66,2.52-19.12
		c-3.02,7.31-4.95,13.74-5.29,20.59c-0.16,3.27,0.42,6.33,2.92,8.73c-0.01,0.52-0.02,1.04-0.03,1.57l-0.03-0.06
		c0.67,0,1.34,0,2.24,0c-1.97-4.84,0.5-9.18,2.45-13.69c4.03-9.32,5.13-18.65-0.55-27.82c-5.44-6.95-5.93-8.75-3.65-13.32
		c2.9,1.65,4.09,3.9,3.19,7.3C289.94,424.51,291.06,425.84,293.22,425.45z"/>
	<path class="st0" d="M390.77,410.43c1.55,0.17,3.1,0.33,4.65,0.5c-0.18,1.46,0.05,3.17-0.62,4.34c-1.81,3.14-2.84,6.21-1.42,9.79
		c0.15,0.38-0.76,1.19-1.18,1.79c0,0,0.12,0.14,0.12,0.14c0.39-0.38,0.78-0.76,1.17-1.14c2.57-0.62,3.13-1.42,2.45-4.3
		c-0.81-3.43,0.57-5.56,3.57-7.08c2.55,5.76-0.59,9.63-3.97,13.44c-0.41,0.79-0.82,1.58-1.23,2.36c-0.25,0.54-0.5,1.09-0.75,1.63
		c-3.38,8.54-1.88,16.71,1.84,24.72c1.94,4.16,3.99,8.3,1.36,13.98c1.48-1.39,2.17-2.05,2.86-2.7c0.77-1.13,1.98-2.17,2.25-3.41
		c1.95-8.96-1.22-17.01-4.61-26c-0.49,1.46-0.65,1.92-0.81,2.38c1.26,5.62,2.51,11.25,3.77,16.87c-0.35,0.08-0.7,0.16-1.05,0.25
		c-1.56-5.64-4.61-10.9-3.89-17.14c-0.4-6.11,3.89-9.78,7.26-13.93c0.57-2.61,1.69-5.24,1.55-7.81c-0.15-2.76-1.47-5.46-2.49-8.87
		c3.89-3.46,4.78-8.7,3.67-14.92c-2.12,4.48-4.07,8.62-6.05,12.82c-3.8-1.34-7.03-2.38-9.04,1.68
		C390.4,410.03,390.58,410.23,390.77,410.43z"/>
	<path class="st0" d="M378.8,377.51c-0.04,1.83-0.08,3.66-0.13,5.48c0.35,5.31,0.64,10.62,1.08,15.91c0.09,1.11,0.72,2.18,1.11,3.27
		c1.12-0.56,2.24-1.11,3.36-1.67c1.83-1.2,3.65-2.39,5.48-3.59c1.79-0.04,3.57-0.07,5.36-0.11c0.52-0.8,1.39-1.54,1.51-2.4
		c0.39-2.9,0.51-5.84,0.74-8.76l0-0.11c0-2.66,0-5.32,0-8.3c-4.22-0.21-8.26-0.42-12.3-0.62
		C382.94,376.92,380.87,377.22,378.8,377.51z"/>
	<path class="st0" d="M386.36,447.62c-1.34-1.25-1.34-1.25,0.91-3.33c-2.34-0.18-4.62-0.35-6.89-0.52
		c-4.21-0.01-8.42,0.02-12.63-0.05c-9.17-0.15-18.34-0.35-27.52-0.53c-8.53-0.06-17.06-0.21-25.6-0.14
		c-5.07,0.04-10.14,0.43-15.2,0.67c1.5,1.12,3,2.24,4.51,3.37c0,0-0.01-0.01-0.01-0.01c1.53-0.03,3.07-0.12,4.6-0.09
		c18.44,0.36,36.89,0.84,55.33,1.06c6.19,0.07,12.39-0.54,18.59-0.75c0.2-0.01,0.44,0.87,0.66,1.33
		C384.19,448.29,385.28,447.95,386.36,447.62z"/>
	<path class="st0" d="M383.45,495.05c3.19,0.73,6.37,1.93,9.59,2.09c7.51,0.37,8.3,0.6,10.6-7.03c0.95-8.06,1.9-16.13,2.84-24.19
		c-0.62-0.76-1.23-1.52-2.13-2.63c-0.53,2.63-0.98,4.87-1.4,6.96c-0.89-0.88-1.6-1.57-2.3-2.26c-0.32,5.57-0.61,11.15-0.99,16.72
		c-0.13,1.91-0.62,3.79-0.69,5.7c-0.09,2.6-1.35,3.71-3.86,3.59c-0.8-0.19-1.6-0.37-2.4-0.56c0.77-0.25,1.54-0.51,2.32-0.76
		c0.32-1.31,0.98-2.68,0.8-3.92c-0.08-0.58-2.46-1.52-2.65-1.3c-1.57,1.82-2.87,3.88-4.78,6.61c-2.08-0.85-5.04-2.06-6.8-2.78
		c-0.49-2.98-0.81-4.86-1.12-6.75c-1.5,0.7-3.01,1.4-4.05,1.88c-3.07-0.91-6.24-2.16-9.52-2.59c-0.86-0.11-2.06,2.31-2.49,4.24
		c1.18-0.27,2.35-0.55,3.38-0.79c1.91,1.92-1.03,6.15,3.86,6.67c0-1.77,0-3.34,0-5.77c1.89,1.4,3.25,2.4,4.61,3.4
		c1.49,0.8,2.98,1.6,4.46,2.4C381.64,494.34,382.55,494.7,383.45,495.05z"/>
	<path class="st0" d="M283.01,490.12c2.77,7.36,6.53,9.1,14.77,6.75c1.83-0.52,3.61-1.21,5.41-1.82c0.9-0.36,1.81-0.71,2.71-1.07
		c1.15-0.45,2.31-0.91,3.46-1.36c1.6-1.33,3.21-2.66,5.35-4.44c0,2.22,0,3.76,0,5.32c2.57-0.13,2.57-0.13,3.97-6.34
		c0.59,0.19,1.15,0.4,1.72,0.55c0.59,0.15,1.19,0.24,1.89,0.37c-1.48-6.23-4.78-6.36-10.99-1.25c-2.1-0.82-3.79-1.49-5.47-2.15
		c-0.18,1.74-0.36,3.48-0.55,5.22c0.4,0.21,0.8,0.41,1.2,0.62c-2.98,1.32-5.95,2.64-8.08,3.58c-2.02-2.64-3.57-4.78-5.32-6.73
		c-0.12-0.14-2.41,0.97-2.52,1.68c-0.17,1.13,0.64,2.41,1.04,3.63c1.04,0.07,2.08,0.14,3.13,0.2c-0.04,0.42-0.08,0.84-0.12,1.26
		c-1.03-0.05-2.05-0.1-3.08-0.15c-1.24-0.81-3.5-1.54-3.57-2.43c-0.56-7.37-0.72-14.77-1-22.16c0,0,0.03,0.06,0.03,0.06
		c-0.33-0.5-0.67-0.99-1-1.49c-0.72,0.73-1.45,1.46-2.35,2.38c-0.43-2.31-0.84-4.49-1.32-7.1c-0.92,1.14-1.54,1.9-2.15,2.66
		C281.11,473.98,282.06,482.05,283.01,490.12z"/>
	<path class="st0" d="M300.94,479.95c0,0-0.04-0.07-0.04-0.07c-1.48-0.66-1.48-1.5,0-3.12c0.09-0.25,0.07-0.49-0.04-0.72
		c1.39-7.35,2.68-14.73,4.23-22.05c0.54-2.57,0.97-4.89-1.15-6.92l0.01,0.01c-1.56-0.7-3.13-1.41-4.69-2.11
		c-0.43,0.14-1.2,0.2-1.25,0.42c-2.68,12.02-5.3,24.06-7.92,36.09c0.36,0.39,0.72,0.77,1.09,1.16
		C294.43,481.74,297.68,480.85,300.94,479.95z"/>
	<path class="st0" d="M386.36,447.62c-1.08,0.34-2.17,0.67-3.25,1.01c-1.02,0.68-2.05,1.35-3.18,2.1c0.35,2.08,0.71,4.18,1.07,6.28
		c1.01,4.15,2.03,8.3,3.04,12.46c0.44,1.3,0.97,2.58,1.26,3.91c0.06,0.28-0.72,0.75-1.11,1.13c-0.03,0.3-0.03,0.51,0.01,0.63
		c0.79,0.63,2.16,1.16,2.3,1.91c0.68,3.85,3.05,5.2,6.64,5.2c1,0,2,0.25,3.63,0.46c-2.83-12.12-5.59-23.92-8.42-36.06
		C387.76,446.94,387.06,447.28,386.36,447.62z"/>
	<path class="st0" d="M389.7,396.92c-1.83,1.2-3.65,2.39-5.48,3.59c0.05,0.35,0.25,0.92,0.13,1c-0.79,0.51-1.65,0.91-2.48,1.34
		c-0.95,0.62-1.9,1.23-2.84,1.85c-0.17,0.16-0.34,0.32-0.5,0.49c-0.07-0.2-0.14-0.39-0.21-0.59c-0.26-7.12-0.52-14.24-0.77-21.35
		c-1.43-0.53-2.67-0.82-2.49,1.48c0.07,0.95-0.14,1.93-0.22,2.9c0.09,3.84,0.71,7.77,0.1,11.49c-0.54,3.31,2.14,7.13-1.42,9.96
		c0.01,0.64,0.02,1.28,0.03,1.92c3.66,0.22,1.27,2.94,1.83,4.44c0.4,1.29,0.8,2.57,1.19,3.86c0,0-0.07-0.05-0.07-0.05
		c0.78,0.52,1.56,1.04,2.34,1.56c1.13,0.11,2.26,0.23,3.73,0.38c0.29-2.47,0.62-4.71,0.8-6.97c0.58-7.04,3.42-10.06,10.46-11.42
		c2.02-0.39,3.92-1.36,5.88-2.06c-0.27-0.91-0.53-1.82-0.8-2.73c0,0,0.04,0.05,0.04,0.05c-1.3-0.18-2.6-0.37-3.9-0.55
		C393.26,397.31,391.48,397.11,389.7,396.92z"/>
	<path class="st0" d="M281.14,377.61c0,0,0.14-0.02,0.14-0.02c-0.15,0.78-0.3,1.56-0.45,2.33c0,0-0.05-0.02-0.05-0.02
		c0.27-0.09,0.54-0.18,0.81-0.27c1.01,1.13,2.02,2.26,3.03,3.39c4.4,2.79,8.8,5.58,13.2,8.37c0.51,0.07,1.01,0.15,1.52,0.22
		c1.17,0.2,2.34,0.41,3.52,0.61l-0.1-0.01c0.55,0.28,1.09,0.56,1.64,0.84l-0.04-0.09c1.07-0.1,2.14-0.19,3.51-0.31
		c0-4.63,0-9.3,0-15.03C298.98,377.61,290.06,377.61,281.14,377.61z"/>
	<path class="st0" d="M302.75,392.21c0,0,0.1,0.01,0.1,0.01c-0.44,1.65-0.44,1.65-3.51,0.62c-0.52-0.21-1.03-0.42-1.55-0.63
		c-5.78-1.65-10.71-4.65-14.66-9.21c-0.52-0.6-1.04-1.21-1.56-1.81l-0.27-0.04l-0.26,0.08c-0.19,0.19-0.39,0.38-0.58,0.56
		c0.3,8.12,6.54,12.12,11.86,16.57c3.26,2.72,6.83,5.47,11.65,4.71c1.27-1.08,2.54-2.15,3.8-3.23c0.08-1.52,0.15-3.03,0.22-4.41
		c-1.31-0.89-2.47-1.69-3.64-2.48c0,0,0.04,0.09,0.04,0.09C303.84,392.77,303.29,392.49,302.75,392.21z"/>
	<path class="st0" d="M298.62,518.81c-0.46,1.14-0.92,2.28-1.4,3.47c3.8,3.35,15.93-0.7,17.6-6.59c-1.94,0.99-3.48,1.92-5.13,2.57
		c-1.74,0.69-3.59,1.1-5.64,1.17c6.73-8.39,15.33-13.96,25.38-17.43c2.25-0.3,4.51-0.5,6.73-0.93c1.13-0.22,2.17-0.86,3.25-1.31
		c-0.11-0.39-0.22-0.77-0.32-1.16c-1.93,0-3.86,0-5.8,0c-2.21,0.33-4.43,0.66-6.64,0.99c0,0,0.05-0.12,0.05-0.12
		c-3.42,1.8-7.09,3.24-10.19,5.47c-4.98,3.57-9.56,7.68-14.35,11.52c-0.85,0.68-1.9,1.13-2.85,1.68l0.04-0.11
		c0.02,0.3,0.03,0.6,0.05,0.91c-0.3-0.02-0.6-0.04-0.91-0.06L298.62,518.81z"/>
	<path class="st0" d="M357.21,501.99c2.46,0.99,5.03,1.76,7.34,3.01c10.79,5.85,14.2,8.61,17.78,15.06
		c-3.4-1.31-6.8-2.61-10.12-3.88c0.21,4.76,12.38,9.35,17.34,6.35c-0.51-1.24-1.02-2.49-1.54-3.73l0.12,0.06
		c-0.3,0.02-0.6,0.04-0.91,0.06c0.02-0.3,0.03-0.6,0.05-0.91c0,0,0.04,0.11,0.04,0.11c-0.4-0.01-1,0.14-1.18-0.07
		c-7.25-8.31-16.41-13.92-26.22-18.61l0.05,0.12c-2.21-0.33-4.43-0.66-6.64-0.99c-1.54-0.02-3.08-0.07-4.61-0.06
		c-0.37,0-0.73,0.17-1.56,0.37C349.91,502.69,354.17,500.47,357.21,501.99z"/>
	<path class="st0" d="M359.98,499.58c0,0-0.05-0.12-0.05-0.12c1.61-0.2,3.21-0.52,4.83-0.59c6.65-0.29,13.3-0.5,19.94-0.74
		c0.01-0.36,0.02-0.72,0.02-1.08c-0.45-0.37-0.89-0.75-1.34-1.12c-2.94-0.02-5.9-0.17-8.83-0.03c-8.61,0.42-15.78-2.42-22.14-9.02
		c0.32,3.42,0.65,6.84,0.97,10.27c0.84,0.21,1.69,0.41,2.51,0.61c0.29-0.94,0.53-1.73,0.81-2.62
		C357.93,496.8,358.96,498.19,359.98,499.58z"/>
	<path class="st0" d="M326.7,499.46c0,0-0.05,0.12-0.05,0.12c1.09-1.48,2.18-2.96,3.34-4.53c0.27,0.96,0.52,1.84,0.79,2.76
		c1.02-0.27,1.74-0.47,2.47-0.66c0.34-3.38,0.69-6.76,1.09-10.77c-2.94,2.37-5.22,4.31-7.62,6.1c-5.33,3.99-11.64,3.17-17.71,3.41
		c-1.92,0.07-3.84,0.03-5.76,0.04c-0.45,0.38-0.9,0.75-2.3,1.93C310.19,498.43,318.45,498.94,326.7,499.46z"/>
	<path class="st0" d="M392.31,427c0,0-0.12-0.14-0.12-0.14c-2.5-3.35-2.92-3.25-7.7,2.56c-0.21-2.59-0.35-4.43-0.53-6.56
		c-0.96,0-2.1,0-3.48,0c0,5.95,0,11.77,0,17.65c2.2,0.6,3.76,0.69,3.71-2.13c-0.03-1.75,0.14-3.51,0.23-5.56
		c3.01,1.12,5.92,2.53,7.58-1.43c0.02-0.04,1.02,0.34,1.56,0.52c0.25-0.54,0.5-1.09,0.75-1.63c-0.57-0.26-1.42-0.39-1.63-0.83
		C392.33,428.74,392.41,427.82,392.31,427z M388.48,428.07c0.3-0.06,0.61-0.13,0.91-0.19c-0.12,0.28-0.23,0.56-0.35,0.84
		c-0.23,0.23-0.45,0.46-0.68,0.69c-0.87,0.13-1.74,0.26-2.61,0.39c-0.05-0.4-0.1-0.8-0.15-1.2c0.32,0.06,0.64,0.11,0.95,0.17
		C387.2,428.53,387.84,428.3,388.48,428.07z"/>
	<path class="st0" d="M293.97,427.77c0.96,6.09,1.89,6.73,7.77,5.5c2.41,1.9-2.1,7.45,4.33,7.59c0-6.04,0-11.88,0-17.99
		c-1.05-0.12-2.13-0.23-3.35-0.37c-0.17,2.18-0.33,4.19-0.54,6.89c-2.62-2.31-3.46-6.42-7.38-3.92
		C294.52,426.23,294.24,427,293.97,427.77z M298.16,428.09c1.1,0.24,2.19,0.49,3.29,0.73c-0.13,0.42-0.25,0.85-0.38,1.27
		c-1.15-0.47-2.29-0.94-3.44-1.42c-0.12-0.26-0.25-0.53-0.37-0.79C297.57,427.95,297.87,428.02,298.16,428.09z"/>
	<path class="st0" d="M406.68,464.63c0.21-1.18,0.52-2.36,0.6-3.56c0.47-6.58,0.92-13.15,1.24-19.74c0.03-0.58-0.94-1.2-1.45-1.8
		c0,0,0.1-0.04,0.1-0.04c-0.98,1.55-1.96,3.11-2.93,4.65c-1.29-3.64-2.59-7.29-3.93-11.07c-2.77,1.54-2.92,3.09-1.77,5.55
		c1.77,3.78,3.16,7.76,4.38,11.76C404.36,455.08,405.44,459.88,406.68,464.63z"/>
	<path class="st0" d="M279.97,464.63c1.24-4.75,2.32-9.55,3.75-14.24c1.22-4,2.61-7.98,4.38-11.76c1.16-2.46,1.01-4.02-1.76-5.56
		c-1.34,3.78-2.64,7.43-3.93,11.06c-0.9-1.41-1.82-2.85-2.73-4.29c-0.47-0.17-0.94-0.33-1.46-0.52
		C278.81,447.85,279.39,456.24,279.97,464.63z"/>
	<path class="st0" d="M280.49,438.92c2.68-1.02,5.07-5.94,4.07-8.42c-0.47-1.17-1.01-2.32-1.52-3.48
		c-1.47-3.32-2.93-6.64-4.46-10.07c-0.51,3.48-1.04,7.01-1.48,10.57c-0.03,0.21,0.74,0.52,1.14,0.79c0.33-0.18,0.67-0.36,1-0.55
		c0.19-0.15,0.37-0.3,0.56-0.46c-0.06,0.29-0.11,0.58-0.17,0.87c-0.14,0.21-0.27,0.42-0.41,0.63
		C277.5,432.44,276.77,435.95,280.49,438.92z"/>
	<path class="st0" d="M403.6,427.02c-1.18,2.87-3.08,5.75-0.47,8.75c1.19,1.37,2.68,2.49,4.04,3.72c0,0-0.1,0.04-0.1,0.04
		c0.15-0.63,0.14-1.38,0.48-1.87c2.34-3.34,0.98-6.41-0.55-9.5c-0.05-0.29-0.11-0.58-0.16-0.88c0.19,0.15,0.38,0.3,0.57,0.46
		c0.69,0.21,1.39,0.42,2.29,0.7c-0.55-3.97-1.08-7.72-1.61-11.59C406.53,420.37,405.06,423.7,403.6,427.02z"/>
	<path class="st0" d="M308.1,419.95c0,0,0.17,0.01,0.17,0.01c0.08-4.88,0.21-9.76,0.21-14.64c0-1.27-0.43-2.54-0.67-3.8
		c-1.19,0.96-2.38,1.93-3.56,2.89c-0.37,1.53-0.99,3.05-1.05,4.59c-0.15,3.9-0.05,7.8-0.05,11.71
		C304.95,420.43,306.53,420.19,308.1,419.95z"/>
	<path class="st0" d="M398.94,398.06c0,0-0.04-0.05-0.04-0.05c0.5,0.69,1.01,1.37,1.51,2.06c3.83-5.82,3.34-17.44-1.53-21.94
		c0,2.23,0.14,3.95-0.07,5.62c-0.08,0.65-0.98,1.2-1.51,1.8c0,0,0,0.11,0,0.11c0.5,0.84,1.37,1.66,1.43,2.53
		C398.94,391.47,398.89,394.77,398.94,398.06z"/>
	<path class="st0" d="M389.23,369.94c-0.79-1.1-1.58-2.19-2.47-3.42c-0.46,0.26-1.13,0.64-1.8,1.02c-1.14,2.68-2.29,5.36-3.6,8.42
		c1.44,0,2.52,0,3.6,0c0.73-1.01,1.46-2.01,2.04-2.8c2.52,0.49,4.82,0.95,7.11,1.4c-0.48-0.79-0.97-1.58-1.45-2.38l0.08,0.07
		c-0.83-0.51-1.66-1.02-2.49-1.53C389.91,370.46,389.57,370.2,389.23,369.94z"/>
	<path class="st0" d="M399.42,371.46c-0.27-0.26-0.55-0.51-0.82-0.77l-0.33-0.08c-1.18,1.43-1.89,1.26-3.28-0.75
		c0,0,0.08,0.06,0.08,0.06c-0.29-0.28-0.57-0.57-0.86-0.85c0,0,0.07,0.09,0.07,0.09c-0.27-0.55-0.53-1.1-0.8-1.65
		c0,0,0.1,0.03,0.09,0.03c-0.53,1.03-1.06,2.06-1.59,3.1c0.25,0.54,0.51,1.07,0.76,1.61c0,0-0.08-0.07-0.08-0.07
		c1.09,0.76,2.17,1.52,3.26,2.29c2.51,0.74,5.03,1.45,7.53,2.23c1.81,0.57,2.22-0.28,2.03-1.85c-1.21-0.53-2.41-1.07-3.62-1.6
		C401.04,372.66,400.23,372.06,399.42,371.46z"/>
	<path class="st0" d="M280.83,379.92c-0.13,0.62-0.25,1.25-0.38,1.87c0.19-0.19,0.39-0.38,0.58-0.56c-0.08-0.44-0.17-0.88-0.25-1.33
		L280.83,379.92z"/>
	<path class="st0" d="M295.88,410.43c0.32,0.04,0.65,0.09,0.97,0.13c-0.14-0.25-0.27-0.49-0.41-0.74
		C296.25,410.02,296.06,410.23,295.88,410.43z"/>
	<path class="st0" d="M390.21,409.83c-0.14,0.24-0.27,0.49-0.41,0.73c0.32-0.04,0.64-0.08,0.97-0.12
		C390.58,410.23,390.4,410.03,390.21,409.83z"/>
	<path class="st0" d="M299.31,518.13c0.04-0.37,0.27-0.92,0.1-1.09c-4.41-4.38-0.78-6,2.54-8.03c3.18-1.95,5.44-4.73,5.32-9.18
		c-5.18,3.78-10.37,7.56-15.89,11.58c1.56,2.31,3.11,4.77,4.87,7.06c0.35,0.45,1.55,0.25,2.35,0.34c0,0-0.12,0.06-0.12,0.06
		c0.29-0.28,0.57-0.57,0.86-0.85L299.31,518.13z"/>
	<path class="st0" d="M388.02,518.81c0.81-0.1,2.01,0.11,2.36-0.34c1.77-2.29,3.31-4.75,4.87-7.06c-5.52-4.02-10.7-7.8-16.78-12.23
		c0.85,5.76,3.76,8.83,7.48,10.68c3.68,1.83,4.89,3.35,1.52,6.48c-0.32,0.3-0.1,1.18-0.14,1.79c0,0-0.04-0.11-0.04-0.11
		c0.29,0.28,0.57,0.57,0.86,0.85L388.02,518.81z"/>
	<path class="st0" d="M291.84,504.24c-2.22-2.07-0.34-6.97-5.96-6.42c1.79,4.14,3.46,7.98,5.13,11.83c0.51,0.09,1.01,0.18,1.52,0.28
		c1.63-3.7,3.27-7.41,5.07-11.5C295.12,498.55,295.12,498.55,291.84,504.24z"/>
	<path class="st0" d="M395.55,509.68c1.7-3.78,3.39-7.56,5.13-11.43c-2.47-0.36-2.47-0.36-5.88,5.84c-2.49-1.14-0.19-6.31-5.68-5.76
		c1.72,4.11,3.27,7.83,4.82,11.55C394.48,509.82,395.02,509.75,395.55,509.68z"/>
	<path class="st0" d="M385.87,524.63c-6.92-0.32-11.69,4.36-12.39,11.65C377.7,532.32,381.43,528.81,385.87,524.63z"/>
	<path class="st0" d="M300.97,524.87c4.27,3.99,7.97,7.46,12.04,11.28C312.69,529.06,307.55,524.11,300.97,524.87z"/>
	<path class="st0" d="M370.93,503.66c0.93,0.67,1.86,1.33,3,2.15c1.08-1.78,2.18-3.58,3.31-5.43
		C372.85,499.11,372.84,499.11,370.93,503.66z"/>
	<path class="st0" d="M312.6,505.89c1.21-0.86,2.14-1.52,3.13-2.22c-0.8-3.21-2.51-4.93-6.35-3.57
		C310.4,501.93,311.42,503.77,312.6,505.89z"/>
	<path class="st0" d="M322.28,328.72c13.94-7.48,28.11-7.53,42.07,0.01c1.39-4.07-0.12-6.49-3.22-7.97
		c-11.82-5.68-23.71-5.74-35.54-0.03C322.53,322.2,320.83,324.56,322.28,328.72z"/>
	<path class="st0" d="M380.1,368.56c1.92-8.35,1.92-8.35,0-9.73C380.1,362.27,380.1,365.42,380.1,368.56z"/>
	<path class="st0" d="M373.53,411c-0.01-0.64-0.02-1.28-0.03-1.92c0.08-7.15,0.16-14.31,0.25-21.46c-0.01-2.56-0.02-5.12-0.03-7.69
		c-0.01-0.52-0.02-1.05-0.03-1.57c-0.6-0.35-1.2-0.71-1.79-1.06c-3.58-0.06-7.15-0.19-10.72-0.17c-14.7,0.08-29.4,0.21-44.1,0.31
		c-2.14,0.13-4.29,0.26-7.56,0.46c0,10.45-0.02,20.79,0.01,31.13c0.01,3.19,0.14,6.37,0.21,9.56c0,0-0.04-0.14-0.04-0.14
		c4.34-0.07,8.68-0.19,13.03-0.19c16.87-0.02,33.75-0.01,50.79-0.01c0.07-0.38,0.15-0.86,0.25-1.32c0.1-0.49,0.23-0.98,0.35-1.47
		C373.91,413.97,373.72,412.48,373.53,411z"/>
	<path class="st0" d="M317.07,376.24c0.78-1.01,1.99-1.92,2.28-3.05c2.89-11.47,10.49-18.44,21.22-22.36
		c1.61-0.59,3.83-0.65,5.37-0.01c3.52,1.45,6.91,3.31,10.14,5.34c6.25,3.91,9.13,10.19,11.05,16.95c0.68,2.4,1.8,3.49,4.28,3
		c-1.55-12.5-8.9-21.21-19.25-27.18c-7.05-4.07-14.56-3.13-21.09,2.3c-7.2,5.99-13.55,12.56-15.44,22.23
		C315.38,374.74,314.57,376.35,317.07,376.24z"/>
</g>
</svg>
